<?xml version="1.0" encoding="utf-8"?>
<!-- Generator: Adobe Illustrator 26.3.1, SVG Export Plug-In . SVG Version: 6.00 Build 0)  -->
<svg version="1.1" id="圖層_1" xmlns="http://www.w3.org/2000/svg" xmlns:xlink="http://www.w3.org/1999/xlink" x="0px" y="0px"
	 viewBox="0 0 1920 1080" style="enable-background:new 0 0 1920 1080;" xml:space="preserve">
<style type="text/css">
	.st0{clip-path:url(#SVGID_00000005983128605430819190000007615125394116727693_);}
	.st1{fill:url(#SVGID_00000183217998184359945860000017563836144942220211_);}
	
		.st2{fill:url(#SVGID_00000183963838228235622200000007456519511376459930_);stroke:url(#SVGID_00000180365005303462979250000015258666700544555694_);stroke-width:12;}
	.st3{fill-rule:evenodd;clip-rule:evenodd;fill:url(#SVGID_00000055694645069281387140000016676149067561715876_);}
	.st4{fill-rule:evenodd;clip-rule:evenodd;fill:#FFFFFF;filter:url(#Adobe_OpacityMaskFilter);}
	
		.st5{mask:url(#path-3-inside-1_559_18816_00000044167619369813066300000000476163520424276386_);fill:url(#SVGID_00000047036279869561112730000001729089302304163971_);}
	.st6{fill:url(#SVGID_00000126297072745116741340000001720701760260389796_);}
	.st7{fill:#608B96;}
	.st8{fill:#919191;}
	.st9{fill:#BFBFBF;}
	.st10{fill:#BC8430;}
	.st11{fill:url(#SVGID_00000050663410628101940460000009068896329849713552_);}
	.st12{fill:#8E6424;}
	.st13{fill:#8F6424;}
	.st14{fill:url(#SVGID_00000016786278624442825960000010388176396448863415_);}
	.st15{fill:#D9D9D9;}
	.st16{fill:#E5E5E5;}
	.st17{fill:#FDFDFD;}
	.st18{fill:#EFEFEE;}
	.st19{fill:#84B4C2;}
	.st20{fill:#FFFFFF;}
	.st21{fill:#EDEDED;}
	.st22{fill:#9F9F9F;}
	.st23{fill:url(#SVGID_00000001643173031540063920000006459694320242996157_);}
	.st24{fill:url(#SVGID_00000083088626417763001600000016345767840704754354_);}
	.st25{fill:url(#SVGID_00000170987683232486204440000000488149322317710754_);}
	.st26{fill:url(#SVGID_00000134950111904315207460000010361590587351990928_);}
	.st27{fill:url(#SVGID_00000100362786038283677630000004885600548832855191_);}
	.st28{fill:url(#SVGID_00000147901656272401160040000010504573151899767182_);}
	.st29{fill:url(#SVGID_00000118372516978870501250000009202195250988529590_);}
	.st30{fill:url(#SVGID_00000168805653073504649760000016778131197379066546_);}
	.st31{fill:url(#SVGID_00000164492647645270419210000008428236045552480137_);}
	.st32{fill:#E54332;}
	.st33{fill:url(#SVGID_00000159436098164008279960000006748157412788236965_);}
	.st34{fill:url(#SVGID_00000100355313499634806880000007996936738513785479_);}
	.st35{fill:#F7BD00;}
	.st36{fill:url(#SVGID_00000089568110657478559500000006056388459008775851_);}
	.st37{fill:none;}
	.st38{fill:url(#SVGID_00000129902753757985245960000013405537878835345052_);}
	.st39{fill:url(#SVGID_00000044159273663287664230000004296819566388600964_);}
	.st40{fill:#424452;}
	.st41{fill:#698F97;}
	.st42{fill:url(#SVGID_00000011724217356522512640000017010540769454456235_);}
	.st43{fill:#9E3E38;}
	.st44{fill:url(#SVGID_00000016044518539364447940000011684224476514092954_);}
	.st45{fill:#903933;}
	.st46{fill:#9B9B9B;}
	.st47{fill:#868686;}
	.st48{fill:url(#SVGID_00000031171165336989558010000003847523319623880320_);}
	.st49{fill:url(#SVGID_00000093168405817111372130000009051934593991540158_);}
	.st50{fill:url(#SVGID_00000145749716393714738800000004336659556182770576_);}
	.st51{fill:url(#SVGID_00000148627194083579533860000017955493740749142434_);}
	.st52{fill:#913933;}
	.st53{fill:url(#SVGID_00000085936648030464230810000001272560211581836208_);}
	.st54{fill:#AAAAAA;}
	.st55{fill:url(#SVGID_00000021083682594370836610000006175074534885205406_);}
	.st56{fill:url(#SVGID_00000103943184082123037600000002914771227506498958_);}
	.st57{fill:url(#SVGID_00000057870706380643881190000006875452609483794602_);}
	.st58{fill:url(#SVGID_00000087393062937041100970000003243530427749326777_);}
	.st59{fill:url(#SVGID_00000005259202545007546830000015062232406470417081_);}
	.st60{fill:url(#SVGID_00000017516699163735130490000016915687314140964788_);}
	.st61{fill:url(#SVGID_00000106128669445209185770000010247381261842389164_);}
	.st62{fill:url(#SVGID_00000028294122696497754090000010432846423745843374_);}
	.st63{fill:url(#SVGID_00000170967246075187437290000017724588537120310961_);}
	.st64{opacity:0.41;fill:#808080;enable-background:new    ;}
	.st65{fill:#ACB8CC;}
	.st66{fill:#F64A3A;}
	.st67{fill:url(#SVGID_00000110441347693820143410000012269687007176295556_);}
	.st68{fill:#EBEBEB;}
	.st69{fill:url(#SVGID_00000008859977580952455220000003976277677898578104_);}
	.st70{fill:url(#SVGID_00000052082237513331154320000004398628837487223987_);}
	.st71{fill:url(#SVGID_00000168090661716754950050000007578542667218441866_);}
	.st72{fill:url(#SVGID_00000115512248813643012570000006959622402959149215_);}
	.st73{fill:url(#SVGID_00000100355186654534053540000004811468937182243497_);}
	.st74{fill:url(#SVGID_00000003095754606706616460000007215645656052559039_);}
	.st75{fill:url(#SVGID_00000037671893722070929290000007289420563116410813_);}
	.st76{fill:url(#SVGID_00000145759938314662153790000014477713920076162977_);}
	.st77{fill:#F7F7F7;}
</style>
<g>
	<defs>
		<rect id="SVGID_1_" x="-229.15" y="-60.41" width="2400" height="1200"/>
	</defs>
	<clipPath id="SVGID_00000102525534289382457540000008523552004380930958_">
		<use xlink:href="#SVGID_1_"  style="overflow:visible;"/>
	</clipPath>
	<g style="clip-path:url(#SVGID_00000102525534289382457540000008523552004380930958_);">
		
			<radialGradient id="SVGID_00000180356756043416307130000013998062091357978792_" cx="0.4642" cy="1081.2117" r="1" gradientTransform="matrix(1435.6 0 0 -1435.6 304.4 1552727.125)" gradientUnits="userSpaceOnUse">
			<stop  offset="0" style="stop-color:#F7F7F7"/>
			<stop  offset="1" style="stop-color:#9DC8D3;stop-opacity:0"/>
		</radialGradient>
		<path style="fill:url(#SVGID_00000180356756043416307130000013998062091357978792_);" d="M2170.85-60.41h-2400v1200h2400V-60.41z"
			/>
		
			<linearGradient id="SVGID_00000003823316166276510550000013099895079700428171_" gradientUnits="userSpaceOnUse" x1="250.7175" y1="1384.9062" x2="250.7175" y2="184.9062" gradientTransform="matrix(1 0 0 -1 539 1324.5)">
			<stop  offset="0" style="stop-color:#9DC8D3;stop-opacity:0"/>
			<stop  offset="1" style="stop-color:#9DC8D3"/>
		</linearGradient>
		
			<linearGradient id="SVGID_00000101784558377298457540000016301518062326663578_" gradientUnits="userSpaceOnUse" x1="249.0596" y1="1384.9062" x2="249.0596" y2="184.9062" gradientTransform="matrix(1 0 0 -1 539 1324.5)">
			<stop  offset="0" style="stop-color:#9DC8D3;stop-opacity:0"/>
			<stop  offset="1" style="stop-color:#9DC8D3"/>
		</linearGradient>
		
			<path style="fill:url(#SVGID_00000003823316166276510550000013099895079700428171_);stroke:url(#SVGID_00000101784558377298457540000016301518062326663578_);stroke-width:12;" d="
			M1823.91-54.41H-244.48v349.29L10.83,167.23c0,0,0.01,0,0.01,0 M1823.91-54.41l-1618.19,227c-53.2-26.6-139.2-26.6-192.2,0
			l-2.68-5.37 M1823.91-54.41L889.03,413.23c0,0,0,0,0,0c-25.55,12.77-59.37,19.32-93.49,19.32c-34.12,0-67.88-6.54-93.33-19.31
			l-0.01,0l-0.01,0l-493.79-246 M1823.91-54.41L208.4,167.23 M10.84,167.23c27.55-13.83,63.28-20.58,98.71-20.58
			c35.43,0,71.21,6.76,98.86,20.58 M10.84,167.23H208.4 M32.2,894.16L32.2,894.16c25.45-12.78,59.22-19.32,93.32-19.32
			s67.86,6.54,93.31,19.31l0.01,0.01l478.87,239.43h-942.18V1032.5L32.2,894.16z"/>
	</g>
</g>
<linearGradient id="SVGID_00000021115209646763009310000015313464610028081850_" gradientUnits="userSpaceOnUse" x1="311.844" y1="839.9062" x2="311.844" y2="442.177" gradientTransform="matrix(1 0 0 -1 539 1324.5)">
	<stop  offset="0" style="stop-color:#9DC8D3;stop-opacity:0"/>
	<stop  offset="1" style="stop-color:#9DC8D3"/>
</linearGradient>
<path style="fill-rule:evenodd;clip-rule:evenodd;fill:url(#SVGID_00000021115209646763009310000015313464610028081850_);" d="
	M610.59,644.42l-13.39,7.66l-66.35,37.95c-0.83,0.47-1.61,0.99-2.33,1.55l-93.67,53.22l46.29,26.73l66.96-38.09l248.73,143.52
	c12.39,7.17,27.67,7.17,40.07,0l257.03-153.52l126.65,73.11l46.25-26.73l-155.82-90.01c-10.54-6.09-23.48-6.09-33.98,0l-8.84,5.09
	l-0.09-0.05L816.79,835.03L594.68,706.84l45.57-26.19c41.51,14.6,96.41,11.54,132.33-9.19c25.42-14.65,35.51-34.82,30.26-53.86
	l97.09-55.24l-46.07-26.77l-82.71,46.99c-34.61-19.25-86.03-22.54-126.4-9.87L492.1,484.59l-46.24,26.73l153.65,88.7l10.37,5.99
	c0.64,0.37,1.3,0.71,1.95,1.05c0.22,0.11,0.44,0.23,0.66,0.35c0.36,0.27,0.77,0.54,1.22,0.81l3.07,1.76
	c11.67,6.72,26.23,5.99,37.14-1.94c1.26-0.95,2.66-1.85,4.15-2.7c2.03-1.17,4.15-2.21,6.35-3.16c6.63-2.84,14.15-4.64,21.95-5.5
	c16.95-1.8,35.16,1.08,48.27,8.65c21.14,12.21,21.14,32,0,44.21c-14.6,8.43-35.43,11.04-53.91,7.84
	c-8.29-1.44-16.14-4.06-22.72-7.84c-0.81-0.49-1.62-0.99-2.39-1.49c-0.77-0.5-1.49-0.99-2.21-1.53c-1.44-1.04-2.7-2.12-3.83-3.25
	c-4.64-4.51-13.7-5.27-22.4-4.06C621.46,639.73,615.78,641.44,610.59,644.42z"/>
<defs>
	<filter id="Adobe_OpacityMaskFilter" filterUnits="userSpaceOnUse" x="430.83" y="482.28" width="840" height="402.04">
		<feColorMatrix  type="matrix" values="1 0 0 0 0  0 1 0 0 0  0 0 1 0 0  0 0 0 1 0"/>
	</filter>
</defs>
<mask maskUnits="userSpaceOnUse" x="430.83" y="482.28" width="840" height="402.04" id="path-3-inside-1_559_18816_00000044167619369813066300000000476163520424276386_">
	<path class="st4" d="M610.59,644.42l-13.39,7.66l-66.35,37.95c-0.83,0.47-1.61,0.99-2.33,1.55l-93.67,53.22l46.29,26.73
		l66.96-38.09l248.73,143.52c12.39,7.17,27.67,7.17,40.07,0l257.03-153.52l126.65,73.11l46.25-26.73l-155.82-90.01
		c-10.54-6.09-23.48-6.09-33.98,0l-8.84,5.09l-0.09-0.05L816.79,835.03L594.68,706.84l45.57-26.19
		c41.51,14.6,96.41,11.54,132.33-9.19c25.42-14.65,35.51-34.82,30.26-53.86l97.09-55.24l-46.07-26.77l-82.71,46.99
		c-34.61-19.25-86.03-22.54-126.4-9.87L492.1,484.59l-46.24,26.73l153.65,88.7l10.37,5.99c0.64,0.37,1.3,0.71,1.95,1.05
		c0.22,0.11,0.44,0.23,0.66,0.35c0.36,0.27,0.77,0.54,1.22,0.81l3.07,1.76c11.67,6.72,26.23,5.99,37.14-1.94
		c1.26-0.95,2.66-1.85,4.15-2.7c2.03-1.17,4.15-2.21,6.35-3.16c6.63-2.84,14.15-4.64,21.95-5.5c16.95-1.8,35.16,1.08,48.27,8.65
		c21.14,12.21,21.14,32,0,44.21c-14.6,8.43-35.43,11.04-53.91,7.84c-8.29-1.44-16.14-4.06-22.72-7.84
		c-0.81-0.49-1.62-0.99-2.39-1.49c-0.77-0.5-1.49-0.99-2.21-1.53c-1.44-1.04-2.7-2.12-3.83-3.25c-4.64-4.51-13.7-5.27-22.4-4.06
		C621.46,639.73,615.78,641.44,610.59,644.42z"/>
</mask>
<linearGradient id="SVGID_00000029013151021889648290000011051315418401544326_" gradientUnits="userSpaceOnUse" x1="311.832" y1="839.9062" x2="311.832" y2="442.1772" gradientTransform="matrix(1 0 0 -1 539 1324.5)">
	<stop  offset="0" style="stop-color:#9DC8D3;stop-opacity:0"/>
	<stop  offset="1" style="stop-color:#9DC8D3"/>
</linearGradient>
<path style="mask:url(#path-3-inside-1_559_18816_00000044167619369813066300000000476163520424276386_);fill:url(#SVGID_00000029013151021889648290000011051315418401544326_);" d="
	M597.21,652.08l0.99,1.73l0,0L597.21,652.08z M610.59,644.42l0.99,1.73l0,0L610.59,644.42z M530.86,690.03l0.99,1.74l-0.01,0
	L530.86,690.03z M528.53,691.58l1.22,1.58l-0.11,0.09l-0.12,0.07L528.53,691.58z M434.85,744.8l-1,1.73l-3.02-1.75l3.04-1.72
	L434.85,744.8z M481.14,771.53l0.99,1.74l-1,0.57l-0.99-0.57L481.14,771.53z M548.1,733.43l-0.99-1.74l1-0.57l0.99,0.57
	L548.1,733.43z M796.83,876.95l1-1.73v0L796.83,876.95z M836.9,876.95l1.02,1.72l-0.01,0.01l-0.01,0.01L836.9,876.95z
	 M1093.93,723.43l-1.03-1.72l1.01-0.6l1.02,0.59L1093.93,723.43z M1220.58,796.54l1,1.73l-1,0.58l-1-0.58L1220.58,796.54z
	 M1266.83,769.81l1-1.73l3,1.73l-3,1.73L1266.83,769.81z M1111.01,679.8l1-1.73l0,0L1111.01,679.8z M1077.03,679.8l1,1.73v0
	L1077.03,679.8z M1068.19,684.89l1,1.73l-0.93,0.54l-0.96-0.48L1068.19,684.89z M1068.1,684.85l-1.02-1.72l0.94-0.56l0.98,0.49
	L1068.1,684.85z M816.79,835.03l1.03,1.72l-1.01,0.6l-1.02-0.59L816.79,835.03z M594.68,706.84l-1,1.73l-3.01-1.74l3.01-1.73
	L594.68,706.84z M640.25,680.66l-1-1.73l0.79-0.46l0.86,0.3L640.25,680.66z M772.58,671.46l-1-1.73l0,0L772.58,671.46z
	 M802.84,617.61l-1.93,0.53l-0.41-1.5l1.35-0.77L802.84,617.61z M899.93,562.37l1-1.73l3.01,1.75l-3.02,1.72L899.93,562.37z
	 M853.86,535.59l-0.98-1.74l1-0.57l0.99,0.58L853.86,535.59z M771.15,582.58l0.99,1.74l-0.98,0.55l-0.98-0.55L771.15,582.58z
	 M644.76,572.71l0.6,1.91l-0.84,0.26l-0.76-0.44L644.76,572.71z M492.1,484.59l-1-1.73l1-0.58l1,0.58L492.1,484.59z M445.85,511.32
	l-1,1.73l-3-1.73l3-1.73L445.85,511.32z M599.51,600.02l1-1.73l0,0L599.51,600.02z M609.87,606.02l1-1.73l0,0L609.87,606.02z
	 M611.82,607.07l0.92-1.77l0,0L611.82,607.07z M612.49,607.42l0.93-1.77l0.14,0.07l0.13,0.1L612.49,607.42z M613.7,608.23
	l-0.99,1.73l-0.02-0.01l-0.02-0.01L613.7,608.23z M616.77,609.98l0.99-1.73l0,0L616.77,609.98z M653.91,608.05l1.2,1.6l-0.01,0.01
	l-0.01,0.01L653.91,608.05z M658.05,605.34l1,1.73l0,0L658.05,605.34z M664.41,602.19l0.79,1.84l0,0L664.41,602.19z M686.36,596.69
	l-0.22-1.99l0.01,0L686.36,596.69z M734.63,605.34l1-1.73h0L734.63,605.34z M734.63,649.56l1,1.73l0,0L734.63,649.56z M680.72,657.4
	l-0.34,1.97l0,0L680.72,657.4z M658.01,649.56l-1,1.73l-0.02-0.01l-0.02-0.01L658.01,649.56z M653.41,646.54l1.17-1.62l0.02,0.01
	l0.02,0.01L653.41,646.54z M649.58,643.29l1.39-1.43l0.01,0.01l0.01,0.01L649.58,643.29z M627.18,639.24l0.28,1.98l-0.05,0.01
	l-0.05,0L627.18,639.24z M596.21,650.35l13.39-7.66l1.99,3.47l-13.39,7.66L596.21,650.35z M529.87,688.3l66.35-37.95l1.99,3.47
	l-66.35,37.95L529.87,688.3z M527.3,690c0.8-0.62,1.66-1.19,2.57-1.71l1.98,3.48c-0.75,0.43-1.45,0.89-2.1,1.39L527.3,690z
	 M529.52,693.32l-93.67,53.22l-1.98-3.48l93.67-53.22L529.52,693.32z M435.85,743.07l46.29,26.73l-2,3.46l-46.29-26.73
	L435.85,743.07z M480.15,769.79l66.96-38.1l1.98,3.48l-66.96,38.1L480.15,769.79z M795.83,878.68L547.1,735.16l2-3.47l248.73,143.52
	L795.83,878.68z M837.9,878.68c-13.02,7.52-29.06,7.52-42.07,0l2-3.46c11.77,6.81,26.29,6.81,38.07,0L837.9,878.68z M1094.96,725.15
	L837.92,878.66l-2.05-3.43l257.03-153.52L1094.96,725.15z M1219.58,798.27l-126.65-73.11l2-3.46l126.65,73.11L1219.58,798.27z
	 M1267.83,771.54l-46.25,26.73l-2-3.46l46.25-26.73L1267.83,771.54z M1112.01,678.07l155.82,90.01l-2,3.46l-155.82-90.01
	L1112.01,678.07z M1076.03,678.07c11.12-6.44,24.82-6.44,35.98,0l-2,3.46c-9.93-5.73-22.1-5.73-31.98,0L1076.03,678.07z
	 M1067.2,683.16l8.83-5.09l2,3.47l-8.84,5.09L1067.2,683.16z M1069,683.06l0.09,0.05l-1.79,3.58l-0.09-0.05L1069,683.06z
	 M815.77,833.31l251.31-150.18l2.05,3.43L817.82,836.75L815.77,833.31z M595.68,705.11L817.79,833.3l-2,3.46L593.68,708.58
	L595.68,705.11z M641.25,682.39l-45.57,26.19l-1.99-3.47l45.57-26.19L641.25,682.39z M773.58,673.2
	c-36.5,21.06-92.01,24.12-134,9.35l1.33-3.77c41.04,14.44,95.32,11.36,130.67-9.04L773.58,673.2z M804.77,617.07
	c5.58,20.25-5.32,41.21-31.19,56.12l-2-3.46c24.97-14.4,34.25-33.76,29.33-51.59L804.77,617.07z M801.85,615.87l97.09-55.24
	l1.98,3.48l-97.09,55.24L801.85,615.87z M898.92,564.1l-46.06-26.77l2.01-3.46l46.06,26.77L898.92,564.1z M854.85,537.33
	l-82.71,46.99l-1.98-3.48l82.72-46.99L854.85,537.33z M644.16,570.8c40.81-12.81,92.81-9.52,127.97,10.03l-1.94,3.5
	c-34.07-18.95-84.9-22.24-124.83-9.71L644.16,570.8z M493.1,482.86l152.66,88.12l-2,3.46L491.1,486.33L493.1,482.86z M444.85,509.59
	l46.24-26.73l2,3.46l-46.24,26.73L444.85,509.59z M598.51,601.76l-153.65-88.7l2-3.46l153.65,88.7L598.51,601.76z M608.87,607.75
	l-10.37-5.99l2-3.46l10.37,5.99L608.87,607.75z M610.9,608.85c-0.65-0.34-1.35-0.7-2.03-1.1l2-3.46c0.59,0.34,1.21,0.67,1.87,1.01
	L610.9,608.85z M611.55,609.19c-0.21-0.11-0.43-0.22-0.65-0.34l1.84-3.55c0.22,0.11,0.45,0.23,0.67,0.35L611.55,609.19z
	 M612.67,609.94c-0.5-0.3-0.97-0.61-1.39-0.93l2.4-3.2c0.3,0.22,0.65,0.46,1.05,0.7L612.67,609.94z M615.77,611.72l-3.07-1.76
	l1.99-3.47l3.07,1.76L615.77,611.72z M655.08,609.66c-11.55,8.4-26.96,9.16-39.31,2.05l1.99-3.47c10.99,6.33,24.7,5.64,34.97-1.82
	L655.08,609.66z M659.05,607.08c-1.43,0.83-2.76,1.68-3.95,2.57l-2.4-3.2c1.34-1.01,2.81-1.95,4.35-2.84L659.05,607.08z
	 M665.2,604.03c-2.15,0.92-4.19,1.92-6.14,3.05l-2-3.46c2.11-1.22,4.3-2.29,6.57-3.26L665.2,604.03z M686.58,598.68
	c-7.64,0.84-14.97,2.6-21.38,5.35l-1.58-3.68c6.84-2.93,14.57-4.78,22.52-5.65L686.58,598.68z M733.63,607.07
	c-12.67-7.31-30.43-10.17-47.06-8.4l-0.42-3.98c17.26-1.84,35.92,1.08,49.48,8.91L733.63,607.07z M733.63,647.83
	c10.21-5.9,14.86-13.34,14.86-20.38c0-7.03-4.65-14.48-14.86-20.38l2-3.46c10.93,6.32,16.85,14.87,16.85,23.84
	c0,8.97-5.92,17.52-16.85,23.84L733.63,647.83z M681.07,655.43c18.13,3.14,38.45,0.54,52.57-7.6l2,3.47
	c-15.09,8.71-36.41,11.34-55.25,8.08L681.07,655.43z M659.01,647.82c6.34,3.65,13.95,6.2,22.06,7.61l-0.69,3.94
	c-8.47-1.47-16.55-4.15-23.37-8.08L659.01,647.82z M656.71,646.39c0.74,0.48,1.53,0.96,2.35,1.46l-2.09,3.41
	c-0.81-0.49-1.64-1-2.43-1.52L656.71,646.39z M654.61,644.94c0.68,0.51,1.36,0.98,2.09,1.45l-2.17,3.36
	c-0.8-0.52-1.56-1.04-2.32-1.61L654.61,644.94z M650.99,641.88c1.05,1.05,2.23,2.06,3.58,3.04l-2.33,3.25
	c-1.53-1.1-2.88-2.25-4.08-3.45L650.99,641.88z M626.9,637.26c4.49-0.63,9.13-0.75,13.3-0.11c4.15,0.64,8.03,2.06,10.77,4.72
	l-2.79,2.87c-1.91-1.85-4.87-3.06-8.59-3.63c-3.69-0.57-7.93-0.47-12.14,0.12L626.9,637.26z M609.6,642.69
	c5.44-3.12,11.41-4.92,17.41-5.44l0.34,3.98c-5.44,0.47-10.84,2.1-15.76,4.93L609.6,642.69z"/>
<linearGradient id="SVGID_00000132061149863151815130000012880732991628475818_" gradientUnits="userSpaceOnUse" x1="416.439" y1="627.9943" x2="416.439" y2="596.6508" gradientTransform="matrix(1 0 0 -1 539 1324.5)">
	<stop  offset="0" style="stop-color:#3C6A75"/>
	<stop  offset="1" style="stop-color:#608B96"/>
</linearGradient>
<path style="fill:url(#SVGID_00000132061149863151815130000012880732991628475818_);" d="M997.36,698.58L953.65,724
	c-1.95,1.15-5.29,1.15-7.24,0l-32.89-18.98c-1.04-0.58-1.5-1.38-1.5-2.19v2.99c0,0.8,0.46,1.49,1.5,2.18l32.89,18.98
	c2.07,1.15,5.29,1.15,7.24,0l43.71-25.42c1.03-0.58,1.49-1.38,1.49-2.07v-2.99C998.85,697.31,998.28,698,997.36,698.58z"/>
<path class="st7" d="M997.24,694.43c2.07,1.15,2.07,3.11,0,4.26l-43.7,25.42c-1.96,1.15-5.29,1.15-7.25,0l-32.89-18.98
	c-2.07-1.15-2.07-3.11,0-4.26l43.7-25.42c1.96-1.15,5.29-1.15,7.25,0L997.24,694.43z"/>
<path class="st8" d="M972.51,682.01v2.88l-1.15,0.58v-2.88L972.51,682.01z"/>
<path class="st9" d="M971.36,682.59v2.88c-0.23,0.11-0.34,0.23-0.34,0.46v-2.88C971.02,682.93,971.13,682.82,971.36,682.59z"/>
<path class="st10" d="M982.4,683.39v2.88c0-0.23-0.11-0.34-0.34-0.58c-0.46-0.34-1.38-0.34-1.84,0c-0.23,0.12-0.35,0.35-0.35,0.58
	v-2.88c0-0.23,0.12-0.34,0.35-0.58c0.46-0.34,1.38-0.34,1.84,0C982.29,682.93,982.4,683.16,982.4,683.39z"/>
<path class="st10" d="M971.36,683.51v2.88c-0.23-0.11-0.34-0.23-0.34-0.46v-2.88C971.02,683.28,971.13,683.39,971.36,683.51z"/>
<linearGradient id="SVGID_00000155123677758605249870000002910520013282226343_" gradientUnits="userSpaceOnUse" x1="446.3212" y1="636.8813" x2="444.0512" y2="636.4283" gradientTransform="matrix(1 0 0 -1 539 1324.5)">
	<stop  offset="0" style="stop-color:#F59E5B"/>
	<stop  offset="1" style="stop-color:#F5C25B"/>
</linearGradient>
<path style="fill:url(#SVGID_00000155123677758605249870000002910520013282226343_);" d="M984.82,687.53
	c0.11-0.11,0.11-0.23,0.11-0.35v-2.88c0,0.35-0.23,0.69-0.57,0.92c-0.46,0.23-0.92,0.58-1.15,0.69v2.88
	c0.11-0.11,0.23-0.11,0.46-0.23v2.76l1.15-0.69c0.23-0.11,0.34-0.23,0.34-0.46v-2.88C984.93,687.42,984.93,687.42,984.82,687.53z"/>
<path class="st12" d="M983.55,688.34v2.88l-1.15,0.69v-2.88L983.55,688.34z"/>
<path class="st13" d="M980.91,689.03l-0.12,2.88l-9.43-5.52v-2.88L980.91,689.03z"/>
<path class="st10" d="M982.4,689.03v2.88c-0.46,0.23-1.15,0.23-1.49,0v-2.88C981.25,689.26,981.94,689.26,982.4,689.03z"/>
<linearGradient id="SVGID_00000152222930775738603000000017756608815072692650_" gradientUnits="userSpaceOnUse" x1="432.0341" y1="639.2662" x2="446.0641" y2="639.2662" gradientTransform="matrix(1 0 0 -1 539 1324.5)">
	<stop  offset="0" style="stop-color:#F3E5A5"/>
	<stop  offset="1" style="stop-color:#F4C15B"/>
</linearGradient>
<path style="fill:url(#SVGID_00000152222930775738603000000017756608815072692650_);" d="M984.7,686.84c0.46,0.23,0.46,0.69,0,0.92
	l-1.15,0.69l-1.15,0.69c-0.46,0.23-1.15,0.23-1.49,0l-9.55-5.52c-0.46-0.23-0.46-0.69,0-0.92l1.15-0.69l1.15-0.69
	c0.46-0.23,1.15-0.23,1.5,0l1.61,0.92c0.23-0.11,0.69-0.46,1.15-0.69c0.8-0.46,2.3-0.46,3.22,0.11l2.99,1.73
	c0.92,0.58,1.03,1.38,0.11,1.96c-0.46,0.23-0.92,0.58-1.15,0.69L984.7,686.84z M980.22,683.85c0.57,0.34,1.38,0.34,1.84,0
	c0.46-0.35,0.46-0.8,0-1.04c-0.46-0.34-1.38-0.34-1.84,0C979.64,683.16,979.64,683.62,980.22,683.85z"/>
<path class="st15" d="M951.81,681.78c1.73,3.8,5.41,6.79,8.97,8.74c4.83,2.65,11.16,4.14,16.68,4.26c3.1,0,6.32-0.35,9.43-0.58
	c1.61-0.11,2.99-0.58,4.48-1.03l3.68,1.72v1.38l-35.65,20.82l-9.66,5.41v-39.45L951.81,681.78z"/>
<path class="st16" d="M915.7,701.57l33.81-18.63v39.57l-33.81-19.67V701.57z"/>
<path class="st17" d="M915.7,701.57l33.81,19.55l45.43-26.22l-11.39-6.56l-1.15,0.69c-0.46,0.23-1.15,0.23-1.49,0l-9.55-5.52
	c-0.46-0.23-0.46-0.69,0-0.92l1.15-0.69l-11.5-6.67L915.7,701.57z"/>
<path class="st18" d="M959.06,678.91l14.49,8.4l-14.38,8.4l-14.49-8.4L959.06,678.91z M958.71,693.74c0.23-0.11,0.46-0.23,0.58-0.34
	c0.8-0.58,1.26-1.38,1.49-2.19c0.12-0.46,0.12-0.8,0-1.15c-0.11-0.23-0.23-0.46-0.46-0.69l-0.11-0.12c-0.35-0.34-0.58-0.8-0.58-1.15
	l0.58-0.35c1.26,0.23,2.76,0,3.79-0.69c0.46-0.11,0.81-0.34,1.15-0.46c1.61-0.92,1.96-2.07,0.23-2.99c-1.61-0.92-3.68-0.8-5.17,0.11
	c-0.35,0.23-0.58,0.46-0.81,0.69c-1.15,0.69-1.49,1.49-1.15,2.18l-0.69,0.34c-0.11,0-0.23,0-0.23,0s0,0-0.11,0h-0.12h-0.11h-0.12
	h-0.11h-0.12h-0.11c-0.23,0-0.46-0.11-0.58-0.11c-0.11,0-0.23-0.11-0.34-0.11c-0.46-0.23-0.92-0.23-1.5-0.35
	c-0.69-0.11-1.38-0.11-2.07,0c-1.38,0.12-2.64,0.35-3.68,0.92c-0.23,0.11-0.46,0.23-0.69,0.34l1.96,1.15h0.11l3.11,1.84l0.34,0.23
	h0.12l0.57,0.34l2.76,1.61h0.12L958.71,693.74z"/>
<path class="st18" d="M959.29,712.95l-4.03,2.3l-24.61-14.26l4.03-2.3L959.29,712.95z"/>
<path class="st18" d="M965.38,709.39l-4.02,2.3l-24.61-14.15l4.02-2.3L965.38,709.39z"/>
<path class="st18" d="M978.26,702.14l-4.02,2.3l-13.92-8.05l4.03-2.3L978.26,702.14z"/>
<path class="st19" d="M938.59,694.55c0.11,0.12,0.23,0.12,0.23,0.23c0.11,0.23-0.23,0.46-0.69,0.46l-3.45,0.23
	c-0.23,0-0.46,0-0.69-0.11c-0.12-0.12-0.23-0.12-0.23-0.23l-0.23-0.8c-0.12-0.23,0.23-0.46,0.69-0.46c0.23,0,0.46,0,0.69,0.11
	c0.11,0.11,0.23,0.11,0.23,0.23l0.11,0.34l2.76-0.23C938.13,694.32,938.36,694.44,938.59,694.55z"/>
<path class="st19" d="M944.57,690.98c0.11,0.11,0.23,0.11,0.23,0.23c0.11,0.23-0.23,0.46-0.69,0.46l-3.45,0.23
	c-0.23,0-0.46,0-0.69-0.11c-0.12-0.11-0.23-0.11-0.23-0.23l-0.23-0.81c-0.12-0.23,0.23-0.46,0.69-0.46c0.23,0,0.46,0,0.69,0.11
	c0.11,0.11,0.23,0.11,0.23,0.23l0.11,0.35l2.76-0.23C944.22,690.87,944.45,690.87,944.57,690.98z"/>
<path class="st18" d="M971.36,705.94l-4.02,2.3l-24.61-14.26l4.02-2.3L971.36,705.94z"/>
<path class="st18" d="M983.44,699.04l-4.03,2.42l-13.91-8.05l4.02-2.3L983.44,699.04z"/>
<path class="st18" d="M988.61,696.05l-4.02,2.3l-13.92-7.94l4.03-2.42L988.61,696.05z"/>
<path class="st20" d="M965.38,683.51c1.73,1.04,1.38,2.07-0.23,2.99c-0.34,0.23-0.69,0.34-1.15,0.46c-1.15,0.69-2.64,0.92-3.91,0.69
	l-0.57,0.35c0,0.34,0.23,0.8,0.57,1.15c0.12,0,0.12,0.11,0.12,0.11c0.23,0.23,0.34,0.46,0.46,0.69c0.11,0.46,0.11,0.8,0,1.26
	c-0.23,0.81-0.69,1.5-1.5,2.19c-0.23,0.11-0.34,0.23-0.57,0.34l-1.96-1.15h-0.11l-2.76-1.61l-0.58-0.34h-0.11l-0.35-0.23l-3.1-1.84
	h-0.12l-1.95-1.15c0.23-0.11,0.46-0.23,0.69-0.35c1.03-0.46,2.41-0.8,3.68-0.92c0.8-0.11,1.38-0.11,2.07,0
	c0.57,0.11,1.03,0.23,1.49,0.35c0.12,0,0.23,0.11,0.35,0.11c0.23,0,0.34,0.11,0.57,0.11h0.12h0.11h0.12h0.11h0.12h0.11
	c0,0,0,0,0.12,0c0.11,0,0.11,0,0.23,0l0.69-0.35c-0.35-0.69,0.11-1.49,1.15-2.19c0.23-0.23,0.46-0.46,0.8-0.69
	C961.82,682.7,963.89,682.59,965.38,683.51z"/>
<path class="st19" d="M932.49,698c0.12,0.11,0.23,0.11,0.23,0.23c0.12,0.23-0.23,0.46-0.69,0.46l-3.45,0.23
	c-0.23,0-0.46,0-0.69-0.12c-0.11-0.11-0.23-0.11-0.23-0.23l-0.23-0.8c-0.11-0.23,0.23-0.46,0.69-0.46c0.23,0,0.46,0,0.69,0.11
	c0.12,0.12,0.23,0.12,0.23,0.23l0.12,0.34l2.76-0.23C932.15,697.89,932.38,697.89,932.49,698z"/>
<path class="st21" d="M917.43,716.75l24.03,13.92c-0.11,0.92-0.69,1.84-1.38,2.3c-0.34,0.23-0.69,0.23-0.92,0.11
	c-6.78-3.91-15.75-9.2-22.54-13.11c0.23,0.12,0.58,0.12,0.92-0.11l-1.38-0.8C916.16,718.24,916.74,717.32,917.43,716.75z"/>
<path class="st22" d="M916.62,719.97l22.54,13.11c-0.23-0.11-0.46-0.46-0.46-0.92l-22.54-13.11
	C916.16,719.51,916.28,719.85,916.62,719.97z"/>
<path class="st22" d="M917.54,716.63c0.35-0.23,0.69-0.23,0.92-0.11L941,729.63c0.23,0.11,0.46,0.46,0.46,0.92v0.11l-24.03-13.92
	L917.54,716.63z"/>
<path class="st21" d="M939.39,733.08c-0.11-0.11-0.23-0.35-0.23-0.69c0-0.92,0.69-1.96,1.38-2.42c0.23-0.11,0.46-0.11,0.58-0.11
	c-0.12-0.11-0.12-0.23-0.23-0.23l0.57,0.34l0.81,0.46l0.57,0.34l0.46,0.23h-0.11l0.11,0.11c0,0,0,0,0.12,0c0,0-0.12,0-0.12-0.11
	l0.23,0.11c0,0,0,0,0.12,0c0,0,0,0-0.12,0c0.12,0.11,0.12,0.23,0.23,0.34c0.12,0.11,0.12,0.35,0.12,0.46v0.11
	c0,0.23,0,0.46-0.12,0.69c0,0.11-0.11,0.11-0.11,0.23c-0.12,0.11-0.12,0.34-0.23,0.46c0,0.11-0.12,0.11-0.12,0.23
	c-0.11,0.11-0.11,0.23-0.23,0.34c-0.11,0.11-0.11,0.11-0.23,0.23c-0.11,0.12-0.23,0.12-0.23,0.23c0,0,0,0-0.11,0
	c-0.23,0.11-0.35,0.11-0.58,0.23h-0.11c-0.12,0-0.23,0-0.23-0.11l-0.69-0.46c-0.23-0.11-0.46-0.23-0.58-0.34
	c0.12,0,0.23,0,0.23,0.11c-0.11,0-0.23,0-0.23-0.11c-0.23-0.11-0.57-0.35-0.8-0.46s-0.46-0.23-0.58-0.34
	C939.16,733.08,939.28,733.08,939.39,733.08z"/>
<path class="st22" d="M939.28,732.39l3.56,2.07c-0.23,0.11-0.34,0.11-0.57,0.23h-0.12c-0.11,0-0.23,0-0.23-0.11l-0.69-0.46
	c-0.23-0.11-0.46-0.23-0.57-0.34c0.11,0,0.23,0,0.23,0.11c-0.12,0-0.23,0-0.23-0.11c-0.23-0.11-0.58-0.35-0.81-0.46
	s-0.46-0.23-0.57-0.34c0.11,0.11,0.23,0.11,0.34,0.11C939.28,732.97,939.28,732.74,939.28,732.39z"/>
<linearGradient id="SVGID_00000092457134540964161620000000994383324812991152_" gradientUnits="userSpaceOnUse" x1="403.8351" y1="590.4517" x2="402.5851" y2="589.6187" gradientTransform="matrix(1 0 0 -1 539 1324.5)">
	<stop  offset="0" style="stop-color:#F59E5B"/>
	<stop  offset="1" style="stop-color:#F5C25B"/>
</linearGradient>
<path style="fill:url(#SVGID_00000092457134540964161620000000994383324812991152_);" d="M941.81,734.58l1.15,0.69
	c-0.23-0.11-0.35-0.46-0.35-0.92l-1.15-0.69C941.46,734.12,941.58,734.46,941.81,734.58z"/>
<linearGradient id="SVGID_00000139258391174298998700000009079876278634303408_" gradientUnits="userSpaceOnUse" x1="402.354" y1="591.7425" x2="405.804" y2="591.7425" gradientTransform="matrix(1 0 0 -1 539 1324.5)">
	<stop  offset="0" style="stop-color:#F3E5A5"/>
	<stop  offset="1" style="stop-color:#F4C15B"/>
</linearGradient>
<path style="fill:url(#SVGID_00000139258391174298998700000009079876278634303408_);" d="M944.8,731.93l-1.15-0.69
	c-0.23-0.11-0.58-0.11-0.92,0.11c-0.69,0.46-1.38,1.49-1.38,2.3l1.15,0.69c0-0.81,0.57-1.84,1.38-2.3
	C944.22,731.82,944.57,731.82,944.8,731.93z"/>
<linearGradient id="SVGID_00000160911145463724750600000009485444236080622730_" gradientUnits="userSpaceOnUse" x1="403.624" y1="590.9166" x2="406.814" y2="590.9166" gradientTransform="matrix(1 0 0 -1 539 1324.5)">
	<stop  offset="0" style="stop-color:#F3E5A5"/>
	<stop  offset="1" style="stop-color:#F4C15B"/>
</linearGradient>
<path style="fill:url(#SVGID_00000160911145463724750600000009485444236080622730_);" d="M942.96,735.15
	c1.03,0.57,1.84,0.11,2.18-0.23c0.58-0.46,0.81-1.27,0.58-2.07c-0.23-0.69-0.69-0.92-0.81-1.03c-0.23-0.12-0.57-0.12-0.92,0.11
	c-0.69,0.34-1.15,1.15-1.38,1.96c0,0.11,0,0.46,0,0.58C942.61,734.92,942.73,735.04,942.96,735.15z"/>
<path class="st22" d="M914.32,716.4c0.35,0.58,0.69,1.15,1.04,1.73c0-0.11-0.12-0.23-0.12-0.35L914.32,716.4z"/>
<path class="st22" d="M916.39,716.4c-0.69,0-1.38,0-1.95,0l0.92,1.38c0-0.46,0.34-1.03,0.69-1.26
	C916.16,716.52,916.28,716.4,916.39,716.4z"/>
<linearGradient id="SVGID_00000062898088278141363250000010750897642624244915_" gradientUnits="userSpaceOnUse" x1="377.3018" y1="605.943" x2="376.2117" y2="605.528" gradientTransform="matrix(1 0 0 -1 539 1324.5)">
	<stop  offset="0" style="stop-color:#F59E5B"/>
	<stop  offset="1" style="stop-color:#F5C25B"/>
</linearGradient>
<path style="fill:url(#SVGID_00000062898088278141363250000010750897642624244915_);" d="M915.36,718.13
	c0.34,0.58,0.57,1.04,0.92,1.61c-0.12-0.11-0.12-0.34-0.12-0.69l-0.92-1.27C915.24,717.9,915.36,718.01,915.36,718.13z"/>
<linearGradient id="SVGID_00000168817748416935837300000007463669114972616836_" gradientUnits="userSpaceOnUse" x1="376.364" y1="606.6577" x2="379.244" y2="606.6577" gradientTransform="matrix(1 0 0 -1 539 1324.5)">
	<stop  offset="0" style="stop-color:#F3E5A5"/>
	<stop  offset="1" style="stop-color:#F4C15B"/>
</linearGradient>
<path style="fill:url(#SVGID_00000168817748416935837300000007463669114972616836_);" d="M918.23,716.52c-0.57,0-1.26,0-1.84,0
	c-0.11,0-0.23,0-0.34,0.11c-0.35,0.23-0.69,0.8-0.69,1.27l0.92,1.26c0-0.92,0.69-1.95,1.38-2.41
	C917.77,716.52,918,716.52,918.23,716.52z"/>
<linearGradient id="SVGID_00000072251394962902709340000003312071124274656161_" gradientUnits="userSpaceOnUse" x1="400.5708" y1="591.9759" x2="399.6408" y2="591.4309" gradientTransform="matrix(1 0 0 -1 539 1324.5)">
	<stop  offset="0" style="stop-color:#F59E5B"/>
	<stop  offset="1" style="stop-color:#F5C25B"/>
</linearGradient>
<path style="fill:url(#SVGID_00000072251394962902709340000003312071124274656161_);" d="M939.05,733.08l0.57,0.34
	c-0.23-0.11-0.46-0.46-0.46-0.92l-0.57-0.35C938.7,732.51,938.82,732.85,939.05,733.08z"/>
<linearGradient id="SVGID_00000170271320873008587080000006778364363791310511_" gradientUnits="userSpaceOnUse" x1="399.714" y1="593.468" x2="402.584" y2="593.468" gradientTransform="matrix(1 0 0 -1 539 1324.5)">
	<stop  offset="0" style="stop-color:#F3E5A5"/>
	<stop  offset="1" style="stop-color:#F4C15B"/>
</linearGradient>
<path style="fill:url(#SVGID_00000170271320873008587080000006778364363791310511_);" d="M941.58,729.98l-0.58-0.35
	c-0.23-0.12-0.57-0.12-0.92,0.11c-0.8,0.46-1.38,1.5-1.38,2.42l0.58,0.35c0-0.92,0.69-1.96,1.38-2.41
	C941,729.86,941.35,729.86,941.58,729.98z"/>
<linearGradient id="SVGID_00000144314454344537565400000003954838787599456413_" gradientUnits="userSpaceOnUse" x1="401.204" y1="592.663" x2="404.084" y2="592.663" gradientTransform="matrix(1 0 0 -1 539 1324.5)">
	<stop  offset="0" style="stop-color:#F3E5A5"/>
	<stop  offset="1" style="stop-color:#F4C15B"/>
</linearGradient>
<path style="fill:url(#SVGID_00000144314454344537565400000003954838787599456413_);" d="M943.07,730.78l-0.57-0.34
	c-0.23-0.11-0.58-0.11-0.92,0.11c-0.81,0.46-1.38,1.49-1.38,2.42l0.57,0.34c0-0.92,0.69-1.96,1.38-2.42
	C942.5,730.67,942.84,730.67,943.07,730.78z"/>
<linearGradient id="SVGID_00000017494657286917375610000015701028232684669374_" gradientUnits="userSpaceOnUse" x1="402.0603" y1="591.17" x2="401.1403" y2="590.6251" gradientTransform="matrix(1 0 0 -1 539 1324.5)">
	<stop  offset="0" style="stop-color:#F59E5B"/>
	<stop  offset="1" style="stop-color:#F5C25B"/>
</linearGradient>
<path style="fill:url(#SVGID_00000017494657286917375610000015701028232684669374_);" d="M940.54,733.89l0.58,0.34
	c-0.23-0.11-0.46-0.46-0.46-0.92l-0.58-0.34C940.08,733.43,940.2,733.66,940.54,733.89z"/>
<path class="st32" d="M940.66,733.2C940.66,733.2,940.66,733.31,940.66,733.2C940.66,733.31,940.66,733.31,940.66,733.2
	C940.77,733.31,940.77,733.31,940.66,733.2C940.66,733.2,940.77,733.31,940.66,733.2z"/>
<path class="st22" d="M940.08,732.97c0,0.46,0.12,0.8,0.46,0.92l-0.8-0.46c-0.23-0.11-0.46-0.46-0.46-0.92L940.08,732.97z"/>
<path class="st22" d="M942.84,731.36C942.73,731.36,942.73,731.36,942.84,731.36l-0.8-0.34l0.11-0.12c0.35-0.23,0.69-0.23,0.92-0.11
	l0.46,0.23h-0.11l0.11,0.11c0,0,0,0,0.12,0c0,0-0.12,0-0.12-0.11l0.23,0.11c0,0,0,0,0.12,0c0,0,0,0-0.12,0l0.12,0.11l-0.23-0.11
	C943.53,731.13,943.19,731.13,942.84,731.36z"/>
<path class="st22" d="M941.46,730.55l-0.11,0.11l-0.81-0.46l0.12-0.11c0.11-0.11,0.23-0.11,0.46-0.11c0.11,0,0.11,0,0.23,0
	c0.11,0,0.23,0,0.34,0.11l0.81,0.46C942.27,730.32,941.92,730.32,941.46,730.55z"/>
<linearGradient id="SVGID_00000179606665276355640390000003796113617830787219_" gradientUnits="userSpaceOnUse" x1="405.205" y1="593.4265" x2="404.445" y2="592.2435" gradientTransform="matrix(1 0 0 -1 539 1324.5)">
	<stop  offset="0" style="stop-color:#F59E5B"/>
	<stop  offset="1" style="stop-color:#F5C25B"/>
</linearGradient>
<path style="fill:url(#SVGID_00000179606665276355640390000003796113617830787219_);" d="M942.84,731.36
	c0.35-0.23,0.69-0.23,0.92-0.11l0.23,0.11l0.92,0.58c-0.23-0.11-0.46-0.11-0.69,0c-0.11,0-0.11,0-0.23,0.11c0,0,0,0-0.11,0.11
	L942.84,731.36C942.73,731.36,942.73,731.36,942.84,731.36z"/>
<linearGradient id="SVGID_00000146466202199976159190000011425705975819302060_" gradientUnits="userSpaceOnUse" x1="401.898" y1="595.0491" x2="401.5681" y2="594.2911" gradientTransform="matrix(1 0 0 -1 539 1324.5)">
	<stop  offset="0" style="stop-color:#F59E5B"/>
	<stop  offset="1" style="stop-color:#F5C25B"/>
</linearGradient>
<path style="fill:url(#SVGID_00000146466202199976159190000011425705975819302060_);" d="M940.08,729.75
	c0.35-0.23,0.69-0.23,0.92-0.11l0.58,0.35c-0.12-0.12-0.23-0.12-0.35-0.12c-0.11,0-0.11,0-0.23,0c-0.11,0-0.23,0-0.46,0.12
	l-0.11,0.12l-0.58-0.35C939.97,729.75,939.97,729.75,940.08,729.75z"/>
<path class="st35" d="M940.66,730.09c0.11-0.11,0.34-0.11,0.46-0.11C940.89,729.98,940.77,729.98,940.66,730.09z"/>
<path class="st35" d="M943.07,730.78l-0.57-0.34L943.07,730.78z"/>
<linearGradient id="SVGID_00000138537510511574647570000017385871613728965043_" gradientUnits="userSpaceOnUse" x1="403.4089" y1="594.2172" x2="402.939" y2="593.3871" gradientTransform="matrix(1 0 0 -1 539 1324.5)">
	<stop  offset="0" style="stop-color:#F59E5B"/>
	<stop  offset="1" style="stop-color:#F5C25B"/>
</linearGradient>
<path style="fill:url(#SVGID_00000138537510511574647570000017385871613728965043_);" d="M942.04,730.9l-0.12,0.12l-0.57-0.35
	l0.11-0.11c0.35-0.23,0.69-0.23,0.92-0.11l0.58,0.34C942.84,730.67,942.5,730.67,942.04,730.9z"/>
<rect x="1127.85" y="632.59" class="st37" width="236" height="206"/>
<rect x="816.85" y="391.59" class="st37" width="179" height="179"/>
<linearGradient id="SVGID_00000088120428154922564510000008805279592264434053_" gradientUnits="userSpaceOnUse" x1="-398.339" y1="1040.5712" x2="-18.304" y2="781.8891" gradientTransform="matrix(1 0 0 -1 539 1324.5)">
	<stop  offset="0.1094" style="stop-color:#F5C25B"/>
	<stop  offset="0.3125" style="stop-color:#F59E5B"/>
</linearGradient>
<path style="fill:url(#SVGID_00000088120428154922564510000008805279592264434053_);" d="M166.87,357.52l307.01-177.74
	c17.24-9.69,33.4-10.77,45.24-3.23l38.78,21.55l-14.01,128.19c0,50.63-31.24,110.96-70.02,132.5L153.95,658.07l-31.24-17.24
	c0,0,0,0-1.08,0l-1.08-1.08c-14-8.62-23.7-28.01-23.7-56.02v-93.72C96.85,439.39,128.09,379.06,166.87,357.52z"/>
<linearGradient id="SVGID_00000004541388168298546350000014499745160155551882_" gradientUnits="userSpaceOnUse" x1="40.457" y1="894.8094" x2="-406.595" y2="894.8094" gradientTransform="matrix(1 0 0 -1 539 1324.5)">
	<stop  offset="0" style="stop-color:#F3E5A5"/>
	<stop  offset="1" style="stop-color:#F4C15B"/>
</linearGradient>
<path style="fill:url(#SVGID_00000004541388168298546350000014499745160155551882_);" d="M509.44,480.32L202.43,658.06
	c-38.78,22.62-70.02-1.08-70.02-52.78v-93.72c0-50.63,31.24-110.96,70.02-132.5l307.01-177.74c38.78-22.62,70.02,1.08,70.02,52.79
	v93.72C579.46,398.45,548.22,458.78,509.44,480.32z"/>
<path class="st40" d="M234.68,500.02l-26.1,14.17c-1.43,0.78-2.69,0.9-3.77,0.35c-1.02-0.65-1.57-1.78-1.64-3.42l-1.22-29.47
	c-0.07-1.7,0.36-3.36,1.29-5.01c0.99-1.67,2.2-2.9,3.63-3.67l26.61-14.45c0.86-0.47,1.59-0.53,2.19-0.19
	c0.66,0.31,1.01,0.96,1.05,1.93c0.04,1.04-0.24,2.06-0.84,3.06c-0.55,0.97-1.25,1.68-2.11,2.15l-13.61,7.39
	c-0.4,0.22-0.48,0.46-0.23,0.73c0.25,0.27,0.38,0.6,0.39,0.99c0.13,0.33,0.31,0.43,0.54,0.31l8.61-4.68c0.8-0.44,1.48-0.5,2.02-0.19
	c0.54,0.31,0.83,0.92,0.87,1.83c0.04,0.85-0.19,1.74-0.68,2.67c-0.49,0.87-1.14,1.52-1.94,1.96l-4.05,2.2
	c-0.35,0.19-0.51,0.48-0.49,0.87l0.07,1.66c0.02,0.39,0.2,0.49,0.54,0.31l6.72-3.65c0.8-0.44,1.48-0.5,2.02-0.19
	c0.54,0.31,0.83,0.92,0.87,1.83c0.04,0.85-0.19,1.74-0.68,2.67c-0.49,0.87-1.14,1.52-1.94,1.96l-2.58,1.4
	c-0.23,0.12-0.37,0.3-0.42,0.53c-0.05,0.16,0.01,0.26,0.19,0.3c0.54,0.18,1.04,0.4,1.52,0.67c0.48,0.27,0.93,0.56,1.36,0.86
	c0.54,0.31,0.83,0.82,0.86,1.54c0.04,1.04-0.32,2.08-1.1,3.1c-0.44,0.71-1.03,1.26-1.78,1.67c-0.86,0.47-1.62,0.48-2.29,0.04
	c-0.78-0.44-1.59-0.81-2.42-1.09c-0.84-0.35-1.64-0.64-2.41-0.89c-0.29-0.04-0.55,0.13-0.77,0.52c-1.91,3.44-4.45,6.79-7.6,10.03
	c-0.23,0.19-0.34,0.38-0.33,0.58c0.06,0.1,0.21,0.09,0.44-0.04l18.95-10.29c1.49-0.81,2.47-0.58,2.94,0.71
	c0.12,0.2,0.24,0.14,0.34-0.19c0.41-1.49,1.21-2.72,2.4-3.71c1.26-0.88,2.45-1.8,3.58-2.75c1.19-0.98,2.33-2,3.4-3.04
	c0.45-0.45,0.47-0.72,0.05-0.83c-0.71-0.15-1.33-0.31-1.87-0.49c-0.42-0.11-0.75-0.36-1-0.76c-0.19-0.43-0.3-0.87-0.32-1.33
	c-0.05-1.17,0.29-2.29,1.01-3.35c0,0,0-0.1-0.01-0.29c0.05-0.29-0.05-0.38-0.27-0.25l-2.67,1.45c-0.86,0.47-1.62,0.55-2.28,0.24
	c-0.6-0.41-0.93-1.1-0.97-2.08c-0.04-0.98,0.21-1.95,0.76-2.92c0.6-1.06,1.33-1.83,2.19-2.29l23.77-12.91
	c-2.24,1.22-4.11,1.43-5.61,0.64c-1.5-0.79-2.3-2.36-2.4-4.71l-0.08-2.06c-0.02-0.39-0.2-0.49-0.54-0.31l-6.55,3.55
	c-0.35,0.19-0.54,0.43-0.59,0.72c-1.92,6.11-5.33,11.57-10.24,16.37c-0.34,0.38-0.7,0.68-1.11,0.9c-0.8,0.44-1.56,0.52-2.28,0.24
	c-0.72-0.34-1.1-1.1-1.15-2.28c-0.08-1.96,0.67-3.76,2.24-5.42c2.31-2.32,4.14-4.98,5.48-7.98c1.77-4.16,3.82-6.88,6.18-8.16
	l10.68-5.8c1.32-0.72,2.46-0.8,3.42-0.26c0.96,0.55,1.47,1.57,1.54,3.07l0.14,3.52c0.01,0.2,0.13,0.33,0.37,0.4
	c0.3,0.04,0.56,0,0.79-0.13l4.05-2.2c0.92-0.5,1.71-0.56,2.37-0.19c0.66,0.31,1.01,0.99,1.05,2.03c0.04,1.04-0.24,2.1-0.84,3.16
	c-0.6,1.06-1.36,1.84-2.28,2.34l-4.31,2.34c1.09-0.59,2-0.68,2.72-0.27c0.72,0.41,1.1,1.14,1.15,2.18c0.02,0.52-0.1,1.19-0.36,2
	c-0.74,2.07-1.68,4.15-2.82,6.24c-1.09,2.06-2.32,4.1-3.71,6.12c-0.39,0.54-0.35,0.79,0.12,0.74c1.34-0.26,2.68-0.55,4.01-0.88
	c1.39-0.36,2.75-0.83,4.08-1.41c0.92-0.43,1.68-0.41,2.29,0.06c0.66,0.38,1.01,1.09,1.06,2.13c0.04,1.04-0.24,2.1-0.84,3.16
	c-0.61,0.99-1.4,1.73-2.38,2.19c-2.77,1.17-5.49,2.01-8.17,2.54c-2.62,0.49-5.04,0.8-7.27,0.94c-0.23,0.06-0.46,0.18-0.69,0.37
	c-2.36,2.55-4.73,4.9-7.11,7.06c-2.32,2.06-4.48,3.83-6.47,5.32c-0.74,0.54-1.47,0.76-2.17,0.68c-0.65-0.11-1.14-0.48-1.46-1.11
	c-0.12-0.2-0.21-0.18-0.26,0.04C237.12,497.93,236.18,499.21,234.68,500.02z M215.63,475.82c0.27-0.48,0.15-0.58-0.36-0.3l-6.2,3.37
	c-0.35,0.19-0.51,0.48-0.49,0.87l0.51,12.24c0.02,0.52,0.14,0.49,0.35-0.09c0.32-0.77,0.79-1.5,1.41-2.16
	c0.17-0.16,0.25-0.24,0.25-0.24c0-0.07-0.09-0.08-0.27-0.05c-0.47-0.08-0.81-0.36-1-0.86c-0.07-0.16-0.13-0.3-0.19-0.4
	c-0.01-0.2-0.02-0.39-0.02-0.59c-0.05-1.11,0.35-2.23,1.18-3.35c1.94-2.66,3.42-5.2,4.44-7.62
	C215.27,476.48,215.41,476.21,215.63,475.82z M212.64,488.66l6.03-3.27c0.35-0.19,0.51-0.48,0.49-0.87l-0.07-1.66
	c-0.02-0.39-0.2-0.49-0.54-0.31l-2.07,1.12c-0.23,0.12-0.43,0.33-0.59,0.62c-0.93,1.58-1.88,2.89-2.83,3.94
	C212.84,488.48,212.7,488.63,212.64,488.66z M215.68,494.11c0.22-0.26,0.3-0.43,0.24-0.53c-0.07-0.16-0.21-0.18-0.44-0.06
	l-3.53,1.92c-1.09,0.59-1.89,0.49-2.39-0.3c-0.24-0.2-0.36-0.11-0.34,0.28l0.2,4.9c0.02,0.52,0.23,0.51,0.62-0.03
	c0.38-0.67,0.8-1.17,1.26-1.48C212.99,497.28,214.46,495.71,215.68,494.11z M250.26,474.34c0.65,0.18,1.37,0.36,2.14,0.54
	c0.77,0.12,1.6,0.27,2.48,0.45c0.23-0.06,0.46-0.18,0.69-0.38c0.78-0.96,1.48-1.9,2.08-2.83c0.67-0.96,1.27-1.86,1.83-2.69
	c0.17-0.22,0.22-0.39,0.16-0.49c-0.07-0.16-0.21-0.18-0.44-0.06l-8.61,4.68c-0.23,0.12-0.4,0.28-0.51,0.48
	C250.02,474.2,250.08,474.3,250.26,474.34z M210.17,505.52c-0.36-0.2-0.53-0.14-0.52,0.18l0.01,0.2c0.02,0.39,0.2,0.49,0.54,0.31
	C210.6,505.99,210.59,505.76,210.17,505.52z M204.56,516.97l66.31-36.01c0.92-0.5,1.68-0.54,2.28-0.14
	c0.66,0.38,1.01,1.05,1.05,2.03c0.04,1.04-0.24,2.1-0.84,3.16c-0.55,0.97-1.28,1.7-2.2,2.2l-24.55,13.33
	c-0.35,0.19-0.51,0.48-0.49,0.87l0.03,0.78c0.02,0.39,0.2,0.49,0.54,0.31l17.05-9.26c1.43-0.78,2.67-0.85,3.69-0.2
	c1.08,0.55,1.65,1.64,1.72,3.27l0.86,20.86c0.07,1.63-0.39,3.32-1.38,5.05c-0.93,1.71-2.11,2.95-3.54,3.73l-51.24,27.82
	c-1.43,0.78-2.69,0.86-3.78,0.25c-1.02-0.65-1.57-1.78-1.64-3.41l-0.86-20.86c-0.07-1.63,0.36-3.27,1.29-4.91
	c0.99-1.74,2.2-2.99,3.63-3.77l14.04-7.62c0.34-0.19,0.51-0.44,0.5-0.77c0.1-0.45,0.17-0.76,0.23-0.92l-0.01-0.2
	c-0.01-0.33-0.19-0.4-0.54-0.21l-21.88,11.88c-0.92,0.5-1.71,0.59-2.37,0.28c-0.6-0.41-0.93-1.13-0.97-2.18
	c-0.04-0.98,0.21-1.98,0.76-3.01C202.88,518.25,203.64,517.47,204.56,516.97z M234.29,509.64c-0.04,0.42,0.11,0.54,0.46,0.35
	l3.96-2.15c0.35-0.19,0.51-0.48,0.49-0.87l-0.03-0.78c-0.02-0.39-0.2-0.49-0.54-0.31l-3.7,2.01c-0.4,0.22-0.6,0.52-0.58,0.91
	L234.29,509.64z M222.58,524.61c0.22-0.26,0.3-0.43,0.24-0.53c-0.07-0.17-0.21-0.18-0.44-0.06l-7.06,3.83
	c-0.34,0.19-0.51,0.48-0.49,0.87l0.41,9.99c0.02,0.39,0.2,0.49,0.54,0.31l1.46-0.8c0.46-0.25,0.51-0.48,0.15-0.68
	c-0.83-0.28-1.28-1.04-1.33-2.28c-0.09-2.09,0.74-4.04,2.49-5.86C219.96,527.97,221.3,526.37,222.58,524.61z M261.86,514
	c0.34-0.19,0.51-0.48,0.49-0.87l-0.41-9.99c-0.02-0.39-0.2-0.49-0.54-0.31l-14.38,7.81c-0.35,0.19-0.51,0.48-0.49,0.87l0.03,0.78
	c0.03,0.65,0.25,1.1,0.67,1.34c0.47,0.14,0.97,0.07,1.49-0.21l9.3-5.05c0.86-0.47,1.59-0.5,2.2-0.09c0.66,0.31,1.01,0.95,1.05,1.93
	c0.04,0.98-0.21,1.98-0.76,3.01c-0.55,0.97-1.28,1.7-2.2,2.2l-9.39,5.1c-2.76,1.5-4.97,1.83-6.65,1.01
	c-1.68-0.82-2.58-2.64-2.69-5.45l-0.03-0.78c-0.02-0.39-0.2-0.49-0.54-0.31l-6.2,3.37c-0.34,0.19-0.54,0.43-0.59,0.72
	c-1,2.81-2.35,5.58-4.06,8.31c-1.65,2.63-3.63,5.14-5.94,7.53c-0.23,0.19-0.34,0.38-0.33,0.58c0.06,0.1,0.21,0.09,0.44-0.04
	L261.86,514z M216.02,544.99c-0.34,0.19-0.51,0.48-0.49,0.87l0,0.1c0.02,0.39,0.2,0.49,0.54,0.31l46.08-25.02
	c0.35-0.19,0.51-0.48,0.49-0.87l0-0.1c-0.02-0.39-0.2-0.49-0.54-0.31L216.02,544.99z M321.44,447.21c-0.66,1.16-1.44,1.99-2.36,2.48
	c-1.03,0.56-1.97,0.54-2.82-0.07c-0.6-0.34-0.92-1.03-0.97-2.08c-0.05-1.31,0.3-2.57,1.08-3.79c3.24-5.36,5.55-11.19,6.94-17.48
	c0.65-2.76,2.01-4.69,4.07-5.82c0.98-0.53,1.79-0.61,2.46-0.23s1.01,1.05,1.05,2.03c0.01,0.26-0.03,0.62-0.13,1.07l-0.37,1.7
	c-0.04,0.49,0.12,0.64,0.46,0.45l8.35-4.54c0.34-0.19,0.54-0.43,0.59-0.72l1.32-4.32c0.46-1.65,1.26-3.02,2.38-4.1
	c0.34-0.38,0.38-0.64,0.14-0.78c-0.24-0.2-0.49-0.57-0.75-1.1c-0.13-0.26-0.31-0.33-0.54-0.21l-5.34,2.9
	c-0.23,0.12-0.4,0.38-0.5,0.77c-0.38,2.21-1.49,3.81-3.32,4.81c-1.84,1-3.03,0.64-3.57-1.07c-0.13-0.26-0.31-0.33-0.54-0.21
	l-9.99,5.42c-0.92,0.5-1.74,0.54-2.46,0.14c-0.72-0.48-1.11-1.23-1.15-2.28c-0.04-1.04,0.26-2.15,0.92-3.3
	c0.66-1.16,1.44-1.99,2.36-2.49l9.99-5.42c0.23-0.12,0.39-0.38,0.5-0.77c0.38-2.21,1.49-3.81,3.32-4.81c1.84-1,3.03-0.64,3.57,1.07
	c0.13,0.26,0.31,0.33,0.54,0.21l5.34-2.9c0.23-0.12,0.39-0.38,0.5-0.77c0.38-2.21,1.49-3.81,3.32-4.81c1.84-1,3.03-0.64,3.57,1.07
	c0.13,0.26,0.31,0.33,0.54,0.21l9.13-4.96c0.98-0.53,1.8-0.57,2.46-0.13c0.72,0.41,1.1,1.14,1.15,2.18c0.04,1.04-0.26,2.18-0.92,3.4
	c-0.6,1.13-1.39,1.95-2.36,2.48l-9.13,4.96c-0.23,0.12-0.4,0.38-0.5,0.77c-0.09,0.71-0.32,1.41-0.71,2.08
	c-0.39,0.61-0.83,1.19-1.34,1.73c-0.34,0.32-0.36,0.56-0.06,0.73c0.43,0.43,0.66,1.01,0.69,1.73c0.01,0.33-0.03,0.72-0.13,1.17
	c-0.15,0.68-0.33,1.35-0.53,1.99c-0.15,0.55,0,0.7,0.46,0.45l11.89-6.45c0.86-0.47,1.62-0.51,2.28-0.14
	c0.72,0.34,1.1,1.01,1.14,1.98c0.04,0.98-0.24,2.03-0.84,3.16c-0.6,1.06-1.36,1.84-2.28,2.34l-13.95,7.57
	c-0.34,0.19-0.51,0.48-0.49,0.87l0.04,0.98c0.02,0.39,0.2,0.49,0.54,0.31l12.14-6.59c0.8-0.44,1.54-0.47,2.2-0.09
	c0.66,0.31,1.01,0.95,1.05,1.93s-0.24,2-0.84,3.06c-0.6,1.06-1.3,1.81-2.11,2.25l-12.14,6.59c-0.34,0.19-0.51,0.48-0.49,0.87
	l0.04,0.98c0.02,0.39,0.2,0.49,0.54,0.31l12.14-6.59c0.8-0.44,1.54-0.47,2.2-0.09c0.66,0.31,1.01,0.95,1.05,1.93s-0.24,2-0.84,3.06
	c-0.61,0.99-1.31,1.71-2.11,2.15l-12.14,6.59c-0.34,0.19-0.51,0.48-0.49,0.87l0.04,0.98c0.02,0.39,0.2,0.49,0.54,0.31l13.95-7.57
	c0.92-0.5,1.71-0.53,2.37-0.09c0.66,0.38,1.01,1.05,1.05,2.03c0.04,0.98-0.24,2-0.84,3.06c-0.6,1.06-1.36,1.84-2.28,2.34
	l-33.24,18.05c-1.43,0.78-2.69,0.86-3.78,0.25s-1.66-1.74-1.72-3.37l-0.54-13.02c-0.03-0.65-0.23-0.64-0.62,0.03L321.44,447.21z
	 M310.71,426.3l-15.85,8.6c-0.98,0.53-1.85,0.61-2.63,0.23c-0.78-0.44-1.2-1.25-1.24-2.43c-0.05-1.11,0.26-2.28,0.91-3.5
	c0.71-1.25,1.58-2.16,2.62-2.72l15.85-8.6c1.03-0.56,1.91-0.6,2.64-0.13c0.72,0.48,1.11,1.27,1.15,2.38
	c0.05,1.11-0.26,2.28-0.91,3.5C312.59,424.85,311.74,425.74,310.71,426.3z M313.4,438.15l-20.15,10.94
	c-0.98,0.53-1.85,0.61-2.63,0.23c-0.72-0.41-1.11-1.2-1.15-2.38c-0.05-1.11,0.26-2.24,0.92-3.4c0.65-1.22,1.5-2.12,2.53-2.68
	l20.15-10.94c0.98-0.53,1.83-0.56,2.55-0.08c0.78,0.38,1.19,1.12,1.24,2.23c0.05,1.11-0.29,2.29-1,3.55
	C315.19,436.78,314.38,437.62,313.4,438.15z M329.23,435.47c0.02,0.39,0.2,0.49,0.54,0.31l8.44-4.58c0.35-0.19,0.51-0.48,0.49-0.87
	l-0.04-0.98c-0.02-0.39-0.2-0.49-0.54-0.31l-8.44,4.58c-0.34,0.19-0.51,0.48-0.49,0.87L329.23,435.47z M295.95,452.64l15.16-8.23
	c1.03-0.56,1.91-0.6,2.64-0.13c0.78,0.38,1.19,1.12,1.24,2.23c0.05,1.11-0.29,2.29-1,3.55c-0.65,1.22-1.5,2.11-2.53,2.68
	l-15.16,8.23c-1.03,0.56-1.94,0.62-2.72,0.18c-0.72-0.47-1.11-1.27-1.16-2.38c-0.05-1.11,0.26-2.24,0.92-3.4
	C294.04,454.1,294.91,453.2,295.95,452.64z M329.61,444.77c0.02,0.39,0.2,0.49,0.54,0.31l8.44-4.58c0.35-0.19,0.51-0.48,0.49-0.87
	l-0.04-0.98c-0.02-0.39-0.2-0.49-0.54-0.31l-8.44,4.58c-0.34,0.19-0.51,0.48-0.49,0.87L329.61,444.77z M296.49,465.76l15.16-8.23
	c0.98-0.53,1.85-0.57,2.64-0.13c0.78,0.38,1.19,1.16,1.24,2.33c0.05,1.17-0.28,2.39-0.99,3.64c-0.71,1.19-1.56,2.05-2.53,2.58
	l-15.16,8.23c-1.03,0.56-1.94,0.62-2.72,0.18c-0.72-0.47-1.11-1.27-1.16-2.38c-0.05-1.17,0.28-2.36,1-3.55
	C294.67,467.18,295.52,466.29,296.49,465.76z M329.99,453.97c0.02,0.39,0.2,0.49,0.54,0.31l8.44-4.58c0.35-0.19,0.51-0.48,0.49-0.87
	l-0.04-0.98c-0.02-0.39-0.2-0.49-0.54-0.31l-8.44,4.58c-0.34,0.19-0.51,0.48-0.49,0.87L329.99,453.97z M298.59,478.13l12.06-6.55
	c1.55-0.84,2.9-0.94,4.04-0.29c1.2,0.62,1.84,1.84,1.91,3.67l0.72,17.33c0.07,1.7-0.41,3.49-1.45,5.39
	c-1.04,1.9-2.36,3.28-3.97,4.16l-12.06,6.55c-1.61,0.87-2.98,0.95-4.13,0.24s-1.75-1.92-1.82-3.62l-0.72-17.33
	c-0.07-1.76,0.41-3.56,1.45-5.39C295.66,480.39,296.98,479.01,298.59,478.13z M362.71,465.74c1.04-0.43,1.92-0.38,2.65,0.16
	c0.78,0.51,1.2,1.35,1.25,2.53c0.05,1.17-0.31,2.37-1.08,3.59c-0.71,1.19-1.56,1.98-2.54,2.38c-4.04,1.66-7.83,2.95-11.38,3.87
	c-3.54,0.99-6.8,1.59-9.79,1.81c-0.24-0.07-0.47,0.05-0.69,0.37c-3.44,3.4-6.84,6.45-10.19,9.14c-3.29,2.72-6.25,5.03-8.87,6.92
	c-0.97,0.66-1.84,0.8-2.62,0.42c-0.78-0.31-1.19-1.02-1.23-2.13c-0.05-1.17,0.22-2.39,0.82-3.65c0.65-1.29,1.49-2.31,2.52-3.07
	c1.82-1.32,3.59-2.65,5.29-3.98c1.76-1.42,3.44-2.8,5.02-4.13c0.45-0.45,0.47-0.72,0.05-0.83c-0.3-0.17-0.6-0.31-0.9-0.41
	c-0.24-0.14-0.51-0.26-0.81-0.36c-0.72-0.41-1.1-1.14-1.15-2.18c-0.04-1.04,0.26-2.15,0.92-3.3c0.22-0.39,0.38-0.64,0.5-0.77
	c0.44-0.64,0.41-0.82-0.11-0.54l-8.1,4.4c-0.98,0.53-1.85,0.61-2.63,0.23c-0.72-0.41-1.1-1.17-1.15-2.28s0.26-2.24,0.92-3.4
	c0.65-1.22,1.5-2.11,2.53-2.67l36.86-20.01c0.98-0.53,1.8-0.58,2.46-0.14c0.66,0.38,1.01,1.02,1.05,1.93
	c0.03,0.78-0.14,1.55-0.52,2.29c-1.29,2.97-2.81,5.9-4.57,8.79c-1.76,2.83-3.67,5.57-5.74,8.22c-0.5,0.61-0.52,0.85-0.06,0.73
	c1.63-0.42,3.36-0.96,5.22-1.63C358.49,467.37,360.52,466.6,362.71,465.74z M301.04,499.03c0.02,0.39,0.2,0.49,0.54,0.31l7.92-4.3
	c0.34-0.19,0.51-0.48,0.49-0.87l-0.55-13.32c-0.02-0.39-0.2-0.49-0.54-0.31l-7.92,4.3c-0.34,0.19-0.51,0.48-0.49,0.87L301.04,499.03
	z M334.8,469.99c1.01,0.32,1.99,0.59,2.94,0.81c1,0.12,2.01,0.24,3.01,0.37c0.23-0.06,0.46-0.18,0.69-0.37
	c1.29-1.43,2.52-2.84,3.7-4.21c1.18-1.37,2.24-2.72,3.18-4.03c0.22-0.26,0.3-0.43,0.24-0.53c-0.07-0.16-0.21-0.18-0.44-0.06
	l-13.35,7.25c-0.63,0.34-0.68,0.6-0.14,0.78C334.68,469.95,334.73,469.95,334.8,469.99z M450.36,400.44
	c-0.17,0.22-0.25,0.4-0.24,0.53c0.06,0.1,0.21,0.09,0.44-0.04l0.43-0.23c0.98-0.53,1.83-0.59,2.55-0.18
	c0.72,0.41,1.1,1.17,1.15,2.28c0.05,1.11-0.26,2.24-0.92,3.4c-0.66,1.16-1.47,2-2.45,2.53l-13.43,7.29
	c-0.34,0.19-0.51,0.48-0.49,0.87l0.2,4.8c0.12,3-0.46,5.79-1.77,8.37c-1.3,2.58-3,4.83-5.09,6.77c-2.09,2-4.25,3.61-6.49,4.83
	c-0.63,0.34-1.27,0.62-1.9,0.83c-0.63,0.28-1.27,0.55-1.9,0.83c-0.93,0.3-1.7,0.15-2.31-0.45c-0.61-0.54-0.93-1.33-0.98-2.37
	c-0.06-1.5,0.35-2.93,1.23-4.27c0.94-1.44,2.04-2.38,3.32-2.8c0.69-0.24,1.36-0.47,2-0.68c0.63-0.28,1.24-0.57,1.81-0.88
	c3.16-1.71,4.69-3.75,4.59-6.1l-0.2-4.8c-0.02-0.39-0.2-0.49-0.54-0.31l-25.58,13.89c-0.23,0.12-0.37,0.27-0.42,0.43
	c0.01,0.13,0.1,0.22,0.27,0.25c0.36,0.07,0.69,0.29,1,0.66c0.92,0.97,1.84,2.04,2.77,3.2c0.93,1.16,1.71,2.28,2.34,3.34
	c0.31,0.5,0.48,1.01,0.5,1.53c0.03,0.72-0.14,1.51-0.52,2.38c-0.32,0.84-0.81,1.61-1.49,2.31c-0.23,0.19-0.45,0.38-0.68,0.57
	c-0.22,0.26-0.48,0.46-0.77,0.62c-1.43,0.78-2.61,0.65-3.54-0.38c-1.55-2.09-3.31-4.04-5.26-5.85c-0.55-0.44-0.84-1.11-0.88-2.03
	c-0.05-1.18,0.26-2.28,0.92-3.3c0.33-0.58,0.29-0.76-0.11-0.54l-13.43,7.29c-0.92,0.5-1.77,0.56-2.55,0.18
	c-0.72-0.41-1.1-1.17-1.15-2.28c-0.05-1.11,0.26-2.24,0.92-3.4c0.71-1.19,1.53-2.03,2.45-2.53l44.87-24.36
	c0.34-0.19,0.51-0.48,0.49-0.87l-0.04-1.08c-0.05-1.17,0.34-2.49,1.16-3.93c0.17-0.22,0.22-0.35,0.16-0.39
	c-0.01-0.13-0.12-0.1-0.35,0.09c-5.26,3.39-10.61,6.76-16.05,10.12c-5.44,3.29-10.57,6.34-15.38,9.15c-4.82,2.82-9,5.25-12.55,7.32
	c-0.98,0.53-1.85,0.61-2.63,0.23c-0.72-0.41-1.11-1.2-1.15-2.38c-0.05-1.11,0.26-2.24,0.92-3.4c0.71-1.25,1.55-2.18,2.53-2.77
	c3.27-1.91,7.22-4.19,11.87-6.84c4.64-2.72,9.57-5.66,14.78-8.83c0.34-0.19,0.51-0.48,0.49-0.87l-0.14-3.43
	c-0.02-0.39-0.2-0.49-0.54-0.31l-16.62,9.02c-1.55,0.84-2.92,0.95-4.12,0.34c-1.14-0.65-1.75-1.89-1.83-3.71l-0.59-14.3
	c-0.07-1.76,0.41-3.56,1.45-5.39c1.04-1.9,2.36-3.28,3.97-4.16l16.62-9.03c0.34-0.19,0.51-0.48,0.49-0.87l-0.06-1.37
	c-0.02-0.39-0.2-0.49-0.54-0.31l-28.94,15.71c-0.98,0.53-1.83,0.59-2.55,0.18c-0.66-0.44-1.02-1.18-1.06-2.23
	c-0.05-1.11,0.23-2.2,0.83-3.26c0.66-1.16,1.47-2,2.45-2.53l28.94-15.71c0.34-0.19,0.51-0.48,0.49-0.87l-0.05-1.18
	c-0.05-1.17,0.28-2.36,1-3.54c0.71-1.25,1.58-2.16,2.62-2.72c1.03-0.56,1.91-0.6,2.64-0.13c0.78,0.44,1.2,1.22,1.24,2.33l0.05,1.17
	c0.02,0.39,0.2,0.49,0.54,0.31l29.02-15.76c0.98-0.53,1.8-0.57,2.46-0.13c0.72,0.34,1.1,1.07,1.15,2.18
	c0.04,1.04-0.26,2.15-0.92,3.3c-0.6,1.13-1.39,1.96-2.36,2.49l-29.02,15.76c-0.34,0.19-0.51,0.48-0.49,0.87l0.06,1.37
	c0.02,0.39,0.2,0.49,0.54,0.31l16.88-9.16c1.55-0.84,2.9-0.94,4.04-0.29c1.2,0.62,1.84,1.84,1.91,3.67l0.59,14.3
	c0.07,1.57-0.36,3.27-1.29,5.1c-0.27,0.48-0.21,0.68,0.2,0.59c1.11-0.2,1.97,0.07,2.59,0.8c1.05,1.17,2.1,2.5,3.16,3.99
	c1.06,1.49,2,2.92,2.82,4.28c0.19,0.36,0.3,0.84,0.32,1.43C451.24,398.32,450.96,399.37,450.36,400.44z M411.87,387.49
	c0.34-0.19,0.51-0.48,0.49-0.87l-0.08-1.86c-0.02-0.39-0.2-0.49-0.54-0.31l-14.73,8c-0.35,0.19-0.51,0.48-0.49,0.87l0.08,1.86
	c0.02,0.39,0.2,0.49,0.54,0.31L411.87,387.49z M435.21,374.82c0.34-0.19,0.51-0.48,0.49-0.87l-0.08-1.86
	c-0.02-0.39-0.2-0.49-0.54-0.31l-14.81,8.04c-0.34,0.19-0.51,0.48-0.49,0.87l0.08,1.86c0.02,0.39,0.2,0.49,0.54,0.31L435.21,374.82z
	 M397.42,402.15c-0.34,0.19-0.51,0.48-0.49,0.87l0.08,1.86c0.02,0.39,0.2,0.49,0.54,0.31l14.73-8c0.34-0.19,0.51-0.48,0.49-0.87
	l-0.08-1.86c-0.02-0.39-0.2-0.49-0.54-0.31L397.42,402.15z M435.61,384.52c0.34-0.19,0.51-0.48,0.49-0.87l-0.08-1.86
	c-0.02-0.39-0.2-0.49-0.54-0.31l-14.81,8.04c-0.34,0.19-0.51,0.48-0.49,0.87l0.08,1.86c0.02,0.39,0.2,0.49,0.54,0.31L435.61,384.52z
	 M437.4,391.65c0.21-0.58,0.09-0.75-0.37-0.5l-15.93,8.65c-0.34,0.19-0.51,0.48-0.49,0.87l0.12,2.84c0.02,0.39,0.2,0.49,0.54,0.31
	c2.63-1.63,5.27-3.29,7.9-4.99c2.63-1.7,5.17-3.34,7.63-4.95c0.28-0.22,0.45-0.54,0.49-0.97
	C437.26,392.53,437.3,392.11,437.4,391.65z M435.16,403.38c-0.45,0.38-0.47,0.59-0.06,0.63c1.18,0.23,1.81,1.09,1.87,2.59l0.04,1.08
	c0.02,0.39,0.2,0.49,0.54,0.31l7.23-3.93c0.23-0.12,0.34-0.25,0.34-0.38c0.05-0.16-0.01-0.26-0.19-0.3
	c-0.42-0.11-0.78-0.44-1.1-1.01c-0.64-1.19-1.29-2.2-1.97-3.03c-0.07-0.17-0.27-0.15-0.62,0.03L435.16,403.38z M541.28,376
	l-61.15,33.2c-1.43,0.78-2.69,0.86-3.78,0.25c-1.08-0.61-1.66-1.74-1.72-3.37l-2.87-69.42c-0.07-1.7,0.39-3.38,1.38-5.05
	c0.98-1.74,2.2-2.99,3.63-3.77l60.55-32.87c0.98-0.53,1.85-0.57,2.64-0.13c0.78,0.38,1.19,1.19,1.25,2.43
	c0.05,1.11-0.29,2.29-1,3.54c-0.65,1.22-1.5,2.12-2.53,2.68l-57.53,31.24c-0.34,0.19-0.51,0.48-0.49,0.87l2.61,63.16
	c0.02,0.39,0.2,0.49,0.54,0.31l58.13-31.56c1.03-0.56,1.94-0.62,2.72-0.18c0.78,0.38,1.19,1.15,1.24,2.33
	c0.05,1.18-0.28,2.39-0.99,3.64C543.24,374.5,542.37,375.41,541.28,376z M522.23,341.29l-21.01,11.41
	c-1.55,0.84-2.92,0.95-4.12,0.34c-1.14-0.65-1.75-1.89-1.83-3.71l-0.45-10.87c-0.07-1.76,0.41-3.56,1.45-5.39
	c1.04-1.9,2.36-3.28,3.97-4.16l21.01-11.41c1.55-0.84,2.9-0.91,4.04-0.19c1.2,0.62,1.84,1.81,1.91,3.57l0.45,10.87
	c0.07,1.76-0.41,3.59-1.45,5.49C525.16,339.06,523.84,340.41,522.23,341.29z M502.64,335.91c-0.34,0.19-0.51,0.48-0.49,0.87
	l0.26,6.36c0.02,0.39,0.2,0.49,0.54,0.31l16.88-9.17c0.34-0.19,0.51-0.48,0.49-0.87l-0.26-6.36c-0.02-0.39-0.2-0.49-0.54-0.31
	L502.64,335.91z M505.27,382.44l-14.21,7.72c-1.55,0.84-2.92,0.95-4.12,0.34c-1.14-0.71-1.75-1.95-1.83-3.71l-0.56-13.41
	c-0.07-1.76,0.41-3.56,1.45-5.39c1.09-1.93,2.42-3.31,3.97-4.16l14.21-7.72c1.55-0.84,2.9-0.91,4.04-0.19
	c1.2,0.62,1.84,1.81,1.91,3.57l0.55,13.41c0.07,1.76-0.41,3.59-1.45,5.49C508.2,380.21,506.87,381.56,505.27,382.44z M534.89,366.35
	l-14.56,7.9c-1.55,0.84-2.92,0.95-4.12,0.34c-1.14-0.71-1.75-1.95-1.83-3.71l-0.56-13.41c-0.07-1.76,0.41-3.56,1.45-5.39
	c1.04-1.9,2.36-3.28,3.97-4.16l14.55-7.9c1.55-0.84,2.9-0.91,4.04-0.19c1.2,0.62,1.84,1.81,1.91,3.57l0.55,13.41
	c0.07,1.76-0.41,3.59-1.45,5.49C537.82,364.12,536.5,365.48,534.89,366.35z M492.45,370.67c-0.34,0.19-0.51,0.48-0.49,0.87
	l0.38,9.11c0.02,0.39,0.2,0.49,0.54,0.31l9.99-5.42c0.34-0.19,0.51-0.48,0.49-0.87l-0.38-9.11c-0.02-0.39-0.2-0.49-0.54-0.31
	L492.45,370.67z M521.65,354.82c-0.34,0.19-0.51,0.48-0.49,0.87l0.38,9.11c0.02,0.39,0.2,0.49,0.54,0.31l10.42-5.66
	c0.34-0.19,0.51-0.48,0.49-0.87l-0.38-9.11c-0.02-0.39-0.2-0.49-0.54-0.31L521.65,354.82z"/>
<path class="st9" d="M926.29,876.18l-0.15,4.04l-0.75,0.45l0.15-4.04L926.29,876.18z"/>
<path class="st41" d="M928.68,876.78v4.04c0-0.15-0.15-0.45-0.45-0.6c-0.6-0.3-1.49-0.3-2.09,0v-4.04c0.6-0.3,1.49-0.3,2.09,0
	C928.53,876.33,928.68,876.63,928.68,876.78z"/>
<linearGradient id="SVGID_00000005252359905323102920000011724964172754343336_" gradientUnits="userSpaceOnUse" x1="386.769" y1="447.8193" x2="386.769" y2="444.1902" gradientTransform="matrix(1 0 0 -1 539 1324.5)">
	<stop  offset="0" style="stop-color:#FA7188"/>
	<stop  offset="1" style="stop-color:#FF8EA2"/>
</linearGradient>
<path style="fill:url(#SVGID_00000005252359905323102920000011724964172754343336_);" d="M926.14,876.93v4.04l-0.75-0.3l0.15-4.04
	L926.14,876.93z"/>
<path class="st43" d="M928.68,876.78v4.04c0,0.15-0.15,0.45-0.45,0.6v-4.04C928.53,877.23,928.68,876.93,928.68,876.78z"/>
<path class="st9" d="M929.28,876.78v4.04c0,0.3-0.15,0.6-0.6,0.9v-4.04C929.13,877.38,929.28,877.08,929.28,876.78z"/>
<linearGradient id="SVGID_00000180350101607580794950000011717591366675153302_" gradientUnits="userSpaceOnUse" x1="388.189" y1="447.0693" x2="388.189" y2="443.3143" gradientTransform="matrix(1 0 0 -1 539 1324.5)">
	<stop  offset="0" style="stop-color:#FA7188"/>
	<stop  offset="1" style="stop-color:#FF8EA2"/>
</linearGradient>
<path style="fill:url(#SVGID_00000180350101607580794950000011717591366675153302_);" d="M927.48,877.83v4.05l-0.59-0.45v-4.04
	L927.48,877.83z"/>
<path class="st45" d="M928.23,877.38v4.04l-0.75,0.45v-4.05L928.23,877.38z"/>
<path class="st9" d="M925.54,876.63l-0.15,4.04l-2.69,1.5v-3.89L925.54,876.63z"/>
<path class="st41" d="M922.7,878.28v4.04c-2.1-1.2-5.39-1.05-7.33,0v-4.04C917.46,877.08,920.6,877.08,922.7,878.28z"/>
<path class="st46" d="M920.15,878.28v4.04l-0.45,0.15v-4.04L920.15,878.28z"/>
<path class="st46" d="M926.14,876.93v4.04l-4.04,2.4v-4.04L926.14,876.93z"/>
<path class="st47" d="M922.1,879.33v4.04l-1.95-1.05v-4.04L922.1,879.33z"/>
<path class="st45" d="M926.89,877.38v4.04l-4.04,2.4v-4.04L926.89,877.38z"/>
<path class="st46" d="M928.23,877.38v4.04l-3.44,1.95v-4.04L928.23,877.38z"/>
<path class="st9" d="M928.68,877.68v4.04l-2.99,1.65v-3.9L928.68,877.68z"/>
<linearGradient id="SVGID_00000003817803957459160910000017440400861085577404_" gradientUnits="userSpaceOnUse" x1="381.679" y1="446.0123" x2="381.679" y2="441.6312" gradientTransform="matrix(1 0 0 -1 539 1324.5)">
	<stop  offset="0" style="stop-color:#FA7188"/>
	<stop  offset="1" style="stop-color:#FF8EA2"/>
</linearGradient>
<path style="fill:url(#SVGID_00000003817803957459160910000017440400861085577404_);" d="M921.65,879.63v4.04l-1.95-1.2v-4.04
	L921.65,879.63z"/>
<path class="st46" d="M918.06,880.38v4.04l-0.45,0.3v-4.04L918.06,880.38z"/>
<path class="st47" d="M924.79,880.98v3.89l-1.94-1.05v-4.04L924.79,880.98z"/>
<path class="st41" d="M926.29,881.58v4.04c0-0.75-0.45-1.5-1.5-2.1v-4.04C925.69,879.93,926.29,880.68,926.29,881.58z"/>
<path class="st47" d="M919.11,880.98v4.04l-1.05-0.6v-4.04L919.11,880.98z"/>
<path class="st46" d="M921.65,879.63v4.04l-2.54,1.35v-4.04L921.65,879.63z"/>
<path class="st45" d="M924.79,880.98v3.89l-0.45,0.3v-4.04L924.79,880.98z"/>
<linearGradient id="SVGID_00000040556324769845022190000015434674774030504348_" gradientUnits="userSpaceOnUse" x1="384.374" y1="444.3663" x2="384.374" y2="440.1113" gradientTransform="matrix(1 0 0 -1 539 1324.5)">
	<stop  offset="0" style="stop-color:#FA7188"/>
	<stop  offset="1" style="stop-color:#FF8EA2"/>
</linearGradient>
<path style="fill:url(#SVGID_00000040556324769845022190000015434674774030504348_);" d="M924.34,881.13v4.04l-1.94-1.05v-4.04
	L924.34,881.13z"/>
<linearGradient id="SVGID_00000111885596572162094510000010067679222391902848_" gradientUnits="userSpaceOnUse" x1="379.139" y1="443.7723" x2="379.139" y2="439.8923" gradientTransform="matrix(1 0 0 -1 539 1324.5)">
	<stop  offset="0" style="stop-color:#FA7188"/>
	<stop  offset="1" style="stop-color:#FF8EA2"/>
</linearGradient>
<path style="fill:url(#SVGID_00000111885596572162094510000010067679222391902848_);" d="M918.66,881.28v4.04l-1.05-0.6v-4.04
	L918.66,881.28z"/>
<path class="st45" d="M922.4,880.08v4.04l-2.4,1.35v-4.04L922.4,880.08z"/>
<path class="st47" d="M921.05,882.03v4.04l-1.05-0.6v-4.04L921.05,882.03z"/>
<linearGradient id="SVGID_00000013165279807701904210000001267998008522296212_" gradientUnits="userSpaceOnUse" x1="381.084" y1="442.7233" x2="381.084" y2="438.8433" gradientTransform="matrix(1 0 0 -1 539 1324.5)">
	<stop  offset="0" style="stop-color:#FA7188"/>
	<stop  offset="1" style="stop-color:#FF8EA2"/>
</linearGradient>
<path style="fill:url(#SVGID_00000013165279807701904210000001267998008522296212_);" d="M920.6,882.33v4.04l-1.04-0.6v-4.04
	L920.6,882.33z"/>
<path class="st52" d="M921.05,882.03v4.04l-0.45,0.3v-4.04L921.05,882.03z"/>
<path class="st9" d="M915.37,878.28v4.04L884.4,900.3v-4.04L915.37,878.28z"/>
<path class="st46" d="M915.22,882.03v4.04l-0.45,0.3v-4.04L915.22,882.03z"/>
<path class="st47" d="M916.26,882.63v4.04l-1.04-0.6v-4.04L916.26,882.63z"/>
<path class="st46" d="M918.66,881.28v4.04l-2.4,1.35v-4.04L918.66,881.28z"/>
<linearGradient id="SVGID_00000043418122497912042900000013079299043652172202_" gradientUnits="userSpaceOnUse" x1="376.299" y1="442.1252" x2="376.299" y2="438.2452" gradientTransform="matrix(1 0 0 -1 539 1324.5)">
	<stop  offset="0" style="stop-color:#FA7188"/>
	<stop  offset="1" style="stop-color:#FF8EA2"/>
</linearGradient>
<path style="fill:url(#SVGID_00000043418122497912042900000013079299043652172202_);" d="M915.82,882.92v4.04l-1.05-0.6v-4.04
	L915.82,882.92z"/>
<path class="st45" d="M919.56,881.73v4.04l-2.4,1.35v-4.04L919.56,881.73z"/>
<path class="st54" d="M926.29,881.58v4.04c0,0.75-0.45,1.5-1.5,2.1v-4.05C925.69,883.07,926.29,882.32,926.29,881.58z"/>
<path class="st47" d="M918.21,883.67v4.04l-1.05-0.6v-4.05L918.21,883.67z"/>
<path class="st9" d="M926.89,881.58v4.04c0,0.9-0.6,1.8-1.8,2.4v-4.04C926.29,883.22,926.89,882.32,926.89,881.58z"/>
<linearGradient id="SVGID_00000145018132589459094760000014994165012781367218_" gradientUnits="userSpaceOnUse" x1="378.239" y1="441.0762" x2="378.239" y2="437.1962" gradientTransform="matrix(1 0 0 -1 539 1324.5)">
	<stop  offset="0" style="stop-color:#FA7188"/>
	<stop  offset="1" style="stop-color:#FF8EA2"/>
</linearGradient>
<path style="fill:url(#SVGID_00000145018132589459094760000014994165012781367218_);" d="M917.76,883.97v4.04l-1.05-0.6v-4.04
	L917.76,883.97z"/>
<path class="st45" d="M918.21,883.67v4.04l-0.45,0.3v-4.04L918.21,883.67z"/>
<path class="st46" d="M912.37,883.67v4.04l-0.44,0.3v-4.04L912.37,883.67z"/>
<path class="st46" d="M915.81,882.92v4.04l-2.39,1.35v-4.04L915.81,882.92z"/>
<path class="st47" d="M913.42,884.27v4.04l-1.05-0.6v-4.04L913.42,884.27z"/>
<linearGradient id="SVGID_00000058555174968098357680000017146265741412363665_" gradientUnits="userSpaceOnUse" x1="373.454" y1="440.4772" x2="373.454" y2="436.5972" gradientTransform="matrix(1 0 0 -1 539 1324.5)">
	<stop  offset="0" style="stop-color:#FA7188"/>
	<stop  offset="1" style="stop-color:#FF8EA2"/>
</linearGradient>
<path style="fill:url(#SVGID_00000058555174968098357680000017146265741412363665_);" d="M912.97,884.57v4.04l-1.04-0.6v-4.04
	L912.97,884.57z"/>
<path class="st45" d="M916.71,883.37v4.04l-2.54,1.35l0.15-3.89L916.71,883.37z"/>
<path class="st46" d="M908.63,884.87v4.04l-0.44,0.3v-4.04L908.63,884.87z"/>
<path class="st47" d="M915.37,885.47l-0.15,3.89l-1.05-0.6l0.15-3.89L915.37,885.47z"/>
<linearGradient id="SVGID_00000142147775456916517590000012227415032910171028_" gradientUnits="userSpaceOnUse" x1="375.324" y1="439.4282" x2="375.324" y2="435.5493" gradientTransform="matrix(1 0 0 -1 539 1324.5)">
	<stop  offset="0" style="stop-color:#FA7188"/>
	<stop  offset="1" style="stop-color:#FF8EA2"/>
</linearGradient>
<path style="fill:url(#SVGID_00000142147775456916517590000012227415032910171028_);" d="M914.92,885.62l-0.15,4.04l-1.05-0.6
	l0.15-4.04L914.92,885.62z"/>
<path class="st45" d="M915.37,885.47l-0.15,3.89l-0.45,0.3l0.15-4.04L915.37,885.47z"/>
<path class="st46" d="M912.97,884.57v4.04l-2.39,1.35v-3.89L912.97,884.57z"/>
<path class="st47" d="M910.58,886.07v3.89l-1.95-1.05v-4.04L910.58,886.07z"/>
<linearGradient id="SVGID_00000050662461759540402740000012467212445850090669_" gradientUnits="userSpaceOnUse" x1="370.164" y1="439.2742" x2="370.164" y2="435.0192" gradientTransform="matrix(1 0 0 -1 539 1324.5)">
	<stop  offset="0" style="stop-color:#FA7188"/>
	<stop  offset="1" style="stop-color:#FF8EA2"/>
</linearGradient>
<path style="fill:url(#SVGID_00000050662461759540402740000012467212445850090669_);" d="M910.13,886.22v4.04l-1.94-1.05v-4.04
	L910.13,886.22z"/>
<path class="st45" d="M913.87,885.02l-0.15,4.04l-2.39,1.35v-3.89L913.87,885.02z"/>
<path class="st46" d="M906.69,887.12v3.9l-0.45,0.3v-4.04L906.69,887.12z"/>
<path class="st47" d="M913.27,887.57v4.04l-1.94-1.2v-3.89L913.27,887.57z"/>
<path class="st47" d="M907.74,887.72v3.89l-1.05-0.6v-3.9L907.74,887.72z"/>
<path class="st46" d="M910.13,886.22v4.04l-2.39,1.35v-3.89L910.13,886.22z"/>
<path class="st52" d="M913.27,887.57v4.04l-0.45,0.3v-4.04L913.27,887.57z"/>
<linearGradient id="SVGID_00000052794386428704654990000001942673107158381496_" gradientUnits="userSpaceOnUse" x1="372.854" y1="437.7742" x2="372.854" y2="433.3942" gradientTransform="matrix(1 0 0 -1 539 1324.5)">
	<stop  offset="0" style="stop-color:#FA7188"/>
	<stop  offset="1" style="stop-color:#FF8EA2"/>
</linearGradient>
<path style="fill:url(#SVGID_00000052794386428704654990000001942673107158381496_);" d="M912.82,887.87v4.04l-1.94-1.2v-4.04
	L912.82,887.87z"/>
<linearGradient id="SVGID_00000181080188180590047730000009420537323109928877_" gradientUnits="userSpaceOnUse" x1="367.769" y1="437.1813" x2="367.769" y2="433.3022" gradientTransform="matrix(1 0 0 -1 539 1324.5)">
	<stop  offset="0" style="stop-color:#FA7188"/>
	<stop  offset="1" style="stop-color:#FF8EA2"/>
</linearGradient>
<path style="fill:url(#SVGID_00000181080188180590047730000009420537323109928877_);" d="M907.29,887.87v4.04l-1.05-0.6v-4.04
	L907.29,887.87z"/>
<path class="st45" d="M910.88,886.67v4.04l-2.4,1.5v-4.04L910.88,886.67z"/>
<path class="st46" d="M907.29,887.87v4.04l-1.2,0.75v-4.04L907.29,887.87z"/>
<path class="st47" d="M909.53,888.77v4.04l-1.05-0.6v-4.04L909.53,888.77z"/>
<path class="st45" d="M909.53,888.77v4.04l-0.45,0.15v-3.9L909.53,888.77z"/>
<linearGradient id="SVGID_00000120531192362286151870000009152071109526544543_" gradientUnits="userSpaceOnUse" x1="369.564" y1="436.1332" x2="369.564" y2="432.2543" gradientTransform="matrix(1 0 0 -1 539 1324.5)">
	<stop  offset="0" style="stop-color:#FA7188"/>
	<stop  offset="1" style="stop-color:#FF8EA2"/>
</linearGradient>
<path style="fill:url(#SVGID_00000120531192362286151870000009152071109526544543_);" d="M909.08,889.07v3.89l-1.04-0.6v-4.04
	L909.08,889.07z"/>
<path class="st46" d="M903.85,888.77v4.04l-0.45,0.15v-4.04L903.85,888.77z"/>
<path class="st45" d="M908.04,888.32v4.04l-1.2,0.75v-4.04L908.04,888.32z"/>
<linearGradient id="SVGID_00000146457392020242365710000005627547098747317910_" gradientUnits="userSpaceOnUse" x1="367.469" y1="435.8353" x2="367.469" y2="432.0812" gradientTransform="matrix(1 0 0 -1 539 1324.5)">
	<stop  offset="0" style="stop-color:#FA7188"/>
	<stop  offset="1" style="stop-color:#FF8EA2"/>
</linearGradient>
<path style="fill:url(#SVGID_00000146457392020242365710000005627547098747317910_);" d="M906.84,889.07v4.04l-0.75-0.45v-4.05
	L906.84,889.07z"/>
<path class="st47" d="M904.89,889.37v4.04l-1.04-0.6v-4.04L904.89,889.37z"/>
<path class="st46" d="M906.09,888.62v4.05l-1.2,0.75v-4.04L906.09,888.62z"/>
<path class="st9" d="M904.45,889.66v3.9l-1.05-0.6v-4.04L904.45,889.66z"/>
<path class="st9" d="M906.84,889.07v4.04l-1.2,0.75v-4.04L906.84,889.07z"/>
<path class="st47" d="M906.69,890.41v4.04l-1.05-0.6v-4.04L906.69,890.41z"/>
<path class="st9" d="M906.69,890.41v4.04l-0.45,0.15v-3.89L906.69,890.41z"/>
<path class="st9" d="M906.24,890.71v3.89l-1.05-0.6v-3.89L906.24,890.71z"/>
<path class="st46" d="M901,890.41v4.04l-0.44,0.15v-3.89L901,890.41z"/>
<path class="st47" d="M902.05,891.01v4.04l-1.04-0.6v-4.04L902.05,891.01z"/>
<path class="st46" d="M904.45,889.66v3.9l-2.4,1.5v-4.04L904.45,889.66z"/>
<path class="st9" d="M901.6,891.31v3.89l-1.04-0.6v-3.89L901.6,891.31z"/>
<path class="st9" d="M905.19,890.11v3.89l-2.39,1.5v-4.04L905.19,890.11z"/>
<path class="st46" d="M897.26,891.61v3.89l-0.44,0.3v-4.04L897.26,891.61z"/>
<path class="st47" d="M903.85,892.06v4.04l-1.05-0.6v-4.04L903.85,892.06z"/>
<path class="st9" d="M903.4,892.36v4.04l-1.05-0.6v-4.04L903.4,892.36z"/>
<path class="st9" d="M903.85,892.06v4.04l-0.45,0.3v-4.04L903.85,892.06z"/>
<path class="st46" d="M901.6,891.31v3.89l-2.54,1.5v-4.04L901.6,891.31z"/>
<path class="st47" d="M899.06,892.66v4.04l-1.79-1.2v-3.89L899.06,892.66z"/>
<path class="st9" d="M898.61,892.96V897l-1.79-1.2v-4.04L898.61,892.96z"/>
<path class="st9" d="M902.35,891.76v4.04l-2.39,1.35v-4.04L902.35,891.76z"/>
<path class="st46" d="M895.17,893.71v4.04l-0.45,0.3v-4.04L895.17,893.71z"/>
<path class="st47" d="M901.9,894.31v3.89l-1.94-1.05v-4.04L901.9,894.31z"/>
<path class="st46" d="M898.61,892.96V897l-2.39,1.35v-4.04L898.61,892.96z"/>
<path class="st47" d="M896.22,894.31v4.04l-1.05-0.6v-4.04L896.22,894.31z"/>
<path class="st9" d="M901.9,894.31v3.89l-0.45,0.3v-4.04L901.9,894.31z"/>
<path class="st9" d="M901.45,894.46v4.04l-1.94-1.05v-4.04L901.45,894.46z"/>
<path class="st9" d="M895.77,894.61v4.04l-1.05-0.6v-4.04L895.77,894.61z"/>
<path class="st9" d="M899.51,893.41v4.04l-2.39,1.35v-4.04L899.51,893.41z"/>
<path class="st47" d="M898.16,895.36v4.04l-1.04-0.6v-4.04L898.16,895.36z"/>
<path class="st9" d="M897.71,895.66v4.04l-1.04-0.6v-4.04L897.71,895.66z"/>
<path class="st9" d="M898.16,895.36v4.04l-0.45,0.3v-4.04L898.16,895.36z"/>
<path class="st46" d="M892.33,895.36v4.04l-0.45,0.3v-4.04L892.33,895.36z"/>
<path class="st46" d="M895.77,894.61v4.04l-2.39,1.35v-4.04L895.77,894.61z"/>
<path class="st47" d="M893.38,895.96V900l-1.05-0.6v-4.04L893.38,895.96z"/>
<path class="st9" d="M892.93,896.26v4.04l-1.05-0.6v-4.04L892.93,896.26z"/>
<path class="st9" d="M896.67,895.06v4.04l-2.55,1.35l0.15-4.04L896.67,895.06z"/>
<path class="st47" d="M895.32,897l-0.15,4.04l-1.05-0.6l0.15-4.04L895.32,897z"/>
<path class="st21" d="M895.32,897l-0.15,4.04l-0.45,0.3l0.15-4.04L895.32,897z"/>
<path class="st21" d="M894.87,897.3l-0.15,4.04l-1.05-0.6l0.15-4.04L894.87,897.3z"/>
<path class="st46" d="M889.49,897v4.04l-0.45,0.3v-4.04L889.49,897z"/>
<path class="st41" d="M884.4,896.25v4.04c-1.05,0.6-1.5,1.35-1.5,2.1v-4.04C882.9,897.6,883.5,896.85,884.4,896.25z"/>
<path class="st46" d="M892.93,896.25v4.04l-2.4,1.35v-4.04L892.93,896.25z"/>
<path class="st47" d="M890.53,897.6v4.04l-1.04-0.6V897L890.53,897.6z"/>
<path class="st9" d="M890.08,897.9v4.04l-1.04-0.6v-4.04L890.08,897.9z"/>
<path class="st21" d="M893.82,896.7l-0.15,4.04l-2.39,1.35v-4.05L893.82,896.7z"/>
<path class="st41" d="M884.4,896.25v4.04c-1.05,0.6-1.5,1.35-1.5,2.1v-4.04C882.9,897.6,883.5,896.85,884.4,896.25z"/>
<path class="st46" d="M885.75,898.2v4.05l-0.45,0.3v-4.04L885.75,898.2z"/>
<path class="st47" d="M892.33,898.8v3.89l-1.05-0.6v-4.04L892.33,898.8z"/>
<path class="st9" d="M892.33,898.8v3.89l-0.45,0.3v-4.04L892.33,898.8z"/>
<path class="st9" d="M891.88,898.95V903l-1.05-0.6v-4.04L891.88,898.95z"/>
<path class="st47" d="M887.69,899.4v3.89l-1.94-1.05v-4.05L887.69,899.4z"/>
<path class="st46" d="M890.08,897.9v4.04l-2.39,1.35v-3.9L890.08,897.9z"/>
<path class="st9" d="M890.83,898.35v4.04l-2.39,1.35v-3.89L890.83,898.35z"/>
<path class="st54" d="M884.55,900.6v4.04c-1.05-0.6-1.5-1.35-1.5-2.25v-4.04C882.9,899.25,883.5,900,884.55,900.6z"/>
<path class="st9" d="M884.1,900.9v4.04c-1.2-0.75-1.79-1.5-1.79-2.4v-4.04C882.31,899.25,882.9,900.15,884.1,900.9z"/>
<path class="st47" d="M890.38,900.9v4.04l-1.94-1.2v-3.89L890.38,900.9z"/>
<path class="st21" d="M906.09,888.62l0.75,0.45l-1.2,0.75l1.05,0.6l-0.45,0.3l-1.05-0.6l-2.39,1.35l1.05,0.6l-0.45,0.3l-1.05-0.6
	l-2.39,1.35l1.94,1.2l-0.45,0.15l-1.94-1.05l-2.39,1.35l1.04,0.6l-0.45,0.3l-1.04-0.6l-2.4,1.35l1.05,0.6l-0.45,0.3l-1.05-0.6
	l-2.54,1.35l1.05,0.75l-0.45,0.15l-1.05-0.6l-2.39,1.5l1.94,1.05l-0.45,0.3l-4.63-2.7l0.45-0.3l1.94,1.2l2.39-1.5l-1.04-0.6
	l0.45-0.3l1.04,0.6l2.4-1.35l-1.05-0.6l0.45-0.3l1.05,0.6l2.39-1.35l-1.05-0.6l0.45-0.3l1.05,0.6l2.39-1.35l-1.79-1.2l0.45-0.15
	l1.79,1.05l2.54-1.35l-1.04-0.6l0.45-0.3l1.04,0.6l2.4-1.35l-1.05-0.75l0.45-0.15l1.04,0.6L906.09,888.62z"/>
<path class="st9" d="M890.38,900.9v4.04l-0.45,0.3v-4.04L890.38,900.9z"/>
<path class="st9" d="M889.93,901.2v4.04l-4.63-2.7v-4.04L889.93,901.2z"/>
<path class="st46" d="M924.64,883.67v4.04l-30.82,17.97v-4.04L924.64,883.67z"/>
<path class="st47" d="M886.34,901.65v4.04l-1.79-1.05v-4.04L886.34,901.65z"/>
<path class="st54" d="M893.82,901.65v4.04c-2.09,1.2-5.38,1.2-7.48,0v-4.04C888.44,902.85,891.73,902.85,893.82,901.65z"/>
<path class="st20" d="M928.23,877.38l-3.44,1.95c1.95,1.2,1.95,3.15-0.15,4.34l-30.97,17.97c-2.09,1.2-5.38,1.2-7.48,0l-1.79-1.05
	c-2.1-1.2-2.1-3.15,0-4.34l30.97-17.97c2.09-1.2,5.23-1.2,7.33,0l2.69-1.65l0.6,0.3l-4.04,2.4l-1.95-1.05l-0.44,0.3l1.94,1.05
	l-2.39,1.35l-1.05-0.6l-0.45,0.3l1.05,0.6l-2.4,1.35l-1.04-0.6l-0.45,0.3l1.05,0.6l-2.4,1.35l-1.05-0.6l-0.44,0.3l1.04,0.6
	l-2.39,1.35l-1.95-1.05l-0.44,0.3l1.94,1.05l-2.39,1.5l-1.05-0.6l-0.45,0.3l1.05,0.6l-1.2,0.75l-1.2,0.75l-1.04-0.6l-0.45,0.3
	l1.05,0.6l-2.4,1.35l-1.05-0.6l-0.44,0.3l1.04,0.6l-2.39,1.35l-1.95-1.05l-0.44,0.3l1.94,1.05l-2.39,1.35l-1.05-0.6l-0.45,0.3
	l1.05,0.6l-2.4,1.35l-1.04-0.6l-0.45,0.3l1.05,0.6l-2.4,1.35l-1.04-0.6l-0.45,0.3l1.04,0.6l-2.39,1.35l-1.94-1.05l-0.45,0.3
	l4.63,2.7l0.45-0.3l-1.94-1.05l2.39-1.35l1.05,0.6l0.45-0.3l-1.05-0.6l2.39-1.35l1.05,0.6l0.45-0.3l-1.05-0.6l2.4-1.35l1.04,0.6
	l0.45-0.3l-1.04-0.6l2.39-1.35l1.94,1.05l0.45-0.3l-1.94-1.05l2.39-1.35l1.05,0.6l0.45-0.3l-1.05-0.6l2.39-1.35l1.05,0.6l0.45-0.3
	l-1.05-0.6l1.2-0.75l1.2-0.75l1.04,0.6l0.45-0.3l-1.05-0.6l2.4-1.35l1.94,1.05l0.45-0.3l-1.94-1.05l2.39-1.35l1.05,0.6l0.45-0.3
	l-1.05-0.6l2.39-1.35l1.05,0.6l0.45-0.3l-1.05-0.6l2.4-1.35l1.04,0.6l0.45-0.3l-1.05-0.6l2.4-1.35l1.94,1.05l0.45-0.3l-1.94-1.05
	l4.04-2.4l0.59,0.3L928.23,877.38z"/>
<path class="st9" d="M925.69,879.48c1.79,1.35,1.64,3.3-0.45,4.49l-30.97,17.97c-2.24,1.35-6.13,1.35-8.37,0l-1.8-1.05
	c-2.39-1.35-2.39-3.59,0-4.94l30.97-17.97c2.09-1.2,5.53-1.35,7.78-0.3l2.99-1.8c0.75-0.45,2.09-0.45,2.99,0
	c0.9,0.45,0.9,1.2,0,1.65L925.69,879.48z M893.82,901.65l30.97-17.97c2.1-1.2,2.1-3.15,0.15-4.34l3.44-1.95c0.6-0.3,0.6-0.9,0-1.2
	c-0.6-0.3-1.49-0.3-2.09,0l-0.75,0.45l-2.69,1.65c-2.1-1.2-5.39-1.05-7.33,0l-30.97,17.97c-2.1,1.2-2.1,3.15,0,4.34l1.79,1.05
	C888.44,902.85,891.73,902.85,893.82,901.65z"/>
<linearGradient id="SVGID_00000171700171775232524440000015957912265640483240_" gradientUnits="userSpaceOnUse" x1="378.464" y1="448.3862" x2="378.464" y2="437.3173" gradientTransform="matrix(1 0 0 -1 539 1324.5)">
	<stop  offset="0" style="stop-color:#FF8EA2"/>
	<stop  offset="1" style="stop-color:#FFA6AD"/>
</linearGradient>
<path style="fill:url(#SVGID_00000171700171775232524440000015957912265640483240_);" d="M928.23,876.18c0.6,0.3,0.6,0.9,0,1.2
	l-0.75,0.45l-0.59-0.3l-4.04,2.4l1.94,1.05l-0.45,0.3l-1.94-1.05l-2.4,1.35l1.05,0.6l-0.45,0.3l-1.05-0.6l-2.39,1.35l1.05,0.6
	l-0.45,0.3l-1.05-0.6l-2.39,1.35l1.05,0.6l-0.45,0.3l-1.05-0.6l-2.39,1.35l1.94,1.05l-0.45,0.3l-1.94-1.05l-2.4,1.35l1.05,0.6
	l-0.45,0.3l-1.04-0.6l-1.2,0.75l-0.75-0.45l1.2-0.75l-1.05-0.6l0.45-0.3l1.05,0.6l2.39-1.35l-1.94-1.05l0.44-0.3l1.95,1.05
	l2.39-1.35l-1.05-0.6l0.45-0.3l1.05,0.6l2.39-1.35l-1.04-0.6l0.45-0.3l1.04,0.6l2.4-1.35l-1.05-0.6l0.45-0.3l1.05,0.6l2.39-1.35
	l-1.95-1.05l0.45-0.3l1.95,1.05l4.04-2.4l-0.6-0.3l0.75-0.45C926.74,875.88,927.63,875.88,928.23,876.18z"/>
<path class="st9" d="M925.24,883.97l-0.15,4.04l-30.82,17.97v-4.04L925.24,883.97z"/>
<path class="st9" d="M885.9,901.95v4.04l-1.95-1.05l0.15-4.04L885.9,901.95z"/>
<path class="st9" d="M894.27,901.95v4.04c-2.24,1.35-6.13,1.35-8.37,0v-4.04C888.14,903.3,892.03,903.3,894.27,901.95z"/>
<path class="st64" d="M889.78,880.83c0,0.15,0.15,0.45,0.3,0.45s0.15,0,0.15,0c4.19-2.4,8.38-4.94,12.57-7.34
	c0-0.15-0.15-0.3-0.15-0.45c-4.19,2.4-8.38,4.79-12.72,7.19C889.78,880.68,889.78,880.68,889.78,880.83z"/>
<path class="st65" d="M892.18,876.93c0,0.15,0.15,0.45,0.3,0.45s0.15,0,0.15,0c4.19-2.4,8.37-4.94,12.56-7.34
	c0-0.15-0.15-0.3-0.15-0.45c-4.19,2.4-8.37,4.79-12.71,7.19C892.18,876.78,892.18,876.78,892.18,876.93z"/>
<path class="st21" d="M856.13,891.46c0,3.59,2.39,7.94,5.38,9.73c1.5,0.9,2.99,1.05,4.04,0.45l24.24-13.93
	c1.04-0.6,1.64-1.8,1.64-3.45c0-0.75-0.15-1.5-0.3-2.25c0.6-0.45,1.35-0.75,1.95-1.2c0.45-0.3,0.74-0.9,0.74-1.65
	c0-0.45-0.15-0.9-0.29-1.5l0.44-0.3c0.15-0.15,0.3-0.3,0.3-0.45c0-0.45-0.3-1.2-0.74-1.35c0,0,0,0-0.15,0l-0.3,0.15
	c0,0-0.15,0-0.15,0.15c-0.3-0.45-0.75-0.75-1.2-1.05c-0.75-0.45-1.35-0.45-1.8-0.15c-0.59,0.45-1.34,0.75-1.94,1.2
	c-0.45-0.45-1.05-0.9-1.5-1.2c-1.64-0.9-2.99-1.05-4.04-0.45c-8.07,4.64-16.15,9.29-24.23,13.93
	C856.72,888.47,856.13,889.66,856.13,891.46z"/>
<path class="st66" d="M872.61,889.68l-0.52,0.3l2.25,3.89l0.51-0.3L872.61,889.68z"/>
<path class="st66" d="M885.23,882.49l-0.52,0.3l2.24,3.89l0.52-0.3L885.23,882.49z"/>
<path class="st66" d="M876.34,888.92l-0.52,0.3l1.12,1.95l0.52-0.3L876.34,888.92z"/>
<path class="st66" d="M882.6,885.19l-0.52,0.3l1.12,1.95l0.52-0.3L882.6,885.19z"/>
<path class="st66" d="M879.45,886.99l-0.52,0.3l1.12,1.95l0.51-0.3L879.45,886.99z"/>
<path class="st66" d="M860.07,897.01l-0.51,0.3l2.23,3.9l0.52-0.3L860.07,897.01z"/>
<path class="st66" d="M863.76,896.1l-0.51,0.3l1.12,1.95l0.51-0.3L863.76,896.1z"/>
<path class="st66" d="M870.06,892.53l-0.52,0.3l1.12,1.95l0.52-0.3L870.06,892.53z"/>
<linearGradient id="SVGID_00000108306685762443280140000011697475486925169048_" gradientUnits="userSpaceOnUse" x1="339.3441" y1="449.7313" x2="339.3441" y2="431.5782" gradientTransform="matrix(1 0 0 -1 539 1324.5)">
	<stop  offset="0" style="stop-color:#FF8EA2"/>
	<stop  offset="1" style="stop-color:#FFA6AD"/>
</linearGradient>
<path style="fill:url(#SVGID_00000108306685762443280140000011697475486925169048_);" d="M869.74,884.27
	c2.84,1.65,4.94,5.54,4.94,8.84c0,1.5-0.6,2.7-1.5,3.15l15.86-9.14c0.89-0.45,1.49-1.65,1.49-3.15c0-3.15-2.09-7.04-4.93-8.69
	c-1.35-0.9-2.7-0.9-3.59-0.45c-5.24,3-10.63,5.99-15.86,9.14C867.05,883.37,868.39,883.52,869.74,884.27z"/>
<path class="st66" d="M869.74,884.27l-0.15,5.84L869.74,884.27c2.84,1.65,4.94,5.54,4.94,8.84c0,3.15-2.4,4.49-5.09,2.85
	c-2.84-1.65-4.94-5.54-4.94-8.84C864.65,883.97,867.05,882.62,869.74,884.27z"/>
<path class="st68" d="M869.74,883.67c3.14,1.8,5.53,6.14,5.53,9.74c0,1.8-0.59,2.99-1.64,3.59c0.75-0.45-0.45,0.3,0.3-0.15
	c1.04-0.6,1.64-1.8,1.64-3.59c0-3.6-2.39-7.94-5.53-9.74c-1.5-0.9-2.99-1.05-4.04-0.45c-0.75,0.45,0.45-0.3-0.3,0.15
	C866.75,882.62,868.24,882.77,869.74,883.67z"/>
<path class="st20" d="M869.74,883.67c3.14,1.8,5.53,6.14,5.53,9.74c0,3.59-2.54,4.94-5.68,3.15s-5.54-6.14-5.54-9.74
	C864.2,883.22,866.75,881.88,869.74,883.67z"/>
<path class="st9" d="M866.3,896.85c1.64-0.9,3.29-1.95,4.94-2.85c0.59-0.3,0.89-0.9,0.89-1.95c0-1.95-1.34-4.19-2.84-5.09
	c-0.9-0.45-1.65-0.6-2.09-0.3c-1.65,0.9-3.3,1.95-4.94,2.85C862.71,889.21,866.75,896.55,866.3,896.85z"/>
<path class="st20" d="M859.72,887.27l-0.15,5.09c-1.65-0.9-3-0.3-3,1.65s1.35,4.19,2.85,5.09c1.64,0.9,2.99,0.3,2.99-1.65
	s-1.35-4.19-2.84-5.09L859.72,887.27c4.03,2.4,7.33,8.24,7.33,12.88c0,4.64-3.44,6.59-7.48,4.19c-4.04-2.4-7.33-8.24-7.33-12.88
	C852.24,886.67,855.68,884.87,859.72,887.27z"/>
<path class="st21" d="M854.33,886.82c1.35-0.75,3.14-0.75,5.24,0.45c2.09,1.2,4.04,3.29,5.38,5.54c1.35,2.4,2.25,5.09,2.1,7.49
	c0,2.25-0.9,3.89-2.25,4.64c0.75-0.45,0.3-0.15,1.05-0.6c1.35-0.75,2.09-2.4,2.24-4.64c0-2.4-0.74-5.09-2.09-7.49
	c-1.35-2.4-3.29-4.49-5.39-5.54c-2.09-1.2-3.89-1.2-5.23-0.45C854.63,886.52,855.08,886.37,854.33,886.82z"/>
<path class="st9" d="M854.78,895.36c1.64,1.05,2.99,3.29,2.84,5.24c0,0.9-0.3,1.65-0.9,1.95c1.65-0.9,3.29-1.95,4.94-2.85
	c0.6-0.3,0.9-0.9,0.9-1.95c0-1.95-1.35-4.19-2.84-5.09c-0.9-0.45-1.65-0.6-2.1-0.3c-1.64,0.9-3.29,1.95-4.94,2.85
	C853.13,894.76,853.88,894.76,854.78,895.36z"/>
<path class="st21" d="M852.53,893.56c3.15,1.8,5.54,6.14,5.54,9.74c0,1.8-0.6,2.99-1.65,3.6c0.75-0.45,0.6-0.3,1.35-0.75
	c1.05-0.6,1.65-1.8,1.65-3.59c0-3.6-2.4-7.94-5.54-9.74c-1.49-0.9-2.99-1.05-4.04-0.45c-0.75,0.45-0.6,0.3-1.34,0.75
	C849.54,892.51,851.04,892.66,852.53,893.56z"/>
<path class="st20" d="M852.53,893.56c3.15,1.8,5.54,6.14,5.54,9.73c0,3.59-2.54,4.94-5.68,3.15c-3.15-1.8-5.54-6.14-5.54-9.74
	C847,893.11,849.54,891.76,852.53,893.56z"/>
<path class="st21" d="M879.16,892.81l0.45-0.3c0.3-1.8,0-3.3-0.9-5.39l-0.44,0.3C878.86,888.77,879.46,890.71,879.16,892.81z"/>
<path class="st21" d="M882.31,889.81l0.44-0.3c0-0.75,0-1.35-0.44-2.7l-0.45,0.3C882.01,887.72,882.31,888.62,882.31,889.81z"/>
<path class="st21" d="M888.44,886.22l0.45-0.3c0-0.75,0-1.35-0.45-2.7l-0.45,0.3C888.14,884.27,888.44,885.02,888.44,886.22z"/>
<path class="st21" d="M885.3,888.02l0.45-0.3c0-0.75,0-1.35-0.45-2.7l-0.45,0.3C885.15,886.07,885.3,886.82,885.3,888.02z"/>
<path class="st21" d="M870.04,896.85l0.45-0.3c0-0.75,0-1.35-0.45-2.7l-0.45,0.3C869.74,894.76,869.89,895.66,870.04,896.85z"/>
<path class="st21" d="M876.17,893.26l0.45-0.3c0-0.75,0-1.35-0.45-2.7l-0.45,0.3C875.87,891.31,876.17,892.06,876.17,893.26z"/>
<path class="st21" d="M873.03,895.06l0.45-0.3c0-0.75,0-1.35-0.45-2.7l-0.45,0.3C872.73,893.11,873.03,893.86,873.03,895.06z"/>
<path class="st22" d="M153.05,782.53v2.55c0-0.75-0.45-1.5-1.35-1.95c-0.15-0.15-0.3-0.15-0.6-0.3c-1.05-0.45-2.24-0.6-3.59-0.45
	c-1.2,0.15-2.39,0.45-3.14,1.05c-0.6,0.45-0.9,1.05-0.9,1.65v-2.55c0-0.6,0.3-1.2,0.9-1.65c0.75-0.6,1.8-1.05,3.14-1.05
	c1.2-0.15,2.54,0,3.59,0.45c0.15,0.15,0.45,0.15,0.6,0.3C152.61,781.18,153.05,781.93,153.05,782.53z"/>
<path class="st22" d="M155,782.53v2.55c0,0.6-0.3,1.35-0.9,1.95v-2.55C154.7,783.87,155,783.28,155,782.53z"/>
<path class="st9" d="M149.61,786.42v2.55c-1.79,0.15-3.74,0-5.24-0.75c-0.3-0.15-0.6-0.3-0.75-0.45c-1.35-0.75-1.95-1.8-1.95-2.84
	v-2.55c0,1.05,0.6,1.95,1.95,2.85c0.3,0.15,0.6,0.3,0.75,0.45C145.88,786.42,147.82,786.57,149.61,786.42z"/>
<path class="st22" d="M152.31,787.62v2.55l-0.75,0.15v-2.55L152.31,787.62z"/>
<path class="st22" d="M157.69,788.22l-0.15,2.55l-1.35,1.05v-2.55L157.69,788.22z"/>
<path class="st9" d="M156.2,789.27v2.55l-3.89-1.65v-2.55L156.2,789.27z"/>
<path class="st9" d="M162.93,793.76v2.55l-2.84-2.25v-2.55L162.93,793.76z"/>
<path class="st22" d="M176.54,796.16v2.55c0-0.6-0.3-1.2-0.9-1.65c-0.15-0.15-0.3-0.3-0.45-0.3c-1.65-1.05-4.34-1.05-6.13-0.3
	c-1.05,0.45-1.65,1.05-1.94,1.8c0,0.15,0,0.3,0,0.45v-2.55c0-0.15,0-0.3,0-0.45c0.15-0.75,0.9-1.35,1.94-1.8
	c1.95-0.75,4.49-0.75,6.13,0.3c0.15,0.15,0.3,0.15,0.45,0.3C176.24,794.96,176.54,795.56,176.54,796.16z"/>
<path class="st9" d="M178.49,796.16v2.55c0,0.15,0,0.45-0.15,0.6v-2.55C178.49,796.61,178.49,796.31,178.49,796.16z"/>
<path class="st22" d="M151.56,787.77v2.55l-12.57,13.78v-2.55L151.56,787.77z"/>
<path class="st22" d="M165.02,795.41v2.55l-27.38,8.39v-2.55L165.02,795.41z"/>
<path class="st9" d="M178.34,796.76v2.55c-0.3,1.05-1.2,1.95-2.69,2.55c-2.69,1.2-6.43,0.9-8.83-0.45c-0.3-0.15-0.45-0.3-0.75-0.45
	c-0.9-0.75-1.35-1.5-1.35-2.25v-2.55c0,0.9,0.45,1.65,1.35,2.25c0.15,0.15,0.45,0.3,0.75,0.45c2.39,1.35,5.98,1.5,8.83,0.45
	C177.14,798.7,178.04,797.8,178.34,796.76z"/>
<path class="st22" d="M137.65,803.79v2.55l-1.65,1.05v-2.55L137.65,803.79z"/>
<path class="st22" d="M136,804.84v2.55h-0.15v-2.55H136z"/>
<path class="st22" d="M132.41,805.29v2.55c-5.68,1.35-21.24,5.24-21.24,5.24v-2.55C111.17,810.54,126.73,806.79,132.41,805.29z"/>
<path class="st22" d="M135.85,805.59v2.55c0,6.89-11.67,12.28-12.57,12.13v-2.55C124.33,817.87,135.85,812.48,135.85,805.59z"/>
<path class="st21" d="M178.34,796.76c-0.3,1.05-1.2,1.95-2.69,2.55c-2.69,1.2-6.43,0.9-8.83-0.45c-0.3-0.15-0.45-0.3-0.75-0.45
	c-1.05-0.9-1.5-1.95-1.2-2.99v-0.15l-27.53,8.39l-1.65,0.9l-0.15,0.15c0.75,7.19-11.52,13.03-12.57,12.73c0,0,6.58-8.99,9.12-12.28
	c-5.68,1.35-21.24,5.24-21.24,5.24c-0.45-0.6,9.72-7.64,21.99-7.19h0.15l1.65-0.9l14.66-15.88c-1.8,0.15-3.74,0-5.24-0.75
	c-0.3-0.15-0.6-0.3-0.75-0.45c-2.39-1.35-2.69-3.45-0.75-5.09c1.05-0.9,2.69-1.35,4.49-1.5c1.8-0.15,3.59,0.15,5.09,0.75
	c0.3,0.15,0.6,0.3,0.75,0.45c2.24,1.35,2.69,3.15,1.05,4.79l0.3,2.4l3.14,1.35l-1.35,1.05l-3.89-1.65h-0.6l-12.72,13.78l23.79-7.34
	l0.15-0.45l-2.84-2.25l1.79-0.75l2.24,1.8l4.04,0.15c2.69-0.9,5.98-0.6,8.08,0.6c0.3,0.15,0.45,0.3,0.75,0.45
	C178.19,794.66,178.64,795.71,178.34,796.76z M145.43,784.77c2.09,0.9,5.09,0.6,6.73-0.6c1.35-1.05,1.2-2.7-0.45-3.6
	c-0.15-0.15-0.3-0.15-0.6-0.3c-1.05-0.45-2.24-0.6-3.59-0.45c-1.2,0.15-2.39,0.45-3.14,1.05c-1.35,1.05-1.2,2.7,0.45,3.6
	C145.13,784.62,145.28,784.77,145.43,784.77z M174.45,798.4c1.05-0.45,1.65-1.05,1.95-1.8c0.15-0.75-0.15-1.5-0.9-2.1
	c-0.15-0.15-0.3-0.3-0.45-0.3c-1.64-1.05-4.34-1.05-6.13-0.3c-1.05,0.45-1.65,1.05-1.94,1.8c-0.15,0.75,0.15,1.5,0.9,2.1
	c0.15,0.15,0.3,0.3,0.45,0.3C169.96,799.15,172.65,799.15,174.45,798.4z"/>
<path class="st21" d="M702.77,631.04c-0.13-0.13-0.39-0.26-0.65-0.39c-0.26-0.26-0.78-0.52-1.04-0.78
	c-0.26-0.13-0.52-0.39-0.65-0.65c-0.26-0.26-0.52-0.65-0.65-0.91s-0.26-0.52-0.39-0.78c-0.13-0.26-0.26-0.52-0.26-0.78
	c0-0.13-0.13-0.39-0.13-0.52c0-0.26-0.13-0.65-0.13-0.91c0,1.83,1.17,3.52,3.39,4.96c4.7,2.87,12.52,2.87,17.48,0.13
	c2.48-1.43,3.78-3.26,3.78-5.22c0,0.13,0,0.39,0,0.52c0,0.26-0.13,0.65-0.13,1.04c0,0.13-0.13,0.39-0.26,0.52
	c0,0.13-0.13,0.39-0.26,0.52c-0.13,0.26-0.26,0.52-0.52,0.78c-0.13,0.26-0.39,0.52-0.52,0.65c-0.13,0.13-0.26,0.26-0.39,0.39
	c-0.39,0.39-0.91,0.78-1.3,1.04c-0.26,0.13-0.52,0.39-0.78,0.52c-0.26,0.13-0.52,0.26-0.65,0.39c-0.26,0.13-0.65,0.26-0.91,0.39
	c-0.26,0.13-0.52,0.26-0.78,0.26c-0.78,0.26-1.43,0.39-1.7,0.52c-1.04,0.26-2.22,0.39-3.52,0.39c-0.91,0-1.57,0-1.7,0
	c-0.65,0-1.04-0.13-1.7-0.13c0,0-0.78-0.13-1.7-0.39c-0.26,0-0.52-0.13-0.78-0.26c-0.26-0.13-0.52-0.13-0.78-0.26
	c-0.26-0.13-0.52-0.26-0.78-0.26c-0.26-0.13-0.52-0.26-0.78-0.39C703.29,631.43,702.9,631.17,702.77,631.04z"/>
<path class="st21" d="M698.86,625.3v-6.91c0,1.83,1.17,3.52,3.39,4.96c4.7,2.87,12.52,2.87,17.48,0.13
	c2.48-1.43,3.78-3.26,3.78-5.22v6.92c0,1.83-1.3,3.78-3.78,5.22c-4.96,2.74-12.78,2.61-17.48-0.13
	C700.03,628.82,698.86,627.13,698.86,625.3z"/>
<linearGradient id="SVGID_00000086666815381948987170000018163401086920030911_" gradientUnits="userSpaceOnUse" x1="172.1855" y1="722.6943" x2="172.1855" y2="702.7053" gradientTransform="matrix(1 0 0 -1 539 1324.5)">
	<stop  offset="0" style="stop-color:#84B4C2"/>
	<stop  offset="1" style="stop-color:#9DC8D3"/>
</linearGradient>
<path style="fill:url(#SVGID_00000086666815381948987170000018163401086920030911_);" d="M698.86,618.39v-16.7
	c0,1.83,1.17,3.52,3.39,4.96c4.7,2.87,12.52,2.87,17.48,0.13c2.48-1.44,3.78-3.26,3.78-5.22v16.7c0,1.83-1.3,3.78-3.78,5.22
	c-4.96,2.74-12.78,2.61-17.48-0.13C700.03,622.04,698.86,620.21,698.86,618.39z"/>
<path class="st21" d="M723.51,598.16c0-0.13,0-0.39-0.13-0.65c0-0.26-0.13-0.65-0.26-0.91c-0.13-0.39-0.39-1.31-1.04-2.35
	c-0.26-0.39-0.52-0.78-0.78-1.04c-0.26-0.26-0.52-0.65-0.78-0.78c-0.13-0.13-0.39-0.39-0.52-0.52c-0.13-0.13-0.39-0.26-0.52-0.39
	c-0.39-0.26-0.78-0.52-1.17-0.78c-0.26-0.13-0.65-0.39-0.91-0.52c-0.13-0.13-0.39-0.26-0.65-0.26c-0.26-0.13-0.52-0.26-0.78-0.26
	c-0.26-0.13-0.52-0.13-0.78-0.26c-0.39-0.13-0.91-0.26-1.3-0.26c-0.26,0-0.52-0.13-0.65-0.13c-0.26,0-0.52-0.13-0.65-0.13
	c-0.39,0-0.91-0.13-1.3-0.13c-0.26,0-0.52,0-0.65,0c-0.26,0-0.52,0-0.65,0c-0.26,0-0.52,0-0.65,0.13c-0.26,0-1.04,0.13-1.43,0.26
	c-0.26,0-0.52,0.13-0.78,0.26c-0.39,0.13-0.91,0.26-1.3,0.39c-0.26,0.13-0.65,0.26-0.91,0.39c-0.13,0.13-0.39,0.26-0.65,0.39
	c-0.39,0.13-0.78,0.52-1.04,0.65c-0.39,0.26-0.78,0.52-1.04,0.91c-0.26,0.26-0.52,0.52-0.78,0.78c-0.13,0.13-0.26,0.39-0.39,0.52
	c-0.13,0.26-0.39,0.52-0.52,0.78c-0.13,0.26-0.39,0.52-0.52,0.78c-0.13,0.13-0.26,0.39-0.26,0.52c-0.13,0.26-0.26,0.52-0.26,0.78
	c0,0.13-0.13,0.39-0.13,0.65c0,0.26-0.13,0.65-0.13,0.91c0,0.39-0.13,0.91-0.13,1.3c0,1.83,1.17,3.52,3.39,4.96
	c4.7,2.87,12.52,2.87,17.48,0.13c2.48-1.43,3.78-3.26,3.78-5.22C723.51,598.82,723.51,598.42,723.51,598.16z"/>
<path class="st21" d="M698.86,601.82v-2.61c0,1.83,1.17,3.52,3.39,4.96c4.7,2.87,12.52,2.87,17.48,0.13
	c2.48-1.43,3.78-3.26,3.78-5.22v2.61c0,1.83-1.3,3.78-3.78,5.22c-4.96,2.74-12.78,2.61-17.48-0.13
	C699.9,605.34,698.86,603.51,698.86,601.82z"/>
<linearGradient id="SVGID_00000082364718757562743040000015911218626159131520_" gradientUnits="userSpaceOnUse" x1="172.0545" y1="742.4982" x2="172.0545" y2="735.8412" gradientTransform="matrix(1 0 0 -1 539 1324.5)">
	<stop  offset="0" style="stop-color:#84B4C2"/>
	<stop  offset="1" style="stop-color:#9DC8D3"/>
</linearGradient>
<path style="fill:url(#SVGID_00000082364718757562743040000015911218626159131520_);" d="M716.08,583.16
	c2.61,1.57,2.61,4.18-0.26,5.61c-2.74,1.57-7.04,1.43-9.78-0.13c-2.61-1.57-2.61-4.17,0.26-5.61
	C709.16,581.46,713.47,581.59,716.08,583.16z"/>
<linearGradient id="SVGID_00000147191045169105728180000014590085879464029323_" gradientUnits="userSpaceOnUse" x1="172.185" y1="727.9837" x2="172.185" y2="737.4272" gradientTransform="matrix(1 0 0 -1 539 1324.5)">
	<stop  offset="0" style="stop-color:#84B4C2"/>
	<stop  offset="1" style="stop-color:#9DC8D3"/>
</linearGradient>
<path style="fill:url(#SVGID_00000147191045169105728180000014590085879464029323_);" d="M702.77,591.64v-4.57
	c0,1.17,0.78,2.35,2.35,3.39c3.26,1.96,8.48,1.96,11.87,0.13c1.7-0.91,2.61-2.22,2.61-3.52v4.57c0,1.3-0.91,2.61-2.61,3.52
	c-3.39,1.83-8.61,1.83-11.87-0.13C703.55,593.99,702.77,592.81,702.77,591.64z"/>
<linearGradient id="SVGID_00000004537986707189056620000003424243154127862914_" gradientUnits="userSpaceOnUse" x1="172.185" y1="742.7983" x2="172.185" y2="734.1392" gradientTransform="matrix(1 0 0 -1 539 1324.5)">
	<stop  offset="0" style="stop-color:#84B4C2"/>
	<stop  offset="1" style="stop-color:#9DC8D3"/>
</linearGradient>
<path style="fill:url(#SVGID_00000004537986707189056620000003424243154127862914_);" d="M705.64,582.9
	c0.13-0.13,0.26-0.13,0.52-0.26c0.13-0.13,0.39-0.13,0.52-0.26c0.26-0.13,0.78-0.26,1.04-0.39c0.13,0,0.39-0.13,0.65-0.13
	c0.52-0.13,1.04-0.13,1.17-0.26c0.13,0,0.39,0,0.65,0c0.13,0,0.39,0,0.65,0c0.13,0,0.39,0,0.65,0c0.39,0,0.78,0,1.17,0
	c0.13,0,0.39,0,0.52,0.13c0.13,0,0.65,0.13,1.17,0.26c0.13,0,0.39,0.13,0.52,0.13c0.26,0.13,0.78,0.26,1.04,0.39
	c0.13,0,0.39,0.13,0.52,0.26c0.13,0.13,0.39,0.26,0.52,0.26c-0.13-0.13-0.52-0.13-0.78,0c-2.61-1.57-7.04-1.57-9.78-0.13
	c-2.74,1.57-2.87,4.04-0.26,5.61c2.61,1.57,7.04,1.57,9.78,0.13c2.74-1.57,2.87-4.04,0.26-5.61c0.26-0.13,0.52-0.13,0.78,0
	c0.13,0.13,0.26,0.13,0.39,0.26c0.26,0.13,0.52,0.39,0.65,0.52c0.52,0.39,0.78,0.91,0.78,0.91c0.13,0.13,0.26,0.39,0.39,0.52
	c0.13,0.13,0.13,0.39,0.26,0.52c0,0.13,0.13,0.26,0.13,0.52c0,0.13,0,0.26,0,0.26c0,0.13,0,0.26,0,0.52c0,1.3-0.91,2.61-2.61,3.52
	c-3.39,1.83-8.61,1.83-11.87-0.13c-1.57-0.91-2.35-2.09-2.35-3.39c0-0.13,0-0.39,0-0.65c0-0.13,0.13-0.39,0.13-0.52
	c0.13-0.26,0.26-0.65,0.65-1.18c0.13-0.13,0.26-0.39,0.39-0.52c0.13-0.13,0.39-0.39,0.65-0.52c0.13-0.13,0.39-0.26,0.52-0.39
	C705.25,583.16,705.51,583.03,705.64,582.9z"/>
<path class="st20" d="M719.21,612.78c-1.96,0.91-3.13,1.3-5.35,1.57c0-1.83,0-2.74,0-4.57c-2.09,0.26-3.26,0.26-5.35,0
	c0,1.83,0,2.74,0,4.57c-2.22-0.26-3.26-0.65-5.35-1.57c0,1.83,0,2.74,0,4.44c1.96,0.91,3.13,1.3,5.35,1.57c0,1.83,0,2.74,0,4.57
	c2.09,0.26,3.26,0.26,5.35,0c0-1.83,0-2.74,0-4.57c2.22-0.26,3.26-0.65,5.35-1.57C719.21,615.52,719.21,614.6,719.21,612.78z"/>
<path class="st20" d="M695.73,602.47c0-0.26-0.13-0.65-0.13-0.91c0-0.26-0.13-0.65-0.13-0.91c-0.13-0.52-0.39-1.17-0.65-1.7
	c-0.26-0.39-0.52-1.04-0.78-1.43c-0.26-0.52-0.78-1.04-1.04-1.43c-0.26-0.39-0.78-0.78-1.04-1.04c-0.26-0.26-0.65-0.52-0.91-0.78
	c-0.39-0.39-1.04-0.78-1.57-1.04c-0.26-0.13-0.78-0.39-1.04-0.52c-0.26-0.13-0.52-0.26-0.78-0.39c-0.26-0.13-0.91-0.39-1.83-0.65
	c-0.91-0.26-1.7-0.39-1.7-0.39c-0.26,0-0.52-0.13-0.78-0.13c-0.26,0-0.52-0.13-0.78-0.13c-0.26,0-0.52,0-0.78,0
	c-0.26,0-0.52,0-0.78,0c-0.26,0-0.52,0-0.78,0s-0.52,0-0.78,0c0,0-0.65,0-1.57,0.26c-0.65,0.13-1.43,0.26-1.83,0.39
	c-0.26,0.13-0.52,0.13-0.78,0.26c-0.26,0.13-0.78,0.26-1.04,0.39c-0.26,0.13-0.52,0.26-0.78,0.39c-0.39,0.13-0.78,0.39-1.17,0.65
	c-0.52,0.26-1.04,0.65-1.57,1.04c-0.39,0.26-0.78,0.65-1.17,1.04c-0.39,0.39-0.78,0.78-1.17,1.17c-0.13,0.26-0.39,0.52-0.52,0.78
	c-0.13,0.26-0.39,0.52-0.52,0.78c-0.26,0.52-0.52,1.04-0.78,1.57c-0.26,0.78-0.39,1.17-0.52,1.96c-0.13,0.52-0.13,1.17-0.13,1.7
	c0,2.22,1.43,4.31,4.17,6c5.74,3.39,15.26,3.52,21.13,0.26c3-1.7,4.57-3.91,4.57-6.13C695.86,603.12,695.86,602.73,695.73,602.47z"
	/>
<path class="st21" d="M695.86,603.38c0,2.22-1.57,4.44-4.57,6.13c-5.87,3.26-15.39,3.26-21.13-0.26c-2.87-1.7-4.17-3.91-4.17-6
	v21.79c0,0.26,0,0.39,0,0.65c0,0.13,0,0.26,0,0.39c0,0.13,0.13,0.39,0.13,0.65c0.13,0.26,0.26,0.78,0.39,1.04
	c0.13,0.26,0.26,0.65,0.52,0.91c0.26,0.39,0.52,0.78,0.78,1.17c0.26,0.26,0.52,0.52,0.78,0.78c0.13,0.13,0.52,0.39,0.65,0.52
	c0.39,0.26,1.04,0.65,1.43,1.04c0.26,0.13,0.65,0.39,1.04,0.52c0.26,0.13,0.65,0.26,0.91,0.39c0.52,0.26,1.3,0.52,1.83,0.65
	c0.26,0.13,0.78,0.26,1.04,0.26c0.78,0.26,1.83,0.39,2.09,0.39c0.26,0,0.78,0.13,1.04,0.13c0.65,0,1.43,0.13,2.09,0.13
	c0.26,0,0.78,0,1.04,0c0.26,0,0.78,0,1.04,0s0.78-0.13,1.04-0.13c0.39,0,1.3-0.13,2.09-0.39c0.39-0.13,0.78-0.13,1.04-0.26
	c0.52-0.13,1.3-0.39,1.83-0.65c0.26-0.13,0.78-0.26,1.04-0.39c0.26-0.13,0.65-0.26,0.78-0.39c0.26-0.13,0.65-0.39,1.04-0.65
	c0.26-0.26,0.65-0.52,0.91-0.78c0.39-0.26,0.78-0.78,1.04-1.04c0.26-0.26,0.52-0.65,0.65-0.91c0.13-0.26,0.39-0.65,0.52-0.91
	c0.13-0.39,0.39-0.78,0.52-1.17c0-0.13,0.13-0.39,0.13-0.65c0-0.13,0-0.39,0.13-0.65c0-0.13,0-0.26,0-0.39c0-0.13,0-0.13,0-0.26
	L695.86,603.38z"/>
<linearGradient id="SVGID_00000022529174151476493820000016636547738927710638_" gradientUnits="userSpaceOnUse" x1="141.9205" y1="740.2233" x2="141.9205" y2="735.5582" gradientTransform="matrix(1 0 0 -1 539 1324.5)">
	<stop  offset="0" style="stop-color:#84B4C2"/>
	<stop  offset="1" style="stop-color:#9DC8D3"/>
</linearGradient>
<path style="fill:url(#SVGID_00000022529174151476493820000016636547738927710638_);" d="M684.25,589.03
	c-1.96,1.04-4.96,1.04-6.78-0.13c-1.83-1.04-1.83-2.87,0.13-3.91c1.96-1.04,4.96-1.04,6.78,0.13
	C686.2,586.29,686.2,587.99,684.25,589.03z"/>
<linearGradient id="SVGID_00000019663665006321944640000001694956777033400498_" gradientUnits="userSpaceOnUse" x1="141.921" y1="740.3732" x2="141.921" y2="734.4252" gradientTransform="matrix(1 0 0 -1 539 1324.5)">
	<stop  offset="0" style="stop-color:#84B4C2"/>
	<stop  offset="1" style="stop-color:#9DC8D3"/>
</linearGradient>
<path style="fill:url(#SVGID_00000019663665006321944640000001694956777033400498_);" d="M684.9,585.12
	c0.13,0.13,0.39,0.26,0.78,0.52c0.39,0.26,0.52,0.52,0.52,0.65c0.13,0.13,0.13,0.26,0.26,0.39c0,0.13,0.13,0.26,0.13,0.39
	c0,0.13,0.13,0.26,0.13,0.26s0,0.13,0,0.26c0,0.13,0,0.26,0,0.26c0,0.91-0.65,1.7-1.7,2.35c0-0.39-0.26-1.04-0.65-1.3
	c1.96-1.04,1.96-2.87,0.13-3.91c-1.83-1.04-4.83-1.17-6.78-0.13c-1.96,1.04-1.96,2.87-0.13,3.91c1.83,1.04,4.83,1.17,6.78,0.13
	c0.39,0.26,0.65,0.78,0.65,1.3c-2.35,1.3-6,1.3-8.22-0.13c-1.04-0.65-1.7-1.57-1.7-2.35c0,0,0-0.13,0-0.26c0-0.13,0-0.26,0.13-0.39
	c0-0.13,0.13-0.26,0.13-0.52c0.13-0.26,0.26-0.39,0.26-0.39c0.26-0.26,0.26-0.26,0.52-0.52c0.13-0.13,0.26-0.26,0.39-0.26
	c0.13,0,0.13-0.13,0.26-0.13c0.13-0.13,0.26-0.13,0.39-0.26c0.26-0.13,0.39-0.26,0.78-0.39c0.26-0.13,0.52-0.13,0.78-0.26
	c1.43-0.39,2.74-0.26,3.26-0.26c0.13,0,0.39,0,0.78,0.13c0.39,0.13,0.65,0.13,0.78,0.13c0.13,0,0.39,0.13,0.78,0.26
	C684.51,584.99,684.77,585.12,684.9,585.12z"/>
<linearGradient id="SVGID_00000062170538599621148020000002655591278549024897_" gradientUnits="userSpaceOnUse" x1="141.7992" y1="727.6412" x2="141.7992" y2="736.6432" gradientTransform="matrix(1 0 0 -1 539 1324.5)">
	<stop  offset="0" style="stop-color:#84B4C2"/>
	<stop  offset="1" style="stop-color:#9DC8D3"/>
</linearGradient>
<path style="fill:url(#SVGID_00000062170538599621148020000002655591278549024897_);" d="M684.9,590.34c-2.35,1.3-6,1.3-8.22-0.13
	c-1.04-0.65-1.7-1.57-1.7-2.35v5.22c0,0.52,0.13,0.91,0.52,1.44c-0.39-0.39-0.52-0.91-0.52-1.44c0,0.39,0,0.65,0.13,0.78
	c0.13,0.26,0.26,0.52,0.39,0.78c0.26,0.39,0.52,0.65,0.65,0.65c0.26,0.26,0.65,0.52,0.78,0.52c0,0,0.39,0.26,0.78,0.39
	c0.26,0.13,0.52,0.13,0.65,0.26c0.13,0,0.26,0.13,0.39,0.13c0.26,0.13,1.04,0.26,1.96,0.26c0.65,0,1.43-0.13,2.09-0.26
	c0.13,0,0.26-0.13,0.39-0.13c0.26-0.13,0.52-0.13,0.78-0.26c0.13,0,0.26-0.13,0.39-0.13c0.13,0,0.26-0.13,0.26-0.13
	c0.13-0.13,0.26-0.13,0.39-0.26c0.13-0.13,0.26-0.26,0.39-0.26c0.13-0.13,0.39-0.39,0.65-0.78c0.13-0.13,0.26-0.39,0.26-0.39
	c0-0.13,0.13-0.26,0.13-0.39c0-0.13,0-0.26,0.13-0.26c0-0.13,0-0.13,0-0.26c0-0.13,0-0.13,0-0.26v-5.22
	C686.73,588.77,686.07,589.68,684.9,590.34z"/>
<linearGradient id="SVGID_00000110431448957470162660000003824490634505629580_" gradientUnits="userSpaceOnUse" x1="128.68" y1="703.3635" x2="154.248" y2="703.3635" gradientTransform="matrix(1 0 0 -1 539 1324.5)">
	<stop  offset="0" style="stop-color:#F3E5A5"/>
	<stop  offset="1" style="stop-color:#F4C15B"/>
</linearGradient>
<path style="fill:url(#SVGID_00000110431448957470162660000003824490634505629580_);" d="M693.25,612.65
	c-9,4.7-17.09,4.57-25.57-0.52v14.09c8.61,5.09,16.7,5.22,25.57,0.52V612.65z"/>
<path class="st64" d="M706.16,638.74c-3.91-2.35-10.44-2.35-14.35,0c-3.91,2.35-3.91,6,0,8.35c3.91,2.35,10.43,2.35,14.35,0
	C710.21,644.74,710.21,641.09,706.16,638.74z"/>
<path class="st18" d="M692.21,643.04v-11.61c0,1.3,0.91,2.61,2.61,3.65c3.52,2.09,9.26,2.22,12.91,0.13
	c1.83-1.04,2.87-2.48,2.87-3.91v11.61c0,1.43-0.91,2.74-2.87,3.91c-3.65,2.09-9.52,1.96-12.91-0.13
	C693.12,645.65,692.21,644.35,692.21,643.04z"/>
<path class="st77" d="M691.42,631.43v-4.31c0,1.43,0.91,2.87,2.74,4.04c3.78,2.35,10.17,2.35,14.22,0.13
	c2.09-1.17,3.13-2.74,3.13-4.17v4.31c0,1.57-1.04,3-3.13,4.17c-4.04,2.22-10.31,2.22-14.22-0.13
	C692.34,634.3,691.42,632.87,691.42,631.43z"/>
<path class="st20" d="M708.64,622.95c3.78,2.35,3.65,6-0.26,8.22c-4.04,2.22-10.3,2.22-14.22-0.13c-3.78-2.35-3.65-6,0.26-8.22
	C698.47,620.6,704.73,620.73,708.64,622.95z"/>
<rect x="357.85" y="608.59" class="st37" width="205" height="191"/>
</svg>
