<svg id="圖層_1" data-name="圖層 1" xmlns="http://www.w3.org/2000/svg" xmlns:xlink="http://www.w3.org/1999/xlink" viewBox="0 0 1173.98 735.64"><defs><style>.cls-1,.cls-19{fill:#fff;}.cls-1,.cls-2{fill-rule:evenodd;}.cls-2{fill:url(#未命名漸層);}.cls-3{mask:url(#mask);}.cls-4{fill:url(#未命名漸層_2);}.cls-5{fill:url(#未命名漸層_3);}.cls-6{fill:#608b96;}.cls-7{fill:#919191;}.cls-8{fill:#bfbfbf;}.cls-9{fill:#bc8430;}.cls-10{fill:url(#未命名漸層_4);}.cls-11{fill:#8e6424;}.cls-12{fill:#8f6424;}.cls-13{fill:url(#未命名漸層_5);}.cls-14{fill:#d9d9d9;}.cls-15{fill:#e5e5e5;}.cls-16{fill:#fdfdfd;}.cls-17{fill:#efefee;}.cls-18{fill:#84b4c2;}.cls-20{fill:#ededed;}.cls-21{fill:#9f9f9f;}.cls-22{fill:url(#未命名漸層_6);}.cls-23{fill:url(#未命名漸層_7);}.cls-24{fill:url(#未命名漸層_8);}.cls-25{fill:url(#未命名漸層_9);}.cls-26{fill:url(#未命名漸層_10);}.cls-27{fill:url(#未命名漸層_11);}.cls-28{fill:url(#未命名漸層_12);}.cls-29{fill:url(#未命名漸層_13);}.cls-30{fill:url(#未命名漸層_14);}.cls-31{fill:#e54332;}.cls-32{fill:url(#未命名漸層_15);}.cls-33{fill:url(#未命名漸層_16);}.cls-34{fill:#f7bd00;}.cls-35{fill:url(#未命名漸層_17);}.cls-36{fill:none;}.cls-37{fill:url(#未命名漸層_19);}.cls-38{fill:url(#未命名漸層_20);}.cls-39{fill:#424452;}.cls-40{fill:#698f97;}.cls-41{fill:url(#未命名漸層_21);}.cls-42{fill:#9e3e38;}.cls-43{fill:url(#未命名漸層_22);}.cls-44{fill:#903933;}.cls-45{fill:#9b9b9b;}.cls-46{fill:#868686;}.cls-47{fill:url(#未命名漸層_23);}.cls-48{fill:url(#未命名漸層_24);}.cls-49{fill:url(#未命名漸層_25);}.cls-50{fill:url(#未命名漸層_26);}.cls-51{fill:#913933;}.cls-52{fill:url(#未命名漸層_27);}.cls-53{fill:#aaa;}.cls-54{fill:url(#未命名漸層_28);}.cls-55{fill:url(#未命名漸層_29);}.cls-56{fill:url(#未命名漸層_30);}.cls-57{fill:url(#未命名漸層_31);}.cls-58{fill:url(#未命名漸層_32);}.cls-59{fill:url(#未命名漸層_33);}.cls-60{fill:url(#未命名漸層_34);}.cls-61{fill:url(#未命名漸層_35);}.cls-62{fill:url(#未命名漸層_36);}.cls-63{fill:gray;opacity:0.41;isolation:isolate;}.cls-64{fill:#acb8cc;}.cls-65{fill:#f64a3a;}.cls-66{fill:url(#未命名漸層_37);}.cls-67{fill:#ebebeb;}.cls-68{fill:url(#未命名漸層_38);}.cls-69{fill:url(#未命名漸層_39);}.cls-70{fill:url(#未命名漸層_40);}.cls-71{fill:url(#未命名漸層_41);}.cls-72{fill:url(#未命名漸層_42);}.cls-73{fill:url(#未命名漸層_43);}.cls-74{fill:url(#未命名漸層_44);}.cls-75{fill:url(#未命名漸層_45);}.cls-76{fill:#f7f7f7;}</style><linearGradient id="未命名漸層" x1="753.99" y1="425" x2="753.99" y2="27.27" gradientTransform="matrix(1, 0, 0, -1, 0, 738)" gradientUnits="userSpaceOnUse"><stop offset="0" stop-color="#9dc8d3" stop-opacity="0"/><stop offset="1" stop-color="#9dc8d3"/></linearGradient><mask id="mask" x="333.98" y="310.69" width="840" height="402.04" maskUnits="userSpaceOnUse"><g transform="translate(0 0)"><g id="path-1-inside-1_606_32208" data-name="path-1-inside-1 606 32208"><path class="cls-1" d="M513.74,472.83l-13.39,7.66-66.34,38a19.36,19.36,0,0,0-2.34,1.55L338,573.21l46.29,26.72,67-38.09L700,705.35a40,40,0,0,0,40.07,0l257-153.51L1123.73,625,1170,598.22l-155.82-90a33.88,33.88,0,0,0-34,0l-8.84,5.09-.09,0L719.94,663.44,497.83,535.25l45.57-26.19c41.51,14.61,96.41,11.54,132.33-9.19C701.15,485.21,711.24,465.05,706,446l97.09-55.24L757,364,674.3,411c-34.61-19.25-86-22.54-126.4-9.87L395.24,313,349,339.73l153.65,88.7,10.37,6c.64.37,1.3.72,2,1.06l.66.34a14.35,14.35,0,0,0,1.22.81l3.06,1.76a34.16,34.16,0,0,0,37.14-1.94,43.7,43.7,0,0,1,4.15-2.7,61.54,61.54,0,0,1,6.35-3.16,77.51,77.51,0,0,1,22-5.49c16.94-1.81,35.15,1.08,48.27,8.65,21.14,12.21,21.14,32,0,44.21-14.61,8.43-35.43,11.05-53.91,7.85A69.86,69.86,0,0,1,561.16,478c-.82-.49-1.63-1-2.39-1.48s-1.49-1-2.21-1.53a29.84,29.84,0,0,1-3.83-3.25c-4.65-4.51-13.71-5.27-22.4-4.06A40.26,40.26,0,0,0,513.74,472.83Z"/></g></g></mask><linearGradient id="未命名漸層_2" x1="753.98" x2="753.98" y2="27.27" xlink:href="#未命名漸層"/><linearGradient id="未命名漸層_3" x1="858.59" y1="213.09" x2="858.59" y2="181.74" gradientTransform="matrix(1, 0, 0, -1, 0, 738)" gradientUnits="userSpaceOnUse"><stop offset="0" stop-color="#3c6a75"/><stop offset="1" stop-color="#608b96"/></linearGradient><linearGradient id="未命名漸層_4" x1="888.47" y1="221.97" x2="886.2" y2="221.52" gradientTransform="matrix(1, 0, 0, -1, 0, 738)" gradientUnits="userSpaceOnUse"><stop offset="0" stop-color="#f59e5b"/><stop offset="1" stop-color="#f5c25b"/></linearGradient><linearGradient id="未命名漸層_5" x1="874.17" y1="224.36" x2="888.2" y2="224.36" gradientTransform="matrix(1, 0, 0, -1, 0, 738)" gradientUnits="userSpaceOnUse"><stop offset="0" stop-color="#f3e5a5"/><stop offset="1" stop-color="#f4c15b"/></linearGradient><linearGradient id="未命名漸層_6" x1="845.98" y1="175.54" x2="844.73" y2="174.71" xlink:href="#未命名漸層_4"/><linearGradient id="未命名漸層_7" x1="844.5" y1="176.84" x2="847.95" y2="176.84" xlink:href="#未命名漸層_5"/><linearGradient id="未命名漸層_8" x1="845.76" y1="176.01" x2="848.96" y2="176.01" xlink:href="#未命名漸層_5"/><linearGradient id="未命名漸層_9" x1="819.45" y1="191.04" x2="818.36" y2="190.62" xlink:href="#未命名漸層_4"/><linearGradient id="未命名漸層_10" x1="818.51" y1="191.75" x2="821.38" y2="191.75" xlink:href="#未命名漸層_5"/><linearGradient id="未命名漸層_11" x1="842.72" y1="177.07" x2="841.79" y2="176.52" xlink:href="#未命名漸層_4"/><linearGradient id="未命名漸層_12" x1="841.85" y1="178.56" x2="844.73" y2="178.56" xlink:href="#未命名漸層_5"/><linearGradient id="未命名漸層_13" x1="843.35" y1="177.76" x2="846.22" y2="177.76" xlink:href="#未命名漸層_5"/><linearGradient id="未命名漸層_14" x1="844.21" y1="176.26" x2="843.28" y2="175.72" xlink:href="#未命名漸層_4"/><linearGradient id="未命名漸層_15" x1="847.35" y1="178.52" x2="846.59" y2="177.34" xlink:href="#未命名漸層_4"/><linearGradient id="未命名漸層_16" x1="844.04" y1="180.14" x2="843.72" y2="179.38" xlink:href="#未命名漸層_4"/><linearGradient id="未命名漸層_17" x1="845.55" y1="179.31" x2="845.08" y2="178.48" xlink:href="#未命名漸層_4"/><linearGradient id="未命名漸層_19" x1="43.81" y1="625.67" x2="423.84" y2="366.98" gradientTransform="matrix(1, 0, 0, -1, 0, 738)" gradientUnits="userSpaceOnUse"><stop offset="0.11" stop-color="#f5c25b"/><stop offset="0.31" stop-color="#f59e5b"/></linearGradient><linearGradient id="未命名漸層_20" x1="482.6" y1="479.9" x2="35.55" y2="479.9" xlink:href="#未命名漸層_5"/><linearGradient id="未命名漸層_21" x1="828.91" y1="32.91" x2="828.91" y2="29.28" gradientTransform="matrix(1, 0, 0, -1, 0, 738)" gradientUnits="userSpaceOnUse"><stop offset="0" stop-color="#fa7188"/><stop offset="1" stop-color="#ff8ea2"/></linearGradient><linearGradient id="未命名漸層_22" x1="830.33" y1="32.16" x2="830.33" y2="28.41" xlink:href="#未命名漸層_21"/><linearGradient id="未命名漸層_23" x1="823.83" y1="31.11" x2="823.83" y2="26.72" xlink:href="#未命名漸層_21"/><linearGradient id="未命名漸層_24" x1="826.52" y1="29.46" x2="826.52" y2="25.21" xlink:href="#未命名漸層_21"/><linearGradient id="未命名漸層_25" x1="821.28" y1="28.87" x2="821.28" y2="24.99" xlink:href="#未命名漸層_21"/><linearGradient id="未命名漸層_26" x1="823.23" y1="27.82" x2="823.23" y2="23.94" xlink:href="#未命名漸層_21"/><linearGradient id="未命名漸層_27" x1="818.44" y1="27.22" x2="818.44" y2="23.34" xlink:href="#未命名漸層_21"/><linearGradient id="未命名漸層_28" x1="820.39" y1="26.17" x2="820.39" y2="22.29" xlink:href="#未命名漸層_21"/><linearGradient id="未命名漸層_29" x1="815.6" y1="25.57" x2="815.6" y2="21.69" xlink:href="#未命名漸層_21"/><linearGradient id="未命名漸層_30" x1="817.47" y1="24.52" x2="817.47" y2="20.64" xlink:href="#未命名漸層_21"/><linearGradient id="未命名漸層_31" x1="812.31" y1="24.37" x2="812.31" y2="20.11" xlink:href="#未命名漸層_21"/><linearGradient id="未命名漸層_32" x1="815" y1="22.87" x2="815" y2="18.49" xlink:href="#未命名漸層_21"/><linearGradient id="未命名漸層_33" x1="809.91" y1="22.28" x2="809.91" y2="18.4" xlink:href="#未命名漸層_21"/><linearGradient id="未命名漸層_34" x1="811.71" y1="21.23" x2="811.71" y2="17.35" xlink:href="#未命名漸層_21"/><linearGradient id="未命名漸層_35" x1="809.62" y1="20.93" x2="809.62" y2="17.17" xlink:href="#未命名漸層_21"/><linearGradient id="未命名漸層_36" x1="820.61" y1="33.48" x2="820.61" y2="22.41" gradientTransform="matrix(1, 0, 0, -1, 0, 738)" gradientUnits="userSpaceOnUse"><stop offset="0" stop-color="#ff8ea2"/><stop offset="1" stop-color="#ffa6ad"/></linearGradient><linearGradient id="未命名漸層_37" x1="781.49" y1="34.83" x2="781.49" y2="16.67" xlink:href="#未命名漸層_36"/><linearGradient id="未命名漸層_38" x1="614.33" y1="307.79" x2="614.33" y2="287.8" gradientTransform="matrix(1, 0, 0, -1, 0, 738)" gradientUnits="userSpaceOnUse"><stop offset="0" stop-color="#84b4c2"/><stop offset="1" stop-color="#9dc8d3"/></linearGradient><linearGradient id="未命名漸層_39" x1="614.2" y1="327.59" x2="614.2" y2="320.93" xlink:href="#未命名漸層_38"/><linearGradient id="未命名漸層_40" x1="614.33" y1="313.08" x2="614.33" y2="322.52" xlink:href="#未命名漸層_38"/><linearGradient id="未命名漸層_41" x1="614.33" y1="327.89" x2="614.33" y2="319.23" xlink:href="#未命名漸層_38"/><linearGradient id="未命名漸層_42" x1="584.07" y1="325.32" x2="584.07" y2="320.65" xlink:href="#未命名漸層_38"/><linearGradient id="未命名漸層_43" x1="584.07" y1="325.47" x2="584.07" y2="319.52" xlink:href="#未命名漸層_38"/><linearGradient id="未命名漸層_44" x1="583.95" y1="312.73" x2="583.95" y2="321.74" xlink:href="#未命名漸層_38"/><linearGradient id="未命名漸層_45" x1="570.83" y1="288.46" x2="596.39" y2="288.46" xlink:href="#未命名漸層_5"/></defs><path class="cls-2" d="M513.74,472.83l-13.39,7.66-66.34,38a19.36,19.36,0,0,0-2.34,1.55L338,573.21l46.29,26.72,67-38.09L700,705.35a40,40,0,0,0,40.07,0l257-153.51L1123.73,625,1170,598.22l-155.82-90a33.88,33.88,0,0,0-34,0l-8.84,5.09-.09,0L719.94,663.44,497.83,535.25l45.57-26.19c41.51,14.61,96.41,11.54,132.33-9.19C701.15,485.21,711.24,465.05,706,446l97.09-55.24L757,364,674.3,411c-34.61-19.25-86-22.54-126.4-9.87L395.24,313,349,339.73l153.65,88.7,10.37,6c.64.37,1.3.72,2,1.06l.66.34a14.35,14.35,0,0,0,1.22.81l3.06,1.76a34.16,34.16,0,0,0,37.14-1.94,43.7,43.7,0,0,1,4.15-2.7,61.54,61.54,0,0,1,6.35-3.16,77.51,77.51,0,0,1,22-5.49c16.94-1.81,35.15,1.08,48.27,8.65,21.14,12.21,21.14,32,0,44.21-14.61,8.43-35.43,11.05-53.91,7.85A69.86,69.86,0,0,1,561.16,478c-.82-.49-1.63-1-2.39-1.48s-1.49-1-2.21-1.53a29.84,29.84,0,0,1-3.83-3.25c-4.65-4.51-13.71-5.27-22.4-4.06A40.26,40.26,0,0,0,513.74,472.83Z" transform="translate(0 0)"/><g class="cls-3"><path class="cls-4" d="M500.35,480.49l1,1.73h0Zm13.39-7.66,1,1.73h0ZM434,518.44l1,1.73h0ZM431.67,520l1.22,1.58-.11.09-.12.07ZM338,573.21l-1,1.73-3-1.75,3-1.72Zm46.29,26.72,1,1.74-1,.57-1-.58Zm67-38.09-1-1.74,1-.57,1,.57ZM700,705.35l1-1.73h0Zm40.07,0,1,1.72h0Zm257-153.51-1-1.72,1-.6,1,.59ZM1123.73,625l1,1.73-1,.58-1-.58ZM1170,598.22l1-1.74,3,1.74-3,1.73Zm-155.82-90,1-1.73h0Zm-34,0,1,1.73h0Zm-8.84,5.09,1,1.73-.93.54-1-.48Zm-.09,0-1-1.72.94-.56,1,.49ZM719.94,663.44l1,1.71-1,.61-1-.59ZM497.83,535.25l-1,1.73-3-1.73,3-1.73Zm45.57-26.19-1-1.73.8-.46.86.31Zm132.33-9.19-1-1.73h0ZM706,446l-1.93.53-.41-1.5,1.35-.77Zm97.09-55.24,1-1.73,3,1.75-3,1.72ZM757,364l-1-1.74,1-.57,1,.58ZM674.3,411l1,1.74-1,.55-1-.54Zm-126.4-9.87.6,1.9-.84.27-.76-.44ZM395.24,313l-1-1.73,1-.58,1,.58ZM349,339.73l-1,1.73-3-1.73,3-1.73Zm153.65,88.7,1-1.73h0Zm10.37,6,1-1.73h0Zm2,1.06.92-1.78h0Zm.66.34.93-1.77.14.08.13.09Zm1.22.81-1,1.74h0Zm3.06,1.76,1-1.73h0Zm37.14-1.94,1.2,1.6h0Zm4.15-2.7,1,1.73h0Zm6.35-3.16.79,1.84h0Zm22-5.49-.22-2h0Zm48.27,8.65,1-1.73h0Zm0,44.21,1,1.74h0Zm-53.91,7.85-.34,2h0ZM561.16,478l-1,1.74,0,0h0Zm-4.6-3,1.16-1.63h0l0,0Zm-3.83-3.25,1.39-1.44h0v0Zm-22.4-4.06.27,2h-.1Zm-31,11.11,13.38-7.66,2,3.47-13.38,7.66ZM433,516.7l66.35-38,2,3.48L435,520.17Zm-2.56,1.71A22.05,22.05,0,0,1,433,516.7l2,3.48a17.36,17.36,0,0,0-2.1,1.39Zm2.21,3.32L339,574.94l-2-3.47,93.67-53.22ZM339,571.47l46.29,26.73-2,3.46L337,574.94Zm44.3,26.73,67-38.1,2,3.48-67,38.09ZM699,707.09,450.25,563.57l2-3.47L701,703.62Zm42.07,0a42,42,0,0,1-42.07,0l2-3.47a38,38,0,0,0,38.06,0ZM998.11,553.55l-257,153.52L739,703.64l257-153.52Zm124.62,73.13L996.08,553.57l2-3.46,126.65,73.1ZM1171,600l-46.25,26.73-2-3.47L1169,596.49Zm-155.82-93.47,155.82,90-2,3.47-155.82-90Zm-36,0a35.89,35.89,0,0,1,36,0l-2,3.46a31.9,31.9,0,0,0-32,0Zm-8.84,5.09,8.84-5.09,2,3.46L972.34,515Zm1.81-.1.09,0-1.79,3.58-.09-.05ZM718.92,661.72,970.23,511.54l2,3.43L721,665.15ZM498.83,533.52,720.94,661.71l-2,3.46L496.83,537Zm45.56-22.72L498.83,537l-2-3.46,45.57-26.19Zm132.34-9.2c-36.5,21.06-92,24.12-134,9.35l1.33-3.77c41,14.43,95.32,11.36,130.67-9Zm31.19-56.12c5.58,20.25-5.32,41.21-31.19,56.12l-2-3.46c25-14.4,34.24-33.77,29.33-51.6ZM705,444.27,802.09,389l2,3.47L707,447.75Zm97.07-51.77L756,365.73l2-3.46L804.08,389ZM758,365.74l-82.71,47-2-3.48,82.72-47ZM547.3,399.21c40.82-12.81,92.81-9.53,128,10l-1.94,3.5c-34.07-18.95-84.91-22.25-124.83-9.72ZM396.24,311.27,548.9,399.38l-2,3.47L394.24,314.73ZM348,338l46.24-26.73,2,3.46L350,341.46Zm153.65,92.16L348,341.46l2-3.46,153.65,88.7Zm10.37,6-10.37-6,2-3.46,10.37,6Zm2,1.09c-.65-.33-1.35-.7-2-1.09l2-3.47c.59.35,1.21.67,1.87,1Zm.65.34-.65-.34,1.84-3.55.67.35Zm1.12.76a15.26,15.26,0,0,1-1.39-.93l2.4-3.2a11.24,11.24,0,0,0,1,.7Zm3.1,1.78-3.07-1.76,2-3.47,3.07,1.76Zm39.31-2.06a36.17,36.17,0,0,1-39.31,2.05l2-3.46a32.19,32.19,0,0,0,35-1.83Zm4-2.59a40.86,40.86,0,0,0-4,2.57l-2.4-3.2A42.85,42.85,0,0,1,560.2,432Zm6.14-3.05a58.48,58.48,0,0,0-6.14,3.05l-2-3.46a60.82,60.82,0,0,1,6.57-3.26Zm21.38-5.35a75.61,75.61,0,0,0-21.38,5.35l-1.57-3.67a79.2,79.2,0,0,1,22.52-5.65Zm47.06,8.4c-12.67-7.31-30.43-10.17-47.06-8.4l-.43-4c17.26-1.84,35.92,1.07,49.49,8.91Zm0,40.75c10.2-5.89,14.85-13.34,14.85-20.37s-4.65-14.48-14.85-20.38l2-3.46c10.93,6.31,16.85,14.87,16.85,23.84s-5.92,17.52-16.85,23.84Zm-52.57,7.61c18.13,3.14,38.46.54,52.57-7.61l2,3.47c-15.1,8.71-36.42,11.34-55.25,8.08Zm-22.06-7.61a67.8,67.8,0,0,0,22.06,7.61l-.68,3.94a72,72,0,0,1-23.37-8.08Zm-2.3-1.43c.74.48,1.53,1,2.35,1.46l-2.09,3.41c-.81-.49-1.64-1-2.43-1.51Zm-2.09-1.45c.67.5,1.36,1,2.09,1.45l-2.17,3.36c-.8-.52-1.56-1-2.32-1.61Zm-3.62-3.06a29.68,29.68,0,0,0,3.58,3l-2.33,3.25a32.83,32.83,0,0,1-4.08-3.46Zm-24.09-4.63a47.12,47.12,0,0,1,13.3-.11c4.15.63,8,2.06,10.77,4.71l-2.79,2.87c-1.9-1.85-4.87-3.06-8.59-3.63a43.09,43.09,0,0,0-12.14.12Zm-17.31,5.43a42.41,42.41,0,0,1,17.41-5.44l.35,4a38.23,38.23,0,0,0-15.77,4.92Z" transform="translate(0 0)"/></g><path class="cls-5" d="M900.51,527,856.8,552.4a8,8,0,0,1-7.24,0l-32.89-19a2.52,2.52,0,0,1-1.5-2.18v3a2.67,2.67,0,0,0,1.5,2.18l32.89,19a8,8,0,0,0,7.24,0L900.51,530A2.52,2.52,0,0,0,902,527.9v-3A2.61,2.61,0,0,1,900.51,527Z" transform="translate(0 0)"/><path class="cls-6" d="M900.39,522.84c2.07,1.15,2.07,3.11,0,4.26l-43.7,25.42a8,8,0,0,1-7.25,0l-32.89-19c-2.07-1.15-2.07-3.11,0-4.26l43.7-25.42a8,8,0,0,1,7.25,0Z" transform="translate(0 0)"/><path class="cls-7" d="M875.66,510.42v2.87l-1.15.58V511Z" transform="translate(0 0)"/><path class="cls-8" d="M874.51,511v2.88c-.23.11-.34.23-.34.46v-2.88C874.17,511.34,874.28,511.22,874.51,511Z" transform="translate(0 0)"/><path class="cls-9" d="M885.55,511.8v2.87c0-.22-.11-.34-.34-.57a1.79,1.79,0,0,0-1.84,0,.65.65,0,0,0-.35.57V511.8c0-.23.12-.35.35-.57a1.74,1.74,0,0,1,1.84,0A.62.62,0,0,1,885.55,511.8Z" transform="translate(0 0)"/><path class="cls-9" d="M874.51,511.91v2.88c-.23-.12-.34-.23-.34-.46v-2.88C874.17,511.68,874.28,511.8,874.51,511.91Z" transform="translate(0 0)"/><path class="cls-10" d="M888,515.94a.44.44,0,0,0,.11-.35v-2.87a1.17,1.17,0,0,1-.57.92c-.46.23-.92.58-1.15.69v2.88c.11-.12.23-.12.46-.23v2.76l1.15-.69c.23-.12.34-.23.34-.46v-2.88A.93.93,0,0,0,888,515.94Z" transform="translate(0 0)"/><path class="cls-11" d="M886.71,516.74v2.88l-1.16.69v-2.88Z" transform="translate(0 0)"/><path class="cls-12" d="M884.06,517.44l-.12,2.87-9.43-5.52v-2.87Z" transform="translate(0 0)"/><path class="cls-9" d="M885.55,517.44v2.87a1.69,1.69,0,0,1-1.49,0v-2.87A1.69,1.69,0,0,0,885.55,517.44Z" transform="translate(0 0)"/><path class="cls-13" d="M887.85,515.25a.48.48,0,0,1,0,.92l-1.15.69-1.15.69a1.69,1.69,0,0,1-1.49,0L874.51,512a.48.48,0,0,1,0-.92l1.15-.69,1.15-.69a1.71,1.71,0,0,1,1.5,0l1.61.92c.23-.12.69-.46,1.15-.69a3.56,3.56,0,0,1,3.22.11l3,1.73c.92.58,1,1.38.11,2-.46.22-.92.57-1.15.69Zm-4.48-3a1.78,1.78,0,0,0,1.84,0c.46-.34.46-.81,0-1a1.79,1.79,0,0,0-1.84,0C882.79,511.57,882.79,512,883.37,512.26Z" transform="translate(0 0)"/><path class="cls-14" d="M855,510.19c1.73,3.79,5.41,6.79,9,8.74a38.17,38.17,0,0,0,16.68,4.26c3.1,0,6.32-.35,9.43-.58a19.41,19.41,0,0,0,4.49-1l3.68,1.72v1.38L862.55,545.5l-9.66,5.41V511.45Z" transform="translate(0 0)"/><path class="cls-15" d="M818.85,530l33.81-18.63v39.57l-33.81-19.67Z" transform="translate(0 0)"/><path class="cls-16" d="M818.85,530l33.81,19.56,45.43-26.23-11.39-6.56-1.15.69a1.69,1.69,0,0,1-1.49,0l-9.55-5.52a.48.48,0,0,1,0-.92l1.15-.69-11.5-6.67Z" transform="translate(0 0)"/><path class="cls-17" d="M862.21,507.31l14.49,8.4-14.38,8.4-14.49-8.4Zm-.35,14.84a2.69,2.69,0,0,0,.58-.34,4,4,0,0,0,1.49-2.19,1.87,1.87,0,0,0,0-1.15,2.31,2.31,0,0,0-.46-.69l-.11-.12a1.79,1.79,0,0,1-.58-1.14l.58-.35a5.4,5.4,0,0,0,3.79-.69,11.43,11.43,0,0,0,1.15-.46c1.61-.92,2-2.07.23-3a5.18,5.18,0,0,0-5.17.11,4.44,4.44,0,0,0-.81.7c-1.15.69-1.49,1.49-1.15,2.18l-.69.34h-1a5.56,5.56,0,0,1-.58-.11c-.11,0-.23-.11-.34-.11a5.9,5.9,0,0,0-1.5-.35,6,6,0,0,0-2.07,0,9.32,9.32,0,0,0-3.68.92l-.69.34,2,1.16h.11l3.11,1.84.34.23h.12l.57.34,2.76,1.61h.12Z" transform="translate(0 0)"/><path class="cls-17" d="M862.44,541.36l-4,2.3L833.8,529.4l4-2.3Z" transform="translate(0 0)"/><path class="cls-17" d="M868.53,537.79l-4,2.3L839.9,526l4-2.3Z" transform="translate(0 0)"/><path class="cls-17" d="M881.41,530.55l-4,2.3-13.92-8.05,4-2.3Z" transform="translate(0 0)"/><path class="cls-18" d="M841.74,523c.11.11.23.11.23.23s-.23.46-.69.46l-3.45.23a1.4,1.4,0,0,1-.69-.12c-.12-.11-.23-.11-.23-.23l-.23-.8c-.12-.23.23-.46.69-.46a1.52,1.52,0,0,1,.69.11c.11.12.23.12.23.23l.11.35,2.76-.23A1.79,1.79,0,0,1,841.74,523Z" transform="translate(0 0)"/><path class="cls-18" d="M847.72,519.39c.11.12.23.12.23.23s-.23.46-.69.46l-3.45.23a1.52,1.52,0,0,1-.69-.11c-.12-.12-.23-.12-.23-.23l-.23-.81c-.12-.23.23-.46.69-.46a1.4,1.4,0,0,1,.69.12c.11.11.23.11.23.22l.11.35,2.76-.23C847.37,519.28,847.6,519.28,847.72,519.39Z" transform="translate(0 0)"/><path class="cls-17" d="M874.51,534.34l-4,2.3-24.61-14.26,4-2.3Z" transform="translate(0 0)"/><path class="cls-17" d="M886.59,527.44l-4,2.42-13.92-8.05,4-2.3Z" transform="translate(0 0)"/><path class="cls-17" d="M891.77,524.45l-4,2.3-13.92-7.93,4-2.42Z" transform="translate(0 0)"/><path class="cls-19" d="M868.53,511.91c1.73,1,1.38,2.07-.23,3a3.29,3.29,0,0,1-1.15.45,5.84,5.84,0,0,1-3.91.69l-.57.35a1.85,1.85,0,0,0,.57,1.15.11.11,0,0,1,.12.11,2.71,2.71,0,0,1,.46.7,2.45,2.45,0,0,1,0,1.26,4.38,4.38,0,0,1-1.5,2.19c-.23.11-.34.23-.57.34l-2-1.15h-.11l-2.76-1.61-.58-.34h-.11l-.35-.23-3.1-1.85h-.12l-1.95-1.14.69-.35a12.12,12.12,0,0,1,3.68-.92,6.52,6.52,0,0,1,2.07,0c.57.11,1,.23,1.49.35.12,0,.23.11.35.11s.34.12.57.12h1l.69-.35c-.35-.69.11-1.5,1.15-2.19a5.17,5.17,0,0,1,.8-.69A5.74,5.74,0,0,1,868.53,511.91Z" transform="translate(0 0)"/><path class="cls-18" d="M835.64,526.41c.12.11.23.11.23.23s-.23.46-.69.46l-3.45.23a1.4,1.4,0,0,1-.69-.12c-.11-.11-.23-.11-.23-.23l-.23-.8c-.11-.23.23-.46.69-.46a1.52,1.52,0,0,1,.69.11c.12.12.23.12.23.23l.12.35,2.76-.23C835.3,526.29,835.53,526.29,835.64,526.41Z" transform="translate(0 0)"/><path class="cls-20" d="M820.58,545.16l24,13.91a3.4,3.4,0,0,1-1.38,2.3.94.94,0,0,1-.92.12c-6.78-3.91-15.75-9.2-22.54-13.11a.94.94,0,0,0,.92-.12l-1.38-.8A3.33,3.33,0,0,1,820.58,545.16Z" transform="translate(0 0)"/><path class="cls-21" d="M819.77,548.38l22.54,13.11a1,1,0,0,1-.46-.92l-22.54-13.11C819.31,547.92,819.43,548.26,819.77,548.38Z" transform="translate(0 0)"/><path class="cls-21" d="M820.69,545a.94.94,0,0,1,.92-.12L844.15,558a1,1,0,0,1,.46.92v.11l-24-13.91Z" transform="translate(0 0)"/><path class="cls-20" d="M842.54,561.49a1,1,0,0,1-.23-.69,3.28,3.28,0,0,1,1.38-2.42,1.31,1.31,0,0,1,.58-.11c-.12-.12-.12-.23-.23-.23l.57.34.81.46.57.35.46.23h-.11l.11.11h.12s-.12,0-.12-.11l.23.11h0c.12.12.12.23.23.35a.66.66,0,0,1,.12.46v.11a1.4,1.4,0,0,1-.12.69c0,.12-.11.12-.11.23s-.12.35-.23.46-.12.12-.12.23-.11.23-.23.35l-.23.23c-.11.11-.23.11-.23.23h-.11c-.23.11-.35.11-.58.23H845c-.12,0-.23,0-.23-.12l-.69-.46a2.69,2.69,0,0,1-.58-.34c.12,0,.23,0,.23.11s-.23,0-.23-.11c-.23-.12-.57-.35-.8-.46a2.67,2.67,0,0,1-.58-.35A.85.85,0,0,0,842.54,561.49Z" transform="translate(0 0)"/><path class="cls-21" d="M842.43,560.8l3.56,2.07c-.23.11-.34.11-.57.23h-.12c-.11,0-.23,0-.23-.12l-.69-.46a2.37,2.37,0,0,1-.57-.34c.11,0,.23,0,.23.11s-.23,0-.23-.11c-.23-.12-.58-.35-.81-.46a2.36,2.36,0,0,1-.57-.35.4.4,0,0,0,.34.12C842.43,561.37,842.43,561.14,842.43,560.8Z" transform="translate(0 0)"/><path class="cls-22" d="M845,563l1.15.69c-.23-.11-.35-.46-.35-.92l-1.15-.69C844.61,562.52,844.73,562.87,845,563Z" transform="translate(0 0)"/><path class="cls-23" d="M848,560.34l-1.15-.69a.91.91,0,0,0-.92.11,3.27,3.27,0,0,0-1.38,2.3l1.15.69a2.92,2.92,0,0,1,1.38-2.3A.91.91,0,0,1,848,560.34Z" transform="translate(0 0)"/><path class="cls-24" d="M846.11,563.56a1.77,1.77,0,0,0,2.18-.23,1.93,1.93,0,0,0,.58-2.07,2.07,2.07,0,0,0-.81-1,.94.94,0,0,0-.92.12,3.08,3.08,0,0,0-1.38,1.95v.58C845.76,563.33,845.88,563.44,846.11,563.56Z" transform="translate(0 0)"/><path class="cls-21" d="M817.47,544.81l1,1.73c0-.12-.12-.23-.12-.35Z" transform="translate(0 0)"/><path class="cls-21" d="M819.54,544.81h-1.95l.92,1.38a1.73,1.73,0,0,1,.69-1.26C819.31,544.93,819.43,544.81,819.54,544.81Z" transform="translate(0 0)"/><path class="cls-25" d="M818.51,546.53c.34.58.57,1,.92,1.62-.12-.12-.12-.35-.12-.69l-.92-1.27C818.39,546.3,818.51,546.42,818.51,546.53Z" transform="translate(0 0)"/><path class="cls-26" d="M821.38,544.93h-1.84a.42.42,0,0,0-.34.11,1.75,1.75,0,0,0-.69,1.27l.92,1.26a3.26,3.26,0,0,1,1.38-2.41C820.92,544.93,821.15,544.93,821.38,544.93Z" transform="translate(0 0)"/><path class="cls-27" d="M842.2,561.49l.57.34a1,1,0,0,1-.46-.92l-.57-.34A2.28,2.28,0,0,0,842.2,561.49Z" transform="translate(0 0)"/><path class="cls-28" d="M844.73,558.38l-.58-.34a.91.91,0,0,0-.92.11,3,3,0,0,0-1.38,2.42l.58.34a3.26,3.26,0,0,1,1.38-2.41A.94.94,0,0,1,844.73,558.38Z" transform="translate(0 0)"/><path class="cls-29" d="M846.22,559.19l-.57-.35a.94.94,0,0,0-.92.12,2.93,2.93,0,0,0-1.38,2.41l.57.35a3.28,3.28,0,0,1,1.38-2.42A.91.91,0,0,1,846.22,559.19Z" transform="translate(0 0)"/><path class="cls-30" d="M843.69,562.29l.58.35a1,1,0,0,1-.46-.92l-.58-.35A.94.94,0,0,0,843.69,562.29Z" transform="translate(0 0)"/><path class="cls-31" d="M843.81,561.6Z" transform="translate(0 0)"/><path class="cls-21" d="M843.23,561.37c0,.46.12.81.46.92l-.8-.46a1,1,0,0,1-.46-.92Z" transform="translate(0 0)"/><path class="cls-21" d="M846,559.76h0l-.8-.34.11-.12a.91.91,0,0,1,.92-.11l.46.23h-.11l.11.11h.12s-.12,0-.12-.11l.23.11h0l.12.12-.23-.12A1.43,1.43,0,0,0,846,559.76Z" transform="translate(0 0)"/><path class="cls-21" d="M844.61,559l-.11.11-.81-.46.12-.11c.11-.12.23-.12.46-.12h.23a.4.4,0,0,1,.34.12l.81.46C845.42,558.73,845.07,558.73,844.61,559Z" transform="translate(0 0)"/><path class="cls-32" d="M846,559.76a.91.91,0,0,1,.92-.11l.23.11.92.58a.71.71,0,0,0-.69,0c-.11,0-.11,0-.23.11l-.11.12-1-.81Z" transform="translate(0 0)"/><path class="cls-33" d="M843.23,558.15a.91.91,0,0,1,.92-.11l.58.34a.45.45,0,0,0-.35-.11h-.23a.91.91,0,0,0-.46.11l-.11.12-.58-.35Z" transform="translate(0 0)"/><path class="cls-34" d="M843.81,558.5a.66.66,0,0,1,.46-.12C844,558.38,843.92,558.38,843.81,558.5Z" transform="translate(0 0)"/><path class="cls-34" d="M846.22,559.19l-.57-.35Z" transform="translate(0 0)"/><path class="cls-35" d="M845.19,559.3l-.12.12-.57-.35.11-.11a.94.94,0,0,1,.92-.12l.58.35C846,559.07,845.65,559.07,845.19,559.3Z" transform="translate(0 0)"/><rect class="cls-36" x="720" y="220" width="179" height="179"/><path class="cls-37" d="M70,185.92,377,8.18C394.27-1.51,410.43-2.59,422.27,5l38.79,21.54-14,128.19c0,50.63-31.24,111-70,132.5L57.09,486.47,25.85,469.24H24.78l-1.08-1.08c-14-8.62-23.7-28-23.7-56V318.42C0,267.79,31.24,207.47,70,185.92Z" transform="translate(0 0)"/><path class="cls-38" d="M412.58,308.73l-307,177.74c-38.78,22.62-70-1.08-70-52.78V340c0-50.63,31.24-111,70-132.5l307-177.75c38.78-22.62,70,1.08,70,52.79v93.72C482.6,226.86,451.36,287.18,412.58,308.73Z" transform="translate(0 0)"/><path class="cls-39" d="M137.83,328.42l-26.1,14.17a3.32,3.32,0,0,1-5.41-3.07l-1.22-29.47a9.2,9.2,0,0,1,1.29-5,9.53,9.53,0,0,1,3.64-3.68l26.61-14.45a2.18,2.18,0,0,1,2.19-.19,2,2,0,0,1,1,1.93,6.15,6.15,0,0,1-2.95,5.21l-13.61,7.39c-.4.22-.48.46-.24.73a1.5,1.5,0,0,1,.4,1q.19.5.54.3l8.61-4.67a1.76,1.76,0,0,1,2.89,1.63,5.47,5.47,0,0,1-.68,2.68,4.94,4.94,0,0,1-2,1.95l-4,2.2a.88.88,0,0,0-.49.87l.07,1.66c0,.4.2.5.54.31l6.72-3.65a2,2,0,0,1,2-.19,2,2,0,0,1,.86,1.83,5.2,5.2,0,0,1-.68,2.67,4.94,4.94,0,0,1-1.94,2l-2.59,1.4a.82.82,0,0,0-.42.53c-.05.16,0,.26.19.3a8.06,8.06,0,0,1,1.53.67c.48.28.93.56,1.36.87a1.71,1.71,0,0,1,.85,1.53,4.78,4.78,0,0,1-1.1,3.11,4.84,4.84,0,0,1-1.78,1.67,2.11,2.11,0,0,1-2.29,0,13.41,13.41,0,0,0-2.42-1.09c-.84-.35-1.65-.64-2.42-.89-.29,0-.55.13-.77.52a47.66,47.66,0,0,1-7.6,10,.78.78,0,0,0-.33.58c.07.1.21.08.44,0l18.95-10.29q2.24-1.22,2.94.71c.12.2.24.14.34-.19a7.13,7.13,0,0,1,2.4-3.7q1.89-1.32,3.58-2.75t3.4-3.05c.45-.44.47-.72.06-.83a16.22,16.22,0,0,1-1.87-.48,1.64,1.64,0,0,1-1-.76,3.46,3.46,0,0,1-.32-1.33,5.44,5.44,0,0,1,1-3.35v-.29c.05-.3,0-.38-.27-.25l-2.67,1.45a2.47,2.47,0,0,1-2.28.23,2.43,2.43,0,0,1-1-2.08,5.36,5.36,0,0,1,.76-2.91,5.65,5.65,0,0,1,2.19-2.29l23.78-12.91c-2.25,1.21-4.11,1.43-5.61.64s-2.3-2.35-2.4-4.7l-.09-2.06c0-.39-.19-.49-.54-.31l-6.54,3.56a1,1,0,0,0-.59.72,39.07,39.07,0,0,1-10.24,16.37,4.23,4.23,0,0,1-1.11.9,2.6,2.6,0,0,1-2.28.24,2.4,2.4,0,0,1-1.15-2.28,7.27,7.27,0,0,1,2.24-5.42,26.76,26.76,0,0,0,5.48-8q2.65-6.24,6.18-8.16l10.68-5.79a3.08,3.08,0,0,1,5,2.81l.15,3.52c0,.2.13.33.37.41a1.27,1.27,0,0,0,.78-.13l4.05-2.2a2.34,2.34,0,0,1,2.37-.18,2.1,2.1,0,0,1,1.05,2,6.36,6.36,0,0,1-3.12,5.49l-4.3,2.34a2.74,2.74,0,0,1,2.72-.27,2.4,2.4,0,0,1,1.14,2.18,5.7,5.7,0,0,1-.35,2,42.91,42.91,0,0,1-2.83,6.24,61.61,61.61,0,0,1-3.71,6.12c-.39.55-.34.79.12.74,1.34-.26,2.68-.55,4-.88a27.34,27.34,0,0,0,4.08-1.41,2.07,2.07,0,0,1,2.29.05,2.38,2.38,0,0,1,1.06,2.13,5.89,5.89,0,0,1-.84,3.16,5.5,5.5,0,0,1-2.38,2.19,41.17,41.17,0,0,1-8.17,2.54,60.48,60.48,0,0,1-7.27.94,1.8,1.8,0,0,0-.69.37q-3.54,3.82-7.1,7.07-3.48,3.09-6.48,5.31a3.05,3.05,0,0,1-2.17.68,1.91,1.91,0,0,1-1.45-1.11c-.13-.2-.22-.18-.27,0A5.52,5.52,0,0,1,137.83,328.42Zm-19.06-24.19q.42-.72-.36-.3l-6.2,3.36a.87.87,0,0,0-.49.87l.5,12.24c0,.52.14.49.35-.09a7.3,7.3,0,0,1,1.41-2.16l.25-.24c0-.07-.09-.09-.26-.06a1.26,1.26,0,0,1-1-.86,2.37,2.37,0,0,0-.19-.39l0-.59a5.14,5.14,0,0,1,1.18-3.34,38.46,38.46,0,0,0,4.44-7.62A5.59,5.59,0,0,1,118.77,304.23Zm-3,12.84,6-3.28a.85.85,0,0,0,.49-.87l-.06-1.66c0-.39-.2-.49-.55-.31l-2.06,1.13a1.48,1.48,0,0,0-.59.62,25.62,25.62,0,0,1-2.83,3.94A3.09,3.09,0,0,1,115.78,317.07Zm3,5.45c.22-.25.3-.43.24-.53s-.21-.19-.44-.06l-3.53,1.92c-1.1.59-1.89.49-2.39-.31-.25-.2-.36-.1-.35.29l.21,4.89c0,.53.22.51.61,0a4.69,4.69,0,0,1,1.26-1.49A34.57,34.57,0,0,0,118.83,322.52Zm34.58-19.78c.65.18,1.36.36,2.13.55s1.6.26,2.49.45a1.83,1.83,0,0,0,.69-.38,30.87,30.87,0,0,0,2.08-2.83c.67-1,1.27-1.86,1.83-2.69.16-.23.22-.39.15-.49s-.21-.18-.44-.06L153.73,302a1.19,1.19,0,0,0-.51.48C153.17,302.61,153.23,302.71,153.41,302.74Zm-40.1,31.19c-.36-.21-.53-.15-.52.18v.19c0,.4.2.5.54.31S113.73,334.17,113.31,333.93Zm-5.6,11.45,66.31-36a2.14,2.14,0,0,1,2.29-.14,2.26,2.26,0,0,1,1.05,2,5.89,5.89,0,0,1-.84,3.16,5.48,5.48,0,0,1-2.2,2.2l-24.54,13.32a.87.87,0,0,0-.49.87l0,.79q0,.58.54.3l17-9.26a3.42,3.42,0,0,1,5.41,3.07l.87,20.86a9.51,9.51,0,0,1-1.38,5.05,9,9,0,0,1-3.54,3.73L117,383.17a3.72,3.72,0,0,1-3.77.25,3.92,3.92,0,0,1-1.64-3.42l-.87-20.85a9.18,9.18,0,0,1,1.3-4.91,9.32,9.32,0,0,1,3.63-3.77l14-7.62a.81.81,0,0,0,.49-.78c.1-.45.18-.76.23-.92V341c0-.32-.19-.39-.54-.2L108,352.62a2,2,0,0,1-3.34-1.89,6.14,6.14,0,0,1,3-5.35Zm29.72-7.33c0,.42.11.54.46.35l4-2.15a.87.87,0,0,0,.49-.87l0-.78c0-.39-.2-.49-.54-.31l-3.7,2a1,1,0,0,0-.58.92Zm-11.71,15c.23-.26.31-.44.25-.54s-.22-.18-.45-.06l-7.06,3.84a.88.88,0,0,0-.49.87l.41,10c0,.4.2.5.54.31l1.47-.79c.46-.25.51-.48.15-.68-.84-.29-1.28-1.05-1.33-2.29a7.79,7.79,0,0,1,2.49-5.85A41.7,41.7,0,0,0,125.72,353ZM165,342.4a.85.85,0,0,0,.49-.86l-.41-10c0-.39-.2-.5-.54-.31l-14.38,7.81a.89.89,0,0,0-.5.87l0,.78a1.47,1.47,0,0,0,.67,1.34,1.92,1.92,0,0,0,1.49-.21l9.3-5.05a2.08,2.08,0,0,1,3.24,1.84,6,6,0,0,1-.75,3,5.58,5.58,0,0,1-2.2,2.19l-9.39,5.1q-4.12,2.24-6.65,1c-1.68-.83-2.57-2.64-2.69-5.45l0-.78c0-.4-.2-.5-.54-.31l-6.2,3.37a1,1,0,0,0-.59.71,42.28,42.28,0,0,1-4.06,8.32,46.09,46.09,0,0,1-5.94,7.53.72.72,0,0,0-.33.57c.06.1.21.09.44,0Zm-45.83,31a.88.88,0,0,0-.49.87v.1c0,.39.2.49.54.31l46.08-25a.87.87,0,0,0,.49-.87v-.1q0-.58-.54-.3Zm105.41-97.78a6.13,6.13,0,0,1-2.36,2.49,2.48,2.48,0,0,1-2.82-.07,2.33,2.33,0,0,1-1-2.08,6.51,6.51,0,0,1,1.08-3.79,57.55,57.55,0,0,0,6.94-17.48,8.36,8.36,0,0,1,4.07-5.82,2.48,2.48,0,0,1,2.46-.23,2.25,2.25,0,0,1,1.05,2,4.42,4.42,0,0,1-.13,1.07l-.37,1.71c0,.49.11.63.46.45l8.35-4.54a1,1,0,0,0,.59-.72l1.31-4.32a9,9,0,0,1,2.39-4.1c.34-.38.38-.64.14-.77a3.43,3.43,0,0,1-.75-1.1c-.12-.26-.3-.33-.53-.21l-5.34,2.9a1.15,1.15,0,0,0-.5.77,6.4,6.4,0,0,1-3.32,4.81q-2.76,1.5-3.57-1.07-.19-.39-.54-.21l-10,5.43a2.41,2.41,0,0,1-2.46.13,2.66,2.66,0,0,1-1.15-2.28,7.08,7.08,0,0,1,3.28-5.78l10-5.43a1.16,1.16,0,0,0,.49-.77,6.42,6.42,0,0,1,3.32-4.81c1.84-1,3-.64,3.57,1.07q.19.41.54.21l5.34-2.9a1.12,1.12,0,0,0,.49-.77,6.39,6.39,0,0,1,3.33-4.81c1.84-1,3-.64,3.56,1.07.13.27.31.33.54.21l9.13-5a2.28,2.28,0,0,1,2.46-.13,2.44,2.44,0,0,1,1.15,2.18,6.66,6.66,0,0,1-.92,3.4,5.79,5.79,0,0,1-2.36,2.48l-9.13,5a1.15,1.15,0,0,0-.5.77,5.68,5.68,0,0,1-.7,2.09,11.53,11.53,0,0,1-1.34,1.72c-.34.32-.36.57-.06.74a2.5,2.5,0,0,1,.69,1.73,4.77,4.77,0,0,1-.13,1.16c-.15.69-.32,1.35-.53,2s0,.7.46.45L263.18,238a2.24,2.24,0,0,1,2.29-.14,2.11,2.11,0,0,1,1.14,2,6.33,6.33,0,0,1-.84,3.16,5.91,5.91,0,0,1-2.28,2.34l-14,7.58a.86.86,0,0,0-.49.86l0,1c0,.39.2.5.54.31l12.15-6.59a2.14,2.14,0,0,1,2.19-.1,2,2,0,0,1,1.05,1.94,5.72,5.72,0,0,1-.84,3.06,5.48,5.48,0,0,1-2.11,2.24l-12.14,6.6a.85.85,0,0,0-.49.86l0,1c0,.4.19.5.54.31l12.14-6.59a2.13,2.13,0,0,1,2.2-.09,2,2,0,0,1,1,1.93,5.72,5.72,0,0,1-.84,3.06,5.83,5.83,0,0,1-2.12,2.15l-12.14,6.59a.88.88,0,0,0-.49.87l0,1q0,.58.54.3L264.34,266a2.18,2.18,0,0,1,2.37-.09,2.25,2.25,0,0,1,1.06,2,5.72,5.72,0,0,1-.84,3.06,5.8,5.8,0,0,1-2.29,2.34L231.4,291.43a3.44,3.44,0,0,1-5.5-3.12l-.54-13c0-.65-.23-.64-.61,0Zm-10.73-20.9L198,263.31a2.77,2.77,0,0,1-2.63.23,2.67,2.67,0,0,1-1.25-2.43,7.3,7.3,0,0,1,3.53-6.22l15.85-8.6a2.43,2.43,0,0,1,2.63-.13,2.75,2.75,0,0,1,1.16,2.37,6.83,6.83,0,0,1-.92,3.5A6.27,6.27,0,0,1,213.85,254.71Zm2.7,11.85L196.39,277.5a2.76,2.76,0,0,1-2.63.23,2.61,2.61,0,0,1-1.15-2.38,7.32,7.32,0,0,1,3.44-6.07l20.16-10.94a2.36,2.36,0,0,1,2.55-.09,2.34,2.34,0,0,1,1.23,2.23,6.55,6.55,0,0,1-1,3.55A6.28,6.28,0,0,1,216.55,266.56Zm15.82-2.69c0,.4.2.5.54.31l8.44-4.58a.89.89,0,0,0,.5-.87l0-1c0-.39-.2-.49-.54-.31L232.83,262a.87.87,0,0,0-.5.86ZM199.09,281l15.16-8.23a2.47,2.47,0,0,1,2.64-.13,2.34,2.34,0,0,1,1.23,2.23,6.62,6.62,0,0,1-1,3.55,6.45,6.45,0,0,1-2.53,2.68l-15.16,8.22a2.65,2.65,0,0,1-2.72.18,2.75,2.75,0,0,1-1.16-2.37,6.24,6.24,0,0,1,.92-3.4A6.76,6.76,0,0,1,199.09,281Zm33.67-7.86c0,.39.2.49.54.3l8.44-4.58a.87.87,0,0,0,.49-.87l0-1q0-.58-.54-.3l-8.44,4.58a.88.88,0,0,0-.49.87Zm-33.12,21,15.15-8.23a2.6,2.6,0,0,1,2.64-.13,2.46,2.46,0,0,1,1.24,2.33,6.81,6.81,0,0,1-1,3.65,6.88,6.88,0,0,1-2.54,2.57L200,302.58a2.71,2.71,0,0,1-2.73.18,2.76,2.76,0,0,1-1.15-2.37,6.27,6.27,0,0,1,1-3.55A6.59,6.59,0,0,1,199.64,294.16Zm33.5-11.78c0,.39.2.49.54.31l8.44-4.59a.85.85,0,0,0,.49-.86l0-1c0-.4-.19-.5-.54-.31l-8.44,4.58a.88.88,0,0,0-.49.87Zm-31.41,24.16L213.79,300a4,4,0,0,1,4-.29c1.2.62,1.84,1.84,1.91,3.67l.72,17.33a10.31,10.31,0,0,1-1.45,5.39,10,10,0,0,1-4,4.16l-12,6.55q-2.42,1.31-4.13.24a4.12,4.12,0,0,1-1.82-3.62l-.72-17.33a11.49,11.49,0,0,1,5.41-9.55Zm64.13-12.39a2.56,2.56,0,0,1,2.65.16,3,3,0,0,1,1.25,2.53,6.27,6.27,0,0,1-1.09,3.59,5.37,5.37,0,0,1-2.54,2.38,88.79,88.79,0,0,1-11.38,3.88A51,51,0,0,1,245,308.5c-.23-.07-.46.05-.69.37A131.36,131.36,0,0,1,234.09,318c-3.3,2.72-6.25,5-8.88,6.92a2.52,2.52,0,0,1-2.62.42,2.12,2.12,0,0,1-1.23-2.13,7.67,7.67,0,0,1,.82-3.65,8.43,8.43,0,0,1,2.51-3.07c1.82-1.32,3.59-2.65,5.3-4s3.43-2.8,5-4.13c.45-.45.47-.73.05-.83a6.06,6.06,0,0,0-.9-.42,5.46,5.46,0,0,0-.8-.36,2.42,2.42,0,0,1-1.15-2.18,6.16,6.16,0,0,1,.92-3.3,4.64,4.64,0,0,1,.5-.77c.44-.64.4-.82-.11-.54l-8.1,4.39a2.76,2.76,0,0,1-2.63.23,2.51,2.51,0,0,1-1.15-2.28,7.3,7.3,0,0,1,3.45-6.07l36.86-20a2.28,2.28,0,0,1,2.46-.13,2.12,2.12,0,0,1,1,1.93,4.47,4.47,0,0,1-.52,2.29,71.37,71.37,0,0,1-4.57,8.78,96,96,0,0,1-5.73,8.22c-.5.61-.52.85-.06.74q2.44-.63,5.22-1.63C261.64,295.77,263.66,295,265.86,294.15Zm-61.68,33.29c0,.39.2.49.55.3l7.92-4.3a.88.88,0,0,0,.49-.87l-.55-13.31c0-.4-.2-.5-.54-.31l-7.93,4.3a.9.9,0,0,0-.49.87Zm33.76-29.05q1.51.48,2.94.81l3,.37a1.8,1.8,0,0,0,.69-.37c1.29-1.44,2.52-2.84,3.7-4.22s2.23-2.71,3.18-4c.22-.25.3-.43.24-.53s-.21-.18-.44-.06l-13.35,7.25q-.94.51-.15.78A.19.19,0,0,1,237.94,298.39ZM353.5,228.84a1.06,1.06,0,0,0-.24.53c.06.1.21.09.44,0l.43-.24a2.31,2.31,0,0,1,3.7,2.1,6.35,6.35,0,0,1-.92,3.4,6.24,6.24,0,0,1-2.45,2.53L341,244.43a.85.85,0,0,0-.49.86l.19,4.8a16.67,16.67,0,0,1-1.76,8.37,23.91,23.91,0,0,1-5.09,6.77,30.65,30.65,0,0,1-6.5,4.83,11.66,11.66,0,0,1-1.9.83l-1.9.83a2.11,2.11,0,0,1-2.31-.45,3.14,3.14,0,0,1-1-2.37,7.14,7.14,0,0,1,1.23-4.27,6.44,6.44,0,0,1,3.32-2.8c.69-.25,1.36-.48,2-.69s1.24-.57,1.81-.88q4.74-2.58,4.59-6.1l-.2-4.8q0-.59-.54-.3l-25.58,13.88a.82.82,0,0,0-.42.43c0,.13.1.22.27.25a1.84,1.84,0,0,1,1,.67c.92,1,1.84,2,2.77,3.19a30.33,30.33,0,0,1,2.34,3.34,3,3,0,0,1,.51,1.53,5.55,5.55,0,0,1-.52,2.38,6.87,6.87,0,0,1-1.49,2.31l-.68.57a2.7,2.7,0,0,1-.77.62q-2.15,1.17-3.54-.38a42.09,42.09,0,0,0-5.26-5.86,2.56,2.56,0,0,1-.87-2,5.5,5.5,0,0,1,.92-3.31c.32-.57.29-.76-.11-.54l-13.44,7.3a2.66,2.66,0,0,1-2.55.18,2.53,2.53,0,0,1-1.15-2.28,6.35,6.35,0,0,1,.92-3.4,6.64,6.64,0,0,1,2.45-2.53L332.17,241a.88.88,0,0,0,.49-.87l0-1.08a7.47,7.47,0,0,1,1.15-3.93c.17-.22.22-.36.16-.39s-.12-.1-.34.09q-7.89,5.09-16,10.12t-15.39,9.15l-12.55,7.32a2.76,2.76,0,0,1-2.63.22,2.62,2.62,0,0,1-1.16-2.37,6.33,6.33,0,0,1,.92-3.4,7.41,7.41,0,0,1,2.53-2.78q4.89-2.85,11.86-6.84t14.78-8.83a.87.87,0,0,0,.5-.87l-.14-3.42c0-.39-.2-.5-.55-.31l-16.62,9a4.23,4.23,0,0,1-4.12.33c-1.14-.65-1.75-1.88-1.83-3.71l-.59-14.3a11.47,11.47,0,0,1,5.42-9.55l16.62-9a.88.88,0,0,0,.49-.87l-.06-1.37c0-.39-.19-.49-.54-.31l-28.93,15.72A2.52,2.52,0,0,1,283,219a2.6,2.6,0,0,1-1.06-2.23,6,6,0,0,1,.83-3.26,6.36,6.36,0,0,1,2.45-2.53l28.94-15.71a.88.88,0,0,0,.49-.87l0-1.17a6.35,6.35,0,0,1,1-3.55,6.75,6.75,0,0,1,2.62-2.72,2.43,2.43,0,0,1,2.63-.13,2.58,2.58,0,0,1,1.25,2.33l0,1.17c0,.4.2.5.54.31l29-15.76a2.29,2.29,0,0,1,3.61,2.05,6.28,6.28,0,0,1-.92,3.3,5.84,5.84,0,0,1-2.37,2.49l-29,15.75a.88.88,0,0,0-.49.87l.05,1.37c0,.39.2.5.54.31L340,191.82a4,4,0,0,1,4-.29c1.2.62,1.84,1.84,1.92,3.67l.59,14.3a10.58,10.58,0,0,1-1.29,5.1c-.27.48-.2.68.2.59a2.56,2.56,0,0,1,2.59.8,45.22,45.22,0,0,1,3.16,4c1.06,1.5,2,2.92,2.82,4.28a3.31,3.31,0,0,1,.32,1.42A5.8,5.8,0,0,1,353.5,228.84ZM315,215.9a.89.89,0,0,0,.5-.87l-.08-1.86q0-.58-.54-.3l-14.73,8a.88.88,0,0,0-.49.87l.07,1.86c0,.39.2.49.55.31Zm23.34-12.67a.89.89,0,0,0,.5-.87l-.08-1.86c0-.39-.2-.49-.54-.31l-14.82,8.05a.88.88,0,0,0-.49.86L323,211c0,.4.2.5.54.31Zm-37.79,27.32a.88.88,0,0,0-.49.87l.08,1.86c0,.4.19.5.54.31l14.73-8a.88.88,0,0,0,.49-.86l-.08-1.86c0-.4-.2-.5-.54-.31Zm38.19-17.63a.87.87,0,0,0,.5-.87l-.08-1.86q0-.58-.54-.3l-14.81,8a.89.89,0,0,0-.5.87l.08,1.86q0,.59.54.3Zm1.8,7.14c.21-.58.08-.75-.38-.5l-15.93,8.65a.88.88,0,0,0-.49.87l.12,2.84c0,.39.19.49.54.31q3.94-2.44,7.89-5t7.63-5a1.29,1.29,0,0,0,.49-1A5.22,5.22,0,0,1,340.55,220.06Zm-2.25,11.73q-.68.57-.06.63c1.18.23,1.81,1.09,1.87,2.59l0,1.08c0,.39.2.49.55.31l7.23-3.93c.23-.13.34-.25.34-.38s0-.27-.19-.3a1.88,1.88,0,0,1-1.1-1,18.93,18.93,0,0,0-2-3c-.06-.16-.27-.15-.61,0ZM444.43,204.4l-61.15,33.2a3.44,3.44,0,0,1-5.5-3.12l-2.88-69.42a9.07,9.07,0,0,1,1.38-5.05,9.32,9.32,0,0,1,3.63-3.77l60.54-32.88a2.6,2.6,0,0,1,2.64-.13,2.55,2.55,0,0,1,1.25,2.43,6.75,6.75,0,0,1-1,3.55,6.36,6.36,0,0,1-2.53,2.67l-57.53,31.24a.89.89,0,0,0-.5.87l2.62,63.15c0,.39.2.5.54.31l58.13-31.57a2.68,2.68,0,0,1,2.73-.17A2.46,2.46,0,0,1,448,198a6.88,6.88,0,0,1-1,3.64A6.42,6.42,0,0,1,444.43,204.4Zm-19.05-34.71-21,11.41a4.21,4.21,0,0,1-4.12.34c-1.14-.65-1.75-1.88-1.83-3.71L398,166.86a11.47,11.47,0,0,1,5.42-9.55l21-11.41a3.79,3.79,0,0,1,5.95,3.38l.45,10.87a10.41,10.41,0,0,1-1.44,5.49A10.19,10.19,0,0,1,425.38,169.69Zm-19.6-5.37a.86.86,0,0,0-.49.86l.26,6.37q0,.58.54.3L423,162.69a.89.89,0,0,0,.5-.87l-.27-6.36c0-.39-.19-.5-.54-.31Zm2.63,46.52-14.21,7.72a3.68,3.68,0,0,1-5.95-3.38l-.56-13.41a10.12,10.12,0,0,1,1.45-5.39,10.39,10.39,0,0,1,4-4.16l14.21-7.72a3.79,3.79,0,0,1,5.95,3.38l.56,13.41a10.53,10.53,0,0,1-1.45,5.5A10.12,10.12,0,0,1,408.41,210.84ZM438,194.76l-14.56,7.9a3.68,3.68,0,0,1-6-3.38L417,185.87a11.49,11.49,0,0,1,5.41-9.55l14.56-7.9a3.79,3.79,0,0,1,5.95,3.37l.55,13.42A10.41,10.41,0,0,1,442,190.7,10.22,10.22,0,0,1,438,194.76Zm-42.44,4.32a.89.89,0,0,0-.5.87l.38,9.1c0,.4.2.5.54.31l10-5.42a.89.89,0,0,0,.5-.87l-.38-9.11c0-.39-.2-.49-.54-.31Zm29.19-15.85a.87.87,0,0,0-.49.87l.38,9.1c0,.39.19.5.54.31l10.42-5.66a.88.88,0,0,0,.49-.87l-.38-9.1c0-.4-.19-.5-.54-.31Z" transform="translate(0 0)"/><path class="cls-8" d="M829.44,704.59l-.15,4-.75.44.15-4Z" transform="translate(0 0)"/><path class="cls-40" d="M831.83,705.19v4a.78.78,0,0,0-.45-.59,2.54,2.54,0,0,0-2.09,0v-4a2.54,2.54,0,0,1,2.09,0A.8.8,0,0,1,831.83,705.19Z" transform="translate(0 0)"/><path class="cls-41" d="M829.29,705.34v4l-.75-.3.15-4Z" transform="translate(0 0)"/><path class="cls-42" d="M831.83,705.19v4a.8.8,0,0,1-.45.6v-4A.8.8,0,0,0,831.83,705.19Z" transform="translate(0 0)"/><path class="cls-8" d="M832.43,705.19v4a1.08,1.08,0,0,1-.6.9v-4A1.08,1.08,0,0,0,832.43,705.19Z" transform="translate(0 0)"/><path class="cls-43" d="M830.63,706.24v4l-.6-.45v-4Z" transform="translate(0 0)"/><path class="cls-44" d="M831.38,705.79v4l-.75.45v-4Z" transform="translate(0 0)"/><path class="cls-8" d="M828.69,705l-.15,4-2.69,1.5v-3.89Z" transform="translate(0 0)"/><path class="cls-40" d="M825.85,706.69v4a8.38,8.38,0,0,0-7.33,0v-4A7.91,7.91,0,0,1,825.85,706.69Z" transform="translate(0 0)"/><path class="cls-45" d="M823.3,706.69v4l-.45.15v-4Z" transform="translate(0 0)"/><path class="cls-45" d="M829.29,705.34v4l-4,2.4v-4Z" transform="translate(0 0)"/><path class="cls-46" d="M825.25,707.74v4l-2-1v-4Z" transform="translate(0 0)"/><path class="cls-44" d="M830,705.79v4l-4,2.4v-4Z" transform="translate(0 0)"/><path class="cls-45" d="M831.38,705.79v4l-3.44,1.95v-4Z" transform="translate(0 0)"/><path class="cls-8" d="M831.83,706.09v4l-3,1.65v-3.89Z" transform="translate(0 0)"/><path class="cls-47" d="M824.8,708v4l-1.95-1.2v-4Z" transform="translate(0 0)"/><path class="cls-45" d="M821.21,708.78v4.05l-.45.3v-4Z" transform="translate(0 0)"/><path class="cls-46" d="M827.94,709.38v3.9l-1.94-1v-4Z" transform="translate(0 0)"/><path class="cls-40" d="M829.44,710v4a2.49,2.49,0,0,0-1.5-2.1v-4A2.4,2.4,0,0,1,829.44,710Z" transform="translate(0 0)"/><path class="cls-46" d="M822.26,709.38v4l-1-.6v-4.05Z" transform="translate(0 0)"/><path class="cls-45" d="M824.8,708v4l-2.54,1.35v-4Z" transform="translate(0 0)"/><path class="cls-44" d="M827.94,709.38v3.9l-.45.3v-4.05Z" transform="translate(0 0)"/><path class="cls-48" d="M827.49,709.53v4.05l-1.94-1.05v-4Z" transform="translate(0 0)"/><path class="cls-49" d="M821.81,709.68v4.05l-1-.6v-4Z" transform="translate(0 0)"/><path class="cls-44" d="M825.55,708.48v4l-2.4,1.35v-4Z" transform="translate(0 0)"/><path class="cls-46" d="M824.2,710.43v4.05l-1.05-.6v-4Z" transform="translate(0 0)"/><path class="cls-50" d="M823.75,710.73v4l-1-.6v-4Z" transform="translate(0 0)"/><path class="cls-51" d="M824.2,710.43v4.05l-.45.3v-4Z" transform="translate(0 0)"/><path class="cls-8" d="M818.52,706.69v4l-31,18v-4.05Z" transform="translate(0 0)"/><path class="cls-45" d="M818.37,710.43v4.05l-.45.3v-4Z" transform="translate(0 0)"/><path class="cls-46" d="M819.41,711v4.05l-1-.6v-4.05Z" transform="translate(0 0)"/><path class="cls-45" d="M821.81,709.68v4.05l-2.4,1.35V711Z" transform="translate(0 0)"/><path class="cls-52" d="M819,711.33v4l-1.05-.6v-4Z" transform="translate(0 0)"/><path class="cls-44" d="M822.71,710.13v4l-2.4,1.35v-4Z" transform="translate(0 0)"/><path class="cls-53" d="M829.44,710v4a2.48,2.48,0,0,1-1.5,2.09v-4A2.83,2.83,0,0,0,829.44,710Z" transform="translate(0 0)"/><path class="cls-46" d="M821.36,712.08v4l-1.05-.59v-4Z" transform="translate(0 0)"/><path class="cls-8" d="M830,710v4a2.8,2.8,0,0,1-1.79,2.39v-4A3.2,3.2,0,0,0,830,710Z" transform="translate(0 0)"/><path class="cls-54" d="M820.91,712.38v4l-1-.6v-4Z" transform="translate(0 0)"/><path class="cls-44" d="M821.36,712.08v4l-.45.3v-4Z" transform="translate(0 0)"/><path class="cls-45" d="M815.53,712.08v4l-.45.3v-4Z" transform="translate(0 0)"/><path class="cls-45" d="M819,711.33v4l-2.4,1.34v-4Z" transform="translate(0 0)"/><path class="cls-46" d="M816.57,712.68v4l-1.05-.6v-4Z" transform="translate(0 0)"/><path class="cls-55" d="M816.12,713v4l-1-.6v-4Z" transform="translate(0 0)"/><path class="cls-44" d="M819.86,711.78v4l-2.54,1.35.15-3.89Z" transform="translate(0 0)"/><path class="cls-45" d="M811.78,713.28v4l-.44.3v-4Z" transform="translate(0 0)"/><path class="cls-46" d="M818.52,713.88l-.15,3.89-1-.6.15-3.89Z" transform="translate(0 0)"/><path class="cls-56" d="M818.07,714l-.15,4-1-.6.15-4Z" transform="translate(0 0)"/><path class="cls-44" d="M818.52,713.88l-.15,3.89-.45.3.15-4Z" transform="translate(0 0)"/><path class="cls-45" d="M816.12,713v4l-2.39,1.35v-3.89Z" transform="translate(0 0)"/><path class="cls-46" d="M813.73,714.48v3.89l-2-1v-4Z" transform="translate(0 0)"/><path class="cls-57" d="M813.28,714.63v4l-1.94-1v-4Z" transform="translate(0 0)"/><path class="cls-44" d="M817,713.43l-.15,4-2.39,1.35v-3.89Z" transform="translate(0 0)"/><path class="cls-45" d="M809.84,715.52v3.9l-.45.3v-4.05Z" transform="translate(0 0)"/><path class="cls-46" d="M816.42,716v4l-1.94-1.2v-3.89Z" transform="translate(0 0)"/><path class="cls-46" d="M810.89,716.12V720l-1-.6v-3.9Z" transform="translate(0 0)"/><path class="cls-45" d="M813.28,714.63v4L810.89,720v-3.9Z" transform="translate(0 0)"/><path class="cls-51" d="M816.42,716v4l-.45.3v-4.05Z" transform="translate(0 0)"/><path class="cls-58" d="M816,716.27v4.05l-1.94-1.2v-4Z" transform="translate(0 0)"/><path class="cls-59" d="M810.44,716.27v4.05l-1.05-.6v-4.05Z" transform="translate(0 0)"/><path class="cls-44" d="M814,715.08v4l-2.39,1.5v-4Z" transform="translate(0 0)"/><path class="cls-45" d="M810.44,716.27v4.05l-1.2.75V717Z" transform="translate(0 0)"/><path class="cls-46" d="M812.68,717.17v4.05l-1-.6v-4Z" transform="translate(0 0)"/><path class="cls-44" d="M812.68,717.17v4.05l-.45.15v-3.9Z" transform="translate(0 0)"/><path class="cls-60" d="M812.23,717.47v3.9l-1-.6v-4Z" transform="translate(0 0)"/><path class="cls-45" d="M807,717.17v4.05l-.45.15v-4Z" transform="translate(0 0)"/><path class="cls-44" d="M811.19,716.72v4l-1.2.75v-4Z" transform="translate(0 0)"/><path class="cls-61" d="M810,717.47v4l-.75-.45V717Z" transform="translate(0 0)"/><path class="cls-46" d="M808,717.77v4.05l-1-.6v-4.05Z" transform="translate(0 0)"/><path class="cls-45" d="M809.24,717v4.05l-1.2.75v-4.05Z" transform="translate(0 0)"/><path class="cls-8" d="M807.6,718.07V722l-1.05-.6v-4Z" transform="translate(0 0)"/><path class="cls-8" d="M810,717.47v4l-1.2.75v-4Z" transform="translate(0 0)"/><path class="cls-46" d="M809.84,718.82v4l-1.05-.59v-4Z" transform="translate(0 0)"/><path class="cls-8" d="M809.84,718.82v4l-.45.15v-3.89Z" transform="translate(0 0)"/><path class="cls-8" d="M809.39,719.12V723l-1-.6v-3.89Z" transform="translate(0 0)"/><path class="cls-45" d="M804.16,718.82v4l-.45.15v-3.89Z" transform="translate(0 0)"/><path class="cls-46" d="M805.2,719.42v4l-1-.6v-4Z" transform="translate(0 0)"/><path class="cls-45" d="M807.6,718.07V722l-2.4,1.49v-4Z" transform="translate(0 0)"/><path class="cls-8" d="M804.75,719.72v3.89l-1-.6v-3.89Z" transform="translate(0 0)"/><path class="cls-8" d="M808.34,718.52v3.89l-2.39,1.5v-4Z" transform="translate(0 0)"/><path class="cls-45" d="M800.41,720v3.89l-.44.3v-4Z" transform="translate(0 0)"/><path class="cls-46" d="M807,720.47v4l-1-.6v-4Z" transform="translate(0 0)"/><path class="cls-8" d="M806.55,720.77v4l-1-.6v-4Z" transform="translate(0 0)"/><path class="cls-8" d="M807,720.47v4l-.45.3v-4Z" transform="translate(0 0)"/><path class="cls-45" d="M804.75,719.72v3.89l-2.54,1.5v-4Z" transform="translate(0 0)"/><path class="cls-46" d="M802.21,721.07v4l-1.8-1.2V720Z" transform="translate(0 0)"/><path class="cls-8" d="M801.76,721.37v4l-1.79-1.2v-4Z" transform="translate(0 0)"/><path class="cls-8" d="M805.5,720.17v4l-2.39,1.35v-4Z" transform="translate(0 0)"/><path class="cls-45" d="M798.32,722.11v4l-.45.3v-4.05Z" transform="translate(0 0)"/><path class="cls-46" d="M805.05,722.71v3.9l-1.94-1.05v-4Z" transform="translate(0 0)"/><path class="cls-45" d="M801.76,721.37v4l-2.39,1.35v-4Z" transform="translate(0 0)"/><path class="cls-46" d="M799.37,722.71v4l-1-.6v-4Z" transform="translate(0 0)"/><path class="cls-8" d="M805.05,722.71v3.9l-.45.3v-4Z" transform="translate(0 0)"/><path class="cls-8" d="M804.6,722.86v4l-1.94-1v-4Z" transform="translate(0 0)"/><path class="cls-8" d="M798.92,723v4l-1-.6v-4.05Z" transform="translate(0 0)"/><path class="cls-8" d="M802.66,721.82v4l-2.39,1.35v-4.05Z" transform="translate(0 0)"/><path class="cls-46" d="M801.31,723.76v4l-1-.6v-4.05Z" transform="translate(0 0)"/><path class="cls-8" d="M800.86,724.06v4.05l-1-.6v-4Z" transform="translate(0 0)"/><path class="cls-8" d="M801.31,723.76v4l-.45.3v-4.05Z" transform="translate(0 0)"/><path class="cls-45" d="M795.48,723.76v4l-.45.3v-4.05Z" transform="translate(0 0)"/><path class="cls-45" d="M798.92,723v4l-2.39,1.35v-4Z" transform="translate(0 0)"/><path class="cls-46" d="M796.53,724.36v4l-1-.6v-4Z" transform="translate(0 0)"/><path class="cls-8" d="M796.08,724.66v4.05l-1.05-.6v-4.05Z" transform="translate(0 0)"/><path class="cls-8" d="M799.82,723.46v4l-2.55,1.34.15-4Z" transform="translate(0 0)"/><path class="cls-46" d="M798.47,725.41l-.15,4.05-1.05-.6.15-4.05Z" transform="translate(0 0)"/><path class="cls-20" d="M798.47,725.41l-.15,4-.45.3.15-4Z" transform="translate(0 0)"/><path class="cls-20" d="M798,725.71l-.15,4-1-.6.15-4Z" transform="translate(0 0)"/><path class="cls-45" d="M792.64,725.41v4l-.45.3v-4Z" transform="translate(0 0)"/><path class="cls-40" d="M787.55,724.66v4.05a2.47,2.47,0,0,0-1.5,2.09v-4A2.83,2.83,0,0,1,787.55,724.66Z" transform="translate(0 0)"/><path class="cls-45" d="M796.08,724.66v4.05l-2.4,1.34v-4Z" transform="translate(0 0)"/><path class="cls-46" d="M793.68,726v4l-1-.6v-4Z" transform="translate(0 0)"/><path class="cls-8" d="M793.23,726.31v4l-1-.6v-4Z" transform="translate(0 0)"/><path class="cls-20" d="M797,725.11l-.15,4-2.39,1.34v-4Z" transform="translate(0 0)"/><path class="cls-40" d="M787.55,724.66v4.05a2.47,2.47,0,0,0-1.5,2.09v-4A2.83,2.83,0,0,1,787.55,724.66Z" transform="translate(0 0)"/><path class="cls-45" d="M788.9,726.61v4l-.45.3v-4Z" transform="translate(0 0)"/><path class="cls-46" d="M795.48,727.21v3.89l-1.05-.6v-4Z" transform="translate(0 0)"/><path class="cls-8" d="M795.48,727.21v3.89l-.45.3v-4Z" transform="translate(0 0)"/><path class="cls-8" d="M795,727.36v4l-1-.6v-4Z" transform="translate(0 0)"/><path class="cls-46" d="M790.84,727.81v3.89l-1.94-1.05v-4Z" transform="translate(0 0)"/><path class="cls-45" d="M793.23,726.31v4l-2.39,1.35v-3.89Z" transform="translate(0 0)"/><path class="cls-8" d="M794,726.76v4l-2.39,1.35v-3.89Z" transform="translate(0 0)"/><path class="cls-53" d="M787.7,729v4a2.52,2.52,0,0,1-1.5-2.25v-4C786.05,727.66,786.65,728.41,787.7,729Z" transform="translate(0 0)"/><path class="cls-8" d="M787.25,729.3v4.05c-1.2-.75-1.79-1.5-1.79-2.4v-4A3.17,3.17,0,0,0,787.25,729.3Z" transform="translate(0 0)"/><path class="cls-46" d="M793.53,729.3v4.05l-1.94-1.2v-3.89Z" transform="translate(0 0)"/><path class="cls-20" d="M809.24,717l.75.45-1.2.75,1.05.6-.45.3-1-.6L806,719.87l1,.6-.45.3-1-.6-2.39,1.35,1.94,1.19-.45.15-1.94-1-2.39,1.34,1,.6-.45.3-1-.6-2.4,1.35,1.05.6-.45.3-1-.6-2.54,1.35,1.05.75-.45.15-1-.6-2.39,1.5,1.94,1-.44.3-4.64-2.69.45-.3,1.94,1.2,2.39-1.5-1-.6.45-.3,1,.6,2.4-1.35-1.05-.6.45-.3,1,.6,2.39-1.35-1-.6.45-.3,1,.6,2.39-1.34-1.79-1.2.44-.15,1.8,1.05,2.54-1.35-1-.6.45-.3,1,.6,2.4-1.35-1.05-.75.45-.15,1,.6Z" transform="translate(0 0)"/><path class="cls-8" d="M793.53,729.3v4.05l-.44.3v-4Z" transform="translate(0 0)"/><path class="cls-8" d="M793.09,729.6v4l-4.64-2.7v-4Z" transform="translate(0 0)"/><path class="cls-45" d="M827.79,712.08v4L797,734.1v-4.05Z" transform="translate(0 0)"/><path class="cls-46" d="M789.49,730.05v4.05l-1.79-1.05v-4Z" transform="translate(0 0)"/><path class="cls-53" d="M797,730.05v4.05a8.22,8.22,0,0,1-7.48,0v-4.05A8.22,8.22,0,0,0,797,730.05Z" transform="translate(0 0)"/><path class="cls-19" d="M831.38,705.79l-3.44,2c1.95,1.19,1.95,3.14-.15,4.34l-31,18a8.22,8.22,0,0,1-7.48,0l-1.79-1c-2.09-1.2-2.09-3.15,0-4.35l31-18a7.91,7.91,0,0,1,7.33,0l2.69-1.65.6.3-4,2.4-2-1-.44.3,1.94,1-2.39,1.34-1-.6-.45.3,1,.6-2.4,1.35-1-.6-.45.3,1.05.6-2.4,1.35-1.05-.6-.44.3,1,.6-2.39,1.35-2-1.05-.44.3,1.94,1-2.39,1.49-1-.59-.45.29,1.05.6-1.2.75-1.2.75-1-.6-.45.3,1.05.6-2.4,1.35-1-.6-.45.3,1,.6-2.39,1.35-2-1.05-.44.3,1.94,1-2.39,1.34-1-.59-.45.3,1.05.59-2.4,1.35-1-.6-.45.3,1.05.6-2.4,1.35-1.05-.6-.44.3,1,.6L791,727.81l-2-1-.44.3,4.63,2.69.45-.29-1.94-1.05,2.39-1.35,1,.6.45-.3-1-.6,2.39-1.35,1,.6.45-.3-1.05-.6,2.4-1.35,1,.6.45-.3-1-.6,2.39-1.35,1.94,1,.45-.3-1.94-1,2.39-1.35,1,.6.45-.3-1-.6,2.39-1.35,1,.6.45-.3-1.05-.6,1.2-.75,1.2-.75,1,.6.45-.3-1-.6,2.39-1.34,1.94,1,.45-.3-1.94-1,2.39-1.35,1,.6.45-.3-1-.6,2.39-1.35,1,.6.45-.3-1.05-.6,2.4-1.35,1,.6.45-.3-1-.6,2.4-1.35,1.94,1.05.45-.3-1.94-1,4-2.39.59.3Z" transform="translate(0 0)"/><path class="cls-8" d="M828.84,707.89c1.79,1.34,1.64,3.29-.45,4.49l-31,18a9.18,9.18,0,0,1-8.38,0l-1.79-1.05c-2.39-1.34-2.39-3.59,0-4.94l31-18a9.38,9.38,0,0,1,7.78-.3l3-1.8a3.48,3.48,0,0,1,3,0c.9.45.9,1.2,0,1.65ZM797,730.05l31-18c2.1-1.2,2.1-3.15.15-4.34l3.44-2a.62.62,0,0,0,0-1.2,2.54,2.54,0,0,0-2.09,0l-.75.45L826,706.69a8.38,8.38,0,0,0-7.33,0l-31,18c-2.1,1.2-2.1,3.15,0,4.35l1.79,1A8.22,8.22,0,0,0,797,730.05Z" transform="translate(0 0)"/><path class="cls-62" d="M831.38,704.59a.63.63,0,0,1,0,1.2l-.75.45-.6-.3-4,2.4,1.94,1-.45.3-1.94-1-2.4,1.34,1.05.6-.45.3-1-.6-2.4,1.35,1.05.6-.45.3-1-.6-2.39,1.35,1,.6-.45.3-1.05-.6-2.39,1.35,1.94,1-.45.3-1.94-1-2.4,1.35,1.05.6-.45.3-1-.6-1.2.75-.75-.45,1.2-.75-1.05-.6.45-.29,1,.59,2.39-1.34-1.95-1,.45-.3,2,1.05,2.39-1.35-1-.6.45-.3,1.05.6,2.39-1.35-1-.6.45-.3,1,.6,2.4-1.35-1.05-.6.45-.3,1,.6,2.39-1.35-1.95-1,.45-.3,2,1,4-2.4-.6-.3.75-.45A1.8,1.8,0,0,1,831.38,704.59Z" transform="translate(0 0)"/><path class="cls-8" d="M828.39,712.38l-.15,4-30.82,18v-4Z" transform="translate(0 0)"/><path class="cls-8" d="M789,730.35v4l-1.94-1,.15-4.05Z" transform="translate(0 0)"/><path class="cls-8" d="M797.42,730.35v4a9.16,9.16,0,0,1-8.37,0v-4A9.16,9.16,0,0,0,797.42,730.35Z" transform="translate(0 0)"/><path class="cls-63" d="M792.93,709.23c0,.15.15.45.3.45h.15c4.19-2.39,8.38-4.94,12.57-7.34,0-.15-.15-.3-.15-.44-4.19,2.39-8.38,4.79-12.72,7.18C792.93,709.08,792.93,709.08,792.93,709.23Z" transform="translate(0 0)"/><path class="cls-64" d="M795.33,705.34c0,.15.15.45.3.45h.15c4.19-2.4,8.37-4.94,12.56-7.34,0-.15-.15-.3-.15-.45-4.18,2.4-8.37,4.79-12.71,7.19C795.33,705.19,795.33,705.19,795.33,705.34Z" transform="translate(0 0)"/><path class="cls-20" d="M759.28,719.87a12.47,12.47,0,0,0,5.38,9.73,4.05,4.05,0,0,0,4,.45l24.23-13.93a3.69,3.69,0,0,0,1.65-3.44,11.58,11.58,0,0,0-.3-2.25c.6-.45,1.35-.75,2-1.2a1.94,1.94,0,0,0,.74-1.64,6.1,6.1,0,0,0-.3-1.5l.45-.3c.15-.15.3-.3.3-.45a1.58,1.58,0,0,0-.75-1.35h-.14l-.3.15a.15.15,0,0,0-.15.15,4,4,0,0,0-1.2-1,1.6,1.6,0,0,0-1.79-.15c-.6.45-1.35.75-2,1.2a10.51,10.51,0,0,0-1.5-1.2q-2.46-1.35-4-.45-12.11,7-24.23,13.93C759.87,716.87,759.28,718.07,759.28,719.87Z" transform="translate(0 0)"/><path class="cls-65" d="M775.76,718.09l-.52.3,2.24,3.89.52-.3Z" transform="translate(0 0)"/><path class="cls-65" d="M788.38,710.9l-.52.3,2.24,3.89.52-.3Z" transform="translate(0 0)"/><path class="cls-65" d="M779.48,717.33l-.51.3,1.12,2,.52-.3Z" transform="translate(0 0)"/><path class="cls-65" d="M785.74,713.6l-.51.3,1.12,2,.51-.3Z" transform="translate(0 0)"/><path class="cls-65" d="M782.6,715.39l-.52.3,1.12,1.95.51-.3Z" transform="translate(0 0)"/><path class="cls-65" d="M763.22,725.41l-.51.3,2.23,3.9.52-.3Z" transform="translate(0 0)"/><path class="cls-65" d="M766.91,724.51l-.51.3,1.12,2,.51-.3Z" transform="translate(0 0)"/><path class="cls-65" d="M773.21,720.94l-.52.3,1.12,1.94.52-.29Z" transform="translate(0 0)"/><path class="cls-66" d="M772.89,712.68a11,11,0,0,1,4.94,8.84,3.4,3.4,0,0,1-1.5,3.14l15.86-9.13a3.42,3.42,0,0,0,1.49-3.15,11,11,0,0,0-4.93-8.69,3.59,3.59,0,0,0-3.59-.45c-5.24,3-10.63,6-15.86,9.14C770.2,711.78,771.54,711.93,772.89,712.68Z" transform="translate(0 0)"/><path class="cls-65" d="M772.89,712.68l-.15,5.84.15-5.84a11,11,0,0,1,4.94,8.84c0,3.14-2.4,4.49-5.09,2.84a11,11,0,0,1-4.94-8.84C767.8,712.38,770.2,711,772.89,712.68Z" transform="translate(0 0)"/><path class="cls-67" d="M772.89,712.08a12.23,12.23,0,0,1,5.53,9.74c0,1.79-.59,3-1.64,3.59.75-.45-.45.3.3-.15,1-.6,1.64-1.8,1.64-3.59a12.23,12.23,0,0,0-5.53-9.74,4.05,4.05,0,0,0-4-.45c-.75.45.45-.3-.3.15A4.05,4.05,0,0,1,772.89,712.08Z" transform="translate(0 0)"/><path class="cls-19" d="M772.89,712.08a12.23,12.23,0,0,1,5.53,9.74c0,3.59-2.54,4.94-5.68,3.14a12.24,12.24,0,0,1-5.54-9.74C767.35,711.63,769.9,710.28,772.89,712.08Z" transform="translate(0 0)"/><path class="cls-8" d="M769.45,725.26c1.64-.9,3.29-2,4.94-2.85.59-.3.89-.89.89-1.94a6.57,6.57,0,0,0-2.84-5.1c-.9-.45-1.65-.59-2.09-.29-1.65.89-3.3,1.94-4.94,2.84C765.86,717.62,769.9,725,769.45,725.26Z" transform="translate(0 0)"/><path class="cls-19" d="M762.87,715.67l-.15,5.1c-1.65-.9-3-.3-3,1.64a6.58,6.58,0,0,0,2.85,5.1c1.64.9,3,.3,3-1.65a6.57,6.57,0,0,0-2.84-5.09l.15-5.1a16.71,16.71,0,0,1,7.33,12.88c0,4.65-3.44,6.6-7.48,4.2a16.71,16.71,0,0,1-7.33-12.88C755.39,715.08,758.83,713.28,762.87,715.67Z" transform="translate(0 0)"/><path class="cls-20" d="M757.48,715.22c1.35-.74,3.14-.74,5.24.45a15.92,15.92,0,0,1,5.38,5.55,14.19,14.19,0,0,1,2.1,7.49,5.05,5.05,0,0,1-2.25,4.64c.75-.45.3-.15,1-.6,1.35-.75,2.09-2.4,2.24-4.64a15.7,15.7,0,0,0-2.09-7.49,13.66,13.66,0,0,0-5.39-5.54c-2.09-1.2-3.89-1.2-5.23-.45C757.78,714.92,758.23,714.78,757.48,715.22Z" transform="translate(0 0)"/><path class="cls-8" d="M757.93,723.76a6.31,6.31,0,0,1,2.84,5.25,2.06,2.06,0,0,1-.9,1.94c1.65-.9,3.29-1.94,4.94-2.84.6-.3.9-.9.9-2a6.57,6.57,0,0,0-2.85-5.09c-.89-.45-1.64-.6-2.09-.3-1.65.9-3.29,1.94-4.94,2.84C756.28,723.16,757,723.16,757.93,723.76Z" transform="translate(0 0)"/><path class="cls-20" d="M755.68,722a12.2,12.2,0,0,1,5.54,9.73c0,1.8-.6,3-1.65,3.6.75-.45.6-.3,1.35-.75,1.05-.6,1.65-1.8,1.65-3.6a12.22,12.22,0,0,0-5.54-9.73,4.05,4.05,0,0,0-4-.45c-.75.45-.6.3-1.34.75A4,4,0,0,1,755.68,722Z" transform="translate(0 0)"/><path class="cls-19" d="M755.68,722a12.2,12.2,0,0,1,5.54,9.73c0,3.59-2.54,4.94-5.69,3.15a12.23,12.23,0,0,1-5.53-9.74C750.15,721.52,752.69,720.17,755.68,722Z" transform="translate(0 0)"/><path class="cls-20" d="M782.31,721.22l.45-.3a9,9,0,0,0-.9-5.4l-.44.3A10.11,10.11,0,0,1,782.31,721.22Z" transform="translate(0 0)"/><path class="cls-20" d="M785.46,718.22l.44-.3a7.21,7.21,0,0,0-.44-2.7l-.45.3A9.93,9.93,0,0,1,785.46,718.22Z" transform="translate(0 0)"/><path class="cls-20" d="M791.59,714.63l.45-.3a7.06,7.06,0,0,0-.45-2.7l-.45.3A11.15,11.15,0,0,1,791.59,714.63Z" transform="translate(0 0)"/><path class="cls-20" d="M788.45,716.42l.45-.3a7,7,0,0,0-.45-2.69l-.45.3A6.69,6.69,0,0,1,788.45,716.42Z" transform="translate(0 0)"/><path class="cls-20" d="M773.19,725.26l.45-.3a7,7,0,0,0-.45-2.69l-.45.29A24.67,24.67,0,0,1,773.19,725.26Z" transform="translate(0 0)"/><path class="cls-20" d="M779.32,721.67l.45-.3a7.06,7.06,0,0,0-.45-2.7l-.45.3A11.15,11.15,0,0,1,779.32,721.67Z" transform="translate(0 0)"/><path class="cls-20" d="M776.18,723.46l.45-.3a7,7,0,0,0-.45-2.69l-.45.3A11.05,11.05,0,0,1,776.18,723.46Z" transform="translate(0 0)"/><path class="cls-21" d="M56.2,610.93v2.55a2.22,2.22,0,0,0-1.35-2c-.14-.15-.29-.15-.59-.3a7,7,0,0,0-3.59-.45,6.54,6.54,0,0,0-3.15,1.05,2.09,2.09,0,0,0-.89,1.65v-2.55a2.09,2.09,0,0,1,.89-1.65,5,5,0,0,1,3.15-1,7.23,7.23,0,0,1,3.59.45c.15.15.45.15.59.3A2.6,2.6,0,0,1,56.2,610.93Z" transform="translate(0 0)"/><path class="cls-21" d="M58.15,610.93v2.55a2.9,2.9,0,0,1-.9,1.95v-2.55A2.64,2.64,0,0,0,58.15,610.93Z" transform="translate(0 0)"/><path class="cls-8" d="M52.76,614.83v2.54a10.19,10.19,0,0,1-5.24-.75,3.06,3.06,0,0,1-.74-.45,3.28,3.28,0,0,1-2-2.84v-2.55c0,1.05.6,2,2,2.85a3,3,0,0,1,.74.45A10.19,10.19,0,0,0,52.76,614.83Z" transform="translate(0 0)"/><path class="cls-21" d="M55.45,616v2.54l-.74.15v-2.55Z" transform="translate(0 0)"/><path class="cls-21" d="M60.84,616.62l-.15,2.55-1.35,1.05v-2.55Z" transform="translate(0 0)"/><path class="cls-8" d="M59.34,617.67v2.55l-3.89-1.65V616Z" transform="translate(0 0)"/><path class="cls-8" d="M66.07,622.17v2.54l-2.84-2.24v-2.55Z" transform="translate(0 0)"/><path class="cls-21" d="M79.69,624.56v2.55a2.07,2.07,0,0,0-.9-1.65c-.15-.15-.3-.3-.45-.3a7.29,7.29,0,0,0-6.13-.3,3.33,3.33,0,0,0-1.95,1.8v-2.55c.15-.75.9-1.34,1.95-1.79a7.26,7.26,0,0,1,6.13.3c.15.15.3.15.45.29A2.07,2.07,0,0,1,79.69,624.56Z" transform="translate(0 0)"/><path class="cls-8" d="M81.63,624.56v2.55a.9.9,0,0,1-.15.6v-2.55A.9.9,0,0,0,81.63,624.56Z" transform="translate(0 0)"/><path class="cls-21" d="M54.71,616.17v2.55L42.14,632.5V630Z" transform="translate(0 0)"/><path class="cls-21" d="M68.17,623.81v2.55l-27.38,8.39V632.2Z" transform="translate(0 0)"/><path class="cls-8" d="M81.48,625.16v2.55a4.11,4.11,0,0,1-2.69,2.54A10.65,10.65,0,0,1,70,629.8c-.29-.14-.44-.29-.74-.44a3.07,3.07,0,0,1-1.35-2.25v-2.55a2.64,2.64,0,0,0,1.35,2.25,3.41,3.41,0,0,0,.74.45,11.22,11.22,0,0,0,8.83.45A4.14,4.14,0,0,0,81.48,625.16Z" transform="translate(0 0)"/><path class="cls-21" d="M40.79,632.2v2.55l-1.64,1v-2.55Z" transform="translate(0 0)"/><path class="cls-21" d="M39.15,633.25v2.55H39v-2.55Z" transform="translate(0 0)"/><path class="cls-21" d="M35.56,633.7v2.55c-5.69,1.34-21.25,5.24-21.25,5.24v-2.55S29.87,635.2,35.56,633.7Z" transform="translate(0 0)"/><path class="cls-21" d="M39,634v2.54c0,6.89-11.67,12.29-12.57,12.14v-2.55C27.48,646.28,39,640.89,39,634Z" transform="translate(0 0)"/><path class="cls-20" d="M81.48,625.16a4.14,4.14,0,0,1-2.69,2.55,10.65,10.65,0,0,1-8.83-.45c-.29-.15-.44-.3-.74-.45a2.89,2.89,0,0,1-1.2-3v-.15l-27.53,8.39-1.64.9-.15.15c.75,7.19-11.52,13-12.57,12.73,0,0,6.58-9,9.13-12.28C29.57,634.9,14,638.79,14,638.79c-.44-.6,9.73-7.64,22-7.19h.14l1.65-.9,14.66-15.87a10.14,10.14,0,0,1-5.23-.75,3.28,3.28,0,0,1-.75-.45c-2.4-1.35-2.7-3.45-.75-5.09a8,8,0,0,1,4.49-1.5,11.33,11.33,0,0,1,5.08.75,3.28,3.28,0,0,1,.75.45c2.25,1.34,2.69,3.14,1.05,4.79l.3,2.4,3.14,1.34-1.35,1.05-3.89-1.65h-.59L42,630l23.79-7.34.15-.45-2.85-2.25,1.8-.75,2.24,1.8,4,.15a10.62,10.62,0,0,1,8.08.6c.3.15.45.3.75.45C81.33,623.07,81.78,624.11,81.48,625.16Zm-32.91-12a7.53,7.53,0,0,0,6.73-.6c1.35-1.05,1.2-2.7-.45-3.6-.14-.14-.29-.14-.59-.29a7,7,0,0,0-3.59-.45,6.64,6.64,0,0,0-3.15,1c-1.34,1.05-1.19,2.7.45,3.6C48.27,613,48.42,613.18,48.57,613.18Zm29,13.63a3.33,3.33,0,0,0,2-1.8,2.12,2.12,0,0,0-.9-2.1c-.15-.14-.3-.29-.45-.29a7.29,7.29,0,0,0-6.13-.3,3.31,3.31,0,0,0-2,1.79,2.12,2.12,0,0,0,.9,2.1c.15.15.3.3.45.3A7.3,7.3,0,0,0,77.59,626.81Z" transform="translate(0 0)"/><path class="cls-20" d="M605.92,459.45a2.84,2.84,0,0,0-.65-.39c-.27-.26-.79-.52-1-.79a1.57,1.57,0,0,1-.65-.65,4,4,0,0,1-.65-.91l-.39-.78a1.89,1.89,0,0,1-.26-.79c0-.13-.14-.39-.14-.52s-.13-.65-.13-.91c0,1.82,1.18,3.52,3.4,5,4.69,2.87,12.52,2.87,17.48.13,2.47-1.44,3.78-3.27,3.78-5.22v.52c0,.26-.13.65-.13,1a1,1,0,0,1-.26.53,1,1,0,0,1-.26.52,2.57,2.57,0,0,1-.53.78,2.84,2.84,0,0,1-.52.65l-.39.39a9.21,9.21,0,0,1-1.3,1.05c-.26.13-.53.39-.79.52a2.84,2.84,0,0,0-.65.39c-.26.13-.65.26-.91.39a1.85,1.85,0,0,1-.78.26c-.79.26-1.44.39-1.7.52a14.56,14.56,0,0,1-3.52.4h-1.7c-.65,0-1-.14-1.69-.14a17,17,0,0,1-1.7-.39,1.85,1.85,0,0,1-.78-.26c-.26-.13-.52-.13-.78-.26a1.89,1.89,0,0,0-.79-.26l-.78-.39A1.48,1.48,0,0,1,605.92,459.45Z" transform="translate(0 0)"/><path class="cls-20" d="M602,453.71v-6.92c0,1.83,1.18,3.53,3.4,5,4.69,2.87,12.52,2.87,17.48.13,2.47-1.43,3.78-3.26,3.78-5.22v6.92c0,1.82-1.31,3.78-3.78,5.22-5,2.74-12.79,2.6-17.48-.13C603.18,457.23,602,455.53,602,453.71Z" transform="translate(0 0)"/><path class="cls-68" d="M602,446.79v-16.7c0,1.83,1.18,3.52,3.4,5,4.69,2.87,12.52,2.87,17.48.13,2.47-1.43,3.78-3.26,3.78-5.22v16.7c0,1.83-1.31,3.79-3.78,5.22-5,2.74-12.79,2.61-17.48-.13C603.18,450.45,602,448.62,602,446.79Z" transform="translate(0 0)"/><path class="cls-20" d="M626.66,426.57a1.41,1.41,0,0,0-.13-.65,2.51,2.51,0,0,0-.26-.92,9.56,9.56,0,0,0-1-2.34,6.82,6.82,0,0,0-.78-1.05c-.26-.26-.52-.65-.78-.78l-.52-.52c-.13-.13-.39-.26-.53-.39l-1.17-.79c-.26-.13-.65-.39-.91-.52a1,1,0,0,0-.65-.26,1.93,1.93,0,0,0-.79-.26c-.26-.13-.52-.13-.78-.26a4.62,4.62,0,0,0-1.3-.26,5.45,5.45,0,0,1-.66-.13,5.63,5.63,0,0,1-.65-.13c-.39,0-.91-.13-1.3-.13h-1.31a1,1,0,0,0-.65.13,6.71,6.71,0,0,0-1.43.26,1.84,1.84,0,0,0-.79.26c-.39.13-.91.26-1.3.39s-.65.26-.91.39a2.94,2.94,0,0,1-.66.39,7.26,7.26,0,0,0-1,.65,3.68,3.68,0,0,0-1,.92l-.79.78c-.13.13-.26.39-.39.52s-.39.52-.52.79-.39.52-.52.78a1,1,0,0,0-.26.52,1.85,1.85,0,0,0-.26.78,5.63,5.63,0,0,0-.13.65c0,.27-.13.66-.13.92s-.13.91-.13,1.3c0,1.83,1.17,3.53,3.39,5,4.69,2.87,12.52,2.87,17.48.13,2.47-1.43,3.78-3.26,3.78-5.22A2.21,2.21,0,0,1,626.66,426.57Z" transform="translate(0 0)"/><path class="cls-20" d="M602,430.22v-2.61c0,1.83,1.18,3.53,3.4,5,4.69,2.87,12.52,2.87,17.48.13,2.47-1.43,3.78-3.26,3.78-5.22v2.61c0,1.83-1.31,3.79-3.78,5.22-5,2.74-12.79,2.61-17.48-.13C603.05,433.75,602,431.92,602,430.22Z" transform="translate(0 0)"/><path class="cls-69" d="M619.22,411.57c2.61,1.56,2.61,4.17-.26,5.61a10.81,10.81,0,0,1-9.78-.13c-2.61-1.57-2.61-4.18.26-5.62A10.76,10.76,0,0,1,619.22,411.57Z" transform="translate(0 0)"/><path class="cls-70" d="M605.92,420.05v-4.57c0,1.17.78,2.35,2.35,3.39a13.1,13.1,0,0,0,11.87.13c1.69-.91,2.6-2.22,2.6-3.52v4.57c0,1.3-.91,2.6-2.6,3.52a13.16,13.16,0,0,1-11.87-.13C606.7,422.39,605.92,421.22,605.92,420.05Z" transform="translate(0 0)"/><path class="cls-71" d="M608.79,411.3c.13-.13.26-.13.52-.26s.39-.13.52-.26.78-.26,1-.39a5.89,5.89,0,0,1,.66-.13,5.36,5.36,0,0,0,1.17-.26h3.13a.78.78,0,0,1,.52.13,10.59,10.59,0,0,1,1.18.26c.13,0,.39.13.52.13s.78.26,1,.39a1,1,0,0,1,.52.26,1,1,0,0,0,.53.26.84.84,0,0,0-.79,0,11.22,11.22,0,0,0-9.78-.13c-2.74,1.57-2.87,4.05-.26,5.62a11.22,11.22,0,0,0,9.78.13c2.74-1.57,2.87-4.05.26-5.62a.85.85,0,0,1,.79,0c.13.14.26.14.39.27a2.84,2.84,0,0,1,.65.52,2.9,2.9,0,0,1,.78.91c.13.13.26.39.39.52s.13.4.26.52.13.27.13.53v.78c0,1.3-.91,2.61-2.6,3.52a13.1,13.1,0,0,1-11.87-.13,4,4,0,0,1-2.35-3.39v-.65c0-.13.13-.39.13-.52a5.71,5.71,0,0,1,.65-1.18c.13-.13.26-.39.39-.52a2.84,2.84,0,0,1,.65-.52c.13-.13.4-.26.53-.39S608.66,411.43,608.79,411.3Z" transform="translate(0 0)"/><path class="cls-19" d="M622.35,441.18a14.75,14.75,0,0,1-5.34,1.57v-4.57a18.45,18.45,0,0,1-5.35,0v4.57a15.59,15.59,0,0,1-5.35-1.57v4.44a15,15,0,0,0,5.35,1.56v4.57a18.45,18.45,0,0,0,5.35,0v-4.57a15.74,15.74,0,0,0,5.34-1.56Z" transform="translate(0 0)"/><path class="cls-19" d="M598.87,430.88c0-.27-.13-.66-.13-.92s-.13-.65-.13-.91a9.11,9.11,0,0,0-.65-1.7c-.26-.39-.52-1-.78-1.43a12.82,12.82,0,0,0-1-1.44,7.84,7.84,0,0,0-1-1c-.26-.26-.65-.52-.91-.79a6.8,6.8,0,0,0-1.57-1l-1-.52-.79-.39a12.12,12.12,0,0,0-1.82-.65c-.91-.26-1.7-.4-1.7-.4-.26,0-.52-.13-.78-.13s-.52-.13-.78-.13h-3.13a6.32,6.32,0,0,0-1.57.26c-.65.14-1.43.27-1.83.4s-.52.13-.78.26-.78.26-1,.39l-.78.39a5.11,5.11,0,0,0-1.18.65,10.16,10.16,0,0,0-1.56,1.05,7.93,7.93,0,0,0-1.18,1L571.48,425c-.13.27-.39.53-.52.79s-.39.52-.53.78l-.78,1.57a10.83,10.83,0,0,0-.52,1.95,7.5,7.5,0,0,0-.13,1.7c0,2.22,1.43,4.3,4.17,6,5.74,3.39,15.27,3.52,21.14.26,3-1.69,4.56-3.91,4.56-6.13A1.42,1.42,0,0,0,598.87,430.88Z" transform="translate(0 0)"/><path class="cls-20" d="M599,431.79c0,2.22-1.56,4.44-4.56,6.13-5.87,3.26-15.4,3.26-21.14-.26-2.87-1.7-4.17-3.91-4.17-6v22.83a5.63,5.63,0,0,1,.13.65c.13.26.26.79.39,1.05a3.26,3.26,0,0,0,.52.91l.79,1.17.78.79c.13.13.52.39.65.52a10,10,0,0,1,1.44,1,7.72,7.72,0,0,0,1,.52c.26.13.65.26.91.4a10.57,10.57,0,0,0,1.83.65,3.06,3.06,0,0,0,1,.26,9.16,9.16,0,0,0,2.09.39c.26,0,.78.13,1,.13.66,0,1.44.13,2.09.13H586c.26,0,.78-.13,1-.13a8,8,0,0,0,2.09-.39c.39-.13.78-.13,1-.26a10,10,0,0,0,1.83-.65c.26-.13.78-.27,1-.4a4.46,4.46,0,0,0,.79-.39,12,12,0,0,0,1-.65c.26-.26.65-.52.91-.78a7.43,7.43,0,0,0,1-1.05,4,4,0,0,0,.65-.91c.13-.26.39-.65.52-.91s.39-.78.52-1.18a5.63,5.63,0,0,0,.13-.65,1.41,1.41,0,0,1,.13-.65v-.65Z" transform="translate(0 0)"/><path class="cls-72" d="M587.39,417.44a7.34,7.34,0,0,1-6.78-.13c-1.83-1.05-1.83-2.87.13-3.92a7.34,7.34,0,0,1,6.78.13C589.35,414.7,589.35,416.39,587.39,417.44Z" transform="translate(0 0)"/><path class="cls-73" d="M588,413.52c.14.13.4.26.79.53s.52.52.52.65.13.26.26.39.13.26.13.39a.45.45,0,0,0,.13.26v.52a3,3,0,0,1-1.69,2.35,1.82,1.82,0,0,0-.66-1.3c2-1.05,2-2.87.13-3.92a7.75,7.75,0,0,0-6.78-.13c-2,1-2,2.87-.13,3.92a7.75,7.75,0,0,0,6.78.13,1.61,1.61,0,0,1,.66,1.3,8.7,8.7,0,0,1-8.22-.13,3.14,3.14,0,0,1-1.7-2.35v-.26a.48.48,0,0,1,.13-.39c0-.13.13-.26.13-.52a1.61,1.61,0,0,1,.26-.39l.52-.52c.14-.14.27-.27.4-.27s.13-.13.26-.13.26-.13.39-.26a4.33,4.33,0,0,1,.78-.39c.26-.13.52-.13.78-.26a10.87,10.87,0,0,1,3.27-.26,2.29,2.29,0,0,1,.78.13,2.29,2.29,0,0,0,.78.13,5.11,5.11,0,0,1,.78.26C587.65,413.39,587.91,413.52,588,413.52Z" transform="translate(0 0)"/><path class="cls-74" d="M588.05,418.74a8.7,8.7,0,0,1-8.22-.13,3.14,3.14,0,0,1-1.7-2.35v5.22a2.21,2.21,0,0,0,.52,1.44,2,2,0,0,1-.52-1.44c0,.39,0,.65.13.78l.39.79c.26.39.52.65.66.65a2,2,0,0,0,.78.52,3.84,3.84,0,0,0,.78.39c.26.13.52.13.65.26s.26.13.39.13a5.51,5.51,0,0,0,2,.27A10.69,10.69,0,0,0,586,425c.13,0,.26-.13.39-.13s.52-.13.78-.26.26-.13.39-.13a.42.42,0,0,0,.26-.13c.14-.13.27-.13.4-.26s.26-.26.39-.26a5,5,0,0,0,.65-.78,1.87,1.87,0,0,0,.26-.39c0-.14.13-.27.13-.4s0-.26.13-.26v-5.74C589.87,417.18,589.22,418.09,588.05,418.74Z" transform="translate(0 0)"/><path class="cls-75" d="M596.39,441.05c-9,4.7-17.09,4.57-25.56-.52v14.09c8.61,5.09,16.69,5.22,25.56.52Z" transform="translate(0 0)"/><path class="cls-63" d="M609.31,467.15a15.49,15.49,0,0,0-14.35,0c-3.91,2.34-3.91,6,0,8.35a15.49,15.49,0,0,0,14.35,0C613.35,473.15,613.35,469.49,609.31,467.15Z" transform="translate(0 0)"/><path class="cls-17" d="M595.35,471.45V459.84c0,1.3.91,2.61,2.61,3.65a14.07,14.07,0,0,0,12.91.13c1.83-1,2.87-2.48,2.87-3.91v11.61c0,1.44-.91,2.74-2.87,3.91A14.07,14.07,0,0,1,598,475.1C596.26,474.06,595.35,472.76,595.35,471.45Z" transform="translate(0 0)"/><path class="cls-76" d="M594.57,459.84v-4.31c0,1.44.91,2.87,2.74,4.05,3.78,2.35,10.17,2.35,14.22.13,2.08-1.17,3.13-2.74,3.13-4.18v4.31c0,1.56-1,3-3.13,4.18-4,2.21-10.31,2.21-14.22-.14C595.48,462.71,594.57,461.27,594.57,459.84Z" transform="translate(0 0)"/><path class="cls-19" d="M611.79,451.36c3.78,2.35,3.65,6-.26,8.22s-10.31,2.22-14.22-.13-3.65-6,.26-8.22A16,16,0,0,1,611.79,451.36Z" transform="translate(0 0)"/><rect class="cls-36" x="261" y="437" width="205" height="191"/></svg>