<?xml version="1.0" encoding="utf-8"?>
<!-- Generator: Adobe Illustrator 25.0.0, SVG Export Plug-In . SVG Version: 6.00 Build 0)  -->
<svg version="1.1" id="圖層_1" xmlns="http://www.w3.org/2000/svg" xmlns:xlink="http://www.w3.org/1999/xlink" x="0px" y="0px"
	 viewBox="0 0 375 825" style="enable-background:new 0 0 375 825;" xml:space="preserve">
<style type="text/css">
	.st0{clip-path:url(#SVGID_2_);}
	.st1{fill:#FFFFFF;}
	.st2{clip-path:url(#SVGID_4_);}
	.st3{fill:url(#SVGID_5_);}
	.st4{fill:url(#SVGID_6_);stroke:url(#SVGID_7_);stroke-width:12;}
	.st5{fill-rule:evenodd;clip-rule:evenodd;fill:#F7F7F7;}
	.st6{fill-rule:evenodd;clip-rule:evenodd;fill:url(#SVGID_8_);}
	.st7{fill:url(#SVGID_9_);}
	.st8{fill:#F7F7F7;}
	.st9{fill:url(#SVGID_10_);}
	.st10{fill:url(#SVGID_11_);}
	.st11{fill:#424452;}
	.st12{fill:none;}
	.st13{fill:#EDEDED;}
	.st14{fill:url(#SVGID_12_);}
	.st15{fill:url(#SVGID_13_);}
	.st16{fill:url(#SVGID_14_);}
	.st17{fill:url(#SVGID_15_);}
	.st18{fill:url(#SVGID_16_);}
	.st19{fill:url(#SVGID_17_);}
	.st20{fill:url(#SVGID_18_);}
	.st21{fill:url(#SVGID_19_);}
	.st22{opacity:0.41;fill:#808080;enable-background:new    ;}
	.st23{fill:#EFEFEE;}
	.st24{fill:url(#SVGID_20_);}
	.st25{fill:#608B96;}
	.st26{fill:#919191;}
	.st27{fill:#BFBFBF;}
	.st28{fill:#BC8430;}
	.st29{fill:url(#SVGID_21_);}
	.st30{fill:#8E6424;}
	.st31{fill:#8F6424;}
	.st32{fill:url(#SVGID_22_);}
	.st33{fill:#D9D9D9;}
	.st34{fill:#E5E5E5;}
	.st35{fill:#FDFDFD;}
	.st36{fill:#84B4C2;}
	.st37{fill:#9F9F9F;}
	.st38{fill:url(#SVGID_23_);}
	.st39{fill:url(#SVGID_24_);}
	.st40{fill:url(#SVGID_25_);}
	.st41{fill:url(#SVGID_26_);}
	.st42{fill:url(#SVGID_27_);}
	.st43{fill:url(#SVGID_28_);}
	.st44{fill:url(#SVGID_29_);}
	.st45{fill:url(#SVGID_30_);}
	.st46{fill:url(#SVGID_31_);}
	.st47{fill:#E54332;}
	.st48{fill:url(#SVGID_32_);}
	.st49{fill:url(#SVGID_33_);}
	.st50{fill:#F7BD00;}
	.st51{fill:url(#SVGID_34_);}
	.st52{fill:#698F97;}
	.st53{fill:url(#SVGID_35_);}
	.st54{fill:#9E3E38;}
	.st55{fill:url(#SVGID_36_);}
	.st56{fill:#903933;}
	.st57{fill:#9B9B9B;}
	.st58{fill:#868686;}
	.st59{fill:url(#SVGID_37_);}
	.st60{fill:url(#SVGID_38_);}
	.st61{fill:url(#SVGID_39_);}
	.st62{fill:url(#SVGID_40_);}
	.st63{fill:#913933;}
	.st64{fill:url(#SVGID_41_);}
	.st65{fill:#AAAAAA;}
	.st66{fill:url(#SVGID_42_);}
	.st67{fill:url(#SVGID_43_);}
	.st68{fill:url(#SVGID_44_);}
	.st69{fill:url(#SVGID_45_);}
	.st70{fill:url(#SVGID_46_);}
	.st71{fill:url(#SVGID_47_);}
	.st72{fill:url(#SVGID_48_);}
	.st73{fill:url(#SVGID_49_);}
	.st74{fill:url(#SVGID_50_);}
	.st75{fill:#ACB8CC;}
	.st76{fill:#F64A3A;}
	.st77{fill:url(#SVGID_51_);}
	.st78{fill:#EBEBEB;}
</style>
<g>
	<defs>
		<rect id="SVGID_1_" width="375" height="825"/>
	</defs>
	<clipPath id="SVGID_2_">
		<use xlink:href="#SVGID_1_"  style="overflow:visible;"/>
	</clipPath>
	<g class="st0">
		<rect class="st1" width="375" height="825"/>
		<g>
			<defs>
				<rect id="SVGID_3_" width="1650" height="825"/>
			</defs>
			<clipPath id="SVGID_4_">
				<use xlink:href="#SVGID_3_"  style="overflow:visible;"/>
			</clipPath>
			<g class="st2">
				
					<radialGradient id="SVGID_5_" cx="-771.2178" cy="952.8713" r="1" gradientTransform="matrix(986.978 0 0 -986.978 762000.0625 940875.5625)" gradientUnits="userSpaceOnUse">
					<stop  offset="0" style="stop-color:#F7F7F7"/>
					<stop  offset="1" style="stop-color:#9DC8D3;stop-opacity:0"/>
				</radialGradient>
				<path class="st3" d="M1650,0H0v825h1650V0z"/>
				
					<linearGradient id="SVGID_6_" gradientUnits="userSpaceOnUse" x1="697.4365" y1="826" x2="697.4365" y2="1" gradientTransform="matrix(1 0 0 -1 0 826)">
					<stop  offset="0" style="stop-color:#9DC8D3;stop-opacity:0"/>
					<stop  offset="1" style="stop-color:#9DC8D3"/>
				</linearGradient>
				
					<linearGradient id="SVGID_7_" gradientUnits="userSpaceOnUse" x1="695.7786" y1="826" x2="695.7786" y2="1" gradientTransform="matrix(1 0 0 -1 0 826)">
					<stop  offset="0" style="stop-color:#9DC8D3;stop-opacity:0"/>
					<stop  offset="1" style="stop-color:#9DC8D3"/>
				</linearGradient>
				<path class="st4" d="M1403.5,6H-8.7v235.2l172.8-86.4c0,0,0,0,0,0 M1403.5,6L299,160.2c-36.6-18.3-95.7-18.3-132.1,0l-2.7-5.4
					 M1403.5,6L767.9,323.9h0c-17.2,8.6-40.2,13.1-63.4,13.1c-23.3,0-46.2-4.5-63.3-13.1l0,0l0,0L301.7,154.8 M1403.5,6L301.7,154.8
					 M164.1,154.8c19.3-9.7,44.1-14.3,68.7-14.3c24.6,0,49.5,4.7,68.8,14.3 M164.1,154.8h137.5 M180.5,657.9L180.5,657.9
					c17.2-8.6,40.1-13.1,63.3-13.1s46.1,4.5,63.3,13.1l0,0L629.3,819H-8.7v-66.5L180.5,657.9z"/>
			</g>
		</g>
		<path class="st5" d="M112,624.5c-1.7,0-3-1.3-3-3v-196h76.5h47.1c3.1,14.6,14.6,26.3,29.4,29.5v166.5c0,1.7-1.3,3-3,3H112z
			 M185.5,407.5h47.6c3.7-13.9,14.9-24.6,28.9-27.7V301h18v79.2c17.2,4.5,29.6,20.6,28.7,39.1c-0.8,17.2-12.8,31.3-28.7,35.4v166.9
			c0,11.6-9.4,21-21,21H112c-11.6,0-21-9.4-21-21v-249h18v35H185.5z"/>
		
			<radialGradient id="SVGID_8_" cx="-771.588" cy="937.7851" r="1" gradientTransform="matrix(1865.2644 -43.8623 -0.2242 -9.535 1430086.875 -24387.8223)" gradientUnits="userSpaceOnUse">
			<stop  offset="0" style="stop-color:#F7F7F7;stop-opacity:0"/>
			<stop  offset="1" style="stop-color:#84B4C2"/>
		</radialGradient>
		<path class="st6" d="M112,624.5c-1.7,0-3-1.3-3-3v-196h76.5h47.1c3.1,14.6,14.6,26.3,29.4,29.5v166.5c0,1.7-1.3,3-3,3H112z
			 M185.5,407.5h47.6c3.7-13.9,14.9-24.6,28.9-27.7V301h18v79.2c17.2,4.5,29.6,20.6,28.7,39.1c-0.8,17.2-12.8,31.3-28.7,35.4v166.9
			c0,11.6-9.4,21-21,21H112c-11.6,0-21-9.4-21-21v-249h18v35H185.5z"/>
		
			<linearGradient id="SVGID_9_" gradientUnits="userSpaceOnUse" x1="196.8582" y1="186.2075" x2="200.6052" y2="491.4465" gradientTransform="matrix(1 0 0 -1 0 826)">
			<stop  offset="0" style="stop-color:#84B4C2"/>
			<stop  offset="1" style="stop-color:#84B4C2;stop-opacity:0"/>
		</linearGradient>
		<path class="st7" d="M109,425.5h-1v-1h1V425.5z M232.6,425.5v-1h0.8l0.2,0.8L232.6,425.5z M262,455l0.2-1l0.8,0.2v0.8H262z
			 M233.1,407.5l1,0.3l-0.2,0.7h-0.8V407.5z M262,379.8h1v0.8l-0.8,0.2L262,379.8z M262,301h-1v-1h1V301z M280,301v-1h1v1H280z
			 M280,380.2l-0.3,1L279,381v-0.8H280z M308.7,419.3l-1,0L308.7,419.3z M280,454.6h-1v-0.8l0.7-0.2L280,454.6z M91,372.5h-1v-1h1
			V372.5z M109,372.5v-1h1v1H109z M109,407.5v1h-1v-1H109z M110,621.5c0,1.1,0.9,2,2,2v2c-2.2,0-4-1.8-4-4H110z M110,425.5v196h-2
			v-196H110z M185.5,426.5H109v-2h76.5V426.5z M232.6,426.5h-47.1v-2h47.1V426.5z M261.8,456c-15.2-3.3-26.9-15.3-30.1-30.3l2-0.4
			c3,14.2,14.2,25.6,28.6,28.7L261.8,456z M261,621.5V455h2v166.5H261z M259,623.5c1.1,0,2-0.9,2-2h2c0,2.2-1.8,4-4,4V623.5z
			 M112,623.5h147v2H112V623.5z M233.1,408.5h-47.6v-2h47.6V408.5z M262.2,380.8c-13.6,3-24.6,13.4-28.2,26.9l-1.9-0.5
			c3.8-14.3,15.3-25.2,29.7-28.4L262.2,380.8z M263,301v78.8h-2V301H263z M280,302h-18v-2h18V302z M279,380.2V301h2v79.2H279z
			 M307.7,419.2c0.9-18-11.2-33.7-27.9-38.1l0.5-1.9c17.7,4.6,30.3,21.1,29.4,40.1L307.7,419.2z M279.7,453.7
			c15.4-4,27.1-17.7,27.9-34.5l2,0.1c-0.8,17.7-13.2,32.1-29.4,36.3L279.7,453.7z M279,621.5V454.6h2v166.9H279z M259,641.5
			c11,0,20-9,20-20h2c0,12.2-9.9,22-22,22V641.5z M112,641.5h147v2H112V641.5z M92,621.5c0,11,9,20,20,20v2c-12.2,0-22-9.8-22-22H92
			z M92,372.5v249h-2v-249H92z M109,373.5H91v-2h18V373.5z M108,407.5v-35h2v35H108z M185.5,408.5H109v-2h76.5V408.5z"/>
		<circle class="st8" cx="270" cy="417" r="18"/>
		
			<linearGradient id="SVGID_10_" gradientUnits="userSpaceOnUse" x1="41.7006" y1="714.6102" x2="195.2573" y2="610.0872" gradientTransform="matrix(1 0 0 -1 0 826)">
			<stop  offset="0.1094" style="stop-color:#F5C25B"/>
			<stop  offset="0.3125" style="stop-color:#F59E5B"/>
		</linearGradient>
		<path class="st9" d="M52.3,141.1l124.1-71.8c7-3.9,13.5-4.4,18.3-1.3l15.7,8.7l-5.7,51.8c0,20.5-12.6,44.8-28.3,53.5L47.1,262.6
			l-12.6-7c0,0,0,0-0.4,0l-0.4-0.4c-5.7-3.5-9.6-11.3-9.6-22.6v-37.9C24,174.2,36.6,149.8,52.3,141.1z"/>
		
			<linearGradient id="SVGID_11_" gradientUnits="userSpaceOnUse" x1="219" y1="655.7133" x2="38.3647" y2="655.7133" gradientTransform="matrix(1 0 0 -1 0 826)">
			<stop  offset="0" style="stop-color:#F3E5A5"/>
			<stop  offset="1" style="stop-color:#F4C15B"/>
		</linearGradient>
		<path class="st10" d="M190.7,190.7L66.7,262.6c-15.7,9.1-28.3-0.4-28.3-21.3v-37.9c0-20.5,12.6-44.8,28.3-53.5L190.7,78
			c15.7-9.1,28.3,0.4,28.3,21.3v37.9C219,157.7,206.4,182,190.7,190.7z"/>
		<path class="st11" d="M80.5,199.5l-10.7,5.8c-0.6,0.3-1.1,0.4-1.5,0.1c-0.4-0.3-0.6-0.7-0.7-1.4l-0.5-12c0-0.7,0.1-1.4,0.5-2
			c0.4-0.7,0.9-1.2,1.5-1.5l10.9-5.9c0.4-0.2,0.7-0.2,0.9-0.1c0.3,0.1,0.4,0.4,0.4,0.8c0,0.4-0.1,0.8-0.3,1.2
			c-0.2,0.4-0.5,0.7-0.9,0.9l-5.6,3c-0.2,0.1-0.2,0.2-0.1,0.3c0.1,0.1,0.2,0.2,0.2,0.4c0.1,0.1,0.1,0.2,0.2,0.1l3.5-1.9
			c0.3-0.2,0.6-0.2,0.8-0.1c0.2,0.1,0.3,0.4,0.4,0.7c0,0.3-0.1,0.7-0.3,1.1c-0.2,0.4-0.5,0.6-0.8,0.8l-1.7,0.9
			c-0.1,0.1-0.2,0.2-0.2,0.4l0,0.7c0,0.2,0.1,0.2,0.2,0.1l2.7-1.5c0.3-0.2,0.6-0.2,0.8-0.1c0.2,0.1,0.3,0.4,0.4,0.7
			c0,0.3-0.1,0.7-0.3,1.1c-0.2,0.4-0.5,0.6-0.8,0.8l-1.1,0.6c-0.1,0.1-0.2,0.1-0.2,0.2c0,0.1,0,0.1,0.1,0.1c0.2,0.1,0.4,0.2,0.6,0.3
			c0.2,0.1,0.4,0.2,0.6,0.4c0.2,0.1,0.3,0.3,0.3,0.6c0,0.4-0.1,0.8-0.5,1.3c-0.2,0.3-0.4,0.5-0.7,0.7c-0.4,0.2-0.7,0.2-0.9,0
			c-0.3-0.2-0.6-0.3-1-0.4c-0.3-0.1-0.7-0.3-1-0.4c-0.1,0-0.2,0.1-0.3,0.2c-0.8,1.4-1.8,2.8-3.1,4.1c-0.1,0.1-0.1,0.2-0.1,0.2
			c0,0,0.1,0,0.2,0l7.7-4.2c0.6-0.3,1-0.2,1.2,0.3c0.1,0.1,0.1,0.1,0.1-0.1c0.2-0.6,0.5-1.1,1-1.5c0.5-0.4,1-0.7,1.5-1.1
			c0.5-0.4,0.9-0.8,1.4-1.2c0.2-0.2,0.2-0.3,0-0.3c-0.3-0.1-0.5-0.1-0.8-0.2c-0.2,0-0.3-0.1-0.4-0.3c-0.1-0.2-0.1-0.4-0.1-0.5
			c0-0.5,0.1-0.9,0.4-1.4c0,0,0,0,0-0.1c0-0.1,0-0.2-0.1-0.1l-1.1,0.6c-0.4,0.2-0.7,0.2-0.9,0.1c-0.2-0.2-0.4-0.4-0.4-0.8
			s0.1-0.8,0.3-1.2c0.2-0.4,0.5-0.7,0.9-0.9l9.7-5.3c-0.9,0.5-1.7,0.6-2.3,0.3c-0.6-0.3-0.9-1-1-1.9l0-0.8c0-0.2-0.1-0.2-0.2-0.1
			l-2.7,1.5c-0.1,0.1-0.2,0.2-0.2,0.3c-0.8,2.5-2.2,4.7-4.2,6.7c-0.1,0.2-0.3,0.3-0.5,0.4c-0.3,0.2-0.6,0.2-0.9,0.1
			c-0.3-0.1-0.4-0.4-0.5-0.9c0-0.8,0.3-1.5,0.9-2.2c0.9-0.9,1.7-2,2.2-3.3c0.7-1.7,1.6-2.8,2.5-3.3l4.4-2.4c0.5-0.3,1-0.3,1.4-0.1
			c0.4,0.2,0.6,0.6,0.6,1.3l0.1,1.4c0,0.1,0.1,0.1,0.2,0.2c0.1,0,0.2,0,0.3-0.1l1.7-0.9c0.4-0.2,0.7-0.2,1-0.1
			c0.3,0.1,0.4,0.4,0.4,0.8c0,0.4-0.1,0.9-0.3,1.3c-0.2,0.4-0.6,0.8-0.9,1l-1.8,1c0.4-0.2,0.8-0.3,1.1-0.1c0.3,0.2,0.5,0.5,0.5,0.9
			c0,0.2,0,0.5-0.1,0.8c-0.3,0.8-0.7,1.7-1.2,2.5c-0.4,0.8-0.9,1.7-1.5,2.5c-0.2,0.2-0.1,0.3,0,0.3c0.5-0.1,1.1-0.2,1.6-0.4
			c0.6-0.1,1.1-0.3,1.7-0.6c0.4-0.2,0.7-0.2,0.9,0c0.3,0.2,0.4,0.4,0.4,0.9c0,0.4-0.1,0.9-0.3,1.3c-0.2,0.4-0.6,0.7-1,0.9
			c-1.1,0.5-2.2,0.8-3.3,1c-1.1,0.2-2.1,0.3-3,0.4c-0.1,0-0.2,0.1-0.3,0.2c-1,1-1.9,2-2.9,2.9c-0.9,0.8-1.8,1.6-2.6,2.2
			c-0.3,0.2-0.6,0.3-0.9,0.3c-0.3,0-0.5-0.2-0.6-0.5c-0.1-0.1-0.1-0.1-0.1,0C81.5,198.6,81.1,199.1,80.5,199.5z M72.8,189.6
			c0.1-0.2,0.1-0.2-0.1-0.1l-2.5,1.4c-0.1,0.1-0.2,0.2-0.2,0.4l0.2,5c0,0.2,0.1,0.2,0.1,0c0.1-0.3,0.3-0.6,0.6-0.9
			c0.1-0.1,0.1-0.1,0.1-0.1c0,0,0,0-0.1,0c-0.2,0-0.3-0.1-0.4-0.4c0-0.1-0.1-0.1-0.1-0.2c0-0.1,0-0.2,0-0.2c0-0.5,0.1-0.9,0.5-1.4
			c0.8-1.1,1.4-2.1,1.8-3.1C72.6,189.9,72.7,189.8,72.8,189.6z M71.5,194.8l2.5-1.3c0.1-0.1,0.2-0.2,0.2-0.4l0-0.7
			c0-0.2-0.1-0.2-0.2-0.1l-0.8,0.5c-0.1,0.1-0.2,0.1-0.2,0.3c-0.4,0.6-0.8,1.2-1.2,1.6C71.6,194.8,71.6,194.8,71.5,194.8z
			 M72.8,197.1c0.1-0.1,0.1-0.2,0.1-0.2c0-0.1-0.1-0.1-0.2,0l-1.4,0.8c-0.4,0.2-0.8,0.2-1-0.1c-0.1-0.1-0.1,0-0.1,0.1l0.1,2
			c0,0.2,0.1,0.2,0.3,0c0.2-0.3,0.3-0.5,0.5-0.6C71.7,198.4,72.3,197.7,72.8,197.1z M86.9,189c0.3,0.1,0.6,0.1,0.9,0.2
			c0.3,0,0.7,0.1,1,0.2c0.1,0,0.2-0.1,0.3-0.2c0.3-0.4,0.6-0.8,0.9-1.2c0.3-0.4,0.5-0.8,0.7-1.1c0.1-0.1,0.1-0.2,0.1-0.2
			c0-0.1-0.1-0.1-0.2,0l-3.5,1.9c-0.1,0.1-0.2,0.1-0.2,0.2C86.8,188.9,86.8,189,86.9,189z M70.5,201.7c-0.1-0.1-0.2-0.1-0.2,0.1
			l0,0.1c0,0.2,0.1,0.2,0.2,0.1C70.7,201.9,70.7,201.8,70.5,201.7z M68.2,206.4l27.1-14.7c0.4-0.2,0.7-0.2,0.9-0.1
			c0.3,0.2,0.4,0.4,0.4,0.8c0,0.4-0.1,0.9-0.3,1.3c-0.2,0.4-0.5,0.7-0.9,0.9l-10,5.4c-0.1,0.1-0.2,0.2-0.2,0.4l0,0.3
			c0,0.2,0.1,0.2,0.2,0.1l7-3.8c0.6-0.3,1.1-0.3,1.5-0.1c0.4,0.2,0.7,0.7,0.7,1.3l0.4,8.5c0,0.7-0.2,1.4-0.6,2.1
			c-0.4,0.7-0.9,1.2-1.4,1.5L72,221.8c-0.6,0.3-1.1,0.4-1.5,0.1c-0.4-0.3-0.6-0.7-0.7-1.4l-0.4-8.5c0-0.7,0.1-1.3,0.5-2
			c0.4-0.7,0.9-1.2,1.5-1.5l5.7-3.1c0.1-0.1,0.2-0.2,0.2-0.3c0-0.2,0.1-0.3,0.1-0.4l0-0.1c0-0.1-0.1-0.2-0.2-0.1l-8.9,4.8
			c-0.4,0.2-0.7,0.2-1,0.1c-0.2-0.2-0.4-0.5-0.4-0.9c0-0.4,0.1-0.8,0.3-1.2C67.6,206.9,67.9,206.6,68.2,206.4z M80.4,203.4
			c0,0.2,0,0.2,0.2,0.1l1.6-0.9c0.1-0.1,0.2-0.2,0.2-0.4l0-0.3c0-0.2-0.1-0.2-0.2-0.1l-1.5,0.8c-0.2,0.1-0.2,0.2-0.2,0.4L80.4,203.4
			z M75.6,209.5c0.1-0.1,0.1-0.2,0.1-0.2c0-0.1-0.1-0.1-0.2,0l-2.9,1.6c-0.1,0.1-0.2,0.2-0.2,0.4l0.2,4.1c0,0.2,0.1,0.2,0.2,0.1
			l0.6-0.3c0.2-0.1,0.2-0.2,0.1-0.3c-0.3-0.1-0.5-0.4-0.5-0.9c0-0.9,0.3-1.6,1-2.4C74.5,210.9,75.1,210.2,75.6,209.5z M91.6,205.2
			c0.1-0.1,0.2-0.2,0.2-0.4l-0.2-4.1c0-0.2-0.1-0.2-0.2-0.1l-5.9,3.2c-0.1,0.1-0.2,0.2-0.2,0.4l0,0.3c0,0.3,0.1,0.4,0.3,0.5
			c0.2,0.1,0.4,0,0.6-0.1l3.8-2.1c0.4-0.2,0.7-0.2,0.9,0c0.3,0.1,0.4,0.4,0.4,0.8c0,0.4-0.1,0.8-0.3,1.2c-0.2,0.4-0.5,0.7-0.9,0.9
			l-3.8,2.1c-1.1,0.6-2,0.7-2.7,0.4c-0.7-0.3-1.1-1.1-1.1-2.2l0-0.3c0-0.2-0.1-0.2-0.2-0.1l-2.5,1.4c-0.1,0.1-0.2,0.2-0.2,0.3
			c-0.4,1.1-1,2.3-1.7,3.4c-0.7,1.1-1.5,2.1-2.4,3.1c-0.1,0.1-0.1,0.2-0.1,0.2c0,0,0.1,0,0.2,0L91.6,205.2z M72.9,217.8
			c-0.1,0.1-0.2,0.2-0.2,0.4l0,0c0,0.2,0.1,0.2,0.2,0.1l18.8-10.2c0.1-0.1,0.2-0.2,0.2-0.4l0,0c0-0.2-0.1-0.2-0.2-0.1L72.9,217.8z
			 M114.5,178.7c-0.3,0.5-0.6,0.8-1,1c-0.4,0.2-0.8,0.2-1.2,0c-0.2-0.1-0.4-0.4-0.4-0.8c0-0.5,0.1-1,0.4-1.5
			c1.3-2.2,2.3-4.6,2.8-7.1c0.3-1.1,0.8-1.9,1.7-2.4c0.4-0.2,0.7-0.2,1-0.1c0.3,0.2,0.4,0.4,0.4,0.8c0,0.1,0,0.3-0.1,0.4l-0.2,0.7
			c0,0.2,0,0.3,0.2,0.2l3.4-1.9c0.1-0.1,0.2-0.2,0.2-0.3l0.5-1.8c0.2-0.7,0.5-1.2,1-1.7c0.1-0.2,0.2-0.3,0.1-0.3
			c-0.1-0.1-0.2-0.2-0.3-0.4c-0.1-0.1-0.1-0.1-0.2-0.1l-2.2,1.2c-0.1,0.1-0.2,0.2-0.2,0.3c-0.2,0.9-0.6,1.6-1.4,2s-1.2,0.3-1.5-0.4
			c-0.1-0.1-0.1-0.1-0.2-0.1l-4.1,2.2c-0.4,0.2-0.7,0.2-1,0.1c-0.3-0.2-0.5-0.5-0.5-0.9c0-0.4,0.1-0.9,0.4-1.3c0.3-0.5,0.6-0.8,1-1
			l4.1-2.2c0.1-0.1,0.2-0.2,0.2-0.3c0.2-0.9,0.6-1.6,1.4-2s1.2-0.3,1.5,0.4c0.1,0.1,0.1,0.1,0.2,0.1l2.2-1.2
			c0.1-0.1,0.2-0.2,0.2-0.3c0.2-0.9,0.6-1.6,1.4-2c0.8-0.4,1.2-0.3,1.5,0.4c0.1,0.1,0.1,0.1,0.2,0.1l3.7-2c0.4-0.2,0.7-0.2,1-0.1
			c0.3,0.2,0.5,0.5,0.5,0.9c0,0.4-0.1,0.9-0.4,1.4c-0.2,0.5-0.6,0.8-1,1l-3.7,2c-0.1,0.1-0.2,0.2-0.2,0.3c0,0.3-0.1,0.6-0.3,0.9
			c-0.2,0.2-0.3,0.5-0.5,0.7c-0.1,0.1-0.1,0.2,0,0.3c0.2,0.2,0.3,0.4,0.3,0.7c0,0.1,0,0.3-0.1,0.5c-0.1,0.3-0.1,0.5-0.2,0.8
			c-0.1,0.2,0,0.3,0.2,0.2l4.9-2.6c0.4-0.2,0.7-0.2,0.9-0.1c0.3,0.1,0.4,0.4,0.5,0.8c0,0.4-0.1,0.8-0.3,1.3c-0.2,0.4-0.6,0.8-0.9,1
			l-5.7,3.1c-0.1,0.1-0.2,0.2-0.2,0.4l0,0.4c0,0.2,0.1,0.2,0.2,0.1l5-2.7c0.3-0.2,0.6-0.2,0.9,0c0.3,0.1,0.4,0.4,0.4,0.8
			c0,0.4-0.1,0.8-0.3,1.2c-0.2,0.4-0.5,0.7-0.9,0.9l-5,2.7c-0.1,0.1-0.2,0.2-0.2,0.4l0,0.4c0,0.2,0.1,0.2,0.2,0.1l5-2.7
			c0.3-0.2,0.6-0.2,0.9,0c0.3,0.1,0.4,0.4,0.4,0.8c0,0.4-0.1,0.8-0.3,1.2c-0.2,0.4-0.5,0.7-0.9,0.9l-5,2.7c-0.1,0.1-0.2,0.2-0.2,0.4
			l0,0.4c0,0.2,0.1,0.2,0.2,0.1l5.7-3.1c0.4-0.2,0.7-0.2,1,0c0.3,0.2,0.4,0.4,0.4,0.8c0,0.4-0.1,0.8-0.3,1.2c-0.2,0.4-0.6,0.8-0.9,1
			l-13.6,7.4c-0.6,0.3-1.1,0.4-1.5,0.1c-0.4-0.3-0.7-0.7-0.7-1.4l-0.2-5.3c0-0.3-0.1-0.3-0.3,0L114.5,178.7z M110.2,170.1l-6.5,3.5
			c-0.4,0.2-0.8,0.2-1.1,0.1c-0.3-0.2-0.5-0.5-0.5-1c0-0.5,0.1-0.9,0.4-1.4c0.3-0.5,0.6-0.9,1.1-1.1l6.5-3.5
			c0.4-0.2,0.8-0.2,1.1-0.1c0.3,0.2,0.5,0.5,0.5,1c0,0.5-0.1,0.9-0.4,1.4C110.9,169.6,110.6,169.9,110.2,170.1z M111.3,175l-8.2,4.5
			c-0.4,0.2-0.8,0.2-1.1,0.1c-0.3-0.2-0.5-0.5-0.5-1c0-0.5,0.1-0.9,0.4-1.4c0.3-0.5,0.6-0.9,1-1.1l8.2-4.5c0.4-0.2,0.7-0.2,1,0
			c0.3,0.2,0.5,0.5,0.5,0.9c0,0.5-0.1,0.9-0.4,1.4C112,174.4,111.7,174.8,111.3,175z M117.7,173.9c0,0.2,0.1,0.2,0.2,0.1l3.4-1.9
			c0.1-0.1,0.2-0.2,0.2-0.4l0-0.4c0-0.2-0.1-0.2-0.2-0.1l-3.4,1.9c-0.1,0.1-0.2,0.2-0.2,0.4L117.7,173.9z M104.1,180.9l6.2-3.4
			c0.4-0.2,0.8-0.2,1.1-0.1c0.3,0.2,0.5,0.5,0.5,0.9c0,0.5-0.1,0.9-0.4,1.4c-0.3,0.5-0.6,0.9-1,1.1l-6.2,3.4
			c-0.4,0.2-0.8,0.3-1.1,0.1c-0.3-0.2-0.5-0.5-0.5-1c0-0.5,0.1-0.9,0.4-1.4C103.4,181.5,103.7,181.1,104.1,180.9z M117.9,177.7
			c0,0.2,0.1,0.2,0.2,0.1l3.4-1.9c0.1-0.1,0.2-0.2,0.2-0.4l0-0.4c0-0.2-0.1-0.2-0.2-0.1l-3.4,1.9c-0.1,0.1-0.2,0.2-0.2,0.4
			L117.9,177.7z M104.4,186.3l6.2-3.4c0.4-0.2,0.8-0.2,1.1-0.1c0.3,0.2,0.5,0.5,0.5,1c0,0.5-0.1,1-0.4,1.5c-0.3,0.5-0.6,0.8-1,1.1
			l-6.2,3.4c-0.4,0.2-0.8,0.3-1.1,0.1c-0.3-0.2-0.5-0.5-0.5-1c0-0.5,0.1-1,0.4-1.4C103.6,186.8,104,186.5,104.4,186.3z M118,181.4
			c0,0.2,0.1,0.2,0.2,0.1l3.4-1.9c0.1-0.1,0.2-0.2,0.2-0.4l0-0.4c0-0.2-0.1-0.2-0.2-0.1l-3.4,1.9c-0.1,0.1-0.2,0.2-0.2,0.4
			L118,181.4z M105.2,191.3l4.9-2.7c0.6-0.3,1.2-0.4,1.6-0.1c0.5,0.3,0.8,0.8,0.8,1.5l0.3,7.1c0,0.7-0.2,1.4-0.6,2.2
			c-0.4,0.8-1,1.3-1.6,1.7l-4.9,2.7c-0.7,0.4-1.2,0.4-1.7,0.1c-0.5-0.3-0.7-0.8-0.7-1.5l-0.3-7.1c0-0.7,0.2-1.5,0.6-2.2
			C104,192.2,104.6,191.7,105.2,191.3z M131.4,186.2c0.4-0.2,0.8-0.2,1.1,0.1c0.3,0.2,0.5,0.6,0.5,1c0,0.5-0.1,1-0.4,1.5
			c-0.3,0.5-0.6,0.8-1,1c-1.6,0.7-3.2,1.2-4.6,1.6c-1.4,0.4-2.8,0.7-4,0.7c-0.1,0-0.2,0-0.3,0.2c-1.4,1.4-2.8,2.6-4.2,3.7
			c-1.3,1.1-2.6,2.1-3.6,2.8c-0.4,0.3-0.8,0.3-1.1,0.2c-0.3-0.1-0.5-0.4-0.5-0.9c0-0.5,0.1-1,0.3-1.5c0.3-0.5,0.6-0.9,1-1.3
			c0.7-0.5,1.5-1.1,2.2-1.6c0.7-0.6,1.4-1.1,2.1-1.7c0.2-0.2,0.2-0.3,0-0.3c-0.1-0.1-0.2-0.1-0.4-0.2c-0.1-0.1-0.2-0.1-0.3-0.1
			c-0.3-0.2-0.5-0.5-0.5-0.9c0-0.4,0.1-0.9,0.4-1.3c0.1-0.2,0.2-0.3,0.2-0.3c0.2-0.3,0.2-0.3,0-0.2l-3.3,1.8
			c-0.4,0.2-0.8,0.2-1.1,0.1c-0.3-0.2-0.5-0.5-0.5-0.9c0-0.5,0.1-0.9,0.4-1.4c0.3-0.5,0.6-0.9,1-1.1l15-8.2c0.4-0.2,0.7-0.2,1-0.1
			c0.3,0.2,0.4,0.4,0.4,0.8c0,0.3-0.1,0.6-0.2,0.9c-0.5,1.2-1.1,2.4-1.9,3.6c-0.7,1.2-1.5,2.3-2.3,3.4c-0.2,0.2-0.2,0.3,0,0.3
			c0.7-0.2,1.4-0.4,2.1-0.7C129.7,186.9,130.5,186.6,131.4,186.2z M106.2,199.8c0,0.2,0.1,0.2,0.2,0.1l3.2-1.8
			c0.1-0.1,0.2-0.2,0.2-0.4l-0.2-5.4c0-0.2-0.1-0.2-0.2-0.1l-3.2,1.8c-0.1,0.1-0.2,0.2-0.2,0.4L106.2,199.8z M120,188
			c0.4,0.1,0.8,0.2,1.2,0.3c0.4,0,0.8,0.1,1.2,0.1c0.1,0,0.2-0.1,0.3-0.2c0.5-0.6,1-1.2,1.5-1.7c0.5-0.6,0.9-1.1,1.3-1.6
			c0.1-0.1,0.1-0.2,0.1-0.2c0-0.1-0.1-0.1-0.2,0l-5.4,3C119.7,187.8,119.7,187.9,120,188C119.9,188,120,188,120,188z M165.8,160.4
			c-0.1,0.1-0.1,0.2-0.1,0.2c0,0,0.1,0,0.2,0l0.2-0.1c0.4-0.2,0.7-0.2,1-0.1c0.3,0.2,0.5,0.5,0.5,0.9c0,0.5-0.1,0.9-0.4,1.4
			c-0.3,0.5-0.6,0.8-1,1l-5.5,3c-0.1,0.1-0.2,0.2-0.2,0.4l0.1,2c0.1,1.2-0.2,2.4-0.7,3.4c-0.5,1.1-1.2,2-2.1,2.8
			c-0.9,0.8-1.7,1.5-2.7,2c-0.3,0.1-0.5,0.3-0.8,0.3c-0.3,0.1-0.5,0.2-0.8,0.3c-0.4,0.1-0.7,0.1-0.9-0.2c-0.2-0.2-0.4-0.5-0.4-1
			c0-0.6,0.1-1.2,0.5-1.7c0.4-0.6,0.8-1,1.4-1.1c0.3-0.1,0.6-0.2,0.8-0.3c0.3-0.1,0.5-0.2,0.7-0.4c1.3-0.7,1.9-1.5,1.9-2.5l-0.1-2
			c0-0.2-0.1-0.2-0.2-0.1l-10.4,5.7c-0.1,0.1-0.2,0.1-0.2,0.2c0,0.1,0,0.1,0.1,0.1c0.1,0,0.3,0.1,0.4,0.3c0.4,0.4,0.8,0.8,1.1,1.3
			c0.4,0.5,0.7,0.9,1,1.4c0.1,0.2,0.2,0.4,0.2,0.6c0,0.3-0.1,0.6-0.2,1c-0.1,0.3-0.3,0.7-0.6,0.9c-0.1,0.1-0.2,0.2-0.3,0.2
			c-0.1,0.1-0.2,0.2-0.3,0.3c-0.6,0.3-1.1,0.3-1.4-0.2c-0.6-0.9-1.3-1.7-2.1-2.4c-0.2-0.2-0.3-0.5-0.4-0.8c0-0.5,0.1-0.9,0.4-1.3
			c0.1-0.2,0.1-0.3,0-0.2l-5.5,3c-0.4,0.2-0.7,0.2-1,0.1c-0.3-0.2-0.5-0.5-0.5-0.9c0-0.5,0.1-0.9,0.4-1.4c0.3-0.5,0.6-0.8,1-1
			l18.3-9.9c0.1-0.1,0.2-0.2,0.2-0.4l0-0.4c0-0.5,0.1-1,0.5-1.6c0.1-0.1,0.1-0.1,0.1-0.2c0-0.1-0.1,0-0.1,0
			c-2.1,1.4-4.3,2.8-6.5,4.1c-2.2,1.3-4.3,2.6-6.3,3.7c-2,1.1-3.7,2.1-5.1,3c-0.4,0.2-0.8,0.2-1.1,0.1c-0.3-0.2-0.5-0.5-0.5-1
			c0-0.5,0.1-0.9,0.4-1.4c0.3-0.5,0.6-0.9,1-1.1c1.3-0.8,2.9-1.7,4.8-2.8c1.9-1.1,3.9-2.3,6-3.6c0.1-0.1,0.2-0.2,0.2-0.4l-0.1-1.4
			c0-0.2-0.1-0.2-0.2-0.1l-6.8,3.7c-0.6,0.3-1.2,0.4-1.7,0.1c-0.5-0.3-0.7-0.8-0.7-1.5l-0.2-5.8c0-0.7,0.2-1.5,0.6-2.2
			c0.4-0.8,1-1.3,1.6-1.7l6.8-3.7c0.1-0.1,0.2-0.2,0.2-0.4l0-0.6c0-0.2-0.1-0.2-0.2-0.1l-11.8,6.4c-0.4,0.2-0.7,0.2-1,0.1
			c-0.3-0.2-0.4-0.5-0.4-0.9c0-0.5,0.1-0.9,0.3-1.3c0.3-0.5,0.6-0.8,1-1l11.8-6.4c0.1-0.1,0.2-0.2,0.2-0.4l0-0.5
			c0-0.5,0.1-1,0.4-1.4c0.3-0.5,0.6-0.9,1.1-1.1c0.4-0.2,0.8-0.2,1.1-0.1c0.3,0.2,0.5,0.5,0.5,1l0,0.5c0,0.2,0.1,0.2,0.2,0.1
			l11.8-6.4c0.4-0.2,0.7-0.2,1-0.1c0.3,0.1,0.4,0.4,0.5,0.9c0,0.4-0.1,0.9-0.4,1.3c-0.2,0.5-0.6,0.8-1,1l-11.8,6.4
			c-0.1,0.1-0.2,0.2-0.2,0.4l0,0.6c0,0.2,0.1,0.2,0.2,0.1l6.9-3.7c0.6-0.3,1.2-0.4,1.6-0.1c0.5,0.3,0.7,0.8,0.8,1.5l0.2,5.8
			c0,0.6-0.1,1.3-0.5,2.1c-0.1,0.2-0.1,0.3,0.1,0.2c0.5-0.1,0.8,0,1.1,0.3c0.4,0.5,0.9,1,1.3,1.6c0.4,0.6,0.8,1.2,1.2,1.7
			c0.1,0.1,0.1,0.3,0.1,0.6C166.1,159.5,166,159.9,165.8,160.4z M150,155.1c0.1-0.1,0.2-0.2,0.2-0.4l0-0.8c0-0.2-0.1-0.2-0.2-0.1
			l-6,3.3c-0.1,0.1-0.2,0.2-0.2,0.4l0,0.8c0,0.2,0.1,0.2,0.2,0.1L150,155.1z M159.6,149.9c0.1-0.1,0.2-0.2,0.2-0.4l0-0.8
			c0-0.2-0.1-0.2-0.2-0.1l-6,3.3c-0.1,0.1-0.2,0.2-0.2,0.4l0,0.8c0,0.2,0.1,0.2,0.2,0.1L159.6,149.9z M144.1,161.1
			c-0.1,0.1-0.2,0.2-0.2,0.4l0,0.8c0,0.2,0.1,0.2,0.2,0.1l6-3.3c0.1-0.1,0.2-0.2,0.2-0.4l0-0.8c0-0.2-0.1-0.2-0.2-0.1L144.1,161.1z
			 M159.7,153.9c0.1-0.1,0.2-0.2,0.2-0.4l0-0.8c0-0.2-0.1-0.2-0.2-0.1l-6,3.3c-0.1,0.1-0.2,0.2-0.2,0.4l0,0.8c0,0.2,0.1,0.2,0.2,0.1
			L159.7,153.9z M160.5,156.8c0.1-0.2,0-0.3-0.2-0.2l-6.5,3.5c-0.1,0.1-0.2,0.2-0.2,0.4l0,1.2c0,0.2,0.1,0.2,0.2,0.1
			c1.1-0.7,2.1-1.3,3.2-2c1.1-0.7,2.1-1.4,3.1-2c0.1-0.1,0.2-0.2,0.2-0.4C160.4,157.1,160.4,157,160.5,156.8z M159.5,161.6
			c-0.2,0.2-0.2,0.2,0,0.3c0.5,0.1,0.7,0.4,0.8,1.1l0,0.4c0,0.2,0.1,0.2,0.2,0.1l3-1.6c0.1-0.1,0.1-0.1,0.1-0.2c0-0.1,0-0.1-0.1-0.1
			c-0.2,0-0.3-0.2-0.4-0.4c-0.3-0.5-0.5-0.9-0.8-1.2c0-0.1-0.1-0.1-0.3,0L159.5,161.6z M201.5,151.1l-25,13.6
			c-0.6,0.3-1.1,0.4-1.5,0.1c-0.4-0.3-0.7-0.7-0.7-1.4l-1.2-28.3c0-0.7,0.2-1.4,0.6-2.1c0.4-0.7,0.9-1.2,1.5-1.5l24.7-13.4
			c0.4-0.2,0.8-0.2,1.1-0.1c0.3,0.2,0.5,0.5,0.5,1c0,0.5-0.1,0.9-0.4,1.4c-0.3,0.5-0.6,0.9-1,1.1l-23.5,12.8
			c-0.1,0.1-0.2,0.2-0.2,0.4l1.1,25.8c0,0.2,0.1,0.2,0.2,0.1l23.7-12.9c0.4-0.2,0.8-0.3,1.1-0.1c0.3,0.2,0.5,0.5,0.5,1
			c0,0.5-0.1,1-0.4,1.5C202.3,150.5,201.9,150.9,201.5,151.1z M193.7,137l-8.6,4.7c-0.6,0.3-1.2,0.4-1.7,0.1
			c-0.5-0.3-0.7-0.8-0.7-1.5l-0.2-4.4c0-0.7,0.2-1.5,0.6-2.2c0.4-0.8,1-1.3,1.6-1.7l8.6-4.7c0.6-0.3,1.2-0.4,1.6-0.1
			c0.5,0.3,0.7,0.7,0.8,1.5l0.2,4.4c0,0.7-0.2,1.5-0.6,2.2C194.9,136.1,194.3,136.6,193.7,137z M185.7,134.8
			c-0.1,0.1-0.2,0.2-0.2,0.4l0.1,2.6c0,0.2,0.1,0.2,0.2,0.1l6.9-3.7c0.1-0.1,0.2-0.2,0.2-0.4l-0.1-2.6c0-0.2-0.1-0.2-0.2-0.1
			L185.7,134.8z M186.8,153.8l-5.8,3.1c-0.6,0.3-1.2,0.4-1.7,0.1c-0.5-0.3-0.7-0.8-0.7-1.5l-0.2-5.5c0-0.7,0.2-1.5,0.6-2.2
			c0.4-0.8,1-1.4,1.6-1.7l5.8-3.1c0.6-0.3,1.2-0.4,1.7-0.1c0.5,0.3,0.8,0.7,0.8,1.5l0.2,5.5c0,0.7-0.2,1.5-0.6,2.2
			C188,152.9,187.4,153.4,186.8,153.8z M198.8,147.2l-5.9,3.2c-0.6,0.3-1.2,0.4-1.7,0.1c-0.5-0.3-0.7-0.8-0.7-1.5l-0.2-5.5
			c0-0.7,0.2-1.5,0.6-2.2c0.4-0.8,1-1.3,1.6-1.7l5.9-3.2c0.6-0.3,1.2-0.4,1.6-0.1c0.5,0.3,0.7,0.7,0.8,1.5l0.2,5.5
			c0,0.7-0.2,1.5-0.6,2.2C200,146.3,199.5,146.8,198.8,147.2z M181.5,149c-0.1,0.1-0.2,0.2-0.2,0.4l0.2,3.7c0,0.2,0.1,0.2,0.2,0.1
			l4.1-2.2c0.1-0.1,0.2-0.2,0.2-0.4l-0.2-3.7c0-0.2-0.1-0.2-0.2-0.1L181.5,149z M193.4,142.5c-0.1,0.1-0.2,0.2-0.2,0.4l0.2,3.7
			c0,0.2,0.1,0.2,0.2,0.1l4.3-2.3c0.1-0.1,0.2-0.2,0.2-0.4l-0.2-3.7c0-0.2-0.1-0.2-0.2-0.1L193.4,142.5z"/>
		<rect x="304" y="8" class="st12" width="46.2" height="24"/>
		<path class="st13" d="M274.3,422.9c-0.1-0.1-0.2-0.1-0.4-0.2c-0.1-0.1-0.4-0.3-0.6-0.4c-0.1-0.1-0.3-0.2-0.4-0.4
			c-0.1-0.1-0.3-0.4-0.4-0.5c-0.1-0.1-0.1-0.3-0.2-0.4s-0.1-0.3-0.1-0.4c0-0.1-0.1-0.2-0.1-0.3c0-0.1-0.1-0.4-0.1-0.5
			c0,1,0.7,2,1.9,2.8c2.7,1.6,7.1,1.6,9.9,0.1c1.4-0.8,2.1-1.8,2.1-2.9c0,0.1,0,0.2,0,0.3c0,0.1-0.1,0.4-0.1,0.6
			c0,0.1-0.1,0.2-0.1,0.3c0,0.1-0.1,0.2-0.1,0.3c-0.1,0.1-0.1,0.3-0.3,0.4c-0.1,0.1-0.2,0.3-0.3,0.4c-0.1,0.1-0.1,0.1-0.2,0.2
			c-0.2,0.2-0.5,0.4-0.7,0.6c-0.1,0.1-0.3,0.2-0.4,0.3c-0.1,0.1-0.3,0.1-0.4,0.2c-0.1,0.1-0.4,0.1-0.5,0.2c-0.1,0.1-0.3,0.1-0.4,0.1
			c-0.4,0.1-0.8,0.2-1,0.3c-0.6,0.1-1.3,0.2-2,0.2c-0.5,0-0.9,0-1,0c-0.4,0-0.6-0.1-1-0.1c0,0-0.4-0.1-1-0.2c-0.1,0-0.3-0.1-0.4-0.1
			c-0.1-0.1-0.3-0.1-0.4-0.1c-0.1-0.1-0.3-0.1-0.4-0.1c-0.1-0.1-0.3-0.1-0.4-0.2C274.6,423.2,274.4,423,274.3,422.9z"/>
		<path class="st13" d="M272.1,419.7v-3.9c0,1,0.7,2,1.9,2.8c2.7,1.6,7.1,1.6,9.9,0.1c1.4-0.8,2.1-1.8,2.1-2.9v3.9
			c0,1-0.7,2.1-2.1,2.9c-2.8,1.5-7.2,1.5-9.9-0.1C272.8,421.7,272.1,420.7,272.1,419.7z"/>
		
			<linearGradient id="SVGID_12_" gradientUnits="userSpaceOnUse" x1="279.102" y1="419.58" x2="279.102" y2="408.287" gradientTransform="matrix(1 0 0 -1 0 826)">
			<stop  offset="0" style="stop-color:#84B4C2"/>
			<stop  offset="1" style="stop-color:#9DC8D3"/>
		</linearGradient>
		<path class="st14" d="M272.1,415.8v-9.4c0,1,0.7,2,1.9,2.8c2.7,1.6,7.1,1.6,9.9,0.1c1.4-0.8,2.1-1.8,2.1-2.9v9.4
			c0,1-0.7,2.1-2.1,2.9c-2.8,1.5-7.2,1.5-9.9-0.1C272.8,417.9,272.1,416.8,272.1,415.8z"/>
		<path class="st13" d="M286.1,404.4c0-0.1,0-0.2-0.1-0.4c0-0.1-0.1-0.4-0.1-0.5c-0.1-0.2-0.2-0.7-0.6-1.3c-0.1-0.2-0.3-0.4-0.4-0.6
			c-0.1-0.1-0.3-0.4-0.4-0.4c-0.1-0.1-0.2-0.2-0.3-0.3s-0.2-0.1-0.3-0.2c-0.2-0.1-0.4-0.3-0.7-0.4c-0.1-0.1-0.4-0.2-0.5-0.3
			c-0.1-0.1-0.2-0.1-0.4-0.1c-0.1-0.1-0.3-0.1-0.4-0.1c-0.1-0.1-0.3-0.1-0.4-0.1c-0.2-0.1-0.5-0.1-0.7-0.1c-0.1,0-0.3-0.1-0.4-0.1
			c-0.1,0-0.3-0.1-0.4-0.1c-0.2,0-0.5-0.1-0.7-0.1c-0.1,0-0.3,0-0.4,0c-0.1,0-0.3,0-0.4,0c-0.1,0-0.3,0-0.4,0.1
			c-0.1,0-0.6,0.1-0.8,0.1c-0.1,0-0.3,0.1-0.4,0.1c-0.2,0.1-0.5,0.1-0.7,0.2c-0.1,0.1-0.4,0.1-0.5,0.2c-0.1,0.1-0.2,0.1-0.4,0.2
			c-0.2,0.1-0.4,0.3-0.6,0.4c-0.2,0.1-0.4,0.3-0.6,0.5c-0.1,0.1-0.3,0.3-0.4,0.4c-0.1,0.1-0.1,0.2-0.2,0.3c-0.1,0.1-0.2,0.3-0.3,0.4
			c-0.1,0.1-0.2,0.3-0.3,0.4c-0.1,0.1-0.1,0.2-0.1,0.3c-0.1,0.1-0.1,0.3-0.1,0.4c0,0.1-0.1,0.2-0.1,0.4c0,0.1-0.1,0.4-0.1,0.5
			c0,0.2-0.1,0.5-0.1,0.7c0,1,0.7,2,1.9,2.8c2.7,1.6,7.1,1.6,9.9,0.1c1.4-0.8,2.1-1.8,2.1-2.9C286.1,404.7,286.1,404.5,286.1,404.4z
			"/>
		<path class="st13" d="M272.1,406.4V405c0,1,0.7,2,1.9,2.8c2.7,1.6,7.1,1.6,9.9,0.1c1.4-0.8,2.1-1.8,2.1-2.9v1.5
			c0,1-0.7,2.1-2.1,2.9c-2.8,1.5-7.2,1.5-9.9-0.1C272.7,408.4,272.1,407.4,272.1,406.4z"/>
		
			<linearGradient id="SVGID_13_" gradientUnits="userSpaceOnUse" x1="279.0285" y1="430.769" x2="279.0285" y2="427.008" gradientTransform="matrix(1 0 0 -1 0 826)">
			<stop  offset="0" style="stop-color:#84B4C2"/>
			<stop  offset="1" style="stop-color:#9DC8D3"/>
		</linearGradient>
		<path class="st15" d="M281.9,395.9c1.5,0.9,1.5,2.4-0.1,3.2c-1.5,0.9-4,0.8-5.5-0.1c-1.5-0.9-1.5-2.4,0.1-3.2
			C278,394.9,280.4,395,281.9,395.9z"/>
		
			<linearGradient id="SVGID_14_" gradientUnits="userSpaceOnUse" x1="279.1025" y1="422.569" x2="279.1025" y2="427.904" gradientTransform="matrix(1 0 0 -1 0 826)">
			<stop  offset="0" style="stop-color:#84B4C2"/>
			<stop  offset="1" style="stop-color:#9DC8D3"/>
		</linearGradient>
		<path class="st16" d="M274.3,400.7v-2.6c0,0.7,0.4,1.3,1.3,1.9c1.8,1.1,4.8,1.1,6.7,0.1c1-0.5,1.5-1.3,1.5-2v2.6
			c0,0.7-0.5,1.5-1.5,2c-1.9,1-4.9,1-6.7-0.1C274.8,402,274.3,401.3,274.3,400.7z"/>
		
			<linearGradient id="SVGID_15_" gradientUnits="userSpaceOnUse" x1="279.1025" y1="430.939" x2="279.1025" y2="426.047" gradientTransform="matrix(1 0 0 -1 0 826)">
			<stop  offset="0" style="stop-color:#84B4C2"/>
			<stop  offset="1" style="stop-color:#9DC8D3"/>
		</linearGradient>
		<path class="st17" d="M276,395.7c0.1-0.1,0.1-0.1,0.3-0.1c0.1-0.1,0.2-0.1,0.3-0.1c0.1-0.1,0.4-0.1,0.6-0.2c0.1,0,0.2-0.1,0.4-0.1
			c0.3-0.1,0.6-0.1,0.7-0.1c0.1,0,0.2,0,0.4,0c0.1,0,0.2,0,0.4,0c0.1,0,0.2,0,0.4,0c0.2,0,0.4,0,0.7,0c0.1,0,0.2,0,0.3,0.1
			c0.1,0,0.4,0.1,0.7,0.1c0.1,0,0.2,0.1,0.3,0.1c0.1,0.1,0.4,0.1,0.6,0.2c0.1,0,0.2,0.1,0.3,0.1c0.1,0.1,0.2,0.1,0.3,0.1
			c-0.1-0.1-0.3-0.1-0.4,0c-1.5-0.9-4-0.9-5.5-0.1c-1.5,0.9-1.6,2.3-0.1,3.2c1.5,0.9,4,0.9,5.5,0.1c1.5-0.9,1.6-2.3,0.1-3.2
			c0.1-0.1,0.3-0.1,0.4,0c0.1,0.1,0.1,0.1,0.2,0.1c0.1,0.1,0.3,0.2,0.4,0.3c0.3,0.2,0.4,0.5,0.4,0.5c0.1,0.1,0.1,0.2,0.2,0.3
			s0.1,0.2,0.1,0.3c0,0.1,0.1,0.1,0.1,0.3c0,0.1,0,0.1,0,0.1c0,0.1,0,0.1,0,0.3c0,0.7-0.5,1.5-1.5,2c-1.9,1-4.9,1-6.7-0.1
			c-0.9-0.5-1.3-1.2-1.3-1.9c0-0.1,0-0.2,0-0.4c0-0.1,0.1-0.2,0.1-0.3c0.1-0.1,0.1-0.4,0.4-0.7c0.1-0.1,0.1-0.2,0.2-0.3
			c0.1-0.1,0.2-0.2,0.4-0.3c0.1-0.1,0.2-0.1,0.3-0.2C275.7,395.9,275.9,395.8,276,395.7z"/>
		<path class="st1" d="M283.6,412.6c-1.1,0.5-1.8,0.7-3,0.9c0-1,0-1.5,0-2.6c-1.2,0.1-1.8,0.1-3,0c0,1,0,1.5,0,2.6
			c-1.3-0.1-1.8-0.4-3-0.9c0,1,0,1.5,0,2.5c1.1,0.5,1.8,0.7,3,0.9c0,1,0,1.5,0,2.6c1.2,0.1,1.8,0.1,3,0c0-1,0-1.5,0-2.6
			c1.3-0.1,1.8-0.4,3-0.9C283.6,414.2,283.6,413.6,283.6,412.6z"/>
		<path class="st1" d="M270.4,406.8c0-0.1-0.1-0.4-0.1-0.5c0-0.1-0.1-0.4-0.1-0.5c-0.1-0.3-0.2-0.7-0.4-1c-0.1-0.2-0.3-0.6-0.4-0.8
			c-0.1-0.3-0.4-0.6-0.6-0.8c-0.1-0.2-0.4-0.4-0.6-0.6c-0.1-0.1-0.4-0.3-0.5-0.4c-0.2-0.2-0.6-0.4-0.9-0.6c-0.1-0.1-0.4-0.2-0.6-0.3
			c-0.1-0.1-0.3-0.1-0.4-0.2c-0.1-0.1-0.5-0.2-1-0.4c-0.5-0.1-1-0.2-1-0.2c-0.1,0-0.3-0.1-0.4-0.1c-0.1,0-0.3-0.1-0.4-0.1
			c-0.1,0-0.3,0-0.4,0s-0.3,0-0.4,0c-0.1,0-0.3,0-0.4,0c-0.1,0-0.3,0-0.4,0c0,0-0.4,0-0.9,0.1c-0.4,0.1-0.8,0.1-1,0.2
			c-0.1,0.1-0.3,0.1-0.4,0.1c-0.1,0.1-0.4,0.1-0.6,0.2c-0.1,0.1-0.3,0.1-0.4,0.2c-0.2,0.1-0.4,0.2-0.7,0.4c-0.3,0.1-0.6,0.4-0.9,0.6
			c-0.2,0.1-0.4,0.4-0.7,0.6c-0.2,0.2-0.4,0.4-0.7,0.7c-0.1,0.1-0.2,0.3-0.3,0.4c-0.1,0.1-0.2,0.3-0.3,0.4c-0.1,0.3-0.3,0.6-0.4,0.9
			c-0.1,0.4-0.2,0.7-0.3,1.1c-0.1,0.3-0.1,0.7-0.1,1c0,1.3,0.8,2.4,2.4,3.4c3.2,1.9,8.6,2,11.9,0.1c1.7-1,2.6-2.2,2.6-3.5
			C270.4,407.2,270.4,406.9,270.4,406.8z"/>
		<path class="st13" d="M270.4,407.3c0,1.3-0.9,2.5-2.6,3.5c-3.3,1.8-8.7,1.8-11.9-0.1c-1.6-1-2.4-2.2-2.4-3.4v12.3
			c0,0.1,0,0.2,0,0.4c0,0.1,0,0.1,0,0.2c0,0.1,0.1,0.2,0.1,0.4c0.1,0.1,0.1,0.4,0.2,0.6c0.1,0.1,0.1,0.4,0.3,0.5
			c0.1,0.2,0.3,0.4,0.4,0.7c0.1,0.1,0.3,0.3,0.4,0.4c0.1,0.1,0.3,0.2,0.4,0.3c0.2,0.1,0.6,0.4,0.8,0.6c0.1,0.1,0.4,0.2,0.6,0.3
			c0.1,0.1,0.4,0.1,0.5,0.2c0.3,0.1,0.7,0.3,1,0.4c0.1,0.1,0.4,0.1,0.6,0.1c0.4,0.1,1,0.2,1.2,0.2c0.1,0,0.4,0.1,0.6,0.1
			c0.4,0,0.8,0.1,1.2,0.1c0.1,0,0.4,0,0.6,0s0.4,0,0.6,0c0.1,0,0.4-0.1,0.6-0.1c0.2,0,0.7-0.1,1.2-0.2c0.2-0.1,0.4-0.1,0.6-0.1
			c0.3-0.1,0.7-0.2,1-0.4c0.1-0.1,0.4-0.1,0.6-0.2c0.1-0.1,0.4-0.1,0.4-0.2c0.1-0.1,0.4-0.2,0.6-0.4c0.1-0.1,0.4-0.3,0.5-0.4
			c0.2-0.1,0.4-0.4,0.6-0.6c0.1-0.1,0.3-0.4,0.4-0.5c0.1-0.1,0.2-0.4,0.3-0.5c0.1-0.2,0.2-0.4,0.3-0.7c0-0.1,0.1-0.2,0.1-0.4
			c0-0.1,0-0.2,0.1-0.4c0-0.1,0-0.1,0-0.2s0-0.1,0-0.1L270.4,407.3z"/>
		
			<linearGradient id="SVGID_16_" gradientUnits="userSpaceOnUse" x1="262.0029" y1="429.485" x2="262.0029" y2="426.849" gradientTransform="matrix(1 0 0 -1 0 826)">
			<stop  offset="0" style="stop-color:#84B4C2"/>
			<stop  offset="1" style="stop-color:#9DC8D3"/>
		</linearGradient>
		<path class="st18" d="M263.9,399.2c-1.1,0.6-2.8,0.6-3.8-0.1c-1-0.6-1-1.6,0.1-2.2c1.1-0.6,2.8-0.6,3.8,0.1
			C265,397.7,265,398.6,263.9,399.2z"/>
		
			<linearGradient id="SVGID_17_" gradientUnits="userSpaceOnUse" x1="262.003" y1="429.569" x2="262.003" y2="426.208" gradientTransform="matrix(1 0 0 -1 0 826)">
			<stop  offset="0" style="stop-color:#84B4C2"/>
			<stop  offset="1" style="stop-color:#9DC8D3"/>
		</linearGradient>
		<path class="st19" d="M264.3,397c0.1,0.1,0.2,0.1,0.4,0.3s0.3,0.3,0.3,0.4c0.1,0.1,0.1,0.1,0.1,0.2c0,0.1,0.1,0.1,0.1,0.2
			s0.1,0.1,0.1,0.1s0,0.1,0,0.1c0,0.1,0,0.1,0,0.1c0,0.5-0.4,1-1,1.3c0-0.2-0.1-0.6-0.4-0.7c1.1-0.6,1.1-1.6,0.1-2.2
			c-1-0.6-2.7-0.7-3.8-0.1c-1.1,0.6-1.1,1.6-0.1,2.2c1,0.6,2.7,0.7,3.8,0.1c0.2,0.1,0.4,0.4,0.4,0.7c-1.3,0.7-3.4,0.7-4.6-0.1
			c-0.6-0.4-1-0.9-1-1.3c0,0,0-0.1,0-0.1c0-0.1,0-0.1,0.1-0.2c0-0.1,0.1-0.1,0.1-0.3c0.1-0.1,0.1-0.2,0.1-0.2
			c0.1-0.1,0.1-0.1,0.3-0.3c0.1-0.1,0.1-0.1,0.2-0.1s0.1-0.1,0.1-0.1c0.1-0.1,0.1-0.1,0.2-0.1c0.1-0.1,0.2-0.1,0.4-0.2
			c0.1-0.1,0.3-0.1,0.4-0.1c0.8-0.2,1.5-0.1,1.8-0.1c0.1,0,0.2,0,0.4,0.1c0.2,0.1,0.4,0.1,0.4,0.1s0.2,0.1,0.4,0.1
			C264,396.9,264.2,397,264.3,397z"/>
		
			<linearGradient id="SVGID_18_" gradientUnits="userSpaceOnUse" x1="261.9337" y1="422.376" x2="261.9337" y2="427.462" gradientTransform="matrix(1 0 0 -1 0 826)">
			<stop  offset="0" style="stop-color:#84B4C2"/>
			<stop  offset="1" style="stop-color:#9DC8D3"/>
		</linearGradient>
		<path class="st20" d="M264.3,399.9c-1.3,0.7-3.4,0.7-4.6-0.1c-0.6-0.4-1-0.9-1-1.3v2.9c0,0.3,0.1,0.5,0.3,0.8
			c-0.2-0.2-0.3-0.5-0.3-0.8c0,0.2,0,0.4,0.1,0.4c0.1,0.1,0.1,0.3,0.2,0.4c0.1,0.2,0.3,0.4,0.4,0.4c0.1,0.1,0.4,0.3,0.4,0.3
			c0,0,0.2,0.1,0.4,0.2c0.1,0.1,0.3,0.1,0.4,0.1c0.1,0,0.1,0.1,0.2,0.1c0.1,0.1,0.6,0.1,1.1,0.1c0.4,0,0.8-0.1,1.2-0.1
			c0.1,0,0.1-0.1,0.2-0.1c0.1-0.1,0.3-0.1,0.4-0.1c0.1,0,0.1-0.1,0.2-0.1s0.1-0.1,0.1-0.1c0.1-0.1,0.1-0.1,0.2-0.1
			c0.1-0.1,0.1-0.1,0.2-0.1c0.1-0.1,0.2-0.2,0.4-0.4c0.1-0.1,0.1-0.2,0.1-0.2c0-0.1,0.1-0.1,0.1-0.2c0-0.1,0-0.1,0.1-0.1
			c0-0.1,0-0.1,0-0.1s0-0.1,0-0.1v-2.9C265.3,399.1,264.9,399.6,264.3,399.9z"/>
		
			<linearGradient id="SVGID_19_" gradientUnits="userSpaceOnUse" x1="254.522" y1="408.6589" x2="268.968" y2="408.6589" gradientTransform="matrix(1 0 0 -1 0 826)">
			<stop  offset="0" style="stop-color:#F3E5A5"/>
			<stop  offset="1" style="stop-color:#F4C15B"/>
		</linearGradient>
		<path class="st21" d="M269,412.5c-5.1,2.7-9.7,2.6-14.4-0.3v8c4.9,2.9,9.4,2.9,14.4,0.3V412.5z"/>
		<path class="st22" d="M276.3,427.3c-2.2-1.3-5.9-1.3-8.1,0c-2.2,1.3-2.2,3.4,0,4.7s5.9,1.3,8.1,0
			C278.5,430.7,278.5,428.6,276.3,427.3z"/>
		<path class="st23" d="M268.4,429.7v-6.6c0,0.7,0.5,1.5,1.5,2.1c2,1.2,5.2,1.3,7.3,0.1c1-0.6,1.6-1.4,1.6-2.2v6.6
			c0,0.8-0.5,1.5-1.6,2.2c-2.1,1.2-5.4,1.1-7.3-0.1C268.9,431.2,268.4,430.5,268.4,429.7z"/>
		<path class="st8" d="M267.9,423.2v-2.4c0,0.8,0.5,1.6,1.5,2.3c2.1,1.3,5.7,1.3,8,0.1c1.2-0.7,1.8-1.5,1.8-2.4v2.4
			c0,0.9-0.6,1.7-1.8,2.4c-2.3,1.3-5.8,1.3-8-0.1C268.5,424.8,267.9,424,267.9,423.2z"/>
		<path class="st1" d="M277.7,418.4c2.1,1.3,2.1,3.4-0.1,4.6c-2.3,1.3-5.8,1.3-8-0.1c-2.1-1.3-2.1-3.4,0.1-4.6
			C271.9,417,275.5,417.1,277.7,418.4z"/>
		
			<linearGradient id="SVGID_20_" gradientUnits="userSpaceOnUse" x1="309.84" y1="343.523" x2="309.84" y2="328.5375" gradientTransform="matrix(1 0 0 -1 0 826)">
			<stop  offset="0" style="stop-color:#3C6A75"/>
			<stop  offset="1" style="stop-color:#608B96"/>
		</linearGradient>
		<path class="st24" d="M329.9,483.5L309,495.6c-0.9,0.6-2.5,0.6-3.5,0l-15.7-9.1c-0.5-0.3-0.7-0.7-0.7-1v1.4c0,0.4,0.2,0.7,0.7,1
			l15.7,9.1c1,0.6,2.5,0.6,3.5,0l20.9-12.2c0.5-0.3,0.7-0.7,0.7-1v-1.4C330.6,482.9,330.3,483.2,329.9,483.5z"/>
		<path class="st25" d="M329.8,481.5c1,0.5,1,1.5,0,2l-20.9,12.2c-0.9,0.6-2.5,0.6-3.5,0l-15.7-9.1c-1-0.6-1-1.5,0-2l20.9-12.2
			c0.9-0.5,2.5-0.5,3.5,0L329.8,481.5z"/>
		<path class="st26" d="M318,475.5v1.4l-0.5,0.3v-1.4L318,475.5z"/>
		<path class="st27" d="M317.5,475.8v1.4c-0.1,0.1-0.2,0.1-0.2,0.2V476C317.3,476,317.3,475.9,317.5,475.8z"/>
		<path class="st28" d="M322.7,476.2v1.4c0-0.1-0.1-0.2-0.2-0.3c-0.2-0.2-0.7-0.2-0.9,0c-0.1,0.1-0.2,0.2-0.2,0.3v-1.4
			c0-0.1,0.1-0.2,0.2-0.3c0.2-0.2,0.7-0.2,0.9,0C322.7,476,322.7,476.1,322.7,476.2z"/>
		<path class="st28" d="M317.5,476.3v1.4c-0.1-0.1-0.2-0.1-0.2-0.2V476C317.3,476.2,317.3,476.2,317.5,476.3z"/>
		
			<linearGradient id="SVGID_21_" gradientUnits="userSpaceOnUse" x1="324.126" y1="347.7725" x2="323.042" y2="347.5555" gradientTransform="matrix(1 0 0 -1 0 826)">
			<stop  offset="0" style="stop-color:#F59E5B"/>
			<stop  offset="1" style="stop-color:#F5C25B"/>
		</linearGradient>
		<path class="st29" d="M323.9,478.2c0.1-0.1,0.1-0.1,0.1-0.2v-1.4c0,0.2-0.1,0.3-0.3,0.4c-0.2,0.1-0.4,0.3-0.6,0.3v1.4
			c0.1-0.1,0.1-0.1,0.2-0.1v1.3l0.6-0.3c0.1-0.1,0.2-0.1,0.2-0.2v-1.4C323.9,478.1,323.9,478.1,323.9,478.2z"/>
		<path class="st30" d="M323.3,478.6v1.4l-0.5,0.3v-1.4L323.3,478.6z"/>
		<path class="st31" d="M322,478.9l-0.1,1.4l-4.5-2.6v-1.4L322,478.9z"/>
		<path class="st28" d="M322.7,478.9v1.4c-0.2,0.1-0.6,0.1-0.7,0v-1.4C322.2,479,322.5,479,322.7,478.9z"/>
		
			<linearGradient id="SVGID_22_" gradientUnits="userSpaceOnUse" x1="317.2907" y1="348.913" x2="323.999" y2="348.913" gradientTransform="matrix(1 0 0 -1 0 826)">
			<stop  offset="0" style="stop-color:#F3E5A5"/>
			<stop  offset="1" style="stop-color:#F4C15B"/>
		</linearGradient>
		<path class="st32" d="M323.8,477.9c0.2,0.1,0.2,0.3,0,0.4l-0.6,0.3l-0.5,0.3c-0.2,0.1-0.6,0.1-0.7,0l-4.6-2.6
			c-0.2-0.1-0.2-0.3,0-0.4l0.6-0.3l0.5-0.3c0.2-0.1,0.6-0.1,0.7,0l0.8,0.4c0.1-0.1,0.3-0.2,0.5-0.3c0.4-0.2,1.1-0.2,1.5,0.1l1.4,0.8
			c0.4,0.3,0.5,0.7,0.1,0.9c-0.2,0.1-0.4,0.3-0.6,0.3L323.8,477.9z M321.7,476.4c0.3,0.2,0.7,0.2,0.9,0s0.2-0.4,0-0.5
			c-0.2-0.2-0.7-0.2-0.9,0C321.4,476.1,321.4,476.3,321.7,476.4z"/>
		<path class="st33" d="M308.1,475.4c0.8,1.8,2.6,3.2,4.3,4.2c2.3,1.3,5.3,2,8,2c1.5,0,3-0.2,4.5-0.3c0.8-0.1,1.4-0.3,2.1-0.5
			l1.8,0.8v0.7l-17,10l-4.6,2.6V476L308.1,475.4z"/>
		<path class="st34" d="M290.8,484.9L307,476v18.9l-16.2-9.4V484.9z"/>
		<path class="st35" d="M290.8,484.9l16.2,9.3l21.7-12.5l-5.4-3.1l-0.5,0.3c-0.2,0.1-0.6,0.1-0.7,0l-4.6-2.6c-0.2-0.1-0.2-0.3,0-0.4
			l0.6-0.3l-5.5-3.2L290.8,484.9z"/>
		<path class="st23" d="M311.6,474.1l6.9,4l-6.9,4l-6.9-4L311.6,474.1z M311.4,481.2c0.1-0.1,0.2-0.1,0.3-0.2c0.4-0.3,0.6-0.7,0.7-1
			c0.1-0.2,0.1-0.4,0-0.5c-0.1-0.1-0.1-0.2-0.2-0.3l-0.1-0.1c-0.2-0.2-0.3-0.4-0.3-0.5l0.3-0.2c0.6,0.1,1.3,0,1.8-0.3
			c0.2-0.1,0.4-0.2,0.5-0.2c0.8-0.4,0.9-1,0.1-1.4c-0.8-0.4-1.8-0.4-2.5,0.1c-0.2,0.1-0.3,0.2-0.4,0.3c-0.5,0.3-0.7,0.7-0.5,1
			l-0.3,0.2c-0.1,0-0.1,0-0.1,0s0,0-0.1,0h-0.1h-0.1h-0.1h-0.1h-0.1h-0.1c-0.1,0-0.2-0.1-0.3-0.1s-0.1-0.1-0.2-0.1
			c-0.2-0.1-0.4-0.1-0.7-0.2c-0.3-0.1-0.7-0.1-1,0c-0.7,0.1-1.3,0.2-1.8,0.4c-0.1,0.1-0.2,0.1-0.3,0.2l0.9,0.5h0.1l1.5,0.9l0.2,0.1
			h0.1l0.3,0.2l1.3,0.8h0.1L311.4,481.2z"/>
		<path class="st23" d="M311.7,490.3l-1.9,1.1l-11.8-6.8l1.9-1.1L311.7,490.3z"/>
		<path class="st23" d="M314.6,488.6l-1.9,1.1l-11.8-6.8l1.9-1.1L314.6,488.6z"/>
		<path class="st23" d="M320.8,485.2l-1.9,1.1l-6.7-3.9l1.9-1.1L320.8,485.2z"/>
		<path class="st36" d="M301.8,481.5c0.1,0.1,0.1,0.1,0.1,0.1c0.1,0.1-0.1,0.2-0.3,0.2l-1.6,0.1c-0.1,0-0.2,0-0.3-0.1
			c-0.1-0.1-0.1-0.1-0.1-0.1l-0.1-0.4c-0.1-0.1,0.1-0.2,0.3-0.2c0.1,0,0.2,0,0.3,0.1c0.1,0.1,0.1,0.1,0.1,0.1l0.1,0.2l1.3-0.1
			C301.6,481.4,301.7,481.5,301.8,481.5z"/>
		<path class="st36" d="M304.6,479.8c0.1,0.1,0.1,0.1,0.1,0.1c0.1,0.1-0.1,0.2-0.3,0.2l-1.6,0.1c-0.1,0-0.2,0-0.3-0.1
			c-0.1-0.1-0.1-0.1-0.1-0.1l-0.1-0.4c-0.1-0.1,0.1-0.2,0.3-0.2c0.1,0,0.2,0,0.3,0.1c0.1,0.1,0.1,0.1,0.1,0.1l0.1,0.2l1.3-0.1
			C304.5,479.8,304.6,479.8,304.6,479.8z"/>
		<path class="st23" d="M317.5,487l-1.9,1.1l-11.8-6.8l1.9-1.1L317.5,487z"/>
		<path class="st23" d="M323.2,483.7l-1.9,1.2l-6.7-3.9l1.9-1.1L323.2,483.7z"/>
		<path class="st23" d="M325.7,482.3l-1.9,1.1l-6.7-3.8l1.9-1.2L325.7,482.3z"/>
		<path class="st1" d="M314.6,476.3c0.8,0.5,0.7,1-0.1,1.4c-0.2,0.1-0.3,0.2-0.5,0.2c-0.6,0.3-1.3,0.4-1.9,0.3l-0.3,0.2
			c0,0.2,0.1,0.4,0.3,0.6c0.1,0,0.1,0.1,0.1,0.1c0.1,0.1,0.2,0.2,0.2,0.3c0.1,0.2,0.1,0.4,0,0.6c-0.1,0.4-0.3,0.7-0.7,1
			c-0.1,0.1-0.2,0.1-0.3,0.2l-0.9-0.6h-0.1l-1.3-0.8l-0.3-0.2h-0.1l-0.2-0.1l-1.5-0.9H307l-0.9-0.6c0.1-0.1,0.2-0.1,0.3-0.2
			c0.5-0.2,1.2-0.4,1.8-0.4c0.4-0.1,0.7-0.1,1,0c0.3,0.1,0.5,0.1,0.7,0.2c0.1,0,0.1,0.1,0.2,0.1c0.1,0,0.2,0.1,0.3,0.1h0.1h0.1h0.1
			h0.1h0.1h0.1c0,0,0,0,0.1,0c0.1,0,0.1,0,0.1,0l0.3-0.2c-0.2-0.3,0.1-0.7,0.6-1c0.1-0.1,0.2-0.2,0.4-0.3
			C312.9,475.9,313.9,475.8,314.6,476.3z"/>
		<path class="st36" d="M298.9,483.2c0.1,0.1,0.1,0.1,0.1,0.1c0.1,0.1-0.1,0.2-0.3,0.2l-1.6,0.1c-0.1,0-0.2,0-0.3-0.1
			c-0.1-0.1-0.1-0.1-0.1-0.1l-0.1-0.4c-0.1-0.1,0.1-0.2,0.3-0.2c0.1,0,0.2,0,0.3,0.1c0.1,0.1,0.1,0.1,0.1,0.1l0.1,0.2l1.3-0.1
			C298.7,483.1,298.8,483.1,298.9,483.2z"/>
		<path class="st13" d="M291.7,492.2l11.5,6.7c-0.1,0.4-0.3,0.9-0.7,1.1c-0.2,0.1-0.3,0.1-0.4,0.1c-3.2-1.9-7.5-4.4-10.8-6.3
			c0.1,0.1,0.3,0.1,0.4-0.1l-0.7-0.4C291.1,492.9,291.3,492.4,291.7,492.2z"/>
		<path class="st37" d="M291.3,493.7l10.8,6.3c-0.1-0.1-0.2-0.2-0.2-0.4l-10.8-6.3C291.1,493.5,291.1,493.6,291.3,493.7z"/>
		<path class="st37" d="M291.7,492.1c0.2-0.1,0.3-0.1,0.4-0.1l10.8,6.3c0.1,0.1,0.2,0.2,0.2,0.4v0.1L291.7,492.1L291.7,492.1z"/>
		<path class="st13" d="M302.2,500c-0.1-0.1-0.1-0.2-0.1-0.3c0-0.4,0.3-0.9,0.7-1.2c0.1-0.1,0.2-0.1,0.3-0.1
			c-0.1-0.1-0.1-0.1-0.1-0.1l0.3,0.2l0.4,0.2l0.3,0.2l0.2,0.1H304l0.1,0.1c0,0,0,0,0.1,0c0,0-0.1,0-0.1-0.1l0.1,0.1c0,0,0,0,0.1,0
			c0,0,0,0-0.1,0c0.1,0.1,0.1,0.1,0.1,0.2s0.1,0.2,0.1,0.2v0.1c0,0.1,0,0.2-0.1,0.3c0,0.1-0.1,0.1-0.1,0.1c-0.1,0.1-0.1,0.2-0.1,0.2
			c0,0.1-0.1,0.1-0.1,0.1c-0.1,0.1-0.1,0.1-0.1,0.2c-0.1,0.1-0.1,0.1-0.1,0.1s-0.1,0.1-0.1,0.1c0,0,0,0-0.1,0
			c-0.1,0.1-0.2,0.1-0.3,0.1h-0.1c-0.1,0-0.1,0-0.1-0.1l-0.3-0.2c-0.1-0.1-0.2-0.1-0.3-0.2c0.1,0,0.1,0,0.1,0.1
			c-0.1,0-0.1,0-0.1-0.1c-0.1-0.1-0.3-0.2-0.4-0.2c-0.1-0.1-0.2-0.1-0.3-0.2C302.1,500,302.1,500,302.2,500z"/>
		<path class="st37" d="M302.1,499.6l1.7,1c-0.1,0.1-0.2,0.1-0.3,0.1h-0.1c-0.1,0-0.1,0-0.1-0.1l-0.3-0.2c-0.1-0.1-0.2-0.1-0.3-0.2
			c0.1,0,0.1,0,0.1,0.1c-0.1,0-0.1,0-0.1-0.1c-0.1-0.1-0.3-0.2-0.4-0.2c-0.1-0.1-0.2-0.1-0.3-0.2c0.1,0.1,0.1,0.1,0.2,0.1
			C302.1,499.9,302.1,499.8,302.1,499.6z"/>
		
			<linearGradient id="SVGID_23_" gradientUnits="userSpaceOnUse" x1="303.8123" y1="325.5735" x2="303.2162" y2="325.1755" gradientTransform="matrix(1 0 0 -1 0 826)">
			<stop  offset="0" style="stop-color:#F59E5B"/>
			<stop  offset="1" style="stop-color:#F5C25B"/>
		</linearGradient>
		<path class="st38" d="M303.3,500.7l0.5,0.3c-0.1-0.1-0.2-0.2-0.2-0.4l-0.6-0.3C303.2,500.5,303.2,500.6,303.3,500.7z"/>
		
			<linearGradient id="SVGID_24_" gradientUnits="userSpaceOnUse" x1="303.104" y1="326.1906" x2="304.754" y2="326.1906" gradientTransform="matrix(1 0 0 -1 0 826)">
			<stop  offset="0" style="stop-color:#F3E5A5"/>
			<stop  offset="1" style="stop-color:#F4C15B"/>
		</linearGradient>
		<path class="st39" d="M304.8,499.4l-0.5-0.3c-0.1-0.1-0.3-0.1-0.4,0.1c-0.3,0.2-0.7,0.7-0.7,1.1l0.5,0.3c0-0.4,0.3-0.9,0.7-1.1
			C304.5,499.4,304.6,499.4,304.8,499.4z"/>
		
			<linearGradient id="SVGID_25_" gradientUnits="userSpaceOnUse" x1="303.709" y1="325.7963" x2="305.2361" y2="325.7963" gradientTransform="matrix(1 0 0 -1 0 826)">
			<stop  offset="0" style="stop-color:#F3E5A5"/>
			<stop  offset="1" style="stop-color:#F4C15B"/>
		</linearGradient>
		<path class="st40" d="M303.9,501c0.5,0.3,0.9,0.1,1-0.1c0.3-0.2,0.4-0.6,0.3-1c-0.1-0.3-0.3-0.4-0.4-0.5c-0.1-0.1-0.3-0.1-0.4,0.1
			c-0.3,0.2-0.5,0.5-0.7,0.9c0,0.1,0,0.2,0,0.3C303.7,500.8,303.8,500.9,303.9,501z"/>
		<path class="st37" d="M290.2,492c0.2,0.3,0.3,0.6,0.5,0.8c0-0.1-0.1-0.1-0.1-0.2L290.2,492z"/>
		<path class="st37" d="M291.2,492c-0.3,0-0.7,0-0.9,0l0.4,0.7c0-0.2,0.2-0.5,0.3-0.6C291.1,492,291.1,492,291.2,492z"/>
		
			<linearGradient id="SVGID_26_" gradientUnits="userSpaceOnUse" x1="291.1279" y1="332.9812" x2="290.6069" y2="332.7822" gradientTransform="matrix(1 0 0 -1 0 826)">
			<stop  offset="0" style="stop-color:#F59E5B"/>
			<stop  offset="1" style="stop-color:#F5C25B"/>
		</linearGradient>
		<path class="st41" d="M290.7,492.8c0.2,0.3,0.3,0.5,0.4,0.8c-0.1-0.1-0.1-0.2-0.1-0.3l-0.4-0.6
			C290.6,492.7,290.7,492.8,290.7,492.8z"/>
		
			<linearGradient id="SVGID_27_" gradientUnits="userSpaceOnUse" x1="290.677" y1="333.3225" x2="292.052" y2="333.3225" gradientTransform="matrix(1 0 0 -1 0 826)">
			<stop  offset="0" style="stop-color:#F3E5A5"/>
			<stop  offset="1" style="stop-color:#F4C15B"/>
		</linearGradient>
		<path class="st42" d="M292.1,492c-0.3,0-0.6,0-0.9,0c-0.1,0-0.1,0-0.2,0.1c-0.2,0.1-0.3,0.4-0.3,0.6l0.4,0.6
			c0-0.4,0.3-0.9,0.7-1.2C291.8,492,291.9,492,292.1,492z"/>
		
			<linearGradient id="SVGID_28_" gradientUnits="userSpaceOnUse" x1="302.2521" y1="326.3026" x2="301.8081" y2="326.0416" gradientTransform="matrix(1 0 0 -1 0 826)">
			<stop  offset="0" style="stop-color:#F59E5B"/>
			<stop  offset="1" style="stop-color:#F5C25B"/>
		</linearGradient>
		<path class="st43" d="M302,500l0.3,0.2c-0.1-0.1-0.2-0.2-0.2-0.4l-0.3-0.2C301.8,499.7,301.9,499.9,302,500z"/>
		
			<linearGradient id="SVGID_29_" gradientUnits="userSpaceOnUse" x1="301.839" y1="327.0166" x2="303.214" y2="327.0166" gradientTransform="matrix(1 0 0 -1 0 826)">
			<stop  offset="0" style="stop-color:#F3E5A5"/>
			<stop  offset="1" style="stop-color:#F4C15B"/>
		</linearGradient>
		<path class="st44" d="M303.2,498.5l-0.3-0.2c-0.1-0.1-0.3-0.1-0.4,0.1c-0.4,0.2-0.7,0.7-0.7,1.2l0.3,0.2c0-0.4,0.3-0.9,0.7-1.2
			C302.9,498.4,303.1,498.4,303.2,498.5z"/>
		
			<linearGradient id="SVGID_30_" gradientUnits="userSpaceOnUse" x1="302.554" y1="326.6306" x2="303.929" y2="326.6306" gradientTransform="matrix(1 0 0 -1 0 826)">
			<stop  offset="0" style="stop-color:#F3E5A5"/>
			<stop  offset="1" style="stop-color:#F4C15B"/>
		</linearGradient>
		<path class="st45" d="M303.9,498.9l-0.3-0.2c-0.1-0.1-0.3-0.1-0.4,0.1c-0.4,0.2-0.7,0.7-0.7,1.2l0.3,0.2c0-0.4,0.3-0.9,0.7-1.2
			C303.7,498.8,303.8,498.8,303.9,498.9z"/>
		
			<linearGradient id="SVGID_31_" gradientUnits="userSpaceOnUse" x1="302.9662" y1="325.9174" x2="302.5232" y2="325.6575" gradientTransform="matrix(1 0 0 -1 0 826)">
			<stop  offset="0" style="stop-color:#F59E5B"/>
			<stop  offset="1" style="stop-color:#F5C25B"/>
		</linearGradient>
		<path class="st46" d="M302.7,500.3l0.3,0.2c-0.1-0.1-0.2-0.2-0.2-0.4l-0.3-0.2C302.5,500.1,302.6,500.2,302.7,500.3z"/>
		<path class="st47" d="M302.8,500C302.8,500,302.8,500.1,302.8,500C302.8,500.1,302.8,500.1,302.8,500
			C302.8,500.1,302.8,500.1,302.8,500C302.8,500.1,302.8,500,302.8,500z"/>
		<path class="st37" d="M302.5,499.9c0,0.2,0.1,0.4,0.2,0.4l-0.4-0.2c-0.1-0.1-0.2-0.2-0.2-0.4L302.5,499.9z"/>
		<path class="st37" d="M303.8,499.1C303.8,499.1,303.8,499.1,303.8,499.1l-0.4-0.2l0.1-0.1c0.2-0.1,0.3-0.1,0.4-0.1l0.2,0.1h-0.1
			l0.1,0.1c0,0,0,0,0.1,0c0,0-0.1,0-0.1-0.1l0.1,0.1c0,0,0,0,0.1,0c0,0,0,0-0.1,0l0.1,0.1l-0.1-0.1C304.1,499,304,499,303.8,499.1z"
			/>
		<path class="st37" d="M303.2,498.8L303.2,498.8l-0.4-0.2l0.1-0.1c0.1-0.1,0.1-0.1,0.2-0.1c0.1,0,0.1,0,0.1,0s0.1,0,0.2,0.1
			l0.4,0.2C303.5,498.6,303.4,498.6,303.2,498.8z"/>
		
			<linearGradient id="SVGID_32_" gradientUnits="userSpaceOnUse" x1="304.4683" y1="326.9959" x2="304.1053" y2="326.4299" gradientTransform="matrix(1 0 0 -1 0 826)">
			<stop  offset="0" style="stop-color:#F59E5B"/>
			<stop  offset="1" style="stop-color:#F5C25B"/>
		</linearGradient>
		<path class="st48" d="M303.8,499.1c0.2-0.1,0.3-0.1,0.4-0.1l0.1,0.1l0.4,0.3c-0.1-0.1-0.2-0.1-0.3,0c-0.1,0-0.1,0-0.1,0.1
			c0,0,0,0-0.1,0.1L303.8,499.1C303.8,499.1,303.8,499.1,303.8,499.1z"/>
		
			<linearGradient id="SVGID_33_" gradientUnits="userSpaceOnUse" x1="302.8859" y1="327.7705" x2="302.7289" y2="327.4085" gradientTransform="matrix(1 0 0 -1 0 826)">
			<stop  offset="0" style="stop-color:#F59E5B"/>
			<stop  offset="1" style="stop-color:#F5C25B"/>
		</linearGradient>
		<path class="st49" d="M302.5,498.4c0.2-0.1,0.3-0.1,0.4-0.1l0.3,0.2c-0.1-0.1-0.1-0.1-0.2-0.1c-0.1,0-0.1,0-0.1,0s-0.1,0-0.2,0.1
			l-0.1,0.1l-0.3-0.2C302.4,498.4,302.4,498.4,302.5,498.4z"/>
		<path class="st50" d="M302.8,498.5c0.1-0.1,0.2-0.1,0.2-0.1C302.9,498.5,302.8,498.5,302.8,498.5z"/>
		<path class="st50" d="M303.9,498.9l-0.3-0.2L303.9,498.9z"/>
		
			<linearGradient id="SVGID_34_" gradientUnits="userSpaceOnUse" x1="303.6071" y1="327.3727" x2="303.3841" y2="326.9757" gradientTransform="matrix(1 0 0 -1 0 826)">
			<stop  offset="0" style="stop-color:#F59E5B"/>
			<stop  offset="1" style="stop-color:#F5C25B"/>
		</linearGradient>
		<path class="st51" d="M303.4,498.9L303.4,498.9l-0.3-0.1l0.1-0.1c0.2-0.1,0.3-0.1,0.4-0.1l0.3,0.2
			C303.8,498.8,303.7,498.8,303.4,498.9z"/>
		<path class="st27" d="M78.8,638.5l-0.1,2.1l-0.4,0.2l0.1-2.1L78.8,638.5z"/>
		<path class="st52" d="M80,638.8v2.1c0-0.1-0.1-0.2-0.2-0.3c-0.3-0.2-0.8-0.2-1.1,0v-2.1c0.3-0.2,0.8-0.2,1.1,0
			C80,638.5,80,638.7,80,638.8z"/>
		
			<linearGradient id="SVGID_35_" gradientUnits="userSpaceOnUse" x1="78.5082" y1="187.272" x2="78.5082" y2="185.363" gradientTransform="matrix(1 0 0 -1 0 826)">
			<stop  offset="0" style="stop-color:#FA7188"/>
			<stop  offset="1" style="stop-color:#FF8EA2"/>
		</linearGradient>
		<path class="st53" d="M78.7,638.9v2.1l-0.4-0.2l0.1-2.1L78.7,638.9z"/>
		<path class="st54" d="M80,638.8v2.1c0,0.1-0.1,0.2-0.2,0.3v-2.1C80,639,80,638.9,80,638.8z"/>
		<path class="st27" d="M80.4,638.8v2.1c0,0.2-0.1,0.3-0.3,0.5v-2.1C80.3,639.1,80.4,638.9,80.4,638.8z"/>
		
			<linearGradient id="SVGID_36_" gradientUnits="userSpaceOnUse" x1="79.256" y1="186.878" x2="79.256" y2="184.903" gradientTransform="matrix(1 0 0 -1 0 826)">
			<stop  offset="0" style="stop-color:#FA7188"/>
			<stop  offset="1" style="stop-color:#FF8EA2"/>
		</linearGradient>
		<path class="st55" d="M79.4,639.3v2.1l-0.3-0.2v-2.1L79.4,639.3z"/>
		<path class="st56" d="M79.8,639.1v2.1l-0.4,0.2v-2.1L79.8,639.1z"/>
		<path class="st27" d="M78.4,638.7l-0.1,2.1l-1.4,0.8v-2L78.4,638.7z"/>
		<path class="st52" d="M76.9,639.6v2.1c-1.1-0.6-2.8-0.6-3.9,0v-2.1C74.1,638.9,75.8,638.9,76.9,639.6z"/>
		<path class="st57" d="M75.6,639.6v2.1l-0.2,0.1v-2.1L75.6,639.6z"/>
		<path class="st57" d="M78.7,638.9v2.1l-2.1,1.3v-2.1L78.7,638.9z"/>
		<path class="st58" d="M76.6,640.1v2.1l-1-0.6v-2.1L76.6,640.1z"/>
		<path class="st56" d="M79.1,639.1v2.1l-2.1,1.3v-2.1L79.1,639.1z"/>
		<path class="st57" d="M79.8,639.1v2.1l-1.8,1v-2.1L79.8,639.1z"/>
		<path class="st27" d="M80,639.3v2.1l-1.6,0.9v-2L80,639.3z"/>
		
			<linearGradient id="SVGID_37_" gradientUnits="userSpaceOnUse" x1="75.8327" y1="186.322" x2="75.8327" y2="184.018" gradientTransform="matrix(1 0 0 -1 0 826)">
			<stop  offset="0" style="stop-color:#FA7188"/>
			<stop  offset="1" style="stop-color:#FF8EA2"/>
		</linearGradient>
		<path class="st59" d="M76.3,640.3v2.1l-1-0.6v-2.1L76.3,640.3z"/>
		<path class="st57" d="M74.5,640.7v2.1l-0.2,0.2v-2.1L74.5,640.7z"/>
		<path class="st58" d="M78,641v2l-1-0.6v-2.1L78,641z"/>
		<path class="st52" d="M78.8,641.3v2.1c0-0.4-0.2-0.8-0.8-1.1v-2.1C78.5,640.4,78.8,640.8,78.8,641.3z"/>
		<path class="st58" d="M75,641v2.1l-0.6-0.3v-2.1L75,641z"/>
		<path class="st57" d="M76.3,640.3v2.1l-1.3,0.7V641L76.3,640.3z"/>
		<path class="st56" d="M78,641v2l-0.2,0.2v-2.1L78,641z"/>
		
			<linearGradient id="SVGID_38_" gradientUnits="userSpaceOnUse" x1="77.2492" y1="185.456" x2="77.2492" y2="183.218" gradientTransform="matrix(1 0 0 -1 0 826)">
			<stop  offset="0" style="stop-color:#FA7188"/>
			<stop  offset="1" style="stop-color:#FF8EA2"/>
		</linearGradient>
		<path class="st60" d="M77.8,641.1v2.1l-1-0.6v-2.1L77.8,641.1z"/>
		
			<linearGradient id="SVGID_39_" gradientUnits="userSpaceOnUse" x1="74.4951" y1="185.144" x2="74.4951" y2="183.103" gradientTransform="matrix(1 0 0 -1 0 826)">
			<stop  offset="0" style="stop-color:#FA7188"/>
			<stop  offset="1" style="stop-color:#FF8EA2"/>
		</linearGradient>
		<path class="st61" d="M74.8,641.1v2.1l-0.6-0.3v-2.1L74.8,641.1z"/>
		<path class="st56" d="M76.7,640.5v2.1l-1.3,0.7v-2.1L76.7,640.5z"/>
		<path class="st58" d="M76,641.5v2.1l-0.6-0.3v-2.1L76,641.5z"/>
		
			<linearGradient id="SVGID_40_" gradientUnits="userSpaceOnUse" x1="75.5186" y1="184.592" x2="75.5186" y2="182.551" gradientTransform="matrix(1 0 0 -1 0 826)">
			<stop  offset="0" style="stop-color:#FA7188"/>
			<stop  offset="1" style="stop-color:#FF8EA2"/>
		</linearGradient>
		<path class="st62" d="M75.8,641.7v2.1l-0.6-0.3v-2.1L75.8,641.7z"/>
		<path class="st63" d="M76,641.5v2.1l-0.2,0.2v-2.1L76,641.5z"/>
		<path class="st27" d="M73,639.6v2.1l-16.3,9.5V649L73,639.6z"/>
		<path class="st57" d="M73,641.5v2.1l-0.2,0.2v-2.1L73,641.5z"/>
		<path class="st58" d="M73.5,641.9v2.1l-0.6-0.3v-2.1L73.5,641.9z"/>
		<path class="st57" d="M74.8,641.1v2.1l-1.3,0.7v-2.1L74.8,641.1z"/>
		
			<linearGradient id="SVGID_41_" gradientUnits="userSpaceOnUse" x1="73" y1="184.276" x2="73" y2="182.236" gradientTransform="matrix(1 0 0 -1 0 826)">
			<stop  offset="0" style="stop-color:#FA7188"/>
			<stop  offset="1" style="stop-color:#FF8EA2"/>
		</linearGradient>
		<path class="st64" d="M73.3,642v2.1l-0.6-0.3v-2.1L73.3,642z"/>
		<path class="st56" d="M75.2,641.4v2.1l-1.3,0.7v-2.1L75.2,641.4z"/>
		<path class="st65" d="M78.8,641.3v2.1c0,0.4-0.2,0.8-0.8,1.1v-2.1C78.5,642.1,78.8,641.7,78.8,641.3z"/>
		<path class="st58" d="M74.5,642.4v2.1l-0.6-0.3v-2.1L74.5,642.4z"/>
		<path class="st27" d="M79.1,641.3v2.1c0,0.5-0.3,0.9-0.9,1.3v-2.1C78.8,642.2,79.1,641.7,79.1,641.3z"/>
		
			<linearGradient id="SVGID_42_" gradientUnits="userSpaceOnUse" x1="74.023" y1="183.726" x2="74.023" y2="181.685" gradientTransform="matrix(1 0 0 -1 0 826)">
			<stop  offset="0" style="stop-color:#FA7188"/>
			<stop  offset="1" style="stop-color:#FF8EA2"/>
		</linearGradient>
		<path class="st66" d="M74.3,642.6v2.1l-0.6-0.3v-2.1L74.3,642.6z"/>
		<path class="st56" d="M74.5,642.4v2.1l-0.2,0.2v-2.1L74.5,642.4z"/>
		<path class="st57" d="M71.5,642.4v2.1l-0.2,0.2v-2.1L71.5,642.4z"/>
		<path class="st57" d="M73.3,642v2.1l-1.3,0.7v-2.1L73.3,642z"/>
		<path class="st58" d="M72,642.7v2.1l-0.6-0.3v-2.1L72,642.7z"/>
		
			<linearGradient id="SVGID_43_" gradientUnits="userSpaceOnUse" x1="71.5054" y1="183.41" x2="71.5054" y2="181.37" gradientTransform="matrix(1 0 0 -1 0 826)">
			<stop  offset="0" style="stop-color:#FA7188"/>
			<stop  offset="1" style="stop-color:#FF8EA2"/>
		</linearGradient>
		<path class="st67" d="M71.8,642.9v2.1l-0.6-0.3v-2.1L71.8,642.9z"/>
		<path class="st56" d="M73.7,642.2v2.1l-1.3,0.7l0.1-2L73.7,642.2z"/>
		<path class="st57" d="M69.5,643v2.1l-0.2,0.2v-2.1L69.5,643z"/>
		<path class="st58" d="M73,643.4l-0.1,2l-0.6-0.3l0.1-2L73,643.4z"/>
		
			<linearGradient id="SVGID_44_" gradientUnits="userSpaceOnUse" x1="72.4885" y1="182.858" x2="72.4885" y2="180.818" gradientTransform="matrix(1 0 0 -1 0 826)">
			<stop  offset="0" style="stop-color:#FA7188"/>
			<stop  offset="1" style="stop-color:#FF8EA2"/>
		</linearGradient>
		<path class="st68" d="M72.8,643.4l-0.1,2.1l-0.6-0.3l0.1-2.1L72.8,643.4z"/>
		<path class="st56" d="M73,643.4l-0.1,2l-0.2,0.2l0.1-2.1L73,643.4z"/>
		<path class="st57" d="M71.8,642.9v2.1l-1.3,0.7v-2L71.8,642.9z"/>
		<path class="st58" d="M70.5,643.7v2l-1-0.6V643L70.5,643.7z"/>
		
			<linearGradient id="SVGID_45_" gradientUnits="userSpaceOnUse" x1="69.7741" y1="182.777" x2="69.7741" y2="180.539" gradientTransform="matrix(1 0 0 -1 0 826)">
			<stop  offset="0" style="stop-color:#FA7188"/>
			<stop  offset="1" style="stop-color:#FF8EA2"/>
		</linearGradient>
		<path class="st69" d="M70.3,643.7v2.1l-1-0.6v-2.1L70.3,643.7z"/>
		<path class="st56" d="M72.3,643.1l-0.1,2.1l-1.3,0.7v-2L72.3,643.1z"/>
		<path class="st57" d="M68.5,644.2v2l-0.2,0.2v-2.1L68.5,644.2z"/>
		<path class="st58" d="M71.9,644.5v2.1l-1-0.6v-2L71.9,644.5z"/>
		<path class="st58" d="M69,644.5v2l-0.6-0.3v-2L69,644.5z"/>
		<path class="st57" d="M70.3,643.7v2.1l-1.3,0.7v-2L70.3,643.7z"/>
		<path class="st63" d="M71.9,644.5v2.1l-0.2,0.2v-2.1L71.9,644.5z"/>
		
			<linearGradient id="SVGID_46_" gradientUnits="userSpaceOnUse" x1="71.1907" y1="181.989" x2="71.1907" y2="179.685" gradientTransform="matrix(1 0 0 -1 0 826)">
			<stop  offset="0" style="stop-color:#FA7188"/>
			<stop  offset="1" style="stop-color:#FF8EA2"/>
		</linearGradient>
		<path class="st70" d="M71.7,644.6v2.1l-1-0.6V644L71.7,644.6z"/>
		
			<linearGradient id="SVGID_47_" gradientUnits="userSpaceOnUse" x1="68.5147" y1="181.677" x2="68.5147" y2="179.636" gradientTransform="matrix(1 0 0 -1 0 826)">
			<stop  offset="0" style="stop-color:#FA7188"/>
			<stop  offset="1" style="stop-color:#FF8EA2"/>
		</linearGradient>
		<path class="st71" d="M68.8,644.6v2.1l-0.6-0.3v-2.1L68.8,644.6z"/>
		<path class="st56" d="M70.7,644v2.1l-1.3,0.8v-2.1L70.7,644z"/>
		<path class="st57" d="M68.8,644.6v2.1l-0.6,0.4V645L68.8,644.6z"/>
		<path class="st58" d="M70,645.1v2.1l-0.6-0.3v-2.1L70,645.1z"/>
		<path class="st56" d="M70,645.1v2.1l-0.2,0.1v-2L70,645.1z"/>
		
			<linearGradient id="SVGID_48_" gradientUnits="userSpaceOnUse" x1="69.4595" y1="181.125" x2="69.4595" y2="179.084" gradientTransform="matrix(1 0 0 -1 0 826)">
			<stop  offset="0" style="stop-color:#FA7188"/>
			<stop  offset="1" style="stop-color:#FF8EA2"/>
		</linearGradient>
		<path class="st72" d="M69.7,645.2v2l-0.6-0.3v-2.1L69.7,645.2z"/>
		<path class="st57" d="M67,645.1v2.1l-0.2,0.1v-2.1L67,645.1z"/>
		<path class="st56" d="M69.2,644.8v2.1l-0.6,0.4v-2.1L69.2,644.8z"/>
		
			<linearGradient id="SVGID_49_" gradientUnits="userSpaceOnUse" x1="68.3578" y1="180.969" x2="68.3578" y2="178.994" gradientTransform="matrix(1 0 0 -1 0 826)">
			<stop  offset="0" style="stop-color:#FA7188"/>
			<stop  offset="1" style="stop-color:#FF8EA2"/>
		</linearGradient>
		<path class="st73" d="M68.6,645.2v2.1l-0.4-0.2V645L68.6,645.2z"/>
		<path class="st58" d="M67.5,645.4v2.1l-0.6-0.3v-2.1L67.5,645.4z"/>
		<path class="st57" d="M68.2,645v2.1l-0.6,0.4v-2.1L68.2,645z"/>
		<path class="st27" d="M67.3,645.6v2l-0.6-0.3v-2.1L67.3,645.6z"/>
		<path class="st27" d="M68.6,645.2v2.1l-0.6,0.4v-2.1L68.6,645.2z"/>
		<path class="st58" d="M68.5,646v2.1l-0.6-0.3v-2.1L68.5,646z"/>
		<path class="st27" d="M68.5,646v2.1l-0.2,0.1v-2L68.5,646z"/>
		<path class="st27" d="M68.2,646.1v2l-0.6-0.3v-2L68.2,646.1z"/>
		<path class="st57" d="M65.5,646v2.1l-0.2,0.1v-2L65.5,646z"/>
		<path class="st58" d="M66,646.3v2.1l-0.6-0.3V646L66,646.3z"/>
		<path class="st57" d="M67.3,645.6v2l-1.3,0.8v-2.1L67.3,645.6z"/>
		<path class="st27" d="M65.8,646.4v2l-0.6-0.3v-2L65.8,646.4z"/>
		<path class="st27" d="M67.7,645.8v2l-1.3,0.8v-2.1L67.7,645.8z"/>
		<path class="st57" d="M63.5,646.6v2l-0.2,0.2v-2.1L63.5,646.6z"/>
		<path class="st58" d="M67,646.8v2.1l-0.6-0.3v-2.1L67,646.8z"/>
		<path class="st27" d="M66.7,647v2.1l-0.6-0.3v-2.1L66.7,647z"/>
		<path class="st27" d="M67,646.8v2.1l-0.2,0.2V647L67,646.8z"/>
		<path class="st57" d="M65.8,646.4v2l-1.3,0.8v-2.1L65.8,646.4z"/>
		<path class="st58" d="M64.5,647.1v2.1l-0.9-0.6v-2L64.5,647.1z"/>
		<path class="st27" d="M64.2,647.3v2.1l-0.9-0.6v-2.1L64.2,647.3z"/>
		<path class="st27" d="M66.2,646.7v2.1l-1.3,0.7v-2.1L66.2,646.7z"/>
		<path class="st57" d="M62.4,647.7v2.1l-0.2,0.2v-2.1L62.4,647.7z"/>
		<path class="st58" d="M66,648v2l-1-0.6v-2.1L66,648z"/>
		<path class="st57" d="M64.2,647.3v2.1l-1.3,0.7V648L64.2,647.3z"/>
		<path class="st58" d="M63,648v2.1l-0.6-0.3v-2.1L63,648z"/>
		<path class="st27" d="M66,648v2l-0.2,0.2v-2.1L66,648z"/>
		<path class="st27" d="M65.7,648.1v2.1l-1-0.6v-2.1L65.7,648.1z"/>
		<path class="st27" d="M62.7,648.2v2.1l-0.6-0.3v-2.1L62.7,648.2z"/>
		<path class="st27" d="M64.7,647.5v2.1l-1.3,0.7v-2.1L64.7,647.5z"/>
		<path class="st58" d="M64,648.6v2.1l-0.6-0.3v-2.1L64,648.6z"/>
		<path class="st27" d="M63.8,648.7v2.1l-0.6-0.3v-2.1L63.8,648.7z"/>
		<path class="st27" d="M64,648.6v2.1l-0.2,0.2v-2.1L64,648.6z"/>
		<path class="st57" d="M60.9,648.6v2.1l-0.2,0.2v-2.1L60.9,648.6z"/>
		<path class="st57" d="M62.7,648.2v2.1l-1.3,0.7v-2.1L62.7,648.2z"/>
		<path class="st58" d="M61.5,648.9v2.1l-0.6-0.3v-2.1L61.5,648.9z"/>
		<path class="st27" d="M61.2,649v2.1l-0.6-0.3v-2.1L61.2,649z"/>
		<path class="st27" d="M63.2,648.4v2.1l-1.3,0.7l0.1-2.1L63.2,648.4z"/>
		<path class="st58" d="M62.5,649.4l-0.1,2.1l-0.6-0.3l0.1-2.1L62.5,649.4z"/>
		<path class="st13" d="M62.5,649.4l-0.1,2.1l-0.2,0.2l0.1-2.1L62.5,649.4z"/>
		<path class="st13" d="M62.3,649.6l-0.1,2.1l-0.6-0.3l0.1-2.1L62.3,649.6z"/>
		<path class="st57" d="M59.4,649.4v2.1l-0.2,0.2v-2.1L59.4,649.4z"/>
		<path class="st52" d="M56.8,649v2.1c-0.6,0.3-0.8,0.7-0.8,1.1v-2.1C56,649.7,56.3,649.3,56.8,649z"/>
		<path class="st57" d="M61.2,649v2.1l-1.3,0.7v-2.1L61.2,649z"/>
		<path class="st58" d="M60,649.7v2.1l-0.6-0.3v-2.1L60,649.7z"/>
		<path class="st27" d="M59.7,649.9v2.1l-0.6-0.3v-2.1L59.7,649.9z"/>
		<path class="st13" d="M61.7,649.3l-0.1,2.1l-1.3,0.7V650L61.7,649.3z"/>
		<path class="st52" d="M56.8,649v2.1c-0.6,0.3-0.8,0.7-0.8,1.1v-2.1C56,649.7,56.3,649.3,56.8,649z"/>
		<path class="st57" d="M57.5,650v2.1l-0.2,0.2v-2.1L57.5,650z"/>
		<path class="st58" d="M60.9,650.4v2l-0.6-0.3V650L60.9,650.4z"/>
		<path class="st27" d="M60.9,650.4v2l-0.2,0.2v-2.1L60.9,650.4z"/>
		<path class="st27" d="M60.7,650.4v2.1l-0.6-0.3v-2.1L60.7,650.4z"/>
		<path class="st58" d="M58.5,650.7v2l-1-0.6V650L58.5,650.7z"/>
		<path class="st57" d="M59.7,649.9v2.1l-1.3,0.7v-2L59.7,649.9z"/>
		<path class="st27" d="M60.1,650.1v2.1l-1.3,0.7v-2L60.1,650.1z"/>
		<path class="st65" d="M56.8,651.3v2.1c-0.6-0.3-0.8-0.7-0.8-1.2v-2.1C56,650.6,56.3,651,56.8,651.3z"/>
		<path class="st27" d="M56.6,651.5v2.1c-0.6-0.4-0.9-0.8-0.9-1.3v-2.1C55.6,650.6,56,651.1,56.6,651.5z"/>
		<path class="st58" d="M59.9,651.5v2.1l-1-0.6v-2L59.9,651.5z"/>
		<path class="st13" d="M68.2,645l0.4,0.2l-0.6,0.4l0.6,0.3l-0.2,0.2l-0.6-0.3l-1.3,0.7l0.6,0.3l-0.2,0.2l-0.6-0.3l-1.3,0.7l1,0.6
			l-0.2,0.1l-1-0.6l-1.3,0.7l0.6,0.3l-0.2,0.2l-0.6-0.3l-1.3,0.7l0.6,0.3l-0.2,0.2l-0.6-0.3l-1.3,0.7l0.6,0.4l-0.2,0.1l-0.6-0.3
			l-1.3,0.8l1,0.6l-0.2,0.2l-2.4-1.4l0.2-0.2l1,0.6l1.3-0.8l-0.6-0.3l0.2-0.2l0.6,0.3l1.3-0.7l-0.6-0.3l0.2-0.2l0.6,0.3l1.3-0.7
			l-0.6-0.3l0.2-0.2L63,648l1.3-0.7l-0.9-0.6l0.2-0.1l0.9,0.6l1.3-0.7l-0.6-0.3l0.2-0.2l0.6,0.3l1.3-0.7l-0.6-0.4l0.2-0.1l0.6,0.3
			L68.2,645z"/>
		<path class="st27" d="M59.9,651.5v2.1l-0.2,0.2v-2.1L59.9,651.5z"/>
		<path class="st27" d="M59.7,651.6v2.1l-2.4-1.4v-2.1L59.7,651.6z"/>
		<path class="st57" d="M77.9,642.4v2.1L61.7,654v-2.1L77.9,642.4z"/>
		<path class="st58" d="M57.8,651.9v2.1l-0.9-0.6v-2.1L57.8,651.9z"/>
		<path class="st65" d="M61.7,651.9v2.1c-1.1,0.6-2.8,0.6-3.9,0v-2.1C58.9,652.5,60.6,652.5,61.7,651.9z"/>
		<path class="st1" d="M79.8,639.1l-1.8,1c1,0.6,1,1.7-0.1,2.3l-16.3,9.5c-1.1,0.6-2.8,0.6-3.9,0l-0.9-0.6c-1.1-0.6-1.1-1.7,0-2.3
			l16.3-9.5c1.1-0.6,2.8-0.6,3.9,0l1.4-0.9l0.3,0.2l-2.1,1.3l-1-0.6l-0.2,0.2l1,0.6L75,641l-0.6-0.3l-0.2,0.2l0.6,0.3l-1.3,0.7
			l-0.6-0.3l-0.2,0.2l0.6,0.3l-1.3,0.7l-0.6-0.3l-0.2,0.2l0.6,0.3l-1.3,0.7l-1-0.6l-0.2,0.2l1,0.6l-1.3,0.8l-0.6-0.3l-0.2,0.2
			l0.6,0.3l-0.6,0.4l-0.6,0.4l-0.6-0.3l-0.2,0.2l0.6,0.3l-1.3,0.7l-0.6-0.3l-0.2,0.2l0.6,0.3l-1.3,0.7l-1-0.6l-0.2,0.2l1,0.6
			l-1.3,0.7l-0.6-0.3l-0.2,0.2l0.6,0.3l-1.3,0.7l-0.6-0.3l-0.2,0.2l0.6,0.3l-1.3,0.7l-0.6-0.3l-0.2,0.2l0.6,0.3l-1.3,0.7l-1-0.6
			l-0.2,0.2l2.4,1.4l0.2-0.2l-1-0.6l1.3-0.7l0.6,0.3l0.2-0.2l-0.6-0.3l1.3-0.7l0.6,0.3l0.2-0.2l-0.6-0.3l1.3-0.7l0.6,0.3l0.2-0.2
			l-0.6-0.3l1.3-0.7l1,0.6l0.2-0.2l-1-0.6l1.3-0.7l0.6,0.3L67,647l-0.6-0.3l1.3-0.7l0.6,0.3l0.2-0.2l-0.6-0.3l0.6-0.4l0.6-0.4
			l0.6,0.3l0.2-0.2l-0.6-0.3l1.3-0.7l1,0.6l0.2-0.2l-1-0.6l1.3-0.7l0.6,0.3l0.2-0.2l-0.6-0.3l1.3-0.7l0.6,0.3l0.2-0.2l-0.6-0.3
			l1.3-0.7l0.6,0.3l0.2-0.2l-0.6-0.3l1.3-0.7l1,0.6l0.2-0.2l-1-0.6l2.1-1.3l0.3,0.2L79.8,639.1z"/>
		<path class="st27" d="M78.5,640.2c0.9,0.7,0.9,1.7-0.2,2.4L61.9,652c-1.2,0.7-3.2,0.7-4.4,0l-0.9-0.6c-1.3-0.7-1.3-1.9,0-2.6
			l16.3-9.5c1.1-0.6,2.9-0.7,4.1-0.2l1.6-0.9c0.4-0.2,1.1-0.2,1.6,0c0.5,0.2,0.5,0.6,0,0.9L78.5,640.2z M61.7,651.9l16.3-9.5
			c1.1-0.6,1.1-1.7,0.1-2.3l1.8-1c0.3-0.2,0.3-0.5,0-0.6c-0.3-0.2-0.8-0.2-1.1,0l-0.4,0.2l-1.4,0.9c-1.1-0.6-2.8-0.6-3.9,0L56.8,649
			c-1.1,0.6-1.1,1.7,0,2.3l0.9,0.6C58.9,652.5,60.6,652.5,61.7,651.9z"/>
		
			<linearGradient id="SVGID_50_" gradientUnits="userSpaceOnUse" x1="74.1409" y1="187.571" x2="74.1409" y2="181.749" gradientTransform="matrix(1 0 0 -1 0 826)">
			<stop  offset="0" style="stop-color:#FF8EA2"/>
			<stop  offset="1" style="stop-color:#FFA6AD"/>
		</linearGradient>
		<path class="st74" d="M79.8,638.5c0.3,0.2,0.3,0.5,0,0.6l-0.4,0.2l-0.3-0.2l-2.1,1.3l1,0.6l-0.2,0.2l-1-0.6l-1.3,0.7l0.6,0.3
			l-0.2,0.2l-0.6-0.3l-1.3,0.7l0.6,0.3l-0.2,0.2l-0.6-0.3l-1.3,0.7l0.6,0.3l-0.2,0.2l-0.6-0.3l-1.3,0.7l1,0.6l-0.2,0.2l-1-0.6
			l-1.3,0.7l0.6,0.3l-0.2,0.2l-0.6-0.3l-0.6,0.4l-0.4-0.2l0.6-0.4l-0.6-0.3l0.2-0.2l0.6,0.3l1.3-0.7l-1-0.6l0.2-0.2l1,0.6l1.3-0.7
			l-0.6-0.3l0.2-0.2l0.6,0.3l1.3-0.7l-0.6-0.3l0.2-0.2l0.6,0.3l1.3-0.7l-0.6-0.3l0.2-0.2l0.6,0.3l1.3-0.7l-1-0.6l0.2-0.2l1,0.6
			l2.1-1.3l-0.3-0.2l0.4-0.2C79,638.3,79.5,638.3,79.8,638.5z"/>
		<path class="st27" d="M78.2,642.6l-0.1,2.1l-16.2,9.5V652L78.2,642.6z"/>
		<path class="st27" d="M57.5,652v2.1l-1-0.6l0.1-2.1L57.5,652z"/>
		<path class="st27" d="M61.9,652v2.1c-1.2,0.7-3.2,0.7-4.4,0V652C58.7,652.7,60.8,652.7,61.9,652z"/>
		<path class="st22" d="M59.6,640.9c0,0.1,0.1,0.2,0.2,0.2c0.1,0,0.1,0,0.1,0c2.2-1.3,4.4-2.6,6.6-3.9c0-0.1-0.1-0.2-0.1-0.2
			C64.1,638.3,61.9,639.6,59.6,640.9C59.6,640.8,59.6,640.8,59.6,640.9z"/>
		<path class="st75" d="M60.8,638.9c0,0.1,0.1,0.2,0.2,0.2c0.1,0,0.1,0,0.1,0c2.2-1.3,4.4-2.6,6.6-3.9c0-0.1-0.1-0.2-0.1-0.2
			C65.4,636.3,63.2,637.5,60.8,638.9C60.8,638.8,60.8,638.8,60.8,638.9z"/>
		<path class="st13" d="M41.9,646.5c0,1.9,1.3,4.2,2.8,5.1c0.8,0.5,1.6,0.6,2.1,0.2l12.7-7.3c0.6-0.3,0.9-0.9,0.9-1.8
			c0-0.4-0.1-0.8-0.2-1.2c0.3-0.2,0.7-0.4,1-0.6c0.2-0.2,0.4-0.5,0.4-0.9c0-0.2-0.1-0.5-0.2-0.8l0.2-0.2c0.1-0.1,0.2-0.2,0.2-0.2
			c0-0.2-0.2-0.6-0.4-0.7c0,0,0,0-0.1,0l-0.2,0.1c0,0-0.1,0-0.1,0.1c-0.2-0.2-0.4-0.4-0.6-0.6c-0.4-0.2-0.7-0.2-0.9-0.1
			c-0.3,0.2-0.7,0.4-1,0.6c-0.2-0.2-0.6-0.5-0.8-0.6c-0.9-0.5-1.6-0.6-2.1-0.2c-4.2,2.4-8.5,4.9-12.7,7.3
			C42.2,644.9,41.9,645.6,41.9,646.5z"/>
		<path class="st76" d="M50.5,645.6l-0.3,0.2l1.2,2l0.3-0.2L50.5,645.6z"/>
		<path class="st76" d="M57.2,641.8l-0.3,0.2l1.2,2l0.3-0.2L57.2,641.8z"/>
		<path class="st76" d="M52.5,645.2l-0.3,0.2l0.6,1l0.3-0.2L52.5,645.2z"/>
		<path class="st76" d="M55.8,643.2l-0.3,0.2l0.6,1l0.3-0.2L55.8,643.2z"/>
		<path class="st76" d="M54.1,644.2l-0.3,0.2l0.6,1l0.3-0.2L54.1,644.2z"/>
		<path class="st76" d="M44,649.4l-0.3,0.2l1.2,2l0.3-0.2L44,649.4z"/>
		<path class="st76" d="M45.9,648.9l-0.3,0.2l0.6,1l0.3-0.2L45.9,648.9z"/>
		<path class="st76" d="M49.2,647.1l-0.3,0.2l0.6,1l0.3-0.2L49.2,647.1z"/>
		
			<linearGradient id="SVGID_51_" gradientUnits="userSpaceOnUse" x1="53.5635" y1="188.278" x2="53.5635" y2="178.729" gradientTransform="matrix(1 0 0 -1 0 826)">
			<stop  offset="0" style="stop-color:#FF8EA2"/>
			<stop  offset="1" style="stop-color:#FFA6AD"/>
		</linearGradient>
		<path class="st77" d="M49,642.7c1.5,0.9,2.6,2.9,2.6,4.6c0,0.8-0.3,1.4-0.8,1.7l8.3-4.8c0.5-0.2,0.8-0.9,0.8-1.7
			c0-1.7-1.1-3.7-2.6-4.6c-0.7-0.5-1.4-0.5-1.9-0.2c-2.8,1.6-5.6,3.2-8.3,4.8C47.6,642.2,48.3,642.3,49,642.7z"/>
		<path class="st76" d="M49,642.7l-0.1,3.1L49,642.7c1.5,0.9,2.6,2.9,2.6,4.6c0,1.7-1.3,2.4-2.7,1.5c-1.5-0.9-2.6-2.9-2.6-4.6
			C46.4,642.6,47.6,641.9,49,642.7z"/>
		<path class="st78" d="M49,642.4c1.7,0.9,2.9,3.2,2.9,5.1c0,0.9-0.3,1.6-0.9,1.9c0.4-0.2-0.2,0.2,0.2-0.1c0.6-0.3,0.9-0.9,0.9-1.9
			c0-1.9-1.3-4.2-2.9-5.1c-0.8-0.5-1.6-0.6-2.1-0.2c-0.4,0.2,0.2-0.2-0.2,0.1C47.5,641.9,48.3,641.9,49,642.4z"/>
		<path class="st1" d="M49,642.4c1.7,0.9,2.9,3.2,2.9,5.1c0,1.9-1.3,2.6-3,1.7c-1.7-0.9-2.9-3.2-2.9-5.1
			C46.1,642.2,47.5,641.5,49,642.4z"/>
		<path class="st27" d="M47.2,649.3c0.9-0.5,1.7-1,2.6-1.5c0.3-0.2,0.5-0.5,0.5-1c0-1-0.7-2.2-1.5-2.7c-0.5-0.2-0.9-0.3-1.1-0.2
			c-0.9,0.5-1.7,1-2.6,1.5C45.3,645.3,47.5,649.2,47.2,649.3z"/>
		<path class="st1" d="M43.8,644.3l-0.1,2.7c-0.9-0.5-1.6-0.2-1.6,0.9c0,1,0.7,2.2,1.5,2.7c0.9,0.5,1.6,0.2,1.6-0.9
			c0-1-0.7-2.2-1.5-2.7L43.8,644.3c2.1,1.3,3.9,4.3,3.9,6.8c0,2.4-1.8,3.5-3.9,2.2c-2.1-1.3-3.9-4.3-3.9-6.8
			C39.8,644,41.6,643,43.8,644.3z"/>
		<path class="st13" d="M40.9,644.1c0.7-0.4,1.7-0.4,2.8,0.2c1.1,0.6,2.1,1.7,2.8,2.9c0.7,1.3,1.2,2.7,1.1,3.9c0,1.2-0.5,2-1.2,2.4
			c0.4-0.2,0.2-0.1,0.6-0.3c0.7-0.4,1.1-1.3,1.2-2.4c0-1.3-0.4-2.7-1.1-3.9c-0.7-1.3-1.7-2.4-2.8-2.9c-1.1-0.6-2-0.6-2.8-0.2
			C41.1,643.9,41.3,643.8,40.9,644.1z"/>
		<path class="st27" d="M41.2,648.6c0.9,0.6,1.6,1.7,1.5,2.8c0,0.5-0.2,0.9-0.5,1c0.9-0.5,1.7-1,2.6-1.5c0.3-0.2,0.5-0.5,0.5-1
			c0-1-0.7-2.2-1.5-2.7c-0.5-0.2-0.9-0.3-1.1-0.2c-0.9,0.5-1.7,1-2.6,1.5C40.3,648.2,40.7,648.2,41.2,648.6z"/>
		<path class="st13" d="M40,647.6c1.7,0.9,2.9,3.2,2.9,5.1c0,0.9-0.3,1.6-0.9,1.9c0.4-0.2,0.3-0.2,0.7-0.4c0.6-0.3,0.9-0.9,0.9-1.9
			c0-1.9-1.3-4.2-2.9-5.1c-0.8-0.5-1.6-0.6-2.1-0.2c-0.4,0.2-0.3,0.2-0.7,0.4C38.4,647.1,39.2,647.1,40,647.6z"/>
		<path class="st1" d="M40,647.6c1.7,0.9,2.9,3.2,2.9,5.1c0,1.9-1.3,2.6-3,1.7c-1.7-0.9-2.9-3.2-2.9-5.1
			C37.1,647.4,38.4,646.7,40,647.6z"/>
		<path class="st13" d="M54,647.2l0.2-0.2c0.2-0.9,0-1.7-0.5-2.8l-0.2,0.2C53.8,645.1,54.2,646.1,54,647.2z"/>
		<path class="st13" d="M55.6,645.6l0.2-0.2c0-0.4,0-0.7-0.2-1.4l-0.2,0.2C55.5,644.5,55.6,645,55.6,645.6z"/>
		<path class="st13" d="M58.9,643.7l0.2-0.2c0-0.4,0-0.7-0.2-1.4l-0.2,0.2C58.7,642.7,58.9,643.1,58.9,643.7z"/>
		<path class="st13" d="M57.2,644.7l0.2-0.2c0-0.4,0-0.7-0.2-1.4l-0.2,0.2C57.1,643.7,57.2,644.1,57.2,644.7z"/>
		<path class="st13" d="M49.2,649.3l0.2-0.2c0-0.4,0-0.7-0.2-1.4l-0.2,0.2C49,648.2,49.1,648.7,49.2,649.3z"/>
		<path class="st13" d="M52.4,647.4l0.2-0.2c0-0.4,0-0.7-0.2-1.4l-0.2,0.2C52.3,646.4,52.4,646.8,52.4,647.4z"/>
		<path class="st13" d="M50.8,648.4l0.2-0.2c0-0.4,0-0.7-0.2-1.4l-0.2,0.2C50.6,647.4,50.8,647.8,50.8,648.4z"/>
		<path class="st37" d="M103.8,255.4v1.6c0-0.5-0.3-0.9-0.8-1.2c-0.1-0.1-0.2-0.1-0.4-0.2c-0.6-0.3-1.4-0.4-2.2-0.3
			c-0.7,0.1-1.5,0.3-1.9,0.6c-0.4,0.3-0.5,0.6-0.5,1v-1.6c0-0.4,0.2-0.7,0.5-1c0.5-0.4,1.1-0.6,1.9-0.6c0.7-0.1,1.6,0,2.2,0.3
			c0.1,0.1,0.3,0.1,0.4,0.2C103.5,254.6,103.8,255,103.8,255.4z"/>
		<path class="st37" d="M105,255.4v1.6c0,0.4-0.2,0.8-0.5,1.2v-1.6C104.8,256.2,105,255.9,105,255.4z"/>
		<path class="st27" d="M101.7,257.8v1.6c-1.1,0.1-2.3,0-3.2-0.5c-0.2-0.1-0.4-0.2-0.5-0.3c-0.8-0.5-1.2-1.1-1.2-1.7v-1.6
			c0,0.6,0.4,1.2,1.2,1.7c0.2,0.1,0.4,0.2,0.5,0.3C99.4,257.8,100.6,257.9,101.7,257.8z"/>
		<path class="st37" d="M103.3,258.5v1.6l-0.5,0.1v-1.6L103.3,258.5z"/>
		<path class="st37" d="M106.6,258.9l-0.1,1.6l-0.8,0.6v-1.6L106.6,258.9z"/>
		<path class="st27" d="M105.7,259.5v1.6l-2.4-1v-1.6L105.7,259.5z"/>
		<path class="st27" d="M109.8,262.3v1.6l-1.7-1.4v-1.6L109.8,262.3z"/>
		<path class="st37" d="M118.1,263.7v1.6c0-0.4-0.2-0.7-0.5-1c-0.1-0.1-0.2-0.2-0.3-0.2c-1-0.6-2.7-0.6-3.7-0.2
			c-0.6,0.3-1,0.6-1.2,1.1c0,0.1,0,0.2,0,0.3v-1.6c0-0.1,0-0.2,0-0.3c0.1-0.5,0.5-0.8,1.2-1.1c1.2-0.5,2.7-0.5,3.7,0.2
			c0.1,0.1,0.2,0.1,0.3,0.2C117.9,263,118.1,263.4,118.1,263.7z"/>
		<path class="st27" d="M119.3,263.7v1.6c0,0.1,0,0.3-0.1,0.4v-1.6C119.3,264,119.3,263.8,119.3,263.7z"/>
		<path class="st37" d="M102.9,258.6v1.6l-7.7,8.4V267L102.9,258.6z"/>
		<path class="st37" d="M111.1,263.3v1.6l-16.7,5.1v-1.6L111.1,263.3z"/>
		<path class="st27" d="M119.2,264.1v1.6c-0.2,0.6-0.7,1.2-1.6,1.6c-1.6,0.7-3.9,0.5-5.4-0.3c-0.2-0.1-0.3-0.2-0.5-0.3
			c-0.5-0.5-0.8-0.9-0.8-1.4v-1.6c0,0.5,0.3,1,0.8,1.4c0.1,0.1,0.3,0.2,0.5,0.3c1.5,0.8,3.7,0.9,5.4,0.3
			C118.5,265.3,119,264.7,119.2,264.1z"/>
		<path class="st37" d="M94.4,268.4v1.6l-1,0.6V269L94.4,268.4z"/>
		<path class="st37" d="M93.4,269v1.6h-0.1L93.4,269L93.4,269z"/>
		<path class="st37" d="M91.2,269.3v1.6c-3.5,0.8-13,3.2-13,3.2v-1.6C78.2,272.5,87.7,270.2,91.2,269.3z"/>
		<path class="st37" d="M93.3,269.5v1.6c0,4.2-7.1,7.5-7.7,7.4v-1.6C86.2,277,93.3,273.7,93.3,269.5z"/>
		<path class="st13" d="M119.2,264.1c-0.2,0.6-0.7,1.2-1.6,1.6c-1.6,0.7-3.9,0.5-5.4-0.3c-0.2-0.1-0.3-0.2-0.5-0.3
			c-0.6-0.5-0.9-1.2-0.7-1.8v-0.1l-16.8,5.1l-1,0.5l-0.1,0.1c0.5,4.4-7,8-7.7,7.8c0,0,4-5.5,5.6-7.5c-3.5,0.8-13,3.2-13,3.2
			c-0.3-0.4,5.9-4.7,13.4-4.4h0.1l1-0.5l9-9.7c-1.1,0.1-2.3,0-3.2-0.5c-0.2-0.1-0.4-0.2-0.5-0.3c-1.5-0.8-1.6-2.1-0.5-3.1
			c0.6-0.5,1.6-0.8,2.7-0.9c1.1-0.1,2.2,0.1,3.1,0.5c0.2,0.1,0.4,0.2,0.5,0.3c1.4,0.8,1.6,1.9,0.6,2.9l0.2,1.5l1.9,0.8l-0.8,0.6
			l-2.4-1h-0.4l-7.8,8.4l14.5-4.5l0.1-0.3l-1.7-1.4l1.1-0.5l1.4,1.1l2.5,0.1c1.6-0.5,3.7-0.4,4.9,0.4c0.2,0.1,0.3,0.2,0.5,0.3
			C119.1,262.8,119.4,263.5,119.2,264.1z M99.1,256.8c1.3,0.5,3.1,0.4,4.1-0.4c0.8-0.6,0.7-1.6-0.3-2.2c-0.1-0.1-0.2-0.1-0.4-0.2
			c-0.6-0.3-1.4-0.4-2.2-0.3c-0.7,0.1-1.5,0.3-1.9,0.6c-0.8,0.6-0.7,1.6,0.3,2.2C98.9,256.7,99,256.8,99.1,256.8z M116.8,265.1
			c0.6-0.3,1-0.6,1.2-1.1c0.1-0.5-0.1-0.9-0.5-1.3c-0.1-0.1-0.2-0.2-0.3-0.2c-1-0.6-2.6-0.6-3.7-0.2c-0.6,0.3-1,0.6-1.2,1.1
			c-0.1,0.5,0.1,0.9,0.5,1.3c0.1,0.1,0.2,0.2,0.3,0.2C114.1,265.6,115.7,265.6,116.8,265.1z"/>
		<rect x="219" y="576" class="st12" width="118" height="103"/>
	</g>
</g>
</svg>
