<svg width="72" height="72" viewBox="0 0 72 72" fill="none" xmlns="http://www.w3.org/2000/svg">
<g filter="url(#filter0_dd_2119_3937)">
<circle cx="36" cy="28" r="20" fill="#424452"/>
<path d="M35.7393 19.0001C35.5441 19.0029 35.3577 19.0817 35.2197 19.2198L28.2197 26.2198C28.1477 26.2889 28.0903 26.3717 28.0507 26.4633C28.0111 26.5549 27.9902 26.6535 27.9892 26.7532C27.9882 26.853 28.0071 26.952 28.0448 27.0444C28.0825 27.1368 28.1383 27.2207 28.2088 27.2912C28.2794 27.3618 28.3633 27.4176 28.4557 27.4553C28.5481 27.493 28.6471 27.5119 28.7468 27.5109C28.8466 27.5099 28.9452 27.489 29.0368 27.4494C29.1284 27.4098 29.2112 27.3523 29.2803 27.2803L35 21.5606V36.2501C34.9986 36.3495 35.017 36.4481 35.054 36.5404C35.0911 36.6326 35.1461 36.7165 35.2159 36.7873C35.2857 36.8581 35.3688 36.9143 35.4605 36.9526C35.5522 36.991 35.6506 37.0108 35.75 37.0108C35.8494 37.0108 35.9478 36.991 36.0395 36.9526C36.1312 36.9143 36.2143 36.8581 36.2841 36.7873C36.3539 36.7165 36.4089 36.6326 36.446 36.5404C36.483 36.4481 36.5014 36.3495 36.5 36.2501V21.5606L42.2197 27.2803C42.2888 27.3523 42.3716 27.4098 42.4632 27.4494C42.5548 27.489 42.6534 27.5099 42.7532 27.5109C42.8529 27.5119 42.9519 27.493 43.0443 27.4553C43.1367 27.4176 43.2206 27.3618 43.2912 27.2912C43.3617 27.2207 43.4175 27.1368 43.4552 27.0444C43.4929 26.952 43.5118 26.853 43.5108 26.7532C43.5098 26.6535 43.4889 26.5549 43.4493 26.4633C43.4097 26.3717 43.3522 26.2889 43.2803 26.2198L36.2803 19.2198C36.2094 19.1489 36.1249 19.0929 36.032 19.0551C35.9391 19.0174 35.8395 18.9987 35.7393 19.0001Z" fill="white"/>
</g>
<defs>
<filter id="filter0_dd_2119_3937" x="0" y="0" width="72" height="72" filterUnits="userSpaceOnUse" color-interpolation-filters="sRGB">
<feFlood flood-opacity="0" result="BackgroundImageFix"/>
<feColorMatrix in="SourceAlpha" type="matrix" values="0 0 0 0 0 0 0 0 0 0 0 0 0 0 0 0 0 0 127 0" result="hardAlpha"/>
<feOffset dy="8"/>
<feGaussianBlur stdDeviation="8"/>
<feColorMatrix type="matrix" values="0 0 0 0 0.258824 0 0 0 0 0.266667 0 0 0 0 0.321569 0 0 0 0.16 0"/>
<feBlend mode="normal" in2="BackgroundImageFix" result="effect1_dropShadow_2119_3937"/>
<feColorMatrix in="SourceAlpha" type="matrix" values="0 0 0 0 0 0 0 0 0 0 0 0 0 0 0 0 0 0 127 0" result="hardAlpha"/>
<feOffset dy="2"/>
<feGaussianBlur stdDeviation="2"/>
<feColorMatrix type="matrix" values="0 0 0 0 0.113725 0 0 0 0 0.121569 0 0 0 0 0.156863 0 0 0 0.04 0"/>
<feBlend mode="normal" in2="effect1_dropShadow_2119_3937" result="effect2_dropShadow_2119_3937"/>
<feBlend mode="normal" in="SourceGraphic" in2="effect2_dropShadow_2119_3937" result="shape"/>
</filter>
</defs>
</svg>
