<svg width="19" height="17" viewBox="0 0 19 17" fill="none" xmlns="http://www.w3.org/2000/svg">
<path d="M7.73521 0.493231C7.54043 0.498908 7.3555 0.580163 7.21958 0.719793L0.219582 7.7198C0.078983 7.86045 0 8.05119 0 8.25007C0 8.44895 0.078983 8.63968 0.219582 8.78034L7.21958 15.7803C7.28869 15.8523 7.37147 15.9098 7.46306 15.9494C7.55466 15.989 7.65323 16.0099 7.75301 16.0109C7.85279 16.0119 7.95177 15.993 8.04415 15.9553C8.13654 15.9176 8.22046 15.8618 8.29102 15.7912C8.36158 15.7207 8.41735 15.6368 8.45507 15.5444C8.49278 15.452 8.51169 15.353 8.51068 15.2532C8.50966 15.1534 8.48875 15.0549 8.44916 14.9633C8.40957 14.8717 8.35211 14.7889 8.28013 14.7198L2.5604 9.00007H17.2499C17.3492 9.00147 17.4479 8.98311 17.5401 8.94605C17.6324 8.90899 17.7163 8.85397 17.7871 8.78419C17.8579 8.71441 17.9141 8.63125 17.9524 8.53956C17.9908 8.44787 18.0105 8.34946 18.0105 8.25007C18.0105 8.15067 17.9908 8.05227 17.9524 7.96058C17.9141 7.86889 17.8579 7.78573 17.7871 7.71595C17.7163 7.64617 17.6324 7.59115 17.5401 7.55408C17.4479 7.51702 17.3492 7.49866 17.2499 7.50007H2.5604L8.28013 1.78034C8.38833 1.67496 8.4622 1.53938 8.49206 1.39132C8.52193 1.24327 8.50641 1.08965 8.44752 0.950565C8.38864 0.811481 8.28914 0.693413 8.16204 0.611813C8.03495 0.530213 7.88618 0.488883 7.73521 0.493231Z" fill="white"/>
</svg>
