<svg width="107" height="48" viewBox="0 0 107 48" fill="none" xmlns="http://www.w3.org/2000/svg">
<rect width="107" height="48" rx="24" fill="#F0EBE3"/>
<path d="M26.7352 16.4935C26.5404 16.4992 26.3555 16.5804 26.2196 16.72L19.2196 23.72C19.079 23.8607 19 24.0514 19 24.2503C19 24.4492 19.079 24.6399 19.2196 24.7806L26.2196 31.7806C26.2887 31.8526 26.3715 31.91 26.4631 31.9496C26.5547 31.9892 26.6532 32.0101 26.753 32.0111C26.8528 32.0121 26.9518 31.9932 27.0442 31.9555C27.1365 31.9178 27.2205 31.862 27.291 31.7915C27.3616 31.7209 27.4174 31.637 27.4551 31.5446C27.4928 31.4522 27.5117 31.3533 27.5107 31.2535C27.5097 31.1537 27.4887 31.0551 27.4492 30.9635C27.4096 30.8719 27.3521 30.7892 27.2801 30.72L21.5604 25.0003H36.2499C36.3492 25.0017 36.4479 24.9834 36.5401 24.9463C36.6324 24.9092 36.7163 24.8542 36.7871 24.7844C36.8579 24.7146 36.9141 24.6315 36.9524 24.5398C36.9908 24.4481 37.0105 24.3497 37.0105 24.2503C37.0105 24.1509 36.9908 24.0525 36.9524 23.9608C36.9141 23.8691 36.8579 23.786 36.7871 23.7162C36.7163 23.6464 36.6324 23.5914 36.5401 23.5543C36.4479 23.5173 36.3492 23.4989 36.2499 23.5003H21.5604L27.2801 17.7806C27.3883 17.6752 27.4622 17.5396 27.4921 17.3916C27.5219 17.2435 27.5064 17.0899 27.4475 16.9508C27.3886 16.8117 27.2891 16.6937 27.162 16.6121C27.0349 16.5305 26.8862 16.4891 26.7352 16.4935Z" fill="#424452"/>
<path d="M55.54 21.32H50.96V23.54H53.2V28.68H55.54V21.32ZM55.54 27.64H53.36C52.44 28.36 51.42 29.06 50.52 29.62L51.7 32.12C52.76 31.24 53.64 30.48 54.5 29.7C55.8 31.26 57.48 31.84 59.98 31.94C62.38 32.04 66.42 32 68.84 31.88C68.96 31.16 69.34 30 69.6 29.44C66.9 29.66 62.36 29.72 60.02 29.62C57.9 29.54 56.36 28.98 55.54 27.64ZM50.98 15.42C52.16 16.32 53.56 17.68 54.14 18.62L56.06 17.06C55.38 16.12 53.94 14.84 52.76 13.98L50.98 15.42ZM58.8 14.32V16.54H68.72V14.32H58.8ZM59.1 18.4V20.54H66.44V18.4H59.1ZM57.66 14.32V18.98C57.66 21.52 57.48 24.98 55.6 27.38C56.16 27.64 57.2 28.28 57.6 28.68C59.64 26.04 59.96 21.9 59.96 19V14.32H57.66ZM65.86 18.4V18.78C65 22.94 62.3 25.88 58.68 27.06C59.16 27.54 59.76 28.48 60.04 29.08C64.22 27.42 67.16 24.28 68.26 18.82L66.74 18.34L66.3 18.4H65.86ZM61.88 19.94L59.76 20.44C61.22 24.78 63.68 27.76 67.98 29.14C68.32 28.5 69 27.54 69.52 27.06C65.52 26.02 63.06 23.44 61.88 19.94ZM78.98 21.1H82.52V24.56H78.98V21.1ZM76.72 19V26.64H84.92V19H76.72ZM72.32 14.2V32.3H74.8V16.64H86.88V32.3H89.48V14.2H72.32ZM73.72 28.98V31.22H88.36V28.98H73.72Z" fill="#424452"/>
</svg>
