<svg width="40" height="40" viewBox="0 0 40 40" fill="none" xmlns="http://www.w3.org/2000/svg">
<path d="M20.0007 3.33398C10.7957 3.33398 3.33398 10.7957 3.33398 20.0007C3.33398 29.2057 10.7957 36.6673 20.0007 36.6673C29.2057 36.6673 36.6673 29.2057 36.6673 20.0007C36.6673 10.7957 29.2057 3.33398 20.0007 3.33398ZM26.3015 24.5332C26.7898 25.0215 26.7898 25.8123 26.3015 26.3007C26.0573 26.5457 25.7373 26.6673 25.4173 26.6673C25.0973 26.6673 24.7773 26.5457 24.5332 26.3015L20.0007 21.7682L15.4682 26.3007C15.224 26.5457 14.904 26.6673 14.584 26.6673C14.264 26.6673 13.944 26.5457 13.6998 26.3015C13.2115 25.8132 13.2115 25.0223 13.6998 24.534L18.2332 20.0007L13.7007 15.4682C13.2123 14.9798 13.2123 14.189 13.7007 13.7007C14.189 13.2123 14.9798 13.2123 15.4682 13.7007L20.0007 18.2332L24.5332 13.7007C25.0215 13.2123 25.8123 13.2123 26.3007 13.7007C26.789 14.189 26.789 14.9798 26.3007 15.4682L21.7682 20.0007L26.3015 24.5332Z" fill="#424452"/>
</svg>
