<svg width="60" height="60" viewBox="0 0 60 60" fill="none" xmlns="http://www.w3.org/2000/svg">
<path d="M14.375 7.5C10.6003 7.5 7.5 10.6003 7.5 14.375V45.625C7.5 49.3997 10.6003 52.5 14.375 52.5H45.625C49.3997 52.5 52.5 49.3997 52.5 45.625V14.375C52.5 10.6003 49.3997 7.5 45.625 7.5H14.375ZM14.375 11.25H45.625C47.3728 11.25 48.75 12.6272 48.75 14.375V45.625C48.75 47.3728 47.3728 48.75 45.625 48.75H37.5V36.25H42.0312C42.6613 36.25 43.194 35.7788 43.2715 35.1538L43.7402 31.4038C43.7852 31.0488 43.6726 30.6924 43.4351 30.4224C43.1988 30.1536 42.8587 30 42.5 30H37.5V25.625C37.5 24.2463 38.6213 23.125 40 23.125H42.5C43.19 23.125 43.75 22.5662 43.75 21.875V17.6562C43.75 17.0087 43.2561 16.4686 42.6123 16.4111C42.5386 16.4049 40.775 16.25 38.5425 16.25C33.0337 16.25 30 19.5202 30 25.459V30H25C24.31 30 23.75 30.5588 23.75 31.25V35C23.75 35.6912 24.31 36.25 25 36.25H30V48.75H14.375C12.6272 48.75 11.25 47.3728 11.25 45.625V14.375C11.25 12.6272 12.6272 11.25 14.375 11.25Z" fill="#898B91"/>
</svg>
