<svg width="32" height="32" viewBox="0 0 32 32" fill="none" xmlns="http://www.w3.org/2000/svg">
<path d="M3.68123 6.0001C3.54872 5.99823 3.41716 6.02271 3.29419 6.07212C3.17122 6.12153 3.0593 6.1949 2.96493 6.28794C2.87056 6.38098 2.79563 6.49186 2.74448 6.61411C2.69333 6.73637 2.66699 6.86757 2.66699 7.0001C2.66699 7.13262 2.69333 7.26383 2.74448 7.38609C2.79563 7.50834 2.87056 7.61922 2.96493 7.71226C3.0593 7.8053 3.17122 7.87866 3.29419 7.92808C3.41716 7.97749 3.54872 8.00197 3.68123 8.0001H28.3479C28.4804 8.00197 28.612 7.97749 28.7349 7.92808C28.8579 7.87866 28.9698 7.8053 29.0642 7.71226C29.1586 7.61922 29.2335 7.50834 29.2847 7.38609C29.3358 7.26383 29.3621 7.13262 29.3621 7.0001C29.3621 6.86757 29.3358 6.73637 29.2847 6.61411C29.2335 6.49186 29.1586 6.38098 29.0642 6.28794C28.9698 6.1949 28.8579 6.12153 28.7349 6.07212C28.612 6.02271 28.4804 5.99823 28.3479 6.0001H3.68123ZM3.68123 15.0001C3.54872 14.9982 3.41716 15.0227 3.29419 15.0721C3.17122 15.1215 3.0593 15.1949 2.96493 15.2879C2.87056 15.381 2.79563 15.4919 2.74448 15.6141C2.69333 15.7364 2.66699 15.8676 2.66699 16.0001C2.66699 16.1326 2.69333 16.2638 2.74448 16.3861C2.79563 16.5083 2.87056 16.6192 2.96493 16.7123C3.0593 16.8053 3.17122 16.8787 3.29419 16.9281C3.41716 16.9775 3.54872 17.002 3.68123 17.0001H28.3479C28.4804 17.002 28.612 16.9775 28.7349 16.9281C28.8579 16.8787 28.9698 16.8053 29.0642 16.7123C29.1586 16.6192 29.2335 16.5083 29.2847 16.3861C29.3358 16.2638 29.3621 16.1326 29.3621 16.0001C29.3621 15.8676 29.3358 15.7364 29.2847 15.6141C29.2335 15.4919 29.1586 15.381 29.0642 15.2879C28.9698 15.1949 28.8579 15.1215 28.7349 15.0721C28.612 15.0227 28.4804 14.9982 28.3479 15.0001H3.68123ZM3.68123 24.0001C3.54872 23.9982 3.41716 24.0227 3.29419 24.0721C3.17122 24.1215 3.0593 24.1949 2.96493 24.2879C2.87056 24.381 2.79563 24.4919 2.74448 24.6141C2.69333 24.7364 2.66699 24.8676 2.66699 25.0001C2.66699 25.1326 2.69333 25.2638 2.74448 25.3861C2.79563 25.5083 2.87056 25.6192 2.96493 25.7123C3.0593 25.8053 3.17122 25.8787 3.29419 25.9281C3.41716 25.9775 3.54872 26.002 3.68123 26.0001H28.3479C28.4804 26.002 28.612 25.9775 28.7349 25.9281C28.8579 25.8787 28.9698 25.8053 29.0642 25.7123C29.1586 25.6192 29.2335 25.5083 29.2847 25.3861C29.3358 25.2638 29.3621 25.1326 29.3621 25.0001C29.3621 24.8676 29.3358 24.7364 29.2847 24.6141C29.2335 24.4919 29.1586 24.381 29.0642 24.2879C28.9698 24.1949 28.8579 24.1215 28.7349 24.0721C28.612 24.0227 28.4804 23.9982 28.3479 24.0001H3.68123Z" fill="#424452"/>
</svg>
