<svg width="60" height="60" viewBox="0 0 60 60" fill="none" xmlns="http://www.w3.org/2000/svg">
<path d="M20.625 6.25C12.708 6.25 6.25 12.708 6.25 20.625V39.375C6.25 47.2909 12.7078 53.75 20.625 53.75H39.375C47.2912 53.75 53.75 47.2912 53.75 39.375V20.625C53.75 12.7078 47.2909 6.25 39.375 6.25H20.625ZM20.625 10H39.375C45.2641 10 50 14.7347 50 20.625V39.375C50 45.2638 45.2638 50 39.375 50H20.625C14.7347 50 10 45.2641 10 39.375V20.625C10 14.7345 14.7345 10 20.625 10ZM42.5 15C41.1188 15 40 16.1187 40 17.5C40 18.8813 41.1188 20 42.5 20C43.8812 20 45 18.8813 45 17.5C45 16.1187 43.8812 15 42.5 15ZM30 17.5C23.119 17.5 17.5 23.119 17.5 30C17.5 36.881 23.119 42.5 30 42.5C36.881 42.5 42.5 36.881 42.5 30C42.5 23.119 36.881 17.5 30 17.5ZM30 21.25C34.854 21.25 38.75 25.146 38.75 30C38.75 34.854 34.854 38.75 30 38.75C25.146 38.75 21.25 34.854 21.25 30C21.25 25.146 25.146 21.25 30 21.25Z" fill="#898B91"/>
</svg>
