<svg width="60" height="60" viewBox="0 0 60 60" fill="none" xmlns="http://www.w3.org/2000/svg">
<path d="M28.7603 6.25C14.5006 6.25 2.50781 15.6885 2.50781 27.7954C2.50781 38.5928 12.0097 47.3557 24.3828 49.0405C24.6675 49.1023 24.9722 49.2015 25.1665 49.2871C25.148 49.3939 25.192 49.8891 25.1323 50.3418V50.3442C25.1163 50.4406 24.8518 52.0193 24.7954 52.3486L24.7979 52.3462C24.704 52.8875 24.403 53.7919 25.2422 55.061C25.6618 55.6956 26.6072 56.2345 27.4541 56.25C28.301 56.2655 29.0117 55.9872 29.7905 55.5591C35.4756 52.4329 41.6522 48.9054 46.519 44.4751C51.3859 40.0448 55.0078 34.5489 55.0078 27.7954C55.0078 15.6889 43.0199 6.25 28.7603 6.25ZM28.7603 10C41.3782 10 51.2578 18.2094 51.2578 27.7954C51.2578 33.2231 48.4191 37.6741 43.9946 41.7017C39.752 45.5637 34.1091 48.8665 28.6797 51.8677C28.7516 51.4371 28.8408 50.8984 28.8408 50.8984L28.8457 50.8691L28.8506 50.8398C28.9444 50.1365 29.2067 49.0812 28.6553 47.7026L28.6528 47.7002V47.6978C28.2358 46.6668 27.4638 46.2186 26.8462 45.9229C26.2286 45.6271 25.6442 45.475 25.1592 45.3711L25.0859 45.3564L25.0103 45.3467C14.0249 43.9014 6.25781 36.4045 6.25781 27.7954C6.25781 18.2098 16.1424 10 28.7603 10ZM22.918 21.4209C22.213 21.4209 21.6387 21.9904 21.6387 22.6904V32.3071C21.6387 33.0084 22.2117 33.5767 22.918 33.5767C23.623 33.5767 24.1973 33.0071 24.1973 32.3071V22.6904C24.1973 21.9904 23.6242 21.4209 22.918 21.4209ZM27.3174 21.4209C27.1799 21.4209 27.0422 21.4431 26.9097 21.4868C26.3872 21.6606 26.0356 22.1442 26.0356 22.6904V32.3071C26.0356 33.0084 26.6111 33.5767 27.3174 33.5767C28.0249 33.5767 28.5991 33.0071 28.5991 32.3071V26.3599L33.5674 33.0688C33.8074 33.3863 34.1903 33.5767 34.5903 33.5767C34.7266 33.5767 34.8631 33.5545 34.9956 33.5107C35.5206 33.3395 35.8721 32.8559 35.8721 32.3071V22.688C35.8721 21.988 35.299 21.4209 34.5928 21.4209C33.8865 21.4209 33.311 21.988 33.311 22.688V28.6401L28.3403 21.9287C28.1003 21.6112 27.7161 21.4209 27.3174 21.4209ZM14.334 21.4233C13.629 21.4233 13.0547 21.9904 13.0547 22.6904V32.3096C13.0547 33.0108 13.6277 33.5791 14.334 33.5791H19.1826C19.8889 33.5791 20.4607 33.0071 20.4595 32.3071C20.4595 31.6071 19.8889 31.0376 19.1826 31.0376H15.6108V22.6904C15.6108 21.9904 15.0402 21.4233 14.334 21.4233ZM38.8701 21.4233C38.1651 21.4233 37.5908 21.9929 37.5908 22.6929V22.6953V27.4976V27.5V27.5024V32.3071C37.5908 33.0084 38.1664 33.5767 38.8701 33.5767H43.7188C44.425 33.5767 45.0005 33.0071 45.0005 32.3071C45.0005 31.6071 44.425 31.0376 43.7188 31.0376H40.1494V28.7671H43.7188C44.4263 28.7671 45.0005 28.1976 45.0005 27.4976C45.0005 26.7963 44.425 26.228 43.7188 26.228V26.2329H40.1494V23.9624H43.7188C44.4263 23.9624 45.0005 23.3929 45.0005 22.6929C45.0005 21.9929 44.425 21.4233 43.7188 21.4233H38.8701Z" fill="#898B91"/>
</svg>
