<svg width="69" height="41" viewBox="0 0 69 41" fill="none" xmlns="http://www.w3.org/2000/svg">
<path d="M0 20.5C0 9.17816 9.17816 0 20.5 0H48.5C59.8218 0 69 9.17816 69 20.5C69 31.8218 59.8218 41 48.5 41H20.5C9.17816 41 0 31.8218 0 20.5Z" fill="#424452"/>
<path d="M22.098 16.524V18.324H28.758V16.524H22.098ZM17.67 26.496V28.26H33.222V26.496H17.67ZM18.714 12.384V14.13H23.754V12.384H18.714ZM23.07 12.384V12.744C22.08 15.408 19.398 17.856 16.716 18.99C17.148 19.368 17.724 20.106 18.012 20.556C21.036 19.098 23.88 16.524 25.212 12.996L23.808 12.294L23.43 12.384H23.07ZM27.174 11.772L25.338 12.348C26.832 15.912 29.298 18.792 32.61 20.304C32.934 19.746 33.564 18.936 34.068 18.504C30.936 17.316 28.416 14.706 27.174 11.772ZM17.85 15.624C18.624 16.128 19.596 16.902 20.064 17.442L21.27 16.128C20.802 15.588 19.812 14.886 19.002 14.436L17.85 15.624ZM29.946 11.88C29.262 12.672 28.074 13.716 27.21 14.328L28.506 15.336C29.406 14.76 30.576 13.878 31.566 13.032L29.946 11.88ZM31.98 13.986C31.242 14.814 29.982 15.876 29.046 16.524L30.342 17.532C31.296 16.938 32.538 16.002 33.564 15.102L31.98 13.986ZM22.26 21.078H28.416V22.662H22.26V21.078ZM20.154 19.35V24.372H30.648V19.35H20.154ZM21.198 24.606C21.612 25.308 22.008 26.262 22.134 26.874L24.204 26.28C24.042 25.668 23.646 24.75 23.178 24.102L21.198 24.606ZM27.624 24.084C27.408 24.768 26.958 25.74 26.598 26.37L28.488 26.802C28.848 26.226 29.262 25.416 29.712 24.534L27.624 24.084ZM38.712 12.726V14.922H43.806V12.726H38.712ZM42.744 12.726C42.744 16.398 43.536 24.444 50.394 28.566C50.772 28.026 51.636 27.072 52.14 26.676C45.462 22.77 44.976 16.146 44.976 12.726H42.744ZM41.97 16.668C40.998 21.438 38.838 24.93 35.076 26.838C35.634 27.234 36.642 28.134 37.038 28.602C40.8 26.334 43.194 22.464 44.454 17.118L41.97 16.668Z" fill="white"/>
</svg>
