<svg width="19" height="17" viewBox="0 0 19 17" fill="none" xmlns="http://www.w3.org/2000/svg">
<path d="M7.73521 0.492499C7.54043 0.498175 7.3555 0.57943 7.21958 0.719061L0.219582 7.71906C0.078983 7.85972 0 8.05046 0 8.24934C0 8.44821 0.078983 8.63895 0.219582 8.77961L7.21958 15.7796C7.28869 15.8516 7.37147 15.9091 7.46306 15.9486C7.55466 15.9882 7.65323 16.0091 7.75301 16.0102C7.85279 16.0112 7.95177 15.9923 8.04415 15.9545C8.13654 15.9168 8.22046 15.8611 8.29102 15.7905C8.36158 15.7199 8.41735 15.636 8.45507 15.5436C8.49278 15.4513 8.51169 15.3523 8.51068 15.2525C8.50966 15.1527 8.48875 15.0541 8.44916 14.9625C8.40957 14.871 8.35211 14.7882 8.28013 14.7191L2.5604 8.99934H17.2499C17.3492 9.00074 17.4479 8.98238 17.5401 8.94532C17.6324 8.90826 17.7163 8.85324 17.7871 8.78346C17.8579 8.71367 17.9141 8.63052 17.9524 8.53883C17.9908 8.44713 18.0105 8.34873 18.0105 8.24934C18.0105 8.14994 17.9908 8.05154 17.9524 7.95985C17.9141 7.86815 17.8579 7.785 17.7871 7.71522C17.7163 7.64543 17.6324 7.59041 17.5401 7.55335C17.4479 7.51629 17.3492 7.49793 17.2499 7.49934H2.5604L8.28013 1.77961C8.38833 1.67423 8.4622 1.53864 8.49206 1.39059C8.52193 1.24254 8.50641 1.08892 8.44752 0.949833C8.38864 0.810749 8.28914 0.692681 8.16204 0.611081C8.03495 0.529481 7.88618 0.48815 7.73521 0.492499V0.492499Z" fill="white"/>
</svg>
