<svg width="24" height="27" viewBox="0 0 24 27" fill="none" xmlns="http://www.w3.org/2000/svg">
<path d="M11.9674 0.6665C11.7542 0.673781 11.5489 0.749062 11.3815 0.881343L1.90625 8.34619C0.703651 9.29394 0 10.7422 0 12.2733V24.9998C0 25.9089 0.757604 26.6665 1.66667 26.6665H8.33333C9.2424 26.6665 10 25.9089 10 24.9998V18.3332C10 18.1365 10.1366 17.9998 10.3333 17.9998H13.6667C13.8634 17.9998 14 18.1365 14 18.3332V24.9998C14 25.9089 14.7576 26.6665 15.6667 26.6665H22.3333C23.2424 26.6665 24 25.9089 24 24.9998V12.2733C24 10.7422 23.2963 9.29394 22.0938 8.34619L12.6185 0.881343C12.4336 0.73526 12.203 0.659172 11.9674 0.6665ZM12 2.93994L20.8568 9.9178C21.5795 10.4874 22 11.3537 22 12.2733V24.6665H16V18.3332C16 17.0565 14.9433 15.9998 13.6667 15.9998H10.3333C9.0567 15.9998 8 17.0565 8 18.3332V24.6665H2V12.2733C2 11.3537 2.42049 10.4874 3.14323 9.9178L12 2.93994Z" fill="#424452"/>
</svg>
