<svg width="28" height="17" viewBox="0 0 28 17" fill="none" xmlns="http://www.w3.org/2000/svg">
<path d="M2.33268 0C1.89065 0 1.46673 0.175595 1.15417 0.488155C0.84161 0.800716 0.666016 1.22464 0.666016 1.66667C0.666016 2.10869 0.84161 2.53262 1.15417 2.84518C1.46673 3.15774 1.89065 3.33333 2.33268 3.33333C2.77471 3.33333 3.19863 3.15774 3.51119 2.84518C3.82375 2.53262 3.99935 2.10869 3.99935 1.66667C3.99935 1.22464 3.82375 0.800716 3.51119 0.488155C3.19863 0.175595 2.77471 0 2.33268 0ZM6.99935 0.666667C6.86684 0.664793 6.73527 0.689274 6.61231 0.738687C6.48934 0.788101 6.37742 0.861462 6.28305 0.954507C6.18868 1.04755 6.11374 1.15842 6.06259 1.28068C6.01145 1.40294 5.98511 1.53414 5.98511 1.66667C5.98511 1.79919 6.01145 1.9304 6.06259 2.05265C6.11374 2.17491 6.18868 2.28578 6.28305 2.37883C6.37742 2.47187 6.48934 2.54523 6.61231 2.59465C6.73527 2.64406 6.86684 2.66854 6.99935 2.66667H26.3327C26.4652 2.66854 26.5968 2.64406 26.7197 2.59465C26.8427 2.54523 26.9546 2.47187 27.049 2.37883C27.1434 2.28578 27.2183 2.17491 27.2694 2.05265C27.3206 1.9304 27.3469 1.79919 27.3469 1.66667C27.3469 1.53414 27.3206 1.40294 27.2694 1.28068C27.2183 1.15842 27.1434 1.04755 27.049 0.954507C26.9546 0.861462 26.8427 0.788101 26.7197 0.738687C26.5968 0.689274 26.4652 0.664793 26.3327 0.666667H6.99935ZM2.33268 6.66667C1.89065 6.66667 1.46673 6.84226 1.15417 7.15482C0.84161 7.46738 0.666016 7.89131 0.666016 8.33333C0.666016 8.77536 0.84161 9.19928 1.15417 9.51184C1.46673 9.8244 1.89065 10 2.33268 10C2.77471 10 3.19863 9.8244 3.51119 9.51184C3.82375 9.19928 3.99935 8.77536 3.99935 8.33333C3.99935 7.89131 3.82375 7.46738 3.51119 7.15482C3.19863 6.84226 2.77471 6.66667 2.33268 6.66667ZM6.99935 7.33333C6.86684 7.33146 6.73527 7.35594 6.61231 7.40535C6.48934 7.45477 6.37742 7.52813 6.28305 7.62117C6.18868 7.71422 6.11374 7.82509 6.06259 7.94735C6.01145 8.0696 5.98511 8.20081 5.98511 8.33333C5.98511 8.46586 6.01145 8.59706 6.06259 8.71932C6.11374 8.84158 6.18868 8.95245 6.28305 9.04549C6.37742 9.13854 6.48934 9.2119 6.61231 9.26131C6.73527 9.31073 6.86684 9.33521 6.99935 9.33333H26.3327C26.4652 9.33521 26.5968 9.31073 26.7197 9.26131C26.8427 9.2119 26.9546 9.13854 27.049 9.04549C27.1434 8.95245 27.2183 8.84158 27.2694 8.71932C27.3206 8.59706 27.3469 8.46586 27.3469 8.33333C27.3469 8.20081 27.3206 8.0696 27.2694 7.94735C27.2183 7.82509 27.1434 7.71422 27.049 7.62117C26.9546 7.52813 26.8427 7.45477 26.7197 7.40535C26.5968 7.35594 26.4652 7.33146 26.3327 7.33333H6.99935ZM2.33268 13.3333C1.89065 13.3333 1.46673 13.5089 1.15417 13.8215C0.84161 14.134 0.666016 14.558 0.666016 15C0.666016 15.442 0.84161 15.866 1.15417 16.1785C1.46673 16.4911 1.89065 16.6667 2.33268 16.6667C2.77471 16.6667 3.19863 16.4911 3.51119 16.1785C3.82375 15.866 3.99935 15.442 3.99935 15C3.99935 14.558 3.82375 14.134 3.51119 13.8215C3.19863 13.5089 2.77471 13.3333 2.33268 13.3333ZM6.99935 14C6.86684 13.9981 6.73527 14.0226 6.61231 14.072C6.48934 14.1214 6.37742 14.1948 6.28305 14.2878C6.18868 14.3809 6.11374 14.4918 6.06259 14.614C6.01145 14.7363 5.98511 14.8675 5.98511 15C5.98511 15.1325 6.01145 15.2637 6.06259 15.386C6.11374 15.5082 6.18868 15.6191 6.28305 15.7122C6.37742 15.8052 6.48934 15.8786 6.61231 15.928C6.73527 15.9774 6.86684 16.0019 6.99935 16H26.3327C26.4652 16.0019 26.5968 15.9774 26.7197 15.928C26.8427 15.8786 26.9546 15.8052 27.049 15.7122C27.1434 15.6191 27.2183 15.5082 27.2694 15.386C27.3206 15.2637 27.3469 15.1325 27.3469 15C27.3469 14.8675 27.3206 14.7363 27.2694 14.614C27.2183 14.4918 27.1434 14.3809 27.049 14.2878C26.9546 14.1948 26.8427 14.1214 26.7197 14.072C26.5968 14.0226 26.4652 13.9981 26.3327 14H6.99935Z" fill="#424452"/>
</svg>
