<svg width="26" height="26" viewBox="0 0 26 26" fill="none" xmlns="http://www.w3.org/2000/svg">
<path d="M21.0007 0.333984C18.4352 0.333984 16.334 2.43517 16.334 5.00065C16.334 5.39116 16.4663 5.74029 16.5579 6.10352L8.56445 10.1022C7.70673 9.04994 6.45499 8.33398 5.00065 8.33398C2.43517 8.33398 0.333984 10.4352 0.333984 13.0007C0.333984 15.5661 2.43517 17.6673 5.00065 17.6673C6.45499 17.6673 7.70673 16.9514 8.56445 15.8991L16.5579 19.8978C16.4663 20.261 16.334 20.6101 16.334 21.0007C16.334 23.5661 18.4352 25.6673 21.0007 25.6673C23.5661 25.6673 25.6673 23.5661 25.6673 21.0007C25.6673 18.4352 23.5661 16.334 21.0007 16.334C19.5463 16.334 18.2946 17.0499 17.4368 18.1022L9.44336 14.1035C9.53496 13.7403 9.66732 13.3912 9.66732 13.0007C9.66732 12.6101 9.53496 12.261 9.44336 11.8978L17.4368 7.89909C18.2946 8.95136 19.5463 9.66732 21.0007 9.66732C23.5661 9.66732 25.6673 7.56613 25.6673 5.00065C25.6673 2.43517 23.5661 0.333984 21.0007 0.333984ZM21.0007 2.33398C22.4853 2.33398 23.6673 3.51605 23.6673 5.00065C23.6673 6.48526 22.4853 7.66732 21.0007 7.66732C19.516 7.66732 18.334 6.48526 18.334 5.00065C18.334 3.51605 19.516 2.33398 21.0007 2.33398ZM5.00065 10.334C6.48526 10.334 7.66732 11.516 7.66732 13.0007C7.66732 14.4853 6.48526 15.6673 5.00065 15.6673C3.51605 15.6673 2.33398 14.4853 2.33398 13.0007C2.33398 11.516 3.51605 10.334 5.00065 10.334ZM21.0007 18.334C22.4853 18.334 23.6673 19.516 23.6673 21.0007C23.6673 22.4853 22.4853 23.6673 21.0007 23.6673C19.516 23.6673 18.334 22.4853 18.334 21.0007C18.334 19.516 19.516 18.334 21.0007 18.334Z" fill="#424452"/>
</svg>
