<svg width="32" height="32" viewBox="0 0 32 32" fill="none" xmlns="http://www.w3.org/2000/svg">
<path d="M0 16C0 7.16344 7.16344 0 16 0C24.8366 0 32 7.16344 32 16C32 24.8366 24.8366 32 16 32C7.16344 32 0 24.8366 0 16Z" fill="white"/>
<path d="M17.0353 9.74414C16.9109 9.74417 16.7893 9.78131 16.6862 9.85081C16.583 9.9203 16.5029 10.019 16.4562 10.1343C16.4094 10.2495 16.3981 10.3761 16.4237 10.4978C16.4493 10.6196 16.5107 10.7309 16.5999 10.8175L21.3663 15.584H9.12511C9.04229 15.5828 8.96007 15.5981 8.88321 15.629C8.80636 15.6599 8.7364 15.7057 8.67742 15.7639C8.61844 15.822 8.57161 15.8913 8.53964 15.9677C8.50767 16.0442 8.49121 16.1262 8.49121 16.209C8.49121 16.2918 8.50767 16.3738 8.53964 16.4502C8.57161 16.5266 8.61844 16.5959 8.67742 16.6541C8.7364 16.7122 8.80636 16.7581 8.88321 16.789C8.96007 16.8199 9.04229 16.8352 9.12511 16.834H21.3663L16.5999 21.6004C16.5399 21.658 16.492 21.727 16.459 21.8033C16.426 21.8797 16.4086 21.9618 16.4078 22.045C16.4069 22.1281 16.4227 22.2106 16.4541 22.2876C16.4855 22.3646 16.532 22.4345 16.5908 22.4933C16.6496 22.5521 16.7195 22.5986 16.7965 22.63C16.8735 22.6614 16.956 22.6772 17.0391 22.6763C17.1223 22.6755 17.2044 22.6581 17.2808 22.6251C17.3571 22.5921 17.4261 22.5442 17.4837 22.4842L23.317 16.6509C23.4342 16.5337 23.5 16.3747 23.5 16.209C23.5 16.0433 23.4342 15.8843 23.317 15.7671L17.4837 9.93376C17.4254 9.87376 17.3557 9.82607 17.2787 9.7935C17.2017 9.76093 17.1189 9.74414 17.0353 9.74414Z" fill="#424452"/>
<path d="M16 31.5C7.43959 31.5 0.5 24.5604 0.5 16H-0.5C-0.5 25.1127 6.8873 32.5 16 32.5V31.5ZM31.5 16C31.5 24.5604 24.5604 31.5 16 31.5V32.5C25.1127 32.5 32.5 25.1127 32.5 16H31.5ZM16 0.5C24.5604 0.5 31.5 7.43959 31.5 16H32.5C32.5 6.8873 25.1127 -0.5 16 -0.5V0.5ZM16 -0.5C6.8873 -0.5 -0.5 6.8873 -0.5 16H0.5C0.5 7.43959 7.43959 0.5 16 0.5V-0.5Z" fill="#424452"/>
</svg>
