<svg width="18" height="18" viewBox="0 0 18 18" fill="none" xmlns="http://www.w3.org/2000/svg">
<path d="M2.75 0C1.24011 0 0 1.24011 0 2.75V15.25C0 16.7599 1.24011 18 2.75 18H15.25C16.7599 18 18 16.7599 18 15.25V2.75C18 1.24011 16.7599 0 15.25 0H2.75ZM2.75 1.5H15.25C15.9491 1.5 16.5 2.05089 16.5 2.75V15.25C16.5 15.9491 15.9491 16.5 15.25 16.5H2.75C2.05089 16.5 1.5 15.9491 1.5 15.25V2.75C1.5 2.05089 2.05089 1.5 2.75 1.5ZM8.98828 3.98926C8.78954 3.99236 8.60016 4.07423 8.46173 4.21686C8.3233 4.3595 8.24715 4.55125 8.25 4.75V8.25H4.75C4.65062 8.24859 4.55194 8.26696 4.45972 8.30402C4.36749 8.34108 4.28355 8.3961 4.21277 8.46588C4.142 8.53566 4.08579 8.61882 4.04743 8.71051C4.00907 8.8022 3.98932 8.90061 3.98932 9C3.98932 9.09939 4.00907 9.1978 4.04743 9.28949C4.08579 9.38118 4.142 9.46434 4.21277 9.53412C4.28355 9.6039 4.36749 9.65892 4.45972 9.69598C4.55194 9.73304 4.65062 9.75141 4.75 9.75H8.25V13.25C8.24859 13.3494 8.26696 13.4481 8.30402 13.5403C8.34108 13.6325 8.3961 13.7164 8.46588 13.7872C8.53566 13.858 8.61882 13.9142 8.71051 13.9526C8.8022 13.9909 8.90061 14.0107 9 14.0107C9.09939 14.0107 9.1978 13.9909 9.28949 13.9526C9.38118 13.9142 9.46434 13.858 9.53412 13.7872C9.6039 13.7164 9.65892 13.6325 9.69598 13.5403C9.73304 13.4481 9.75141 13.3494 9.75 13.25V9.75H13.25C13.3494 9.75141 13.4481 9.73304 13.5403 9.69598C13.6325 9.65892 13.7164 9.6039 13.7872 9.53412C13.858 9.46434 13.9142 9.38118 13.9526 9.28949C13.9909 9.1978 14.0107 9.09939 14.0107 9C14.0107 8.90061 13.9909 8.8022 13.9526 8.71051C13.9142 8.61882 13.858 8.53566 13.7872 8.46588C13.7164 8.3961 13.6325 8.34108 13.5403 8.30402C13.4481 8.26696 13.3494 8.24859 13.25 8.25H9.75V4.75C9.75144 4.64962 9.73271 4.54997 9.69493 4.45695C9.65715 4.36394 9.60108 4.27946 9.53004 4.20852C9.45901 4.13758 9.37446 4.08161 9.2814 4.04395C9.18834 4.00629 9.08866 3.98769 8.98828 3.98926Z" fill="#898B91"/>
</svg>
