<svg width="32" height="32" viewBox="0 0 32 32" fill="none" xmlns="http://www.w3.org/2000/svg">
<path d="M0 16C0 7.16344 7.16344 0 16 0C24.8366 0 32 7.16344 32 16C32 24.8366 24.8366 32 16 32C7.16344 32 0 24.8366 0 16Z" fill="white"/>
<path d="M14.946 9.7444C14.7837 9.74913 14.6296 9.81684 14.5163 9.9332L8.68299 15.7665C8.56582 15.8838 8.5 16.0427 8.5 16.2084C8.5 16.3742 8.56582 16.5331 8.68299 16.6503L14.5163 22.4837C14.5739 22.5436 14.6429 22.5915 14.7192 22.6245C14.7955 22.6575 14.8777 22.6749 14.9608 22.6758C15.044 22.6766 15.1265 22.6609 15.2035 22.6294C15.2804 22.598 15.3504 22.5515 15.4092 22.4927C15.468 22.4339 15.5145 22.364 15.5459 22.287C15.5773 22.21 15.5931 22.1275 15.5922 22.0444C15.5914 21.9612 15.574 21.8791 15.541 21.8028C15.508 21.7264 15.4601 21.6575 15.4001 21.5999L10.6337 16.8334H22.8749C22.9577 16.8346 23.0399 16.8193 23.1168 16.7884C23.1936 16.7575 23.2636 16.7117 23.3226 16.6535C23.3815 16.5954 23.4284 16.5261 23.4604 16.4497C23.4923 16.3733 23.5088 16.2913 23.5088 16.2084C23.5088 16.1256 23.4923 16.0436 23.4604 15.9672C23.4284 15.8908 23.3815 15.8215 23.3226 15.7633C23.2636 15.7052 23.1936 15.6593 23.1168 15.6284C23.0399 15.5976 22.9577 15.5823 22.8749 15.5834H10.6337L15.4001 10.817C15.4903 10.7292 15.5518 10.6162 15.5767 10.4928C15.6016 10.3694 15.5887 10.2414 15.5396 10.1255C15.4905 10.0096 15.4076 9.91122 15.3017 9.84322C15.1958 9.77522 15.0718 9.74078 14.946 9.7444Z" fill="#424452"/>
<path d="M16 31.5C7.43959 31.5 0.5 24.5604 0.5 16H-0.5C-0.5 25.1127 6.8873 32.5 16 32.5V31.5ZM31.5 16C31.5 24.5604 24.5604 31.5 16 31.5V32.5C25.1127 32.5 32.5 25.1127 32.5 16H31.5ZM16 0.5C24.5604 0.5 31.5 7.43959 31.5 16H32.5C32.5 6.8873 25.1127 -0.5 16 -0.5V0.5ZM16 -0.5C6.8873 -0.5 -0.5 6.8873 -0.5 16H0.5C0.5 7.43959 7.43959 0.5 16 0.5V-0.5Z" fill="#424452"/>
</svg>
