<svg width="201" height="200" viewBox="0 0 201 200" fill="none" xmlns="http://www.w3.org/2000/svg">
<circle cx="100.5" cy="100" r="96" fill="#898B91" stroke="white" stroke-width="8"/>
<path d="M101 58.3335C95.4745 58.3335 90.1755 60.5284 86.2684 64.4354C82.3614 68.3424 80.1665 73.6415 80.1665 79.1668C80.1665 84.6922 82.3614 89.9912 86.2684 93.8982C90.1755 97.8052 95.4745 100 101 100C106.525 100 111.824 97.8052 115.731 93.8982C119.638 89.9912 121.833 84.6922 121.833 79.1668C121.833 73.6415 119.638 68.3424 115.731 64.4354C111.824 60.5284 106.525 58.3335 101 58.3335V58.3335ZM126.044 108.333H75.9561C71.3853 108.333 67.6665 112.052 67.6665 116.623V119.792C67.6665 126.692 71.5936 132.658 78.7228 136.59C84.654 139.865 92.5665 141.667 101 141.667C117.054 141.667 134.333 134.821 134.333 119.792V116.623C134.333 112.052 130.614 108.333 126.044 108.333Z" fill="#F7F7F7"/>
</svg>
