<svg width="50" height="50" viewBox="0 0 50 50" fill="none" xmlns="http://www.w3.org/2000/svg">
<g clip-path="url(#clip0_773_24272)">
<path d="M42.6797 42.6722C52.4402 32.9114 52.4399 17.0864 42.6791 7.32598C32.9184 -2.43444 17.0934 -2.43416 7.33294 7.32659C-2.42747 17.0873 -2.42719 32.9124 7.33356 42.6728C17.0943 52.4332 32.9193 52.4329 42.6797 42.6722Z" fill="#FFE773"/>
<path d="M34.5285 9.5647C21.1074 9.63516 9.6865 21.2226 9.6126 34.5976C9.59127 38.4507 4.43118 39.7062 2.69155 36.268C-5.6354 19.8121 6.35213 0.00585938 25.0065 0.00585938C29.0286 0.00585938 32.8289 0.956045 36.1952 2.64419C39.6377 4.37057 38.3795 9.54445 34.5285 9.5647Z" fill="#FFF0A6"/>
<path d="M19.7787 16.2545C20.2118 16.9795 20.0459 17.9027 19.4038 18.4522C17.9118 19.7298 16.8614 21.5085 16.5134 23.5284C16.3701 24.3601 15.6526 24.958 14.8091 24.9548H6.7724C5.76296 24.9516 4.96467 24.0714 5.06055 23.0652C5.61968 17.238 8.67492 12.1381 13.1447 8.85012C13.9656 8.24575 15.1291 8.47414 15.6526 9.34999L19.7787 16.2545Z" fill="#5D5C66"/>
<path d="M18.0471 16.0608C15.582 18.2651 13.5565 20.952 12.1198 23.973C11.8337 24.5747 11.2258 24.9571 10.5596 24.9548H6.7724C5.76296 24.9516 4.96467 24.0714 5.06055 23.0652C5.61968 17.238 8.67492 12.1381 13.1447 8.85012C13.9656 8.24575 15.1291 8.47414 15.6526 9.34999L18.3707 13.8987C18.7925 14.6045 18.6598 15.5128 18.0471 16.0608Z" fill="#585966"/>
<path d="M44.9533 23.0652C45.0492 24.0714 44.2509 24.9516 43.2415 24.9548H35.2048C34.3612 24.958 33.6437 24.3601 33.5005 23.5284C33.1525 21.5085 32.1021 19.7298 30.61 18.4522C29.968 17.9027 29.8021 16.9795 30.2351 16.2545L34.3612 9.34999C34.8848 8.47414 36.0483 8.24575 36.8692 8.85012C41.3389 12.1381 44.3942 17.238 44.9533 23.0652Z" fill="#5D5C66"/>
<path d="M25.0065 29.3099C27.3864 29.3099 29.3157 27.3806 29.3157 25.0006C29.3157 22.6207 27.3864 20.6914 25.0065 20.6914C22.6266 20.6914 20.6973 22.6207 20.6973 25.0006C20.6973 27.3806 22.6266 29.3099 25.0065 29.3099Z" fill="#5D5C66"/>
<path d="M33.6924 41.0359C34.1783 41.9323 33.7829 43.0483 32.8446 43.4469C27.8491 45.5703 22.1652 45.5703 17.1697 43.4469C16.2314 43.0483 15.836 41.9323 16.3219 41.0359L20.1496 33.9677C20.5471 33.2341 21.4154 32.8807 22.204 33.1511C23.9826 33.7619 25.9466 33.7835 27.7737 33.164C28.5774 32.8926 29.4608 33.2222 29.8647 33.9688L33.6924 41.0359Z" fill="#5D5C66"/>
</g>
<defs>
<clipPath id="clip0_773_24272">
<rect width="50" height="50" fill="white"/>
</clipPath>
</defs>
</svg>
