<svg width="31" height="27" viewBox="0 0 31 27" fill="none" xmlns="http://www.w3.org/2000/svg">
<path opacity="0.6" d="M18.0705 0.486328C17.8218 0.486389 17.5787 0.560668 17.3724 0.699662C17.166 0.838656 17.0059 1.03604 16.9124 1.26657C16.8189 1.4971 16.7963 1.75028 16.8475 1.99372C16.8987 2.23717 17.0213 2.4598 17.1998 2.63314L26.7326 12.166H2.25022C2.08459 12.1637 1.92013 12.1943 1.76642 12.256C1.61271 12.3178 1.47281 12.4095 1.35485 12.5258C1.23689 12.6421 1.14322 12.7807 1.07928 12.9335C1.01535 13.0864 0.982422 13.2504 0.982422 13.416C0.982422 13.5817 1.01535 13.7457 1.07928 13.8985C1.14322 14.0513 1.23689 14.1899 1.35485 14.3062C1.47281 14.4225 1.61271 14.5142 1.76642 14.576C1.92013 14.6378 2.08459 14.6684 2.25022 14.666H26.7326L17.1998 24.1989C17.0798 24.3141 16.984 24.452 16.9181 24.6047C16.8521 24.7574 16.8172 24.9216 16.8155 25.0879C16.8138 25.2542 16.8453 25.4192 16.9082 25.5732C16.9711 25.7272 17.064 25.867 17.1816 25.9846C17.2992 26.1022 17.4391 26.1952 17.5931 26.258C17.747 26.3209 17.912 26.3524 18.0783 26.3507C18.2446 26.349 18.4089 26.3142 18.5615 26.2482C18.7142 26.1822 18.8522 26.0864 18.9673 25.9665L30.634 14.2998C30.8683 14.0654 31 13.7475 31 13.416C31 13.0846 30.8683 12.7667 30.634 12.5322L18.9673 0.86556C18.8508 0.745571 18.7114 0.650182 18.5574 0.585042C18.4033 0.519902 18.2378 0.486335 18.0705 0.486328V0.486328Z" fill="white"/>
</svg>
