<svg width="60" height="60" viewBox="0 0 60 60" fill="none" xmlns="http://www.w3.org/2000/svg">
<path d="M30 5C16.1925 5 5 16.1925 5 30C5 43.8075 16.1925 55 30 55C43.8075 55 55 43.8075 55 30C55 16.1925 43.8075 5 30 5ZM39.4513 36.7987C40.1838 37.5312 40.1838 38.7175 39.4513 39.45C39.085 39.8175 38.605 40 38.125 40C37.645 40 37.165 39.8175 36.7987 39.4513L30 32.6513L23.2013 39.45C22.835 39.8175 22.355 40 21.875 40C21.395 40 20.915 39.8175 20.5487 39.4513C19.8162 38.7188 19.8162 37.5325 20.5487 36.8L27.3487 30L20.55 23.2013C19.8175 22.4688 19.8175 21.2825 20.55 20.55C21.2825 19.8175 22.4688 19.8175 23.2013 20.55L30 27.3487L36.7987 20.55C37.5312 19.8175 38.7175 19.8175 39.45 20.55C40.1825 21.2825 40.1825 22.4688 39.45 23.2013L32.6513 30L39.4513 36.7987Z" fill="white"/>
</svg>
