<svg width="375" height="772" viewBox="0 0 375 772" fill="none" xmlns="http://www.w3.org/2000/svg">
<rect width="375" height="772" fill="url(#paint0_linear_703_20708)"/>
<path d="M61.428 86.04V87.076H72.558V86.04H61.428ZM62.072 90.156V91.178H71.97V90.156H62.072ZM60.784 94.622V95.658H73.258V94.622H60.784ZM66.426 86.866V95.154H67.56V86.866H66.426ZM65.222 83.884C66.146 84.57 67.252 85.564 67.756 86.222L68.666 85.564C68.12 84.892 66.986 83.94 66.076 83.296L65.222 83.884ZM75.19 90.898V91.78H87.93V90.898H75.19ZM75.526 83.856V84.78H87.58V83.856H75.526ZM80.048 89.428C79.18 90.8 77.878 92.676 76.982 93.81L77.976 94.146C78.872 92.998 80.16 91.164 81.07 89.708L80.048 89.428ZM84.248 91.206C83.128 93.936 80.384 94.93 75.386 95.196C75.554 95.434 75.722 95.812 75.792 96.12C81.042 95.728 84.024 94.58 85.256 91.5L84.248 91.206ZM77.738 93.67C81.294 94.328 84.724 95.28 86.866 96.162L87.496 95.308C85.326 94.454 81.728 93.516 78.27 92.9L77.738 93.67ZM79.348 84.206V89.092H80.342V84.206H79.348ZM82.61 84.206V89.092H83.604V84.206H82.61ZM77.206 86.838H85.942V88.742H77.206V86.838ZM76.226 85.984V89.61H86.992V85.984H76.226ZM92.466 88.77H89.75V89.75H91.472V93.726H92.466V88.77ZM92.466 93.306H91.57C90.926 93.922 90.184 94.552 89.582 95.014L90.128 96.008C90.8 95.378 91.43 94.776 92.032 94.174C92.914 95.28 94.188 95.784 96.05 95.854C97.646 95.91 100.698 95.882 102.294 95.812C102.336 95.518 102.504 95.042 102.63 94.818C100.908 94.93 97.618 94.972 96.036 94.902C94.37 94.832 93.124 94.356 92.466 93.306ZM89.82 84.108C90.632 84.808 91.542 85.816 91.906 86.516L92.788 85.914C92.396 85.214 91.458 84.248 90.632 83.576L89.82 84.108ZM93.502 89.162V89.974H102V89.162H93.502ZM93.054 91.318V92.144H102.434V91.318H93.054ZM95.574 88.154V91.724H96.582V88.154H95.574ZM98.878 88.154V91.724H99.872V88.154H98.878ZM93.852 85.438V86.18H97.24V83.8H93.32V84.528H96.316V85.438H93.852ZM93.558 85.438V86.908C93.558 87.748 93.838 87.958 94.874 87.958C95.084 87.958 96.414 87.958 96.638 87.958C97.352 87.958 97.618 87.72 97.716 86.81C97.464 86.768 97.114 86.656 96.946 86.516C96.904 87.132 96.834 87.216 96.498 87.216C96.232 87.216 95.168 87.216 94.972 87.216C94.524 87.216 94.454 87.16 94.454 86.894V85.438H93.558ZM98.472 85.438V86.18H101.804V83.8H97.912V84.528H100.894V85.438H98.472ZM98.164 85.438V86.894C98.164 87.748 98.458 87.958 99.522 87.958C99.746 87.958 101.174 87.958 101.398 87.958C102.154 87.958 102.42 87.72 102.518 86.768C102.266 86.712 101.916 86.6 101.734 86.474C101.692 87.132 101.622 87.216 101.272 87.216C100.992 87.216 99.844 87.216 99.62 87.216C99.144 87.216 99.06 87.16 99.06 86.894V85.438H98.164ZM98.626 92.774C99.592 93.278 100.628 93.95 101.188 94.468L102.224 94.006C101.552 93.488 100.404 92.802 99.382 92.312L98.626 92.774ZM96.064 92.284C95.434 92.858 94.384 93.39 93.432 93.768C93.656 93.908 94.048 94.244 94.202 94.426C95.14 93.978 96.274 93.292 96.988 92.606L96.064 92.284ZM110.092 87.72V96.12H111.17V87.72H110.092ZM106.914 90.086H114.53V91.304H106.914V90.086ZM106.914 88.084H114.53V89.274H106.914V88.084ZM105.892 87.23V92.144H115.594V87.23H105.892ZM104.478 93.222V94.146H116.896V93.222H104.478ZM106.466 84.5H109.154V85.83H106.466V84.5ZM105.514 83.8V86.53H110.134V83.8H105.514ZM112.22 84.5H114.936V85.83H112.22V84.5ZM111.268 83.8V86.53H115.93V83.8H111.268Z" fill="white"/>
<line x1="60" y1="115.5" x2="315" y2="115.5" stroke="white"/>
<path d="M68.04 141.66V143.72H79.44V141.66H68.04ZM69.88 144.62V146.52H77.6V144.62H69.88ZM70.3 142.84C69.62 144.52 68.36 146.2 66.98 147.24C67.46 147.54 68.28 148.18 68.64 148.52C70.02 147.3 71.44 145.36 72.3 143.4L70.3 142.84ZM76.86 144.62V144.94C76.72 148.48 76.54 149.78 76.26 150.12C76.12 150.32 75.96 150.34 75.72 150.34C75.46 150.34 74.96 150.34 74.38 150.28C74.68 150.78 74.88 151.6 74.9 152.2C75.68 152.22 76.4 152.22 76.84 152.14C77.36 152.08 77.76 151.92 78.1 151.46C78.6 150.88 78.82 149.3 79 145.42C79.02 145.16 79.04 144.62 79.04 144.62H76.86ZM71.38 138.28H75.92V139.2H71.38V138.28ZM71.38 135.82H75.92V136.74H71.38V135.82ZM69.22 134.16V140.86H78.18V134.16H69.22ZM62.66 134.22V136.38H66.72V134.22H62.66ZM62.76 138.78V140.96H66.48V138.78H62.76ZM62.76 143.44V145.66H66.48V143.44H62.76ZM61.72 134.22V141.54C61.72 144.48 61.64 148.52 60.46 151.3C61 151.5 61.94 152.02 62.36 152.36C63.62 149.38 63.8 144.72 63.8 141.52V134.22H61.72ZM65.46 134.22V149.68C65.46 149.92 65.4 150 65.18 150C64.94 150.02 64.28 150.02 63.64 150C63.94 150.6 64.22 151.64 64.26 152.26C65.48 152.26 66.28 152.2 66.88 151.8C67.48 151.42 67.64 150.76 67.64 149.72V134.22H65.46ZM71.98 145.16C71.2 147.06 69.56 149.32 67.98 150.42C68.54 150.74 69.16 151.3 69.56 151.76C71.08 150.46 72.74 148.02 73.52 146.02L71.98 145.16ZM74.62 145.46C74.02 147.4 72.74 149.82 71.44 151.04C72.02 151.34 72.72 151.84 73.12 152.26C74.36 150.86 75.62 148.3 76.2 146.28L74.62 145.46ZM88.14 149.68V151.64H98.22V149.68H88.14ZM92.04 146.94V151.16H94.32V146.94H92.04ZM87.04 147.38V152.28H89.26V147.38H87.04ZM97.26 147.38V152.28H99.5V147.38H97.26ZM91.38 139.42H95.3V140.4H91.38V139.42ZM89.42 137.92V141.92H97.4V137.92H89.42ZM88.74 144.02H91.02V145.04H88.74V144.02ZM87.02 142.52V146.56H92.84V142.52H87.02ZM95.44 144.02H97.88V145.04H95.44V144.02ZM93.68 142.52V146.56H99.74V142.52H93.68ZM85.38 135.1V137.12H99.88V135.1H85.38ZM84.22 135.1V141.56C84.22 144.42 84.02 148.16 81.76 150.68C82.22 150.98 83.1 151.82 83.44 152.28C86 149.46 86.42 144.78 86.42 141.56V135.1H84.22ZM90.48 133.52V136.2H93.02V133.52H90.48ZM81.36 137.66C81.88 138.96 82.34 140.64 82.44 141.7L84.28 140.86C84.16 139.84 83.64 138.22 83.08 136.94L81.36 137.66ZM81.16 144.58L81.86 146.74C82.98 146.1 84.2 145.38 85.34 144.64L84.78 142.82C83.42 143.52 82.1 144.18 81.16 144.58ZM113.5 140.14V142.36H120.96V140.14H113.5ZM102.66 135.5V137.46H111.66V135.5H102.66ZM102.46 143.46V145.48H111.64V143.46H102.46ZM102.4 139.96V141.94H111.82V139.96H102.4ZM116.74 141.1V152.2H119.06V141.1H116.74ZM106 133.68V136.38H108.34V133.68H106ZM106 141.82V152.28H108.34V141.82H106ZM112.42 135.1V142.08C112.42 144.82 112.2 148.24 109.88 150.7C110.42 151 111.3 151.82 111.6 152.34C114.32 149.52 114.7 145.1 114.7 142.12V136.24C115.06 136.18 115.2 136.08 115.22 135.88L112.42 135.1ZM118.96 133.72C117.54 134.48 115.18 135.2 113.04 135.68C113.32 136.14 113.66 136.98 113.78 137.5C116.12 137.06 118.84 136.38 120.88 135.46L118.96 133.72ZM108.16 145.56L106.88 146.6C107.62 147.26 109.14 148.76 109.8 149.56L111.18 147.84C110.7 147.44 108.78 145.94 108.16 145.56ZM103.66 137.76C103.98 138.52 104.24 139.54 104.28 140.2L106.24 139.68C106.14 139.02 105.86 138.04 105.5 137.32L103.66 137.76ZM108.64 137.28C108.46 137.98 108.12 139 107.84 139.68L109.74 140.08C110.04 139.46 110.38 138.6 110.76 137.68L108.64 137.28ZM106.02 144.64C105.14 146.4 103.48 148.34 101.9 149.36C102.4 149.74 103.1 150.54 103.48 151.06C105.08 149.76 106.74 147.46 107.72 145.26L106.02 144.64ZM134.18 148.02V150.26H139.66V148.02H134.18ZM133.1 135.24V151.72H135.42V137.5H138.34V151.44H140.78V135.24H133.1ZM126.86 137.12V140.94C126.86 143.88 126.5 147.8 122.84 150.44C123.32 150.78 124.24 151.74 124.54 152.24C128.56 149.32 129.28 144.38 129.28 140.98V137.12H126.86ZM125.22 136.06V138.28H132.08V136.06H125.22ZM123.14 141.44V143.72H132.58V141.44H123.14ZM128.68 144.26L127.22 145.62C128.24 146.8 130.2 149.28 131.14 150.76L132.76 148.74C132.14 148 129.5 144.98 128.68 144.26ZM125 133.52C124.6 135.82 123.84 138.12 122.76 139.56C123.28 139.88 124.26 140.56 124.68 140.94C125.82 139.26 126.78 136.62 127.3 133.98L125 133.52Z" fill="white"/>
<path d="M304.242 136.492C304.093 136.492 303.947 136.537 303.823 136.62C303.699 136.704 303.603 136.822 303.547 136.96C303.491 137.099 303.478 137.251 303.508 137.397C303.539 137.543 303.613 137.676 303.72 137.78L309.439 143.5H294.75C294.651 143.499 294.552 143.517 294.46 143.554C294.367 143.591 294.283 143.646 294.213 143.716C294.142 143.786 294.086 143.869 294.047 143.961C294.009 144.052 293.989 144.151 293.989 144.25C293.989 144.349 294.009 144.448 294.047 144.539C294.086 144.631 294.142 144.714 294.213 144.784C294.283 144.854 294.367 144.909 294.46 144.946C294.552 144.983 294.651 145.001 294.75 145H309.439L303.72 150.72C303.648 150.789 303.59 150.872 303.551 150.963C303.511 151.055 303.49 151.153 303.489 151.253C303.488 151.353 303.507 151.452 303.545 151.544C303.582 151.637 303.638 151.721 303.709 151.791C303.779 151.862 303.863 151.917 303.956 151.955C304.048 151.993 304.147 152.012 304.247 152.011C304.347 152.01 304.445 151.989 304.537 151.949C304.628 151.91 304.711 151.852 304.78 151.78L311.78 144.78C311.921 144.64 312 144.449 312 144.25C312 144.051 311.921 143.86 311.78 143.72L304.78 136.72C304.71 136.648 304.627 136.591 304.534 136.551C304.442 136.512 304.342 136.492 304.242 136.492Z" fill="white"/>
<path d="M65.7 177.96H74.2V178.8H65.7V177.96ZM65.7 175.7H74.2V176.52H65.7V175.7ZM63.4 174.16V180.34H76.6V174.16H63.4ZM61.04 181.06V182.98H78.92V181.06H61.04ZM70.2 183.72V185.56H76.74V183.72H70.2ZM64.1 183.78V185.44H68.66V183.78H64.1ZM64.1 186.28V187.94H68.66V186.28H64.1ZM72.66 185.38L70.74 185.92C72.1 189.04 74.48 191.28 77.94 192.28C78.24 191.72 78.86 190.84 79.36 190.42C76.14 189.66 73.78 187.82 72.66 185.38ZM76.04 183.72V184.06C75.16 187.14 72.58 189.44 69.48 190.42C69.92 190.86 70.52 191.72 70.78 192.28C74.34 190.94 77.16 188.38 78.34 184.2L76.86 183.64L76.46 183.72H76.04ZM60.86 189.2L61.02 191.26C63.12 191.08 65.92 190.82 68.6 190.56V188.62C65.8 188.86 62.86 189.08 60.86 189.2ZM67.42 181.68V192.3H69.72V181.68H67.42ZM62.6 181.74V189.9H64.8V181.74H62.6ZM92.7 180.14V182.36H100.16V180.14H92.7ZM81.86 175.5V177.46H90.86V175.5H81.86ZM81.66 183.46V185.48H90.84V183.46H81.66ZM81.6 179.96V181.94H91.02V179.96H81.6ZM95.94 181.1V192.2H98.26V181.1H95.94ZM85.2 173.68V176.38H87.54V173.68H85.2ZM85.2 181.82V192.28H87.54V181.82H85.2ZM91.62 175.1V182.08C91.62 184.82 91.4 188.24 89.08 190.7C89.62 191 90.5 191.82 90.8 192.34C93.52 189.52 93.9 185.1 93.9 182.12V176.24C94.26 176.18 94.4 176.08 94.42 175.88L91.62 175.1ZM98.16 173.72C96.74 174.48 94.38 175.2 92.24 175.68C92.52 176.14 92.86 176.98 92.98 177.5C95.32 177.06 98.04 176.38 100.08 175.46L98.16 173.72ZM87.36 185.56L86.08 186.6C86.82 187.26 88.34 188.76 89 189.56L90.38 187.84C89.9 187.44 87.98 185.94 87.36 185.56ZM82.86 177.76C83.18 178.52 83.44 179.54 83.48 180.2L85.44 179.68C85.34 179.02 85.06 178.04 84.7 177.32L82.86 177.76ZM87.84 177.28C87.66 177.98 87.32 179 87.04 179.68L88.94 180.08C89.24 179.46 89.58 178.6 89.96 177.68L87.84 177.28ZM85.22 184.64C84.34 186.4 82.68 188.34 81.1 189.36C81.6 189.74 82.3 190.54 82.68 191.06C84.28 189.76 85.94 187.46 86.92 185.26L85.22 184.64ZM110.68 182.82V184.84H118.6V182.82H110.68ZM110.66 186.34V188.34H118.6V186.34H110.66ZM118.4 173.98C118 175.2 117.24 176.78 116.64 177.8L118.72 178.58C119.34 177.62 120.08 176.2 120.74 174.8L118.4 173.98ZM108.46 175.02C109.24 176.18 110.02 177.72 110.28 178.74L112.44 177.72C112.14 176.7 111.28 175.22 110.48 174.12L108.46 175.02ZM109.08 179.1V192.28H111.44V181.34H118.64V179.1H109.08ZM117.52 179.1V189.68C117.52 189.94 117.42 190.02 117.12 190.04C116.82 190.04 115.76 190.04 114.84 190C115.14 190.62 115.46 191.6 115.56 192.24C117.06 192.24 118.14 192.22 118.9 191.86C119.64 191.48 119.86 190.84 119.86 189.7V179.1H117.52ZM113.34 173.5V180.6H115.76V173.5H113.34ZM103.08 175.36C104.32 176.02 105.88 177.08 106.58 177.82L108.08 175.98C107.3 175.22 105.72 174.28 104.48 173.68L103.08 175.36ZM102.16 180.68C103.44 181.34 105.02 182.4 105.76 183.16L107.2 181.28C106.4 180.52 104.78 179.56 103.52 178.98L102.16 180.68ZM102.72 190.66L104.82 192.2C105.9 190.18 107.02 187.86 107.92 185.7L106.16 184.26C105.08 186.6 103.7 189.14 102.72 190.66ZM128.1 186.6V189.5C128.1 191.58 128.72 192.24 131.32 192.24C131.86 192.24 134.04 192.24 134.6 192.24C136.54 192.24 137.2 191.64 137.5 189.24C136.86 189.12 135.84 188.76 135.36 188.42C135.26 189.9 135.12 190.12 134.36 190.12C133.82 190.12 132.02 190.12 131.6 190.12C130.64 190.12 130.48 190.04 130.48 189.48V186.6H128.1ZM130.32 186.14C131.36 187 132.54 188.24 133.04 189.1L134.92 187.82C134.36 186.92 133.14 185.76 132.08 184.96L130.32 186.14ZM136.54 187.18C137.94 188.52 139.38 190.36 139.92 191.66L142 190.32C141.4 188.96 139.86 187.22 138.46 185.96L136.54 187.18ZM125.14 186.22C124.72 187.72 123.92 189.26 122.84 190.22L124.84 191.62C126.06 190.44 126.78 188.64 127.28 187L125.14 186.22ZM128.42 179.58H136.52V180.58H128.42V179.58ZM128.42 182.32H136.52V183.32H128.42V182.32ZM128.42 176.86H136.52V177.86H128.42V176.86ZM126.1 175.04V185.16H138.94V175.04H126.1ZM131.16 173.3C131.04 173.98 130.78 174.9 130.54 175.6L132.76 176.04C133.1 175.44 133.62 174.62 134.08 173.66L131.16 173.3Z" fill="white"/>
<path d="M304.242 176.492C304.093 176.492 303.947 176.537 303.823 176.62C303.699 176.704 303.603 176.822 303.547 176.96C303.491 177.099 303.478 177.251 303.508 177.397C303.539 177.543 303.613 177.676 303.72 177.78L309.439 183.5H294.75C294.651 183.499 294.552 183.517 294.46 183.554C294.367 183.591 294.283 183.646 294.213 183.716C294.142 183.786 294.086 183.869 294.047 183.961C294.009 184.052 293.989 184.151 293.989 184.25C293.989 184.349 294.009 184.448 294.047 184.539C294.086 184.631 294.142 184.714 294.213 184.784C294.283 184.854 294.367 184.909 294.46 184.946C294.552 184.983 294.651 185.001 294.75 185H309.439L303.72 190.72C303.648 190.789 303.59 190.872 303.551 190.963C303.511 191.055 303.49 191.153 303.489 191.253C303.488 191.353 303.507 191.452 303.545 191.544C303.582 191.637 303.638 191.721 303.709 191.791C303.779 191.862 303.863 191.917 303.956 191.955C304.048 191.993 304.147 192.012 304.247 192.011C304.347 192.01 304.445 191.989 304.537 191.949C304.628 191.91 304.711 191.852 304.78 191.78L311.78 184.78C311.921 184.64 312 184.449 312 184.25C312 184.051 311.921 183.86 311.78 183.72L304.78 176.72C304.71 176.648 304.627 176.591 304.534 176.551C304.442 176.512 304.342 176.492 304.242 176.492Z" fill="white"/>
<path d="M68.98 223.42V232.3H71.46V223.42H68.98ZM66.96 220.98H72.92V222.22H66.96V220.98ZM64.66 219.28V223.92H75.38V219.28H64.66ZM62.74 225.12V231.42H65.16V227.26H76.2V225.12H62.74ZM75.06 225.12V229.2C75.06 229.42 74.96 229.48 74.66 229.5C74.38 229.5 73.3 229.5 72.4 229.46C72.72 230.06 73.06 230.98 73.18 231.64C74.62 231.64 75.7 231.62 76.5 231.28C77.3 230.94 77.52 230.32 77.52 229.24V225.12H75.06ZM68.72 213.5V217.18H71.2V213.5H68.72ZM61.4 216.26V221.1H63.7V218.32H76.28V221.1H78.66V216.26H61.4ZM63 214.5C63.54 215.18 64.12 216.16 64.34 216.8L66.64 215.78C66.36 215.16 65.76 214.28 65.18 213.64L63 214.5ZM74.7 213.66C74.36 214.32 73.76 215.24 73.26 215.86L75.28 216.58C75.84 216.06 76.56 215.28 77.28 214.44L74.7 213.66ZM86.6 219.42H95V220.66H86.6V219.42ZM86.6 222.62H95V223.86H86.6V222.62ZM86.6 216.24H95V217.48H86.6V216.24ZM84.28 214.14V225.96H97.44V214.14H84.28ZM91.72 224.34V229.14C91.72 231.42 92.3 232.14 94.7 232.14C95.16 232.14 96.84 232.14 97.34 232.14C99.34 232.14 99.98 231.32 100.24 228.14C99.58 227.98 98.52 227.58 98.04 227.18C97.94 229.54 97.82 229.88 97.12 229.88C96.7 229.88 95.36 229.88 95.02 229.88C94.3 229.88 94.16 229.78 94.16 229.14V224.34H91.72ZM86.82 225.16C86.56 227.84 86.02 229.38 81.38 230.24C81.88 230.76 82.52 231.74 82.72 232.38C88.12 231.16 89.06 228.8 89.4 225.16H86.82ZM108.66 223.16V225.12H113.18V227.5H108.66V229.46H115.42V223.16H108.66ZM107.64 223.16V230.6H109.86V223.16H107.64ZM104.36 217.18V218.82H109.38V217.18H104.36ZM113.64 217.18V218.82H118.7V217.18H113.64ZM117.7 214.28V229.4C117.7 229.76 117.56 229.9 117.18 229.9C116.8 229.9 115.42 229.92 114.26 229.86C114.6 230.48 115 231.62 115.08 232.3C116.92 232.3 118.18 232.26 119.02 231.86C119.84 231.46 120.12 230.78 120.12 229.42V214.28H117.7ZM104.56 214.28V216.12H108.64V219.94H104.56V221.78H110.88V214.28H104.56ZM119 214.28H112.24V221.8H119V219.98H114.52V216.1H119V214.28ZM103.18 214.28V232.3H105.56V214.28H103.18ZM128.38 222.46V224.44H136.44V222.46H128.38ZM127.76 229.7V231.76H137.06V229.7H127.76ZM132.3 220.18C134.16 222.28 137.62 224.48 140.58 225.66C140.94 225.02 141.46 224.24 142 223.66C138.84 222.7 135.56 220.72 133.36 218.16H131.06C129.46 220.26 126.24 222.6 122.86 223.84C123.32 224.32 123.9 225.16 124.16 225.7C127.38 224.36 130.58 222.2 132.3 220.18ZM126.42 225.76V232.32H128.7V227.8H136V232.26H138.4V225.76H126.42ZM125.82 215.12V217.12H132.04V215.12H125.82ZM133.7 215.12V217.12H141.46V215.12H133.7ZM125.92 213.28C125.26 215.14 124.1 217.08 122.8 218.26C123.38 218.56 124.36 219.2 124.8 219.58C126.08 218.2 127.4 216.02 128.22 213.88L125.92 213.28ZM134.04 213.28C133.48 214.9 132.42 216.52 131.2 217.52C131.78 217.82 132.78 218.5 133.22 218.9C134.46 217.7 135.68 215.8 136.38 213.86L134.04 213.28ZM126.52 216.64C127.1 217.52 127.7 218.72 127.94 219.5L130.06 218.78C129.76 218 129.1 216.86 128.52 216.02L126.52 216.64ZM135.24 216.66C135.9 217.54 136.66 218.72 136.96 219.5L139.16 218.7C138.82 217.92 138 216.76 137.3 215.96L135.24 216.66Z" fill="white"/>
<path d="M304.242 216.492C304.093 216.492 303.947 216.537 303.823 216.62C303.699 216.704 303.603 216.822 303.547 216.96C303.491 217.099 303.478 217.251 303.508 217.397C303.539 217.543 303.613 217.676 303.72 217.78L309.439 223.5H294.75C294.651 223.499 294.552 223.517 294.46 223.554C294.367 223.591 294.283 223.646 294.213 223.716C294.142 223.786 294.086 223.869 294.047 223.961C294.009 224.052 293.989 224.151 293.989 224.25C293.989 224.349 294.009 224.448 294.047 224.539C294.086 224.631 294.142 224.714 294.213 224.784C294.283 224.854 294.367 224.909 294.46 224.946C294.552 224.983 294.651 225.001 294.75 225H309.439L303.72 230.72C303.648 230.789 303.59 230.872 303.551 230.963C303.511 231.055 303.49 231.153 303.489 231.253C303.488 231.353 303.507 231.452 303.545 231.544C303.582 231.637 303.638 231.721 303.709 231.791C303.779 231.862 303.863 231.917 303.956 231.955C304.048 231.993 304.147 232.012 304.247 232.011C304.347 232.01 304.445 231.989 304.537 231.949C304.628 231.91 304.711 231.852 304.78 231.78L311.78 224.78C311.921 224.64 312 224.449 312 224.25C312 224.051 311.921 223.86 311.78 223.72L304.78 216.72C304.71 216.648 304.627 216.591 304.534 216.551C304.442 216.512 304.342 216.492 304.242 216.492Z" fill="white"/>
<path d="M64.54 253.52V256.98H66.98V253.52H64.54ZM60.84 255.8V257.96H70.62V255.8H60.84ZM70.48 258.48V260.76H79.32V258.48H70.48ZM63.98 261.06H67.48V262.76H63.98V261.06ZM61.78 259.08V264.74H69.8V259.08H61.78ZM64.7 263.92V269.84C64.7 270.04 64.62 270.1 64.4 270.12C64.18 270.12 63.44 270.12 62.76 270.1C63.06 270.68 63.4 271.6 63.48 272.26C64.64 272.26 65.5 272.22 66.16 271.88C66.82 271.5 67 270.9 67 269.88V263.92H64.7ZM61.94 265.5C61.64 267.08 61.08 268.7 60.32 269.76C60.82 270.06 61.7 270.72 62.08 271.1C62.96 269.84 63.7 267.86 64.1 265.96L61.94 265.5ZM67.4 265.96C67.88 267.04 68.38 268.52 68.58 269.46L70.54 268.72C70.34 267.78 69.82 266.38 69.28 265.3L67.4 265.96ZM75.38 254.78C76.22 255.78 77.02 257.16 77.32 258.1L79.3 257.14C78.96 256.2 78.14 254.88 77.24 253.94L75.38 254.78ZM72.72 253.5V258.62C72.72 262.16 72.38 267.52 68.64 270.92C69.24 271.22 70.22 271.9 70.66 272.34C74.6 268.58 75.06 262.72 75.06 258.62V253.5H72.72ZM74.34 261.6V269.56C74.34 270.84 74.42 271.2 74.8 271.6C75.16 271.96 75.7 272.1 76.24 272.1C76.54 272.1 77.08 272.1 77.42 272.1C77.88 272.1 78.34 271.98 78.64 271.78C78.98 271.52 79.2 271.18 79.34 270.68C79.46 270.18 79.56 269 79.6 267.92C79.04 267.74 78.28 267.34 77.86 266.96C77.88 267.98 77.86 268.86 77.82 269.22C77.78 269.42 77.72 269.62 77.64 269.7C77.56 269.78 77.42 269.82 77.3 269.82C77.16 269.82 77 269.82 76.9 269.82C76.78 269.82 76.66 269.78 76.6 269.68C76.54 269.64 76.52 269.5 76.52 269.38V261.6H74.34ZM84.96 270.66V271.92H96.7V270.66H84.96ZM84.96 268.94V270.12H96.7V268.94H84.96ZM82.1 263.16V264.68H99.66V263.16H82.1ZM83.08 265.32V272.3H85.24V266.56H96.4V272.3H98.66V265.32H83.08ZM85.76 255.34C85.5 256.02 85.08 256.7 84.5 257.22C84.84 257.38 85.42 257.74 85.68 257.94C86.26 257.36 86.82 256.5 87.12 255.66L85.76 255.34ZM91.56 257.78V259.14H97.32V257.78H91.56ZM85.82 256.22V257.3H90.26V256.22H85.82ZM84.66 257.9V259.04H90.6V257.9H84.66ZM92.98 254V255.6H96.54V254H92.98ZM96.9 257.78V258C96.08 260.02 93.76 261.14 91.02 261.56C91.34 261.92 91.74 262.58 91.92 263C95.1 262.34 97.66 261 98.74 258.12L97.6 257.74L97.26 257.78H96.9ZM93.76 259L91.98 259.44C93.26 261.56 95.54 262.78 98.8 263.24C99.04 262.72 99.56 261.94 99.98 261.56C97.04 261.3 94.78 260.48 93.76 259ZM92.12 254V255.02C92.12 255.72 91.9 256.34 90.38 256.88C90.72 257.14 91.42 257.9 91.64 258.3C93.5 257.48 93.94 256.28 93.94 255.1V254H92.12ZM95.68 254V255.52C95.68 256.52 95.8 256.88 96.08 257.16C96.34 257.46 96.86 257.58 97.28 257.58C97.52 257.58 97.9 257.58 98.14 257.58C98.42 257.58 98.78 257.56 99 257.46C99.28 257.34 99.5 257.18 99.62 256.96C99.76 256.76 99.84 256.28 99.9 255.8C99.44 255.66 98.84 255.36 98.52 255.08C98.5 255.42 98.48 255.7 98.44 255.82C98.4 255.96 98.34 256 98.28 256.02C98.24 256.06 98.14 256.06 98.06 256.06C97.96 256.06 97.82 256.06 97.74 256.06C97.66 256.06 97.6 256.04 97.56 255.98C97.5 255.92 97.52 255.78 97.52 255.52V254H95.68ZM86.98 256.74V258.06C86.98 258.76 86.7 259.72 84.62 260.22C84.96 260.5 85.38 260.96 85.58 261.3C88 260.46 88.46 259.14 88.46 258.1V256.74H86.98ZM88.04 264.04V265.84C88.04 266.6 87.64 267.46 85.26 267.86C85.66 268.18 86.14 268.76 86.38 269.16C89.16 268.42 89.86 267.18 89.86 265.86V264.04H88.04ZM91.5 264.02V266.78C91.5 268.08 91.94 268.4 93.72 268.4C94.1 268.4 95.74 268.4 96.12 268.4C97.22 268.4 97.7 268.18 97.82 267.54C97.38 267.48 96.74 267.34 96.38 267.16C96.34 267.28 96.22 267.3 95.88 267.3C95.54 267.3 94.24 267.3 93.98 267.3C93.44 267.3 93.34 267.24 93.34 266.8V264.02H91.5ZM87.08 259.46C87.96 259.96 89.06 260.72 89.62 261.22L90.54 260.26C89.96 259.74 88.84 259.04 87.96 258.58L87.08 259.46ZM90.9 254.18H82.6V262.56H91.06V261.2H84.38V255.54H90.9V254.18ZM111.94 258.38H117.36V259.36H111.94V258.38ZM111.94 255.84H117.36V256.84H111.94V255.84ZM109.74 254.14V261.08H119.66V254.14H109.74ZM108.76 262V263.94H120.68V262H108.76ZM113.5 263.06V270.22L115.76 271.2V263.06H113.5ZM111.66 266.6L110.22 267.08C111.5 271.32 113.82 272.04 117.06 272.04H120.56C120.64 271.42 120.92 270.42 121.22 269.92C120.34 269.96 117.84 269.96 117.16 269.96C114.7 269.96 112.66 269.58 111.66 266.6ZM115.14 265.7V267.58H119.6V265.7H115.14ZM109.96 264.54C109.66 267.28 108.82 269.5 107.16 270.84C107.66 271.16 108.56 271.88 108.92 272.26C110.68 270.64 111.7 268.06 112.12 264.8L109.96 264.54ZM102.04 263.66L102.56 265.98C104.36 265.48 106.62 264.82 108.72 264.18L108.4 262.02C106.1 262.66 103.68 263.32 102.04 263.66ZM102.24 257.32V259.52H108.6V257.32H102.24ZM104.4 253.54V269.48C104.4 269.76 104.32 269.84 104.08 269.84C103.84 269.84 103.14 269.84 102.42 269.82C102.7 270.46 102.98 271.44 103.04 272.04C104.32 272.04 105.2 271.96 105.8 271.58C106.42 271.22 106.6 270.6 106.6 269.5V253.54H104.4ZM129.46 263.16V265.12H133.98V267.5H129.46V269.46H136.22V263.16H129.46ZM128.44 263.16V270.6H130.66V263.16H128.44ZM125.16 257.18V258.82H130.18V257.18H125.16ZM134.44 257.18V258.82H139.5V257.18H134.44ZM138.5 254.28V269.4C138.5 269.76 138.36 269.9 137.98 269.9C137.6 269.9 136.22 269.92 135.06 269.86C135.4 270.48 135.8 271.62 135.88 272.3C137.72 272.3 138.98 272.26 139.82 271.86C140.64 271.46 140.92 270.78 140.92 269.42V254.28H138.5ZM125.36 254.28V256.12H129.44V259.94H125.36V261.78H131.68V254.28H125.36ZM139.8 254.28H133.04V261.8H139.8V259.98H135.32V256.1H139.8V254.28ZM123.98 254.28V272.3H126.36V254.28H123.98ZM151.86 260.2V272.3H154.36V260.2H151.86ZM148.5 263.74H157.96V264.82H148.5V263.74ZM148.5 260.96H157.96V262.02H148.5V260.96ZM146.14 259.12V266.66H160.42V259.12H146.14ZM144.26 267.7V269.76H162.18V267.7H144.26ZM147.56 255.74H150.38V256.9H147.56V255.74ZM145.42 254.3V258.32H152.62V254.3H145.42ZM155.94 255.74H158.82V256.9H155.94V255.74ZM153.82 254.3V258.32H161.06V254.3H153.82Z" fill="white"/>
<path d="M304.242 256.492C304.093 256.492 303.947 256.537 303.823 256.62C303.699 256.704 303.603 256.822 303.547 256.96C303.491 257.099 303.478 257.251 303.508 257.397C303.539 257.543 303.613 257.676 303.72 257.78L309.439 263.5H294.75C294.651 263.499 294.552 263.517 294.46 263.554C294.367 263.591 294.283 263.646 294.213 263.716C294.142 263.786 294.086 263.869 294.047 263.961C294.009 264.052 293.989 264.151 293.989 264.25C293.989 264.349 294.009 264.448 294.047 264.539C294.086 264.631 294.142 264.714 294.213 264.784C294.283 264.854 294.367 264.909 294.46 264.946C294.552 264.983 294.651 265.001 294.75 265H309.439L303.72 270.72C303.648 270.789 303.59 270.872 303.551 270.963C303.511 271.055 303.49 271.153 303.489 271.253C303.488 271.353 303.507 271.452 303.545 271.544C303.582 271.637 303.638 271.721 303.709 271.791C303.779 271.862 303.863 271.917 303.956 271.955C304.048 271.993 304.147 272.012 304.247 272.011C304.347 272.01 304.445 271.989 304.537 271.949C304.628 271.91 304.711 271.852 304.78 271.78L311.78 264.78C311.921 264.64 312 264.449 312 264.25C312 264.051 311.921 263.86 311.78 263.72L304.78 256.72C304.71 256.648 304.627 256.591 304.534 256.551C304.442 256.512 304.342 256.492 304.242 256.492Z" fill="white"/>
<path d="M60 699C60 685.745 70.7452 675 84 675H291C304.255 675 315 685.745 315 699V699C315 712.255 304.255 723 291 723H84C70.7452 723 60 712.255 60 699V699Z" fill="#F0EBE3"/>
<path d="M173.42 694.36V696.36H180.82V694.36H173.42ZM168.5 705.44V707.4H185.78V705.44H168.5ZM169.66 689.76V691.7H175.26V689.76H169.66ZM174.5 689.76V690.16C173.4 693.12 170.42 695.84 167.44 697.1C167.92 697.52 168.56 698.34 168.88 698.84C172.24 697.22 175.4 694.36 176.88 690.44L175.32 689.66L174.9 689.76H174.5ZM179.06 689.08L177.02 689.72C178.68 693.68 181.42 696.88 185.1 698.56C185.46 697.94 186.16 697.04 186.72 696.56C183.24 695.24 180.44 692.34 179.06 689.08ZM168.7 693.36C169.56 693.92 170.64 694.78 171.16 695.38L172.5 693.92C171.98 693.32 170.88 692.54 169.98 692.04L168.7 693.36ZM182.14 689.2C181.38 690.08 180.06 691.24 179.1 691.92L180.54 693.04C181.54 692.4 182.84 691.42 183.94 690.48L182.14 689.2ZM184.4 691.54C183.58 692.46 182.18 693.64 181.14 694.36L182.58 695.48C183.64 694.82 185.02 693.78 186.16 692.78L184.4 691.54ZM173.6 699.42H180.44V701.18H173.6V699.42ZM171.26 697.5V703.08H182.92V697.5H171.26ZM172.42 703.34C172.88 704.12 173.32 705.18 173.46 705.86L175.76 705.2C175.58 704.52 175.14 703.5 174.62 702.78L172.42 703.34ZM179.56 702.76C179.32 703.52 178.82 704.6 178.42 705.3L180.52 705.78C180.92 705.14 181.38 704.24 181.88 703.26L179.56 702.76ZM192.48 690.14V692.58H198.14V690.14H192.48ZM196.96 690.14C196.96 694.22 197.84 703.16 205.46 707.74C205.88 707.14 206.84 706.08 207.4 705.64C199.98 701.3 199.44 693.94 199.44 690.14H196.96ZM196.1 694.52C195.02 699.82 192.62 703.7 188.44 705.82C189.06 706.26 190.18 707.26 190.62 707.78C194.8 705.26 197.46 700.96 198.86 695.02L196.1 694.52Z" fill="#424452"/>
<path d="M335 6.66602C327.636 6.66602 321.667 12.6353 321.667 19.9993C321.667 27.3633 327.636 33.3327 335 33.3327C342.364 33.3327 348.334 27.3633 348.334 19.9993C348.334 12.6353 342.364 6.66602 335 6.66602ZM340.041 23.6253C340.432 24.016 340.432 24.6487 340.041 25.0393C339.846 25.2353 339.59 25.3327 339.334 25.3327C339.078 25.3327 338.822 25.2353 338.626 25.04L335 21.4133L331.374 25.0393C331.179 25.2353 330.923 25.3327 330.667 25.3327C330.411 25.3327 330.155 25.2353 329.96 25.04C329.569 24.6493 329.569 24.0167 329.96 23.626L333.586 19.9993L329.96 16.3734C329.57 15.9827 329.57 15.35 329.96 14.9593C330.351 14.5687 330.984 14.5687 331.374 14.9593L335 18.5853L338.626 14.9593C339.017 14.5687 339.65 14.5687 340.04 14.9593C340.431 15.35 340.431 15.9827 340.04 16.3734L336.414 19.9993L340.041 23.6253Z" fill="white"/>
<defs>
<linearGradient id="paint0_linear_703_20708" x1="364.5" y1="1.30526e-06" x2="7.50002" y2="766" gradientUnits="userSpaceOnUse">
<stop stop-color="#7E9B8F"/>
<stop offset="1" stop-color="#93B1A6"/>
</linearGradient>
</defs>
</svg>
