<svg width="1440" height="900" viewBox="0 0 1440 900" fill="none" xmlns="http://www.w3.org/2000/svg">
<rect width="1440" height="900" fill="url(#paint0_linear_703_20646)"/>
<path d="M326.04 123.2V124.68H341.94V123.2H326.04ZM326.96 129.08V130.54H341.1V129.08H326.96ZM325.12 135.46V136.94H342.94V135.46H325.12ZM333.18 124.38V136.22H334.8V124.38H333.18ZM331.46 120.12C332.78 121.1 334.36 122.52 335.08 123.46L336.38 122.52C335.6 121.56 333.98 120.2 332.68 119.28L331.46 120.12ZM345.7 130.14V131.4H363.9V130.14H345.7ZM346.18 120.08V121.4H363.4V120.08H346.18ZM352.64 128.04C351.4 130 349.54 132.68 348.26 134.3L349.68 134.78C350.96 133.14 352.8 130.52 354.1 128.44L352.64 128.04ZM358.64 130.58C357.04 134.48 353.12 135.9 345.98 136.28C346.22 136.62 346.46 137.16 346.56 137.6C354.06 137.04 358.32 135.4 360.08 131L358.64 130.58ZM349.34 134.1C354.42 135.04 359.32 136.4 362.38 137.66L363.28 136.44C360.18 135.22 355.04 133.88 350.1 133L349.34 134.1ZM351.64 120.58V127.56H353.06V120.58H351.64ZM356.3 120.58V127.56H357.72V120.58H356.3ZM348.58 124.34H361.06V127.06H348.58V124.34ZM347.18 123.12V128.3H362.56V123.12H347.18ZM370.38 127.1H366.5V128.5H368.96V134.18H370.38V127.1ZM370.38 133.58H369.1C368.18 134.46 367.12 135.36 366.26 136.02L367.04 137.44C368 136.54 368.9 135.68 369.76 134.82C371.02 136.4 372.84 137.12 375.5 137.22C377.78 137.3 382.14 137.26 384.42 137.16C384.48 136.74 384.72 136.06 384.9 135.74C382.44 135.9 377.74 135.96 375.48 135.86C373.1 135.76 371.32 135.08 370.38 133.58ZM366.6 120.44C367.76 121.44 369.06 122.88 369.58 123.88L370.84 123.02C370.28 122.02 368.94 120.64 367.76 119.68L366.6 120.44ZM371.86 127.66V128.82H384V127.66H371.86ZM371.22 130.74V131.92H384.62V130.74H371.22ZM374.82 126.22V131.32H376.26V126.22H374.82ZM379.54 126.22V131.32H380.96V126.22H379.54ZM372.36 122.34V123.4H377.2V120H371.6V121.04H375.88V122.34H372.36ZM371.94 122.34V124.44C371.94 125.64 372.34 125.94 373.82 125.94C374.12 125.94 376.02 125.94 376.34 125.94C377.36 125.94 377.74 125.6 377.88 124.3C377.52 124.24 377.02 124.08 376.78 123.88C376.72 124.76 376.62 124.88 376.14 124.88C375.76 124.88 374.24 124.88 373.96 124.88C373.32 124.88 373.22 124.8 373.22 124.42V122.34H371.94ZM378.96 122.34V123.4H383.72V120H378.16V121.04H382.42V122.34H378.96ZM378.52 122.34V124.42C378.52 125.64 378.94 125.94 380.46 125.94C380.78 125.94 382.82 125.94 383.14 125.94C384.22 125.94 384.6 125.6 384.74 124.24C384.38 124.16 383.88 124 383.62 123.82C383.56 124.76 383.46 124.88 382.96 124.88C382.56 124.88 380.92 124.88 380.6 124.88C379.92 124.88 379.8 124.8 379.8 124.42V122.34H378.52ZM379.18 132.82C380.56 133.54 382.04 134.5 382.84 135.24L384.32 134.58C383.36 133.84 381.72 132.86 380.26 132.16L379.18 132.82ZM375.52 132.12C374.62 132.94 373.12 133.7 371.76 134.24C372.08 134.44 372.64 134.92 372.86 135.18C374.2 134.54 375.82 133.56 376.84 132.58L375.52 132.12ZM395.56 125.6V137.6H397.1V125.6H395.56ZM391.02 128.98H401.9V130.72H391.02V128.98ZM391.02 126.12H401.9V127.82H391.02V126.12ZM389.56 124.9V131.92H403.42V124.9H389.56ZM387.54 133.46V134.78H405.28V133.46H387.54ZM390.38 121H394.22V122.9H390.38V121ZM389.02 120V123.9H395.62V120H389.02ZM398.6 121H402.48V122.9H398.6V121ZM397.24 120V123.9H403.9V120H397.24Z" fill="white"/>
<line x1="324" y1="172.5" x2="1077" y2="172.5" stroke="white"/>
<path d="M343.296 227.784V232.728H370.656V227.784H343.296ZM347.712 234.888V239.448H366.24V234.888H347.712ZM348.72 230.616C347.088 234.648 344.064 238.68 340.752 241.176C341.904 241.896 343.872 243.432 344.736 244.248C348.048 241.32 351.456 236.664 353.52 231.96L348.72 230.616ZM364.464 234.888V235.656C364.128 244.152 363.696 247.272 363.024 248.088C362.688 248.568 362.304 248.616 361.728 248.616C361.104 248.616 359.904 248.616 358.512 248.472C359.232 249.672 359.712 251.64 359.76 253.08C361.632 253.128 363.36 253.128 364.416 252.936C365.664 252.792 366.624 252.408 367.44 251.304C368.64 249.912 369.168 246.12 369.6 236.808C369.648 236.184 369.696 234.888 369.696 234.888H364.464ZM351.312 219.672H362.208V221.88H351.312V219.672ZM351.312 213.768H362.208V215.976H351.312V213.768ZM346.128 209.784V225.864H367.632V209.784H346.128ZM330.384 209.928V215.112H340.128V209.928H330.384ZM330.624 220.872V226.104H339.552V220.872H330.624ZM330.624 232.056V237.384H339.552V232.056H330.624ZM328.128 209.928V227.496C328.128 234.552 327.936 244.248 325.104 250.92C326.4 251.4 328.656 252.648 329.664 253.464C332.688 246.312 333.12 235.128 333.12 227.448V209.928H328.128ZM337.104 209.928V247.032C337.104 247.608 336.96 247.8 336.432 247.8C335.856 247.848 334.272 247.848 332.736 247.8C333.456 249.24 334.128 251.736 334.224 253.224C337.152 253.224 339.072 253.08 340.512 252.12C341.952 251.208 342.336 249.624 342.336 247.128V209.928H337.104ZM352.752 236.184C350.88 240.744 346.944 246.168 343.152 248.808C344.496 249.576 345.984 250.92 346.944 252.024C350.592 248.904 354.576 243.048 356.448 238.248L352.752 236.184ZM359.088 236.904C357.648 241.56 354.576 247.368 351.456 250.296C352.848 251.016 354.528 252.216 355.488 253.224C358.464 249.864 361.488 243.72 362.88 238.872L359.088 236.904ZM391.536 247.032V251.736H415.728V247.032H391.536ZM400.896 240.456V250.584H406.368V240.456H400.896ZM388.896 241.512V253.272H394.224V241.512H388.896ZM413.424 241.512V253.272H418.8V241.512H413.424ZM399.312 222.408H408.72V224.76H399.312V222.408ZM394.608 218.808V228.408H413.76V218.808H394.608ZM392.976 233.448H398.448V235.896H392.976V233.448ZM388.848 229.848V239.544H402.816V229.848H388.848ZM409.056 233.448H414.912V235.896H409.056V233.448ZM404.832 229.848V239.544H419.376V229.848H404.832ZM384.912 212.04V216.888H419.712V212.04H384.912ZM382.128 212.04V227.544C382.128 234.408 381.648 243.384 376.224 249.432C377.328 250.152 379.44 252.168 380.256 253.272C386.4 246.504 387.408 235.272 387.408 227.544V212.04H382.128ZM397.152 208.248V214.68H403.248V208.248H397.152ZM375.264 218.184C376.512 221.304 377.616 225.336 377.856 227.88L382.272 225.864C381.984 223.416 380.736 219.528 379.392 216.456L375.264 218.184ZM374.784 234.792L376.464 239.976C379.152 238.44 382.08 236.712 384.816 234.936L383.472 230.568C380.208 232.248 377.04 233.832 374.784 234.792ZM452.4 224.136V229.464H470.304V224.136H452.4ZM426.384 213V217.704H447.984V213H426.384ZM425.904 232.104V236.952H447.936V232.104H425.904ZM425.76 223.704V228.456H448.368V223.704H425.76ZM460.176 226.44V253.08H465.744V226.44H460.176ZM434.4 208.632V215.112H440.016V208.632H434.4ZM434.4 228.168V253.272H440.016V228.168H434.4ZM449.808 212.04V228.792C449.808 235.368 449.28 243.576 443.712 249.48C445.008 250.2 447.12 252.168 447.84 253.416C454.368 246.648 455.28 236.04 455.28 228.888V214.776C456.144 214.632 456.48 214.392 456.528 213.912L449.808 212.04ZM465.504 208.728C462.096 210.552 456.432 212.28 451.296 213.432C451.968 214.536 452.784 216.552 453.072 217.8C458.688 216.744 465.216 215.112 470.112 212.904L465.504 208.728ZM439.584 237.144L436.512 239.64C438.288 241.224 441.936 244.824 443.52 246.744L446.832 242.616C445.68 241.656 441.072 238.056 439.584 237.144ZM428.784 218.424C429.552 220.248 430.176 222.696 430.272 224.28L434.976 223.032C434.736 221.448 434.064 219.096 433.2 217.368L428.784 218.424ZM440.736 217.272C440.304 218.952 439.488 221.4 438.816 223.032L443.376 223.992C444.096 222.504 444.912 220.44 445.824 218.232L440.736 217.272ZM434.448 234.936C432.336 239.16 428.352 243.816 424.56 246.264C425.76 247.176 427.44 249.096 428.352 250.344C432.192 247.224 436.176 241.704 438.528 236.424L434.448 234.936ZM502.032 243.048V248.424H515.184V243.048H502.032ZM499.44 212.376V251.928H505.008V217.8H512.016V251.256H517.872V212.376H499.44ZM484.464 216.888V226.056C484.464 233.112 483.6 242.52 474.816 248.856C475.968 249.672 478.176 251.976 478.896 253.176C488.544 246.168 490.272 234.312 490.272 226.152V216.888H484.464ZM480.528 214.344V219.672H496.992V214.344H480.528ZM475.536 227.256V232.728H498.192V227.256H475.536ZM488.832 234.024L485.328 237.288C487.776 240.12 492.48 246.072 494.736 249.624L498.624 244.776C497.136 243 490.8 235.752 488.832 234.024ZM480 208.248C479.04 213.768 477.216 219.288 474.624 222.744C475.872 223.512 478.224 225.144 479.232 226.056C481.968 222.024 484.272 215.688 485.52 209.352L480 208.248Z" fill="white"/>
<g opacity="0.8">
<path opacity="0.6" d="M337.68 306.904H358.08V308.92H337.68V306.904ZM337.68 301.48H358.08V303.448H337.68V301.48ZM332.16 297.784V312.616H363.84V297.784H332.16ZM326.496 314.344V318.952H369.408V314.344H326.496ZM348.48 320.728V325.144H364.176V320.728H348.48ZM333.84 320.872V324.856H344.784V320.872H333.84ZM333.84 326.872V330.856H344.784V326.872H333.84ZM354.384 324.712L349.776 326.008C353.04 333.496 358.752 338.872 367.056 341.272C367.776 339.928 369.264 337.816 370.464 336.808C362.736 334.984 357.072 330.568 354.384 324.712ZM362.496 320.728V321.544C360.384 328.936 354.192 334.456 346.752 336.808C347.808 337.864 349.248 339.928 349.872 341.272C358.416 338.056 365.184 331.912 368.016 321.88L364.464 320.536L363.504 320.728H362.496ZM326.064 333.88L326.448 338.824C331.488 338.392 338.208 337.768 344.64 337.144V332.488C337.92 333.064 330.864 333.592 326.064 333.88ZM341.808 315.832V341.32H347.328V315.832H341.808ZM330.24 315.976V335.56H335.52V315.976H330.24ZM402.48 312.136V317.464H420.384V312.136H402.48ZM376.464 301V305.704H398.064V301H376.464ZM375.984 320.104V324.952H398.016V320.104H375.984ZM375.84 311.704V316.456H398.448V311.704H375.84ZM410.256 314.44V341.08H415.824V314.44H410.256ZM384.48 296.632V303.112H390.096V296.632H384.48ZM384.48 316.168V341.272H390.096V316.168H384.48ZM399.888 300.04V316.792C399.888 323.368 399.36 331.576 393.792 337.48C395.088 338.2 397.2 340.168 397.92 341.416C404.448 334.648 405.36 324.04 405.36 316.888V302.776C406.224 302.632 406.56 302.392 406.608 301.912L399.888 300.04ZM415.584 296.728C412.176 298.552 406.512 300.28 401.376 301.432C402.048 302.536 402.864 304.552 403.152 305.8C408.768 304.744 415.296 303.112 420.192 300.904L415.584 296.728ZM389.664 325.144L386.592 327.64C388.368 329.224 392.016 332.824 393.6 334.744L396.912 330.616C395.76 329.656 391.152 326.056 389.664 325.144ZM378.864 306.424C379.632 308.248 380.256 310.696 380.352 312.28L385.056 311.032C384.816 309.448 384.144 307.096 383.28 305.368L378.864 306.424ZM390.816 305.272C390.384 306.952 389.568 309.4 388.896 311.032L393.456 311.992C394.176 310.504 394.992 308.44 395.904 306.232L390.816 305.272ZM384.528 322.936C382.416 327.16 378.432 331.816 374.64 334.264C375.84 335.176 377.52 337.096 378.432 338.344C382.272 335.224 386.256 329.704 388.608 324.424L384.528 322.936ZM445.632 318.568V323.416H464.64V318.568H445.632ZM445.584 327.016V331.816H464.64V327.016H445.584ZM464.16 297.352C463.2 300.28 461.376 304.072 459.936 306.52L464.928 308.392C466.416 306.088 468.192 302.68 469.776 299.32L464.16 297.352ZM440.304 299.848C442.176 302.632 444.048 306.328 444.672 308.776L449.856 306.328C449.136 303.88 447.072 300.328 445.152 297.688L440.304 299.848ZM441.792 309.64V341.272H447.456V315.016H464.736V309.64H441.792ZM462.048 309.64V335.032C462.048 335.656 461.808 335.848 461.088 335.896C460.368 335.896 457.824 335.896 455.616 335.8C456.336 337.288 457.104 339.64 457.344 341.176C460.944 341.176 463.536 341.128 465.36 340.264C467.136 339.352 467.664 337.816 467.664 335.08V309.64H462.048ZM452.016 296.2V313.24H457.824V296.2H452.016ZM427.392 300.664C430.368 302.248 434.112 304.792 435.792 306.568L439.392 302.152C437.52 300.328 433.728 298.072 430.752 296.632L427.392 300.664ZM425.184 313.432C428.256 315.016 432.048 317.56 433.824 319.384L437.28 314.872C435.36 313.048 431.472 310.744 428.448 309.352L425.184 313.432ZM426.528 337.384L431.568 341.08C434.16 336.232 436.848 330.664 439.008 325.48L434.784 322.024C432.192 327.64 428.88 333.736 426.528 337.384ZM487.44 327.64V334.6C487.44 339.592 488.928 341.176 495.168 341.176C496.464 341.176 501.696 341.176 503.04 341.176C507.696 341.176 509.28 339.736 510 333.976C508.464 333.688 506.016 332.824 504.864 332.008C504.624 335.56 504.288 336.088 502.464 336.088C501.168 336.088 496.848 336.088 495.84 336.088C493.536 336.088 493.152 335.896 493.152 334.552V327.64H487.44ZM492.768 326.536C495.264 328.6 498.096 331.576 499.296 333.64L503.808 330.568C502.464 328.408 499.536 325.624 496.992 323.704L492.768 326.536ZM507.696 329.032C511.056 332.248 514.512 336.664 515.808 339.784L520.8 336.568C519.36 333.304 515.664 329.128 512.304 326.104L507.696 329.032ZM480.336 326.728C479.328 330.328 477.408 334.024 474.816 336.328L479.616 339.688C482.544 336.856 484.272 332.536 485.472 328.6L480.336 326.728ZM488.208 310.792H507.648V313.192H488.208V310.792ZM488.208 317.368H507.648V319.768H488.208V317.368ZM488.208 304.264H507.648V306.664H488.208V304.264ZM482.64 299.896V324.184H513.456V299.896H482.64ZM494.784 295.72C494.496 297.352 493.872 299.56 493.296 301.24L498.624 302.296C499.44 300.856 500.688 298.888 501.792 296.584L494.784 295.72Z" fill="white"/>
<path opacity="0.6" d="M560.071 308.486C559.822 308.486 559.579 308.561 559.372 308.7C559.166 308.839 559.006 309.036 558.912 309.267C558.819 309.497 558.796 309.75 558.847 309.994C558.899 310.237 559.021 310.46 559.2 310.633L568.733 320.166H544.25C544.085 320.164 543.92 320.194 543.766 320.256C543.613 320.318 543.473 320.41 543.355 320.526C543.237 320.642 543.143 320.781 543.079 320.934C543.015 321.086 542.982 321.25 542.982 321.416C542.982 321.582 543.015 321.746 543.079 321.898C543.143 322.051 543.237 322.19 543.355 322.306C543.473 322.423 543.613 322.514 543.766 322.576C543.92 322.638 544.085 322.668 544.25 322.666H568.733L559.2 332.199C559.08 332.314 558.984 332.452 558.918 332.605C558.852 332.757 558.817 332.922 558.816 333.088C558.814 333.254 558.845 333.419 558.908 333.573C558.971 333.727 559.064 333.867 559.182 333.985C559.299 334.102 559.439 334.195 559.593 334.258C559.747 334.321 559.912 334.352 560.078 334.351C560.245 334.349 560.409 334.314 560.562 334.248C560.714 334.182 560.852 334.086 560.967 333.966L572.634 322.3C572.868 322.065 573 321.747 573 321.416C573 321.085 572.868 320.767 572.634 320.532L560.967 308.866C560.851 308.746 560.711 308.65 560.557 308.585C560.403 308.52 560.238 308.486 560.071 308.486Z" fill="white"/>
</g>
<path d="M345.552 408.008V429.32H351.504V408.008H345.552ZM340.704 402.152H355.008V405.128H340.704V402.152ZM335.184 398.072V409.208H360.912V398.072H335.184ZM330.576 412.088V427.208H336.384V417.224H362.88V412.088H330.576ZM360.144 412.088V421.88C360.144 422.408 359.904 422.552 359.184 422.6C358.512 422.6 355.92 422.6 353.76 422.504C354.528 423.944 355.344 426.152 355.632 427.736C359.088 427.736 361.68 427.688 363.6 426.872C365.52 426.056 366.048 424.568 366.048 421.976V412.088H360.144ZM344.928 384.2V393.032H350.88V384.2H344.928ZM327.36 390.824V402.44H332.88V395.768H363.072V402.44H368.784V390.824H327.36ZM331.2 386.6C332.496 388.232 333.888 390.584 334.416 392.12L339.936 389.672C339.264 388.184 337.824 386.072 336.432 384.536L331.2 386.6ZM359.28 384.584C358.464 386.168 357.024 388.376 355.824 389.864L360.672 391.592C362.016 390.344 363.744 388.472 365.472 386.456L359.28 384.584ZM387.84 398.408H408V401.384H387.84V398.408ZM387.84 406.088H408V409.064H387.84V406.088ZM387.84 390.776H408V393.752H387.84V390.776ZM382.272 385.736V414.104H413.856V385.736H382.272ZM400.128 410.216V421.736C400.128 427.208 401.52 428.936 407.28 428.936C408.384 428.936 412.416 428.936 413.616 428.936C418.416 428.936 419.952 426.968 420.576 419.336C418.992 418.952 416.448 417.992 415.296 417.032C415.056 422.696 414.768 423.512 413.088 423.512C412.08 423.512 408.864 423.512 408.048 423.512C406.32 423.512 405.984 423.272 405.984 421.736V410.216H400.128ZM388.368 412.184C387.744 418.616 386.448 422.312 375.312 424.376C376.512 425.624 378.048 427.976 378.528 429.512C391.488 426.584 393.744 420.92 394.56 412.184H388.368ZM440.784 407.384V412.088H451.632V417.8H440.784V422.504H457.008V407.384H440.784ZM438.336 407.384V425.24H443.664V407.384H438.336ZM430.464 393.032V396.968H442.512V393.032H430.464ZM452.736 393.032V396.968H464.88V393.032H452.736ZM462.48 386.072V422.36C462.48 423.224 462.144 423.56 461.232 423.56C460.32 423.56 457.008 423.608 454.224 423.464C455.04 424.952 456 427.688 456.192 429.32C460.608 429.32 463.632 429.224 465.648 428.264C467.616 427.304 468.288 425.672 468.288 422.408V386.072H462.48ZM430.944 386.072V390.488H440.736V399.656H430.944V404.072H446.112V386.072H430.944ZM465.6 386.072H449.376V404.12H465.6V399.752H454.848V390.44H465.6V386.072ZM427.632 386.072V429.32H433.344V386.072H427.632ZM488.112 405.704V410.456H507.456V405.704H488.112ZM486.624 423.08V428.024H508.944V423.08H486.624ZM497.52 400.232C501.984 405.272 510.288 410.552 517.392 413.384C518.256 411.848 519.504 409.976 520.8 408.584C513.216 406.28 505.344 401.528 500.064 395.384H494.544C490.704 400.424 482.976 406.04 474.864 409.016C475.968 410.168 477.36 412.184 477.984 413.48C485.712 410.264 493.392 405.08 497.52 400.232ZM483.408 413.624V429.368H488.88V418.52H506.4V429.224H512.16V413.624H483.408ZM481.968 388.088V392.888H496.896V388.088H481.968ZM500.88 388.088V392.888H519.504V388.088H500.88ZM482.208 383.672C480.624 388.136 477.84 392.792 474.72 395.624C476.112 396.344 478.464 397.88 479.52 398.792C482.592 395.48 485.76 390.248 487.728 385.112L482.208 383.672ZM501.696 383.672C500.352 387.56 497.808 391.448 494.88 393.848C496.272 394.568 498.672 396.2 499.728 397.16C502.704 394.28 505.632 389.72 507.312 385.064L501.696 383.672ZM483.648 391.736C485.04 393.848 486.48 396.728 487.056 398.6L492.144 396.872C491.424 395 489.84 392.264 488.448 390.248L483.648 391.736ZM504.576 391.784C506.16 393.896 507.984 396.728 508.704 398.6L513.984 396.68C513.168 394.808 511.2 392.024 509.52 390.104L504.576 391.784Z" fill="white"/>
<path d="M334.896 472.248V480.552H340.752V472.248H334.896ZM326.016 477.72V482.904H349.488V477.72H326.016ZM349.152 484.152V489.624H370.368V484.152H349.152ZM333.552 490.344H341.952V494.424H333.552V490.344ZM328.272 485.592V499.176H347.52V485.592H328.272ZM335.28 497.208V511.416C335.28 511.896 335.088 512.04 334.56 512.088C334.032 512.088 332.256 512.088 330.624 512.04C331.344 513.432 332.16 515.64 332.352 517.224C335.136 517.224 337.2 517.128 338.784 516.312C340.368 515.4 340.8 513.96 340.8 511.512V497.208H335.28ZM328.656 501C327.936 504.792 326.592 508.68 324.768 511.224C325.968 511.944 328.08 513.528 328.992 514.44C331.104 511.416 332.88 506.664 333.84 502.104L328.656 501ZM341.76 502.104C342.912 504.696 344.112 508.248 344.592 510.504L349.296 508.728C348.816 506.472 347.568 503.112 346.272 500.52L341.76 502.104ZM360.912 475.272C362.928 477.672 364.848 480.984 365.568 483.24L370.32 480.936C369.504 478.68 367.536 475.512 365.376 473.256L360.912 475.272ZM354.528 472.2V484.488C354.528 492.984 353.712 505.848 344.736 514.008C346.176 514.728 348.528 516.36 349.584 517.416C359.04 508.392 360.144 494.328 360.144 484.488V472.2H354.528ZM358.416 491.64V510.744C358.416 513.816 358.608 514.68 359.52 515.64C360.384 516.504 361.68 516.84 362.976 516.84C363.696 516.84 364.992 516.84 365.808 516.84C366.912 516.84 368.016 516.552 368.736 516.072C369.552 515.448 370.08 514.632 370.416 513.432C370.704 512.232 370.944 509.4 371.04 506.808C369.696 506.376 367.872 505.416 366.864 504.504C366.912 506.952 366.864 509.064 366.768 509.928C366.672 510.408 366.528 510.888 366.336 511.08C366.144 511.272 365.808 511.368 365.52 511.368C365.184 511.368 364.8 511.368 364.56 511.368C364.272 511.368 363.984 511.272 363.84 511.032C363.696 510.936 363.648 510.6 363.648 510.312V491.64H358.416ZM383.904 513.384V516.408H412.08V513.384H383.904ZM383.904 509.256V512.088H412.08V509.256H383.904ZM377.04 495.384V499.032H419.184V495.384H377.04ZM379.392 500.568V517.32H384.576V503.544H411.36V517.32H416.784V500.568H379.392ZM385.824 476.616C385.2 478.248 384.192 479.88 382.8 481.128C383.616 481.512 385.008 482.376 385.632 482.856C387.024 481.464 388.368 479.4 389.088 477.384L385.824 476.616ZM399.744 482.472V485.736H413.568V482.472H399.744ZM385.968 478.728V481.32H396.624V478.728H385.968ZM383.184 482.76V485.496H397.44V482.76H383.184ZM403.152 473.4V477.24H411.696V473.4H403.152ZM412.56 482.472V483C410.592 487.848 405.024 490.536 398.448 491.544C399.216 492.408 400.176 493.992 400.608 495C408.24 493.416 414.384 490.2 416.976 483.288L414.24 482.376L413.424 482.472H412.56ZM405.024 485.4L400.752 486.456C403.824 491.544 409.296 494.472 417.12 495.576C417.696 494.328 418.944 492.456 419.952 491.544C412.896 490.92 407.472 488.952 405.024 485.4ZM401.088 473.4V475.848C401.088 477.528 400.56 479.016 396.912 480.312C397.728 480.936 399.408 482.76 399.936 483.72C404.4 481.752 405.456 478.872 405.456 476.04V473.4H401.088ZM409.632 473.4V477.048C409.632 479.448 409.92 480.312 410.592 480.984C411.216 481.704 412.464 481.992 413.472 481.992C414.048 481.992 414.96 481.992 415.536 481.992C416.208 481.992 417.072 481.944 417.6 481.704C418.272 481.416 418.8 481.032 419.088 480.504C419.424 480.024 419.616 478.872 419.76 477.72C418.656 477.384 417.216 476.664 416.448 475.992C416.4 476.808 416.352 477.48 416.256 477.768C416.16 478.104 416.016 478.2 415.872 478.248C415.776 478.344 415.536 478.344 415.344 478.344C415.104 478.344 414.768 478.344 414.576 478.344C414.384 478.344 414.24 478.296 414.144 478.152C414 478.008 414.048 477.672 414.048 477.048V473.4H409.632ZM388.752 479.976V483.144C388.752 484.824 388.08 487.128 383.088 488.328C383.904 489 384.912 490.104 385.392 490.92C391.2 488.904 392.304 485.736 392.304 483.24V479.976H388.752ZM391.296 497.496V501.816C391.296 503.64 390.336 505.704 384.624 506.664C385.584 507.432 386.736 508.824 387.312 509.784C393.984 508.008 395.664 505.032 395.664 501.864V497.496H391.296ZM399.6 497.448V504.072C399.6 507.192 400.656 507.96 404.928 507.96C405.84 507.96 409.776 507.96 410.688 507.96C413.328 507.96 414.48 507.432 414.768 505.896C413.712 505.752 412.176 505.416 411.312 504.984C411.216 505.272 410.928 505.32 410.112 505.32C409.296 505.32 406.176 505.32 405.552 505.32C404.256 505.32 404.016 505.176 404.016 504.12V497.448H399.6ZM388.992 486.504C391.104 487.704 393.744 489.528 395.088 490.728L397.296 488.424C395.904 487.176 393.216 485.496 391.104 484.392L388.992 486.504ZM398.16 473.832H378.24V493.944H398.544V490.68H382.512V477.096H398.16V473.832ZM448.656 483.912H461.664V486.264H448.656V483.912ZM448.656 477.816H461.664V480.216H448.656V477.816ZM443.376 473.736V490.392H467.184V473.736H443.376ZM441.024 492.6V497.256H469.632V492.6H441.024ZM452.4 495.144V512.328L457.824 514.68V495.144H452.4ZM447.984 503.64L444.528 504.792C447.6 514.968 453.168 516.696 460.944 516.696H469.344C469.536 515.208 470.208 512.808 470.928 511.608C468.816 511.704 462.816 511.704 461.184 511.704C455.28 511.704 450.384 510.792 447.984 503.64ZM456.336 501.48V505.992H467.04V501.48H456.336ZM443.904 498.696C443.184 505.272 441.168 510.6 437.184 513.816C438.384 514.584 440.544 516.312 441.408 517.224C445.632 513.336 448.08 507.144 449.088 499.32L443.904 498.696ZM424.896 496.584L426.144 502.152C430.464 500.952 435.888 499.368 440.928 497.832L440.16 492.648C434.64 494.184 428.832 495.768 424.896 496.584ZM425.376 481.368V486.648H440.64V481.368H425.376ZM430.56 472.296V510.552C430.56 511.224 430.368 511.416 429.792 511.416C429.216 511.416 427.536 511.416 425.808 511.368C426.48 512.904 427.152 515.256 427.296 516.696C430.368 516.696 432.48 516.504 433.92 515.592C435.408 514.728 435.84 513.24 435.84 510.6V472.296H430.56ZM490.704 495.384V500.088H501.552V505.8H490.704V510.504H506.928V495.384H490.704ZM488.256 495.384V513.24H493.584V495.384H488.256ZM480.384 481.032V484.968H492.432V481.032H480.384ZM502.656 481.032V484.968H514.8V481.032H502.656ZM512.4 474.072V510.36C512.4 511.224 512.064 511.56 511.152 511.56C510.24 511.56 506.928 511.608 504.144 511.464C504.96 512.952 505.92 515.688 506.112 517.32C510.528 517.32 513.552 517.224 515.568 516.264C517.536 515.304 518.208 513.672 518.208 510.408V474.072H512.4ZM480.864 474.072V478.488H490.656V487.656H480.864V492.072H496.032V474.072H480.864ZM515.52 474.072H499.296V492.12H515.52V487.752H504.768V478.44H515.52V474.072ZM477.552 474.072V517.32H483.264V474.072H477.552ZM544.464 488.28V517.32H550.464V488.28H544.464ZM536.4 496.776H559.104V499.368H536.4V496.776ZM536.4 490.104H559.104V492.648H536.4V490.104ZM530.736 485.688V503.784H565.008V485.688H530.736ZM526.224 506.28V511.224H569.232V506.28H526.224ZM534.144 477.576H540.912V480.36H534.144V477.576ZM529.008 474.12V483.768H546.288V474.12H529.008ZM554.256 477.576H561.168V480.36H554.256V477.576ZM549.168 474.12V483.768H566.544V474.12H549.168Z" fill="white"/>
<path d="M347.537 356.553C346.853 355.635 346.169 354.028 344.8 351.962C344.115 350.815 342.062 348.519 341.378 347.601C340.922 346.683 340.922 346.224 341.15 345.306C341.378 343.929 342.747 342.781 344.344 342.781C345.484 342.781 346.625 343.699 347.537 344.388C347.994 344.847 348.678 345.765 349.134 346.224C349.591 346.683 349.591 346.913 350.047 347.372C350.503 348.06 350.731 348.519 350.503 347.601C350.275 346.454 350.047 344.617 349.591 342.781C349.362 341.404 349.134 341.174 348.906 340.256C348.678 339.109 348.45 338.42 348.222 337.272C347.994 336.584 347.766 334.748 347.537 333.829C347.309 332.682 347.309 330.616 348.222 329.698C348.906 329.009 350.275 328.78 351.187 329.239C352.328 329.927 353.012 331.534 353.241 332.223C353.697 333.37 354.153 334.977 354.381 336.813C354.837 339.109 355.522 342.552 355.522 343.24C355.522 342.322 355.294 340.715 355.522 339.797C355.75 339.109 356.206 338.191 357.119 337.961C357.803 337.731 358.487 337.731 359.172 337.731C359.856 337.961 360.541 338.42 360.997 338.879C361.909 340.256 361.909 343.24 361.909 343.011C362.137 342.093 362.137 340.256 362.594 339.338C362.822 338.879 363.734 338.42 364.191 338.191C364.875 337.961 365.787 337.961 366.472 338.191C366.928 338.191 367.841 338.879 368.069 339.338C368.525 340.027 368.753 342.322 368.981 343.24C368.981 343.47 369.209 342.322 369.666 341.633C370.578 340.256 373.772 339.797 374 343.011C374 344.617 374 344.388 374 345.536C374 346.683 374 347.372 374 348.29C374 349.208 373.772 351.274 373.544 352.192C373.316 352.881 372.631 354.487 371.947 355.405C371.947 355.405 369.437 358.16 369.209 359.537C368.981 360.914 368.981 360.914 368.981 361.832C368.981 362.75 369.209 363.898 369.209 363.898C369.209 363.898 367.384 364.128 366.472 363.898C365.559 363.668 364.419 362.062 364.191 361.373C363.734 360.685 363.05 360.685 362.594 361.373C362.137 362.291 360.997 363.898 360.084 363.898C358.487 364.128 355.294 363.898 353.012 363.898C353.012 363.898 353.469 361.603 352.556 360.685C351.872 359.996 350.731 358.848 350.047 358.16L347.537 356.553Z" fill="white"/>
<path d="M347.537 356.553C346.853 355.635 346.169 354.028 344.8 351.962C344.115 350.815 342.062 348.519 341.378 347.601C340.922 346.683 340.922 346.224 341.15 345.306C341.378 343.929 342.747 342.781 344.344 342.781C345.484 342.781 346.625 343.699 347.537 344.388C347.994 344.847 348.678 345.765 349.134 346.224C349.591 346.683 349.591 346.913 350.047 347.372C350.503 348.06 350.731 348.519 350.503 347.601C350.275 346.454 350.047 344.617 349.591 342.781C349.362 341.404 349.134 341.174 348.906 340.256C348.678 339.109 348.45 338.42 348.222 337.272C347.994 336.584 347.766 334.748 347.537 333.829C347.309 332.682 347.309 330.616 348.222 329.698C348.906 329.009 350.275 328.78 351.187 329.239C352.328 329.927 353.012 331.534 353.241 332.223C353.697 333.37 354.153 334.977 354.381 336.813C354.837 339.109 355.522 342.552 355.522 343.24C355.522 342.322 355.294 340.715 355.522 339.797C355.75 339.109 356.206 338.191 357.119 337.961C357.803 337.731 358.487 337.731 359.172 337.731C359.856 337.961 360.541 338.42 360.997 338.879C361.909 340.256 361.909 343.24 361.909 343.011C362.137 342.093 362.137 340.256 362.594 339.338C362.822 338.879 363.734 338.42 364.191 338.191C364.875 337.961 365.787 337.961 366.472 338.191C366.928 338.191 367.841 338.879 368.069 339.338C368.525 340.027 368.753 342.322 368.981 343.24C368.981 343.47 369.209 342.322 369.666 341.633C370.578 340.256 373.772 339.797 374 343.011C374 344.617 374 344.388 374 345.536C374 346.683 374 347.372 374 348.29C374 349.208 373.772 351.274 373.544 352.192C373.316 352.881 372.631 354.487 371.947 355.405C371.947 355.405 369.437 358.16 369.209 359.537C368.981 360.914 368.981 360.914 368.981 361.832C368.981 362.75 369.209 363.898 369.209 363.898C369.209 363.898 367.384 364.128 366.472 363.898C365.559 363.668 364.419 362.062 364.191 361.373C363.734 360.685 363.05 360.685 362.594 361.373C362.137 362.291 360.997 363.898 360.084 363.898C358.487 364.128 355.294 363.898 353.012 363.898C353.012 363.898 353.469 361.603 352.556 360.685C351.872 359.996 350.731 358.848 350.047 358.16L347.537 356.553Z" stroke="black" stroke-width="0.75" stroke-linecap="round" stroke-linejoin="round"/>
<path d="M366.094 357.462V349.658" stroke="black" stroke-width="0.75" stroke-linecap="round"/>
<path d="M361.759 357.462L361.531 349.658" stroke="black" stroke-width="0.75" stroke-linecap="round"/>
<path d="M356.969 349.658V357.462" stroke="black" stroke-width="0.75" stroke-linecap="round"/>
<defs>
<linearGradient id="paint0_linear_703_20646" x1="1440" y1="6.86646e-05" x2="-5.76675e-05" y2="900" gradientUnits="userSpaceOnUse">
<stop stop-color="#7E9B8F"/>
<stop offset="1" stop-color="#93B1A6"/>
</linearGradient>
</defs>
</svg>
