<svg width="35" height="37" viewBox="0 0 35 37" fill="none" xmlns="http://www.w3.org/2000/svg">
<path d="M7.53738 28.553C6.853 27.6349 6.16862 26.0282 4.79986 23.9624C4.11549 22.8147 2.06235 20.5194 1.37797 19.6013C0.92172 18.6832 0.921719 18.2241 1.14985 17.306C1.37797 15.9288 2.74673 14.7811 4.34361 14.7811C5.48424 14.7811 6.62487 15.6993 7.53738 16.3879C7.99363 16.8469 8.67801 17.7651 9.13426 18.2241C9.59051 18.6832 9.59051 18.9127 10.0468 19.3718C10.503 20.0604 10.7311 20.5194 10.503 19.6013C10.2749 18.4536 10.0468 16.6174 9.59051 14.7811C9.36238 13.404 9.13426 13.1744 8.90613 12.2563C8.67801 11.1087 8.44988 10.4201 8.22176 9.27241C7.99363 8.58382 7.7655 6.74757 7.53738 5.82945C7.30925 4.68179 7.30925 2.61602 8.22176 1.69789C8.90613 1.0093 10.2749 0.779769 11.1874 1.23883C12.328 1.92742 13.0124 3.53414 13.2405 4.22273C13.6968 5.37039 14.153 6.9771 14.3812 8.81335C14.8374 11.1087 15.5218 14.5516 15.5218 15.2402C15.5218 14.3221 15.2937 12.7154 15.5218 11.7973C15.7499 11.1087 16.2062 10.1905 17.1187 9.961C17.803 9.73147 18.4874 9.73147 19.1718 9.73147C19.8562 9.961 20.5406 10.4201 20.9968 10.8791C21.9093 12.2563 21.9093 15.2402 21.9093 15.0107C22.1374 14.0926 22.1374 12.2563 22.5937 11.3382C22.8218 10.8791 23.7343 10.4201 24.1906 10.1905C24.875 9.961 25.7875 9.961 26.4718 10.1905C26.9281 10.1905 27.8406 10.8791 28.0687 11.3382C28.525 12.0268 28.7531 14.3221 28.9812 15.2402C28.9812 15.4697 29.2094 14.3221 29.6656 13.6335C30.5781 12.2563 33.7719 11.7972 34 15.0107C34 16.6174 34 16.3879 34 17.5355C34 18.6832 34 19.3718 34 20.2899C34 21.208 33.7719 23.2738 33.5438 24.1919C33.3156 24.8805 32.6312 26.4872 31.9469 27.4053C31.9469 27.4053 29.4375 30.1597 29.2094 31.5369C28.9812 32.9141 28.9812 32.9141 28.9812 33.8322C28.9812 34.7503 29.2094 35.898 29.2094 35.898C29.2094 35.898 27.3843 36.1275 26.4718 35.898C25.5593 35.6685 24.4187 34.0617 24.1906 33.3731C23.7343 32.6846 23.0499 32.6846 22.5937 33.3731C22.1374 34.2913 20.9968 35.898 20.0843 35.898C18.4874 36.1275 15.2937 35.898 13.0124 35.898C13.0124 35.898 13.4687 33.6027 12.5561 32.6846C11.8718 31.996 10.7311 30.8483 10.0468 30.1597L7.53738 28.553Z" fill="white"/>
<path d="M7.53738 28.553C6.853 27.6349 6.16862 26.0282 4.79986 23.9624C4.11549 22.8147 2.06235 20.5194 1.37797 19.6013C0.92172 18.6832 0.921719 18.2241 1.14985 17.306C1.37797 15.9288 2.74673 14.7811 4.34361 14.7811C5.48424 14.7811 6.62487 15.6993 7.53738 16.3879C7.99363 16.8469 8.67801 17.7651 9.13426 18.2241C9.59051 18.6832 9.59051 18.9127 10.0468 19.3718C10.503 20.0604 10.7311 20.5194 10.503 19.6013C10.2749 18.4536 10.0468 16.6174 9.59051 14.7811C9.36238 13.404 9.13426 13.1744 8.90613 12.2563C8.67801 11.1087 8.44988 10.4201 8.22175 9.27241C7.99363 8.58382 7.7655 6.74757 7.53738 5.82945C7.30925 4.68179 7.30925 2.61602 8.22175 1.69789C8.90613 1.0093 10.2749 0.779769 11.1874 1.23883C12.328 1.92742 13.0124 3.53414 13.2405 4.22273C13.6968 5.37039 14.153 6.9771 14.3812 8.81335C14.8374 11.1087 15.5218 14.5516 15.5218 15.2402C15.5218 14.3221 15.2937 12.7154 15.5218 11.7973C15.7499 11.1087 16.2062 10.1905 17.1187 9.961C17.803 9.73147 18.4874 9.73147 19.1718 9.73147C19.8562 9.961 20.5406 10.4201 20.9968 10.8791C21.9093 12.2563 21.9093 15.2402 21.9093 15.0107C22.1374 14.0926 22.1374 12.2563 22.5937 11.3382C22.8218 10.8791 23.7343 10.4201 24.1906 10.1905C24.875 9.961 25.7875 9.961 26.4718 10.1905C26.9281 10.1905 27.8406 10.8791 28.0687 11.3382C28.525 12.0268 28.7531 14.3221 28.9812 15.2402C28.9812 15.4697 29.2094 14.3221 29.6656 13.6335C30.5781 12.2563 33.7719 11.7973 34 15.0107C34 16.6174 34 16.3879 34 17.5355C34 18.6832 34 19.3718 34 20.2899C34 21.208 33.7719 23.2738 33.5437 24.1919C33.3156 24.8805 32.6312 26.4872 31.9469 27.4053C31.9469 27.4053 29.4375 30.1597 29.2094 31.5369C28.9812 32.9141 28.9812 32.9141 28.9812 33.8322C28.9812 34.7503 29.2094 35.898 29.2094 35.898C29.2094 35.898 27.3843 36.1275 26.4718 35.898C25.5593 35.6685 24.4187 34.0617 24.1906 33.3731C23.7343 32.6846 23.0499 32.6846 22.5937 33.3731C22.1374 34.2913 20.9968 35.898 20.0843 35.898C18.4874 36.1275 15.2937 35.898 13.0124 35.898C13.0124 35.898 13.4687 33.6027 12.5561 32.6846C11.8718 31.996 10.7311 30.8483 10.0468 30.1597L7.53738 28.553Z" stroke="black" stroke-width="0.75" stroke-linecap="round" stroke-linejoin="round"/>
<path d="M26.0938 29.4623V21.6582" stroke="black" stroke-width="0.75" stroke-linecap="round"/>
<path d="M21.7594 29.4623L21.5312 21.6582" stroke="black" stroke-width="0.75" stroke-linecap="round"/>
<path d="M16.9688 21.6582V29.4623" stroke="black" stroke-width="0.75" stroke-linecap="round"/>
</svg>
