<svg width="160" height="160" viewBox="0 0 160 160" fill="none" xmlns="http://www.w3.org/2000/svg">
<path d="M154.483 11.3789H5.51724C2.46897 11.3789 0 13.8479 0 16.8961V143.103C0 146.151 2.46897 148.62 5.51724 148.62H154.483C157.531 148.62 160 146.151 160 143.103V16.8961C160 13.8479 157.531 11.3789 154.483 11.3789Z" fill="url(#paint0_linear_769_21016)"/>
<path d="M160 16.8961V22.4134C160 23.9368 158.765 25.172 157.241 25.172H79.2714C45.0131 25.172 17.2414 52.9437 17.2414 87.202V145.862C17.2414 147.385 16.0062 148.62 14.4828 148.62H5.51724C2.47 148.62 0 146.15 0 143.103V16.8961C0 13.8489 2.47 11.3789 5.51724 11.3789H154.483C157.53 11.3789 160 13.8489 160 16.8961Z" fill="white" fill-opacity="0.2"/>
<path d="M34.8273 29.6559H17.241C15.7176 29.6559 14.4824 28.4207 14.4824 26.8973C14.4824 25.3738 15.7176 24.1387 17.241 24.1387H34.8273C36.3507 24.1387 37.5859 25.3738 37.5859 26.8973C37.5859 28.4207 36.3507 29.6559 34.8273 29.6559Z" fill="white"/>
<path d="M44.8277 44.4821H29.3553C27.8319 44.4821 26.5967 43.2469 26.5967 41.7235C26.5967 40.2 27.8319 38.9648 29.3553 38.9648H44.8277C46.3512 38.9648 47.5863 40.2 47.5863 41.7235C47.5863 43.2469 46.3512 44.4821 44.8277 44.4821Z" fill="white"/>
<path d="M18.141 44.4821H17.241C15.7176 44.4821 14.4824 43.2469 14.4824 41.7235C14.4824 40.2 15.7176 38.9648 17.241 38.9648H18.141C19.6645 38.9648 20.8997 40.2 20.8997 41.7235C20.8997 43.2469 19.6645 44.4821 18.141 44.4821Z" fill="white"/>
<path d="M55.9717 104.582V109.526C58.5926 108.87 61.3301 108.833 63.9678 109.418L63.7529 102.909C60.7582 102.69 58.1341 102.907 55.9717 104.582Z" fill="#E8E7F0"/>
<path d="M94.423 64.8105C93.5427 68.5388 91.0104 70.469 88.1582 71.4855L95.3123 76.0051C99.7122 74.0471 99.2756 67.4228 99.5161 65.0741L94.423 64.8105Z" fill="#E8E7F0"/>
<path d="M125.165 79.559C128.332 72.7943 125.196 69.4151 126.1 66.1339C129.443 54.0001 112.681 47.7283 105.654 56.2911C101.744 52.8507 93.7774 53.3729 91.3034 58.2686C88.9866 56.7855 86.1887 56.5998 83.4464 56.6582C80.6825 56.7194 77.6301 57.2965 75.3752 58.8937C73.3136 55.0333 66.1971 51.9044 61.0997 56.3085C58.9818 54.2907 55.2459 53.1984 51.7457 53.4681C49.9728 53.6414 48.2726 54.2604 46.8032 55.2673C45.3338 56.2743 44.1429 57.6366 43.3415 59.2274C41.6567 62.8333 41.8285 67.154 43.6356 71.6985C41.679 75.2342 40.2487 82.8493 44.0124 86.736C41.4502 89.9387 39.8607 98.9986 45.5957 103.306C44.5256 110.571 47.2046 115.247 49.9156 116.984C52.5655 118.686 56.8597 119.106 59.7641 115.886C62.0016 113.411 62.5001 104.518 58.9902 101C60.2362 98.377 60.2515 92.7957 56.0226 88.9896C58.3832 85.2696 59.5847 78.9986 56.0226 74.8747C57.4438 72.6205 57.2602 72.7888 57.2428 70.1577C58.9714 71.9301 65.2883 71.7569 69.9893 70.7056C72.8506 70.1131 75.8247 70.408 78.5138 71.5511C80.6642 72.4028 82.999 72.6809 85.2892 72.358C87.5794 72.0351 89.7464 71.1223 91.5774 69.7092C96.9209 73.1705 102.128 71.8758 104.363 69.0779C108.171 69.4012 109.765 67.9445 111.133 67.1477C110.519 71.6672 111.713 76.8689 114.398 79.5277C110.678 84.5458 110.144 91.9558 113.232 96.0797L113.241 96.088C110.582 98.6064 109.371 102.763 109.661 106.424C106.222 106.038 98.1265 107.629 95.6609 112.639C89.6291 110.939 77.1656 111.81 76.6455 124.269C76.5155 127.403 77.1371 129.623 77.7782 132.094C78.0751 133.319 78.756 134.418 79.7215 135.228C80.687 136.039 81.8865 136.52 83.1446 136.6C83.9164 136.629 84.6861 136.502 85.4074 136.226C86.1287 135.95 86.7869 135.531 87.3423 134.994C87.8978 134.458 88.3391 133.814 88.6398 133.103C88.9405 132.391 89.0945 131.627 89.0923 130.854C89.0674 129.337 89.2967 127.825 89.771 126.383C91.6502 126.743 93.5861 126.677 95.4368 126.192C97.2874 125.706 99.0059 124.812 100.466 123.576C107.81 126.496 114.303 124.271 117.207 115.697C124.55 114.434 127.643 105.415 124.747 98.7205C128.257 93.6725 128.227 83.0071 125.165 79.559Z" fill="#F7F6FF"/>
<path d="M56.2862 127.949C56.0695 127.949 55.8582 127.881 55.6819 127.755C55.5056 127.629 55.3731 127.451 55.303 127.246C55.2606 127.125 54.2962 124.2 55.2133 118.007C56.1506 112.471 51.8939 105.293 50.0207 102.463C49.6916 101.974 49.4659 101.423 49.3576 100.844C49.2493 100.265 49.2605 99.6693 49.3907 99.0945C50.3266 95.1743 49.4519 89.8781 49.162 88.3484C49.0664 87.8428 49.0902 87.3218 49.2315 86.8271C50.255 83.1419 50.1723 78.767 49.5096 76.8326C49.1453 75.746 49.2202 74.56 49.7182 73.5278C50.205 72.4939 50.8634 71.0775 51.2542 66.8841C51.2659 66.747 51.3046 66.6135 51.3681 66.4914C51.4316 66.3692 51.5187 66.2609 51.6243 66.1726C51.7299 66.0843 51.8519 66.0178 51.9833 65.9768C52.1148 65.9359 52.253 65.9214 52.39 65.9342C52.5271 65.9469 52.6603 65.9867 52.7819 66.0512C52.9035 66.1156 53.0112 66.2035 53.0986 66.3098C53.1861 66.4161 53.2517 66.5386 53.2916 66.6704C53.3315 66.8021 53.3449 66.9404 53.3311 67.0774C52.9403 71.284 52.2937 72.9444 51.6116 74.4116C51.3444 74.9538 51.299 75.5788 51.485 76.154C52.3778 78.7538 52.2728 83.687 51.2458 87.3868C51.1909 87.5725 51.1802 87.7685 51.2145 87.959C51.6116 90.0519 52.4265 95.3738 51.4231 99.5784C51.3589 99.8753 51.3559 100.182 51.4145 100.48C51.4731 100.778 51.592 101.061 51.7638 101.312C53.774 104.348 58.3345 112.089 57.2763 118.334C56.4482 123.928 57.2763 126.552 57.2825 126.578C57.3344 126.735 57.3483 126.902 57.323 127.065C57.2977 127.229 57.2339 127.384 57.1369 127.517C57.0399 127.651 56.9126 127.76 56.7652 127.835C56.6179 127.91 56.4549 127.949 56.2896 127.949H56.2862Z" fill="#E8E7F0"/>
<path d="M83.9553 66.188C78.0799 66.1023 72.2132 65.7052 66.3799 64.9983L65.0657 64.8592C62.4931 64.5902 60.6283 63.299 58.6529 61.932C56.5364 60.4676 54.3489 58.9539 51.0197 58.6139C50.7445 58.5863 50.4915 58.4504 50.3165 58.2362C50.1414 58.0221 50.0586 57.7471 50.0863 57.4719C50.1139 57.1967 50.2498 56.9437 50.464 56.7686C50.6782 56.5936 50.9531 56.5108 51.2283 56.5384C55.0915 56.9327 57.6127 58.6779 59.837 60.2166C61.6622 61.48 63.2392 62.571 65.2799 62.7844L66.6045 62.9277C72.4208 63.5639 87.8692 65.2535 95.38 62.8289C97.0487 62.2908 98.7175 61.7234 100.354 61.1678C107.243 58.8246 113.189 56.8033 117.149 57.4396C117.422 57.4837 117.666 57.6346 117.828 57.8589C117.99 58.0833 118.056 58.3627 118.012 58.6358C117.968 58.909 117.817 59.1533 117.593 59.3152C117.368 59.4771 117.089 59.5432 116.816 59.4991C113.377 58.9428 107.375 60.9829 101.025 63.1418C99.378 63.7022 97.7002 64.2724 96.019 64.8147C92.831 65.8417 88.4637 66.188 83.9553 66.188Z" fill="#E8E7F0"/>
<path d="M62.4135 59.1494C62.2213 59.1492 62.0329 59.096 61.8691 58.9955C61.7053 58.895 61.5725 58.7512 61.4852 58.58C61.1867 58.0113 60.8044 57.4907 60.3512 57.0357C60.1618 56.8368 60.0584 56.5712 60.0637 56.2966C60.0689 56.0219 60.1822 55.7605 60.3791 55.5689C60.576 55.3774 60.8404 55.2712 61.1151 55.2735C61.3898 55.2758 61.6525 55.3863 61.8461 55.5811C62.4453 56.1863 62.9504 56.878 63.3445 57.633C63.4255 57.7919 63.4644 57.969 63.4574 58.1473C63.4504 58.3256 63.3978 58.4991 63.3046 58.6513C63.2114 58.8034 63.0807 58.9291 62.9251 59.0163C62.7694 59.1035 62.594 59.1494 62.4156 59.1494H62.4135Z" fill="#E8E7F0"/>
<path d="M43.8616 73.2527C43.6588 73.2526 43.4604 73.1933 43.2907 73.0822C43.121 72.971 42.9874 72.8128 42.9063 72.6269C42.827 72.4482 42.7519 72.2695 42.6782 72.0908C42.6237 71.9638 42.595 71.8272 42.5938 71.6891C42.5925 71.5509 42.6188 71.4138 42.671 71.2859C42.7231 71.1579 42.8002 71.0416 42.8977 70.9437C42.9952 70.8458 43.1112 70.7682 43.239 70.7155C43.3667 70.6628 43.5036 70.6361 43.6418 70.6367C43.78 70.6374 43.9167 70.6655 44.0439 70.7195C44.1711 70.7734 44.2863 70.8521 44.3829 70.951C44.4794 71.0498 44.5554 71.1669 44.6063 71.2954C44.6758 71.4588 44.7454 71.6228 44.8149 71.7862C44.9263 72.0394 44.9325 72.3265 44.8322 72.5843C44.732 72.8421 44.5334 73.0495 44.2802 73.1609C44.1486 73.2204 44.006 73.2517 43.8616 73.2527Z" fill="#E8E7F0"/>
<path d="M46.1938 89.4163C46.0406 89.4161 45.8894 89.3822 45.7509 89.3169C44.8057 88.8589 43.9562 88.2253 43.2477 87.45C43.1519 87.3505 43.0768 87.2329 43.0268 87.1041C42.9768 86.9753 42.9528 86.8379 42.9564 86.6998C42.96 86.5616 42.9909 86.4256 43.0475 86.2995C43.104 86.1735 43.1851 86.0599 43.2859 85.9655C43.3867 85.871 43.5053 85.7975 43.6348 85.7493C43.7643 85.701 43.902 85.679 44.0401 85.6844C44.1781 85.6898 44.3137 85.7227 44.439 85.7809C44.5643 85.8392 44.6767 85.9218 44.7698 86.0239C45.2982 86.6061 45.9322 87.0829 46.6381 87.4291C46.8529 87.5299 47.027 87.701 47.1315 87.914C47.236 88.127 47.2648 88.3694 47.213 88.6009C47.1612 88.8325 47.032 89.0395 46.8467 89.1878C46.6614 89.336 46.4311 89.4167 46.1938 89.4163Z" fill="#E8E7F0"/>
<path d="M60.0456 71.6323C53.6244 71.6323 49.0006 65.6526 47.7441 61.3055C47.7061 61.1739 47.6944 61.0361 47.7096 60.8999C47.7248 60.7638 47.7667 60.632 47.8329 60.512C47.8991 60.392 47.9883 60.2863 48.0953 60.2008C48.2024 60.1153 48.3252 60.0517 48.4568 60.0137C48.5884 59.9756 48.7263 59.9639 48.8624 59.9791C48.9986 59.9944 49.1304 60.0363 49.2504 60.1024C49.3703 60.1686 49.4761 60.2578 49.5616 60.3648C49.6471 60.4719 49.7107 60.5947 49.7487 60.7264C50.841 64.5061 54.8669 69.7397 60.3453 69.538C60.6219 69.528 60.8912 69.6282 61.0939 69.8167C61.2966 70.0052 61.4161 70.2665 61.4261 70.5431C61.4362 70.8197 61.3359 71.089 61.1475 71.2917C60.959 71.4944 60.6977 71.6139 60.4211 71.624C60.2964 71.6295 60.1712 71.6323 60.0456 71.6323Z" fill="#E8E7F0"/>
<path d="M92.3998 60.092C92.1657 60.0923 91.9385 60.0131 91.7553 59.8674C91.4299 59.6115 91.0892 59.3688 90.7415 59.147C90.5083 58.9981 90.3438 58.7627 90.2843 58.4925C90.2247 58.2223 90.2748 57.9395 90.4237 57.7064C90.5727 57.4732 90.8081 57.3087 91.0783 57.2491C91.3485 57.1895 91.6313 57.2397 91.8644 57.3886C92.2698 57.6479 92.6675 57.9309 93.0465 58.2299C93.2168 58.3642 93.341 58.5481 93.4018 58.7563C93.4627 58.9644 93.4572 59.1863 93.3861 59.3912C93.3149 59.596 93.1817 59.7736 93.0049 59.8992C92.8282 60.0248 92.6167 60.0922 92.3998 60.092Z" fill="#E8E7F0"/>
<path d="M74.7065 60.4735C74.4935 60.4736 74.2856 60.4085 74.1108 60.2869C73.9359 60.1654 73.8024 59.9932 73.7283 59.7936C73.6542 59.5939 73.6429 59.3763 73.6961 59.1701C73.7493 58.9639 73.8643 58.7789 74.0258 58.64C74.2575 58.4393 74.4965 58.2462 74.7426 58.0608C74.9633 57.8939 75.2412 57.8215 75.5152 57.8595C75.7892 57.8975 76.037 58.0428 76.2038 58.2635C76.3707 58.4841 76.4431 58.762 76.4051 59.036C76.3671 59.3101 76.2218 59.5578 76.0012 59.7247C75.7926 59.8832 75.584 60.0494 75.3865 60.2211C75.1973 60.3839 74.9561 60.4735 74.7065 60.4735Z" fill="#E8E7F0"/>
<path d="M105.463 70.2817C105.055 70.2818 104.648 70.2558 104.244 70.2038C103.973 70.1648 103.728 70.0206 103.562 69.8025C103.396 69.5843 103.323 69.3097 103.358 69.038C103.393 68.7663 103.534 68.5193 103.75 68.3503C103.965 68.1814 104.239 68.1042 104.511 68.1353C109.343 68.7555 113.423 64.4362 113.798 61.8594C113.815 61.7213 113.859 61.588 113.928 61.4672C113.997 61.3464 114.089 61.2407 114.2 61.1561C114.31 61.0716 114.437 61.01 114.571 60.975C114.706 60.94 114.846 60.9322 114.984 60.9522C115.121 60.9722 115.253 61.0195 115.373 61.0914C115.492 61.1632 115.595 61.2582 115.677 61.3706C115.759 61.4831 115.817 61.6108 115.849 61.7462C115.881 61.8816 115.885 62.0219 115.862 62.1591C115.352 65.6711 110.879 70.2817 105.463 70.2817Z" fill="#E8E7F0"/>
<path d="M106.444 58.1923C106.29 58.1927 106.138 58.1591 105.998 58.0938C105.859 58.0286 105.736 57.9333 105.638 57.8148C105.429 57.5526 105.204 57.3043 104.963 57.0715C104.857 56.9816 104.77 56.8716 104.708 56.7478C104.645 56.6241 104.608 56.4891 104.598 56.3508C104.589 56.2125 104.606 56.0736 104.651 55.9423C104.696 55.811 104.766 55.6899 104.858 55.5861C104.95 55.4822 105.061 55.3978 105.186 55.3376C105.311 55.2775 105.447 55.2428 105.585 55.2357C105.724 55.2286 105.862 55.2492 105.993 55.2963C106.123 55.3433 106.243 55.4159 106.345 55.5098C106.668 55.8119 106.969 56.1372 107.245 56.4833C107.371 56.6357 107.451 56.8209 107.476 57.0172C107.501 57.2135 107.47 57.4129 107.385 57.5921C107.301 57.7712 107.168 57.9227 107.001 58.0289C106.834 58.1351 106.64 58.1915 106.442 58.1916L106.444 58.1923Z" fill="#E8E7F0"/>
<path d="M124.501 81.8663C124.32 81.8662 124.143 81.8191 123.986 81.7297C123.829 81.6403 123.698 81.5116 123.605 81.3562C123.513 81.2009 123.463 81.0242 123.459 80.8435C123.456 80.6628 123.499 80.4843 123.585 80.3255L123.784 79.9633C123.942 79.6803 124.077 79.4376 124.213 79.1338C124.269 79.008 124.349 78.8944 124.448 78.7996C124.548 78.7048 124.665 78.6306 124.793 78.5812C124.921 78.5319 125.058 78.5084 125.196 78.5121C125.333 78.5158 125.468 78.5466 125.594 78.6028C125.719 78.659 125.832 78.7394 125.927 78.8394C126.021 78.9395 126.094 79.0571 126.143 79.1857C126.192 79.3143 126.214 79.4512 126.21 79.5886C126.206 79.7259 126.174 79.8611 126.117 79.9862C125.95 80.3603 125.784 80.6593 125.608 80.9757L125.419 81.3198C125.33 81.4852 125.197 81.6233 125.035 81.7195C124.874 81.8157 124.689 81.8664 124.501 81.8663Z" fill="#E8E7F0"/>
<path d="M116.061 116.867C115.627 116.876 115.195 116.811 114.783 116.675C114.651 116.631 114.53 116.561 114.426 116.469C114.322 116.377 114.238 116.265 114.177 116.14C114.117 116.015 114.083 115.879 114.076 115.741C114.068 115.602 114.089 115.464 114.136 115.333C114.183 115.203 114.256 115.083 114.35 114.981C114.444 114.879 114.557 114.797 114.684 114.739C114.81 114.681 114.946 114.649 115.085 114.645C115.223 114.641 115.362 114.664 115.491 114.714C115.985 114.816 116.496 114.803 116.985 114.676C117.119 114.644 117.259 114.64 117.395 114.663C117.532 114.686 117.662 114.735 117.779 114.809C117.896 114.883 117.997 114.98 118.077 115.093C118.156 115.206 118.212 115.334 118.241 115.469C118.271 115.604 118.273 115.744 118.248 115.88C118.223 116.016 118.171 116.146 118.095 116.262C118.02 116.378 117.922 116.477 117.807 116.555C117.693 116.632 117.564 116.686 117.428 116.714C116.979 116.813 116.521 116.864 116.061 116.867Z" fill="#E8E7F0"/>
<path d="M124.748 99.7602C124.535 99.7602 124.327 99.695 124.152 99.5735C123.977 99.4519 123.844 99.2798 123.77 99.0802C123.743 99.0107 123.718 98.9363 123.693 98.8591C123.63 98.6177 123.517 98.3921 123.362 98.1972C123.273 98.0923 123.205 97.9709 123.163 97.8398C123.121 97.7087 123.105 97.5707 123.117 97.4335C123.129 97.2964 123.167 97.1629 123.231 97.0407C123.294 96.9186 123.381 96.8102 123.487 96.7219C123.592 96.6335 123.714 96.5669 123.846 96.5259C123.977 96.4849 124.115 96.4703 124.252 96.4829C124.389 96.4956 124.522 96.5353 124.644 96.5996C124.766 96.664 124.873 96.7518 124.961 96.858C125.287 97.2525 125.53 97.7093 125.674 98.2006L125.727 98.3536C125.785 98.5114 125.805 98.681 125.784 98.8479C125.763 99.0149 125.701 99.1743 125.605 99.3125C125.509 99.4507 125.381 99.5636 125.232 99.6416C125.083 99.7195 124.917 99.7602 124.749 99.7602H124.748Z" fill="#E8E7F0"/>
<path d="M89.7718 127.425C89.6841 127.425 89.5967 127.414 89.5118 127.392C89.4019 127.363 89.2774 127.334 89.1467 127.304C88.7091 127.211 88.2788 127.088 87.859 126.934C87.7299 126.884 87.612 126.809 87.5123 126.713C87.4125 126.617 87.3328 126.502 87.2779 126.375C87.223 126.248 87.194 126.111 87.1924 125.972C87.1909 125.834 87.217 125.697 87.2691 125.568C87.3212 125.44 87.3983 125.324 87.4959 125.225C87.5936 125.127 87.7097 125.05 87.8377 124.997C87.9657 124.944 88.1029 124.917 88.2413 124.918C88.3798 124.919 88.5167 124.947 88.644 125.001C88.9656 125.112 89.2937 125.203 89.6265 125.273C89.7711 125.307 89.9088 125.343 90.0305 125.371C90.2771 125.434 90.4924 125.584 90.6358 125.795C90.7792 126.005 90.8408 126.26 90.809 126.513C90.7772 126.765 90.6542 126.997 90.4632 127.165C90.2721 127.333 90.0263 127.426 89.7718 127.425Z" fill="#E8E7F0"/>
<path d="M100.467 124.616C100.241 124.616 100.02 124.542 99.8391 124.406C99.6581 124.269 99.5265 124.078 99.4641 123.86C99.4017 123.642 99.412 123.41 99.4934 123.198C99.5748 122.987 99.7228 122.808 99.9151 122.688C100.471 122.337 100.963 121.895 101.37 121.379C101.456 121.272 101.562 121.184 101.683 121.118C101.803 121.052 101.935 121.011 102.071 120.996C102.207 120.982 102.345 120.994 102.476 121.032C102.608 121.071 102.73 121.135 102.837 121.221C102.944 121.307 103.033 121.413 103.098 121.533C103.164 121.653 103.205 121.785 103.22 121.922C103.235 122.058 103.222 122.196 103.184 122.327C103.145 122.458 103.081 122.581 102.995 122.688C102.442 123.386 101.773 123.985 101.019 124.459C100.853 124.562 100.662 124.616 100.467 124.616Z" fill="#E8E7F0"/>
<path d="M84.0264 137.609C83.7498 137.609 83.4845 137.499 83.2889 137.304C83.0933 137.108 82.9834 136.843 82.9834 136.566C82.9667 135.81 82.8714 135.058 82.699 134.322C82.3701 132.647 81.9592 130.561 82.3743 125.866C83.0279 118.496 88.8929 117.676 96.3188 116.638L97.5064 116.471C105.215 115.373 109.503 112.984 112.989 110.566C119.451 106.084 120.22 100.276 119.729 96.1851C119.655 95.5394 119.746 94.8856 119.994 94.2848C121.946 89.4016 121.192 85.6045 120.526 82.2559C120.355 81.3965 120.194 80.5871 120.089 79.7979C120.017 78.4071 120.046 77.0128 120.175 75.6261C120.364 72.3094 120.651 67.2976 119.742 65.6358C119.671 65.5154 119.625 65.382 119.606 65.2434C119.588 65.1048 119.597 64.9639 119.634 64.8291C119.671 64.6943 119.735 64.5683 119.822 64.4586C119.908 64.3489 120.016 64.2578 120.139 64.1907C120.262 64.1235 120.396 64.0817 120.536 64.0677C120.675 64.0537 120.815 64.0679 120.949 64.1093C121.082 64.1507 121.206 64.2186 121.313 64.3088C121.42 64.399 121.507 64.5098 121.57 64.6346C122.767 66.8199 122.485 71.7685 122.257 75.745C122.148 77.0005 122.114 78.2616 122.156 79.5212C122.253 80.2429 122.408 81.0231 122.573 81.8491C123.259 85.3041 124.113 89.6039 121.931 95.06C121.814 95.336 121.769 95.6373 121.801 95.9354C122.593 102.517 119.886 108.322 114.178 112.28C110.481 114.844 105.938 117.377 97.8012 118.538L96.6087 118.706C88.7413 119.805 84.9372 120.574 84.4526 126.049C84.0632 130.449 84.4415 132.373 84.746 133.92C84.9453 134.788 85.0536 135.675 85.0693 136.566C85.0693 136.843 84.9595 137.108 84.7639 137.304C84.5683 137.499 84.303 137.609 84.0264 137.609Z" fill="#E8E7F0"/>
<path d="M45.5984 104.348C45.5444 104.348 45.4905 104.344 45.4371 104.336C45.1639 104.294 44.9186 104.144 44.7552 103.921C44.5918 103.698 44.5238 103.419 44.5659 103.146C44.6301 102.663 44.7788 102.194 45.0053 101.762L45.0749 101.614C45.1934 101.364 45.4065 101.171 45.6671 101.078C45.9277 100.985 46.2145 101 46.4645 101.118C46.7144 101.237 46.907 101.45 47 101.71C47.0929 101.971 47.0784 102.258 46.9599 102.508L46.8813 102.671C46.7449 102.917 46.6587 103.189 46.6275 103.469C46.5886 103.714 46.4637 103.937 46.2751 104.098C46.0865 104.259 45.8466 104.348 45.5984 104.348Z" fill="#E8E7F0"/>
<path d="M91.5768 70.7493C91.3817 70.7493 91.1906 70.6945 91.0251 70.5912C90.8596 70.488 90.7263 70.3404 90.6405 70.1652C90.5547 69.99 90.5197 69.7943 90.5396 69.6002C90.5595 69.4061 90.6333 69.2215 90.7528 69.0674C91.0841 68.6379 91.3641 68.1712 91.5872 67.6767C91.6933 67.4212 91.8965 67.2182 92.1522 67.1124C92.4079 67.0067 92.6951 67.0068 92.9507 67.1128C93.2063 67.2189 93.4093 67.4221 93.5151 67.6778C93.6208 67.9335 93.6207 68.2208 93.5146 68.4764C93.2201 69.1413 92.8466 69.7683 92.4021 70.344C92.3047 70.4701 92.1796 70.5722 92.0365 70.6425C91.8935 70.7128 91.7362 70.7493 91.5768 70.7493Z" fill="#E8E7F0"/>
<path d="M96.7822 76.0797C96.8358 76.0874 96.8733 76.095 96.9213 76.1027C97.0298 76.0179 97.0708 75.9511 96.7822 76.0797Z" fill="#FF4A7A"/>
<path d="M110.35 89.8641C114.476 86.4641 113.025 83.8532 113.866 81.1839C116.498 72.8304 114.197 69.6083 111.363 68.3428C105.307 65.6262 99.5465 68.9846 100.15 77.8936C98.7121 76.4439 95.8767 75.9245 95.8767 75.9245L93.142 71.971C92.7529 71.4044 92.1775 70.9922 91.5158 70.806C90.8542 70.6199 90.1482 70.6717 89.5208 70.9523C85.901 72.5863 80.2182 73.0292 76.6082 70.6401C72.6351 68.5959 63.7553 66.4502 59.4221 69.2141C54.63 72.2734 54.3192 80.5059 60.9886 82.0342C61.5028 82.1493 62.0227 82.2373 62.5461 82.2977C58.4765 82.2463 54.9318 85.0011 53.9097 88.2413C53.3396 90.346 53.3564 92.5666 53.9582 94.6624C54.56 96.7583 55.7238 98.6495 57.3237 100.131C59.4791 102.107 62.1018 103.19 69.0112 101.007L69.0306 100.997C69.6985 102.423 70.5354 103.763 71.5233 104.989C69.019 103.839 66.3347 103.13 63.5891 102.894L63.5293 109.326C67.3111 110.23 68.3228 112.285 71.4747 114.199C76.4336 117.209 82.1825 117.006 87.601 113.522C88.6008 112.871 89.7681 112.525 90.9611 112.525C92.1542 112.525 93.3215 112.871 94.3212 113.522C95.0645 113.965 95.8876 114.256 96.7437 114.38C97.5997 114.505 98.4718 114.459 99.3101 114.246C102.221 113.62 102.161 111.714 104.461 108.22C105.782 106.223 110.844 107.018 114.398 104.077C120.492 99.0186 118.168 89.0228 110.35 89.8641Z" fill="#E8E7F0"/>
<path d="M62.4652 83.3214C63.565 83.4781 64.6772 83.5298 65.7867 83.4758C68.7293 83.4285 71.5036 83.3833 73.8176 86.6895C75.3473 88.8756 77.2517 91.5963 80.2353 91.8438C80.3851 91.8564 80.5355 91.8626 80.6866 91.8626C83.0569 91.8626 85.6685 90.3329 88.8558 87.0865C89.7768 86.1378 90.9391 85.4584 92.2177 85.1216C92.8102 84.9538 93.4368 84.9475 94.0325 85.1034C94.6283 85.2592 95.1715 85.5716 95.6059 86.0081C96.2932 86.7462 97.15 87.3057 98.1021 87.6383C99.0542 87.9708 100.073 88.0664 101.07 87.9167C102.053 87.7639 102.989 87.3978 103.815 86.8441C104.641 86.2905 105.335 85.5627 105.849 84.712C106.697 82.9109 107.227 80.9764 107.414 78.9945C107.707 76.9947 107.961 75.2669 109.095 74.3755C109.299 74.2005 109.427 73.9536 109.454 73.6862C109.48 73.4188 109.402 73.1516 109.236 72.9402C109.071 72.7288 108.829 72.5896 108.563 72.5515C108.298 72.5135 108.027 72.5795 107.809 72.736C106.021 74.1419 105.696 76.3516 105.352 78.692C105.196 80.4385 104.741 82.1452 104.008 83.7379C103.642 84.2976 103.164 84.775 102.604 85.1396C102.043 85.5043 101.413 85.7482 100.753 85.8558C100.077 85.9513 99.3872 85.8797 98.7448 85.647C98.1023 85.4144 97.5267 85.028 97.0682 84.5215C96.3861 83.8357 95.535 83.3421 94.601 83.0907C93.667 82.8393 92.6832 82.839 91.749 83.0899C90.0809 83.5129 88.563 84.3908 87.3644 85.6257C84.524 88.5196 82.1766 89.9102 80.4078 89.7649C78.5471 89.6105 77.1544 87.818 75.526 85.4929C72.5779 81.28 68.7967 81.3425 65.7527 81.3905C64.7775 81.4396 63.8 81.3987 62.8324 81.2681C62.5601 81.2194 62.2796 81.2807 62.0526 81.4388C61.8255 81.5968 61.6706 81.8386 61.6218 82.1109C61.573 82.3831 61.6344 82.6636 61.7925 82.8907C61.9505 83.1177 62.1923 83.2726 62.4645 83.3214H62.4652Z" fill="white"/>
<path d="M68.0072 90.6457C69.322 91.0371 71.1361 92.1121 72.3063 95.0136C73.1344 97.0662 74.4062 99.6215 76.4838 100.676C76.4147 100.891 76.4179 101.124 76.4927 101.338C76.5676 101.552 76.7101 101.735 76.8986 101.861C77.0872 101.987 77.3116 102.048 77.5378 102.034C77.764 102.021 77.9798 101.935 78.1525 101.788C80.4896 99.9107 83.2206 98.5856 86.1417 97.9117C90.6049 96.9744 92.1832 94.9865 93.229 92.8623C95.4575 93.9165 97.8956 94.4528 100.361 94.431C104.337 94.431 108.357 93.1321 111.146 90.6457C111.352 90.4613 111.477 90.2024 111.493 89.9259C111.508 89.6495 111.414 89.3781 111.229 89.1716C111.045 88.9651 110.786 88.8403 110.509 88.8246C110.233 88.809 109.962 88.9038 109.755 89.0882C106.263 92.199 99.3185 93.5722 94.0835 90.9544C94.18 90.7022 94.175 90.4224 94.0694 90.1739C93.9638 89.9254 93.766 89.7274 93.5175 89.6218C93.269 89.5162 92.9892 89.511 92.737 89.6074C92.4848 89.7038 92.2798 89.8943 92.1652 90.1388L91.944 90.6485C90.8649 93.1481 90.0855 94.9531 85.7147 95.8716C83.0673 96.4628 80.5555 97.5492 78.3117 99.0736C76.821 98.9345 75.5131 97.3895 74.2379 94.2335C73.0823 91.3681 71.0798 89.3844 68.6003 88.6467C67.5901 88.3523 66.53 88.2695 65.4863 88.4034C64.4426 88.5373 63.4377 88.8849 62.5344 89.4247C62.3434 89.1166 62.1829 88.7906 62.0553 88.4513C61.9584 88.1935 61.7634 87.9845 61.513 87.8699C61.2626 87.7554 60.977 87.7445 60.7186 87.8397C60.4602 87.9349 60.2499 88.1284 60.1336 88.3781C60.0174 88.6277 60.0046 88.9133 60.098 89.1723C60.3852 89.9518 61.0151 91.3048 62.0053 91.6156C62.2213 91.6851 62.4506 91.703 62.6748 91.668C62.899 91.633 63.1119 91.546 63.2965 91.414C63.9747 90.9428 64.7498 90.6293 65.5648 90.4964C66.3799 90.3634 67.2144 90.4145 68.0072 90.6457Z" fill="white"/>
<path d="M65.5291 76.2766C70.7509 76.2766 78.9487 80.5716 80.1474 83.9362C80.192 84.067 80.262 84.1876 80.3536 84.2911C80.4452 84.3946 80.5564 84.4788 80.6808 84.539C80.8052 84.5991 80.9403 84.6339 81.0782 84.6414C81.2162 84.6488 81.3543 84.6288 81.4844 84.5825C81.6146 84.5362 81.7343 84.4644 81.8365 84.3715C81.9387 84.2785 82.0214 84.1661 82.0798 84.0409C82.1382 83.9157 82.1712 83.7801 82.1768 83.6421C82.1824 83.504 82.1605 83.3662 82.1124 83.2367C81.9721 82.8556 81.7926 82.49 81.577 82.1458C82.8536 79.9389 85.1877 78.2673 88.2443 77.4211C92.1951 76.3253 96.6465 76.8551 99.5779 78.7693C99.6926 78.8442 99.821 78.8957 99.9556 78.9209C100.09 78.9461 100.229 78.9446 100.363 78.9164C100.497 78.8882 100.624 78.8338 100.737 78.7565C100.85 78.6791 100.947 78.5802 101.021 78.4655C101.096 78.3508 101.148 78.2224 101.173 78.0878C101.198 77.9532 101.197 77.8149 101.168 77.6808C101.14 77.5468 101.086 77.4196 101.008 77.3066C100.931 77.1935 100.832 77.0969 100.718 77.022C97.2507 74.7616 92.2563 74.1434 87.6846 75.4103C84.6728 76.1445 82.0183 77.9213 80.1912 80.4256C76.7703 76.9914 70.0438 74.1914 65.5264 74.1914C65.2498 74.1914 64.9845 74.3013 64.7889 74.4969C64.5933 74.6925 64.4834 74.9578 64.4834 75.2344C64.4834 75.511 64.5933 75.7763 64.7889 75.9719C64.9845 76.1675 65.2498 76.2773 65.5264 76.2773L65.5291 76.2766Z" fill="white"/>
<path d="M94.8656 112.577C93.9088 112.13 93.3004 110.651 92.8318 107.635C92.8127 107.498 92.7665 107.366 92.6959 107.247C92.6253 107.128 92.5318 107.025 92.4208 106.942C92.3097 106.86 92.1834 106.8 92.0491 106.767C91.9148 106.734 91.7752 106.727 91.6385 106.749C91.5019 106.77 91.3708 106.818 91.2529 106.891C91.135 106.963 91.0327 107.058 90.952 107.17C90.8712 107.283 90.8136 107.41 90.7826 107.545C90.7515 107.68 90.7475 107.819 90.7709 107.956C91.2743 111.198 92.0134 113.545 93.9818 114.467C94.1062 114.527 94.2414 114.563 94.3796 114.571C94.5178 114.578 94.6562 114.559 94.7867 114.513C94.9172 114.467 95.0373 114.395 95.1398 114.302C95.2424 114.209 95.3254 114.097 95.3841 113.971C95.4427 113.846 95.4758 113.71 95.4814 113.572C95.4871 113.433 95.4651 113.295 95.4169 113.166C95.3686 113.036 95.295 112.917 95.2004 112.816C95.1057 112.715 94.9919 112.634 94.8656 112.577Z" fill="white"/>
<path d="M111.646 94.1107C111.527 94.0421 111.396 93.9976 111.26 93.9797C111.124 93.9617 110.986 93.9708 110.854 94.0062C110.722 94.0417 110.598 94.1028 110.489 94.1863C110.38 94.2697 110.289 94.3738 110.22 94.4925C109.438 95.8462 107.189 96.7738 104.807 97.7549C102.055 98.8889 98.9849 100.156 97.175 102.503C96.8704 102.264 96.547 102.051 96.2078 101.864C94.9901 101.234 93.6462 100.885 92.2755 100.844C90.9049 100.803 89.5426 101.071 88.2896 101.628C87.1554 102.161 86.0542 102.76 84.9917 103.424C82.111 105.147 79.3924 106.772 75.6641 105.682C72.5839 104.778 70.9527 101.464 69.6413 98.7985C68.6373 96.7578 67.8439 95.1461 66.4783 94.8248C66.1391 94.7535 65.788 94.7612 65.4522 94.8473C65.1164 94.9334 64.805 95.0955 64.5419 95.3213C64.4288 95.4027 64.3332 95.506 64.2607 95.625C64.1882 95.744 64.1403 95.8763 64.1198 96.0141C64.0992 96.152 64.1066 96.2925 64.1413 96.4275C64.176 96.5624 64.2374 96.6891 64.3219 96.7999C64.4064 96.9107 64.5122 97.0035 64.6331 97.0727C64.7541 97.142 64.8877 97.1863 65.026 97.203C65.1643 97.2198 65.3046 97.2086 65.4386 97.1703C65.5726 97.1319 65.6975 97.067 65.806 96.9796C65.8683 96.9346 65.933 96.893 65.9999 96.8551C66.4213 96.9796 67.2327 98.6282 67.7695 99.7191C69.1831 102.591 71.1181 106.523 75.0786 107.683C76.039 107.969 77.0356 108.117 78.0379 108.121C81.2009 108.121 83.7513 106.596 86.0625 105.214C87.0529 104.593 88.0796 104.031 89.1372 103.533C90.0971 103.102 91.1416 102.893 92.1933 102.922C93.2449 102.95 94.2767 103.215 95.2121 103.696C95.7329 103.938 96.1906 104.296 96.5492 104.744C96.9077 105.193 97.1574 105.718 97.2786 106.279C97.3001 106.414 97.3481 106.544 97.4198 106.66C97.4915 106.777 97.5854 106.879 97.6963 106.959C97.8072 107.039 97.9329 107.097 98.0661 107.129C98.1993 107.161 98.3375 107.166 98.4728 107.145C98.6081 107.123 98.7378 107.075 98.8545 107.003C98.9712 106.932 99.0727 106.838 99.1531 106.727C99.2335 106.616 99.2913 106.49 99.3232 106.357C99.355 106.224 99.3603 106.086 99.3388 105.951C99.2267 105.283 98.9809 104.644 98.6164 104.073C100.019 101.987 102.852 100.819 105.602 99.6857C108.321 98.5649 110.887 97.5066 112.027 95.5382C112.096 95.4195 112.141 95.2884 112.159 95.1523C112.177 95.0163 112.168 94.878 112.133 94.7454C112.097 94.6128 112.036 94.4884 111.953 94.3795C111.869 94.2706 111.765 94.1793 111.646 94.1107Z" fill="white"/>
<defs>
<linearGradient id="paint0_linear_769_21016" x1="3.29358e-06" y1="24.1227" x2="137.678" y2="169.727" gradientUnits="userSpaceOnUse">
<stop stop-color="#F7F7F7"/>
<stop offset="1" stop-color="#E7E7E7"/>
</linearGradient>
</defs>
</svg>
