<svg width="160" height="160" viewBox="0 0 160 160" fill="none" xmlns="http://www.w3.org/2000/svg">
<g clip-path="url(#clip0_769_21001)">
<path d="M3.4276 156.572C8.00002 161.141 15.4138 161.141 19.9862 156.572L56.6655 119.893C67.331 127.338 80.2621 131.724 94.1379 131.724C130.269 131.724 160 101.993 160 65.8621C160 29.4862 130.514 0 94.1379 0C58.0069 0 28.2759 29.731 28.2759 65.8621C28.2759 79.7448 32.6655 92.6862 40.1241 103.355C39.9207 103.5 3.60416 139.837 3.4276 140.014C-1.13654 144.585 -1.14827 151.99 3.4276 156.572Z" fill="url(#paint0_linear_769_21001)"/>
<path d="M14.0478 129.393L30.6064 145.952L56.665 119.893C50.2306 115.397 44.6168 109.79 40.1237 103.355C39.9202 103.5 14.2244 129.217 14.0478 129.393Z" fill="#6E6F80"/>
<path d="M91.1975 18.6447C115.423 24.5271 135.449 44.5161 141.357 68.7319C143.991 79.525 159.883 77.6436 159.996 66.5343C160.374 29.6074 130.319 -0.414633 93.3913 0.00433243C82.2796 0.130195 80.3989 16.0226 91.1975 18.6447Z" fill="white" fill-opacity="0.4"/>
<path d="M65.135 57.3457C65.5408 55.8771 64.6794 54.3578 63.2108 53.9519L51.7694 50.7899C50.3029 50.384 48.7815 51.245 48.3756 52.714C47.9698 54.1826 48.8312 55.7019 50.2998 56.1078L61.7412 59.2699C63.207 59.6754 64.7288 58.8164 65.135 57.3457Z" fill="url(#paint1_linear_769_21001)"/>
<path d="M132.646 90.4898C133.472 89.2094 133.104 87.5022 131.824 86.676L123.969 81.607C122.688 80.7812 120.981 81.1488 120.155 82.4291C119.329 83.7094 119.697 85.4167 120.977 86.2429L128.832 91.3119C130.113 92.1384 131.82 91.7694 132.646 90.4898Z" fill="url(#paint2_linear_769_21001)"/>
<path d="M64.9301 94.8254L70.9887 89.6323C72.1456 88.6409 72.2794 86.8992 71.288 85.7426C70.2966 84.5861 68.5553 84.4519 67.3984 85.4433L61.3398 90.6364C60.1832 91.6278 60.0491 93.3695 61.0404 94.5261C62.0311 95.6819 63.7725 95.8171 64.9301 94.8254Z" fill="url(#paint3_linear_769_21001)"/>
<path d="M62.4763 56.6099C55.0028 82.5988 79.9735 106.172 105.421 97.3305C118.445 92.8064 127.79 80.4271 127.79 65.8616C127.79 47.4712 112.881 32.5547 94.4832 32.5547C79.3121 32.5547 66.4918 42.703 62.4763 56.6099Z" fill="url(#paint4_linear_769_21001)"/>
<path d="M108.641 106.588C110.08 106.088 110.841 104.515 110.34 103.077L104.964 87.6117C104.464 86.1727 102.893 85.4113 101.453 85.9113C100.014 86.4113 99.2531 87.9834 99.7531 89.4227L105.129 104.889C105.63 106.329 107.203 107.089 108.641 106.588Z" fill="url(#paint5_linear_769_21001)"/>
<path d="M84.9515 78.9661C80.4018 78.9661 76.7136 75.2779 76.7136 70.7282C76.7136 66.1785 80.4018 62.4902 84.9515 62.4902C89.5012 62.4902 93.1895 66.1785 93.1895 70.7282C93.1895 75.2779 89.5012 78.9661 84.9515 78.9661Z" fill="white" fill-opacity="0.2"/>
<path d="M100.916 33.1731C90.826 31.2234 86.2309 45.2403 95.4464 49.7872C102.159 53.0993 107.436 58.5548 110.593 64.9703C115.116 74.1658 129.14 69.44 127.162 59.3848C124.665 46.6962 114.645 35.8258 100.916 33.1731Z" fill="url(#paint6_linear_769_21001)"/>
<path d="M111.63 55.6759L130.792 40.3484C131.981 39.3966 132.174 37.6608 131.223 36.4711C130.271 35.2818 128.535 35.088 127.345 36.0401L108.183 51.3677C106.993 52.3194 106.8 54.0553 107.752 55.2449C108.703 56.4346 110.44 56.6277 111.63 55.6759Z" fill="url(#paint7_linear_769_21001)"/>
<path d="M82.8009 45.238C84.1264 44.4867 84.5923 42.8032 83.8413 41.4781L76.6758 28.8325C75.9244 27.5074 74.2416 27.0415 72.9158 27.7925C71.5903 28.5439 71.1247 30.2274 71.8758 31.5525L79.0409 44.1974C79.7923 45.5232 81.4754 45.9884 82.8009 45.238Z" fill="url(#paint8_linear_769_21001)"/>
<path d="M107.314 65.8905C107.314 67.9664 109.004 69.656 111.08 69.656C113.159 69.656 114.849 67.9664 114.849 65.8905C114.849 63.8147 113.159 62.125 111.08 62.125C109.004 62.1253 107.314 63.8147 107.314 65.8905Z" fill="white" fill-opacity="0.2"/>
<path d="M32.6099 110.831C32.7823 111.176 38.7068 120.085 49.165 127.393L56.665 119.893C50.2306 115.397 44.6168 109.79 40.1237 103.355C39.9202 103.5 32.7871 110.654 32.6099 110.831Z" fill="#585966"/>
</g>
<defs>
<linearGradient id="paint0_linear_769_21001" x1="80.0122" y1="1.67252" x2="80.0122" y2="135.435" gradientUnits="userSpaceOnUse">
<stop stop-color="#C7E4FF"/>
<stop offset="1" stop-color="#DEEFFF"/>
</linearGradient>
<linearGradient id="paint1_linear_769_21001" x1="56.7612" y1="50.7804" x2="56.7612" y2="58.0376" gradientUnits="userSpaceOnUse">
<stop stop-color="#FF8EA2"/>
<stop offset="1" stop-color="#FFA6AD"/>
</linearGradient>
<linearGradient id="paint2_linear_769_21001" x1="126.405" y1="81.2769" x2="126.405" y2="90.1278" gradientUnits="userSpaceOnUse">
<stop stop-color="#FF8EA2"/>
<stop offset="1" stop-color="#FFA6AD"/>
</linearGradient>
<linearGradient id="paint3_linear_769_21001" x1="66.1683" y1="84.8915" x2="66.1683" y2="93.8451" gradientUnits="userSpaceOnUse">
<stop stop-color="#FF8EA2"/>
<stop offset="1" stop-color="#FFA6AD"/>
</linearGradient>
<linearGradient id="paint4_linear_769_21001" x1="94.4108" y1="33.273" x2="94.4108" y2="88.978" gradientUnits="userSpaceOnUse">
<stop stop-color="#FA7188"/>
<stop offset="1" stop-color="#FF8EA2"/>
</linearGradient>
<linearGradient id="paint5_linear_769_21001" x1="105.051" y1="85.9776" x2="105.051" y2="103.521" gradientUnits="userSpaceOnUse">
<stop stop-color="#FF8EA2"/>
<stop offset="1" stop-color="#FFA6AD"/>
</linearGradient>
<linearGradient id="paint6_linear_769_21001" x1="108.922" y1="33.3748" x2="108.922" y2="64.2296" gradientUnits="userSpaceOnUse">
<stop stop-color="#FF8EA2"/>
<stop offset="1" stop-color="#FFA6AD"/>
</linearGradient>
<linearGradient id="paint7_linear_769_21001" x1="119.496" y1="35.6538" x2="119.496" y2="53.0804" gradientUnits="userSpaceOnUse">
<stop stop-color="#FF8EA2"/>
<stop offset="1" stop-color="#FFA6AD"/>
</linearGradient>
<linearGradient id="paint8_linear_769_21001" x1="77.8629" y1="27.6238" x2="77.8629" y2="42.8084" gradientUnits="userSpaceOnUse">
<stop stop-color="#FF8EA2"/>
<stop offset="1" stop-color="#FFA6AD"/>
</linearGradient>
<clipPath id="clip0_769_21001">
<rect width="160" height="160" fill="white" transform="matrix(-1 0 0 1 160 0)"/>
</clipPath>
</defs>
</svg>
