<svg width="160" height="160" viewBox="0 0 160 160" fill="none" xmlns="http://www.w3.org/2000/svg">
<path d="M110.695 15.2998C109.075 16.9235 106.834 17.9267 104.359 17.9267H103.669C103.669 17.9891 103.672 102.245 103.735 102.245C103.804 139.91 103.693 139.553 101.666 144.383L101.663 144.386C98.637 151.536 92.4806 156.699 86.3217 158.621H86.3183C69.6657 164.288 52.647 151.757 52.647 134.451V17.9267H51.9575C47.007 17.9267 42.9941 13.9139 42.9941 8.96337C42.9941 4.01697 47.007 0 51.9575 0H104.359C112.369 0 116.294 9.71285 110.695 15.2998Z" fill="url(#paint0_linear_769_20990)"/>
<path d="M74.587 159.714C62.181 157.978 52.6475 147.328 52.6475 134.451V26.8906H66.782V141.346C66.7817 148.579 69.8751 155.288 74.587 159.714Z" fill="white" fill-opacity="0.4"/>
<path d="M103.669 47.5739C103.669 141.49 104.357 137.875 101.666 144.382L101.662 144.385C94.5644 161.172 72.8123 165.185 60.1171 152.49C55.501 147.874 52.6465 141.496 52.6465 134.45V47.5739C60.6997 43.6576 70.1044 43.6576 78.1576 47.5739C86.2109 51.4903 95.6159 51.4903 103.669 47.5739Z" fill="url(#paint1_linear_769_20990)"/>
<path d="M104.475 9.19332C97.3116 9.19332 84.2665 9.19435 60.4618 9.19435C57.0785 9.19435 54.1209 11.0763 52.5972 13.855C51.0272 16.7177 47.0685 17.1542 45.0059 14.6234C40.2874 8.83375 44.3671 0 51.957 0H104.358C110.849 0 110.424 9.19366 104.475 9.19332Z" fill="white" fill-opacity="0.4"/>
<path d="M103.669 17.9258H52.6465V26.8892H103.669V17.9258Z" fill="#B8DCFF"/>
<path d="M54.5053 144.029C53.307 141.071 52.6475 137.838 52.6475 134.451V47.5748C57.0981 45.4098 61.9625 44.441 66.782 44.672V141.345C66.7817 148.91 57.094 150.418 54.5053 144.029Z" fill="#FFA2AB"/>
<path opacity="0.2" d="M68.16 76.1896C68.16 77.7134 66.9258 78.9476 65.402 78.9476H52.9912V73.4316H65.402C66.9258 73.4316 68.16 74.6658 68.16 76.1896Z" fill="#FEFEFE"/>
<path opacity="0.2" d="M68.16 110.662C68.16 112.186 66.9258 113.42 65.402 113.42H52.9912V107.904H65.402C66.9258 107.904 68.16 109.138 68.16 110.662Z" fill="#FEFEFE"/>
<path d="M93.3503 115.593C93.3965 115.533 98.5594 108.897 101.603 104.984C102.707 103.565 104.852 103.565 105.957 104.985L114.208 115.593C120.965 124.286 114.715 136.915 103.779 136.915C92.8267 136.915 86.6064 124.27 93.3503 115.593Z" fill="url(#paint2_linear_769_20990)"/>
<path opacity="0.2" d="M98.0932 131.188C98.7424 133.215 96.212 134.744 94.671 133.275C89.758 128.595 89.1847 120.954 93.3513 115.593C93.3978 115.533 98.5607 108.897 101.604 104.984C102.708 103.565 104.853 103.565 105.957 104.985L107.581 107.073C108.162 107.82 108.162 108.866 107.58 109.613L100.246 119.04C97.5151 122.554 96.7894 127.118 98.0932 131.188Z" fill="#FEFEFE"/>
<defs>
<linearGradient id="paint0_linear_769_20990" x1="78.1532" y1="1.67253" x2="78.1532" y2="135.436" gradientUnits="userSpaceOnUse">
<stop stop-color="#C7E4FF"/>
<stop offset="1" stop-color="#DEEFFF"/>
</linearGradient>
<linearGradient id="paint1_linear_769_20990" x1="78.2354" y1="45.8792" x2="78.2354" y2="142.234" gradientUnits="userSpaceOnUse">
<stop stop-color="#FA7188"/>
<stop offset="1" stop-color="#FF8EA2"/>
</linearGradient>
<linearGradient id="paint2_linear_769_20990" x1="103.8" y1="104.275" x2="103.8" y2="131.844" gradientUnits="userSpaceOnUse">
<stop stop-color="#FA7188"/>
<stop offset="1" stop-color="#FF8EA2"/>
</linearGradient>
</defs>
</svg>
