<svg width="240" height="240" viewBox="0 0 240 240" fill="none" xmlns="http://www.w3.org/2000/svg">
<path d="M49.4814 144.922V157.142C55.9601 155.521 62.7271 155.43 69.2471 156.875L68.716 140.785C61.3133 140.243 54.8268 140.781 49.4814 144.922Z" fill="#FF8DA1"/>
<path d="M144.528 46.6094C142.352 55.8253 136.092 60.5966 129.042 63.1094L146.726 74.2812C157.602 69.4412 156.523 53.0667 157.118 47.2608L144.528 46.6094Z" fill="#FB768C"/>
<path d="M220.521 83.0674C228.35 66.3457 220.598 57.9926 222.833 49.8818C231.095 19.8879 189.661 4.38477 172.291 25.5512C162.625 17.0468 142.933 18.3376 136.818 30.4393C131.091 26.7732 124.175 26.3143 117.396 26.4587C110.564 26.6099 103.019 28.0365 97.4446 31.9845C92.3485 22.442 74.7571 14.7076 62.157 25.5941C56.9216 20.6063 47.6868 17.9062 39.0346 18.5731C34.6522 19.0015 30.4494 20.5314 26.8171 23.0205C23.1849 25.5096 20.2412 28.877 18.2601 32.8095C14.0955 41.7229 14.5201 52.4032 18.9871 63.637C14.1505 72.3768 10.6151 91.2005 19.9187 100.808C13.5851 108.725 9.65602 131.12 23.8323 141.768C21.1871 159.725 27.8095 171.286 34.5109 175.579C41.061 179.787 51.676 180.823 58.8552 172.864C64.3862 166.746 65.6185 144.764 56.9423 136.069C60.0223 129.584 60.0601 115.787 49.6066 106.379C55.4418 97.1835 58.4118 81.6821 49.6066 71.4882C53.1198 65.916 52.666 66.332 52.623 59.8282C56.8959 64.2093 72.5107 63.7813 84.1312 61.1826C91.2041 59.7178 98.5557 60.447 105.203 63.2726C110.518 65.3779 116.29 66.0652 121.951 65.267C127.612 64.4688 132.969 62.2126 137.495 58.7196C150.704 67.2756 163.575 64.0752 169.099 57.159C178.513 57.9582 182.454 54.3574 185.835 52.3877C184.317 63.5596 187.268 76.4176 193.904 82.9901C184.709 95.3943 183.389 113.711 191.024 123.905L191.044 123.926C184.474 130.151 181.479 140.426 182.196 149.475C173.695 148.521 153.684 152.455 147.589 164.839C132.679 160.636 101.87 162.79 100.585 193.586C100.263 201.335 101.8 206.821 103.385 212.929C104.118 215.958 105.802 218.673 108.188 220.677C110.575 222.681 113.54 223.869 116.65 224.069C118.558 224.14 120.46 223.825 122.243 223.142C124.026 222.46 125.653 221.425 127.026 220.098C128.399 218.772 129.49 217.181 130.234 215.423C130.977 213.664 131.357 211.774 131.352 209.865C131.29 206.113 131.857 202.378 133.03 198.813C137.675 199.702 142.46 199.54 147.035 198.339C151.61 197.138 155.858 194.929 159.467 191.873C177.621 199.092 193.671 193.592 200.848 172.398C219 169.275 226.645 146.981 219.488 130.433C228.162 117.955 228.09 91.5907 220.521 83.0674Z" fill="#FFA6AD"/>
<path d="M50.2583 202.684C49.7227 202.684 49.2004 202.517 48.7646 202.206C48.3287 201.895 48.0012 201.455 47.828 200.948C47.7231 200.647 45.3392 193.418 47.6063 178.109C49.9231 164.425 39.4009 146.682 34.7706 139.687C33.9571 138.478 33.3993 137.116 33.1315 135.684C32.8637 134.252 32.8916 132.78 33.2134 131.359C35.5269 121.669 33.3647 108.577 32.648 104.796C32.4118 103.546 32.4706 102.258 32.8198 101.035C35.3498 91.9259 35.1453 81.1116 33.5073 76.33C32.6069 73.644 32.7919 70.7123 34.023 68.1608C35.2261 65.605 36.8538 62.1039 37.8197 51.7381C37.8486 51.3991 37.9443 51.0692 38.1013 50.7673C38.2583 50.4654 38.4735 50.1976 38.7346 49.9794C38.9956 49.7611 39.2972 49.5966 39.6221 49.4955C39.9469 49.3943 40.2886 49.3585 40.6274 49.39C40.9662 49.4215 41.2954 49.5198 41.596 49.6792C41.8967 49.8385 42.1628 50.0558 42.379 50.3185C42.5953 50.5813 42.7574 50.8842 42.856 51.2098C42.9546 51.5355 42.9878 51.8774 42.9536 52.216C41.9877 62.6144 40.3892 66.7188 38.7031 70.3453C38.0428 71.6858 37.9305 73.2307 38.3903 74.6525C40.5972 81.0789 40.3377 93.2734 37.7991 102.419C37.6633 102.878 37.6368 103.362 37.7217 103.833C38.7031 109.007 40.7175 122.162 38.2373 132.555C38.0785 133.289 38.0712 134.048 38.216 134.785C38.3608 135.522 38.6547 136.221 39.0795 136.84C44.0484 144.346 55.3217 163.481 52.7058 178.917C50.6588 192.746 52.7058 199.233 52.7213 199.296C52.8495 199.684 52.8838 200.097 52.8212 200.501C52.7586 200.904 52.601 201.288 52.3613 201.618C52.1216 201.949 51.8067 202.218 51.4425 202.404C51.0784 202.589 50.6754 202.685 50.2669 202.684H50.2583Z" fill="#FF8F95"/>
<path d="M118.652 50.0161C104.129 49.8043 89.6267 48.8226 75.2072 47.0754L71.9588 46.7316C65.5994 46.0664 60.9897 42.8747 56.1068 39.4957C50.8749 35.876 45.4677 32.1343 37.2383 31.2938C36.558 31.2254 35.9327 30.8896 35.4999 30.3601C35.0672 29.8307 34.8625 29.1511 34.9309 28.4707C34.9993 27.7904 35.3351 27.1651 35.8645 26.7324C36.394 26.2996 37.0736 26.0949 37.7539 26.1633C47.3033 27.1379 53.5355 31.4519 59.0338 35.2555C63.5455 38.3785 67.4436 41.0752 72.4882 41.6029L75.7624 41.9569C90.1397 43.5296 128.327 47.7061 146.893 41.7129C151.018 40.3825 155.143 38.98 159.187 37.6068C176.216 31.8146 190.915 26.8182 200.703 28.3908C201.379 28.5 201.983 28.8729 202.383 29.4274C202.783 29.982 202.946 30.6728 202.837 31.3479C202.728 32.023 202.355 32.6271 201.801 33.0273C201.246 33.4275 200.555 33.5909 199.88 33.4818C191.379 32.1068 176.543 37.1496 160.847 42.4863C156.776 43.8716 152.628 45.281 148.472 46.6216C140.592 49.1602 129.796 50.0161 118.652 50.0161Z" fill="#FF8F95"/>
<path d="M65.4037 32.6163C64.9287 32.6158 64.463 32.4841 64.0581 32.2357C63.6532 31.9873 63.3248 31.6319 63.1092 31.2086C62.3713 29.8029 61.4263 28.5161 60.3059 27.3913C59.8377 26.8996 59.5823 26.2431 59.5952 25.5642C59.6081 24.8854 59.8883 24.239 60.3749 23.7655C60.8616 23.292 61.5153 23.0296 62.1943 23.0352C62.8732 23.0409 63.5225 23.3141 64.0012 23.7956C65.4824 25.2918 66.7309 27.0014 67.7051 28.8677C67.9054 29.2606 68.0014 29.6984 67.9842 30.1391C67.9669 30.5798 67.8368 31.0087 67.6065 31.3848C67.3761 31.7609 67.0531 32.0716 66.6683 32.2872C66.2836 32.5028 65.8499 32.6161 65.4089 32.6163H65.4037Z" fill="#FF8F95"/>
<path d="M19.5462 67.4781C19.0447 67.4778 18.5543 67.3314 18.1348 67.0566C17.7154 66.7819 17.3852 66.3908 17.1846 65.9312C16.9887 65.4895 16.803 65.0478 16.6208 64.6061C16.4862 64.2921 16.4153 63.9546 16.4122 63.613C16.4091 63.2715 16.474 62.9327 16.6029 62.6164C16.7319 62.3001 16.9225 62.0126 17.1635 61.7706C17.4045 61.5285 17.6913 61.3368 18.007 61.2066C18.3228 61.0763 18.6613 61.0101 19.0028 61.0117C19.3444 61.0134 19.6823 61.0829 19.9967 61.2163C20.3112 61.3496 20.596 61.5442 20.8347 61.7885C21.0733 62.0329 21.2611 62.3223 21.3869 62.6398C21.5588 63.0437 21.7307 63.4493 21.9026 63.8532C22.1779 64.4791 22.1933 65.1887 21.9454 65.826C21.6976 66.4632 21.2067 66.9759 20.5808 67.2512C20.2556 67.3985 19.9031 67.4758 19.5462 67.4781Z" fill="#FF8F95"/>
<path d="M25.311 107.432C24.9324 107.432 24.5586 107.348 24.2161 107.186C21.8798 106.054 19.78 104.488 18.0286 102.571C17.7917 102.325 17.6061 102.035 17.4825 101.716C17.3588 101.398 17.2997 101.058 17.3085 100.717C17.3172 100.376 17.3938 100.039 17.5336 99.7277C17.6734 99.4161 17.8738 99.1354 18.123 98.9019C18.3722 98.6683 18.6654 98.4867 18.9854 98.3674C19.3054 98.2481 19.6459 98.1936 19.9872 98.2071C20.3285 98.2205 20.6637 98.3016 20.9733 98.4457C21.283 98.5898 21.5609 98.7939 21.791 99.0463C23.0972 100.485 24.6643 101.664 26.4093 102.52C26.9403 102.769 27.3706 103.192 27.6289 103.718C27.8873 104.245 27.9583 104.844 27.8303 105.417C27.7024 105.989 27.383 106.501 26.9249 106.867C26.4669 107.234 25.8976 107.433 25.311 107.432Z" fill="#FF8F95"/>
<path d="M59.5495 63.474C43.6769 63.474 32.2472 48.6928 29.1414 37.9471C29.0474 37.6218 29.0184 37.2811 29.056 36.9445C29.0937 36.6079 29.1973 36.2821 29.3609 35.9855C29.5245 35.689 29.7448 35.4276 30.0095 35.2162C30.2741 35.0049 30.5777 34.8477 30.9031 34.7537C31.2285 34.6597 31.5692 34.6307 31.9057 34.6683C32.2423 34.706 32.5681 34.8096 32.8647 34.9732C33.1612 35.1368 33.4226 35.3572 33.634 35.6218C33.8454 35.8864 34.0025 36.19 34.0965 36.5154C36.7967 45.8585 46.7483 58.7956 60.2903 58.2971C60.9741 58.2723 61.6397 58.5201 62.1407 58.986C62.6418 59.4519 62.9372 60.0978 62.9621 60.7816C62.9869 61.4653 62.7391 62.131 62.2732 62.632C61.8073 63.1331 61.1614 63.4285 60.4776 63.4534C60.1694 63.4671 59.86 63.474 59.5495 63.474Z" fill="#FF8F95"/>
<path d="M139.528 34.9472C138.95 34.948 138.388 34.7523 137.935 34.3921C137.131 33.7596 136.288 33.1597 135.429 32.6115C134.853 32.2434 134.446 31.6614 134.299 30.9935C134.152 30.3256 134.276 29.6266 134.644 29.0502C135.012 28.4738 135.594 28.0672 136.262 27.9199C136.929 27.7726 137.628 27.8966 138.205 28.2647C139.207 28.9058 140.19 29.6054 141.127 30.3444C141.548 30.6762 141.855 31.131 142.005 31.6455C142.156 32.16 142.142 32.7085 141.966 33.2149C141.79 33.7212 141.461 34.1602 141.024 34.4707C140.587 34.7811 140.064 34.9477 139.528 34.9472Z" fill="#FF8F95"/>
<path d="M95.7911 35.8904C95.2647 35.8906 94.7508 35.7296 94.3185 35.4292C93.8863 35.1287 93.5563 34.7031 93.3731 34.2096C93.1899 33.716 93.1621 33.1782 93.2936 32.6685C93.425 32.1587 93.7094 31.7014 94.1085 31.358C94.6814 30.8619 95.272 30.3846 95.8805 29.9263C96.4259 29.5138 97.1129 29.3348 97.7902 29.4288C98.4676 29.5227 99.0799 29.8819 99.4924 30.4273C99.905 30.9727 100.084 31.6597 99.99 32.3371C99.896 33.0144 99.5368 33.6267 98.9914 34.0393C98.4758 34.4312 97.9602 34.8419 97.472 35.2665C97.0044 35.6689 96.408 35.8902 95.7911 35.8904Z" fill="#FF8F95"/>
<path d="M171.818 60.1333C170.811 60.1335 169.805 60.0692 168.806 59.9408C168.135 59.8443 167.53 59.4879 167.12 58.9487C166.71 58.4094 166.529 57.7306 166.616 57.0589C166.703 56.3873 167.05 55.7767 167.583 55.3591C168.117 54.9416 168.793 54.7506 169.466 54.8275C181.409 56.3606 191.496 45.6838 192.423 39.3141C192.464 38.9728 192.573 38.6431 192.744 38.3446C192.914 38.0461 193.143 37.7846 193.416 37.5757C193.689 37.3668 194.001 37.2145 194.333 37.128C194.666 37.0414 195.013 37.0223 195.353 37.0717C195.693 37.1211 196.02 37.238 196.314 37.4157C196.609 37.5933 196.865 37.828 197.067 38.1059C197.269 38.3839 197.414 38.6995 197.492 39.0342C197.571 39.3689 197.582 39.7159 197.524 40.0549C196.264 48.7363 185.208 60.1333 171.818 60.1333Z" fill="#FF8F95"/>
<path d="M174.242 30.2513C173.861 30.2523 173.485 30.1691 173.141 30.0078C172.797 29.8464 172.492 29.6109 172.25 29.318C171.734 28.67 171.176 28.0562 170.581 27.4807C170.32 27.2585 170.106 26.9865 169.951 26.6806C169.796 26.3747 169.704 26.0411 169.68 25.6992C169.656 25.3573 169.7 25.014 169.81 24.6894C169.921 24.3648 170.094 24.0655 170.321 23.8088C170.549 23.5522 170.825 23.3434 171.133 23.1947C171.442 23.046 171.778 22.9604 172.12 22.9428C172.462 22.9253 172.805 22.9762 173.127 23.0925C173.449 23.2088 173.745 23.3883 173.998 23.6203C174.797 24.367 175.54 25.1713 176.222 26.0266C176.534 26.4033 176.732 26.8611 176.794 27.3464C176.856 27.8318 176.778 28.3246 176.57 28.7675C176.362 29.2103 176.032 29.5848 175.619 29.8472C175.206 30.1097 174.727 30.2492 174.238 30.2496L174.242 30.2513Z" fill="#FF8F95"/>
<path d="M218.88 88.7689C218.433 88.7686 217.994 88.6522 217.606 88.4311C217.218 88.2101 216.894 87.892 216.666 87.5079C216.437 87.1239 216.313 86.6872 216.304 86.2406C216.296 85.7939 216.403 85.3527 216.616 84.9602L217.108 84.0647C217.498 83.3652 217.832 82.7653 218.168 82.0142C218.306 81.7033 218.503 81.4226 218.749 81.1882C218.995 80.9539 219.285 80.7704 219.602 80.6484C219.919 80.5264 220.257 80.4684 220.597 80.4775C220.936 80.4866 221.271 80.5628 221.581 80.7017C221.891 80.8405 222.171 81.0393 222.404 81.2866C222.637 81.5339 222.818 81.8248 222.939 82.1426C223.059 82.4604 223.115 82.7988 223.104 83.1384C223.093 83.478 223.015 83.8121 222.874 84.1214C222.46 85.0461 222.051 85.7852 221.616 86.5672L221.149 87.418C220.927 87.8268 220.6 88.1681 220.2 88.4059C219.801 88.6438 219.345 88.7692 218.88 88.7689Z" fill="#FF8F95"/>
<path d="M198.017 175.289C196.944 175.312 195.876 175.152 194.856 174.817C194.532 174.707 194.232 174.533 193.975 174.306C193.718 174.079 193.51 173.802 193.361 173.494C193.212 173.185 193.126 172.849 193.109 172.507C193.091 172.164 193.142 171.822 193.259 171.499C193.375 171.177 193.555 170.881 193.787 170.628C194.02 170.376 194.3 170.173 194.612 170.03C194.924 169.888 195.261 169.809 195.604 169.798C195.946 169.787 196.288 169.845 196.608 169.968C197.829 170.222 199.093 170.189 200.3 169.874C200.633 169.796 200.978 169.785 201.315 169.842C201.652 169.898 201.975 170.022 202.264 170.204C202.553 170.387 202.803 170.625 202.999 170.905C203.195 171.185 203.334 171.501 203.406 171.836C203.479 172.17 203.485 172.515 203.423 172.851C203.361 173.188 203.232 173.508 203.045 173.794C202.858 174.081 202.616 174.327 202.333 174.519C202.05 174.71 201.731 174.844 201.396 174.911C200.287 175.157 199.154 175.284 198.017 175.289Z" fill="#FF8F95"/>
<path d="M219.488 133.005C218.962 133.005 218.448 132.844 218.016 132.543C217.584 132.243 217.254 131.817 217.071 131.324C217.006 131.152 216.944 130.968 216.881 130.777C216.726 130.18 216.447 129.623 216.062 129.141C215.842 128.882 215.675 128.582 215.571 128.258C215.467 127.934 215.429 127.592 215.457 127.253C215.486 126.914 215.582 126.584 215.738 126.282C215.895 125.98 216.11 125.713 216.371 125.494C216.632 125.276 216.933 125.111 217.258 125.01C217.583 124.908 217.925 124.872 218.263 124.904C218.602 124.935 218.931 125.033 219.232 125.192C219.533 125.351 219.799 125.568 220.016 125.831C220.822 126.806 221.421 127.935 221.777 129.15L221.908 129.528C222.053 129.918 222.101 130.337 222.049 130.75C221.997 131.162 221.846 131.556 221.609 131.898C221.371 132.24 221.055 132.519 220.686 132.711C220.317 132.904 219.907 133.005 219.491 133.005H219.488Z" fill="#FF8F95"/>
<path d="M133.031 201.387C132.815 201.387 132.599 201.359 132.389 201.305C132.117 201.234 131.809 201.162 131.486 201.086C130.405 200.859 129.341 200.553 128.303 200.172C127.984 200.049 127.693 199.863 127.446 199.626C127.199 199.388 127.002 199.104 126.867 198.79C126.731 198.476 126.659 198.138 126.655 197.796C126.652 197.454 126.716 197.114 126.845 196.797C126.974 196.48 127.164 196.192 127.406 195.949C127.647 195.707 127.934 195.515 128.25 195.384C128.567 195.254 128.906 195.188 129.248 195.189C129.59 195.191 129.929 195.262 130.244 195.396C131.038 195.67 131.85 195.894 132.672 196.068C133.03 196.152 133.37 196.24 133.671 196.31C134.28 196.465 134.813 196.837 135.167 197.356C135.521 197.876 135.674 198.507 135.595 199.131C135.517 199.755 135.213 200.329 134.74 200.745C134.268 201.16 133.66 201.389 133.031 201.387Z" fill="#FF8F95"/>
<path d="M159.47 194.444C158.91 194.445 158.365 194.262 157.917 193.925C157.47 193.588 157.144 193.115 156.99 192.576C156.836 192.038 156.861 191.463 157.063 190.941C157.264 190.418 157.63 189.975 158.105 189.678C159.479 188.812 160.696 187.718 161.702 186.444C161.915 186.18 162.177 185.961 162.474 185.798C162.771 185.636 163.098 185.534 163.434 185.497C163.771 185.461 164.112 185.491 164.436 185.587C164.761 185.682 165.064 185.84 165.328 186.053C165.592 186.265 165.811 186.527 165.974 186.824C166.136 187.122 166.238 187.448 166.275 187.785C166.311 188.121 166.281 188.462 166.185 188.787C166.09 189.112 165.932 189.415 165.719 189.678C164.351 191.405 162.699 192.885 160.833 194.056C160.424 194.31 159.951 194.445 159.47 194.444Z" fill="#FF8F95"/>
<path d="M118.83 226.562C118.146 226.562 117.49 226.29 117.007 225.807C116.524 225.323 116.252 224.668 116.252 223.984C116.211 222.116 115.975 220.257 115.549 218.438C114.736 214.295 113.72 209.139 114.746 197.534C116.362 179.315 130.86 177.291 149.216 174.723L152.151 174.31C171.205 171.596 181.805 165.691 190.423 159.715C206.397 148.636 208.298 134.277 207.083 124.166C206.901 122.57 207.127 120.954 207.739 119.468C212.564 107.398 210.701 98.0116 209.054 89.7341C208.631 87.6097 208.234 85.6091 207.975 83.6583C207.797 80.2202 207.867 76.7737 208.186 73.3458C208.654 65.1474 209.362 52.7586 207.115 48.6508C206.94 48.3532 206.825 48.0233 206.78 47.6807C206.734 47.3382 206.758 46.9899 206.849 46.6566C206.941 46.3234 207.099 46.0119 207.313 45.7408C207.527 45.4697 207.794 45.2445 208.097 45.0785C208.4 44.9125 208.734 44.8092 209.078 44.7746C209.421 44.7401 209.769 44.775 210.099 44.8774C210.429 44.9798 210.735 45.1475 210.999 45.3705C211.263 45.5936 211.48 45.8674 211.636 46.1758C214.594 51.5778 213.896 63.8102 213.334 73.6397C213.063 76.7434 212.979 79.8605 213.083 82.9743C213.323 84.7583 213.707 86.6868 214.114 88.7286C215.809 97.2691 217.921 107.898 212.528 121.385C212.238 122.067 212.127 122.812 212.205 123.549C214.164 139.818 207.473 154.167 193.362 163.951C184.223 170.29 172.995 176.55 152.88 179.42L149.933 179.836C130.485 182.552 121.082 184.453 119.884 197.988C118.921 208.862 119.856 213.62 120.609 217.442C121.101 219.589 121.369 221.782 121.408 223.984C121.408 224.668 121.137 225.323 120.653 225.807C120.17 226.29 119.514 226.562 118.83 226.562Z" fill="#FF8F95"/>
<path d="M23.8374 144.347C23.7039 144.346 23.5706 144.336 23.4386 144.316C22.7631 144.211 22.1568 143.843 21.753 143.291C21.3492 142.74 21.1808 142.05 21.285 141.375C21.4436 140.18 21.8113 139.022 22.3713 137.955L22.5431 137.587C22.8363 136.969 23.3628 136.493 24.007 136.263C24.6512 136.033 25.3602 136.069 25.9781 136.362C26.596 136.655 27.0721 137.182 27.3018 137.826C27.5314 138.47 27.4958 139.179 27.2027 139.797L27.0085 140.199C26.6714 140.809 26.4582 141.48 26.3811 142.172C26.285 142.778 25.9761 143.33 25.5099 143.728C25.0437 144.127 24.4507 144.346 23.8374 144.347Z" fill="#FF8F95"/>
<path d="M137.493 61.2914C137.011 61.2912 136.539 61.1558 136.129 60.9006C135.72 60.6453 135.391 60.2805 135.179 59.8475C134.967 59.4144 134.88 58.9306 134.929 58.4509C134.978 57.9712 135.161 57.5148 135.457 57.1337C136.275 56.0721 136.968 54.9184 137.519 53.6962C137.781 53.0644 138.284 52.5627 138.916 52.3012C139.548 52.0398 140.258 52.0402 140.89 52.3023C141.521 52.5644 142.023 53.0668 142.285 53.6989C142.546 54.331 142.546 55.041 142.283 55.6728C141.555 57.3164 140.632 58.8665 139.533 60.2894C139.293 60.6012 138.983 60.8536 138.63 61.0274C138.276 61.2011 137.887 61.2914 137.493 61.2914Z" fill="#FF8F95"/>
<path d="M150.36 74.4649C150.493 74.4838 150.586 74.5027 150.704 74.5216C150.972 74.3119 151.074 74.1469 150.36 74.4649Z" fill="#FF4A7A"/>
<path d="M183.898 108.544C194.097 100.139 190.512 93.6851 192.591 87.0869C199.097 66.4378 193.408 58.4731 186.404 55.345C171.434 48.6298 157.194 56.9314 158.686 78.9537C155.131 75.3701 148.122 74.0862 148.122 74.0862L141.362 64.3134C140.401 62.9129 138.978 61.8939 137.343 61.4338C135.707 60.9737 133.962 61.1017 132.411 61.7954C123.463 65.8345 109.416 66.9294 100.492 61.0237C90.6713 55.9706 68.7211 50.6665 58.0098 57.4986C46.1642 65.0611 45.3959 85.4111 61.8822 89.1889C63.1532 89.4734 64.4383 89.6909 65.7322 89.8403C55.6723 89.7131 46.9102 96.5228 44.3836 104.532C42.9745 109.735 43.0159 115.224 44.5035 120.405C45.9911 125.585 48.868 130.26 52.8227 133.923C58.1508 138.807 64.6339 141.485 81.7131 136.087L81.7612 136.063C83.4121 139.587 85.4809 142.9 87.923 145.93C81.7324 143.087 75.0973 141.336 68.3103 140.753L68.1625 156.652C77.5108 158.886 80.0116 163.967 87.8027 168.697C100.061 176.139 114.271 175.635 127.666 167.024C130.137 165.415 133.022 164.558 135.971 164.558C138.921 164.558 141.806 165.415 144.277 167.024C146.115 168.118 148.149 168.839 150.265 169.146C152.381 169.453 154.537 169.34 156.609 168.813C163.806 167.267 163.656 162.555 169.342 153.917C172.607 148.982 185.12 150.945 193.905 143.677C208.969 131.173 203.224 106.464 183.898 108.544Z" fill="url(#paint0_linear_769_21063)"/>
<path d="M65.5325 92.3688C68.251 92.7562 71.0002 92.884 73.743 92.7504C81.0167 92.6335 87.8745 92.5218 93.5945 100.694C97.3758 106.098 102.083 112.824 109.459 113.436C109.829 113.466 110.201 113.482 110.574 113.482C116.433 113.482 122.889 109.701 130.768 101.676C133.044 99.3308 135.917 97.6514 139.078 96.8187C140.542 96.4039 142.091 96.3884 143.564 96.7737C145.037 97.159 146.379 97.9311 147.453 99.0101C149.152 100.835 151.27 102.218 153.624 103.04C155.977 103.862 158.496 104.098 160.961 103.728C163.389 103.35 165.705 102.445 167.746 101.077C169.786 99.7081 171.503 97.9092 172.774 95.8063C174.87 91.3541 176.178 86.5722 176.641 81.6731C177.366 76.7299 177.994 72.4588 180.797 70.2554C181.301 69.8229 181.619 69.2125 181.684 68.5516C181.749 67.8906 181.556 67.23 181.147 66.7075C180.737 66.1849 180.141 65.8408 179.483 65.7467C178.826 65.6526 178.157 65.8159 177.617 66.2026C173.198 69.6779 172.394 75.1401 171.545 80.9254C171.159 85.2425 170.036 89.4614 168.223 93.3984C167.319 94.7819 166.136 95.9619 164.751 96.8633C163.366 97.7647 161.808 98.3676 160.177 98.6337C158.505 98.8698 156.8 98.6926 155.212 98.1176C153.624 97.5427 152.201 96.5874 151.068 95.3354C149.382 93.6401 147.278 92.4201 144.969 91.7987C142.66 91.1772 140.229 91.1765 137.919 91.7965C133.796 92.8423 130.044 95.0123 127.081 98.0648C120.06 105.218 114.257 108.656 109.885 108.296C105.285 107.915 101.843 103.484 97.8175 97.7365C90.53 87.3226 81.1834 87.4773 73.6587 87.5959C71.2483 87.7173 68.8318 87.616 66.44 87.2934C65.7669 87.1728 65.0736 87.3245 64.5124 87.7152C63.9512 88.1059 63.5682 88.7034 63.4476 89.3765C63.3271 90.0495 63.4788 90.7429 63.8695 91.3041C64.2601 91.8653 64.8577 92.2483 65.5308 92.3688H65.5325Z" fill="#FFDCDC"/>
<path d="M79.2311 110.472C82.4813 111.44 86.9655 114.097 89.8582 121.269C91.9052 126.343 95.0488 132.659 100.184 135.265C100.014 135.799 100.022 136.373 100.207 136.902C100.392 137.431 100.744 137.885 101.21 138.195C101.676 138.506 102.231 138.657 102.79 138.624C103.349 138.592 103.883 138.378 104.309 138.015C110.086 133.374 116.837 130.099 124.058 128.433C135.091 126.116 138.992 121.202 141.577 115.951C147.086 118.557 153.113 119.883 159.206 119.829C169.036 119.829 178.972 116.618 185.866 110.472C186.376 110.016 186.685 109.376 186.724 108.693C186.762 108.01 186.528 107.339 186.072 106.828C185.616 106.318 184.976 106.009 184.293 105.971C183.61 105.932 182.939 106.166 182.428 106.622C173.797 114.312 156.63 117.706 143.689 111.235C143.928 110.612 143.915 109.92 143.655 109.306C143.394 108.691 142.905 108.202 142.29 107.941C141.676 107.68 140.984 107.667 140.361 107.906C139.738 108.144 139.231 108.615 138.947 109.219L138.401 110.479C135.733 116.658 133.807 121.12 123.003 123.39C116.458 124.851 110.249 127.537 104.703 131.305C101.018 130.961 97.785 127.142 94.6329 119.341C91.7763 112.258 86.8263 107.354 80.6972 105.531C78.2 104.803 75.5795 104.598 72.9996 104.929C70.4196 105.26 67.9356 106.12 65.7028 107.454C65.2306 106.692 64.834 105.886 64.5186 105.048C64.279 104.41 63.7971 103.894 63.1781 103.611C62.559 103.327 61.8531 103.301 61.2143 103.536C60.5755 103.771 60.0557 104.25 59.7683 104.867C59.4809 105.484 59.4493 106.19 59.6803 106.83C60.3902 108.757 61.9474 112.101 64.3949 112.87C64.9289 113.041 65.4957 113.086 66.0499 112.999C66.6041 112.913 67.1303 112.698 67.5866 112.371C69.2632 111.207 71.179 110.432 73.1938 110.103C75.2086 109.774 77.2714 109.9 79.2311 110.472Z" fill="#FFDCDC"/>
<path d="M73.1055 74.9514C86.0133 74.9514 106.277 85.5681 109.241 93.8852C109.351 94.2085 109.524 94.5066 109.75 94.7624C109.977 95.0182 110.251 95.2264 110.559 95.3751C110.866 95.5237 111.2 95.6098 111.541 95.6282C111.882 95.6467 112.224 95.5972 112.546 95.4827C112.867 95.3682 113.163 95.1908 113.416 94.961C113.668 94.7312 113.873 94.4535 114.017 94.144C114.162 93.8345 114.243 93.4994 114.257 93.1581C114.271 92.8168 114.217 92.4763 114.098 92.1561C113.751 91.2139 113.307 90.3101 112.774 89.4594C115.93 84.0041 121.7 79.8722 129.255 77.7805C139.021 75.0717 150.025 76.3814 157.271 81.1131C157.555 81.2981 157.872 81.4254 158.205 81.4878C158.537 81.5501 158.879 81.5463 159.211 81.4766C159.542 81.4068 159.856 81.2725 160.136 81.0813C160.415 80.89 160.654 80.6456 160.839 80.362C161.024 80.0784 161.151 79.7612 161.214 79.4284C161.276 79.0956 161.272 78.7537 161.203 78.4224C161.133 78.0911 160.998 77.7767 160.807 77.4973C160.616 77.2179 160.372 76.9789 160.088 76.7939C151.518 71.2062 139.173 69.6783 127.872 72.8098C120.427 74.6249 113.865 79.0167 109.349 85.2072C100.893 76.7183 84.2654 69.7969 73.0986 69.7969C72.4149 69.7969 71.7591 70.0685 71.2756 70.552C70.7921 71.0355 70.5205 71.6912 70.5205 72.375C70.5205 73.0588 70.7921 73.7145 71.2756 74.198C71.7591 74.6815 72.4149 74.9531 73.0986 74.9531L73.1055 74.9514Z" fill="#FFDCDC"/>
<path d="M145.623 164.687C143.258 163.58 141.754 159.926 140.595 152.47C140.548 152.131 140.434 151.805 140.259 151.511C140.085 151.217 139.854 150.96 139.579 150.757C139.305 150.553 138.993 150.405 138.661 150.323C138.329 150.241 137.984 150.226 137.646 150.279C137.308 150.331 136.984 150.45 136.692 150.629C136.401 150.808 136.148 151.044 135.949 151.321C135.749 151.599 135.607 151.913 135.53 152.247C135.453 152.58 135.443 152.925 135.501 153.262C136.745 161.277 138.572 167.079 143.438 169.356C143.746 169.506 144.08 169.594 144.422 169.613C144.763 169.633 145.105 169.584 145.428 169.47C145.75 169.357 146.047 169.179 146.301 168.95C146.554 168.72 146.759 168.442 146.904 168.132C147.049 167.822 147.131 167.486 147.145 167.145C147.159 166.803 147.105 166.461 146.985 166.141C146.866 165.82 146.684 165.526 146.45 165.277C146.216 165.027 145.935 164.826 145.623 164.687Z" fill="#FFDCDC"/>
<path d="M187.102 119.039C186.809 118.87 186.485 118.76 186.149 118.716C185.813 118.671 185.472 118.693 185.145 118.781C184.818 118.869 184.511 119.02 184.242 119.226C183.973 119.432 183.748 119.69 183.579 119.983C181.645 123.329 176.085 125.622 170.196 128.047C163.394 130.851 155.805 133.984 151.331 139.785C150.579 139.194 149.779 138.666 148.941 138.205C145.931 136.647 142.609 135.785 139.22 135.684C135.832 135.583 132.465 136.246 129.367 137.623C126.564 138.938 123.842 140.421 121.215 142.062C114.095 146.319 107.374 150.336 98.1584 147.643C90.5443 145.409 86.5121 137.217 83.2706 130.627C80.7887 125.583 78.8276 121.599 75.452 120.805C74.6134 120.628 73.7456 120.647 72.9155 120.86C72.0855 121.073 71.3156 121.474 70.6653 122.032C70.3857 122.233 70.1494 122.488 69.9702 122.783C69.791 123.077 69.6725 123.404 69.6218 123.745C69.5711 124.085 69.5892 124.433 69.6751 124.766C69.7609 125.1 69.9127 125.413 70.1215 125.687C70.3303 125.961 70.5919 126.19 70.8909 126.361C71.1898 126.532 71.52 126.642 71.862 126.683C72.2039 126.725 72.5507 126.697 72.8819 126.602C73.213 126.508 73.5218 126.347 73.79 126.131C73.944 126.02 74.1041 125.917 74.2695 125.823C75.3111 126.131 77.3168 130.206 78.6437 132.903C82.1379 140.001 86.9212 149.723 96.7112 152.588C99.0852 153.297 101.549 153.661 104.026 153.671C111.845 153.671 118.149 149.901 123.862 146.486C126.31 144.95 128.848 143.562 131.463 142.33C133.835 141.266 136.417 140.75 139.017 140.82C141.617 140.89 144.167 141.544 146.479 142.734C147.767 143.33 148.898 144.217 149.784 145.325C150.671 146.433 151.288 147.731 151.587 149.118C151.641 149.452 151.759 149.773 151.937 150.061C152.114 150.35 152.346 150.601 152.62 150.799C152.894 150.998 153.205 151.141 153.534 151.22C153.863 151.298 154.205 151.312 154.539 151.258C154.874 151.205 155.194 151.086 155.483 150.909C155.772 150.732 156.022 150.5 156.221 150.226C156.42 149.952 156.563 149.641 156.642 149.312C156.72 148.982 156.733 148.641 156.68 148.306C156.403 146.655 155.796 145.077 154.894 143.666C158.361 138.509 165.365 135.622 172.163 132.82C178.883 130.05 185.225 127.434 188.044 122.568C188.214 122.275 188.325 121.951 188.37 121.614C188.415 121.278 188.393 120.936 188.305 120.608C188.218 120.28 188.067 119.973 187.86 119.704C187.654 119.435 187.396 119.209 187.102 119.039Z" fill="#FFDCDC"/>
<circle cx="189.611" cy="184.611" r="27.6106" fill="url(#paint1_linear_769_21063)"/>
<ellipse cx="189.611" cy="184.61" rx="22.0885" ry="22.0884" fill="white"/>
<ellipse cx="189.61" cy="184.61" rx="17.6707" ry="17.6708" fill="url(#paint2_linear_769_21063)"/>
<circle cx="189.611" cy="184.612" r="12.1486" fill="white"/>
<ellipse cx="189.611" cy="184.61" rx="5.5221" ry="5.52211" fill="url(#paint3_linear_769_21063)"/>
<defs>
<linearGradient id="paint0_linear_769_21063" x1="123.029" y1="54.3799" x2="123.029" y2="155.339" gradientUnits="userSpaceOnUse">
<stop stop-color="#FA7188"/>
<stop offset="1" stop-color="#FF8EA2"/>
</linearGradient>
<linearGradient id="paint1_linear_769_21063" x1="189.652" y1="157.595" x2="189.652" y2="203.735" gradientUnits="userSpaceOnUse">
<stop stop-color="#FA7188"/>
<stop offset="1" stop-color="#FF8EA2"/>
</linearGradient>
<linearGradient id="paint2_linear_769_21063" x1="189.637" y1="167.32" x2="189.637" y2="196.85" gradientUnits="userSpaceOnUse">
<stop stop-color="#FA7188"/>
<stop offset="1" stop-color="#FF8EA2"/>
</linearGradient>
<linearGradient id="paint3_linear_769_21063" x1="189.619" y1="179.207" x2="189.619" y2="188.435" gradientUnits="userSpaceOnUse">
<stop stop-color="#FA7188"/>
<stop offset="1" stop-color="#FF8EA2"/>
</linearGradient>
</defs>
</svg>
