<svg width="240" height="240" viewBox="0 0 240 240" fill="none" xmlns="http://www.w3.org/2000/svg">
<mask id="mask0_769_21104" style="mask-type:alpha" maskUnits="userSpaceOnUse" x="35" y="35" width="170" height="170">
<path d="M172.929 67.071C202.161 96.3029 202.161 143.697 172.929 172.929C143.697 202.161 96.3029 202.161 67.071 172.929C37.8391 143.697 37.8391 96.3029 67.071 67.071C96.3029 37.8391 143.697 37.8391 172.929 67.071Z" fill="#FF6D7A" stroke="black" stroke-width="20" stroke-miterlimit="10"/>
</mask>
<g mask="url(#mask0_769_21104)">
<path d="M18.5223 -97.736C45.936 -101.379 132.967 -72.3538 139.489 -2.5223C146.011 67.3092 82.8273 170.174 -0.0252533 176.489C-82.8778 182.804 -131.794 170.538 -135.157 142.606C-138.521 114.673 -146.062 -79.5191 -115.489 -97.736C-84.916 -115.953 -10.9296 -93.8497 18.5223 -97.736Z" fill="#FF8C95"/>
<path d="M76.8154 -86.8066C76.8154 -86.8066 99.1336 -61.4244 83.1338 -45.7579C67.7455 -30.82 42.1661 -57.0524 24.0262 -52.6803C5.88627 -48.3082 6.90537 -36.528 -13.7823 -36.528C-34.47 -36.528 -44.6609 -56.9309 -65.3486 -47.9439C-82.5713 -40.4143 -96.7368 -23.0475 -86.7496 -9.80984C-69.8326 12.6577 -56.7882 -16.8537 -30.1898 -2.52309C-16.5339 4.88512 4.0519 5.00656 22.5995 -6.7737C38.1916 -16.7323 89.4522 -11.3886 85.0701 10.1073C80.9937 30.3888 62.548 39.4973 40.026 30.996C26.472 25.8953 2.72708 35.3681 -14.088 39.983C-38.4444 46.5411 -50.3679 27.5955 -68.9154 32.2105C-85.7305 36.3397 -94.6986 52.2491 -84.5076 65.6082C-72.788 81.1532 -54.3423 82.732 -42.317 78.9672C-28.1516 74.5952 -3.38751 69.4944 14.6505 72.4091C40.8413 76.7812 55.3125 56.864 84.051 69.4944C95.1592 74.3523 93.8343 98.2771 78.8536 103.621C60.1022 110.422 33.6057 101.192 15.5677 110.3C-14.6995 125.603 -5.52761 103.621 -40.8903 116.373C-72.5842 127.789 -95.1062 85.7682 -108.151 108.721C-119.972 129.489 -89.2974 151.106 -68.5078 153.292C-57.2977 154.507 -30.0878 146.977 -26.4191 159.729C-18.0625 189.119 -103.055 200.899 -116.1 167.987" stroke="#FFA1A1" stroke-width="25.3557" stroke-miterlimit="10"/>
<path d="M-141.883 202.842C-149.628 201.506 -171.539 197.255 -173.271 166.286C-174.596 142.847 -166.341 114.429 -167.87 99.734C-169.603 82.4886 -179.794 59.8997 -179.997 39.2538C-180.201 19.3367 -168.583 -3.49518 -167.87 -23.4123C-167.157 -43.6938 -173.781 -60.8177 -175.411 -77.9416C-179.997 -128.099 -152.584 -153.238 -123.132 -156.274C-99.5906 -158.703 -85.3233 -140.122 -65.349 -141.944C-49.1453 -143.522 -34.7761 -162.711 -11.9483 -162.711C12.4081 -162.711 24.6373 -144.373 41.4524 -143.28C61.3248 -141.944 78.5475 -153.724 94.8531 -154.574C118.496 -155.789 131.133 -151.174 145.095 -134.171C159.26 -116.804 160.687 -96.0371 161.094 -75.9985C161.4 -59.2389 158.648 -42.2365 160.075 -22.4408C161.298 -4.1024 168.839 16.7863 169.043 35.6105C169.247 54.4346 162.317 75.5662 159.77 92.5686C155.897 118.194 162.623 144.426 139.693 168.108C120.127 188.268 96.9931 181.589 76.2036 183.167C50.2166 185.232 36.255 189.24 31.4652 215.958C29.3251 227.738 36.1531 252.027 35.2359 263.443C34.1149 277.774 20.7647 288.34 15.1597 291.497C10.8795 293.926 11.0833 320.644 0.892319 320.644C-9.29866 320.644 -10.012 293.926 -13.375 291.862C-18.5724 288.825 -32.3302 275.224 -32.4321 261.622C-32.636 241.583 -29.6806 237.332 -27.7443 214.743C-25.6042 190.697 -34.0627 160.336 -17.3495 139.568C4.25534 112.729 23.822 120.137 42.981 118.437C67.847 116.129 94.853 113.093 97.197 78.9667C98.1141 65.7291 90.0633 49.9411 89.7576 33.9102C89.3499 15.5719 97.2989 -4.1024 95.7702 -19.7689C93.834 -39.0789 82.9296 -67.7401 45.8345 -68.7117C29.0194 -69.1975 7.82217 -58.2673 -10.8273 -58.1459C-28.2539 -57.903 -46.3938 -64.9469 -60.9669 -65.3112C-92.2531 -66.0399 -101.017 -34.4639 -101.629 -15.5183C-102.138 0.755447 -93.8837 17.6364 -93.8837 38.6466C-93.8837 57.9565 -105.807 78.1166 -106.724 97.0622C-107.438 113.579 -97.6543 149.163 -99.0811 162.764C-102.342 193.247 -117.323 193.733 -126.597 200.534C-129.144 202.356 -130.571 215.351 -125.272 224.581C-118.036 237.332 -123.234 240.611 -127.718 234.418C-142.8 213.65 -138.418 203.449 -141.883 202.842Z" fill="#FFBFB8"/>
<path d="M70.2933 183.775C47.9751 186.083 35.7459 191.427 31.2619 215.959C29.1218 227.86 35.9497 252.028 35.0325 263.444C33.9115 277.775 20.5613 288.341 14.9563 291.498C10.6761 293.927 10.8799 320.645 0.688957 320.645C-9.50201 320.645 -10.2154 293.927 -13.5784 291.862C-18.7758 288.705 -32.5336 275.224 -32.6355 261.622C-32.8393 241.584 -29.8839 237.333 -27.9477 214.744C-25.8076 190.698 -34.2661 160.336 -17.5529 139.569C3.95006 112.851 23.5167 120.138 42.6757 118.438C43.0834 145.034 53.7839 168.716 70.2933 183.775Z" fill="#FFBFB8"/>
<path d="M168.941 35.6105C169.043 44.2332 167.617 53.3416 165.884 62.3286C153.043 44.8404 134.088 33.7888 113.095 33.7888C105.044 33.7888 97.2989 35.3676 90.0633 38.4037C89.8595 36.9464 89.8595 35.489 89.7576 33.9102C89.3499 15.5719 97.2989 -4.10239 95.7703 -19.7689C93.834 -39.0788 82.9296 -67.7401 45.8345 -68.7117C29.0194 -69.1975 7.82219 -58.2673 -10.8273 -58.1459C-28.2538 -57.903 -46.3938 -64.9469 -60.9668 -65.3112C-92.2531 -66.0399 -101.017 -34.4639 -101.629 -15.3969C-102.138 0.876907 -93.8837 17.7579 -93.8837 38.7681C-93.8837 58.078 -105.807 78.1166 -106.724 97.1836C-107.438 113.7 -97.5524 149.284 -99.0811 162.886C-102.342 193.369 -117.323 193.976 -126.597 200.656C-129.144 202.477 -130.571 215.472 -125.272 224.702C-118.036 237.454 -123.234 240.733 -127.718 234.539C-142.698 213.772 -138.316 203.57 -141.883 202.963C-149.628 201.627 -171.539 197.377 -173.271 166.408C-174.596 142.969 -166.341 114.55 -167.87 99.8554C-169.603 82.4887 -179.794 59.8997 -179.997 39.2539C-180.201 19.3367 -168.583 -3.49516 -167.87 -23.4123C-167.157 -43.6938 -173.781 -60.8177 -175.411 -77.9416C-179.997 -128.099 -152.584 -153.238 -123.132 -156.274C-99.5906 -158.703 -85.3232 -140.001 -65.349 -141.944C-49.1453 -143.522 -34.7761 -162.711 -11.9483 -162.711C12.4081 -162.711 24.6373 -144.373 41.4524 -143.28C61.3248 -141.944 78.5475 -153.724 94.8531 -154.574C118.496 -155.789 131.133 -151.174 145.095 -134.171C159.26 -116.804 160.687 -96.037 160.992 -75.9985C161.298 -59.2389 158.547 -42.2364 159.973 -22.4407C161.196 -4.10239 168.738 16.7863 168.941 35.6105Z" fill="#FFBFB8"/>
<path d="M-125.679 230.775C-125.679 230.775 -137.297 214.015 -135.87 198.47C-134.443 182.925 -146.061 143.941 -135.972 101.435C-128.43 69.4944 -148.201 42.5333 -136.991 -5.92365C-128.94 -40.9001 -150.137 -61.0602 -132.201 -92.5147C-118.443 -116.804 -86.5456 -110.61 -64.635 -105.509C-27.5399 -96.8868 -2.36822 -122.998 42.1663 -109.031C69.7838 -100.409 94.8536 -117.533 116.255 -96.8868C135.108 -78.6698 131.439 -38.957 125.019 -11.996C117.783 18.3656 135.21 47.7555 127.159 84.1893C121.146 111.758 119.108 154.628 76.408 149.649C32.0773 144.427 22.4977 151.713 10.88 166.53C0.994801 179.039 -5.3236 210.615 -0.533841 236.604C6.39602 273.888 -5.62933 289.555 0.892888 314.572" stroke="#FFD6CF" stroke-width="2.5356" stroke-miterlimit="10" stroke-linecap="round" stroke-linejoin="round"/>
<path d="M165.782 62.3292C163.642 72.8951 160.993 83.3394 159.668 92.5693C155.795 118.194 162.521 144.427 139.592 168.109C120.025 188.269 96.8914 181.589 76.1018 183.168C74.0636 183.29 72.2292 183.532 70.293 183.654C53.7836 168.595 43.0831 144.913 42.7773 118.316H42.8792C67.7452 116.008 94.7513 112.972 97.0952 78.8459C97.9105 66.8227 91.3882 52.735 89.9615 38.2829C97.1971 35.2468 104.942 33.668 112.993 33.668C134.088 33.7894 152.942 44.841 165.782 62.3292Z" fill="#FF8C95"/>
<path d="M112.993 39.8614C130.929 39.8614 147.948 48.6055 160.279 64.0291C159.668 66.9438 159.056 69.7371 158.445 72.5303C157.018 79.2099 155.591 85.5251 154.674 91.4759C153.553 98.6413 153.349 105.685 153.044 112.608C152.228 131.553 151.617 147.827 136.229 163.615C124.203 176.002 110.445 177.095 97.299 177.095C95.2608 177.095 93.2226 177.095 91.1844 177.095C89.1463 177.095 87.1081 177.095 85.0699 177.095C81.4011 177.095 78.4457 177.217 75.7961 177.46C74.3693 177.581 73.1464 177.703 71.9235 177.824C58.0638 164.465 49.6053 145.277 48.1785 124.266C71.2101 121.959 99.6429 116.858 102.293 79.6957C102.904 71.6802 100.764 63.6648 98.6238 55.1636C97.6047 51.0344 96.4837 46.9052 95.7704 42.7761C101.375 40.7115 107.082 39.8614 112.993 39.8614ZM112.993 33.7891C104.942 33.7891 97.1971 35.3679 89.9615 38.404C91.3883 52.8561 98.0124 67.0653 97.0952 78.967C94.6494 112.972 67.6433 116.129 42.8792 118.437H42.7773C42.9812 145.034 53.7836 168.716 70.293 183.775C72.1273 183.532 74.0636 183.411 76.1018 183.289C79.0572 183.046 82.0126 183.046 85.0699 183.046C89.1463 183.046 93.2226 183.168 97.299 183.168C111.77 183.168 126.445 181.71 139.49 168.23C162.521 144.548 155.693 118.316 159.566 92.6904C160.993 83.4605 163.642 73.1376 165.68 62.4503C152.942 44.8406 134.088 33.7891 112.993 33.7891Z" fill="#FFDCDC"/>
<path d="M94.5479 178.067C94.5479 178.067 96.0765 175.273 93.7326 171.994C91.3887 168.715 92.102 163.372 94.9555 162.036C97.9109 160.7 100.561 168.23 97.5032 171.994C95.2612 174.788 97.2994 178.067 97.2994 178.067H94.5479Z" fill="#FFDCDC"/>
<path d="M155.286 95.2409C155.286 95.2409 154.063 93.2978 152.229 94.1479C148.967 95.7267 146.827 94.5123 146.318 92.0833C145.706 88.4399 149.477 85.6467 152.534 89.533C154.674 92.4477 155.999 89.8973 155.999 89.8973L155.286 95.2409Z" fill="#FFDCDC"/>
<path d="M116.356 176.124C116.356 176.124 118.904 172.116 116.356 169.444C113.808 166.773 108.713 161.308 112.382 156.936C115.643 153.049 120.025 156.693 119.515 166.894C119.21 172.845 124.203 173.574 124.203 173.574L116.356 176.124Z" fill="#FFDCDC"/>
<path d="M98.7258 58.8066C98.7258 58.8066 99.4391 61.5999 101.579 60.5069C103.719 59.4139 108 57.8351 108.203 62.0857C108.305 65.3647 105.044 65.4862 101.987 63.6645C98.9296 61.8428 97.8086 65.3647 97.8086 65.3647L98.7258 58.8066Z" fill="#FFDCDC"/>
<path d="M61.7323 118.438C61.7323 118.438 61.0189 120.988 62.6495 122.688C64.28 124.267 66.522 128.882 63.9743 131.068C61.0189 133.497 58.7769 129.853 58.8788 123.538C58.9807 119.895 57.7578 119.895 57.7578 119.895L61.7323 118.438Z" fill="#FFDCDC"/>
<path d="M127.974 171.994C127.974 171.994 131.948 168.107 131.948 164.464C131.948 160.821 133.171 158.149 135.413 157.299C137.349 156.448 141.324 157.784 144.687 155.355C144.789 155.355 135.005 172.358 127.974 171.994Z" fill="#FFDCDC"/>
<path d="M101.274 72.166C101.274 72.166 100.764 77.1453 102.395 79.2099C104.026 81.2745 104.637 83.7034 103.72 85.6465C102.904 87.3468 100.051 89.1685 99.2357 92.9333C99.1338 92.9333 96.9937 76.6595 101.274 72.166Z" fill="#FFDCDC"/>
<path d="M94.2414 130.946L59.694 163.615C58.573 164.586 57.0443 164.465 56.1272 163.129L50.8279 155.235C50.0126 153.899 50.1145 152.077 51.2355 150.984L85.7829 118.315C86.9039 117.344 88.4325 117.465 89.3497 118.801L94.649 126.695C95.4643 128.031 95.2605 129.853 94.2414 130.946Z" fill="#5D5C66"/>
<path d="M114.623 97.5488C118.903 103.985 87.6172 123.053 87.6172 123.053" stroke="#5D5C66" stroke-width="1.8885" stroke-miterlimit="10"/>
<path d="M98.0126 91.3555C98.0126 91.3555 100.357 100.585 105.758 100.585C114.93 100.585 118.802 114.43 113.605 119.652C107.49 125.846 97.7069 118.317 98.0126 109.694C98.2164 103.5 93.7324 100.464 93.7324 100.464L98.0126 91.3555Z" fill="#FFDCDC"/>
<path d="M87.6172 123.052C87.6172 123.052 110.343 91.1116 114.623 97.5482" stroke="#5D5C66" stroke-width="1.8885" stroke-miterlimit="10"/>
<path d="M175.404 64.5962C206.003 95.1949 206.003 144.805 175.404 175.404C144.805 206.003 95.1949 206.003 64.5961 175.404C33.9974 144.805 33.9974 95.1949 64.5961 64.5962C95.1949 33.9974 144.805 33.9974 175.404 64.5962Z" stroke="url(#paint0_linear_769_21104)" stroke-width="13" stroke-miterlimit="10"/>
</g>
<defs>
<linearGradient id="paint0_linear_769_21104" x1="61.3829" y1="61.2029" x2="161.648" y2="161.468" gradientUnits="userSpaceOnUse">
<stop stop-color="#FA7188"/>
<stop offset="1" stop-color="#FF8EA2"/>
</linearGradient>
</defs>
</svg>
