<svg id="圖層_1" data-name="圖層 1" xmlns="http://www.w3.org/2000/svg" xmlns:xlink="http://www.w3.org/1999/xlink" viewBox="0 0 1605 1121"><defs><style>.cls-1,.cls-3{fill:#fff;}.cls-1,.cls-25{fill-rule:evenodd;}.cls-2{fill:url(#未命名漸層);}.cls-3{stroke-width:12px;stroke:url(#未命名漸層_2);}.cls-4{fill:url(#未命名漸層_3);}.cls-5{fill:url(#未命名漸層_4);}.cls-6{fill:#424452;}.cls-7{opacity:0.1;isolation:isolate;}.cls-8{fill:#def1ea;}.cls-9{fill:#93b1a6;}.cls-10{fill:#cae4db;}.cls-11{fill:url(#未命名漸層_6);}.cls-12{fill:#0b2c95;}.cls-13{fill:#191919;}.cls-14{fill:#323232;}.cls-15{fill:#efefee;}.cls-16{fill:url(#未命名漸層_7);}.cls-17{fill:url(#未命名漸層_8);}.cls-18{fill:url(#未命名漸層_9);}.cls-19{fill:url(#未命名漸層_10);}.cls-20{fill:url(#未命名漸層_11);}.cls-21{fill:url(#未命名漸層_12);}.cls-22{fill:url(#未命名漸層_13);}.cls-23{fill:url(#未命名漸層_14);}.cls-24{fill:url(#未命名漸層_15);}.cls-25{fill:url(#未命名漸層_16);}.cls-26{mask:url(#mask);}.cls-27{fill:url(#未命名漸層_17);}.cls-28{fill:none;}</style><linearGradient id="未命名漸層" x1="799.67" y1="532.4" x2="801.18" y2="6.76" gradientTransform="matrix(1, 0, 0, -1, 0, 1070)" gradientUnits="userSpaceOnUse"><stop offset="0" stop-color="#93b1a6"/><stop offset="1" stop-color="#93b1a6" stop-opacity="0"/></linearGradient><linearGradient id="未命名漸層_2" x1="754.64" y1="637.02" x2="913.43" y2="258.74" xlink:href="#未命名漸層"/><linearGradient id="未命名漸層_3" x1="229.81" y1="957.66" x2="609.84" y2="698.98" gradientTransform="matrix(1, 0, 0, -1, 0, 1070)" gradientUnits="userSpaceOnUse"><stop offset="0.11" stop-color="#f5c25b"/><stop offset="0.31" stop-color="#f59e5b"/></linearGradient><linearGradient id="未命名漸層_4" x1="668.6" y1="811.9" x2="221.55" y2="811.9" gradientTransform="matrix(1, 0, 0, -1, 0, 1070)" gradientUnits="userSpaceOnUse"><stop offset="0" stop-color="#f3e5a5"/><stop offset="1" stop-color="#f4c15b"/></linearGradient><linearGradient id="未命名漸層_6" x1="807.12" y1="359.63" x2="807.22" y2="344.57" gradientTransform="matrix(1, 0, 0, -1, 0, 1070)" gradientUnits="userSpaceOnUse"><stop offset="0" stop-color="#93b1a6"/><stop offset="1" stop-color="#c8ded6"/></linearGradient><linearGradient id="未命名漸層_7" x1="778.03" y1="396.62" x2="778.24" y2="353.37" xlink:href="#未命名漸層_6"/><linearGradient id="未命名漸層_8" x1="768.49" y1="385.07" x2="768.71" y2="346.62" xlink:href="#未命名漸層_6"/><linearGradient id="未命名漸層_9" x1="740.79" y1="383.32" x2="740.81" y2="380.49" xlink:href="#未命名漸層"/><linearGradient id="未命名漸層_10" x1="1259.6" y1="466.2" x2="1261.01" y2="448.44" gradientTransform="matrix(1, 0, 0, -1, 0, 1070)" gradientUnits="userSpaceOnUse"><stop offset="0" stop-color="#93b1a6"/><stop offset="1" stop-color="#bfd6cd"/></linearGradient><linearGradient id="未命名漸層_11" x1="1264.31" y1="509.49" x2="1266.06" y2="457.7" xlink:href="#未命名漸層_10"/><linearGradient id="未命名漸層_12" x1="1297.6" y1="447.2" x2="1299.01" y2="429.44" xlink:href="#未命名漸層_10"/><linearGradient id="未命名漸層_13" x1="1302.31" y1="490.49" x2="1304.06" y2="438.7" xlink:href="#未命名漸層_10"/><linearGradient id="未命名漸層_14" x1="1335.6" y1="428.2" x2="1337.01" y2="410.44" xlink:href="#未命名漸層_10"/><linearGradient id="未命名漸層_15" x1="1340.31" y1="471.49" x2="1342.06" y2="419.7" xlink:href="#未命名漸層_10"/><linearGradient id="未命名漸層_16" x1="903.24" y1="816.81" x2="905.54" y2="273.51" xlink:href="#未命名漸層"/><mask id="mask" x="339.22" y="246.12" width="1129.82" height="612.37" maskUnits="userSpaceOnUse"><g transform="translate(0 0)"><g id="path-62-inside-1_606_33009" data-name="path-62-inside-1 606 33009"><path class="cls-1" d="M708.26,387.57l151.9,87.73c-18.4,19.07-18.11,42.54.87,61.45a82.81,82.81,0,0,0,17.24,13c35.93,20.73,90.82,23.79,132.34,9.19l45.56,26.19L834.06,713.26l-170-98,67.7-38.52-46.06-26.78-67.93,38.6-75.85-43.75-.09.05L533,539.74a33.88,33.88,0,0,0-34,0l-155.82,90,46.24,26.73,126.66-73.1L814,755.18a40,40,0,0,0,40.07,0L925.32,714l248.36,142.15,46.24-26.68L971.6,687.34l132.52-76.46,361,201.56,1.89-52.19L1053.61,530.19c12.36-16.59,11.62-35.66-2.19-52L1205,389.55l-46.24-26.72-152.57,88.06c-28.76-9.08-63.16-10-93.1-2.86L779.57,370.94l162.08-93.57-50.08-28.94L708.26,354.26A19.21,19.21,0,0,0,708.26,387.57Zm194.23,126.8c-5.28-10.58-.7-22.45,13.73-30.79,13.12-7.58,31.33-10.46,48.28-8.66a77.87,77.87,0,0,1,22,5.5,58.66,58.66,0,0,1,6.35,3.16,39.07,39.07,0,0,1,4.15,2.7c.49.35,1,.7,1.48,1,15.31,12.22,13.43,29.39-5.63,40.4-21.14,12.22-55.44,12.22-76.62,0C909.52,523.85,905,519.25,902.49,514.37Z"/></g></g></mask><linearGradient id="未命名漸層_17" x1="902.26" y1="816.8" x2="904.56" y2="273.51" xlink:href="#未命名漸層"/></defs><rect class="cls-2" y="533" width="1601" height="588"/><path class="cls-3" d="M1599,547c0,40.4-21.24,79.55-61.1,115.84S1440,732.09,1367.8,759.9C1223.42,815.49,1023.56,850,802.5,850s-420.92-34.51-565.3-90.1C165,732.09,107,699.13,67.1,662.84S6,587.4,6,547s21.24-79.55,61.1-115.84S165,361.91,237.2,334.1C381.58,278.51,581.44,244,802.5,244s420.92,34.51,565.3,90.1c72.21,27.81,130.23,60.77,170.1,97.06S1599,506.61,1599,547Z" transform="translate(0 0)"/><path class="cls-4" d="M256,185.92,563,8.18C580.27-1.51,596.43-2.59,608.28,5l38.78,21.54-14,128.19c0,50.63-31.24,111-70,132.5L243.09,486.47l-31.24-17.23h-1.07l-1.08-1.08c-14-8.62-23.7-28-23.7-56V318.42C186,267.79,217.24,207.47,256,185.92Z" transform="translate(0 0)"/><path class="cls-5" d="M598.58,308.73l-307,177.74c-38.78,22.62-70-1.08-70-52.78V340c0-50.63,31.24-111,70-132.5l307-177.75c38.78-22.62,70,1.08,70,52.79v93.72C668.6,226.86,637.36,287.18,598.58,308.73Z" transform="translate(0 0)"/><path class="cls-6" d="M352.69,244.5l-22.83,12.39a3.68,3.68,0,0,1-5.95-3.37l-.85-20.67a9.94,9.94,0,0,1,1.45-5.39,10.23,10.23,0,0,1,4-4.15l22.82-12.4a3.79,3.79,0,0,1,5.95,3.38L358.1,235a10.25,10.25,0,0,1-1.53,5.54A10,10,0,0,1,352.69,244.5Zm-53.55-4.56,10.33-5.61a4,4,0,0,1,4-.29,3.82,3.82,0,0,1,1.91,3.56l2.83,68.55a13.5,13.5,0,0,1-1.86,8,18.1,18.1,0,0,1-7.07,5.84,2.28,2.28,0,0,1-2.47,0,2.53,2.53,0,0,1-1.15-2.28,6.33,6.33,0,0,1,.92-3.4,6.82,6.82,0,0,1,2.53-2.58l1-.56a2.89,2.89,0,0,0,.85-.57,1.66,1.66,0,0,0,.07-.63l-1-23.11c0-.39-.2-.5-.54-.31l-6.72,3.65a.88.88,0,0,0-.49.87q0,7.1-.27,14.76t-.94,15.53a7.55,7.55,0,0,1-1.19,3.25,6.42,6.42,0,0,1-2.29,2.24,2.64,2.64,0,0,1-2.81.13,2.79,2.79,0,0,1-.9-2.72,283.77,283.77,0,0,0,1.2-30.39q-.24-14.39-.74-26.43l-.75-18.11a9.91,9.91,0,0,1,1.46-5.3A10.23,10.23,0,0,1,299.14,239.94Zm50.55-14.73a.88.88,0,0,0,.49-.87l-.16-3.92c0-.39-.2-.49-.54-.31L331,230.17a.87.87,0,0,0-.49.87l.16,3.91c0,.39.2.5.54.31Zm-41.31,31.73a.85.85,0,0,0,.49-.86l-.5-12.24c0-.4-.2-.5-.54-.31L301.45,247a.88.88,0,0,0-.49.87l.51,12.24q0,.58.54.3Zm23.12-13.75a.87.87,0,0,0-.49.87l.14,3.43q0,.58.54.3l18.52-10a.9.9,0,0,0,.49-.87l-.14-3.43q0-.58-.54-.3Zm-29.23,38.4q0,.59.54.3l6.46-3.5a.88.88,0,0,0,.49-.87l-.5-12c0-.4-.19-.5-.54-.31l-6.37,3.46a.87.87,0,0,0-.49.87c.07,1.89.16,3.85.24,5.87S302.24,279.47,302.27,281.59Zm59.8-31.77-23.6,12.81a1,1,0,0,0-.59.72,12.15,12.15,0,0,1-.39,1.22,12,12,0,0,1-.39,1.21c-.15.55,0,.71.37.5l21.36-11.6q2.42-1.31,4.13-.24a4,4,0,0,1,1.83,3.61q.06,4,0,6.9c0,2-.11,3.86-.21,5.72s-.11,3.79-.18,6.11a23.29,23.29,0,0,1-3.48,11.89,20.09,20.09,0,0,1-8.92,7.66,2.39,2.39,0,0,1-2.47-.07,2.86,2.86,0,0,1-1.07-2.32,6.28,6.28,0,0,1,1.25-3.88,7,7,0,0,1,3-2.62,1.52,1.52,0,0,1,.44-.14l.43-.23c2.12-1.15,3.29-3.59,3.48-7.3q.26-4.54.38-7.81c.09-2.19.1-4.82,0-7.92,0-.4-.2-.5-.54-.31l-1,.56a1.25,1.25,0,0,0-.58.82,75.49,75.49,0,0,1-4.48,13,134.58,134.58,0,0,1-6.58,13.29,96.7,96.7,0,0,1-6.87,10.63,5.3,5.3,0,0,1-1.7,1.53,3.23,3.23,0,0,1-1.83.39,1.79,1.79,0,0,1-1.36-1,3.26,3.26,0,0,1-.51-1.63,8.07,8.07,0,0,1,1.73-4.94,89.79,89.79,0,0,0,8-13.16,93.42,93.42,0,0,0,5.77-13.74c.21-.58.06-.73-.46-.45l-1.89,1a1,1,0,0,0-.59.71,98,98,0,0,1-6,12.67q-3.53,6.32-7.26,11.85t-6.84,9.12a3.69,3.69,0,0,1-.76.81,7.1,7.1,0,0,1-.86.57,3.43,3.43,0,0,1-1.92.44,2.06,2.06,0,0,1-1.37-1.16,4.1,4.1,0,0,1-.32-1.52,6.83,6.83,0,0,1,.42-2.54,8.86,8.86,0,0,1,1.48-2.6A106.23,106.23,0,0,0,329.35,287a115,115,0,0,0,6.15-10.95c.27-.61.17-.8-.29-.55l-2.75,1.5a1.48,1.48,0,0,0-.59.62q-2,3.76-4.11,7.14c-1.43,2.24-2.87,4.33-4.32,6.25a6.12,6.12,0,0,1-1.78,1.57q-2.25,1.21-3.28-.43a3.37,3.37,0,0,1-.51-1.72,8.16,8.16,0,0,1,1.73-5.05,74.23,74.23,0,0,0,5.46-8.47,78.27,78.27,0,0,0,4.14-8.55c.1-.26.1-.42,0-.49s-.18-.1-.35,0l-7.06,3.83a2.41,2.41,0,0,1-2.46.14,2.53,2.53,0,0,1-1.15-2.28,6.26,6.26,0,0,1,.92-3.4,6.13,6.13,0,0,1,2.36-2.49l40.3-21.88a2.31,2.31,0,0,1,3.7,2.1,6.74,6.74,0,0,1-.91,3.4A6.36,6.36,0,0,1,362.07,249.82Zm58.69-71.21q0,.58.54.3l25.06-13.61a2.36,2.36,0,0,1,2.55-.08,2.44,2.44,0,0,1,1.24,2.33,6.64,6.64,0,0,1-1,3.55,6.36,6.36,0,0,1-2.45,2.53l-51.59,28a.86.86,0,0,0-.49.87l1.25,30.25q.11,2.44-.06,7c-.11,3.07-.41,6.53-.89,10.4a104.68,104.68,0,0,1-2.32,12.17,79.36,79.36,0,0,1-4.06,12.42,6.66,6.66,0,0,1-3,3.44,3.37,3.37,0,0,1-2.18.49c-1.12-.13-1.71-.94-1.77-2.44a5.47,5.47,0,0,1,.51-2.48A82.72,82.72,0,0,0,386,261,88.88,88.88,0,0,0,388,249.78c.09-.65-.11-.67-.62-.06l-2.34,3c-.84,1-1.73,2-2.69,3.06a7.11,7.11,0,0,0-.68.67,4.5,4.5,0,0,1-.77.52,2.48,2.48,0,0,1-2.37.18,2.74,2.74,0,0,1-1.16-2.47,8.73,8.73,0,0,1,2.31-6q2.52-3,4.69-5.95t3.89-5.91a1.61,1.61,0,0,0,.23-.83l-.54-13c0-.59-.12-.77-.29-.55a.45.45,0,0,1-.16.19l-.09.15a4.93,4.93,0,0,1-1.44,1.19c-1.44.78-2.53.54-3.29-.72a31.68,31.68,0,0,0-5.53-8,3,3,0,0,1-.7-2,6.35,6.35,0,0,1,1.75-4.55,6.76,6.76,0,0,1,2-1.66c1.66-.91,2.93-.76,3.8.43a30,30,0,0,1,2.9,4.13q.19.3.36.21a.78.78,0,0,0,.24-.63l-.29-7a10,10,0,0,1,1.45-5.39,10.32,10.32,0,0,1,4-4.16l20.15-10.94a.88.88,0,0,0,.49-.87l-.13-3.13a6.35,6.35,0,0,1,1-3.55,6.75,6.75,0,0,1,2.62-2.72,2.69,2.69,0,0,1,2.72-.18,2.6,2.6,0,0,1,1.24,2.33Zm12,25.82-19.29,10.48a3.44,3.44,0,0,1-5.5-3.12l-.34-8a9.51,9.51,0,0,1,1.38-5,9.41,9.41,0,0,1,3.63-3.78l19.29-10.47a3.74,3.74,0,0,1,3.78-.25c1.08.55,1.65,1.67,1.72,3.37l.34,8a10.58,10.58,0,0,1-5,8.82Zm-2.57-10.92q0-.58-.54-.3L415.35,201a.89.89,0,0,0-.5.87l.18,4.21q0,.58.54.3l14.29-7.76a.88.88,0,0,0,.5-.87ZM417.28,235l-14.64,7.95a3.44,3.44,0,0,1-5.5-3.12l-.32-7.64a9,9,0,0,1,1.38-5.05,9.35,9.35,0,0,1,3.63-3.78l14.64-7.94a3.72,3.72,0,0,1,3.78-.25c1.08.55,1.65,1.67,1.72,3.37l.32,7.63a10.62,10.62,0,0,1-5,8.83Zm12.37-26.74,14.81-8a3.74,3.74,0,0,1,3.78-.25c1.08.55,1.65,1.67,1.72,3.37l.32,7.64A9.35,9.35,0,0,1,448.9,216a9.12,9.12,0,0,1-3.63,3.77l-14.81,8a3.44,3.44,0,0,1-5.5-3.12l-.32-7.63A9.08,9.08,0,0,1,426,212,9.38,9.38,0,0,1,429.65,208.22ZM415,224q0-.59-.54-.3l-10.08,5.47a.88.88,0,0,0-.49.87l.18,4.31q0,.58.54.3l10.07-5.47a.88.88,0,0,0,.5-.87Zm16.88-4.76c0,.39.2.5.54.31L442.65,214a.87.87,0,0,0,.5-.86L443,208.8c0-.39-.2-.5-.54-.31l-10.25,5.56a.87.87,0,0,0-.49.87Zm13,4.68a2.43,2.43,0,0,1,2.63-.13,2.57,2.57,0,0,1,1.24,2.33l.47,11.26a11,11,0,0,1-5,8.92L405.84,267.1a3.55,3.55,0,0,1-3.78.15,3.71,3.71,0,0,1-1.72-3.37l-.47-11.26a6.29,6.29,0,0,1,1-3.55,6.62,6.62,0,0,1,2.53-2.67,2.34,2.34,0,0,1,2.55-.08,2.44,2.44,0,0,1,1.24,2.33l.36,8.71c0,.39.2.49.54.31l12.41-6.74a.88.88,0,0,0,.49-.86l-.51-12.24a6.24,6.24,0,0,1,.92-3.4,6.59,6.59,0,0,1,2.53-2.68,2.45,2.45,0,0,1,3.79,2.15l.5,12.24c0,.39.2.49.54.31l12.49-6.79a.85.85,0,0,0,.49-.86l-.36-8.72a6.85,6.85,0,0,1,.92-3.5A6.25,6.25,0,0,1,444.83,223.91ZM537,151.33a1.33,1.33,0,0,1,.11.54c0,.19,0,.36,0,.49a7.2,7.2,0,0,1-.67,3.16,7.68,7.68,0,0,1-1.91,2.74c-.23.19-.42.36-.59.52l-.61.33a2.73,2.73,0,0,1-2.09.34,2.3,2.3,0,0,1-1.39-1.45,29,29,0,0,0-.91-2.81q-.5-1.44-1.08-2.82c-.13-.26-.33-.25-.62,0q-4.15,3.67-10,8t-12.58,8.74q-6.76,4.47-13.82,8.7c-1.6.94-2.92,1.09-3.94.44a4.45,4.45,0,0,1-1.56-3.56,9.94,9.94,0,0,1,.48-3.26,14.29,14.29,0,0,1,1.62-3.49,109,109,0,0,0,15.16-38,7.73,7.73,0,0,1,1.28-3,6.61,6.61,0,0,1,2.21-2.1,2.47,2.47,0,0,1,4,2.15c0,.13,0,.3,0,.49a1.55,1.55,0,0,1-.06.54,93.58,93.58,0,0,1-3,12.44,134.48,134.48,0,0,1-4.75,12.9,121.53,121.53,0,0,1-5.52,11.4.87.87,0,0,0-.15.68c.07.1.21.06.44-.13q7.64-5,14.82-10a150.6,150.6,0,0,0,12.29-9.38c.34-.32.42-.63.23-.93a32.19,32.19,0,0,0-4.13-6.07,3.3,3.3,0,0,1-.69-1.92,5.89,5.89,0,0,1,.43-2.34,6.61,6.61,0,0,1,1.4-2.36,6.78,6.78,0,0,1,2-1.66,3,3,0,0,1,2-.39,1.87,1.87,0,0,1,1.62.92,60.32,60.32,0,0,1,3.77,6.06c1.27,2.31,2.46,4.71,3.56,7.18A62.46,62.46,0,0,1,537,151.33Zm-55.82-4.23c1.64,0,2.5,1,2.59,3.1a6.17,6.17,0,0,1-.91,3.5,5.75,5.75,0,0,1-2.28,2.33,3,3,0,0,1-1.57.45,46.1,46.1,0,0,0-12.33,2,2.39,2.39,0,0,1-2.13-.35,2.91,2.91,0,0,1-.88-2.13,6.8,6.8,0,0,1,1-3.64,6.72,6.72,0,0,1,2.53-2.68l.43-.23a.89.89,0,0,1,.44-.13A63.38,63.38,0,0,1,481.19,147.1Zm-2.61,32.65a41.78,41.78,0,0,0-6.15.44,39.29,39.29,0,0,0-6.29,1.21,2.36,2.36,0,0,1-2.13-.35,3,3,0,0,1-.88-2.22,6.15,6.15,0,0,1,.91-3.5,6.64,6.64,0,0,1,2.45-2.53,4.53,4.53,0,0,1,.95-.42,58.78,58.78,0,0,1,6.63-1.4,52.5,52.5,0,0,1,6.4-.67,2,2,0,0,1,2,.74,3.51,3.51,0,0,1,.89,2.41,6.72,6.72,0,0,1-3.19,5.84A3.07,3.07,0,0,1,478.58,179.75Zm2.62,5.89a2.39,2.39,0,0,1,2.72-.08,2.77,2.77,0,0,1,1.16,2.38,6.32,6.32,0,0,1,0,1.12q-.63,4-1.74,9.25c-.73,3.4-1.59,7-2.55,10.7s-1.9,7.27-3,10.73-2.1,6.55-3.22,9.36a7.06,7.06,0,0,1-3.19,3.83,3.43,3.43,0,0,1-1.92.44c-1.24-.19-1.89-1-1.95-2.54a6.13,6.13,0,0,1,.43-2.43,184.78,184.78,0,0,0,5.83-18.69q2.58-9.81,4.06-19a6.7,6.7,0,0,1,1.19-2.95A6.41,6.41,0,0,1,481.2,185.64Zm15-7.65,29-15.76a4,4,0,0,1,4-.29c1.2.62,1.84,1.84,1.92,3.67l1.07,25.95a11.47,11.47,0,0,1-5.42,9.55l-29,15.75a4.21,4.21,0,0,1-4.12.34c-1.15-.65-1.76-1.88-1.83-3.71l-1.07-26A11.43,11.43,0,0,1,496.2,178Zm2.88,29.17c0,.39.2.5.54.31l24.64-13.37a.9.9,0,0,0,.49-.87l-.88-21.15c0-.39-.2-.49-.54-.31L498.7,185.15a.86.86,0,0,0-.49.86Zm124.69-68.1c1.65.11,2.51,1.11,2.59,3a6.42,6.42,0,0,1-.91,3.5,6.17,6.17,0,0,1-2.36,2.48,3.23,3.23,0,0,1-1.22.36,27.37,27.37,0,0,1-7.78-.78,37.58,37.58,0,0,1-8.15-3.28,2.53,2.53,0,0,1-1.15-2.28,6.24,6.24,0,0,1,1.25-3.88v-.3c0-.22-.07-.26-.36-.1l-5.43,2.94a.88.88,0,0,0-.49.87l.47,11.36a13.1,13.1,0,0,1-2.54,8.79q-2.67,3.64-9.06,6.72a2.4,2.4,0,0,1-2.64-.07,3,3,0,0,1-1.07-2.42,6.8,6.8,0,0,1,1.09-3.49,5.59,5.59,0,0,1,2.63-2.43,15.14,15.14,0,0,0,1.38-.65l1-.56a6.12,6.12,0,0,0,1.63-1.09,1.49,1.49,0,0,0,.32-.87l-.47-11.36c0-.39-.2-.49-.55-.31l-4.82,2.62a4.15,4.15,0,0,0-.68.47c-.17.16-.23.26-.17.29,1.18.1,1.8.86,1.86,2.3a5.42,5.42,0,0,1-.6,2.53,86.47,86.47,0,0,1-4.93,8.58,95.28,95.28,0,0,1-5.84,7.88q-3,3.63-5.72,6.31a2.86,2.86,0,0,1-.52.38,2.81,2.81,0,0,1-.51.38c-1.78,1-3,.61-3.57-1.07-.06-.17-.13-.33-.19-.5l0-.58a6.65,6.65,0,0,1,.51-2.68,8.08,8.08,0,0,1,1.74-2.65,103,103,0,0,0,7.22-8.52,72.11,72.11,0,0,0,5.54-8.62,5.68,5.68,0,0,1,.42-.62,7.38,7.38,0,0,1,.49-.77c.45-.45.42-.6-.1-.45a3.5,3.5,0,0,1-3.28-.52,4.27,4.27,0,0,1-1.46-3.41l-.47-11.16c0-.52-.22-.55-.62-.07-.78.9-1.59,1.84-2.43,2.83L571.19,141a5,5,0,0,1-1.19,1,2.63,2.63,0,0,1-2.46.23,2.86,2.86,0,0,1-1.07-2.42,7.83,7.83,0,0,1,2.41-5.81c.78-.83,1.54-1.68,2.27-2.54s1.54-1.8,2.26-2.73c.4-.41.44-.71.14-.88a7.14,7.14,0,0,0-1.54-1.16c-.6-.34-1.23-.67-1.89-1a2.42,2.42,0,0,1-1.15-2.18,5.55,5.55,0,0,1,1-3.44,4.44,4.44,0,0,1,.5-.68l-.09,0c-.06-.1-.21-.12-.44-.06a2.42,2.42,0,0,1-1.78-.53,2.8,2.8,0,0,1-.79-2,7,7,0,0,1,3.37-5.93l16.88-9.16a1,1,0,0,0,.58-.82c.21-.71.38-1.41.53-2.09s.38-1.54.52-2.29c.1-.39.21-.74.31-1.06s.32-.81.48-1.17.22-.38.16-.48-.13-.14-.36,0L565.38,107a.9.9,0,0,0-.49.87l1.34,32.41q.18,4.3,0,9.73t-.86,11.18a109.14,109.14,0,0,1-1.66,11.11A64.23,64.23,0,0,1,561,182a8.58,8.58,0,0,1-1.57,2.56,7.1,7.1,0,0,1-2,1.71,4.68,4.68,0,0,1-2.26.63c-1.29,0-2-.87-2-2.5a5.72,5.72,0,0,1,.51-2.58,64.46,64.46,0,0,0,3.55-11.94,95.75,95.75,0,0,0,1.59-12.78c0-.59-.23-.61-.62-.06q-1.67,2.4-3.42,4.66a5.94,5.94,0,0,1-1.53,1.33,2.42,2.42,0,0,1-2.28.14,2.64,2.64,0,0,1-1.16-2.38,10.26,10.26,0,0,1,2.54-6.88,46.5,46.5,0,0,0,6.36-10.06,1.61,1.61,0,0,0,.23-.83l-.5-12.14c0-.33-.25-.37-.71-.12q-2.42,1.32-3.38-.86a27.4,27.4,0,0,0-2.48-4.47,25,25,0,0,0-2.88-3.74,2.88,2.88,0,0,1-.79-2.07,6.21,6.21,0,0,1,1.58-4.36,6.77,6.77,0,0,1,2.12-1.86q2.32-1.26,3.54.29c.3.36.61.76.93,1.19a11.65,11.65,0,0,1,.84,1.15c.12.2.24.27.36.2a.72.72,0,0,0,.23-.63l-.27-6.56a9.07,9.07,0,0,1,1.38-5,9.38,9.38,0,0,1,3.63-3.77L584.85,88a.87.87,0,0,0,.49-.87l-.06-1.47a6.42,6.42,0,0,1,1-3.64,6.75,6.75,0,0,1,2.62-2.72,2.48,2.48,0,0,1,4,2.25l.06,1.47q0,.59.54.3l25.15-13.65a2.45,2.45,0,0,1,2.64-.13,2.53,2.53,0,0,1,1.15,2.28A7.36,7.36,0,0,1,619,77.9L595.53,90.62q-.78.42-.15.78a2.26,2.26,0,0,1,1.06,2,3,3,0,0,1-.07.64,2.35,2.35,0,0,1-.06.63c0,.29-.09.59-.14.88a7.17,7.17,0,0,1-.23.82c-.15.56,0,.72.38.5l21.35-11.59a2.52,2.52,0,0,1,2.55-.18,2.48,2.48,0,0,1,1.15,2.27,6.72,6.72,0,0,1-.91,3.4A6.39,6.39,0,0,1,618,93.34l-.09,0a2.26,2.26,0,0,1,1.14-.21c1.17.09,1.79.86,1.85,2.29a4.75,4.75,0,0,1-.27,1.85,39.52,39.52,0,0,1-3,6.73c-.16.42-.12.7.12.83.76,0,1.53.14,2.3.25s1.65.14,2.47.16c1.53,0,2.33,1,2.41,2.8a6,6,0,0,1-.92,3.4,5.57,5.57,0,0,1-2.11,2.25,3.6,3.6,0,0,1-1.3.41,29.61,29.61,0,0,1-6.28-.7c-.42-.11-.61.13-.59.72l.51,12.34a9.73,9.73,0,0,1-1.12,4.71,10.92,10.92,0,0,1-3,3.94c-.34.25-.37.4-.07.44a2.89,2.89,0,0,1,1.42.33,19.81,19.81,0,0,0,6,2.25A37.39,37.39,0,0,0,623.77,139.06Zm-47.3-21.77a18.26,18.26,0,0,1,1.37,1.26,12.16,12.16,0,0,1,1.28,1.3c.25.14.5,0,.78-.32q2-3.37,3.69-6.81c.26-.61.14-.77-.38-.49l-7.32,4a.82.82,0,0,0-.42.43c0,.13.1.22.27.25A1.11,1.11,0,0,1,576.47,117.29Zm21.92-12.9a.56.56,0,0,0-.71,0l-4.56,2.48a1,1,0,0,0-.59.72,98.63,98.63,0,0,1-5.5,11.89c-.38.68-.28.86.29.55l17.48-9.5c.23-.12.35-.25.34-.38a.4.4,0,0,0-.2-.49,37.86,37.86,0,0,1-3.53-2.29A32.55,32.55,0,0,1,598.39,104.39Zm16.42-7.52a6.48,6.48,0,0,1,2.51-3.16L607.59,99c-.46.25-.54.53-.23.83.6.47,1.24.93,1.9,1.37s1.36.86,2.08,1.27c.3.17.53.05.69-.37A37.22,37.22,0,0,0,614.81,96.87Zm-30.89,34.69c0,.4.2.5.55.31L606.26,120a.9.9,0,0,0,.49-.87l-.07-1.56c0-.4-.19-.5-.54-.31l-21.79,11.83a.88.88,0,0,0-.49.87Zm.84,7.46a.88.88,0,0,0-.49.87l.06,1.37q0,.59.54.3l21.79-11.83a.88.88,0,0,0,.49-.86l-.06-1.38q0-.58-.54-.3ZM410.9,323.27a76.5,76.5,0,0,0,10.27-26.2,7.78,7.78,0,0,1,1.28-3.1,6.19,6.19,0,0,1,2.2-2.19,2.66,2.66,0,0,1,2.81-.23,2.58,2.58,0,0,1,1.24,2.33,5.59,5.59,0,0,1,0,1.13c-.14.94-.33,1.91-.58,2.92s-.53,2.05-.84,3.15c-.16.56,0,.71.46.46l23.85-13a2.47,2.47,0,0,1,2.64-.13,2.58,2.58,0,0,1,1.24,2.33,6.66,6.66,0,0,1-1,3.55A6.25,6.25,0,0,1,451.9,297l-28.07,15.25a1.55,1.55,0,0,0-.68.76q-1.51,3.74-3.39,7.45a79.49,79.49,0,0,1-4,7.09,5.55,5.55,0,0,1-2.12,2.05,2.54,2.54,0,0,1-3-.07,3.22,3.22,0,0,1-.8-2.27,7.69,7.69,0,0,1,.18-1.91A9.65,9.65,0,0,1,410.9,323.27Zm-13,16.7q0,.58.54.3l6.63-3.6a4,4,0,0,1,4-.29c1.14.59,1.75,1.76,1.82,3.52q.17,3.92.28,8.86c.07,3.23.12,6.47.14,9.74s0,6.21-.08,8.85-.07,4.58-.19,5.91q-.48,7.47-3,11.95a20,20,0,0,1-8.14,7.53l-1.12.61a10.76,10.76,0,0,1-1.21.55,2.33,2.33,0,0,1-2.56-.11,3,3,0,0,1-1.07-2.42,6.12,6.12,0,0,1,1.09-3.59,6.7,6.7,0,0,1,2.71-2.58l1.3-.5,1.12-.61a5.6,5.6,0,0,0,2.79-2.72,22,22,0,0,0,.83-5.36c.12-1.4.18-3.69.16-6.89s0-6.82-.1-10.86-.13-8.07-.22-11.89c0-.39-.2-.49-.55-.31l-4.39,2.39a.88.88,0,0,0-.49.87q-.11,8.16-1,16.55t-2.24,15.94q-1.37,7.54-2.88,13.38a10,10,0,0,1-1.55,3.14,7.36,7.36,0,0,1-2.46,2.23,2.49,2.49,0,0,1-2.46.24,2,2,0,0,1-1-1.84,5,5,0,0,1,.2-1.51q2.43-9.52,3.67-17.71T390.26,365q.51-6.58.51-11.09t0-6.6l-.59-14.2q0-.58-.54-.3l-3.88,2.1a2.69,2.69,0,0,1-2.72.18,2.78,2.78,0,0,1-1.15-2.38,6.3,6.3,0,0,1,1-3.54,6.72,6.72,0,0,1,2.53-2.68l7.15-3.88a.89.89,0,0,0,.5-.87l-.34-8a7.07,7.07,0,0,1,.91-3.59,6.72,6.72,0,0,1,2.62-2.73,2.54,2.54,0,0,1,2.72-.17,2.68,2.68,0,0,1,1.25,2.42l.33,8c0,.4.19.5.54.31l7-3.79a2.45,2.45,0,0,1,2.63-.13,2.58,2.58,0,0,1,1.24,2.33,6.64,6.64,0,0,1-1,3.55,6.32,6.32,0,0,1-2.54,2.67l-10.5,5.71a.88.88,0,0,0-.5.87Zm59.25,8.17a3.37,3.37,0,0,1,2,3.33,7.21,7.21,0,0,1-.26,2.24,5.79,5.79,0,0,1-1.14,2.32,5.42,5.42,0,0,1-1.7,1.53,2,2,0,0,1-1.75.24,23.37,23.37,0,0,1-8.93-5.25,40.31,40.31,0,0,1-7.53-9.44,60.21,60.21,0,0,1-5.27-12.45c-.13-.46-.37-.47-.7,0l-.92,1.2a1.25,1.25,0,0,0-.32.87l1.61,38.88a6.61,6.61,0,0,1-1,3.54,6.73,6.73,0,0,1-2.61,2.72,2.69,2.69,0,0,1-2.73.18,2.46,2.46,0,0,1-1.24-2.33L423.17,341c0-.59-.23-.64-.62-.16-1.19,1.24-2.34,2.4-3.47,3.48s-2.15,2-3.22,2.95a5.62,5.62,0,0,1-.95.61,2.86,2.86,0,0,1-2.54.28,2.53,2.53,0,0,1-1.25-2.42,6.68,6.68,0,0,1,.67-3,7.46,7.46,0,0,1,2-2.79q5.77-5.24,11.33-11.36t10.32-12.31q4.77-6.18,8-11.05a6.45,6.45,0,0,1,2.2-2.09,2.19,2.19,0,0,1,2.83.16,1.6,1.6,0,0,1,.57,1,4.69,4.69,0,0,1,.23,1.27,6.71,6.71,0,0,1-1.41,4.37c-1.22,1.8-2.57,3.7-4.08,5.72s-3,4-4.59,6c-.28.35-.36.66-.23.92q1.16,4.38,2.44,7.89c.08.36.31.36.71,0q2.7-2.76,5.3-5.88t5.42-7.25a8.14,8.14,0,0,1,2.46-2.43c1.15-.63,2-.47,2.66.46a2.94,2.94,0,0,1,.6,1.77,9,9,0,0,1-2.06,5.53q-2.58,3.6-5.6,7.34c-1.95,2.4-3.86,4.56-5.72,6.51-.33.32-.41.62-.22.92a33.43,33.43,0,0,0,5.47,6.55A24.75,24.75,0,0,0,457.1,348.14Zm40.54-39.73a1.92,1.92,0,0,1,.11.54,2.17,2.17,0,0,1,.11.64,7.12,7.12,0,0,1-2.5,5.56l-.59.53-.52.28a2.8,2.8,0,0,1-2.1.34,2.49,2.49,0,0,1-1.29-1.5,21,21,0,0,0-.71-2.12,16.14,16.14,0,0,0-.69-1.93c-.07-.29-.19-.36-.36-.2a.78.78,0,0,0-.24.63l1.2,29.08a6.19,6.19,0,0,1-1,3.45,6.36,6.36,0,0,1-2.53,2.67,2.71,2.71,0,0,1-2.73.18,2.53,2.53,0,0,1-1.15-2.28l-1.09-26.53c0-.33-.11-.45-.28-.35s-.23.15-.33.48c-.84,2.39-1.77,4.79-2.79,7.22s-2,4.76-3.14,7.11a6.15,6.15,0,0,1-2.52,2.87,2.47,2.47,0,0,1-2.55.08,3.17,3.17,0,0,1-1.25-2.62,7,7,0,0,1,.9-3.6,98.53,98.53,0,0,0,6-15.16,95.21,95.21,0,0,0,3.49-15.71v-.19q0-.5-.54-.21l-6.63,3.6a2.79,2.79,0,0,1-2.63.23,2.62,2.62,0,0,1-1.15-2.38,6.25,6.25,0,0,1,.91-3.4,6.33,6.33,0,0,1,2.53-2.68l8.27-4.49a.86.86,0,0,0,.49-.86l-.45-10.87c0-.46-.23-.55-.63-.26l-3.32,2.6c-1.08.79-2.11,1.52-3.08,2.18A3.07,3.07,0,0,1,470,282a2.39,2.39,0,0,1-1.33-2.38,6.42,6.42,0,0,1,.75-3.11,8,8,0,0,1,2.26-2.83q2.56-1.89,6.06-4.6t7.07-5.74q3.66-3.09,6.37-5.76a1.68,1.68,0,0,1,.51-.47l.69-.38a2.64,2.64,0,0,1,1.92-.34,1.6,1.6,0,0,1,1.29,1.3,2.69,2.69,0,0,1,.11.64,1.87,1.87,0,0,1,.12.64,7,7,0,0,1-.59,2.92,7.77,7.77,0,0,1-1.82,2.69l-2.71,2.58c-1,.85-2,1.74-3.06,2.66a1.13,1.13,0,0,0-.41.82l.54,13c0,.4.2.5.54.31l6.12-3.32a2.45,2.45,0,0,1,3.78,2.15,6.57,6.57,0,0,1-1,3.55,6.3,6.3,0,0,1-2.45,2.53l-6.11,3.32a.82.82,0,0,0-.5.77v.09c0,.27.07.43.19.5Q493.84,297.27,497.64,308.41Zm32.92-38.59-25,13.56a3.68,3.68,0,0,1-5.95-3.38l-.79-19.19a10.1,10.1,0,0,1,1.44-5.49,10.48,10.48,0,0,1,4-4.06l25-13.56a4,4,0,0,1,4-.29c1.2.61,1.84,1.84,1.91,3.66l.79,19.2a10.41,10.41,0,0,1-1.44,5.49A10.22,10.22,0,0,1,530.56,269.82ZM528,247.4c0-.39-.2-.5-.54-.31l-20.67,11.23a.85.85,0,0,0-.49.86l.59,14.49c0,.4.2.5.54.31l20.68-11.22a.9.9,0,0,0,.49-.87Zm-4.36,69.14c0,.39.19.5.54.31L540.42,308a2.5,2.5,0,0,1,2.54-.18,2.46,2.46,0,0,1,1.25,2.33,7.82,7.82,0,0,1-3.45,6.08l-40.91,22.21a2.6,2.6,0,0,1-2.64.13,2.53,2.53,0,0,1-1.15-2.28,6.35,6.35,0,0,1,.92-3.4,6.56,6.56,0,0,1,2.53-2.67l16.19-8.8a.86.86,0,0,0,.49-.86l-.43-10.38c0-.39-.19-.5-.54-.31l-11,6a2.6,2.6,0,0,1-2.63.23,2.75,2.75,0,0,1-1.16-2.37,6.24,6.24,0,0,1,.92-3.4,6.59,6.59,0,0,1,2.53-2.68l11-6a.85.85,0,0,0,.49-.86l-.31-7.64c0-.39-.2-.5-.54-.31L500,300.74a2.33,2.33,0,0,1-3.79-2.14,6.43,6.43,0,0,1,.92-3.5,6.75,6.75,0,0,1,2.53-2.58L537.34,272a2.52,2.52,0,0,1,2.55-.18,2.44,2.44,0,0,1,1.24,2.33,6.61,6.61,0,0,1-1,3.54,6.24,6.24,0,0,1-2.45,2.53l-14.72,8a.89.89,0,0,0-.5.87l.32,7.64q0,.59.54.3l11.2-6.08a2.45,2.45,0,0,1,2.63-.13,2.49,2.49,0,0,1,1.15,2.28,6.64,6.64,0,0,1-1,3.55,6.43,6.43,0,0,1-2.45,2.53l-11.2,6.08a.87.87,0,0,0-.49.87Z" transform="translate(0 0)"/><path class="cls-7" d="M903.56,419.71l-15.73-9.18,15.73-9.17,16.05,9.17Z" transform="translate(0 0)"/><path class="cls-8" d="M903.56,412.82l-2.29-1.31V389.56l2.29,1.31Z" transform="translate(0 0)"/><path class="cls-9" d="M905.85,411.51l-2.29,1.31V390.87l2.29-1.31Z" transform="translate(0 0)"/><path class="cls-9" d="M914.7,398.73l-11.14,6.56V392.51l11.14-6.23Z" transform="translate(0 0)"/><path class="cls-10" d="M903.56,405.29l-10.81-6.56V386.28l10.81,6.23Z" transform="translate(0 0)"/><path class="cls-8" d="M903.56,392.51l-10.81-6.23,10.81-6.55,11.14,6.55Z" transform="translate(0 0)"/><path class="cls-7" d="M875.05,404l-16-9.18,16-9.17,15.73,9.17Z" transform="translate(0 0)"/><path class="cls-8" d="M875.05,397.1l-2.29-1.31v-22l2.29,1.31Z" transform="translate(0 0)"/><path class="cls-9" d="M877.35,395.79l-2.3,1.31v-22l2.3-1.31Z" transform="translate(0 0)"/><path class="cls-9" d="M885.87,383l-10.82,6.22V376.78l10.82-6.55Z" transform="translate(0 0)"/><path class="cls-10" d="M875.05,389.23,863.91,383V370.23l11.14,6.55Z" transform="translate(0 0)"/><path class="cls-8" d="M875.05,376.78l-11.14-6.55L875.05,364l10.82,6.23Z" transform="translate(0 0)"/><path class="cls-7" d="M817,717.12s.33,11.15-16.38,13.77c-16.38,2.62-53.08-21-56.35-22.94s-6.55-9.83-6.23-14.42c.33-4.91,7.21-1,7.21-1Z" transform="translate(0 0)"/><path class="cls-11" d="M797.32,721.06l1.32,5.24c0,.66,0,1,1,.66,2.29-.33,7.86-1.32,12.12-4.26a29.87,29.87,0,0,0,3.93-3,3.79,3.79,0,0,0,1.31-3.28v-6.23l-16.71,6.23a.71.71,0,0,0-.65.65l-2,3A3.32,3.32,0,0,1,797.32,721.06Z" transform="translate(0 0)"/><path class="cls-12" d="M775.37,716.14l10.49-2.62L775,708v7.21Z" transform="translate(0 0)"/><path class="cls-13" d="M787.17,720.07c0-3-2.3-6.88-4.92-8.52-1.31-.65-2.62-1-3.6-.32l-1,.65H778a4.84,4.84,0,0,0-.65,2.3c0,2.94,2.29,6.88,4.91,8.52a8.63,8.63,0,0,0,2.3.65l-.33.33,1.31-.66C786.51,722.7,787.17,721.71,787.17,720.07Z" transform="translate(0 0)"/><path class="cls-14" d="M785.86,720.73c0,2.95-2.3,4.26-4.92,2.95s-4.91-5.25-4.91-8.52c0-2.95,2.29-4.26,4.91-2.95C783.56,713.85,785.86,717.78,785.86,720.73Z" transform="translate(0 0)"/><path class="cls-15" d="M783.89,719.75c0,2-1.31,2.62-2.95,1.63a6.58,6.58,0,0,1-3-4.91c0-2,1.31-2.62,3-1.64A5.66,5.66,0,0,1,783.89,719.75Z" transform="translate(0 0)"/><path class="cls-14" d="M781.6,718.43c0,.33-.33.66-.66.33a1.69,1.69,0,0,1-.65-1.31c0-.33.32-.65.65-.33A2.51,2.51,0,0,1,781.6,718.43Z" transform="translate(0 0)"/><path class="cls-12" d="M742.94,697.46h1l3.28-3.6-3.61-.33-1,3.61Z" transform="translate(0 0)"/><path class="cls-13" d="M754.08,703c0-2.94-2.3-6.88-4.92-8.51-1.31-.66-2.62-1-3.6-.33l-1,.65h.32a4.84,4.84,0,0,0-.65,2.3c0,3,2.29,6.88,4.91,8.52a8.53,8.53,0,0,0,2.3.65l-.33.33,1.31-.66C753.75,705.66,754.08,704.67,754.08,703Z" transform="translate(0 0)"/><path class="cls-14" d="M752.77,704c0,3-2.3,4.26-4.92,3s-4.91-5.25-4.91-8.52c0-3,2.29-4.26,4.91-3A10.19,10.19,0,0,1,752.77,704Z" transform="translate(0 0)"/><path class="cls-15" d="M750.8,702.71c0,2-1.31,2.62-2.95,1.64a6.62,6.62,0,0,1-3-4.92c0-2,1.31-2.62,3-1.64A5.66,5.66,0,0,1,750.8,702.71Z" transform="translate(0 0)"/><path class="cls-14" d="M748.83,701.4c0,.32-.32.65-.65.32a1.68,1.68,0,0,1-.66-1.31c0-.32.33-.65.66-.32A2.42,2.42,0,0,1,748.83,701.4Z" transform="translate(0 0)"/><path class="cls-16" d="M739.66,685l18-11.47a2.48,2.48,0,0,1,2.62-.32l4.59,1.63s10.15-1,18.35,3.28a45.63,45.63,0,0,1,14.41,12.13c1.31,1.31,5.9,6.88,5.9,6.88s12.78,9.5,13.43,13.76a46.23,46.23,0,0,1-18.34,10.48,2,2,0,0,1-1.32-.32l-16.05-9.51-41.94-22.61Z" transform="translate(0 0)"/><path class="cls-17" d="M795.69,717.45c-4.26-4.26-12.78-9.83-16.39-15.4s-10.15-11.8-17.69-14.09a37.09,37.09,0,0,0-13.76-1l-7.21-2.3c-.65-.32-1.31.33-1.31,1v3.6a3.49,3.49,0,0,0-1,3.28,5.11,5.11,0,0,0,1.64,3.28l3,1.63v-.32c.33-2.63,2.95-3.94,5.89-2.3a11,11,0,0,1,4.92,8.52v.33l19.66,11.14,2.29,1.31H776c0-1-.33-4.91,3.27-4.91,3.94,0,7.21,5.57,7.54,8.84v2.63l5.57,3.27a19.23,19.23,0,0,0,6.23,1.64c.32,0,.32,0,.32-.33C799,725.64,799.29,721.06,795.69,717.45Z" transform="translate(0 0)"/><path class="cls-15" d="M748.18,688.94l34.07,20s-4.91-10.48-11.79-15.4c-6.55-4.59-10.49-5.57-15.07-5.9A13.82,13.82,0,0,0,748.18,688.94Z" transform="translate(0 0)"/><path class="cls-15" d="M777,695.5,785.53,706c.33.33.65.66,1.31.33a39.66,39.66,0,0,0,14.74-8.85.61.61,0,0,0,0-1L792.41,686a.62.62,0,0,0-1,0c-1.31,1.32-5.57,5.25-14.09,8.53C776.68,694.52,776.68,695.17,777,695.5Z" transform="translate(0 0)"/><path class="cls-15" d="M756.7,685.34c-.66,0-2.62-.33-4.59-.33-.33,0-.33-.33,0-.33l13.11-8.19h.32a18.15,18.15,0,0,1,4.26,0c.33,0,.33.33,0,.33L757,685.67C757.35,685.34,757,685.34,756.7,685.34Z" transform="translate(0 0)"/><path class="cls-18" d="M739.33,688.94v-2.29s2.62,1,2.95,2.29C742,690.91,739.33,688.94,739.33,688.94Z" transform="translate(0 0)"/><path class="cls-15" d="M817,712.54v3.27a3.34,3.34,0,0,1-2.29,1.31c-1.31-.32-.66-2.29,0-2.62A16.39,16.39,0,0,0,817,712.54Z" transform="translate(0 0)"/><path class="cls-15" d="M798.63,722.7s3-1.31,3.61-.66a1.84,1.84,0,0,1-1,3,5.69,5.69,0,0,1-2.63.65,2.47,2.47,0,0,1-1.63-.32,1.69,1.69,0,0,1,0-2.62C797.32,722.37,798.63,722.7,798.63,722.7Z" transform="translate(0 0)"/><path class="cls-7" d="M1259.4,630.45,1244,621.6l15.4-8.84,15.4,8.84Z" transform="translate(0 0)"/><path class="cls-8" d="M1259.4,623.57l-2-1.31V603.58l2,1Z" transform="translate(0 0)"/><path class="cls-19" d="M1261.36,622.26l-2,1.31v-19l2-1Z" transform="translate(0 0)"/><path class="cls-10" d="M1259.4,618l-13.76-7.86L1259.4,560Z" transform="translate(0 0)"/><path class="cls-20" d="M1272.83,610.14,1259.4,618V560Z" transform="translate(0 0)"/><path class="cls-7" d="M1297.4,649.45,1282,640.6l15.4-8.84,15.4,8.84Z" transform="translate(0 0)"/><path class="cls-8" d="M1297.4,642.57l-2-1.31V622.58l2,1Z" transform="translate(0 0)"/><path class="cls-21" d="M1299.36,641.26l-2,1.31v-19l2-1Z" transform="translate(0 0)"/><path class="cls-10" d="M1297.4,637l-13.76-7.86L1297.4,579Z" transform="translate(0 0)"/><path class="cls-22" d="M1310.83,629.14,1297.4,637V579Z" transform="translate(0 0)"/><path class="cls-7" d="M1335.4,668.45,1320,659.6l15.4-8.84,15.4,8.84Z" transform="translate(0 0)"/><path class="cls-8" d="M1335.4,661.57l-2-1.31V641.58l2,1Z" transform="translate(0 0)"/><path class="cls-23" d="M1337.36,660.26l-2,1.31v-19l2-1Z" transform="translate(0 0)"/><path class="cls-10" d="M1335.4,656l-13.76-7.86L1335.4,598Z" transform="translate(0 0)"/><path class="cls-24" d="M1348.83,648.14,1335.4,656V598Z" transform="translate(0 0)"/><path class="cls-8" d="M458.07,516.53s3.28-17.37-15.07-16.39C443,500.14,443.33,519.47,458.07,516.53Z" transform="translate(0 0)"/><path class="cls-8" d="M470.85,523.08s-5.57-11.47,11.47-15.07C482,508,484,524.39,470.85,523.08Z" transform="translate(0 0)"/><path class="cls-10" d="M475.44,489s9.17,19.66-8.2,23.27C467.24,511.94,455.12,497.85,475.44,489Z" transform="translate(0 0)"/><path class="cls-9" d="M465.93,532.25h.66v-1.31a59.14,59.14,0,0,1,0-10.81,100.11,100.11,0,0,1,1.64-10.49,30.66,30.66,0,0,1,1.31-5.24c.33-1.64,1-3.6,1.31-5.24a55.38,55.38,0,0,0-3,10.48c-.33,1.64-.66,3.61-1,5.25s-.33,3.6-.66,5.24c0,1.64-.33,3.6-.33,5.57a31.56,31.56,0,0,0,.33,5.57C465.93,531.27,465.93,531.6,465.93,532.25Z" transform="translate(0 0)"/><path class="cls-9" d="M452.17,507.35l1,1.31a4.82,4.82,0,0,1,1,1.31,1.7,1.7,0,0,1,.65,1.31l.66,1.31a2.51,2.51,0,0,1,.66,1.31l.65,1.31c.33.33.33,1,.66,1.32.32,1,1,1.63,1.31,2.62l1.31,2.62.32.65.33.66.66,1.31c.65,2,1.31,3.6,2,5.57l.33.65.33.66.33,1.31v.33H465l-.65-2-.33-.65-.33-.66c-.66-2-1.31-3.93-2-5.57l-.65-1.31-.33-.65-.33-.66-1.31-2.62c-.32-1-1-1.64-1.31-2.62-.32-.33-.32-1-.65-1.31l-.66-1.31a2.56,2.56,0,0,1-.65-1.31l-1-1.32a4.52,4.52,0,0,1-1-1.31,4.35,4.35,0,0,1-1-1.31l-.66-1-.65-1.31a14.56,14.56,0,0,0-2.29-2l2,2Z" transform="translate(0 0)"/><path class="cls-9" d="M468.56,532.91v-.66l.32-1,.33-1.64.33-1.64a38.54,38.54,0,0,1,2.29-6.55c.66-1,1-2,1.64-3a18.28,18.28,0,0,1,2.29-3,8.88,8.88,0,0,0-2.29,2.62,7.36,7.36,0,0,0-1,1.64c-.33.66-.66,1-1,1.64a40,40,0,0,0-2.62,6.55l-.32,1.64-.33,1.64-.33,1v1h.66Z" transform="translate(0 0)"/><path class="cls-7" d="M475.76,537.83c-5.57,3.27-14.41,3.27-19.65,0-5.57-3.28-5.57-8.2,0-11.47s14.41-3.28,19.65,0C481.33,529.63,481.33,534.88,475.76,537.83Z" transform="translate(0 0)"/><path class="cls-25" d="M708.26,387.57l151.9,87.73c-18.4,19.07-18.11,42.54.87,61.45a82.81,82.81,0,0,0,17.24,13c35.93,20.73,90.82,23.79,132.34,9.19l45.56,26.19L834.06,713.26l-170-98,67.7-38.52-46.06-26.78-67.93,38.6-75.85-43.75-.09.05L533,539.74a33.88,33.88,0,0,0-34,0l-155.82,90,46.24,26.73,126.66-73.1L814,755.18a40,40,0,0,0,40.07,0L925.32,714l248.36,142.15,46.24-26.68L971.6,687.34l132.52-76.46,361,201.56,1.89-52.19L1053.61,530.19c12.36-16.59,11.62-35.66-2.19-52L1205,389.55l-46.24-26.72-152.57,88.06c-28.76-9.08-63.16-10-93.1-2.86L779.57,370.94l162.08-93.57-50.08-28.94L708.26,354.26A19.21,19.21,0,0,0,708.26,387.57Zm194.23,126.8c-5.28-10.58-.7-22.45,13.73-30.79,13.12-7.58,31.33-10.46,48.28-8.66a77.87,77.87,0,0,1,22,5.5,58.66,58.66,0,0,1,6.35,3.16,39.07,39.07,0,0,1,4.15,2.7c.49.35,1,.7,1.48,1,15.31,12.22,13.43,29.39-5.63,40.4-21.14,12.22-55.44,12.22-76.62,0C909.52,523.85,905,519.25,902.49,514.37Z" transform="translate(0 0)"/><g class="cls-26"><path class="cls-27" d="M860.16,475.3l1.44,1.39,1.78-1.84-2.22-1.28Zm-151.9-87.73,1-1.73h0ZM861,536.75l1.42-1.41h0Zm17.24,13,1-1.74h0Zm132.34,9.19,1-1.73-.79-.46-.87.31Zm45.56,26.19,1,1.73,3-1.73-3-1.74ZM834.06,713.26l-1,1.74,1,.57,1-.57Zm-170-98-1-1.74-3,1.73,3,1.74Zm67.7-38.52,1,1.74,3-1.73-3-1.74Zm-46.06-26.78,1-1.72-1-.58-1,.57Zm-67.93,38.6-1,1.73,1,.57,1-.56Zm-75.85-43.75,1-1.73-.93-.54-1,.48Zm-.09.05-1,1.73.94.54,1-.48ZM533,539.74l-1,1.73h0Zm-34,0L498,538h0Zm-155.82,90-1-1.73-3,1.73,3,1.74Zm46.24,26.73-1,1.73,1,.58,1-.57Zm126.66-73.1,1-1.74-1-.57-1,.57ZM814,755.18l1-1.73h0Zm40.07,0-1-1.73h0ZM925.32,714l1-1.73-1-.58-1,.58Zm248.36,142.15-1,1.73,1,.57,1-.57Zm46.24-26.68,1,1.73,3-1.74-3-1.73ZM971.6,687.34l-1-1.74-3,1.74,3,1.73Zm132.52-76.46,1-1.75-1-.55-1,.57Zm361,201.56-1,1.75,2.86,1.59.12-3.26Zm1.89-52.19,2,.07,0-1.22-1.07-.6ZM1053.61,530.19,1052,529l-1.36,1.83,2,1.11Zm-2.19-52-1-1.73-2.08,1.19,1.55,1.83ZM1205,389.55l1,1.74,3-1.73-3-1.74Zm-46.24-26.72,1-1.73-1-.58-1,.58Zm-152.57,88.06-.61,1.91.84.26.77-.44ZM913.09,448l-1,1.73.69.4.78-.18ZM779.57,370.94l-1-1.73-3,1.73,3,1.73Zm162.08-93.57,1,1.73,3-1.73-3-1.73Zm-50.08-28.94,1-1.73-1-.58-1,.58ZM708.26,354.26l1,1.74h0ZM902.49,514.37l-1.79.9h0Zm13.73-30.79-1-1.74h0Zm48.28-8.66.22-2h0Zm22,5.5.78-1.84Zm6.35,3.16-1,1.73h0Zm4.15,2.7-1.2,1.6h0Zm1.48,1,1.25-1.56-.08-.06-.08-.06Zm-5.63,40.4,1,1.73Zm-76.62,0-1,1.73h0Zm-55-54.13-151.9-87.73-2,3.46L859.16,477Zm1.29,61.76c-9.2-9.16-13.73-19.28-13.87-29.27s4.11-20.14,13-29.37l-2.88-2.78c-9.49,9.84-14.29,21-14.14,32.2s5.26,22.31,15,32.06Zm-2.83,2.83a84.41,84.41,0,0,0,17.66,13.27l2-3.47a80.58,80.58,0,0,1-16.82-12.62Zm17.65,13.27c36.5,21.06,92,24.12,134,9.35l-1.33-3.77c-41,14.43-95.32,11.36-130.67-9Zm132.34,9.19,45.57,26.19,2-3.47-45.57-26.18Zm45.56,22.73L833.06,711.53l2,3.47,222.11-128.19ZM835.06,711.53l-170-98-2,3.47,170,98ZM730.79,575l-67.7,38.52,2,3.48,67.7-38.52Zm-46.08-23.31,46.07,26.78,2-3.46-46.07-26.77Zm-65.94,38.61,67.94-38.6-2-3.47L616.8,586.79Zm0-3.48-75.85-43.74-2,3.47,75.84,43.74ZM541.05,543l-.09,0,1.79,3.58.09,0Zm1.8.11L534,538l-2,3.47,8.83,5.09ZM534,538a35.89,35.89,0,0,0-36,0l2,3.47a31.9,31.9,0,0,1,32,0Zm-36,0L342.22,628l2,3.47,155.82-90ZM342.22,631.48l46.24,26.72,2-3.46L344.22,628Zm48.24,26.73L517.12,585.1l-2-3.47L388.46,654.74ZM515.12,585.1,813,756.91l2-3.46L517.12,581.63ZM813,756.91a42,42,0,0,0,42.08,0l-2-3.46a38,38,0,0,1-38.06,0Zm42.07,0,71.3-41.14-2-3.46L853,753.45Zm319.65,97.54L926.32,712.31l-2,3.47,248.35,142.14Zm44.25-26.68-46.24,26.69,2,3.46,46.24-26.68ZM970.61,689.07l248.32,142.17,2-3.47L972.6,685.6Zm2,0,132.52-76.46-2-3.46L970.61,685.6ZM1466.08,810.7l-361-201.57-1.95,3.49,361,201.57ZM1465,760.18l-1.89,52.19,4,.15,1.89-52.2ZM1052.64,531.93,1466,762l1.94-3.5L1054.59,528.44Zm-2.75-52.42c6.67,7.87,10.1,16.3,10.44,24.67S1058,521,1052,529l3.21,2.39c6.41-8.61,9.49-18,9.11-27.36s-4.24-18.65-11.39-27.09Zm2.53.44L1206,391.29l-2-3.47-153.58,88.67ZM1206,387.82l-46.24-26.72-2,3.46L1204,391.29Zm-48.24-26.72-152.57,88.06,2,3.46,152.57-88.06ZM913.56,450c29.6-7.1,63.63-6.15,92,2.82l1.21-3.82c-29.12-9.19-63.88-10.15-94.17-2.9Zm-135-77.31,133.52,77.09,2-3.46L780.57,369.21Zm162.08-97L778.57,369.21l2,3.46L942.65,279.1Zm-50.08-25.48,50.07,28.94,2-3.46L892.57,246.7ZM709.26,356,892.57,250.17l-2-3.47L707.26,352.53Zm0,29.85a17.21,17.21,0,0,1,0-29.84l-2-3.47a21.21,21.21,0,0,0,0,36.77Zm195,127.64a16.8,16.8,0,0,1-.48-14.56c2.08-4.83,6.47-9.59,13.42-13.61l-2-3.47c-7.48,4.33-12.59,9.67-15.09,15.51a20.75,20.75,0,0,0,.57,17.92Zm12.94-28.17c12.67-7.31,30.43-10.17,47.06-8.4l.43-4c-17.26-1.83-35.92,1.08-49.49,8.91Zm47.06-8.4a75.61,75.61,0,0,1,21.38,5.35l1.57-3.68a79.89,79.89,0,0,0-22.51-5.65Zm21.38,5.35a56.6,56.6,0,0,1,6.14,3.05l2-3.47a61.77,61.77,0,0,0-6.57-3.26Zm6.14,3.05a38,38,0,0,1,4,2.57l2.4-3.2a42.91,42.91,0,0,0-4.35-2.84Zm4,2.59c.52.37,1,.73,1.57,1.08l2.18-3.36c-.47-.3-.94-.62-1.4-1Zm-2,41.53c9.86-5.69,15.64-13.2,16.69-21.22s-2.77-16-10.81-22.47l-2.5,3.12c7.27,5.81,10.16,12.52,9.34,18.84s-5.52,13-14.72,18.27Zm-78.62,0c11,6.33,25.2,9.43,39.33,9.43s28.35-3.1,39.29-9.43l-2-3.46c-10.19,5.89-23.69,8.89-37.29,8.89s-27.11-3-37.33-8.89Zm-14.47-14.15c2.68,5.31,7.57,10.17,14.47,14.15l2-3.46c-6.42-3.71-10.66-8.05-12.9-12.5Z" transform="translate(0 0)"/></g><rect class="cls-28" x="947" y="560.5" width="240.23" height="109.48"/><rect class="cls-28" x="987.79" y="496" width="153.07" height="177.82"/><rect class="cls-28" x="1148.4" y="207" width="181.93" height="182.81"/><rect class="cls-28" x="1091" y="353.6" width="95.67" height="72.42"/><rect class="cls-28" x="1179.9" y="356.55" width="118.64" height="47.4"/><rect class="cls-28" x="825" y="164" width="214" height="149"/><rect class="cls-28" x="222" y="405" width="318" height="271"/><rect class="cls-28" x="566" y="312" width="279" height="279"/></svg>