<svg id="圖層_1" data-name="圖層 1" xmlns="http://www.w3.org/2000/svg" xmlns:xlink="http://www.w3.org/1999/xlink" viewBox="0 0 375 963"><defs><style>.cls-1{fill:#f7f7f7;}.cls-2{fill:#e7efec;}.cls-2,.cls-3{fill-rule:evenodd;}.cls-3{fill:url(#未命名漸層);}.cls-4{fill:url(#未命名漸層_2);}.cls-5{fill:url(#未命名漸層_3);}.cls-6{fill:url(#未命名漸層_4);}.cls-7{fill:#424452;}.cls-8{fill:none;}.cls-9{opacity:0.1;isolation:isolate;}.cls-10{fill:#def1ea;}.cls-11{fill:url(#未命名漸層_6);}.cls-12{fill:#cae4db;}.cls-13{fill:url(#未命名漸層_7);}.cls-14{fill:url(#未命名漸層_8);}.cls-15{fill:url(#未命名漸層_9);}.cls-16{fill:#93b1a6;}</style><radialGradient id="未命名漸層" cx="-771.59" cy="1020.45" r="1" gradientTransform="matrix(1865.27, 77.32, 0.7, -16.79, 1429164.8, 77267.53)" gradientUnits="userSpaceOnUse"><stop offset="0" stop-color="#a9c0b7" stop-opacity="0"/><stop offset="1" stop-color="#a9c0b7"/></radialGradient><linearGradient id="未命名漸層_2" x1="183.2" y1="710.03" x2="195.43" y2="172.15" gradientTransform="matrix(1, 0, 0, -1, 0, 964)" gradientUnits="userSpaceOnUse"><stop offset="0" stop-color="#93b1a6"/><stop offset="1" stop-color="#93b1a6" stop-opacity="0"/></linearGradient><linearGradient id="未命名漸層_3" x1="41.7" y1="852.61" x2="195.26" y2="748.09" gradientTransform="matrix(1, 0, 0, -1, 0, 964)" gradientUnits="userSpaceOnUse"><stop offset="0.11" stop-color="#f5c25b"/><stop offset="0.31" stop-color="#f59e5b"/></linearGradient><linearGradient id="未命名漸層_4" x1="219" y1="793.71" x2="38.36" y2="793.71" gradientTransform="matrix(1, 0, 0, -1, 0, 964)" gradientUnits="userSpaceOnUse"><stop offset="0" stop-color="#f3e5a5"/><stop offset="1" stop-color="#f4c15b"/></linearGradient><linearGradient id="未命名漸層_6" x1="313.09" y1="309.09" x2="313.74" y2="301.02" gradientTransform="matrix(1, 0, 0, -1, 0, 964)" gradientUnits="userSpaceOnUse"><stop offset="0" stop-color="#93b1a6"/><stop offset="1" stop-color="#bfd6cd"/></linearGradient><linearGradient id="未命名漸層_7" x1="315.23" y1="328.77" x2="316.03" y2="305.22" xlink:href="#未命名漸層_6"/><linearGradient id="未命名漸層_8" x1="335.09" y1="309.09" x2="335.74" y2="301.02" xlink:href="#未命名漸層_6"/><linearGradient id="未命名漸層_9" x1="337.23" y1="328.77" x2="338.03" y2="305.22" xlink:href="#未命名漸層_6"/></defs><rect class="cls-1" width="375" height="963"/><path class="cls-2" d="M261.48,371V249h18V371a21,21,0,0,1-21,21H112a3,3,0,0,0-3,3V506a3,3,0,0,0,3,3H259a21,21,0,0,1,21,21V656.87a27.5,27.5,0,0,1,0,51.79V799H262V708.82a27.53,27.53,0,0,1-16.94-16.32H112a3,3,0,0,0-3,3V830a3,3,0,0,0,3,3H225v18H112a21,21,0,0,1-21-21V695.5a21,21,0,0,1,21-21H244.55A27.53,27.53,0,0,1,262,656.71V530a3,3,0,0,0-3-3H112a21,21,0,0,1-21-21V395a21,21,0,0,1,21-21H258.48A3,3,0,0,0,261.48,371Z" transform="translate(-2.65)"/><path class="cls-3" d="M261.48,371V249h18V371a21,21,0,0,1-21,21H112a3,3,0,0,0-3,3V506a3,3,0,0,0,3,3H259a21,21,0,0,1,21,21V656.87a27.5,27.5,0,0,1,0,51.79V799H262V708.82a27.53,27.53,0,0,1-16.94-16.32H112a3,3,0,0,0-3,3V830a3,3,0,0,0,3,3H225v18H112a21,21,0,0,1-21-21V695.5a21,21,0,0,1,21-21H244.55A27.53,27.53,0,0,1,262,656.71V530a3,3,0,0,0-3-3H112a21,21,0,0,1-21-21V395a21,21,0,0,1,21-21H258.48A3,3,0,0,0,261.48,371Z" transform="translate(-2.65)"/><path class="cls-4" d="M261.48,249v-1h-1v1Zm18,0h1v-1h-1ZM280,656.87h-1v.71l.66.24Zm18.22,24.58,1-.05ZM280,708.66l-.34-.94L279,708v.7ZM280,799v1h1v-1Zm-18,0h-1v1h1Zm0-90.18h1v-.72l-.68-.23ZM245.06,692.5l.93-.35-.24-.65h-.69ZM225,833h1v-1h-1Zm0,18v1h1v-1Zm19.55-176.5v1h.73l.22-.7ZM262,656.71l.32.95.68-.23v-.72ZM260.48,249V371h2V249Zm19-1h-18v2h18Zm1,123V249h-2V371Zm-22,22a22,22,0,0,0,22-22h-2a20,20,0,0,1-20,20ZM112,393H258.48v-2H112Zm-2,2a2,2,0,0,1,2-2v-2a4,4,0,0,0-4,4Zm0,111V395h-2V506Zm2,2a2,2,0,0,1-2-2h-2a4,4,0,0,0,4,4Zm147,0H112v2H259Zm22,22a22,22,0,0,0-22-22v2a20,20,0,0,1,20,20Zm0,126.87V530h-2V656.87Zm18.22,24.53a28.5,28.5,0,0,0-18.88-25.47l-.68,1.89a26.49,26.49,0,0,1,17.56,23.68Zm-18.88,28.2a28.5,28.5,0,0,0,18.88-28.2l-2,.1a26.5,26.5,0,0,1-17.56,26.22Zm-1.34-.94V799h2V708.66ZM280,798H262v2h18Zm-17,1V708.82h-2V799ZM244.12,692.85a28.55,28.55,0,0,0,17.56,16.92l.64-1.9A26.57,26.57,0,0,1,246,692.15Zm-58.62.65h59.56v-2H185.5Zm-73.5,0h73.5v-2H112Zm-2,2a2,2,0,0,1,2-2v-2a4,4,0,0,0-4,4ZM110,830V695.5h-2V830Zm2,2a2,2,0,0,1-2-2h-2a4,4,0,0,0,4,4Zm113,0H112v2H225Zm1,19V833h-2v18Zm-114,1H225v-2H112ZM90,830a22,22,0,0,0,22,22v-2a20,20,0,0,1-20-20Zm0-134.5V830h2V695.5Zm22-22a22,22,0,0,0-22,22h2a20,20,0,0,1,20-20Zm73.5,0H112v2h73.5Zm59.05,0H185.5v2h59.05Zm17.13-17.74A28.55,28.55,0,0,0,243.6,674.2l1.9.6a26.58,26.58,0,0,1,16.82-17.14ZM261,530V656.71h2V530Zm-2-2a2,2,0,0,1,2,2h2a4,4,0,0,0-4-4Zm-147,0H259v-2H112ZM90,506a22,22,0,0,0,22,22v-2a20,20,0,0,1-20-20Zm0-111V506h2V395Zm22-22a22,22,0,0,0-22,22h2a20,20,0,0,1,20-20Zm146.48,0H112v2H258.48Zm2-2a2,2,0,0,1-2,2v2a4,4,0,0,0,4-4Z" transform="translate(-2.65)"/><circle class="cls-1" cx="268.09" cy="683.1" r="11.82"/><path class="cls-5" d="M52.29,141.12,176.34,69.31c7-3.92,13.5-4.36,18.28-1.31l15.67,8.7-5.66,51.8c0,20.46-12.62,44.83-28.29,53.54L47.07,262.56l-12.62-7H34l-.43-.44C27.92,251.68,24,243.85,24,232.53V194.66C24,174.2,36.62,149.83,52.29,141.12Z" transform="translate(-2.65)"/><path class="cls-6" d="M190.71,190.74l-124,71.82c-15.67,9.14-28.3-.43-28.3-21.32V203.37c0-20.46,12.63-44.84,28.3-53.54L190.71,78c15.67-9.14,28.29.44,28.29,21.33v37.87C219,157.66,206.38,182,190.71,190.74Z" transform="translate(-2.65)"/><path class="cls-7" d="M90.85,165.23l-9.32,5.05a1.5,1.5,0,0,1-2.43-1.37l-.35-8.44a4,4,0,0,1,.6-2.2A4.19,4.19,0,0,1,81,156.58l9.32-5.06a1.55,1.55,0,0,1,2.43,1.38l.35,8.43a4.2,4.2,0,0,1-.63,2.26A4.1,4.1,0,0,1,90.85,165.23ZM69,163.36l4.22-2.29a1.63,1.63,0,0,1,1.65-.11,1.54,1.54,0,0,1,.77,1.45l1.16,28a5.47,5.47,0,0,1-.76,3.27,7.29,7.29,0,0,1-2.89,2.39.91.91,0,0,1-1,0,1,1,0,0,1-.47-.93,2.64,2.64,0,0,1,.37-1.39,2.83,2.83,0,0,1,1-1.05l.42-.23a1.13,1.13,0,0,0,.35-.23.69.69,0,0,0,0-.26l-.39-9.43c0-.16-.08-.2-.22-.13l-2.74,1.49a.36.36,0,0,0-.2.36q0,2.9-.11,6t-.38,6.34a3.16,3.16,0,0,1-.49,1.33,2.59,2.59,0,0,1-.93.91,1.07,1.07,0,0,1-1.15,0,1.13,1.13,0,0,1-.37-1.1,113.68,113.68,0,0,0,.49-12.41c-.06-3.91-.16-7.51-.3-10.78l-.3-7.4a4.06,4.06,0,0,1,.59-2.16A4.3,4.3,0,0,1,69,163.36Zm20.63-6a.35.35,0,0,0,.2-.35l-.06-1.6c0-.16-.08-.2-.22-.13L82,159.38a.34.34,0,0,0-.2.35l.06,1.6c0,.16.08.2.22.12Zm-16.86,13A.34.34,0,0,0,73,170l-.2-5c0-.17-.08-.21-.22-.13l-2.61,1.41a.38.38,0,0,0-.2.36l.21,5c0,.16.08.2.22.13Zm9.44-5.61a.36.36,0,0,0-.2.36l.06,1.39c0,.16.08.21.22.13l7.55-4.1a.39.39,0,0,0,.21-.36l-.06-1.4c0-.16-.08-.2-.22-.12ZM70.27,180.36c0,.16.08.21.22.13l2.63-1.43a.37.37,0,0,0,.21-.36l-.21-4.91c0-.16-.08-.2-.22-.13l-2.6,1.41a.36.36,0,0,0-.2.36c0,.77.06,1.57.1,2.4S70.26,179.5,70.27,180.36Zm24.41-13L85,172.63a.4.4,0,0,0-.24.29,4.08,4.08,0,0,1-.16.5c0,.15-.09.32-.15.49s0,.29.15.2l8.72-4.73a1.59,1.59,0,0,1,1.68-.1,1.63,1.63,0,0,1,.74,1.48c0,1.08,0,2,0,2.81s0,1.58-.08,2.34,0,1.55-.08,2.49a9.52,9.52,0,0,1-1.41,4.86,8.23,8.23,0,0,1-3.65,3.12.94.94,0,0,1-1,0,1.16,1.16,0,0,1-.44-.95,2.58,2.58,0,0,1,.51-1.58,2.94,2.94,0,0,1,1.21-1.07l.18-.05.18-.1c.86-.47,1.34-1.46,1.42-3,.07-1.23.12-2.3.15-3.19s0-2,0-3.23c0-.16-.08-.2-.22-.13l-.42.23a.55.55,0,0,0-.24.34A30.27,30.27,0,0,1,90.09,179a55.77,55.77,0,0,1-2.69,5.42,41.41,41.41,0,0,1-2.8,4.35,2.26,2.26,0,0,1-.7.62,1.38,1.38,0,0,1-.75.16.71.71,0,0,1-.55-.39,1.35,1.35,0,0,1-.21-.67,3.27,3.27,0,0,1,.71-2,36.33,36.33,0,0,0,3.26-5.37,36.94,36.94,0,0,0,2.36-5.61c.08-.23,0-.3-.19-.18l-.77.42a.42.42,0,0,0-.24.29,40.7,40.7,0,0,1-2.45,5.17c-1,1.72-1.94,3.33-3,4.84s-2,2.72-2.79,3.72A1.64,1.64,0,0,1,79,190a3,3,0,0,1-.35.23,1.42,1.42,0,0,1-.79.19.87.87,0,0,1-.56-.48,1.84,1.84,0,0,1-.13-.62,3,3,0,0,1,.17-1,3.51,3.51,0,0,1,.61-1.07,43,43,0,0,0,3.36-4.68,49.12,49.12,0,0,0,2.51-4.47c.11-.25.07-.33-.11-.23l-1.13.61a.76.76,0,0,0-.24.26q-.8,1.53-1.68,2.91c-.58.92-1.17,1.77-1.76,2.55a2.39,2.39,0,0,1-.73.64c-.61.33-1.05.28-1.34-.17a1.47,1.47,0,0,1-.2-.7,3.28,3.28,0,0,1,.7-2.06,28.93,28.93,0,0,0,2.23-3.46A33.15,33.15,0,0,0,81.26,175c0-.11,0-.17,0-.2s-.07,0-.14,0l-2.89,1.57a1,1,0,0,1-1,0,1,1,0,0,1-.47-.92,2.62,2.62,0,0,1,.37-1.39,2.53,2.53,0,0,1,1-1l16.45-8.93a1,1,0,0,1,1-.07,1,1,0,0,1,.47.93,2.71,2.71,0,0,1-.38,1.39A2.59,2.59,0,0,1,94.68,167.4Zm23.95-29.07c0,.16.08.2.22.13l10.23-5.56a.94.94,0,0,1,1,0,1,1,0,0,1,.51.95,2.75,2.75,0,0,1-.41,1.45,2.61,2.61,0,0,1-1,1l-21,11.43a.39.39,0,0,0-.21.36l.52,12.34c0,.67,0,1.63,0,2.88s-.16,2.66-.36,4.24a43.16,43.16,0,0,1-1,5,31.29,31.29,0,0,1-1.66,5.07,2.69,2.69,0,0,1-1.23,1.4,1.35,1.35,0,0,1-.89.2c-.46-.05-.7-.38-.73-1a2.45,2.45,0,0,1,.21-1,32.54,32.54,0,0,0,1.62-5.21,35,35,0,0,0,.78-4.59c0-.26,0-.27-.25,0l-1,1.22c-.34.4-.71.82-1.1,1.25l-.27.27a1.48,1.48,0,0,1-.32.21,1,1,0,0,1-1,.08,1.11,1.11,0,0,1-.48-1,3.55,3.55,0,0,1,.94-2.43q1-1.22,1.92-2.43c.59-.81,1.12-1.62,1.59-2.42a.71.71,0,0,0,.09-.33l-.22-5.32c0-.24,0-.31-.12-.22s0,.07-.07.08l0,.06a2.14,2.14,0,0,1-.59.48.88.88,0,0,1-1.34-.29,12.9,12.9,0,0,0-2.26-3.27,1.23,1.23,0,0,1-.28-.83,2.62,2.62,0,0,1,.71-1.86,2.93,2.93,0,0,1,.8-.68c.68-.37,1.2-.31,1.55.18a13.3,13.3,0,0,1,1.19,1.69c0,.08.1.11.14.08a.32.32,0,0,0,.1-.25l-.12-2.88a4.1,4.1,0,0,1,.59-2.2,4.24,4.24,0,0,1,1.62-1.7l8.23-4.46a.38.38,0,0,0,.2-.36l-.05-1.28a2.6,2.6,0,0,1,.4-1.45,2.8,2.8,0,0,1,1.07-1.11,1.09,1.09,0,0,1,1.11-.07,1.06,1.06,0,0,1,.51,1Zm4.9,10.54-7.88,4.28a1.4,1.4,0,0,1-2.24-1.27l-.14-3.28a3.8,3.8,0,0,1,.56-2.06,3.9,3.9,0,0,1,1.48-1.55l7.88-4.27a1.51,1.51,0,0,1,1.54-.1,1.46,1.46,0,0,1,.7,1.37l.14,3.28a3.82,3.82,0,0,1-.56,2.06A3.87,3.87,0,0,1,123.53,148.87Zm-1-4.46c0-.15-.08-.2-.22-.12l-5.84,3.17a.35.35,0,0,0-.2.35l.07,1.72c0,.16.08.2.22.13l5.84-3.17a.36.36,0,0,0,.2-.36Zm-5.27,16.92-6,3.25A1.41,1.41,0,0,1,109,163.3l-.13-3.12a3.71,3.71,0,0,1,.56-2.06,3.87,3.87,0,0,1,1.48-1.54l6-3.24a1.51,1.51,0,0,1,1.54-.1,1.46,1.46,0,0,1,.71,1.37l.12,3.12a3.74,3.74,0,0,1-.56,2.06A3.8,3.8,0,0,1,117.21,161.33Zm5.05-10.91,6-3.29a1.56,1.56,0,0,1,1.55-.1,1.48,1.48,0,0,1,.7,1.38l.13,3.12a3.84,3.84,0,0,1-.56,2.06,3.74,3.74,0,0,1-1.48,1.54l-6,3.28a1.4,1.4,0,0,1-2.24-1.27l-.13-3.12a3.63,3.63,0,0,1,.56-2.06A3.8,3.8,0,0,1,122.26,150.42Zm-6,6.44c0-.16-.08-.21-.22-.13L111.94,159a.36.36,0,0,0-.2.36l.07,1.76c0,.16.08.2.22.12l4.11-2.23a.36.36,0,0,0,.2-.35Zm6.89-2c0,.16.08.2.23.13l4.18-2.27a.36.36,0,0,0,.2-.36l-.07-1.76c0-.16-.08-.2-.23-.12l-4.18,2.27a.35.35,0,0,0-.2.35Zm5.3,1.91a1,1,0,0,1,1.07,0,1.06,1.06,0,0,1,.51.95l.19,4.6a3.84,3.84,0,0,1-.56,2.06,3.92,3.92,0,0,1-1.48,1.58l-15.65,8.49a1.44,1.44,0,0,1-1.54.06,1.5,1.5,0,0,1-.7-1.37l-.19-4.6a2.6,2.6,0,0,1,.4-1.45,2.75,2.75,0,0,1,1-1.09,1,1,0,0,1,1,0,1,1,0,0,1,.5.95l.15,3.56c0,.15.08.2.22.12l5.06-2.75a.34.34,0,0,0,.2-.35l-.2-5a2.57,2.57,0,0,1,.37-1.39,2.75,2.75,0,0,1,1-1.09,1,1,0,0,1,1,0,1,1,0,0,1,.5.91l.21,5c0,.15.08.2.22.12l5.1-2.77a.36.36,0,0,0,.2-.35l-.15-3.56a2.75,2.75,0,0,1,.37-1.43A2.56,2.56,0,0,1,128.46,156.82Zm37.62-29.62a.71.71,0,0,1,0,.22,1.21,1.21,0,0,0,0,.2,3.18,3.18,0,0,1-.27,1.29,3.43,3.43,0,0,1-.78,1.12,3,3,0,0,0-.25.21l-.24.13a1.09,1.09,0,0,1-.86.14.92.92,0,0,1-.56-.59c-.12-.4-.24-.79-.38-1.15s-.28-.77-.44-1.15c-.05-.11-.13-.1-.25,0q-1.7,1.48-4.07,3.27t-5.14,3.56q-2.76,1.83-5.64,3.56a1.52,1.52,0,0,1-1.61.18,1.86,1.86,0,0,1-.63-1.46,3.91,3.91,0,0,1,.2-1.33,5.21,5.21,0,0,1,.66-1.42,44.64,44.64,0,0,0,6.19-15.5,3,3,0,0,1,.52-1.22,2.7,2.7,0,0,1,.9-.86,1,1,0,0,1,1.62.88v.2a.53.53,0,0,1,0,.22,38.46,38.46,0,0,1-1.23,5.08,55.57,55.57,0,0,1-1.94,5.26,49.53,49.53,0,0,1-2.25,4.66.3.3,0,0,0-.06.27s.08,0,.18-.05q3.11-2,6.05-4.06a60.62,60.62,0,0,0,5-3.83c.14-.13.17-.26.1-.38a13.68,13.68,0,0,0-1.69-2.48,1.37,1.37,0,0,1-.28-.78,2.42,2.42,0,0,1,.17-1,2.64,2.64,0,0,1,.58-1,2.9,2.9,0,0,1,.79-.68,1.31,1.31,0,0,1,.82-.16.8.8,0,0,1,.67.38,26.91,26.91,0,0,1,1.54,2.47c.52,1,1,1.93,1.45,2.93A24.42,24.42,0,0,1,166.08,127.2Zm-22.79-1.73c.68,0,1,.41,1.06,1.27a2.41,2.41,0,0,1-.37,1.42,2.33,2.33,0,0,1-.93,1,1.3,1.3,0,0,1-.64.18,19.36,19.36,0,0,0-5,.81,1,1,0,0,1-.87-.14,1.17,1.17,0,0,1-.36-.87,3.08,3.08,0,0,1,1.44-2.57l.17-.1a.28.28,0,0,1,.18-.05A25.59,25.59,0,0,1,143.29,125.47Zm-1.06,13.33a15.86,15.86,0,0,0-2.51.18,15.56,15.56,0,0,0-2.57.49,1,1,0,0,1-.86-.14,1.25,1.25,0,0,1-.37-.91,2.54,2.54,0,0,1,.38-1.43,2.68,2.68,0,0,1,1-1,2.16,2.16,0,0,1,.38-.17,23.86,23.86,0,0,1,2.71-.57A20.26,20.26,0,0,1,143,135a.82.82,0,0,1,.8.29,1.52,1.52,0,0,1,.36,1,2.51,2.51,0,0,1-.37,1.43,2.6,2.6,0,0,1-.93,1A1.45,1.45,0,0,1,142.23,138.8Zm1.07,2.4a1,1,0,0,1,1.11,0,1.1,1.1,0,0,1,.47,1,2.24,2.24,0,0,1,0,.46c-.17,1.1-.41,2.36-.71,3.77s-.65,2.85-1,4.37-.78,3-1.22,4.38-.86,2.67-1.32,3.82a2.83,2.83,0,0,1-1.3,1.56,1.4,1.4,0,0,1-.78.18c-.51-.08-.77-.42-.8-1a2.59,2.59,0,0,1,.18-1,79,79,0,0,0,2.38-7.62q1.05-4,1.65-7.77a2.81,2.81,0,0,1,.49-1.2A2.6,2.6,0,0,1,143.3,141.2Zm6.12-3.12,11.85-6.43A1.52,1.52,0,0,1,163.7,133l.44,10.59a4.68,4.68,0,0,1-2.21,3.89L150.08,154a1.71,1.71,0,0,1-1.68.13,1.66,1.66,0,0,1-.75-1.51L147.21,142a4.1,4.1,0,0,1,.59-2.2A4.17,4.17,0,0,1,149.42,138.08ZM150.6,150c0,.16.08.2.22.12l10.05-5.46a.34.34,0,0,0,.2-.35l-.35-8.63c0-.16-.08-.21-.22-.13L150.44,141a.37.37,0,0,0-.2.35Zm50.89-27.8c.68,0,1,.45,1.06,1.22a2.62,2.62,0,0,1-.37,1.43,2.59,2.59,0,0,1-1,1,1.41,1.41,0,0,1-.49.14,11.07,11.07,0,0,1-3.18-.32,14.79,14.79,0,0,1-3.33-1.34,1,1,0,0,1-.46-.93,2.46,2.46,0,0,1,.51-1.58.55.55,0,0,1,0-.12c0-.09,0-.11-.15,0l-2.21,1.2a.34.34,0,0,0-.2.35l.19,4.64a5.35,5.35,0,0,1-1,3.59,9.75,9.75,0,0,1-3.69,2.74,1,1,0,0,1-1.08,0,1.2,1.2,0,0,1-.44-1,2.86,2.86,0,0,1,.44-1.42,2.26,2.26,0,0,1,1.08-1,5.92,5.92,0,0,0,.56-.27l.42-.23a2.51,2.51,0,0,0,.67-.44.64.64,0,0,0,.13-.36l-.19-4.63c0-.16-.08-.21-.23-.13l-2,1.07a1.73,1.73,0,0,0-.28.19c-.07.07-.09.11-.07.12.48,0,.73.35.76.94a2.19,2.19,0,0,1-.25,1,33.23,33.23,0,0,1-2,3.5,37.85,37.85,0,0,1-2.38,3.22,32.76,32.76,0,0,1-2.34,2.57,1,1,0,0,1-.21.16.91.91,0,0,1-.21.15c-.72.4-1.21.25-1.45-.43L178,137a1.93,1.93,0,0,1,0-.24,2.63,2.63,0,0,1,.2-1.1,3.38,3.38,0,0,1,.71-1.08,40.22,40.22,0,0,0,2.95-3.48,28.86,28.86,0,0,0,2.26-3.51,2.85,2.85,0,0,1,.17-.26c.07-.12.14-.22.2-.31s.17-.25,0-.18a1.45,1.45,0,0,1-1.34-.22,1.73,1.73,0,0,1-.59-1.39l-.19-4.56c0-.21-.1-.22-.26,0-.32.36-.65.75-1,1.15s-.7.76-1.07,1.15a2.06,2.06,0,0,1-.48.39,1.06,1.06,0,0,1-1,.09,1.15,1.15,0,0,1-.43-1,3.17,3.17,0,0,1,1-2.37c.32-.33.63-.68.92-1s.63-.74.93-1.12c.16-.16.18-.28.06-.35a3.08,3.08,0,0,0-.63-.48c-.25-.14-.51-.27-.78-.4a1,1,0,0,1-.46-.89,2.17,2.17,0,0,1,.41-1.4,1.68,1.68,0,0,1,.2-.28l0,0s-.08-.05-.18,0a1,1,0,0,1-.73-.22,1.2,1.2,0,0,1-.32-.81,2.89,2.89,0,0,1,1.38-2.42l6.89-3.74a.41.41,0,0,0,.23-.33c.09-.29.16-.58.22-.86s.15-.62.21-.93l.13-.43a4.34,4.34,0,0,1,.2-.48c.06-.09.09-.16.06-.2s0-.05-.14,0l-10,5.42a.35.35,0,0,0-.2.35l.55,13.23c.05,1.18,0,2.5,0,4s-.17,3-.35,4.57a43.69,43.69,0,0,1-.67,4.53,26.87,26.87,0,0,1-1.1,3.95,3.4,3.4,0,0,1-.64,1,3,3,0,0,1-.83.7,1.8,1.8,0,0,1-.92.25c-.53,0-.81-.35-.84-1a2.54,2.54,0,0,1,.21-1.06,25.67,25.67,0,0,0,1.45-4.87,38.77,38.77,0,0,0,.65-5.22c0-.24-.1-.24-.25,0-.46.65-.92,1.28-1.4,1.9a2.37,2.37,0,0,1-.62.54,1,1,0,0,1-.94.06,1.08,1.08,0,0,1-.47-1,4.17,4.17,0,0,1,1-2.81,18.48,18.48,0,0,0,2.59-4.11.65.65,0,0,0,.1-.33l-.21-5c0-.13-.1-.15-.29,0-.65.36-1.11.24-1.38-.35a10.28,10.28,0,0,0-1-1.82,9.64,9.64,0,0,0-1.17-1.53,1.21,1.21,0,0,1-.33-.85,2.57,2.57,0,0,1,.65-1.78,2.81,2.81,0,0,1,.87-.75c.63-.35,1.11-.31,1.44.11.13.15.25.31.38.49a5.09,5.09,0,0,1,.34.47c.05.08.1.11.15.08a.32.32,0,0,0,.1-.25l-.11-2.68a3.61,3.61,0,0,1,.56-2.06,3.74,3.74,0,0,1,1.48-1.54l9.14-5a.34.34,0,0,0,.2-.35l0-.6a2.67,2.67,0,0,1,.41-1.49,2.8,2.8,0,0,1,1.07-1.11,1,1,0,0,1,1.62.92l0,.6c0,.16.08.2.22.12l10.27-5.57a1,1,0,0,1,1.07-.05,1,1,0,0,1,.47.93,2.54,2.54,0,0,1-.4,1.44,2.58,2.58,0,0,1-1,1L190,102.42c-.21.11-.22.22-.05.32a.92.92,0,0,1,.43.83,1.13,1.13,0,0,1,0,.25,1.18,1.18,0,0,1,0,.26l-.06.36a2.05,2.05,0,0,1-.1.34c-.06.22,0,.29.16.2l8.72-4.73a.94.94,0,0,1,1.5.86,2.66,2.66,0,0,1-.37,1.38,2.58,2.58,0,0,1-1,1h0a1,1,0,0,1,.47-.08c.48,0,.73.35.76.93a1.93,1.93,0,0,1-.12.76,15.63,15.63,0,0,1-1.21,2.74c-.07.18-.05.29.05.35.31,0,.62.05.94.1s.67,0,1,.06c.62,0,.95.4,1,1.15a2.41,2.41,0,0,1-.38,1.38,2.21,2.21,0,0,1-.86.92,1.38,1.38,0,0,1-.53.17,12.32,12.32,0,0,1-2.56-.29q-.26-.06-.24.3l.21,5a4,4,0,0,1-.46,1.93,4.51,4.51,0,0,1-1.23,1.6q-.21.16,0,.18a1.21,1.21,0,0,1,.58.14,8.08,8.08,0,0,0,2.45.92A15.18,15.18,0,0,0,201.49,122.19Zm-19.31-8.88a5.47,5.47,0,0,1,.56.51,5.3,5.3,0,0,1,.53.53c.1.05.21,0,.32-.13.54-.92,1-1.85,1.5-2.78.11-.25.06-.32-.15-.2l-3,1.62a.33.33,0,0,0-.17.18s0,.08.11.1A.39.39,0,0,1,182.18,113.31Zm8.95-5.27a.24.24,0,0,0-.29,0L189,109a.43.43,0,0,0-.24.3,40.18,40.18,0,0,1-2.24,4.85c-.16.28-.12.35.12.22l7.13-3.87c.1-.05.14-.1.14-.16a.17.17,0,0,0-.08-.2,16,16,0,0,1-1.44-.93A14.23,14.23,0,0,1,191.13,108Zm6.7-3.07a2.7,2.7,0,0,1,1-1.29l-4,2.16c-.19.1-.22.21-.1.33s.51.38.78.56.55.35.85.52c.12.07.22,0,.28-.15A14.64,14.64,0,0,0,197.83,105Zm-12.6,14.16c0,.16.08.2.22.12l8.89-4.82a.35.35,0,0,0,.2-.36l0-.64c0-.16-.08-.2-.22-.12l-8.9,4.83a.36.36,0,0,0-.2.35Zm.34,3a.36.36,0,0,0-.2.36l0,.56c0,.16.08.2.22.12l8.9-4.83a.36.36,0,0,0,.2-.35l0-.56c0-.16-.09-.2-.23-.13ZM114.48,194.4a31.12,31.12,0,0,0,4.2-10.69,3.06,3.06,0,0,1,.52-1.27,2.45,2.45,0,0,1,.9-.89,1.07,1.07,0,0,1,1.14-.1,1.06,1.06,0,0,1,.51,1,2.12,2.12,0,0,1,0,.46,11,11,0,0,1-.23,1.2c-.11.41-.22.84-.35,1.29-.06.22,0,.28.19.18l9.74-5.29a1,1,0,0,1,1.07-.05,1.06,1.06,0,0,1,.51.95,2.75,2.75,0,0,1-.41,1.45,2.54,2.54,0,0,1-1,1.09l-11.46,6.22a.59.59,0,0,0-.27.31c-.42,1-.88,2-1.39,3s-1.06,2-1.64,2.9a2.28,2.28,0,0,1-.86.83,1,1,0,0,1-1.23,0,1.32,1.32,0,0,1-.32-.92,3.1,3.1,0,0,1,.07-.78A4.81,4.81,0,0,1,114.48,194.4Zm-5.32,6.81c0,.17.08.21.22.13l2.7-1.47a1.65,1.65,0,0,1,1.65-.12,1.54,1.54,0,0,1,.75,1.44c0,1.06.08,2.27.11,3.61s0,2.65.06,4,0,2.53,0,3.61,0,1.87-.08,2.41a11.53,11.53,0,0,1-1.24,4.88,8.17,8.17,0,0,1-3.32,3.08l-.46.24c-.14.08-.31.15-.49.23a1,1,0,0,1-1,0,1.21,1.21,0,0,1-.43-1,2.51,2.51,0,0,1,.44-1.47,2.64,2.64,0,0,1,1.11-1l.53-.21.45-.25a2.29,2.29,0,0,0,1.14-1.1,8.87,8.87,0,0,0,.34-2.19c0-.57.07-1.51.07-2.82s0-2.78,0-4.43,0-3.29-.1-4.85c0-.16-.08-.2-.22-.13l-1.79,1a.34.34,0,0,0-.2.35c0,2.22-.16,4.48-.4,6.76s-.55,4.42-.92,6.5-.76,3.88-1.18,5.46a3.86,3.86,0,0,1-.63,1.29,3.17,3.17,0,0,1-1,.91,1,1,0,0,1-1,.09.78.78,0,0,1-.43-.75,2,2,0,0,1,.08-.61q1-3.88,1.5-7.23c.36-2.24.62-4.24.76-6s.21-3.3.21-4.53,0-2.13,0-2.69l-.24-5.8c0-.16-.08-.2-.22-.12l-1.58.86a1.12,1.12,0,0,1-1.11.07,1.14,1.14,0,0,1-.47-1,2.6,2.6,0,0,1,.4-1.45,2.68,2.68,0,0,1,1-1.09l2.92-1.59a.36.36,0,0,0,.2-.35l-.14-3.28a2.86,2.86,0,0,1,.37-1.46,2.76,2.76,0,0,1,1.07-1.12,1,1,0,0,1,1.11-.07,1.09,1.09,0,0,1,.51,1l.13,3.28c0,.16.08.2.23.12l2.84-1.54a1,1,0,0,1,1.08,0,1,1,0,0,1,.51.95,2.69,2.69,0,0,1-.41,1.44,2.58,2.58,0,0,1-1,1.1l-4.28,2.32a.36.36,0,0,0-.2.36Zm24.18,3.34a1.39,1.39,0,0,1,.81,1.36,2.8,2.8,0,0,1-.1.92,2.45,2.45,0,0,1-.47.94,2,2,0,0,1-.69.62.8.8,0,0,1-.71.11,9.64,9.64,0,0,1-3.65-2.15,16.21,16.21,0,0,1-3.07-3.85,24,24,0,0,1-2.15-5.08c-.06-.19-.16-.19-.29,0l-.38.49a.51.51,0,0,0-.13.35l.66,15.87a3.13,3.13,0,0,1-1.48,2.56,1.09,1.09,0,0,1-1.11.07,1,1,0,0,1-.5-.95l-.59-14.15c0-.24-.09-.26-.25-.06-.49.5-1,1-1.42,1.42s-.87.83-1.31,1.2a2.42,2.42,0,0,1-.39.25,1.16,1.16,0,0,1-1,.12,1.09,1.09,0,0,1-.51-1,2.69,2.69,0,0,1,.28-1.21,3,3,0,0,1,.81-1.14,65.4,65.4,0,0,0,4.63-4.64c1.51-1.69,2.91-3.37,4.21-5s2.39-3.19,3.27-4.51a2.67,2.67,0,0,1,.89-.86.91.91,0,0,1,1.16.07.65.65,0,0,1,.23.4,1.84,1.84,0,0,1,.09.53,2.69,2.69,0,0,1-.57,1.78c-.5.73-1,1.51-1.66,2.33s-1.22,1.63-1.88,2.45a.36.36,0,0,0-.09.38c.31,1.19.64,2.26,1,3.22,0,.14.13.15.29,0,.74-.75,1.46-1.55,2.17-2.4s1.44-1.86,2.21-3a3.4,3.4,0,0,1,1-1,.74.74,0,0,1,1.09.19,1.2,1.2,0,0,1,.24.72,3.66,3.66,0,0,1-.84,2.26c-.7,1-1.46,2-2.28,3s-1.58,1.87-2.34,2.66c-.13.13-.17.26-.09.38a14.36,14.36,0,0,0,2.23,2.67A10.2,10.2,0,0,0,133.34,204.55Zm16.55-16.21a.72.72,0,0,1,0,.22.8.8,0,0,1,0,.26,3,3,0,0,1-1,2.27l-.24.21-.21.12a1.13,1.13,0,0,1-.86.13,1,1,0,0,1-.53-.61,6.67,6.67,0,0,0-.29-.86,6.58,6.58,0,0,0-.28-.79c0-.12-.08-.15-.15-.08a.32.32,0,0,0-.1.25l.49,11.88a2.48,2.48,0,0,1-.4,1.4,2.62,2.62,0,0,1-1,1.09,1.1,1.1,0,0,1-1.11.08,1,1,0,0,1-.47-.93l-.45-10.83c0-.14,0-.19-.11-.15s-.09.07-.14.2c-.34,1-.72,2-1.13,3s-.82,1.94-1.28,2.9a2.55,2.55,0,0,1-1,1.17,1,1,0,0,1-1,0,1.28,1.28,0,0,1-.52-1.07,2.92,2.92,0,0,1,.37-1.47,39.52,39.52,0,0,0,2.44-6.18,38.27,38.27,0,0,0,1.43-6.41V184q0-.21-.21-.09l-2.71,1.47a1.12,1.12,0,0,1-1.08.09,1.07,1.07,0,0,1-.47-1,3,3,0,0,1,1.41-2.48l3.37-1.83a.36.36,0,0,0,.21-.35l-.19-4.44c0-.19-.09-.22-.25-.11L141,176.4l-1.26.89a1.24,1.24,0,0,1-1.17.26,1,1,0,0,1-.55-1,2.72,2.72,0,0,1,.31-1.27,3.23,3.23,0,0,1,.92-1.15c.7-.52,1.52-1.14,2.48-1.88s1.91-1.51,2.88-2.34,1.86-1.62,2.6-2.35a.6.6,0,0,1,.21-.19l.28-.16a1.1,1.1,0,0,1,.79-.14.66.66,0,0,1,.52.53,1.57,1.57,0,0,1,.05.27.83.83,0,0,1,0,.26,2.67,2.67,0,0,1-.24,1.19,3.28,3.28,0,0,1-.74,1.1c-.35.32-.71.67-1.11,1.05s-.81.71-1.25,1.08a.46.46,0,0,0-.16.34l.22,5.31c0,.16.08.21.22.13l2.49-1.35a1,1,0,0,1,1.55.87,2.72,2.72,0,0,1-.41,1.45,2.49,2.49,0,0,1-1,1l-2.49,1.36a.31.31,0,0,0-.2.31v0c0,.11,0,.17.08.2Q148.33,183.79,149.89,188.34Zm13.43-15.76-10.19,5.54a1.51,1.51,0,0,1-2.43-1.38l-.32-7.84a4.12,4.12,0,0,1,.59-2.24,4.22,4.22,0,0,1,1.62-1.65l10.19-5.54a1.65,1.65,0,0,1,1.65-.12,1.61,1.61,0,0,1,.78,1.5l.33,7.83a4.36,4.36,0,0,1-.59,2.25A4.17,4.17,0,0,1,163.32,172.58Zm-1.06-9.15c0-.16-.08-.2-.22-.12l-8.44,4.58a.36.36,0,0,0-.2.35l.25,5.92c0,.16.08.2.22.12l8.44-4.58a.37.37,0,0,0,.2-.35Zm-1.78,28.22c0,.17.08.21.22.13l6.65-3.61a1,1,0,0,1,1-.07,1,1,0,0,1,.5,1,3.11,3.11,0,0,1-1.4,2.48l-16.7,9.07a1.08,1.08,0,0,1-1.08.05,1,1,0,0,1-.47-.93,2.66,2.66,0,0,1,.38-1.39,2.73,2.73,0,0,1,1-1.09l6.61-3.59a.35.35,0,0,0,.2-.35l-.17-4.24c0-.16-.08-.2-.23-.13l-4.49,2.45a1.07,1.07,0,0,1-1.08.09,1.15,1.15,0,0,1-.47-1,2.57,2.57,0,0,1,.37-1.39,2.75,2.75,0,0,1,1-1.09l4.5-2.44a.38.38,0,0,0,.2-.36l-.13-3.11c0-.16-.08-.21-.22-.13l-5.94,3.23a1,1,0,0,1-1.55-.88,2.62,2.62,0,0,1,.37-1.43,2.83,2.83,0,0,1,1-1.05l15.39-8.36a1,1,0,0,1,1-.08,1,1,0,0,1,.51,1,2.69,2.69,0,0,1-.41,1.44,2.58,2.58,0,0,1-1,1l-6,3.26a.35.35,0,0,0-.2.35l.13,3.12c0,.16.08.2.22.13l4.57-2.48a1,1,0,0,1,1.08-.06,1,1,0,0,1,.47.93,2.7,2.7,0,0,1-.41,1.45,2.55,2.55,0,0,1-1,1l-4.57,2.48a.36.36,0,0,0-.2.36Z" transform="translate(-2.65)"/><rect class="cls-8" x="29.35" y="292" width="153" height="153"/><rect class="cls-8" x="200.35" y="488.47" width="147" height="66.99"/><rect class="cls-8" x="225.31" y="449" width="93.66" height="108.81"/><rect class="cls-8" x="76.25" y="591" width="120.1" height="120.69"/><rect class="cls-8" x="38.35" y="687.78" width="63.16" height="47.81"/><rect class="cls-8" x="97.04" y="689.73" width="78.32" height="31.29"/><rect class="cls-8" x="301.35" y="8" width="46.15" height="24"/><path class="cls-9" d="M313,667l-7-4,7-4,7,4Z" transform="translate(-2.65)"/><path class="cls-10" d="M313,663.9l-.89-.6v-8.49l.89.45Z" transform="translate(-2.65)"/><path class="cls-11" d="M313.89,663.3l-.89.6v-8.64l.89-.45Z" transform="translate(-2.65)"/><path class="cls-12" d="M313,661.37l-6.26-3.58L313,635Z" transform="translate(-2.65)"/><path class="cls-13" d="M319.11,657.79,313,661.37V635Z" transform="translate(-2.65)"/><path class="cls-9" d="M335,667l-7-4,7-4,7,4Z" transform="translate(-2.65)"/><path class="cls-10" d="M335,663.9l-.89-.6v-8.49l.89.45Z" transform="translate(-2.65)"/><path class="cls-14" d="M335.89,663.3l-.89.6v-8.64l.89-.45Z" transform="translate(-2.65)"/><path class="cls-12" d="M335,661.37l-6.26-3.58L335,635Z" transform="translate(-2.65)"/><path class="cls-15" d="M341.11,657.79,335,661.37V635Z" transform="translate(-2.65)"/><path class="cls-9" d="M32.38,525.45,21,518.81l11.38-6.64L44,518.81Z" transform="translate(-2.65)"/><path class="cls-10" d="M32.38,520.47l-1.66-1V503.64l1.66.95Z" transform="translate(-2.65)"/><path class="cls-16" d="M34,519.52l-1.66,1V504.59l1.66-.95Z" transform="translate(-2.65)"/><path class="cls-16" d="M40.44,510.28,32.38,515v-9.25l8.06-4.5Z" transform="translate(-2.65)"/><path class="cls-12" d="M32.38,515l-7.83-4.74v-9l7.83,4.5Z" transform="translate(-2.65)"/><path class="cls-10" d="M32.38,505.77l-7.83-4.5,7.83-4.74,8.06,4.74Z" transform="translate(-2.65)"/><path class="cls-9" d="M64.4,525.45,53,518.81l11.38-6.64L76,518.81Z" transform="translate(-2.65)"/><path class="cls-10" d="M64.39,520.47l-1.65-1V503.64l1.65.95Z" transform="translate(-2.65)"/><path class="cls-16" d="M66.05,519.52l-1.66,1V504.59l1.66-.95Z" transform="translate(-2.65)"/><path class="cls-16" d="M72.45,510.28,64.39,515v-9.25l8.06-4.5Z" transform="translate(-2.65)"/><path class="cls-12" d="M64.4,515l-7.83-4.74v-9l7.83,4.5Z" transform="translate(-2.65)"/><path class="cls-10" d="M64.4,505.77l-7.83-4.5,7.83-4.74,8,4.74Z" transform="translate(-2.65)"/><path class="cls-10" d="M304.35,379.9S306.6,368,294,368.65C294,368.65,294.23,381.93,304.35,379.9Z" transform="translate(-2.65)"/><path class="cls-10" d="M313.12,384.4s-3.82-7.87,7.88-10.35C320.77,374.05,322.12,385.3,313.12,384.4Z" transform="translate(-2.65)"/><path class="cls-12" d="M316.27,361s6.31,13.5-5.62,16C310.65,376.75,302.33,367.08,316.27,361Z" transform="translate(-2.65)"/><path class="cls-16" d="M309.75,390.7h.45v-.9a41.79,41.79,0,0,1,0-7.42,67.38,67.38,0,0,1,1.13-7.2,19.55,19.55,0,0,1,.9-3.6c.22-1.13.67-2.48.89-3.6a38.46,38.46,0,0,0-2,7.2c-.22,1.12-.45,2.47-.68,3.6s-.22,2.47-.44,3.6c0,1.12-.23,2.47-.23,3.82A21.42,21.42,0,0,0,310,390C309.75,390,309.75,390.25,309.75,390.7Z" transform="translate(-2.65)"/><path class="cls-16" d="M300.3,373.6l.68.9a3.38,3.38,0,0,1,.67.9,1.16,1.16,0,0,1,.45.9l.45.9a1.78,1.78,0,0,1,.45.9l.45.9c.22.23.22.68.45.9.22.68.68,1.13.9,1.8l.9,1.8.22.45.23.45.45.9c.45,1.35.9,2.48,1.35,3.83l.22.45.23.45.22.9v.22h.46l-.46-1.35-.22-.45-.23-.45c-.44-1.35-.9-2.7-1.34-3.82l-.45-.9-.23-.45-.23-.45-.9-1.8c-.22-.68-.67-1.13-.9-1.8-.22-.23-.22-.68-.45-.9l-.44-.9a1.73,1.73,0,0,1-.46-.9l-.67-.9a158.2,158.2,0,0,1-1.35-1.8l-.45-.68-.45-.9a9.63,9.63,0,0,0-1.58-1.35c.46.45.9.9,1.35,1.35Z" transform="translate(-2.65)"/><path class="cls-16" d="M311.55,391.15v-.45l.22-.67.23-1.13.23-1.12a25.09,25.09,0,0,1,1.57-4.5c.45-.68.68-1.35,1.12-2a13.27,13.27,0,0,1,1.58-2,6.23,6.23,0,0,0-1.58,1.8,5.14,5.14,0,0,0-.67,1.12c-.23.45-.45.68-.67,1.13a27.09,27.09,0,0,0-1.81,4.5l-.22,1.12-.22,1.13-.23.67v.68h.45Z" transform="translate(-2.65)"/><path class="cls-9" d="M316.5,394.53c-3.83,2.25-9.9,2.25-13.5,0-3.83-2.25-3.83-5.63,0-7.88s9.9-2.25,13.5,0C320.33,388.9,320.33,392.5,316.5,394.53Z" transform="translate(-2.65)"/></svg>