<svg id="圖層_1" data-name="圖層 1" xmlns="http://www.w3.org/2000/svg" xmlns:xlink="http://www.w3.org/1999/xlink" viewBox="0 0 1664.67 825"><defs><style>.cls-1{fill:none;}.cls-2{clip-path:url(#clip-path);}.cls-3{fill:#fff;}.cls-4{clip-path:url(#clip-path-2);}.cls-5{fill:url(#未命名漸層);}.cls-6{stroke-width:12px;fill:url(#未命名漸層_2);stroke:url(#未命名漸層_3);}.cls-10,.cls-7{fill:#f7f7f7;}.cls-7,.cls-8{fill-rule:evenodd;}.cls-8{fill:url(#未命名漸層_4);}.cls-9{fill:url(#未命名漸層_5);}.cls-11{fill:url(#未命名漸層_6);}.cls-12{fill:url(#未命名漸層_7);}.cls-13{fill:#424452;}.cls-14{fill:#ededed;}.cls-15{fill:url(#未命名漸層_9);}.cls-16{fill:url(#未命名漸層_10);}.cls-17{fill:url(#未命名漸層_11);}.cls-18{fill:url(#未命名漸層_12);}.cls-19{fill:url(#未命名漸層_13);}.cls-20{fill:url(#未命名漸層_14);}.cls-21{fill:url(#未命名漸層_15);}.cls-22{fill:url(#未命名漸層_16);}.cls-23{fill:gray;opacity:0.41;isolation:isolate;}.cls-24{fill:#efefee;}.cls-25{fill:url(#未命名漸層_17);}.cls-26{fill:#608b96;}.cls-27{fill:#919191;}.cls-28{fill:#bfbfbf;}.cls-29{fill:#bc8430;}.cls-30{fill:url(#未命名漸層_18);}.cls-31{fill:#8e6424;}.cls-32{fill:#8f6424;}.cls-33{fill:url(#未命名漸層_19);}.cls-34{fill:#d9d9d9;}.cls-35{fill:#e5e5e5;}.cls-36{fill:#fdfdfd;}.cls-37{fill:#84b4c2;}.cls-38{fill:#9f9f9f;}.cls-39{fill:url(#未命名漸層_20);}.cls-40{fill:url(#未命名漸層_21);}.cls-41{fill:url(#未命名漸層_22);}.cls-42{fill:url(#未命名漸層_23);}.cls-43{fill:url(#未命名漸層_24);}.cls-44{fill:url(#未命名漸層_25);}.cls-45{fill:url(#未命名漸層_26);}.cls-46{fill:url(#未命名漸層_27);}.cls-47{fill:url(#未命名漸層_28);}.cls-48{fill:#e54332;}.cls-49{fill:url(#未命名漸層_29);}.cls-50{fill:url(#未命名漸層_30);}.cls-51{fill:#f7bd00;}.cls-52{fill:url(#未命名漸層_31);}.cls-53{fill:#698f97;}.cls-54{fill:url(#未命名漸層_32);}.cls-55{fill:#9e3e38;}.cls-56{fill:url(#未命名漸層_33);}.cls-57{fill:#903933;}.cls-58{fill:#9b9b9b;}.cls-59{fill:#868686;}.cls-60{fill:url(#未命名漸層_34);}.cls-61{fill:url(#未命名漸層_35);}.cls-62{fill:url(#未命名漸層_36);}.cls-63{fill:url(#未命名漸層_37);}.cls-64{fill:#913933;}.cls-65{fill:url(#未命名漸層_38);}.cls-66{fill:#aaa;}.cls-67{fill:url(#未命名漸層_39);}.cls-68{fill:url(#未命名漸層_40);}.cls-69{fill:url(#未命名漸層_41);}.cls-70{fill:url(#未命名漸層_42);}.cls-71{fill:url(#未命名漸層_43);}.cls-72{fill:url(#未命名漸層_44);}.cls-73{fill:url(#未命名漸層_45);}.cls-74{fill:url(#未命名漸層_46);}.cls-75{fill:url(#未命名漸層_47);}.cls-76{fill:#acb8cc;}.cls-77{fill:#f64a3a;}.cls-78{fill:url(#未命名漸層_48);}.cls-79{fill:#ebebeb;}</style><clipPath id="clip-path" transform="translate(14.67)"><rect class="cls-1" width="375" height="825"/></clipPath><clipPath id="clip-path-2" transform="translate(14.67)"><rect class="cls-1" width="1650" height="825"/></clipPath><radialGradient id="未命名漸層" cx="-771.22" cy="952.87" r="1" gradientTransform="matrix(986.98, 0, 0, -986.98, 762000.04, 940875.56)" gradientUnits="userSpaceOnUse"><stop offset="0" stop-color="#f7f7f7"/><stop offset="1" stop-color="#9dc8d3" stop-opacity="0"/></radialGradient><linearGradient id="未命名漸層_2" x1="697.44" y1="826" x2="697.44" y2="1" gradientTransform="matrix(1, 0, 0, -1, 0, 826)" gradientUnits="userSpaceOnUse"><stop offset="0" stop-color="#9dc8d3" stop-opacity="0"/><stop offset="1" stop-color="#9dc8d3"/></linearGradient><linearGradient id="未命名漸層_3" x1="695.78" x2="695.78" xlink:href="#未命名漸層_2"/><radialGradient id="未命名漸層_4" cx="-771.59" cy="937.79" r="1" gradientTransform="matrix(1865.26, -43.86, -0.22, -9.53, 1430086.91, -24387.82)" gradientUnits="userSpaceOnUse"><stop offset="0" stop-color="#f7f7f7" stop-opacity="0"/><stop offset="1" stop-color="#84b4c2"/></radialGradient><linearGradient id="未命名漸層_5" x1="196.86" y1="186.21" x2="200.61" y2="491.45" gradientTransform="matrix(1, 0, 0, -1, 0, 826)" gradientUnits="userSpaceOnUse"><stop offset="0" stop-color="#84b4c2"/><stop offset="1" stop-color="#84b4c2" stop-opacity="0"/></linearGradient><linearGradient id="未命名漸層_6" x1="41.7" y1="714.61" x2="195.26" y2="610.09" gradientTransform="matrix(1, 0, 0, -1, 0, 826)" gradientUnits="userSpaceOnUse"><stop offset="0.11" stop-color="#f5c25b"/><stop offset="0.31" stop-color="#f59e5b"/></linearGradient><linearGradient id="未命名漸層_7" x1="219" y1="655.71" x2="38.36" y2="655.71" gradientTransform="matrix(1, 0, 0, -1, 0, 826)" gradientUnits="userSpaceOnUse"><stop offset="0" stop-color="#f3e5a5"/><stop offset="1" stop-color="#f4c15b"/></linearGradient><linearGradient id="未命名漸層_9" x1="279.1" y1="419.58" x2="279.1" y2="408.29" gradientTransform="matrix(1, 0, 0, -1, 0, 826)" gradientUnits="userSpaceOnUse"><stop offset="0" stop-color="#84b4c2"/><stop offset="1" stop-color="#9dc8d3"/></linearGradient><linearGradient id="未命名漸層_10" x1="279.03" y1="430.77" x2="279.03" y2="427.01" xlink:href="#未命名漸層_9"/><linearGradient id="未命名漸層_11" x1="279.1" y1="422.57" x2="279.1" y2="427.9" xlink:href="#未命名漸層_9"/><linearGradient id="未命名漸層_12" x1="279.1" y1="430.94" x2="279.1" y2="426.05" xlink:href="#未命名漸層_9"/><linearGradient id="未命名漸層_13" x1="262" y1="429.48" x2="262" y2="426.85" xlink:href="#未命名漸層_9"/><linearGradient id="未命名漸層_14" x1="262" y1="429.57" x2="262" y2="426.21" xlink:href="#未命名漸層_9"/><linearGradient id="未命名漸層_15" x1="261.93" y1="422.38" x2="261.93" y2="427.46" xlink:href="#未命名漸層_9"/><linearGradient id="未命名漸層_16" x1="254.52" y1="408.66" x2="268.97" y2="408.66" xlink:href="#未命名漸層_7"/><linearGradient id="未命名漸層_17" x1="309.84" y1="343.52" x2="309.84" y2="328.54" gradientTransform="matrix(1, 0, 0, -1, 0, 826)" gradientUnits="userSpaceOnUse"><stop offset="0" stop-color="#3c6a75"/><stop offset="1" stop-color="#608b96"/></linearGradient><linearGradient id="未命名漸層_18" x1="324.13" y1="347.77" x2="323.04" y2="347.56" gradientTransform="matrix(1, 0, 0, -1, 0, 826)" gradientUnits="userSpaceOnUse"><stop offset="0" stop-color="#f59e5b"/><stop offset="1" stop-color="#f5c25b"/></linearGradient><linearGradient id="未命名漸層_19" x1="317.29" y1="348.91" x2="324" y2="348.91" xlink:href="#未命名漸層_7"/><linearGradient id="未命名漸層_20" x1="303.81" y1="325.57" x2="303.22" y2="325.18" xlink:href="#未命名漸層_18"/><linearGradient id="未命名漸層_21" x1="303.1" y1="326.19" x2="304.75" y2="326.19" xlink:href="#未命名漸層_7"/><linearGradient id="未命名漸層_22" x1="303.71" y1="325.8" x2="305.24" y2="325.8" xlink:href="#未命名漸層_7"/><linearGradient id="未命名漸層_23" x1="291.13" y1="332.98" x2="290.61" y2="332.78" xlink:href="#未命名漸層_18"/><linearGradient id="未命名漸層_24" x1="290.68" y1="333.32" x2="292.05" y2="333.32" xlink:href="#未命名漸層_7"/><linearGradient id="未命名漸層_25" x1="302.25" y1="326.3" x2="301.81" y2="326.04" xlink:href="#未命名漸層_18"/><linearGradient id="未命名漸層_26" x1="301.84" y1="327.02" x2="303.21" y2="327.02" xlink:href="#未命名漸層_7"/><linearGradient id="未命名漸層_27" x1="302.55" y1="326.63" x2="303.93" y2="326.63" xlink:href="#未命名漸層_7"/><linearGradient id="未命名漸層_28" x1="302.97" y1="325.92" x2="302.52" y2="325.66" xlink:href="#未命名漸層_18"/><linearGradient id="未命名漸層_29" x1="304.47" y1="327" x2="304.11" y2="326.43" xlink:href="#未命名漸層_18"/><linearGradient id="未命名漸層_30" x1="302.89" y1="327.77" x2="302.73" y2="327.41" xlink:href="#未命名漸層_18"/><linearGradient id="未命名漸層_31" x1="303.61" y1="327.37" x2="303.38" y2="326.98" xlink:href="#未命名漸層_18"/><linearGradient id="未命名漸層_32" x1="78.51" y1="187.27" x2="78.51" y2="185.36" gradientTransform="matrix(1, 0, 0, -1, 0, 826)" gradientUnits="userSpaceOnUse"><stop offset="0" stop-color="#fa7188"/><stop offset="1" stop-color="#ff8ea2"/></linearGradient><linearGradient id="未命名漸層_33" x1="79.26" y1="186.88" x2="79.26" y2="184.9" xlink:href="#未命名漸層_32"/><linearGradient id="未命名漸層_34" x1="75.83" y1="186.32" x2="75.83" y2="184.02" xlink:href="#未命名漸層_32"/><linearGradient id="未命名漸層_35" x1="77.25" y1="185.46" x2="77.25" y2="183.22" xlink:href="#未命名漸層_32"/><linearGradient id="未命名漸層_36" x1="74.5" y1="185.14" x2="74.5" y2="183.1" xlink:href="#未命名漸層_32"/><linearGradient id="未命名漸層_37" x1="75.52" y1="184.59" x2="75.52" y2="182.55" xlink:href="#未命名漸層_32"/><linearGradient id="未命名漸層_38" x1="73" y1="184.28" x2="73" y2="182.24" xlink:href="#未命名漸層_32"/><linearGradient id="未命名漸層_39" x1="74.02" y1="183.73" x2="74.02" y2="181.68" xlink:href="#未命名漸層_32"/><linearGradient id="未命名漸層_40" x1="71.51" y1="183.41" x2="71.51" y2="181.37" xlink:href="#未命名漸層_32"/><linearGradient id="未命名漸層_41" x1="72.49" y1="182.86" x2="72.49" y2="180.82" xlink:href="#未命名漸層_32"/><linearGradient id="未命名漸層_42" x1="69.77" y1="182.78" x2="69.77" y2="180.54" xlink:href="#未命名漸層_32"/><linearGradient id="未命名漸層_43" x1="71.19" y1="181.99" x2="71.19" y2="179.68" xlink:href="#未命名漸層_32"/><linearGradient id="未命名漸層_44" x1="68.51" y1="181.68" x2="68.51" y2="179.64" xlink:href="#未命名漸層_32"/><linearGradient id="未命名漸層_45" x1="69.46" y1="181.13" x2="69.46" y2="179.08" xlink:href="#未命名漸層_32"/><linearGradient id="未命名漸層_46" x1="68.36" y1="180.97" x2="68.36" y2="178.99" xlink:href="#未命名漸層_32"/><linearGradient id="未命名漸層_47" x1="74.14" y1="187.57" x2="74.14" y2="181.75" gradientTransform="matrix(1, 0, 0, -1, 0, 826)" gradientUnits="userSpaceOnUse"><stop offset="0" stop-color="#ff8ea2"/><stop offset="1" stop-color="#ffa6ad"/></linearGradient><linearGradient id="未命名漸層_48" x1="53.56" y1="188.28" x2="53.56" y2="178.73" xlink:href="#未命名漸層_47"/></defs><g class="cls-2"><rect class="cls-3" x="14.67" width="375" height="825"/><g class="cls-4"><path class="cls-5" d="M1650,0H0V825H1650Z" transform="translate(14.67)"/><path class="cls-6" d="M1403.54,6H-8.67V241.23l172.81-86.41h0M1403.54,6,299,160.19c-36.58-18.29-95.7-18.29-132.14,0l-2.68-5.37M1403.54,6,767.91,324h0C750.67,332.57,727.73,337,704.47,337s-46.16-4.46-63.32-13.08h0L301.65,154.82M1403.54,6,301.65,154.82m-137.5,0c19.27-9.67,44.14-14.35,68.7-14.35s49.47,4.68,68.8,14.35m-137.5,0h137.5M180.52,657.94h0c17.17-8.62,40.08-13.08,63.31-13.08s46.15,4.46,63.31,13.08h0L629.27,819H-8.67V752.53Z" transform="translate(14.67)"/></g><path class="cls-7" d="M112,624.5a3,3,0,0,1-3-3v-196H232.65A38.49,38.49,0,0,0,262,455V621.5a3,3,0,0,1-3,3Zm73.5-217h47.59A38.53,38.53,0,0,1,262,379.83V301h18v79.19a38.48,38.48,0,0,1,0,74.45V621.5a21,21,0,0,1-21,21H112a21,21,0,0,1-21-21v-249h18v35Z" transform="translate(14.67)"/><path class="cls-8" d="M112,624.5a3,3,0,0,1-3-3v-196H232.65A38.49,38.49,0,0,0,262,455V621.5a3,3,0,0,1-3,3Zm73.5-217h47.59A38.53,38.53,0,0,1,262,379.83V301h18v79.19a38.48,38.48,0,0,1,0,74.45V621.5a21,21,0,0,1-21,21H112a21,21,0,0,1-21-21v-249h18v35Z" transform="translate(14.67)"/><path class="cls-9" d="M109,425.5h-1v-1h1Zm123.65,0v-1h.81l.16.79ZM262,455l.21-1,.79.17v.8ZM233.09,407.5l1,.26-.19.74h-.77ZM262,379.83h1v.81l-.79.17ZM262,301h-1v-1h1Zm18,0v-1h1v1Zm0,79.19-.25,1L279,381v-.77Zm28.69,39.07-1-.05ZM280,454.64h-1v-.77l.75-.19ZM91,372.5H90v-1h1Zm18,0v-1h1v1Zm0,35v1h-1v-1Zm1,214a2,2,0,0,0,2,2v2a4,4,0,0,1-4-4Zm0-196v196h-2v-196Zm75.5,1H109v-2h76.5Zm47.15,0H185.5v-2h47.15ZM261.79,456a39.53,39.53,0,0,1-30.12-30.26l2-.42A37.53,37.53,0,0,0,262.21,454ZM261,621.5V455h2V621.5Zm-2,2a2,2,0,0,0,2-2h2a4,4,0,0,1-4,4Zm-147,0H259v2H112Zm121.09-215H185.5v-2h47.59Zm29.12-27.69a37.53,37.53,0,0,0-28.16,26.95l-1.93-.52a39.52,39.52,0,0,1,29.67-28.38ZM263,301v78.83h-2V301Zm17,1H262v-2h18Zm-1,78.19V301h2v79.19Zm28.69,39a37.47,37.47,0,0,0-27.94-38l.5-1.94a39.49,39.49,0,0,1,29.44,40.08Zm-27.94,34.47a37.48,37.48,0,0,0,27.94-34.47l2,.09a39.47,39.47,0,0,1-29.44,36.31ZM279,621.5V454.64h2V621.5Zm-20,20a20,20,0,0,0,20-20h2a22,22,0,0,1-22,22Zm-147,0H259v2H112Zm-20-20a20,20,0,0,0,20,20v2a22,22,0,0,1-22-22Zm0-249v249H90v-249Zm17,1H91v-2h18Zm-1,34v-35h2v35Zm77.5,1H109v-2h76.5Z" transform="translate(14.67)"/><circle class="cls-10" cx="284.67" cy="417" r="18"/><path class="cls-11" d="M52.29,141.12,176.34,69.31c7-3.92,13.5-4.36,18.28-1.31l15.67,8.7-5.66,51.8c0,20.46-12.62,44.83-28.29,53.54L47.07,262.56l-12.62-7H34l-.43-.44C27.92,251.68,24,243.85,24,232.53V194.66C24,174.2,36.62,149.83,52.29,141.12Z" transform="translate(14.67)"/><path class="cls-12" d="M190.71,190.74l-124,71.82c-15.67,9.14-28.3-.43-28.3-21.32V203.37c0-20.46,12.63-44.84,28.3-53.54L190.71,78c15.67-9.14,28.29.44,28.29,21.33v37.87C219,157.66,206.38,182,190.71,190.74Z" transform="translate(14.67)"/><path class="cls-13" d="M80.53,199.47l-10.65,5.79A1.36,1.36,0,0,1,67.67,204l-.5-12a3.85,3.85,0,0,1,.53-2,4,4,0,0,1,1.48-1.5l10.87-5.9a.88.88,0,0,1,.89-.07.82.82,0,0,1,.43.78,2.49,2.49,0,0,1-1.21,2.13l-5.55,3c-.16.09-.2.18-.1.29a.6.6,0,0,1,.16.41c.06.13.13.17.22.12l3.52-1.91a.83.83,0,0,1,.82-.08.86.86,0,0,1,.36.75,2.19,2.19,0,0,1-.28,1.09,2,2,0,0,1-.79.8l-1.66.9a.36.36,0,0,0-.2.35l0,.68c0,.16.08.2.22.13l2.74-1.49a.82.82,0,0,1,.83-.08.81.81,0,0,1,.35.75,2.11,2.11,0,0,1-.28,1.09,2,2,0,0,1-.79.8l-1.05.57a.31.31,0,0,0-.18.21c0,.07,0,.11.08.13a3.14,3.14,0,0,1,.62.27c.2.11.38.23.56.35a.73.73,0,0,1,.35.63,2,2,0,0,1-.45,1.27,2,2,0,0,1-.73.68.87.87,0,0,1-.93,0,5.49,5.49,0,0,0-1-.45q-.51-.21-1-.36c-.12,0-.22.05-.31.21a19.71,19.71,0,0,1-3.1,4.09.31.31,0,0,0-.14.24s.09,0,.18,0l7.73-4.2q.91-.49,1.2.3c0,.08.1,0,.14-.08a3,3,0,0,1,1-1.51c.51-.36,1-.74,1.47-1.13s.94-.81,1.38-1.24c.19-.18.19-.29,0-.34a5.53,5.53,0,0,1-.76-.2.65.65,0,0,1-.41-.31,1.43,1.43,0,0,1-.13-.54,2.27,2.27,0,0,1,.41-1.37v-.11c0-.12,0-.16-.11-.11l-1.09.59a1,1,0,0,1-.93.1,1,1,0,0,1-.4-.85,2.21,2.21,0,0,1,.31-1.19,2.38,2.38,0,0,1,.9-.93l9.7-5.27a2.41,2.41,0,0,1-2.29.26,2.07,2.07,0,0,1-1-1.92l0-.84c0-.16-.08-.2-.22-.12l-2.68,1.45a.4.4,0,0,0-.24.29,15.88,15.88,0,0,1-4.18,6.68,1.44,1.44,0,0,1-.45.37,1.08,1.08,0,0,1-.93.1,1,1,0,0,1-.47-.93,3,3,0,0,1,.92-2.22,10.7,10.7,0,0,0,2.23-3.25A6.49,6.49,0,0,1,86.3,179l4.36-2.37a1.25,1.25,0,0,1,2,1.15l.06,1.44c0,.08.05.13.15.16a.49.49,0,0,0,.32-.05l1.65-.9a1,1,0,0,1,1-.07.85.85,0,0,1,.43.82,2.4,2.4,0,0,1-.34,1.29,2.46,2.46,0,0,1-.93,1l-1.76,1a1.11,1.11,0,0,1,1.11-.11,1,1,0,0,1,.47.89,2.42,2.42,0,0,1-.15.82,17.21,17.21,0,0,1-1.15,2.54A26.5,26.5,0,0,1,92,189c-.15.22-.14.32.05.3.55-.11,1.1-.23,1.64-.36a11,11,0,0,0,1.67-.58.84.84,0,0,1,.93,0,.94.94,0,0,1,.43.87,2.31,2.31,0,0,1-.34,1.28,2.21,2.21,0,0,1-1,.9,16.49,16.49,0,0,1-3.33,1,25.32,25.32,0,0,1-3,.39.59.59,0,0,0-.28.15c-1,1-1.93,2-2.9,2.88s-1.83,1.57-2.64,2.17a1.24,1.24,0,0,1-.89.28.8.8,0,0,1-.59-.45c-.06-.08-.09-.08-.11,0A2.25,2.25,0,0,1,80.53,199.47Zm-7.78-9.87c.12-.2.07-.24-.14-.13l-2.54,1.38a.36.36,0,0,0-.2.35l.21,5c0,.21.06.2.14,0a2.86,2.86,0,0,1,.58-.88l.1-.1s0,0-.11,0a.52.52,0,0,1-.41-.35.48.48,0,0,0-.08-.16v-.24a2.14,2.14,0,0,1,.49-1.37,15.73,15.73,0,0,0,1.81-3.11C72.61,189.87,72.67,189.76,72.75,189.6Zm-1.22,5.24L74,193.5a.37.37,0,0,0,.21-.35l0-.68c0-.16-.08-.21-.22-.13l-.85.46a.64.64,0,0,0-.24.25,9.58,9.58,0,0,1-1.15,1.61A1.36,1.36,0,0,1,71.53,194.84Zm1.25,2.22q.14-.15.09-.21t-.18,0l-1.44.78c-.44.25-.77.2-1-.12-.1-.08-.15,0-.14.12l.08,2c0,.21.09.2.25,0A1.75,1.75,0,0,1,71,199,14.42,14.42,0,0,0,72.78,197.06ZM86.89,189l.87.22c.32,0,.65.11,1,.19a.9.9,0,0,0,.28-.16,13.54,13.54,0,0,0,.85-1.15c.27-.39.52-.76.74-1.1.07-.09.09-.16.07-.2s-.09-.07-.18,0L87,188.68a.55.55,0,0,0-.21.19C86.79,188.94,86.82,189,86.89,189ZM70.52,201.72c-.14-.09-.21-.06-.21.07v.08c0,.16.08.2.22.13S70.7,201.82,70.52,201.72Zm-2.28,4.67L95.31,191.7a.84.84,0,0,1,.93-.06.92.92,0,0,1,.43.83,2.52,2.52,0,0,1-.34,1.29,2.33,2.33,0,0,1-.9.89l-10,5.44a.36.36,0,0,0-.2.36v.32c0,.16.08.2.22.12l7-3.78a1.4,1.4,0,0,1,2.21,1.26l.35,8.51a3.84,3.84,0,0,1-.56,2.06A3.66,3.66,0,0,1,93,210.46L72,221.82a1.51,1.51,0,0,1-1.54.1,1.6,1.6,0,0,1-.67-1.39L69.48,212a3.77,3.77,0,0,1,.52-2,3.89,3.89,0,0,1,1.49-1.54l5.73-3.11a.34.34,0,0,0,.2-.32c0-.18.07-.31.09-.37v-.08c0-.14-.08-.16-.22-.09l-8.93,4.85a.82.82,0,0,1-1.36-.77,2.3,2.3,0,0,1,.31-1.23A2.33,2.33,0,0,1,68.24,206.39Zm12.13-3c0,.17,0,.22.19.15l1.61-.88a.36.36,0,0,0,.2-.36V202c0-.16-.08-.2-.22-.12l-1.51.82a.39.39,0,0,0-.24.37Zm-4.78,6.11c.09-.1.13-.18.1-.22s-.09-.07-.18,0l-2.88,1.56a.36.36,0,0,0-.2.36l.16,4.07c0,.17.08.21.23.13l.59-.32c.19-.11.21-.2.06-.28q-.51-.18-.54-.93a3.18,3.18,0,0,1,1-2.39A17.89,17.89,0,0,0,75.59,209.51Zm16-4.33a.36.36,0,0,0,.2-.36l-.17-4.07c0-.16-.08-.2-.22-.13l-5.87,3.19a.38.38,0,0,0-.2.35l0,.32a.61.61,0,0,0,.27.55.79.79,0,0,0,.61-.08l3.79-2.07a.86.86,0,0,1,1.33.76,2.39,2.39,0,0,1-.31,1.23,2.2,2.2,0,0,1-.9.89l-3.83,2.08a3,3,0,0,1-2.71.41,2.32,2.32,0,0,1-1.1-2.22l0-.32c0-.16-.08-.2-.22-.12L79.76,207a.42.42,0,0,0-.24.29,17.42,17.42,0,0,1-1.65,3.4,19.72,19.72,0,0,1-2.43,3.07.29.29,0,0,0-.13.24s.08,0,.18,0Zm-18.7,12.65a.34.34,0,0,0-.2.35v0c0,.16.08.2.22.13l18.8-10.21a.37.37,0,0,0,.21-.36v0c0-.16-.08-.2-.22-.12Zm41.62-39.15a2.59,2.59,0,0,1-1,1,1,1,0,0,1-1.15,0,.92.92,0,0,1-.39-.85,2.63,2.63,0,0,1,.43-1.55,23.45,23.45,0,0,0,2.84-7.13,3.39,3.39,0,0,1,1.66-2.38,1,1,0,0,1,1-.09.92.92,0,0,1,.43.83,2,2,0,0,1,0,.43l-.15.7q0,.3.18.18l3.41-1.85a.4.4,0,0,0,.24-.29l.54-1.77a3.63,3.63,0,0,1,1-1.67c.14-.15.16-.26.06-.32a1.28,1.28,0,0,1-.3-.44c-.06-.11-.13-.14-.22-.09l-2.18,1.19a.47.47,0,0,0-.21.31,2.57,2.57,0,0,1-1.35,2c-.75.41-1.24.26-1.46-.43-.05-.11-.12-.14-.22-.09l-4.07,2.22a1,1,0,0,1-1,.05,1.1,1.1,0,0,1-.47-.93,2.91,2.91,0,0,1,1.34-2.36l4.08-2.21a.51.51,0,0,0,.2-.32,2.61,2.61,0,0,1,1.36-2c.75-.41,1.23-.26,1.46.43q.08.16.21.09l2.18-1.18a.46.46,0,0,0,.21-.32,2.59,2.59,0,0,1,1.35-2c.75-.41,1.24-.26,1.46.43,0,.11.12.14.22.09l3.72-2a.94.94,0,0,1,1-.06,1,1,0,0,1,.47.89,2.78,2.78,0,0,1-.38,1.39,2.3,2.3,0,0,1-1,1l-3.73,2a.46.46,0,0,0-.2.31,2.26,2.26,0,0,1-.29.85,4.65,4.65,0,0,1-.55.71c-.13.13-.14.23,0,.3a1,1,0,0,1,.28.7,1.77,1.77,0,0,1,0,.48,6.87,6.87,0,0,1-.22.81c-.06.23,0,.29.19.19l4.85-2.64a.9.9,0,0,1,.93-.05.85.85,0,0,1,.47.81,2.65,2.65,0,0,1-.34,1.29,2.39,2.39,0,0,1-.94,1l-5.69,3.09a.36.36,0,0,0-.2.36l0,.4c0,.16.07.2.22.12l5-2.69a.89.89,0,0,1,.9,0,.83.83,0,0,1,.43.79,2.36,2.36,0,0,1-.35,1.25,2.27,2.27,0,0,1-.86.92l-5,2.69a.35.35,0,0,0-.2.35v.4c0,.16.08.2.22.13l5-2.69a.89.89,0,0,1,.9,0,.83.83,0,0,1,.43.79,2.36,2.36,0,0,1-.35,1.25,2.31,2.31,0,0,1-.86.87l-5,2.7a.34.34,0,0,0-.2.35l0,.4c0,.16.08.2.22.13l5.69-3.1a.89.89,0,0,1,1.4.8,2.36,2.36,0,0,1-.34,1.25,2.43,2.43,0,0,1-.93,1l-13.57,7.37a1.41,1.41,0,0,1-2.25-1.27l-.22-5.32c0-.27-.09-.26-.25,0Zm-4.38-8.53-6.47,3.51a1.12,1.12,0,0,1-1.08.09,1.07,1.07,0,0,1-.5-1,3,3,0,0,1,1.44-2.54l6.46-3.51a1,1,0,0,1,1.08-.05,1.12,1.12,0,0,1,.47,1,2.75,2.75,0,0,1-.37,1.43A2.66,2.66,0,0,1,110.16,170.15Zm1.09,4.84L103,179.45a1.1,1.1,0,0,1-1.07.09,1.06,1.06,0,0,1-.48-1,2.54,2.54,0,0,1,.38-1.38,2.48,2.48,0,0,1,1-1.09l8.23-4.47a.94.94,0,0,1,1,0,1,1,0,0,1,.5.91,2.69,2.69,0,0,1-.41,1.44A2.52,2.52,0,0,1,111.25,175Zm6.46-1.1c0,.16.09.2.23.12l3.44-1.87a.34.34,0,0,0,.2-.35v-.4c0-.16-.08-.2-.22-.13l-3.45,1.87a.36.36,0,0,0-.2.36Zm-13.58,7,6.19-3.36a1,1,0,0,1,1.07,0,1,1,0,0,1,.51.91,2.69,2.69,0,0,1-.41,1.44,2.54,2.54,0,0,1-1,1.09l-6.19,3.36a1.1,1.1,0,0,1-1.11.08,1.14,1.14,0,0,1-.47-1,2.53,2.53,0,0,1,.37-1.39A2.8,2.8,0,0,1,104.13,180.9Zm13.74-3.21c0,.16.08.2.22.12l3.45-1.87a.34.34,0,0,0,.2-.35l0-.4c0-.16-.08-.2-.22-.13l-3.44,1.87a.36.36,0,0,0-.2.36Zm-13.52,8.56,6.19-3.36a1.08,1.08,0,0,1,1.08,0,1,1,0,0,1,.5.95,2.77,2.77,0,0,1-.4,1.49,2.83,2.83,0,0,1-1,1.05l-6.18,3.36a1.11,1.11,0,0,1-1.12.07,1.15,1.15,0,0,1-.47-1,2.56,2.56,0,0,1,.41-1.44A2.76,2.76,0,0,1,104.35,186.25ZM118,181.44c0,.16.08.21.22.13l3.44-1.87a.36.36,0,0,0,.2-.36v-.4c0-.16-.08-.2-.22-.12l-3.45,1.87a.34.34,0,0,0-.2.35Zm-12.82,9.86,4.92-2.67a1.65,1.65,0,0,1,1.65-.12,1.6,1.6,0,0,1,.78,1.5l.29,7.07a4.27,4.27,0,0,1-.59,2.21,4.08,4.08,0,0,1-1.62,1.69l-4.92,2.67a1.59,1.59,0,0,1-1.68.1,1.68,1.68,0,0,1-.75-1.47L103,195.2a4.68,4.68,0,0,1,2.21-3.9Zm26.17-5.05a1,1,0,0,1,1.08.06,1.22,1.22,0,0,1,.51,1,2.5,2.5,0,0,1-.44,1.46,2.18,2.18,0,0,1-1,1,35.44,35.44,0,0,1-4.64,1.58,20.21,20.21,0,0,1-4,.74c-.09,0-.19,0-.28.16a53.11,53.11,0,0,1-4.16,3.73q-2,1.66-3.62,2.82a1,1,0,0,1-1.07.17.87.87,0,0,1-.5-.87,3.18,3.18,0,0,1,.33-1.49,3.55,3.55,0,0,1,1-1.25q1.11-.81,2.16-1.62c.72-.58,1.4-1.15,2.05-1.69.18-.18.19-.29,0-.34a2.92,2.92,0,0,0-.36-.17,2.52,2.52,0,0,0-.33-.14,1,1,0,0,1-.47-.89,2.56,2.56,0,0,1,.37-1.35,2.19,2.19,0,0,1,.21-.32c.18-.26.16-.33,0-.22l-3.3,1.8a1.14,1.14,0,0,1-1.08.09,1,1,0,0,1-.47-.93,2.68,2.68,0,0,1,.38-1.39,2.54,2.54,0,0,1,1-1.09l15-8.17a.94.94,0,0,1,1-.05.88.88,0,0,1,.43.79,1.94,1.94,0,0,1-.21.93,30.75,30.75,0,0,1-1.87,3.59,40.22,40.22,0,0,1-2.34,3.35c-.21.25-.21.35,0,.3a21.17,21.17,0,0,0,2.12-.67C129.66,186.91,130.49,186.6,131.38,186.25Zm-25.17,13.58c0,.16.08.21.22.13l3.23-1.76a.33.33,0,0,0,.2-.35l-.22-5.44c0-.16-.08-.2-.22-.12L106.18,194a.38.38,0,0,0-.2.36ZM120,188q.62.2,1.2.33l1.23.15a1.1,1.1,0,0,0,.28-.15c.52-.59,1-1.16,1.51-1.72s.91-1.11,1.29-1.65c.1-.1.13-.17.1-.21s-.08-.08-.18,0l-5.45,3c-.25.14-.27.25,0,.32C119.94,188,120,188,120,188Zm45.76-27.63a.44.44,0,0,0-.1.22s.09,0,.18,0l.18-.1a.94.94,0,0,1,1.5.86,2.52,2.52,0,0,1-.37,1.38,2.58,2.58,0,0,1-1,1l-5.48,3a.36.36,0,0,0-.2.36l.08,2a6.83,6.83,0,0,1-.72,3.41,9.79,9.79,0,0,1-2.08,2.77,13.08,13.08,0,0,1-2.65,2,5.27,5.27,0,0,1-.78.34l-.77.34a.88.88,0,0,1-.95-.19,1.3,1.3,0,0,1-.4-1,3,3,0,0,1,.51-1.75,2.6,2.6,0,0,1,1.35-1.14l.82-.28.73-.36c1.29-.7,1.92-1.53,1.88-2.49l-.08-2c0-.16-.08-.2-.22-.13l-10.44,5.67a.29.29,0,0,0-.17.18c0,.05,0,.09.11.1a.72.72,0,0,1,.4.27,16.68,16.68,0,0,1,1.13,1.31,11.1,11.1,0,0,1,1,1.36,1.24,1.24,0,0,1,.21.62,2.25,2.25,0,0,1-.22,1,2.73,2.73,0,0,1-.6.94,3.11,3.11,0,0,0-.28.23,1,1,0,0,1-.31.25,1.07,1.07,0,0,1-1.45-.15,16.71,16.71,0,0,0-2.15-2.39,1.06,1.06,0,0,1-.35-.83,2.27,2.27,0,0,1,.37-1.35c.14-.23.12-.31,0-.22l-5.49,3a1.08,1.08,0,0,1-1,.07,1,1,0,0,1-.47-.93,2.68,2.68,0,0,1,.38-1.39,2.75,2.75,0,0,1,1-1L157,165.33a.36.36,0,0,0,.2-.36l0-.44a3.1,3.1,0,0,1,.48-1.6c.06-.09.09-.15.06-.16s0,0-.14,0c-2.15,1.38-4.33,2.76-6.55,4.12s-4.31,2.59-6.28,3.74l-5.12,3a1.17,1.17,0,0,1-1.08.09,1.08,1.08,0,0,1-.47-1,2.67,2.67,0,0,1,.37-1.39,3.1,3.1,0,0,1,1-1.13c1.33-.78,2.95-1.71,4.84-2.79s3.91-2.32,6-3.61a.34.34,0,0,0,.2-.35l0-1.4c0-.16-.08-.2-.22-.12l-6.79,3.68a1.74,1.74,0,0,1-1.68.14,1.68,1.68,0,0,1-.75-1.52l-.24-5.83a4.68,4.68,0,0,1,2.21-3.9l6.79-3.68a.38.38,0,0,0,.2-.36l0-.56c0-.16-.08-.2-.22-.12L138,156.25a1,1,0,0,1-1,.07,1.07,1.07,0,0,1-.43-.91,2.37,2.37,0,0,1,.34-1.32,2.58,2.58,0,0,1,1-1l11.81-6.41a.35.35,0,0,0,.2-.35l0-.49a2.58,2.58,0,0,1,.41-1.44,2.8,2.8,0,0,1,1.07-1.11,1,1,0,0,1,1.07-.06,1.08,1.08,0,0,1,.51,1l0,.47c0,.16.08.21.22.13L165,138.32a.93.93,0,0,1,1.47.83,2.48,2.48,0,0,1-.38,1.35,2.3,2.3,0,0,1-1,1L153.3,148a.36.36,0,0,0-.2.35l0,.56c0,.16.09.2.23.13l6.89-3.75a1.52,1.52,0,0,1,2.42,1.38l.25,5.84a4.31,4.31,0,0,1-.53,2.08c-.11.2-.08.28.08.24a1,1,0,0,1,1.06.33,17.84,17.84,0,0,1,1.29,1.63c.43.61.81,1.19,1.15,1.74a1.36,1.36,0,0,1,.13.59A2.39,2.39,0,0,1,165.75,160.35ZM150,155.07a.34.34,0,0,0,.2-.35l0-.76c0-.16-.08-.2-.22-.13l-6,3.27a.34.34,0,0,0-.2.35l0,.76c0,.16.08.2.22.13Zm9.53-5.17a.37.37,0,0,0,.2-.36l0-.75c0-.16-.09-.21-.23-.13l-6,3.28a.36.36,0,0,0-.2.36l0,.76c0,.16.08.2.22.12Zm-15.43,11.15a.36.36,0,0,0-.2.36l0,.76c0,.16.08.2.22.12l6-3.26a.36.36,0,0,0,.2-.36l0-.76c0-.15-.08-.2-.22-.12Zm15.59-7.19a.36.36,0,0,0,.2-.36l0-.76c0-.16-.08-.2-.22-.12l-6.05,3.28a.37.37,0,0,0-.2.35l0,.76c0,.16.08.2.22.13Zm.73,2.91c.09-.24,0-.31-.15-.2l-6.5,3.53a.35.35,0,0,0-.21.35l.05,1.16c0,.16.08.2.22.13,1.08-.67,2.15-1.35,3.23-2s2.11-1.36,3.11-2a.53.53,0,0,0,.2-.39A1.91,1.91,0,0,1,160.46,156.77Zm-.92,4.79c-.18.15-.19.24,0,.26.48.09.74.44.76,1.05l0,.44c0,.16.08.2.22.13l3-1.6c.09-.06.13-.11.13-.16s0-.11-.07-.12a.79.79,0,0,1-.45-.41,7.4,7.4,0,0,0-.81-1.24c0-.07-.11-.06-.25,0Zm41.92-10.42-25,13.55a1.4,1.4,0,0,1-2.25-1.27l-1.17-28.33a3.74,3.74,0,0,1,.56-2.07,3.87,3.87,0,0,1,1.48-1.54l24.71-13.41a1,1,0,0,1,1.59.93,2.7,2.7,0,0,1-.41,1.45,2.6,2.6,0,0,1-1,1.09L176.5,134.29a.37.37,0,0,0-.21.36l1.07,25.77c0,.16.08.21.22.13l23.73-12.88a1.1,1.1,0,0,1,1.11-.08,1,1,0,0,1,.51.95,2.78,2.78,0,0,1-.41,1.49A2.59,2.59,0,0,1,201.46,151.14ZM193.68,137l-8.58,4.65a1.72,1.72,0,0,1-1.68.14,1.66,1.66,0,0,1-.75-1.51l-.18-4.44a4.68,4.68,0,0,1,2.21-3.9l8.58-4.66a1.55,1.55,0,0,1,2.43,1.38l.18,4.44a4.33,4.33,0,0,1-.59,2.24A4.12,4.12,0,0,1,193.68,137Zm-8-2.2a.35.35,0,0,0-.2.35l.11,2.6c0,.16.08.2.22.13l6.89-3.74a.36.36,0,0,0,.2-.36l-.11-2.6c0-.15-.08-.2-.22-.12Zm1.08,19-5.8,3.15a1.76,1.76,0,0,1-1.69.14,1.73,1.73,0,0,1-.74-1.52l-.23-5.47a4.1,4.1,0,0,1,.59-2.2,4.24,4.24,0,0,1,1.62-1.7l5.8-3.15a1.55,1.55,0,0,1,2.43,1.38l.23,5.47a4.36,4.36,0,0,1-.59,2.25A4.28,4.28,0,0,1,186.76,153.77Zm12.09-6.56-5.94,3.22a1.5,1.5,0,0,1-2.43-1.38l-.23-5.47a4.1,4.1,0,0,1,.59-2.2,4.17,4.17,0,0,1,1.62-1.7l5.94-3.23a1.57,1.57,0,0,1,1.65-.07,1.55,1.55,0,0,1,.78,1.45l.23,5.48a4.33,4.33,0,0,1-.59,2.24A4.25,4.25,0,0,1,198.85,147.21ZM181.52,149a.37.37,0,0,0-.2.35l.16,3.72c0,.16.08.2.22.13l4.08-2.22a.36.36,0,0,0,.2-.35l-.16-3.72c0-.16-.08-.2-.22-.12Zm11.92-6.47a.35.35,0,0,0-.2.35l.15,3.72c0,.16.08.2.23.13l4.25-2.31a.36.36,0,0,0,.2-.36l-.15-3.71c0-.17-.08-.21-.22-.13Z" transform="translate(14.67)"/><rect class="cls-1" x="318.67" y="8" width="46.15" height="24"/><path class="cls-14" d="M274.35,422.94a1.39,1.39,0,0,0-.37-.22c-.15-.15-.44-.3-.59-.45a.92.92,0,0,1-.37-.36,2.39,2.39,0,0,1-.37-.52l-.22-.44a1.13,1.13,0,0,1-.14-.44c0-.08-.08-.22-.08-.3s-.07-.37-.07-.51a3.5,3.5,0,0,0,1.91,2.8,10.86,10.86,0,0,0,9.88.07,3.59,3.59,0,0,0,2.14-2.95v.3c0,.14-.08.37-.08.59a.56.56,0,0,1-.14.29.65.65,0,0,1-.15.3,1.81,1.81,0,0,1-.3.44,2,2,0,0,1-.29.37l-.22.22a5.46,5.46,0,0,1-.74.59c-.15.07-.29.22-.44.29a1.89,1.89,0,0,0-.37.22c-.15.08-.37.15-.52.22a.93.93,0,0,1-.44.15c-.44.15-.81.22-1,.3a8.59,8.59,0,0,1-2,.22h-.95c-.37,0-.59-.08-1-.08a8.94,8.94,0,0,1-1-.22,1,1,0,0,1-.44-.15c-.15-.07-.3-.07-.45-.14a.93.93,0,0,0-.44-.15l-.44-.22A.84.84,0,0,1,274.35,422.94Z" transform="translate(14.67)"/><path class="cls-14" d="M272.14,419.69v-3.9a3.49,3.49,0,0,0,1.91,2.8,10.86,10.86,0,0,0,9.88.07,3.59,3.59,0,0,0,2.14-3v3.91a3.69,3.69,0,0,1-2.14,2.95,11.11,11.11,0,0,1-9.88-.07A3.5,3.5,0,0,1,272.14,419.69Z" transform="translate(14.67)"/><path class="cls-15" d="M272.14,415.79v-9.44a3.49,3.49,0,0,0,1.91,2.8,10.89,10.89,0,0,0,9.88.08,3.6,3.6,0,0,0,2.14-3v9.43a3.68,3.68,0,0,1-2.14,3,11.07,11.07,0,0,1-9.88-.07A3.4,3.4,0,0,1,272.14,415.79Z" transform="translate(14.67)"/><path class="cls-14" d="M286.07,404.36A.76.76,0,0,0,286,404a1.39,1.39,0,0,0-.14-.51,6.32,6.32,0,0,0-.59-1.33,4.32,4.32,0,0,0-.45-.59c-.14-.15-.29-.37-.44-.44l-.29-.3c-.08-.07-.22-.14-.3-.22l-.66-.44c-.15-.07-.37-.22-.52-.29a.53.53,0,0,0-.37-.15.93.93,0,0,0-.44-.15c-.15-.07-.29-.07-.44-.15a2.76,2.76,0,0,0-.74-.14,3.72,3.72,0,0,1-.37-.08,3.29,3.29,0,0,1-.36-.07c-.23,0-.52-.08-.74-.08h-.74a.54.54,0,0,0-.37.08,3.52,3.52,0,0,0-.81.15,1.13,1.13,0,0,0-.44.14c-.22.08-.51.15-.74.22s-.37.15-.51.23a2.25,2.25,0,0,1-.37.22,4.36,4.36,0,0,0-.59.36,2.11,2.11,0,0,0-.59.52l-.44.44c-.08.08-.15.23-.22.3s-.22.29-.3.44-.22.3-.29.44a.53.53,0,0,0-.15.3,1.1,1.1,0,0,0-.15.44,3.1,3.1,0,0,0-.07.37c0,.15-.07.37-.07.51s-.08.52-.08.74a3.48,3.48,0,0,0,1.92,2.8,10.8,10.8,0,0,0,9.87.08,3.6,3.6,0,0,0,2.14-2.95A1.34,1.34,0,0,1,286.07,404.36Z" transform="translate(14.67)"/><path class="cls-14" d="M272.14,406.43V405a3.49,3.49,0,0,0,1.91,2.8,10.83,10.83,0,0,0,9.88.08,3.6,3.6,0,0,0,2.14-2.95v1.47a3.69,3.69,0,0,1-2.14,2.95,11.11,11.11,0,0,1-9.88-.07A3.44,3.44,0,0,1,272.14,406.43Z" transform="translate(14.67)"/><path class="cls-16" d="M281.87,395.89c1.47.88,1.47,2.35-.15,3.16a6.06,6.06,0,0,1-5.53-.07c-1.47-.88-1.47-2.36.15-3.17A6.09,6.09,0,0,1,281.87,395.89Z" transform="translate(14.67)"/><path class="cls-17" d="M274.35,400.68V398.1a2.45,2.45,0,0,0,1.32,1.91,7.41,7.41,0,0,0,6.71.08,2.43,2.43,0,0,0,1.48-2v2.58a2.43,2.43,0,0,1-1.48,2,7.41,7.41,0,0,1-6.71-.08A2.45,2.45,0,0,1,274.35,400.68Z" transform="translate(14.67)"/><path class="cls-18" d="M276,395.74c.07-.08.15-.08.3-.15s.22-.07.29-.15.44-.14.59-.22a3.1,3.1,0,0,1,.37-.07,3.7,3.7,0,0,0,.66-.15H280a.45.45,0,0,1,.29.07c.08,0,.37.08.67.15.07,0,.22.08.29.08s.44.14.59.22a.59.59,0,0,1,.3.14.51.51,0,0,0,.29.15.48.48,0,0,0-.44,0,6.35,6.35,0,0,0-5.53-.07c-1.55.88-1.62,2.28-.14,3.17a6.32,6.32,0,0,0,5.52.07c1.55-.88,1.62-2.28.15-3.17a.49.49,0,0,1,.44,0c.08.08.15.08.22.15a1.49,1.49,0,0,1,.37.29,1.52,1.52,0,0,1,.44.52c.08.07.15.22.23.29s.07.23.14.3.08.15.08.29v.45a2.43,2.43,0,0,1-1.48,2,7.41,7.41,0,0,1-6.71-.08,2.26,2.26,0,0,1-1.32-1.91v-.37c0-.08.07-.22.07-.3a3.77,3.77,0,0,1,.37-.66c.07-.07.15-.22.22-.3a1.7,1.7,0,0,1,.37-.29c.07-.07.22-.15.29-.22S275.9,395.81,276,395.74Z" transform="translate(14.67)"/><path class="cls-3" d="M283.64,412.62a8.43,8.43,0,0,1-3,.88v-2.58a10.19,10.19,0,0,1-3,0v2.58a8.87,8.87,0,0,1-3-.88v2.5a8.39,8.39,0,0,0,3,.89v2.58a10.19,10.19,0,0,0,3,0V416a8.88,8.88,0,0,0,3-.89Z" transform="translate(14.67)"/><path class="cls-3" d="M270.37,406.79c0-.14-.07-.37-.07-.51s-.08-.37-.08-.52a5,5,0,0,0-.37-1c-.15-.22-.29-.59-.44-.81a8.12,8.12,0,0,0-.59-.81,4.69,4.69,0,0,0-.59-.59c-.15-.15-.37-.29-.52-.44a3.87,3.87,0,0,0-.88-.59l-.59-.29-.44-.23a8.07,8.07,0,0,0-1-.37c-.52-.14-1-.22-1-.22s-.3-.07-.44-.07-.3-.07-.45-.07h-1.77a3.74,3.74,0,0,0-.88.14c-.37.08-.81.15-1,.22s-.3.08-.44.15-.44.15-.59.22l-.44.23a2.92,2.92,0,0,0-.67.36,6.44,6.44,0,0,0-.88.59,5.06,5.06,0,0,0-.67.59l-.66.67c-.07.14-.22.29-.29.44s-.22.29-.3.44l-.44.89a6.43,6.43,0,0,0-.3,1.1,4.48,4.48,0,0,0-.07,1c0,1.25.81,2.43,2.36,3.39a13.34,13.34,0,0,0,11.94.15c1.69-1,2.58-2.21,2.58-3.47A.85.85,0,0,0,270.37,406.79Z" transform="translate(14.67)"/><path class="cls-14" d="M270.44,407.31c0,1.25-.88,2.51-2.58,3.46a13.1,13.1,0,0,1-11.94-.14,4.12,4.12,0,0,1-2.36-3.39v12.9a2.76,2.76,0,0,1,.08.37c.07.14.15.44.22.59a2.06,2.06,0,0,0,.29.51l.45.66.44.45c.07.07.29.22.37.29a5.92,5.92,0,0,1,.81.59,5.31,5.31,0,0,0,.59.3c.14.07.36.14.51.22a7.19,7.19,0,0,0,1,.37,1.76,1.76,0,0,0,.58.14,5.09,5.09,0,0,0,1.18.22c.15,0,.45.08.59.08.37,0,.81.07,1.18.07h1.18c.15,0,.44-.07.59-.07a4.84,4.84,0,0,0,1.18-.22c.22-.08.44-.08.59-.15a5.09,5.09,0,0,0,1-.37c.15-.07.44-.15.59-.22a2.23,2.23,0,0,0,.44-.22c.15-.08.37-.22.59-.37s.37-.3.52-.44a5.46,5.46,0,0,0,.59-.59,2.39,2.39,0,0,0,.37-.52c.07-.15.22-.37.29-.51s.22-.45.3-.67a3.1,3.1,0,0,0,.07-.37.71.71,0,0,1,.08-.36v-.37Z" transform="translate(14.67)"/><path class="cls-19" d="M263.88,399.2a4.14,4.14,0,0,1-3.83-.07c-1-.59-1-1.62.07-2.21A4.16,4.16,0,0,1,264,397C265,397.65,265,398.61,263.88,399.2Z" transform="translate(14.67)"/><path class="cls-20" d="M264.25,397c.08.07.22.15.44.3s.3.29.3.36.07.15.15.23.07.14.07.22a.24.24,0,0,0,.07.14v.3a1.67,1.67,0,0,1-.95,1.32,1,1,0,0,0-.37-.73c1.1-.59,1.1-1.62.07-2.21a4.36,4.36,0,0,0-3.83-.08c-1.11.59-1.11,1.62-.08,2.21a4.38,4.38,0,0,0,3.84.08.89.89,0,0,1,.37.73,4.94,4.94,0,0,1-4.65-.07,1.78,1.78,0,0,1-1-1.33v-.14a.25.25,0,0,1,.08-.22c0-.08.07-.15.07-.3a.71.71,0,0,1,.15-.22l.29-.29c.08-.08.15-.15.22-.15s.08-.08.15-.08.15-.07.22-.14a1.88,1.88,0,0,1,.45-.22c.14-.08.29-.08.44-.15a6.13,6.13,0,0,1,1.84-.15,1.36,1.36,0,0,1,.44.07,1.2,1.2,0,0,0,.44.08,2.46,2.46,0,0,1,.45.15C264,396.92,264.18,397,264.25,397Z" transform="translate(14.67)"/><path class="cls-21" d="M264.25,399.94a4.89,4.89,0,0,1-4.64-.08,1.77,1.77,0,0,1-1-1.32v2.95a1.24,1.24,0,0,0,.29.81,1.11,1.11,0,0,1-.29-.81c0,.22,0,.37.07.44l.22.44c.15.22.3.37.37.37a1.11,1.11,0,0,0,.45.3,2.63,2.63,0,0,0,.44.22c.15.07.29.07.37.14s.14.08.22.08a3.35,3.35,0,0,0,1.1.14,6.78,6.78,0,0,0,1.18-.14c.07,0,.15-.08.22-.08s.3-.07.44-.14.15-.08.23-.08a.24.24,0,0,0,.14-.07c.08-.07.15-.07.23-.15s.14-.15.22-.15a2.53,2.53,0,0,0,.36-.44.82.82,0,0,0,.15-.22c0-.07.08-.15.08-.22s0-.15.07-.15v-3.24C265.28,399.05,264.91,399.57,264.25,399.94Z" transform="translate(14.67)"/><path class="cls-22" d="M269,412.54c-5.09,2.66-9.66,2.58-14.45-.29v8c4.87,2.87,9.44,3,14.45.3Z" transform="translate(14.67)"/><path class="cls-23" d="M276.27,427.29a8.74,8.74,0,0,0-8.11,0c-2.21,1.32-2.21,3.39,0,4.72a8.8,8.8,0,0,0,8.11,0C278.55,430.68,278.55,428.61,276.27,427.29Z" transform="translate(14.67)"/><path class="cls-24" d="M268.38,429.72v-6.56a2.58,2.58,0,0,0,1.47,2.06,8,8,0,0,0,7.3.08,2.75,2.75,0,0,0,1.62-2.22v6.57c0,.81-.51,1.54-1.62,2.21a8,8,0,0,1-7.3-.08A2.58,2.58,0,0,1,268.38,429.72Z" transform="translate(14.67)"/><path class="cls-10" d="M267.94,423.16v-2.43a2.83,2.83,0,0,0,1.54,2.28,8.8,8.8,0,0,0,8,.07,2.93,2.93,0,0,0,1.77-2.35v2.43a2.86,2.86,0,0,1-1.77,2.36,8.83,8.83,0,0,1-8-.08A2.83,2.83,0,0,1,267.94,423.16Z" transform="translate(14.67)"/><path class="cls-3" d="M277.67,418.37c2.13,1.32,2.06,3.39-.15,4.64a8.86,8.86,0,0,1-8-.07c-2.13-1.33-2.06-3.39.15-4.65A9.05,9.05,0,0,1,277.67,418.37Z" transform="translate(14.67)"/><path class="cls-25" d="M329.88,483.47,309,495.62a3.86,3.86,0,0,1-3.47,0l-15.72-9.07a1.22,1.22,0,0,1-.72-1.05v1.43a1.27,1.27,0,0,0,.72,1.05l15.72,9.07a3.85,3.85,0,0,0,3.47,0l20.89-12.15a1.21,1.21,0,0,0,.72-1v-1.43A1.27,1.27,0,0,1,329.88,483.47Z" transform="translate(14.67)"/><path class="cls-26" d="M329.83,481.49a1.07,1.07,0,0,1,0,2l-20.9,12.15a3.77,3.77,0,0,1-3.46,0l-15.73-9.07a1.07,1.07,0,0,1,0-2l20.9-12.16a3.83,3.83,0,0,1,3.46,0Z" transform="translate(14.67)"/><path class="cls-27" d="M318,475.55v1.37l-.55.28v-1.38Z" transform="translate(14.67)"/><path class="cls-28" d="M317.45,475.82v1.38a.23.23,0,0,0-.16.22V476C317.29,476,317.35,475.93,317.45,475.82Z" transform="translate(14.67)"/><path class="cls-29" d="M322.73,476.21v1.37c0-.11-.05-.16-.16-.27a.82.82,0,0,0-.88,0,.29.29,0,0,0-.17.27v-1.37c0-.11.06-.17.17-.28a.87.87,0,0,1,.88,0A.31.31,0,0,1,322.73,476.21Z" transform="translate(14.67)"/><path class="cls-29" d="M317.45,476.26v1.38c-.1-.06-.16-.11-.16-.22V476A.23.23,0,0,0,317.45,476.26Z" transform="translate(14.67)"/><path class="cls-30" d="M323.89,478.19a.23.23,0,0,0,.05-.17v-1.37a.58.58,0,0,1-.27.44c-.22.11-.44.27-.55.33v1.37c.05-.05.11-.05.22-.11V480l.55-.33a.22.22,0,0,0,.16-.22v-1.37C323.94,478.13,323.94,478.13,323.89,478.19Z" transform="translate(14.67)"/><path class="cls-31" d="M323.28,478.57V480l-.55.33V478.9Z" transform="translate(14.67)"/><path class="cls-32" d="M322,478.9l-.06,1.38-4.5-2.64v-1.38Z" transform="translate(14.67)"/><path class="cls-29" d="M322.73,478.9v1.38a.8.8,0,0,1-.71,0V478.9A.8.8,0,0,0,322.73,478.9Z" transform="translate(14.67)"/><path class="cls-33" d="M323.83,477.86a.23.23,0,0,1,0,.44l-.55.33-.55.33a.8.8,0,0,1-.71,0l-4.57-2.64a.23.23,0,0,1,0-.44l.56-.33.54-.33a.82.82,0,0,1,.72,0l.77.44c.11-.06.33-.22.55-.33a1.71,1.71,0,0,1,1.54.05l1.43.83c.44.27.49.66.05.93-.22.11-.44.28-.55.33Zm-2.14-1.43a.87.87,0,0,0,.88,0c.22-.17.22-.39,0-.5a.87.87,0,0,0-.88,0C321.41,476.1,321.41,476.32,321.69,476.43Z" transform="translate(14.67)"/><path class="cls-34" d="M308.11,475.44a9.84,9.84,0,0,0,4.29,4.18,18.22,18.22,0,0,0,8,2c1.48,0,3-.16,4.51-.27a9.53,9.53,0,0,0,2.14-.5l1.76.83v.66l-17,9.95-4.62,2.59V476Z" transform="translate(14.67)"/><path class="cls-35" d="M290.84,484.9,307,476v18.92l-16.17-9.41Z" transform="translate(14.67)"/><path class="cls-36" d="M290.84,484.9,307,494.25l21.72-12.54-5.45-3.14-.55.33a.8.8,0,0,1-.71,0l-4.56-2.64a.23.23,0,0,1,0-.44l.55-.33-5.5-3.19Z" transform="translate(14.67)"/><path class="cls-24" d="M311.57,474.06l6.93,4-6.87,4-6.93-4Zm-.16,7.1a1.05,1.05,0,0,0,.27-.17,1.87,1.87,0,0,0,.72-1,1,1,0,0,0,0-.55,1.26,1.26,0,0,0-.22-.33l-.06-.06a.87.87,0,0,1-.27-.55l.27-.16a2.6,2.6,0,0,0,1.82-.33c.22-.06.38-.17.55-.22.77-.44.93-1,.11-1.43a2.49,2.49,0,0,0-2.48.05,2.57,2.57,0,0,0-.38.33c-.55.33-.72.72-.55,1.05l-.33.16h-.5a2.24,2.24,0,0,1-.27-.05c-.06,0-.11-.06-.17-.06a2.55,2.55,0,0,0-.71-.16,2.75,2.75,0,0,0-1,0,4.19,4.19,0,0,0-1.76.44l-.33.16.93.55h.06l1.48.88.17.11h.05l.28.17,1.32.77h.05Z" transform="translate(14.67)"/><path class="cls-24" d="M311.68,490.34l-1.92,1.1L298,484.62l1.93-1.1Z" transform="translate(14.67)"/><path class="cls-24" d="M314.6,488.64l-1.93,1.1L300.9,483l1.93-1.1Z" transform="translate(14.67)"/><path class="cls-24" d="M320.76,485.17l-1.93,1.1-6.65-3.85,1.92-1.1Z" transform="translate(14.67)"/><path class="cls-37" d="M301.78,481.54c.06.06.11.06.11.11s-.11.22-.33.22l-1.64.11a.8.8,0,0,1-.34-.05c-.05-.06-.1-.06-.1-.11l-.12-.39c-.05-.11.12-.22.34-.22a.61.61,0,0,1,.32.06c.06.05.11.05.11.11l.06.16,1.32-.11A1.16,1.16,0,0,1,301.78,481.54Z" transform="translate(14.67)"/><path class="cls-37" d="M304.64,479.84c.06.05.11.05.11.11s-.11.22-.33.22l-1.65.11a.65.65,0,0,1-.33-.06c-.05-.05-.11-.05-.11-.11l-.11-.38c-.05-.11.11-.22.33-.22a.76.76,0,0,1,.33.05c.06.06.11.06.11.11l.06.17,1.32-.11C304.48,479.78,304.59,479.78,304.64,479.84Z" transform="translate(14.67)"/><path class="cls-24" d="M317.45,487l-1.92,1.1-11.77-6.82,1.93-1.1Z" transform="translate(14.67)"/><path class="cls-24" d="M323.23,483.69l-1.93,1.15L314.65,481l1.93-1.1Z" transform="translate(14.67)"/><path class="cls-24" d="M325.7,482.26l-1.92,1.1-6.66-3.8,1.93-1.15Z" transform="translate(14.67)"/><path class="cls-3" d="M314.6,476.26c.82.5.66,1-.11,1.43a1.59,1.59,0,0,1-.55.22,2.8,2.8,0,0,1-1.87.33l-.28.17a.88.88,0,0,0,.28.55,0,0,0,0,1,.05.05.87.87,0,0,1,.22.94,2.14,2.14,0,0,1-.71,1l-.28.17-.93-.55h-.06l-1.32-.77-.27-.17h-.06l-.16-.11-1.49-.88H307l-.94-.55.33-.16a5.83,5.83,0,0,1,1.76-.44,2.74,2.74,0,0,1,1,0c.28.05.5.11.72.16.05,0,.11.06.16.06s.17.05.28.05h.49l.33-.16c-.16-.33.06-.72.55-1.05a2.24,2.24,0,0,1,.39-.33A2.75,2.75,0,0,1,314.6,476.26Z" transform="translate(14.67)"/><path class="cls-37" d="M298.87,483.19c.05.06.11.06.11.11s-.11.22-.33.22l-1.65.11a.76.76,0,0,1-.33-.05c-.05-.06-.11-.06-.11-.11l-.11-.39c-.05-.11.11-.22.33-.22a.65.65,0,0,1,.33.06c.06.05.11.05.11.11l0,.16,1.33-.11C298.7,483.14,298.82,483.14,298.87,483.19Z" transform="translate(14.67)"/><path class="cls-14" d="M291.67,492.15l11.49,6.66a1.65,1.65,0,0,1-.66,1.1.43.43,0,0,1-.44,0c-3.24-1.86-7.53-4.39-10.78-6.26a.46.46,0,0,0,.44-.06l-.66-.38A1.62,1.62,0,0,1,291.67,492.15Z" transform="translate(14.67)"/><path class="cls-38" d="M291.28,493.7,302.06,500a.49.49,0,0,1-.22-.44l-10.78-6.26C291.06,493.48,291.12,493.64,291.28,493.7Z" transform="translate(14.67)"/><path class="cls-38" d="M291.72,492.1a.43.43,0,0,1,.44-.05l10.78,6.26a.5.5,0,0,1,.22.44v.06l-11.49-6.66Z" transform="translate(14.67)"/><path class="cls-14" d="M302.17,500a.43.43,0,0,1-.11-.33,1.55,1.55,0,0,1,.66-1.15.55.55,0,0,1,.27-.06c-.05-.05-.05-.11-.11-.11l.28.17.38.22.28.16.22.11H304l.06.06h0a.05.05,0,0,1,0-.06l.11.06h0c.05.05.05.11.11.16a.37.37,0,0,1,.05.22v.06a.76.76,0,0,1-.05.33c0,.05-.06.05-.06.11s-.05.16-.11.22,0,.05,0,.11-.06.11-.11.16l-.11.11c-.06.06-.11.06-.11.11h-.06c-.11.06-.16.06-.27.11h-.06c-.05,0-.11,0-.11-.05l-.33-.22a1.05,1.05,0,0,1-.27-.17c.05,0,.11,0,.11.06s-.11,0-.11-.06-.28-.16-.39-.22a1.06,1.06,0,0,1-.27-.16A.44.44,0,0,0,302.17,500Z" transform="translate(14.67)"/><path class="cls-38" d="M302.11,499.64l1.71,1c-.11.06-.17.06-.28.11h-.05c-.06,0-.11,0-.11-.05l-.33-.22a2.13,2.13,0,0,1-.28-.16c.06,0,.11,0,.11.05s-.11,0-.11-.05-.27-.17-.38-.22a2,2,0,0,1-.28-.17.23.23,0,0,0,.17,0C302.11,499.91,302.11,499.8,302.11,499.64Z" transform="translate(14.67)"/><path class="cls-39" d="M303.32,500.68l.55.33c-.11-.06-.16-.22-.16-.44l-.55-.33C303.16,500.46,303.21,500.62,303.32,500.68Z" transform="translate(14.67)"/><path class="cls-40" d="M304.75,499.42l-.55-.34a.46.46,0,0,0-.44.06,1.57,1.57,0,0,0-.66,1.1l.55.33a1.4,1.4,0,0,1,.66-1.1A.43.43,0,0,1,304.75,499.42Z" transform="translate(14.67)"/><path class="cls-41" d="M303.87,501a.84.84,0,0,0,1.05-.11.93.93,0,0,0,.27-1,1,1,0,0,0-.38-.49.43.43,0,0,0-.44.05,1.49,1.49,0,0,0-.66.94v.27C303.71,500.84,303.76,500.9,303.87,501Z" transform="translate(14.67)"/><path class="cls-38" d="M290.18,492l.5.83c0-.06-.06-.12-.06-.17Z" transform="translate(14.67)"/><path class="cls-38" d="M291.17,492h-.93l.44.66a.79.79,0,0,1,.33-.6C291.06,492.05,291.12,492,291.17,492Z" transform="translate(14.67)"/><path class="cls-42" d="M290.68,492.82c.16.27.27.49.44.76-.06-.05-.06-.16-.06-.32l-.44-.61C290.62,492.7,290.68,492.76,290.68,492.82Z" transform="translate(14.67)"/><path class="cls-43" d="M292.05,492.05h-.88a.2.2,0,0,0-.16.05.81.81,0,0,0-.33.6l.44.61a1.59,1.59,0,0,1,.66-1.16C291.83,492.05,291.94,492.05,292.05,492.05Z" transform="translate(14.67)"/><path class="cls-44" d="M302,500l.27.17a.5.5,0,0,1-.22-.44l-.27-.17A.92.92,0,0,0,302,500Z" transform="translate(14.67)"/><path class="cls-45" d="M303.21,498.48l-.27-.17a.46.46,0,0,0-.44.06,1.39,1.39,0,0,0-.66,1.15l.27.17a1.57,1.57,0,0,1,.66-1.16A.43.43,0,0,1,303.21,498.48Z" transform="translate(14.67)"/><path class="cls-46" d="M303.93,498.86l-.28-.16a.41.41,0,0,0-.44.06,1.42,1.42,0,0,0-.66,1.15l.28.17a1.57,1.57,0,0,1,.66-1.16A.46.46,0,0,1,303.93,498.86Z" transform="translate(14.67)"/><path class="cls-47" d="M302.72,500.35l.27.16a.49.49,0,0,1-.22-.44l-.27-.16A.44.44,0,0,0,302.72,500.35Z" transform="translate(14.67)"/><path class="cls-48" d="M302.77,500Z" transform="translate(14.67)"/><path class="cls-38" d="M302.5,499.91c0,.22.05.38.22.44l-.39-.22a.5.5,0,0,1-.22-.44Z" transform="translate(14.67)"/><path class="cls-38" d="M303.82,499.14h0l-.39-.17.06-.05a.46.46,0,0,1,.44-.06l.22.11h-.06l.06.06h.05a.05.05,0,0,1-.05-.06l.11.06h0l.05.05-.11-.05A.66.66,0,0,0,303.82,499.14Z" transform="translate(14.67)"/><path class="cls-38" d="M303.16,498.75l-.06.06-.38-.22,0-.06c.06,0,.11,0,.22,0h.11a.23.23,0,0,1,.17,0l.38.22C303.54,498.64,303.38,498.64,303.16,498.75Z" transform="translate(14.67)"/><path class="cls-49" d="M303.82,499.14a.46.46,0,0,1,.44-.06l.11.06.44.28a.33.33,0,0,0-.33,0c-.06,0-.06,0-.11.05l-.06,0-.49-.38Z" transform="translate(14.67)"/><path class="cls-50" d="M302.5,498.37a.46.46,0,0,1,.44-.06l.27.17a.18.18,0,0,0-.16-.06h-.11a.38.38,0,0,0-.22.06l-.06,0-.27-.16Z" transform="translate(14.67)"/><path class="cls-51" d="M302.77,498.53a.37.37,0,0,1,.22,0C302.88,498.48,302.83,498.48,302.77,498.53Z" transform="translate(14.67)"/><path class="cls-51" d="M303.93,498.86l-.28-.16Z" transform="translate(14.67)"/><path class="cls-52" d="M303.43,498.92l-.05.06-.28-.17.06-.05a.41.41,0,0,1,.44-.06l.27.16C303.82,498.81,303.65,498.81,303.43,498.92Z" transform="translate(14.67)"/><path class="cls-28" d="M78.78,638.47l-.07,2.12-.4.24.08-2.13Z" transform="translate(14.67)"/><path class="cls-53" d="M80,638.78v2.13a.44.44,0,0,0-.23-.32,1.4,1.4,0,0,0-1.1,0v-2.12a1.32,1.32,0,0,1,1.1,0A.42.42,0,0,1,80,638.78Z" transform="translate(14.67)"/><path class="cls-54" d="M78.71,638.86V641l-.4-.16.08-2.13Z" transform="translate(14.67)"/><path class="cls-55" d="M80,638.78v2.13a.41.41,0,0,1-.23.31V639.1A.44.44,0,0,0,80,638.78Z" transform="translate(14.67)"/><path class="cls-28" d="M80.36,638.78v2.13c0,.16-.08.31-.32.47v-2.13A.55.55,0,0,0,80.36,638.78Z" transform="translate(14.67)"/><path class="cls-56" d="M79.41,639.33v2.13l-.31-.24V639.1Z" transform="translate(14.67)"/><path class="cls-57" d="M79.81,639.1v2.12l-.4.24v-2.13Z" transform="translate(14.67)"/><path class="cls-28" d="M78.39,638.7l-.08,2.13-1.41.79v-2Z" transform="translate(14.67)"/><path class="cls-53" d="M76.9,639.57v2.13a4.43,4.43,0,0,0-3.86,0v-2.13A4.18,4.18,0,0,1,76.9,639.57Z" transform="translate(14.67)"/><path class="cls-58" d="M75.56,639.57v2.13l-.24.08v-2.13Z" transform="translate(14.67)"/><path class="cls-58" d="M78.71,638.86V641l-2.13,1.26v-2.13Z" transform="translate(14.67)"/><path class="cls-59" d="M76.58,640.12v2.13l-1-.55v-2.13Z" transform="translate(14.67)"/><path class="cls-57" d="M79.1,639.1v2.12L77,642.48v-2.12Z" transform="translate(14.67)"/><path class="cls-58" d="M79.81,639.1v2.12l-1.81,1v-2.13Z" transform="translate(14.67)"/><path class="cls-28" d="M80,639.26v2.12l-1.57.87v-2Z" transform="translate(14.67)"/><path class="cls-60" d="M76.34,640.28v2.13l-1-.63v-2.13Z" transform="translate(14.67)"/><path class="cls-58" d="M74.46,640.67v2.13l-.24.16v-2.13Z" transform="translate(14.67)"/><path class="cls-59" d="M78,641v2l-1-.56v-2.12Z" transform="translate(14.67)"/><path class="cls-53" d="M78.78,641.3v2.13a1.3,1.3,0,0,0-.78-1.1V640.2A1.27,1.27,0,0,1,78.78,641.3Z" transform="translate(14.67)"/><path class="cls-59" d="M75,641v2.12l-.55-.31v-2.13Z" transform="translate(14.67)"/><path class="cls-58" d="M76.34,640.28v2.13l-1.33.71V641Z" transform="translate(14.67)"/><path class="cls-57" d="M78,641v2l-.24.15v-2.12Z" transform="translate(14.67)"/><path class="cls-61" d="M77.76,641.07v2.12l-1-.55v-2.12Z" transform="translate(14.67)"/><path class="cls-62" d="M74.77,641.15v2.12l-.55-.31v-2.13Z" transform="translate(14.67)"/><path class="cls-57" d="M76.74,640.52v2.12l-1.26.71v-2.13Z" transform="translate(14.67)"/><path class="cls-59" d="M76,641.54v2.13l-.55-.32v-2.13Z" transform="translate(14.67)"/><path class="cls-63" d="M75.79,641.7v2.12l-.55-.31v-2.13Z" transform="translate(14.67)"/><path class="cls-64" d="M76,641.54v2.13l-.24.15V641.7Z" transform="translate(14.67)"/><path class="cls-28" d="M73,639.57v2.13l-16.29,9.45V649Z" transform="translate(14.67)"/><path class="cls-58" d="M73,641.54v2.13l-.24.15V641.7Z" transform="translate(14.67)"/><path class="cls-59" d="M73.51,641.85V644l-.55-.31v-2.13Z" transform="translate(14.67)"/><path class="cls-58" d="M74.77,641.15v2.12l-1.26.71v-2.13Z" transform="translate(14.67)"/><path class="cls-65" d="M73.28,642v2.13l-.56-.32V641.7Z" transform="translate(14.67)"/><path class="cls-57" d="M75.24,641.38v2.13l-1.26.71v-2.13Z" transform="translate(14.67)"/><path class="cls-66" d="M78.78,641.3v2.13a1.3,1.3,0,0,1-.78,1.1v-2.12A1.49,1.49,0,0,0,78.78,641.3Z" transform="translate(14.67)"/><path class="cls-59" d="M74.53,642.41v2.12l-.55-.31v-2.13Z" transform="translate(14.67)"/><path class="cls-28" d="M79.1,641.3v2.13a1.48,1.48,0,0,1-.95,1.26v-2.13A1.68,1.68,0,0,0,79.1,641.3Z" transform="translate(14.67)"/><path class="cls-67" d="M74.3,642.56v2.13l-.55-.31v-2.13Z" transform="translate(14.67)"/><path class="cls-57" d="M74.53,642.41v2.12l-.23.16v-2.13Z" transform="translate(14.67)"/><path class="cls-58" d="M71.47,642.41v2.12l-.24.16v-2.13Z" transform="translate(14.67)"/><path class="cls-58" d="M73.28,642v2.13l-1.26.71v-2.13Z" transform="translate(14.67)"/><path class="cls-59" d="M72,642.72v2.13l-.55-.32v-2.12Z" transform="translate(14.67)"/><path class="cls-68" d="M71.78,642.88V645l-.55-.32v-2.13Z" transform="translate(14.67)"/><path class="cls-57" d="M73.75,642.25v2.13l-1.34.7.08-2Z" transform="translate(14.67)"/><path class="cls-58" d="M69.5,643v2.12l-.24.16v-2.13Z" transform="translate(14.67)"/><path class="cls-59" d="M73,643.35l-.08,2-.55-.31.08-2.05Z" transform="translate(14.67)"/><path class="cls-69" d="M72.8,643.43l-.08,2.13-.55-.32.08-2.13Z" transform="translate(14.67)"/><path class="cls-57" d="M73,643.35l-.08,2-.24.16.08-2.13Z" transform="translate(14.67)"/><path class="cls-58" d="M71.78,642.88V645l-1.26.71v-2.05Z" transform="translate(14.67)"/><path class="cls-59" d="M70.52,643.67v2.05l-1-.56V643Z" transform="translate(14.67)"/><path class="cls-70" d="M70.29,643.75v2.12l-1-.55v-2.13Z" transform="translate(14.67)"/><path class="cls-57" d="M72.25,643.11l-.08,2.13-1.25.71V643.9Z" transform="translate(14.67)"/><path class="cls-58" d="M68.48,644.22v2l-.24.15V644.3Z" transform="translate(14.67)"/><path class="cls-59" d="M71.94,644.46v2.12l-1-.63V643.9Z" transform="translate(14.67)"/><path class="cls-59" d="M69,644.53v2.05l-.55-.31v-2Z" transform="translate(14.67)"/><path class="cls-58" d="M70.29,643.74v2.13l-1.26.71v-2.05Z" transform="translate(14.67)"/><path class="cls-64" d="M71.94,644.45v2.13l-.24.16v-2.13Z" transform="translate(14.67)"/><path class="cls-71" d="M71.7,644.61v2.13l-1-.63V644Z" transform="translate(14.67)"/><path class="cls-72" d="M68.79,644.61v2.13l-.55-.32V644.3Z" transform="translate(14.67)"/><path class="cls-57" d="M70.68,644v2.13l-1.26.79v-2.13Z" transform="translate(14.67)"/><path class="cls-58" d="M68.79,644.61v2.13l-.63.39V645Z" transform="translate(14.67)"/><path class="cls-59" d="M70,645.09v2.12l-.55-.31v-2.13Z" transform="translate(14.67)"/><path class="cls-57" d="M70,645.09v2.12l-.24.08v-2Z" transform="translate(14.67)"/><path class="cls-73" d="M69.73,645.24v2l-.55-.31v-2.13Z" transform="translate(14.67)"/><path class="cls-58" d="M67,645.09v2.12l-.24.08v-2.13Z" transform="translate(14.67)"/><path class="cls-57" d="M69.18,644.85V647l-.63.39v-2.13Z" transform="translate(14.67)"/><path class="cls-74" d="M68.55,645.24v2.13l-.39-.24V645Z" transform="translate(14.67)"/><path class="cls-59" d="M67.53,645.4v2.13l-.55-.32v-2.12Z" transform="translate(14.67)"/><path class="cls-58" d="M68.16,645v2.12l-.63.4V645.4Z" transform="translate(14.67)"/><path class="cls-28" d="M67.3,645.56v2l-.56-.31v-2.13Z" transform="translate(14.67)"/><path class="cls-28" d="M68.55,645.24v2.13l-.63.39v-2.12Z" transform="translate(14.67)"/><path class="cls-59" d="M68.48,646v2.13l-.56-.32v-2.12Z" transform="translate(14.67)"/><path class="cls-28" d="M68.48,646v2.13l-.24.08v-2Z" transform="translate(14.67)"/><path class="cls-28" d="M68.24,646.11v2l-.55-.32v-2.05Z" transform="translate(14.67)"/><path class="cls-58" d="M65.49,646v2.13l-.24.08v-2Z" transform="translate(14.67)"/><path class="cls-59" d="M66,646.27v2.12l-.55-.31V646Z" transform="translate(14.67)"/><path class="cls-58" d="M67.3,645.56v2.05l-1.26.78v-2.12Z" transform="translate(14.67)"/><path class="cls-28" d="M65.8,646.42v2.05l-.55-.31v-2Z" transform="translate(14.67)"/><path class="cls-28" d="M67.69,645.79v2.05l-1.26.79V646.5Z" transform="translate(14.67)"/><path class="cls-58" d="M63.52,646.58v2l-.24.16v-2.13Z" transform="translate(14.67)"/><path class="cls-59" d="M67,646.82V649l-.55-.32V646.5Z" transform="translate(14.67)"/><path class="cls-28" d="M66.74,647v2.13l-.55-.31v-2.13Z" transform="translate(14.67)"/><path class="cls-28" d="M67,646.82V649l-.24.15V647Z" transform="translate(14.67)"/><path class="cls-58" d="M65.8,646.42v2.05l-1.34.79v-2.13Z" transform="translate(14.67)"/><path class="cls-59" d="M64.46,647.13v2.13l-.94-.63v-2Z" transform="translate(14.67)"/><path class="cls-28" d="M64.23,647.29v2.13l-1-.63v-2.13Z" transform="translate(14.67)"/><path class="cls-28" d="M66.19,646.66v2.13l-1.26.71v-2.13Z" transform="translate(14.67)"/><path class="cls-58" d="M62.42,647.68v2.13l-.24.16v-2.13Z" transform="translate(14.67)"/><path class="cls-59" d="M66,648v2l-1-.55v-2.13Z" transform="translate(14.67)"/><path class="cls-58" d="M64.23,647.29v2.13l-1.26.71V648Z" transform="translate(14.67)"/><path class="cls-59" d="M63,648v2.13l-.55-.32v-2.13Z" transform="translate(14.67)"/><path class="cls-28" d="M66,648v2l-.24.16v-2.13Z" transform="translate(14.67)"/><path class="cls-28" d="M65.72,648.08v2.13l-1-.55v-2.13Z" transform="translate(14.67)"/><path class="cls-28" d="M62.73,648.16v2.12l-.55-.31v-2.13Z" transform="translate(14.67)"/><path class="cls-28" d="M64.7,647.53v2.13l-1.26.7v-2.12Z" transform="translate(14.67)"/><path class="cls-59" d="M64,648.55v2.13l-.55-.32v-2.12Z" transform="translate(14.67)"/><path class="cls-28" d="M63.75,648.71v2.13l-.55-.32v-2.13Z" transform="translate(14.67)"/><path class="cls-28" d="M64,648.55v2.13l-.24.16v-2.13Z" transform="translate(14.67)"/><path class="cls-58" d="M60.92,648.55v2.13l-.23.16v-2.13Z" transform="translate(14.67)"/><path class="cls-58" d="M62.73,648.16v2.12l-1.26.71v-2.12Z" transform="translate(14.67)"/><path class="cls-59" d="M61.47,648.87V651l-.55-.31v-2.13Z" transform="translate(14.67)"/><path class="cls-28" d="M61.24,649v2.13l-.55-.31v-2.13Z" transform="translate(14.67)"/><path class="cls-28" d="M63.2,648.39v2.13l-1.33.71.07-2.13Z" transform="translate(14.67)"/><path class="cls-59" d="M62.5,649.42l-.08,2.12-.55-.31.07-2.13Z" transform="translate(14.67)"/><path class="cls-14" d="M62.5,649.42l-.08,2.12-.24.16.08-2.12Z" transform="translate(14.67)"/><path class="cls-14" d="M62.26,649.58l-.08,2.12-.55-.31.08-2.13Z" transform="translate(14.67)"/><path class="cls-58" d="M59.43,649.42v2.12l-.24.16v-2.12Z" transform="translate(14.67)"/><path class="cls-53" d="M56.75,649v2.13a1.32,1.32,0,0,0-.79,1.1v-2.12A1.5,1.5,0,0,1,56.75,649Z" transform="translate(14.67)"/><path class="cls-58" d="M61.24,649v2.13l-1.26.71v-2.13Z" transform="translate(14.67)"/><path class="cls-59" d="M60,649.73v2.13l-.55-.32v-2.12Z" transform="translate(14.67)"/><path class="cls-28" d="M59.74,649.89V652l-.55-.32v-2.12Z" transform="translate(14.67)"/><path class="cls-14" d="M61.71,649.26l-.08,2.13-1.26.71V650Z" transform="translate(14.67)"/><path class="cls-53" d="M56.75,649v2.13a1.32,1.32,0,0,0-.79,1.1v-2.12A1.5,1.5,0,0,1,56.75,649Z" transform="translate(14.67)"/><path class="cls-58" d="M57.46,650.05v2.12l-.24.16v-2.12Z" transform="translate(14.67)"/><path class="cls-59" d="M60.92,650.36v2l-.55-.31V650Z" transform="translate(14.67)"/><path class="cls-28" d="M60.92,650.36v2l-.23.16v-2.13Z" transform="translate(14.67)"/><path class="cls-28" d="M60.69,650.44v2.13l-.56-.32v-2.12Z" transform="translate(14.67)"/><path class="cls-59" d="M58.48,650.68v2.05l-1-.56v-2.12Z" transform="translate(14.67)"/><path class="cls-58" d="M59.74,649.89V652l-1.26.71v-2.05Z" transform="translate(14.67)"/><path class="cls-28" d="M60.13,650.13v2.12l-1.25.71v-2.05Z" transform="translate(14.67)"/><path class="cls-66" d="M56.83,651.31v2.13a1.34,1.34,0,0,1-.79-1.19v-2.12C56,650.6,56.28,651,56.83,651.31Z" transform="translate(14.67)"/><path class="cls-28" d="M56.59,651.47v2.12c-.63-.39-.94-.78-.94-1.26v-2.12A1.69,1.69,0,0,0,56.59,651.47Z" transform="translate(14.67)"/><path class="cls-59" d="M59.9,651.47v2.12l-1-.63v-2.05Z" transform="translate(14.67)"/><path class="cls-14" d="M68.16,645l.39.23-.63.4.56.31-.24.16-.55-.32-1.26.71.55.32-.24.15-.55-.31-1.26.71,1,.63-.24.08-1-.55-1.26.71.55.31-.24.16-.55-.32-1.26.71.56.32-.24.16-.55-.32-1.34.71.55.39-.23.08-.56-.31-1.25.78,1,.56-.24.15-2.44-1.41.24-.16,1,.63,1.26-.79-.55-.31.24-.16.55.31,1.26-.71-.55-.31.23-.16.55.32,1.26-.71-.55-.32.24-.16L63,648l1.26-.71-1-.63.24-.08.94.55,1.34-.71-.55-.31.24-.16.55.32,1.26-.71-.56-.4.24-.07.55.31Z" transform="translate(14.67)"/><path class="cls-28" d="M59.9,651.47v2.12l-.24.16v-2.13Z" transform="translate(14.67)"/><path class="cls-28" d="M59.66,651.62v2.13l-2.44-1.42v-2.12Z" transform="translate(14.67)"/><path class="cls-58" d="M77.92,642.41v2.12L61.71,654v-2.13Z" transform="translate(14.67)"/><path class="cls-59" d="M57.77,651.86V654l-.94-.55v-2.13Z" transform="translate(14.67)"/><path class="cls-66" d="M61.71,651.86V654a4.34,4.34,0,0,1-3.94,0v-2.13A4.34,4.34,0,0,0,61.71,651.86Z" transform="translate(14.67)"/><path class="cls-3" d="M79.81,639.1l-1.81,1a1.22,1.22,0,0,1-.08,2.29l-16.29,9.45a4.32,4.32,0,0,1-3.93,0l-1-.55a1.21,1.21,0,0,1,0-2.29L73,639.57a4.18,4.18,0,0,1,3.86,0l1.41-.87.32.16-2.13,1.26-1-.55-.24.16,1,.55L75,641l-.55-.32-.24.16.55.32-1.26.7-.55-.31-.24.16.56.31-1.26.71-.55-.31-.24.15.55.32-1.26.71-1-.55-.24.15,1,.55-1.26.79-.55-.31-.24.16.55.31-.63.4-.63.39-.55-.32-.24.16.56.32-1.26.7-.55-.31-.24.16.55.31-1.26.71-1-.55-.24.16,1,.55-1.26.71-.55-.32-.24.16.55.32-1.26.71-.55-.32-.24.16.55.31-1.25.71-.55-.31-.24.15.55.32-1.26.71-1-.55-.24.15,2.44,1.42.24-.16L59,651l1.26-.71.55.32.24-.16-.55-.31,1.26-.71.55.31.24-.15-.56-.32,1.26-.71.55.32.24-.16-.55-.32,1.26-.71,1,.56.24-.16-1-.55,1.26-.71.55.31L67,647l-.55-.32,1.26-.71.55.32.24-.16-.56-.32.63-.39.63-.39.55.31.24-.16-.55-.31,1.26-.71,1,.55.24-.16-1-.55,1.26-.71.55.32.24-.16-.55-.32,1.26-.7.55.31.24-.16-.55-.31,1.25-.71.55.31.24-.15-.55-.32,1.26-.71,1,.55.24-.15-1-.55L79,639.26l.31.15Z" transform="translate(14.67)"/><path class="cls-28" d="M78.47,640.2c.94.71.86,1.73-.24,2.36L61.94,652a4.81,4.81,0,0,1-4.4,0l-.95-.55c-1.26-.71-1.26-1.89,0-2.6l16.29-9.46a4.91,4.91,0,0,1,4.09-.15l1.58-1a1.8,1.8,0,0,1,1.57,0c.47.23.47.63,0,.87ZM61.71,651.86,78,642.41a1.22,1.22,0,0,0,.08-2.29l1.81-1a.33.33,0,0,0,0-.63,1.34,1.34,0,0,0-1.11,0l-.39.23-1.42.87a4.41,4.41,0,0,0-3.85,0L56.83,649a1.21,1.21,0,0,0,0,2.29l.94.55A4.34,4.34,0,0,0,61.71,651.86Z" transform="translate(14.67)"/><path class="cls-75" d="M79.81,638.47a.33.33,0,0,1,0,.63l-.4.23-.31-.16L77,640.44l1,.55-.24.16-1-.56-1.26.71.55.32-.24.16-.55-.32-1.26.71.55.31-.23.16-.55-.31-1.26.71.55.31-.24.16-.55-.32L71,643.9l1,.55-.24.16-1-.55-1.26.71.55.31-.24.16-.55-.31-.63.39-.39-.24.63-.39-.55-.31.23-.16.55.31,1.26-.71-1-.55.24-.16,1,.56,1.26-.71-.55-.32.23-.16.56.32,1.25-.71-.55-.31.24-.16.55.31,1.26-.71-.55-.31.23-.16.56.32,1.25-.71-1-.55.24-.16,1,.55,2.12-1.26-.31-.16.39-.24A1,1,0,0,1,79.81,638.47Z" transform="translate(14.67)"/><path class="cls-28" d="M78.23,642.56l-.08,2.13-16.21,9.46V652Z" transform="translate(14.67)"/><path class="cls-28" d="M57.54,652v2.12l-1-.55.07-2.12Z" transform="translate(14.67)"/><path class="cls-28" d="M61.94,652v2.13a4.87,4.87,0,0,1-4.4,0V652A4.81,4.81,0,0,0,61.94,652Z" transform="translate(14.67)"/><path class="cls-23" d="M59.58,640.91c0,.08.08.24.16.24h.08c2.2-1.26,4.41-2.6,6.61-3.87,0-.07-.08-.15-.08-.23-2.2,1.26-4.41,2.52-6.69,3.78C59.58,640.83,59.58,640.83,59.58,640.91Z" transform="translate(14.67)"/><path class="cls-76" d="M60.84,638.86c0,.08.08.24.16.24h.08c2.2-1.26,4.4-2.6,6.61-3.86,0-.08-.08-.16-.08-.24-2.2,1.26-4.41,2.52-6.69,3.78C60.84,638.78,60.84,638.78,60.84,638.86Z" transform="translate(14.67)"/><path class="cls-14" d="M41.88,646.5a6.56,6.56,0,0,0,2.83,5.12,2.12,2.12,0,0,0,2.13.24l12.74-7.33a1.94,1.94,0,0,0,.87-1.81,6,6,0,0,0-.16-1.18c.32-.24.71-.39,1-.63a1,1,0,0,0,.4-.87,3.38,3.38,0,0,0-.16-.78l.24-.16a.4.4,0,0,0,.15-.24c0-.24-.15-.63-.39-.71h-.08l-.16.08a.07.07,0,0,0-.07.08,2.21,2.21,0,0,0-.63-.55.84.84,0,0,0-1-.08c-.31.24-.71.39-1,.63a5.45,5.45,0,0,0-.79-.63,2.15,2.15,0,0,0-2.12-.24L43,644.77C42.19,644.93,41.88,645.56,41.88,646.5Z" transform="translate(14.67)"/><path class="cls-77" d="M50.55,645.57l-.27.15,1.18,2,.27-.16Z" transform="translate(14.67)"/><path class="cls-77" d="M57.19,641.78l-.28.16,1.18,2,.28-.16Z" transform="translate(14.67)"/><path class="cls-77" d="M52.51,645.17l-.27.16.59,1,.27-.16Z" transform="translate(14.67)"/><path class="cls-77" d="M55.8,643.21l-.27.15.59,1,.27-.16Z" transform="translate(14.67)"/><path class="cls-77" d="M54.15,644.15l-.28.16.59,1,.27-.16Z" transform="translate(14.67)"/><path class="cls-77" d="M44,649.42l-.28.16,1.18,2,.27-.15Z" transform="translate(14.67)"/><path class="cls-77" d="M45.9,649l-.28.15.59,1,.28-.16Z" transform="translate(14.67)"/><path class="cls-77" d="M49.21,647.07l-.27.15.58,1,.28-.16Z" transform="translate(14.67)"/><path class="cls-78" d="M49,642.72a5.82,5.82,0,0,1,2.6,4.65,1.78,1.78,0,0,1-.79,1.65l8.34-4.8a1.81,1.81,0,0,0,.79-1.66,5.8,5.8,0,0,0-2.6-4.57,1.89,1.89,0,0,0-1.89-.23c-2.75,1.57-5.59,3.15-8.34,4.8A1.88,1.88,0,0,1,49,642.72Z" transform="translate(14.67)"/><path class="cls-77" d="M49,642.72,49,645.79l.08-3.07a5.82,5.82,0,0,1,2.6,4.65,1.63,1.63,0,0,1-2.68,1.5,5.82,5.82,0,0,1-2.6-4.65A1.63,1.63,0,0,1,49,642.72Z" transform="translate(14.67)"/><path class="cls-79" d="M49,642.41A6.43,6.43,0,0,1,52,647.53a2,2,0,0,1-.87,1.89c.4-.24-.23.16.16-.08a2,2,0,0,0,.87-1.89,6.43,6.43,0,0,0-2.91-5.12,2.14,2.14,0,0,0-2.13-.24c-.39.24.24-.16-.16.08A2.12,2.12,0,0,1,49,642.41Z" transform="translate(14.67)"/><path class="cls-3" d="M49,642.41A6.43,6.43,0,0,1,52,647.53c0,1.89-1.34,2.6-3,1.65a6.43,6.43,0,0,1-2.91-5.12C46.13,642.17,47.47,641.46,49,642.41Z" transform="translate(14.67)"/><path class="cls-28" d="M47.23,649.34c.86-.47,1.73-1,2.6-1.5.31-.16.47-.47.47-1a3.44,3.44,0,0,0-1.5-2.68c-.47-.24-.86-.32-1.1-.16-.86.47-1.73,1-2.6,1.5C45.34,645.32,47.47,649.18,47.23,649.34Z" transform="translate(14.67)"/><path class="cls-3" d="M43.77,644.3,43.69,647c-.87-.48-1.57-.16-1.57.86a3.43,3.43,0,0,0,1.49,2.68c.87.47,1.57.16,1.57-.87A3.43,3.43,0,0,0,43.69,647l.08-2.68a8.79,8.79,0,0,1,3.85,6.77c0,2.45-1.81,3.47-3.93,2.21a8.77,8.77,0,0,1-3.86-6.78C39.83,644,41.64,643,43.77,644.3Z" transform="translate(14.67)"/><path class="cls-14" d="M40.93,644.06a2.75,2.75,0,0,1,2.76.24,8.4,8.4,0,0,1,2.83,2.91,7.46,7.46,0,0,1,1.1,3.94,2.65,2.65,0,0,1-1.18,2.44c.4-.23.16-.07.55-.31a2.8,2.8,0,0,0,1.18-2.44,8.28,8.28,0,0,0-1.1-3.94A7.25,7.25,0,0,0,44.24,644a2.7,2.7,0,0,0-2.75-.23C41.09,643.9,41.33,643.82,40.93,644.06Z" transform="translate(14.67)"/><path class="cls-28" d="M41.17,648.55a3.32,3.32,0,0,1,1.5,2.76,1.08,1.08,0,0,1-.48,1c.87-.47,1.74-1,2.6-1.49.32-.16.47-.48.47-1a3.5,3.5,0,0,0-1.49-2.68c-.47-.23-.87-.31-1.1-.15-.87.47-1.74,1-2.6,1.49C40.31,648.24,40.7,648.24,41.17,648.55Z" transform="translate(14.67)"/><path class="cls-14" d="M40,647.6a6.46,6.46,0,0,1,2.91,5.13,2,2,0,0,1-.86,1.89c.39-.24.31-.16.7-.4a2,2,0,0,0,.87-1.89,6.44,6.44,0,0,0-2.91-5.12,2.16,2.16,0,0,0-2.13-.24c-.39.24-.31.16-.7.4A2.12,2.12,0,0,1,40,647.6Z" transform="translate(14.67)"/><path class="cls-3" d="M40,647.6a6.46,6.46,0,0,1,2.91,5.13c0,1.89-1.34,2.6-3,1.65A6.44,6.44,0,0,1,37,649.26C37.08,647.37,38.42,646.66,40,647.6Z" transform="translate(14.67)"/><path class="cls-14" d="M54,647.21l.23-.16a4.7,4.7,0,0,0-.47-2.83l-.24.16A5.24,5.24,0,0,1,54,647.21Z" transform="translate(14.67)"/><path class="cls-14" d="M55.65,645.64l.24-.16a3.68,3.68,0,0,0-.24-1.42l-.24.16A5.13,5.13,0,0,1,55.65,645.64Z" transform="translate(14.67)"/><path class="cls-14" d="M58.88,643.75l.23-.16a3.8,3.8,0,0,0-.23-1.42l-.24.16A5.67,5.67,0,0,1,58.88,643.75Z" transform="translate(14.67)"/><path class="cls-14" d="M57.22,644.69l.24-.16a3.68,3.68,0,0,0-.24-1.42l-.23.16A3.73,3.73,0,0,1,57.22,644.69Z" transform="translate(14.67)"/><path class="cls-14" d="M49.2,649.34l.23-.16a3.82,3.82,0,0,0-.23-1.42l-.24.16A13.05,13.05,0,0,1,49.2,649.34Z" transform="translate(14.67)"/><path class="cls-14" d="M52.42,647.45l.24-.16a3.68,3.68,0,0,0-.24-1.42l-.23.16A5.82,5.82,0,0,1,52.42,647.45Z" transform="translate(14.67)"/><path class="cls-14" d="M50.77,648.39l.24-.15a3.65,3.65,0,0,0-.24-1.42l-.24.15A5.85,5.85,0,0,1,50.77,648.39Z" transform="translate(14.67)"/><path class="cls-38" d="M103.77,255.4V257a1.34,1.34,0,0,0-.82-1.19c-.09-.09-.18-.09-.37-.19a4.34,4.34,0,0,0-2.19-.27,3.94,3.94,0,0,0-1.92.64,1.29,1.29,0,0,0-.55,1V255.4a1.27,1.27,0,0,1,.55-1,3,3,0,0,1,1.92-.64,4.36,4.36,0,0,1,2.19.27c.1.09.28.09.37.18A1.6,1.6,0,0,1,103.77,255.4Z" transform="translate(14.67)"/><path class="cls-38" d="M105,255.4V257a1.73,1.73,0,0,1-.55,1.18v-1.55A1.59,1.59,0,0,0,105,255.4Z" transform="translate(14.67)"/><path class="cls-28" d="M101.67,257.78v1.55a6.21,6.21,0,0,1-3.2-.45,1.66,1.66,0,0,1-.45-.28,2,2,0,0,1-1.19-1.73v-1.56A2.12,2.12,0,0,0,98,257.05a2,2,0,0,1,.45.27A6.22,6.22,0,0,0,101.67,257.78Z" transform="translate(14.67)"/><path class="cls-38" d="M103.32,258.51v1.56l-.46.09V258.6Z" transform="translate(14.67)"/><path class="cls-38" d="M106.6,258.88l-.09,1.55-.82.64v-1.55Z" transform="translate(14.67)"/><path class="cls-28" d="M105.69,259.52v1.55l-2.37-1v-1.56Z" transform="translate(14.67)"/><path class="cls-28" d="M109.8,262.26v1.56l-1.73-1.37v-1.56Z" transform="translate(14.67)"/><path class="cls-38" d="M118.11,263.73v1.55a1.28,1.28,0,0,0-.54-1c-.1-.09-.19-.18-.28-.18a4.44,4.44,0,0,0-3.74-.18,2,2,0,0,0-1.19,1.1v-1.56c.09-.46.55-.82,1.19-1.1a4.46,4.46,0,0,1,3.74.19c.09.09.18.09.28.18A1.26,1.26,0,0,1,118.11,263.73Z" transform="translate(14.67)"/><path class="cls-28" d="M119.3,263.73v1.55a.58.58,0,0,1-.09.37v-1.56A.54.54,0,0,0,119.3,263.73Z" transform="translate(14.67)"/><path class="cls-38" d="M102.86,258.6v1.56l-7.68,8.41V267Z" transform="translate(14.67)"/><path class="cls-38" d="M111.08,263.27v1.55L94.36,270v-1.56Z" transform="translate(14.67)"/><path class="cls-28" d="M119.21,264.09v1.56a2.51,2.51,0,0,1-1.64,1.55,6.52,6.52,0,0,1-5.39-.27c-.19-.09-.28-.19-.46-.28a1.84,1.84,0,0,1-.82-1.37v-1.55a1.62,1.62,0,0,0,.82,1.37,1.86,1.86,0,0,0,.46.27,6.82,6.82,0,0,0,5.39.28A2.55,2.55,0,0,0,119.21,264.09Z" transform="translate(14.67)"/><path class="cls-38" d="M94.36,268.39V270l-1,.64V269Z" transform="translate(14.67)"/><path class="cls-38" d="M93.36,269v1.55h-.09V269Z" transform="translate(14.67)"/><path class="cls-38" d="M91.16,269.3v1.56c-3.47.82-13,3.2-13,3.2v-1.55S87.69,270.22,91.16,269.3Z" transform="translate(14.67)"/><path class="cls-38" d="M93.27,269.49V271c0,4.21-7.13,7.5-7.68,7.41V276.9C86.23,277,93.27,273.7,93.27,269.49Z" transform="translate(14.67)"/><path class="cls-14" d="M119.21,264.09a2.55,2.55,0,0,1-1.64,1.56,6.49,6.49,0,0,1-5.39-.28c-.19-.09-.28-.18-.46-.27a1.77,1.77,0,0,1-.73-1.83v-.09L94.18,268.3l-1,.55-.09.09c.46,4.39-7,8-7.67,7.77,0,0,4-5.48,5.57-7.5-3.47.83-13,3.21-13,3.21-.28-.37,5.94-4.67,13.43-4.4h.09l1-.54,9-9.7a6.2,6.2,0,0,1-3.2-.46,2.07,2.07,0,0,1-.46-.27c-1.46-.82-1.64-2.11-.45-3.11a4.94,4.94,0,0,1,2.74-.92,7,7,0,0,1,3.1.46,1.59,1.59,0,0,1,.46.28c1.37.82,1.64,1.92.64,2.92l.18,1.47,1.92.82-.82.64-2.38-1h-.36L95.09,267l14.53-4.48.09-.28L108,260.89l1.1-.46,1.37,1.1,2.47.09a6.49,6.49,0,0,1,4.93.37c.18.09.27.18.46.27C119.12,262.81,119.39,263.45,119.21,264.09Zm-20.1-7.32a4.61,4.61,0,0,0,4.11-.36,1.24,1.24,0,0,0-.27-2.2c-.09-.09-.18-.09-.37-.18a4.23,4.23,0,0,0-2.19-.27,3.94,3.94,0,0,0-1.92.64,1.23,1.23,0,0,0,.28,2.19C98.93,256.68,99,256.77,99.11,256.77Zm17.73,8.33A2,2,0,0,0,118,264a1.29,1.29,0,0,0-.55-1.28c-.09-.09-.18-.18-.27-.18a4.48,4.48,0,0,0-3.74-.19,2,2,0,0,0-1.19,1.1,1.29,1.29,0,0,0,.55,1.28c.09.09.18.18.27.18A4.5,4.5,0,0,0,116.84,265.1Z" transform="translate(14.67)"/><rect class="cls-1" x="233.67" y="576" width="118" height="103"/></g></svg>